<svg xmlns="http://www.w3.org/2000/svg" viewBox="0 0 1024 536" xmlns:v="https://vecta.io/nano"><path d="M0 0h1024v512H0z" fill="#fff" stroke="#000"/>"     <path d="M1 1h7v30H1zm8 0h18v30H9zm19 0h16v30H28z" fill="#303030" stroke="#181818"/>"     "     "     <path d="M45 1h20v30H45zm21 0h7v30h-7zm8 0h15v30H74z" stroke="#181818" fill="#303130"/>"     "     "     <path d="M90 1h13v30H90zm14 0h3v30h-3z" fill="#303230" stroke="#181918"/>"     "     <path d="M108 1h17v30h-17zm18 0h15v30h-15zm16 0h21v30h-21z" stroke="#181918" fill="#303330"/>"     "     "     <path d="M164 1h29v30h-29zm30 0h13v30h-13zm14 0h7v30h-7z" fill="#303430" stroke="#181a18"/>"     "     "     <path d="M216 1h22v30h-22zm23 0h1v30h-1z" stroke="#181a18" fill="#303530"/>"     "     <path d="M241 1h28v30h-28zm29 0h29v30h-29zm30 0h5v30h-5z" fill="#303630" stroke="#181b18"/>"     "     "     <path d="M306 1h28v30h-28zm29 0h21v30h-21zm22 0h15v30h-15z" stroke="#181b18" fill="#303730"/>"     "     "     <path d="M373 1h28v30h-28zm29 0h20v30h-20z" fill="#303830" stroke="#181c18"/>"     "     <path d="M423 1h20v30h-20zm21 0h23v30h-23zm24 0h28v30h-28z" stroke="#181c18" fill="#303930"/>"     "     "     <path d="M497 1h3v30h-3zm4 0h27v30h-27zm28 0h5v30h-5z" fill="#303a30" stroke="#181d18"/>"     "     "     <path d="M535 1h5v30h-5zm6 0h22v30h-22z" stroke="#181d18" fill="#303b30"/>"     "     <path d="M564 1h23v30h-23zm24 0h23v30h-23zm24 0h17v30h-17z" fill="#303c30" stroke="#181e18"/>"     "     "     <path d="M630 1h22v30h-22zm23 0h8v30h-8zm9 0h7v30h-7z" stroke="#181e18" fill="#303d30"/>"     "     "     <path d="M670 1h10v30h-10zm11 0h10v30h-10z" fill="#303e30" stroke="#181f18"/>"     "     <path d="M692 1h21v30h-21zm22 0h12v30h-12zm13 0h5v30h-5z" stroke="#181f18" fill="#303f30"/>"     "     "     <path d="M733 1h3v30h-3zm4 0h2v30h-2zm3 0h27v30h-27z" fill="#304030" stroke="#182018"/>"     "     "     <path d="M768 1h12v30h-12zm13 0h18v30h-18z" stroke="#182018" fill="#304130"/>"     "     <path d="M800 1h17v30h-17zm18 0h4v30h-4zm5 0h7v29h-7z" fill="#304230" stroke="#182118"/>"     "     "     <path d="M831 1h8v29h-8zm9 0h11v29h-11zm12 0h19v29h-19z" stroke="#182118" fill="#304330"/>"     "     "     <path d="M872 1h17v29h-17zm18 0h27v29h-27z" fill="#304430" stroke="#182218"/>"     "     <path d="M918 1h29v29h-29zm30 0h19v29h-19zm20 0h10v29h-10z" stroke="#182218" fill="#304530"/>"     "     "     <path d="M979 1h29v29h-29zm30 0h15v29h-15zM1 32h20v29H1z" fill="#304630" stroke="#182318"/>"     "     "     <path d="M22 32h11v29H22zm12 0h7v29h-7z" stroke="#182318" fill="#304730"/>"     "     <path d="M42 32h6v29h-6zm7 0h29v29H49zm30 0h6v29h-6z" fill="#304830" stroke="#182418"/>"     "     "     <path d="M86 32h4v29h-4zm5 0h22v29H91zm23 0h5v29h-5z" stroke="#182418" fill="#304930"/>"     "     "     <path d="M120 32h30v29h-30zm31 0h20v29h-20z" fill="#304a30" stroke="#182518"/>"     "     <path d="M172 32h8v29h-8zm9 0h24v29h-24zm25 0h17v29h-17z" stroke="#182518" fill="#304b30"/>"     "     "     <path d="M224 32h10v29h-10zm11 0h17v29h-17zm18 0h28v29h-28z" fill="#304c30" stroke="#182618"/>"     "     "     <path d="M282 32h20v29h-20zm21 0h26v29h-26z" stroke="#182618" fill="#304d30"/>"     "     <path d="M330 32h20v29h-20zm21 0h21v29h-21zm22 0h3v29h-3z" fill="#304e30" stroke="#182718"/>"     "     "     <path d="M377 32h22v29h-22zm23 0h12v29h-12zm13 0h29v29h-29z" stroke="#182718" fill="#304f30"/>"     "     "     <path d="M443 32h11v29h-11zm12 0h18v29h-18z" fill="#305030" stroke="#182818"/>"     "     <path d="M474 32h26v29h-26zm27 0h13v29h-13zm14 0h13v29h-13z" stroke="#182818" fill="#305130"/>"     "     "     <path d="M529 32h11v29h-11zm12 0h17v29h-17zm18 0h18v29h-18z" fill="#305230" stroke="#182918"/>"     "     "     <path d="M578 32h7v29h-7zm8 0h3v29h-3z" stroke="#182918" fill="#305330"/>"     "     <path d="M590 32h19v29h-19zm20 0h7v28h-7zm8 0h2v28h-2z" fill="#305430" stroke="#182a18"/>"     "     "     <path d="M621 32h2v28h-2zm3 0h23v28h-23zm24 0h19v28h-19z" stroke="#182a18" fill="#305530"/>"     "     "     <path d="M668 32h16v28h-16zm17 0h3v28h-3z" fill="#305630" stroke="#182b18"/>"     "     <path d="M689 32h14v28h-14zm15 0h10v28h-10zm11 0h5v28h-5z" stroke="#182b18" fill="#305730"/>"     "     "     <path d="M721 32h10v28h-10zm11 0h12v28h-12zm13 0h4v28h-4z" fill="#305830" stroke="#182c18"/>"     "     "     <path d="M750 32h21v28h-21zm22 0h28v28h-28z" stroke="#182c18" fill="#305930"/>"     "     <path d="M801 32h10v28h-10zm11 0h18v28h-18zm19 0h26v28h-26z" fill="#305a30" stroke="#182d18"/>"     "     "     <path d="M858 32h16v28h-16zm17 0h3v28h-3zm4 0h7v28h-7z" stroke="#182d18" fill="#305b30"/>"     "     "     <path d="M887 32h7v28h-7zm8 0h18v28h-18z" fill="#305c30" stroke="#182e18"/>"     "     <path d="M914 32h4v28h-4zm5 0h26v28h-26zm27 0h18v28h-18z" stroke="#182e18" fill="#305d30"/>"     "     "     <path d="M965 32h3v28h-3zm4 0h16v28h-16zm17 0h13v28h-13z" fill="#305e30" stroke="#182f18"/>"     "     "     <path d="M1000 32h24v26h-24zm0 27h24v1h-24z" stroke="#182f18" fill="#305f30"/>"     "     <path d="M1 62h28v28H1zm29 0h7v28h-7zm8 0h21v28H38z" fill="#306030" stroke="#183018"/>"     "     "     <path d="M60 62h10v28H60zm11 0h10v28H71zm11 0h10v28H82z" stroke="#183018" fill="#306130"/>"     "     "     <path d="M93 62h25v28H93zm26 0h13v28h-13z" fill="#306230" stroke="#183118"/>"     "     <path d="M133 62h22v28h-22zm23 0h23v28h-23zm24 0h12v28h-12z" stroke="#183118" fill="#306330"/>"     "     "     <path d="M193 62h16v28h-16zm17 0h16v28h-16zm17 0h8v28h-8z" fill="#306430" stroke="#183218"/>"     "     "     <path d="M236 62h28v28h-28zm29 0h19v27h-19z" stroke="#183218" fill="#306530"/>"     "     <path d="M285 62h24v27h-24zm25 0h9v27h-9zm10 0h17v27h-17z" fill="#306630" stroke="#183318"/>"     "     "     <path d="M338 62h15v27h-15zm16 0h28v27h-28zm29 0h5v27h-5z" stroke="#183318" fill="#306730"/>"     "     "     <path d="M389 62h14v27h-14zm15 0h7v27h-7z" fill="#306830" stroke="#183418"/>"     "     <path d="M412 62h29v27h-29zm30 0h1v27h-1zm2 0h8v27h-8z" stroke="#183418" fill="#306930"/>"     "     "     <path d="M453 62h18v27h-18zm19 0h25v27h-25zm26 0h20v27h-20z" fill="#306a30" stroke="#183518"/>"     "     "     <path d="M519 62h20v27h-20zm21 0h6v27h-6z" stroke="#183518" fill="#306b30"/>"     "     <path d="M547 62h28v27h-28zm29 0h21v27h-21zm22 0h3v27h-3z" fill="#306c30" stroke="#183618"/>"     "     "     <path d="M602 62h27v27h-27zm28 0h23v27h-23zm24 0h14v27h-14z" stroke="#183618" fill="#306d30"/>"     "     "     <path d="M669 62h26v27h-26zm27 0h30v27h-30z" fill="#306e30" stroke="#183718"/>"     "     <path d="M727 62h30v27h-30zm31 0h17v27h-17zm18 0h27v27h-27z" stroke="#183718" fill="#306f30"/>"     "     "     <path d="M804 62h25v27h-25zm26 0h19v27h-19zm20 0h22v27h-22z" fill="#307030" stroke="#183818"/>"     "     "     <path d="M873 62h6v27h-6zm7 0h15v27h-15z" stroke="#183818" fill="#307130"/>"     "     <path d="M896 62h25v27h-25zm26 0h15v27h-15zm16 0h3v27h-3z" fill="#307230" stroke="#183918"/>"     "     "     <path d="M942 62h5v27h-5zm6 0h19v27h-19zm20 0h29v27h-29z" stroke="#183918" fill="#307330"/>"     "     "     <path d="M998 62h26v27h-26zM1 91h5v27H1z" fill="#307430" stroke="#183a18"/>"     "     <path d="M7 91h19v27H7zm20 0h22v27H27zm23 0h8v27h-8z" stroke="#183a18" fill="#307530"/>"     "     "     <path d="M59 91h3v27h-3zm4 0h7v27h-7zm8 0h4v27h-4z" fill="#307630" stroke="#183b18"/>"     "     "     <path d="M76 91h19v27H76zm20 0h7v27h-7z" stroke="#183b18" fill="#307730"/>"     "     <path d="M104 91h13v27h-13zm14 0h23v27h-23zm24 0h18v27h-18z" fill="#307830" stroke="#183c18"/>"     "     "     <path d="M161 91h9v27h-9zm10 0h2v27h-2zm3 0h30v27h-30z" stroke="#183c18" fill="#307930"/>"     "     "     <path d="M205 91h27v27h-27zm28 0h17v27h-17z" fill="#307a30" stroke="#183d18"/>"     "     <path d="M251 91h19v27h-19zm20 0h30v27h-30zm31 0h3v27h-3z" stroke="#183d18" fill="#307b30"/>"     "     "     <path d="M306 91h19v26h-19zm20 0h30v26h-30zm31 0h18v26h-18z" fill="#307c30" stroke="#183e18"/>"     "     "     <path d="M376 91h14v26h-14zm15 0h10v26h-10z" stroke="#183e18" fill="#307d30"/>"     "     <path d="M402 91h18v26h-18zm19 0h24v26h-24zm25 0h19v26h-19z" fill="#307e30" stroke="#183f18"/>"     "     "     <path d="M466 91h6v26h-6zm7 0h3v26h-3zm4 0h15v26h-15z" stroke="#183f18" fill="#307f30"/>"     "     "     <path d="M493 91h16v26h-16zm17 0h25v26h-25z" fill="#308030" stroke="#184018"/>"     "     <path d="M536 91h18v26h-18zm19 0h3v26h-3zm4 0h19v26h-19z" stroke="#184018" fill="#308130"/>"     "     "     <path d="M579 91h25v26h-25zm26 0h21v26h-21zm22 0h4v26h-4z" fill="#308230" stroke="#184118"/>"     "     "     <path d="M632 91h17v26h-17zm18 0h16v26h-16z" stroke="#184118" fill="#308330"/>"     "     <path d="M667 91h12v26h-12zm13 0h23v26h-23zm24 0h15v26h-15z" fill="#308430" stroke="#184218"/>"     "     "     <path d="M720 91h9v26h-9zm10 0h13v26h-13zm14 0h16v26h-16z" stroke="#184218" fill="#308530"/>"     "     "     <path d="M761 91h26v26h-26zm27 0h7v26h-7z" fill="#308630" stroke="#184318"/>"     "     <path d="M796 91h8v26h-8zm9 0h28v26h-28zm29 0h27v26h-27z" stroke="#184318" fill="#308730"/>"     "     "     <path d="M862 91h19v26h-19zm20 0h3v26h-3zm4 0h28v26h-28z" fill="#308830" stroke="#184418"/>"     "     "     <path d="M915 91h7v26h-7zm8 0h9v26h-9z" stroke="#184418" fill="#308930"/>"     "     <path d="M933 91h3v26h-3zm4 0h14v26h-14zm15 0h22v26h-22z" fill="#308a30" stroke="#184518"/>"     "     "     <path d="M975 91h30v26h-30zm31 0h18v26h-18zM1 119h9v26H1z" stroke="#184518" fill="#308b30"/>"     "     "     <path d="M11 119h25v26H11zm26 0h13v26H37z" fill="#308c30" stroke="#184618"/>"     "     <path d="M51 119h3v26h-3zm4 0h26v26H55zm27 0h1v26h-1z" stroke="#184618" fill="#308d30"/>"     "     "     <path d="M84 119h9v26h-9zm10 0h22v26H94zm23 0h7v26h-7z" fill="#308e30" stroke="#184718"/>"     "     "     <path d="M125 119h1v26h-1zm2 0h7v26h-7z" stroke="#184718" fill="#308f30"/>"     "     <path d="M135 119h8v26h-8zm9 0h4v26h-4zm5 0h1v26h-1z" fill="#309030" stroke="#184818"/>"     "     "     <path d="M151 119h7v25h-7zm8 0h14v25h-14zm15 0h21v25h-21z" stroke="#184818" fill="#309130"/>"     "     "     <path d="M196 119h21v25h-21zm22 0h8v25h-8z" fill="#309230" stroke="#184918"/>"     "     <path d="M227 119h3v25h-3zm4 0h24v25h-24zm25 0h12v25h-12z" stroke="#184918" fill="#309330"/>"     "     "     <path d="M269 119h4v25h-4zm5 0h29v25h-29zm30 0h5v25h-5z" fill="#309430" stroke="#184a18"/>"     "     "     <path d="M310 119h15v25h-15zm16 0h11v25h-11z" stroke="#184a18" fill="#309530"/>"     "     <path d="M338 119h3v25h-3zm4 0h18v25h-18zm19 0h20v25h-20z" fill="#309630" stroke="#184b18"/>"     "     "     <path d="M382 119h19v25h-19zm20 0h26v25h-26zm27 0h17v25h-17z" stroke="#184b18" fill="#309730"/>"     "     "     <path d="M447 119h27v25h-27zm28 0h13v25h-13z" fill="#309830" stroke="#184c18"/>"     "     <path d="M489 119h22v25h-22zm23 0h14v25h-14zm15 0h26v25h-26z" stroke="#184c18" fill="#309930"/>"     "     "     <path d="M554 119h12v25h-12zm13 0h17v25h-17zm18 0h28v25h-28z" fill="#309a30" stroke="#184d18"/>"     "     "     <path d="M614 119h29v25h-29zm30 0h14v25h-14z" stroke="#184d18" fill="#309b30"/>"     "     <path d="M659 119h20v25h-20zm21 0h13v25h-13zm14 0h30v25h-30z" fill="#309c30" stroke="#184e18"/>"     "     "     <path d="M725 119h8v25h-8zm9 0h13v25h-13zm14 0h29v25h-29z" stroke="#184e18" fill="#309d30"/>"     "     "     <path d="M778 119h25v25h-25zm26 0h15v25h-15z" fill="#309e30" stroke="#184f18"/>"     "     <path d="M820 119h9v25h-9zm10 0h18v25h-18zm19 0h21v25h-21z" stroke="#184f18" fill="#309f30"/>"     "     "     <path d="M871 119h25v25h-25zm26 0h13v25h-13zm14 0h15v25h-15z" fill="#30a030" stroke="#185018"/>"     "     "     <path d="M927 119h4v25h-4zm5 0h30v25h-30z" stroke="#185018" fill="#30a130"/>"     "     <path d="M963 119h7v25h-7zm8 0h21v25h-21zm22 0h16v25h-16z" fill="#30a230" stroke="#185118"/>"     "     "     <path d="M1010 119h14v25h-14zM1 146h12v25H1zm13 0h20v25H14z" stroke="#185118" fill="#30a330"/>"     "     "     <path d="M35 146h2v25h-2zm3 0h24v25H38z" fill="#30a430" stroke="#185218"/>"     "     <path d="M63 146h9v24h-9zm10 0h27v24H73zm28 0h29v24h-29z" stroke="#185218" fill="#30a530"/>"     "     "     <path d="M131 146h12v24h-12zm13 0h11v24h-11zm12 0h7v24h-7z" fill="#30a630" stroke="#185318"/>"     "     "     <path d="M164 146h24v24h-24zm25 0h29v24h-29z" stroke="#185318" fill="#30a730"/>"     "     <path d="M219 146h22v24h-22zm23 0h13v24h-13zm14 0h18v24h-18z" fill="#30a830" stroke="#185418"/>"     "     "     <path d="M275 146h5v24h-5zm6 0h22v24h-22zm23 0h3v24h-3z" stroke="#185418" fill="#30a930"/>"     "     "     <path d="M308 146h19v24h-19zm20 0h20v24h-20z" fill="#30aa30" stroke="#185518"/>"     "     <path d="M349 146h15v24h-15zm16 0h24v24h-24zm25 0h13v24h-13z" stroke="#185518" fill="#30ab30"/>"     "     "     <path d="M404 146h15v24h-15zm16 0h8v24h-8zm9 0h19v24h-19z" fill="#30ac30" stroke="#185618"/>"     "     "     <path d="M449 146h12v24h-12zm13 0h20v24h-20z" stroke="#185618" fill="#30ad30"/>"     "     <path d="M483 146h10v24h-10zm11 0h15v24h-15zm16 0h24v24h-24z" fill="#30ae30" stroke="#185718"/>"     "     "     <path d="M535 146h25v24h-25zm26 0h9v24h-9zm10 0h10v24h-10z" stroke="#185718" fill="#30af30"/>"     "     "     <path d="M582 146h13v24h-13zm14 0h3v24h-3z" fill="#30b030" stroke="#185818"/>"     "     <path d="M600 146h20v24h-20zm21 0h4v24h-4zm5 0h10v24h-10z" stroke="#185818" fill="#30b130"/>"     "     "     <path d="M637 146h29v24h-29zm30 0h15v24h-15zm16 0h13v24h-13z" fill="#30b230" stroke="#185918"/>"     "     "     <path d="M697 146h27v24h-27zm28 0h18v24h-18z" stroke="#185918" fill="#30b330"/>"     "     <path d="M744 146h12v24h-12zm13 0h19v24h-19zm20 0h20v24h-20z" fill="#30b430" stroke="#185a18"/>"     "     "     <path d="M798 146h30v24h-30zm31 0h5v24h-5zm6 0h7v24h-7z" stroke="#185a18" fill="#30b530"/>"     "     "     <path d="M843 146h2v24h-2zm3 0h9v24h-9z" fill="#30b630" stroke="#185b18"/>"     "     <path d="M856 146h2v24h-2zm3 0h11v24h-11zm12 0h14v24h-14z" stroke="#185b18" fill="#30b730"/>"     "     "     <path d="M886 146h2v24h-2zm3 0h25v24h-25zm26 0h5v23h-5z" fill="#30b830" stroke="#185c18"/>"     "     "     <path d="M921 146h21v23h-21zm22 0h14v23h-14z" stroke="#185c18" fill="#30b930"/>"     "     <path d="M958 146h11v23h-11zm12 0h14v23h-14zm15 0h10v23h-10z" fill="#30ba30" stroke="#185d18"/>"     "     "     <path d="M996 146h28v23h-28zM1 172h1v23H1zm2 0h22v23H3z" stroke="#185d18" fill="#30bb30"/>"     "     "     <path d="M26 172h29v23H26zm30 0h11v23H56z" fill="#30bc30" stroke="#185e18"/>"     "     <path d="M68 172h8v23h-8zm9 0h7v23h-7zm8 0h5v23h-5z" stroke="#185e18" fill="#30bd30"/>"     "     "     <path d="M91 172h20v23H91zm21 0h5v23h-5zm6 0h8v23h-8z" fill="#30be30" stroke="#185f18"/>"     "     "     <path d="M127 172h11v23h-11zm12 0h20v23h-20z" stroke="#185f18" fill="#30bf30"/>"     "     <path d="M160 172h2v23h-2zm3 0h5v23h-5zm6 0h21v23h-21z" fill="#30c030" stroke="#186018"/>"     "     "     <path d="M191 172h16v23h-16zm17 0h4v23h-4zm5 0h9v23h-9z" stroke="#186018" fill="#30c130"/>"     "     "     <path d="M223 172h11v23h-11zm12 0h3v23h-3z" fill="#30c230" stroke="#186118"/>"     "     <path d="M239 172h16v23h-16zm17 0h6v23h-6zm7 0h2v23h-2z" stroke="#186118" fill="#30c330"/>"     "     "     <path d="M266 172h6v23h-6zm7 0h2v23h-2zm3 0h5v23h-5z" fill="#30c430" stroke="#186218"/>"     "     "     <path d="M282 172h14v23h-14zm15 0h20v23h-20z" stroke="#186218" fill="#30c530"/>"     "     <path d="M318 172h5v23h-5zm6 0h29v23h-29zm30 0h16v23h-16z" fill="#30c630" stroke="#186318"/>"     "     "     <path d="M371 172h26v23h-26zm27 0h9v23h-9zm10 0h1v23h-1z" stroke="#186318" fill="#30c730"/>"     "     "     <path d="M410 172h13v23h-13zm14 0h24v23h-24z" fill="#30c830" stroke="#186418"/>"     "     <path d="M449 172h15v23h-15zm16 0h14v23h-14zm15 0h22v23h-22z" stroke="#186418" fill="#30c930"/>"     "     "     <path d="M503 172h24v23h-24zm25 0h10v23h-10zm11 0h1v23h-1z" fill="#30ca30" stroke="#186518"/>"     "     "     <path d="M541 172h21v22h-21zm22 0h29v22h-29z" stroke="#186518" fill="#30cb30"/>"     "     <path d="M593 172h22v22h-22zm23 0h5v22h-5zm6 0h22v22h-22z" fill="#30cc30" stroke="#186618"/>"     "     "     <path d="M645 172h22v22h-22zm23 0h29v22h-29zm30 0h28v22h-28z" stroke="#186618" fill="#30cd30"/>"     "     "     <path d="M727 172h1v22h-1zm2 0h17v22h-17z" fill="#30ce30" stroke="#186718"/>"     "     <path d="M747 172h24v22h-24zm25 0h5v22h-5zm6 0h18v22h-18z" stroke="#186718" fill="#30cf30"/>"     "     "     <path d="M797 172h26v22h-26zm27 0h19v22h-19zm20 0h19v22h-19z" fill="#30d030" stroke="#186818"/>"     "     "     <path d="M864 172h20v22h-20zm21 0h14v22h-14z" stroke="#186818" fill="#30d130"/>"     "     <path d="M900 172h27v22h-27zm28 0h10v22h-10zm11 0h29v22h-29z" fill="#30d230" stroke="#186918"/>"     "     "     <path d="M969 172h4v22h-4zm5 0h22v22h-22zm23 0h27v6h-27z" stroke="#186918" fill="#30d330"/>"     "     "     <path d="M997 179h27v15h-27zM1 196h26v22H1z" fill="#30d430" stroke="#186a18"/>"     "     <path d="M28 196h28v22H28zm29 0h7v22h-7zm8 0h23v22H65z" stroke="#186a18" fill="#30d530"/>"     "     "     <path d="M89 196h14v22H89zm15 0h2v22h-2zm3 0h20v22h-20z" fill="#30d630" stroke="#186b18"/>"     "     "     <path d="M128 196h15v22h-15zm16 0h18v22h-18z" stroke="#186b18" fill="#30d730"/>"     "     <path d="M163 196h1v22h-1zm2 0h22v22h-22zm23 0h20v22h-20z" fill="#30d830" stroke="#186c18"/>"     "     "     <path d="M209 196h7v22h-7zm8 0h20v22h-20zm21 0h25v22h-25z" stroke="#186c18" fill="#30d930"/>"     "     "     <path d="M264 196h3v22h-3zm4 0h14v22h-14z" fill="#30da30" stroke="#186d18"/>"     "     <path d="M283 196h2v22h-2zm3 0h20v22h-20zm21 0h26v22h-26z" stroke="#186d18" fill="#30db30"/>"     "     "     <path d="M334 196h5v22h-5zm6 0h30v22h-30zm31 0h29v22h-29z" fill="#30dc30" stroke="#186e18"/>"     "     "     <path d="M401 196h25v22h-25zm26 0h3v22h-3z" stroke="#186e18" fill="#30dd30"/>"     "     <path d="M431 196h6v22h-6zm7 0h13v22h-13zm14 0h23v22h-23z" fill="#30de30" stroke="#186f18"/>"     "     "     <path d="M476 196h12v22h-12zm13 0h25v22h-25zm26 0h16v21h-16z" stroke="#186f18" fill="#30df30"/>"     "     "     <path d="M532 196h19v21h-19zm20 0h18v21h-18z" fill="#30e030" stroke="#187018"/>"     "     <path d="M571 196h25v21h-25zm26 0h16v21h-16zm17 0h28v21h-28z" stroke="#187018" fill="#30e130"/>"     "     "     <path d="M643 196h7v21h-7zm8 0h25v21h-25zm26 0h20v21h-20z" fill="#30e230" stroke="#187118"/>"     "     "     <path d="M698 196h14v21h-14zm15 0h11v21h-11z" stroke="#187118" fill="#30e330"/>"     "     <path d="M725 196h9v21h-9zm10 0h19v21h-19zm20 0h18v21h-18z" fill="#30e430" stroke="#187218"/>"     "     "     <path d="M774 196h2v21h-2zm3 0h26v21h-26zm27 0h10v21h-10z" stroke="#187218" fill="#30e530"/>"     "     "     <path d="M815 196h19v21h-19zm20 0h18v21h-18z" fill="#30e630" stroke="#187318"/>"     "     <path d="M854 196h12v21h-12zm13 0h11v21h-11zm12 0h21v21h-21z" stroke="#187318" fill="#30e730"/>"     "     "     <path d="M901 196h28v21h-28zm29 0h8v21h-8zm9 0h27v21h-27z" fill="#30e830" stroke="#187418"/>"     "     "     <path d="M967 196h2v21h-2zm3 0h15v21h-15z" stroke="#187418" fill="#30e930"/>"     "     <path d="M986 196h8v21h-8zm9 0h29v21h-29zM1 219h10v21H1z" fill="#30ea30" stroke="#187518"/>"     "     "     <path d="M12 219h7v21h-7zm8 0h17v21H20zm18 0h16v21H38z" stroke="#187518" fill="#30eb30"/>"     "     "     <path d="M55 219h3v21h-3zm4 0h13v21H59z" fill="#30ec30" stroke="#187618"/>"     "     <path d="M73 219h14v21H73zm15 0h1v21h-1zm2 0h1v21h-1z" stroke="#187618" fill="#30ed30"/>"     "     "     <path d="M92 219h11v21H92zm12 0h1v21h-1zm2 0h30v21h-30z" fill="#30ee30" stroke="#187718"/>"     "     "     <path d="M137 219h8v21h-8zm9 0h20v21h-20z" stroke="#187718" fill="#30ef30"/>"     "     <path d="M167 219h11v21h-11zm12 0h8v21h-8zm9 0h22v21h-22z" fill="#30f030" stroke="#187818"/>"     "     "     <path d="M211 219h27v21h-27zm28 0h15v21h-15zm16 0h15v21h-15z" stroke="#187818" fill="#31f030"/>"     "     "     <path d="M271 219h22v21h-22zm23 0h21v21h-21z" fill="#32f030" stroke="#197818"/>"     "     <path d="M316 219h6v21h-6zm7 0h8v21h-8zm9 0h14v21h-14z" stroke="#197818" fill="#33f030"/>"     "     "     <path d="M347 219h23v21h-23zm24 0h6v21h-6zm7 0h23v21h-23z" fill="#34f030" stroke="#1a7818"/>"     "     "     <path d="M402 219h28v21h-28zm29 0h5v21h-5z" stroke="#1a7818" fill="#35f030"/>"     "     <path d="M437 219h11v21h-11zm12 0h2v21h-2zm3 0h15v20h-15z" fill="#36f030" stroke="#1b7818"/>"     "     "     <path d="M468 219h12v20h-12zm13 0h25v20h-25zm26 0h29v20h-29z" stroke="#1b7818" fill="#37f030"/>"     "     "     <path d="M537 219h16v20h-16zm17 0h16v20h-16z" fill="#38f030" stroke="#1c7818"/>"     "     <path d="M571 219h3v20h-3zm4 0h29v20h-29zm30 0h8v20h-8z" stroke="#1c7818" fill="#39f030"/>"     "     "     <path d="M614 219h14v20h-14zm15 0h27v20h-27zm28 0h5v20h-5z" fill="#3af030" stroke="#1d7818"/>"     "     "     <path d="M663 219h2v20h-2zm3 0h9v20h-9z" stroke="#1d7818" fill="#3bf030"/>"     "     <path d="M676 219h13v20h-13zm14 0h11v20h-11zm12 0h12v20h-12z" fill="#3cf030" stroke="#1e7818"/>"     "     "     <path d="M715 219h22v20h-22zm23 0h10v20h-10zm11 0h1v20h-1z" stroke="#1e7818" fill="#3df030"/>"     "     "     <path d="M751 219h11v20h-11zm12 0h21v20h-21z" fill="#3ef030" stroke="#1f7818"/>"     "     <path d="M785 219h6v20h-6zm7 0h10v20h-10zm11 0h9v20h-9z" stroke="#1f7818" fill="#3ff030"/>"     "     "     <path d="M813 219h8v20h-8zm9 0h2v20h-2zm3 0h9v20h-9z" fill="#40f030" stroke="#207818"/>"     "     "     <path d="M835 219h25v20h-25zm26 0h3v20h-3z" stroke="#207818" fill="#41f030"/>"     "     <path d="M865 219h28v20h-28zm29 0h20v20h-20zm21 0h27v20h-27z" fill="#42f030" stroke="#217818"/>"     "     "     <path d="M943 219h21v20h-21zm22 0h18v20h-18zm19 0h30v20h-30z" stroke="#217818" fill="#43f030"/>"     "     "     <path d="M1015 219h9v20h-9zM1 241h23v20H1z" fill="#44f030" stroke="#227818"/>"     "     <path d="M25 241h19v20H25zm20 0h20v20H45zm21 0h16v20H66z" stroke="#227818" fill="#45f030"/>"     "     "     <path d="M83 241h17v20H83zm18 0h5v20h-5zm6 0h13v19h-13z" fill="#46f030" stroke="#237818"/>"     "     "     <path d="M121 241h30v19h-30zm31 0h25v19h-25z" stroke="#237818" fill="#47f030"/>"     "     <path d="M178 241h11v19h-11zm12 0h15v19h-15zm16 0h20v19h-20z" fill="#48f030" stroke="#247818"/>"     "     "     <path d="M227 241h3v19h-3zm4 0h16v19h-16zm17 0h6v19h-6z" stroke="#247818" fill="#49f030"/>"     "     "     <path d="M255 241h13v19h-13zm14 0h13v19h-13z" fill="#4af030" stroke="#257818"/>"     "     <path d="M283 241h29v19h-29zm30 0h5v19h-5zm6 0h20v19h-20z" stroke="#257818" fill="#4bf030"/>"     "     "     <path d="M340 241h26v19h-26zm27 0h23v19h-23zm24 0h19v19h-19z" fill="#4cf030" stroke="#267818"/>"     "     "     <path d="M411 241h20v19h-20zm21 0h6v19h-6z" stroke="#267818" fill="#4df030"/>"     "     <path d="M439 241h1v19h-1zm2 0h24v19h-24zm25 0h23v19h-23z" fill="#4ef030" stroke="#277818"/>"     "     "     <path d="M490 241h11v19h-11zm12 0h30v19h-30zm31 0h3v19h-3z" stroke="#277818" fill="#4ff030"/>"     "     "     <path d="M537 241h30v19h-30zm31 0h19v19h-19z" fill="#50f030" stroke="#287818"/>"     "     <path d="M588 241h2v19h-2zm3 0h13v19h-13zm14 0h7v19h-7z" stroke="#287818" fill="#51f030"/>"     "     "     <path d="M613 241h22v19h-22zm23 0h10v19h-10zm11 0h8v19h-8z" fill="#52f030" stroke="#297818"/>"     "     "     <path d="M656 241h1v19h-1zm2 0h24v19h-24z" stroke="#297818" fill="#53f030"/>"     "     <path d="M683 241h18v19h-18zm19 0h23v19h-23zm24 0h15v19h-15z" fill="#54f030" stroke="#2a7818"/>"     "     "     <path d="M742 241h29v19h-29zm30 0h25v19h-25zm26 0h1v19h-1z" stroke="#2a7818" fill="#55f030"/>"     "     "     <path d="M800 241h5v19h-5zm6 0h29v19h-29z" fill="#56f030" stroke="#2b7818"/>"     "     <path d="M836 241h28v19h-28zm29 0h30v19h-30zm31 0h11v18h-11z" stroke="#2b7818" fill="#57f030"/>"     "     "     <path d="M908 241h3v18h-3zm4 0h3v18h-3zm4 0h2v18h-2z" fill="#58f030" stroke="#2c7818"/>"     "     "     <path d="M919 241h7v18h-7zm8 0h6v18h-6z" stroke="#2c7818" fill="#59f030"/>"     "     <path d="M934 241h21v18h-21zm22 0h10v18h-10zm11 0h30v18h-30z" fill="#5af030" stroke="#2d7818"/>"     "     "     <path d="M998 241h26v5h-26zm0 6h26v12h-26zM1 262h7v18H1z" stroke="#2d7818" fill="#5bf030"/>"     "     "     <path d="M9 262h7v18H9zm8 0h13v18H17z" fill="#5cf030" stroke="#2e7818"/>"     "     <path d="M31 262h11v18H31zm12 0h30v18H43zm31 0h16v18H74z" stroke="#2e7818" fill="#5df030"/>"     "     "     <path d="M91 262h9v18h-9zm10 0h14v18h-14zm15 0h28v18h-28z" fill="#5ef030" stroke="#2f7818"/>"     "     "     <path d="M145 262h8v18h-8zm9 0h17v18h-17z" stroke="#2f7818" fill="#5ff030"/>"     "     <path d="M172 262h19v18h-19zm20 0h21v18h-21zm22 0h14v18h-14z" fill="#60f030" stroke="#307818"/>"     "     "     <path d="M229 262h11v18h-11zm12 0h23v18h-23zm24 0h30v18h-30z" stroke="#307818" fill="#61f030"/>"     "     "     <path d="M296 262h17v18h-17zm18 0h29v18h-29z" fill="#62f030" stroke="#317818"/>"     "     <path d="M344 262h10v18h-10zm11 0h8v18h-8zm9 0h4v18h-4z" stroke="#317818" fill="#63f030"/>"     "     "     <path d="M369 262h17v18h-17zm18 0h23v18h-23zm24 0h12v18h-12z" fill="#64f030" stroke="#327818"/>"     "     "     <path d="M424 262h28v18h-28zm29 0h23v18h-23z" stroke="#327818" fill="#65f030"/>"     "     <path d="M477 262h6v18h-6zm7 0h5v18h-5zm6 0h21v18h-21z" fill="#66f030" stroke="#337818"/>"     "     "     <path d="M512 262h14v18h-14zm15 0h22v18h-22zm23 0h13v18h-13z" stroke="#337818" fill="#67f030"/>"     "     "     <path d="M564 262h27v18h-27zm28 0h27v18h-27z" fill="#68f030" stroke="#347818"/>"     "     <path d="M620 262h10v18h-10zm11 0h13v18h-13zm14 0h11v18h-11z" stroke="#347818" fill="#69f030"/>"     "     "     <path d="M657 262h27v18h-27zm28 0h4v18h-4zm5 0h3v18h-3z" fill="#6af030" stroke="#357818"/>"     "     "     <path d="M694 262h7v18h-7zm8 0h19v18h-19z" stroke="#357818" fill="#6bf030"/>"     "     <path d="M722 262h6v18h-6zm7 0h18v18h-18zm19 0h18v18h-18z" fill="#6cf030" stroke="#367818"/>"     "     "     <path d="M767 262h20v17h-20zm21 0h12v17h-12zm13 0h3v17h-3z" stroke="#367818" fill="#6df030"/>"     "     "     <path d="M805 262h30v17h-30zm31 0h19v17h-19z" fill="#6ef030" stroke="#377818"/>"     "     <path d="M856 262h24v17h-24zm25 0h9v17h-9zm10 0h14v17h-14z" stroke="#377818" fill="#6ff030"/>"     "     "     <path d="M906 262h15v17h-15zm16 0h22v17h-22zm23 0h22v17h-22z" fill="#70f030" stroke="#387818"/>"     "     "     <path d="M968 262h21v17h-21zm22 0h7v17h-7z" stroke="#387818" fill="#71f030"/>"     "     <path d="M998 262h26v15h-26zm0 16h11v1h-11zm12 0h14v1h-14z" fill="#72f030" stroke="#397818"/>"     "     "     <path d="M1 281h4v17H1zm5 0h18v17H6zm19 0h28v17H25z" stroke="#397818" fill="#73f030"/>"     "     "     <path d="M54 281h22v17H54zm23 0h8v17h-8z" fill="#74f030" stroke="#3a7818"/>"     "     <path d="M86 281h13v17H86zm14 0h16v17h-16zm17 0h14v17h-14z" stroke="#3a7818" fill="#75f030"/>"     "     "     <path d="M132 281h12v17h-12zm13 0h14v17h-14zm15 0h13v17h-13z" fill="#76f030" stroke="#3b7818"/>"     "     "     <path d="M174 281h17v17h-17zm18 0h16v17h-16z" stroke="#3b7818" fill="#77f030"/>"     "     <path d="M209 281h24v17h-24zm25 0h16v17h-16zm17 0h1v17h-1z" fill="#78f030" stroke="#3c7818"/>"     "     "     <path d="M253 281h12v17h-12zm13 0h8v17h-8zm9 0h1v17h-1z" stroke="#3c7818" fill="#79f030"/>"     "     "     <path d="M277 281h12v17h-12zm13 0h28v17h-28z" fill="#7af030" stroke="#3d7818"/>"     "     <path d="M319 281h19v17h-19zm20 0h3v17h-3zm4 0h30v17h-30z" stroke="#3d7818" fill="#7bf030"/>"     "     "     <path d="M374 281h14v17h-14zm15 0h25v17h-25zm26 0h16v17h-16z" fill="#7cf030" stroke="#3e7818"/>"     "     "     <path d="M432 281h28v17h-28zm29 0h9v17h-9z" stroke="#3e7818" fill="#7df030"/>"     "     <path d="M471 281h14v17h-14zm15 0h8v17h-8zm9 0h21v17h-21z" fill="#7ef030" stroke="#3f7818"/>"     "     "     <path d="M517 281h14v17h-14zm15 0h8v17h-8zm9 0h4v17h-4z" stroke="#3f7818" fill="#7ff030"/>"     "     "     <path d="M546 281h18v17h-18zm19 0h19v17h-19z" fill="#80f030" stroke="#407818"/>"     "     <path d="M585 281h8v17h-8zm9 0h21v17h-21zm22 0h9v17h-9z" stroke="#407818" fill="#81f030"/>"     "     "     <path d="M626 281h17v17h-17zm18 0h17v17h-17zm18 0h4v17h-4z" fill="#82f030" stroke="#417818"/>"     "     "     <path d="M667 281h11v17h-11zm12 0h12v17h-12z" stroke="#417818" fill="#83f030"/>"     "     <path d="M692 281h27v17h-27zm28 0h18v17h-18zm19 0h29v16h-29z" fill="#84f030" stroke="#427818"/>"     "     "     <path d="M769 281h9v16h-9zm10 0h13v16h-13zm14 0h28v16h-28z" stroke="#427818" fill="#85f030"/>"     "     "     <path d="M822 281h29v16h-29zm30 0h13v16h-13z" fill="#86f030" stroke="#437818"/>"     "     <path d="M866 281h7v16h-7zm8 0h17v16h-17zm18 0h29v16h-29z" stroke="#437818" fill="#87f030"/>"     "     "     <path d="M922 281h22v16h-22zm23 0h16v16h-16zm17 0h11v16h-11z" fill="#88f030" stroke="#447818"/>"     "     "     <path d="M974 281h13v16h-13zm14 0h29v16h-29z" stroke="#447818" fill="#89f030"/>"     "     <path d="M1018 281h6v16h-6zM1 299h5v16H1zm6 0h28v16H7z" fill="#8af030" stroke="#457818"/>"     "     "     <path d="M36 299h18v16H36zm19 0h3v16h-3zm4 0h15v16H59z" stroke="#457818" fill="#8bf030"/>"     "     "     <path d="M75 299h14v16H75zm15 0h26v16H90z" fill="#8cf030" stroke="#467818"/>"     "     <path d="M117 299h11v16h-11zm12 0h15v16h-15zm16 0h12v16h-12z" stroke="#467818" fill="#8df030"/>"     "     "     <path d="M158 299h7v16h-7zm8 0h22v16h-22zm23 0h10v16h-10z" fill="#8ef030" stroke="#477818"/>"     "     "     <path d="M200 299h20v16h-20zm21 0h27v16h-27z" stroke="#477818" fill="#8ff030"/>"     "     <path d="M249 299h18v16h-18zm19 0h14v16h-14zm15 0h10v16h-10z" fill="#90f030" stroke="#487818"/>"     "     "     <path d="M294 299h21v16h-21zm22 0h11v16h-11zm12 0h19v16h-19z" stroke="#487818" fill="#91f030"/>"     "     "     <path d="M348 299h12v16h-12zm13 0h27v16h-27z" fill="#92f030" stroke="#497818"/>"     "     <path d="M389 299h11v16h-11zm12 0h10v16h-10zm11 0h22v16h-22z" stroke="#497818" fill="#93f030"/>"     "     "     <path d="M435 299h1v16h-1zm2 0h9v16h-9zm10 0h15v16h-15z" fill="#94f030" stroke="#4a7818"/>"     "     "     <path d="M463 299h5v16h-5zm6 0h18v15h-18z" stroke="#4a7818" fill="#95f030"/>"     "     <path d="M488 299h1v15h-1zm2 0h13v15h-13zm14 0h19v15h-19z" fill="#96f030" stroke="#4b7818"/>"     "     "     <path d="M524 299h8v15h-8zm9 0h1v15h-1zm2 0h7v15h-7z" stroke="#4b7818" fill="#97f030"/>"     "     "     <path d="M543 299h25v15h-25zm26 0h10v15h-10z" fill="#98f030" stroke="#4c7818"/>"     "     <path d="M580 299h10v15h-10zm11 0h20v15h-20zm21 0h21v15h-21z" stroke="#4c7818" fill="#99f030"/>"     "     "     <path d="M634 299h11v15h-11zm12 0h14v15h-14zm15 0h9v15h-9z" fill="#9af030" stroke="#4d7818"/>"     "     "     <path d="M671 299h5v15h-5zm6 0h22v15h-22z" stroke="#4d7818" fill="#9bf030"/>"     "     <path d="M700 299h15v15h-15zm16 0h9v15h-9zm10 0h14v15h-14z" fill="#9cf030" stroke="#4e7818"/>"     "     "     <path d="M741 299h12v15h-12zm13 0h11v15h-11zm12 0h29v15h-29z" stroke="#4e7818" fill="#9df030"/>"     "     "     <path d="M796 299h2v15h-2zm3 0h1v15h-1z" fill="#9ef030" stroke="#4f7818"/>"     "     <path d="M801 299h27v15h-27zm28 0h9v15h-9zm10 0h26v15h-26z" stroke="#4f7818" fill="#9ff030"/>"     "     "     <path d="M866 299h23v15h-23zm24 0h20v15h-20zm21 0h23v15h-23z" fill="#a0f030" stroke="#507818"/>"     "     "     <path d="M935 299h18v15h-18zm19 0h24v15h-24z" stroke="#507818" fill="#a1f030"/>"     "     <path d="M979 299h18v15h-18zm19 0h26v15h-26zM1 316h14v15H1z" fill="#a2f030" stroke="#517818"/>"     "     "     <path d="M16 316h10v15H16zm11 0h9v15h-9zm10 0h17v15H37z" stroke="#517818" fill="#a3f030"/>"     "     "     <path d="M55 316h5v15h-5zm6 0h1v15h-1z" fill="#a4f030" stroke="#527818"/>"     "     <path d="M63 316h25v15H63zm26 0h30v15H89zm31 0h11v15h-11z" stroke="#527818" fill="#a5f030"/>"     "     "     <path d="M132 316h20v15h-20zm21 0h14v15h-14zm15 0h22v15h-22z" fill="#a6f030" stroke="#537818"/>"     "     "     <path d="M191 316h2v15h-2zm3 0h5v15h-5z" stroke="#537818" fill="#a7f030"/>"     "     <path d="M200 316h21v15h-21zm22 0h27v15h-27zm28 0h9v15h-9z" fill="#a8f030" stroke="#547818"/>"     "     "     <path d="M260 316h3v15h-3zm4 0h6v15h-6zm7 0h15v15h-15z" stroke="#547818" fill="#a9f030"/>"     "     "     <path d="M287 316h3v15h-3zm4 0h29v15h-29z" fill="#aaf030" stroke="#557818"/>"     "     <path d="M321 316h5v15h-5zm6 0h1v15h-1zm2 0h29v15h-29z" stroke="#557818" fill="#abf030"/>"     "     "     <path d="M359 316h23v14h-23zm24 0h23v14h-23zm24 0h30v14h-30z" fill="#acf030" stroke="#567818"/>"     "     "     <path d="M438 316h2v14h-2zm3 0h15v14h-15z" stroke="#567818" fill="#adf030"/>"     "     <path d="M457 316h2v14h-2zm3 0h11v14h-11zm12 0h16v14h-16z" fill="#aef030" stroke="#577818"/>"     "     "     <path d="M489 316h19v14h-19zm20 0h9v14h-9zm10 0h30v14h-30z" stroke="#577818" fill="#aff030"/>"     "     "     <path d="M550 316h6v14h-6zm7 0h10v14h-10z" fill="#b0f030" stroke="#587818"/>"     "     <path d="M568 316h22v14h-22zm23 0h22v14h-22zm23 0h23v14h-23z" stroke="#587818" fill="#b1f030"/>"     "     "     <path d="M638 316h6v14h-6zm7 0h16v14h-16zm17 0h14v14h-14z" fill="#b2f030" stroke="#597818"/>"     "     "     <path d="M677 316h13v14h-13zm14 0h24v14h-24z" stroke="#597818" fill="#b3f030"/>"     "     <path d="M716 316h27v14h-27zm28 0h20v14h-20zm21 0h22v14h-22z" fill="#b4f030" stroke="#5a7818"/>"     "     "     <path d="M788 316h29v14h-29zm30 0h13v14h-13zm14 0h4v14h-4z" stroke="#5a7818" fill="#b5f030"/>"     "     "     <path d="M837 316h24v14h-24zm25 0h10v14h-10z" fill="#b6f030" stroke="#5b7818"/>"     "     <path d="M873 316h24v14h-24zm25 0h26v14h-26zm27 0h3v14h-3z" stroke="#5b7818" fill="#b7f030"/>"     "     "     <path d="M929 316h3v14h-3zm4 0h1v14h-1zm2 0h7v14h-7z" fill="#b8f030" stroke="#5c7818"/>"     "     "     <path d="M943 316h24v14h-24zm25 0h15v14h-15z" stroke="#5c7818" fill="#b9f030"/>"     "     <path d="M984 316h26v14h-26zm27 0h13v14h-13zM1 332h14v14H1z" fill="#baf030" stroke="#5d7818"/>"     "     "     <path d="M16 332h1v14h-1zm2 0h1v14h-1zm2 0h26v14H20z" stroke="#5d7818" fill="#bbf030"/>"     "     "     <path d="M47 332h27v14H47zm28 0h11v14H75z" fill="#bcf030" stroke="#5e7818"/>"     "     <path d="M87 332h30v14H87zm31 0h14v14h-14zm15 0h5v14h-5z" stroke="#5e7818" fill="#bdf030"/>"     "     "     <path d="M139 332h29v14h-29zm30 0h12v14h-12zm13 0h6v14h-6z" fill="#bef030" stroke="#5f7818"/>"     "     "     <path d="M189 332h7v14h-7zm8 0h5v14h-5z" stroke="#5f7818" fill="#bff030"/>"     "     <path d="M203 332h11v13h-11zm12 0h1v13h-1zm2 0h7v13h-7z" fill="#c0f030" stroke="#607818"/>"     "     "     <path d="M225 332h5v13h-5zm6 0h11v13h-11zm12 0h3v13h-3z" stroke="#607818" fill="#c1f030"/>"     "     "     <path d="M247 332h21v13h-21zm22 0h9v13h-9z" fill="#c2f030" stroke="#617818"/>"     "     <path d="M279 332h3v13h-3zm4 0h2v13h-2zm3 0h30v13h-30z" stroke="#617818" fill="#c3f030"/>"     "     "     <path d="M317 332h28v13h-28zm29 0h27v13h-27zm28 0h6v13h-6z" fill="#c4f030" stroke="#627818"/>"     "     "     <path d="M381 332h13v13h-13zm14 0h9v13h-9z" stroke="#627818" fill="#c5f030"/>"     "     <path d="M405 332h19v13h-19zm20 0h2v13h-2zm3 0h17v13h-17z" fill="#c6f030" stroke="#637818"/>"     "     "     <path d="M446 332h20v13h-20zm21 0h30v13h-30zm31 0h12v13h-12z" stroke="#637818" fill="#c7f030"/>"     "     "     <path d="M511 332h28v13h-28zm29 0h26v13h-26z" fill="#c8f030" stroke="#647818"/>"     "     <path d="M567 332h3v13h-3zm4 0h11v13h-11zm12 0h1v13h-1z" stroke="#647818" fill="#c9f030"/>"     "     "     <path d="M585 332h11v13h-11zm12 0h22v13h-22zm23 0h6v13h-6z" fill="#caf030" stroke="#657818"/>"     "     "     <path d="M627 332h26v13h-26zm27 0h4v13h-4z" stroke="#657818" fill="#cbf030"/>"     "     <path d="M659 332h16v13h-16zm17 0h26v13h-26zm27 0h16v13h-16z" fill="#ccf030" stroke="#667818"/>"     "     "     <path d="M720 332h29v13h-29zm30 0h16v13h-16zm17 0h14v13h-14z" stroke="#667818" fill="#cdf030"/>"     "     "     <path d="M782 332h27v13h-27zm28 0h29v13h-29z" fill="#cef030" stroke="#677818"/>"     "     <path d="M840 332h5v13h-5zm6 0h3v13h-3zm4 0h9v13h-9z" stroke="#677818" fill="#cff030"/>"     "     "     <path d="M860 332h30v13h-30zm31 0h8v13h-8zm9 0h12v12h-12z" fill="#d0f030" stroke="#687818"/>"     "     "     <path d="M913 332h18v12h-18zm19 0h16v12h-16z" stroke="#687818" fill="#d1f030"/>"     "     <path d="M949 332h5v12h-5zm6 0h7v12h-7zm8 0h22v12h-22z" fill="#d2f030" stroke="#697818"/>"     "     "     <path d="M986 332h8v12h-8zm9 0h29v12h-29zM1 347h20v12H1z" stroke="#697818" fill="#d3f030"/>"     "     "     <path d="M22 347h21v12H22zm22 0h22v12H44z" fill="#d4f030" stroke="#6a7818"/>"     "     <path d="M67 347h24v12H67zm25 0h17v12H92zm18 0h1v12h-1z" stroke="#6a7818" fill="#d5f030"/>"     "     "     <path d="M112 347h25v12h-25zm26 0h7v12h-7zm8 0h18v12h-18z" fill="#d6f030" stroke="#6b7818"/>"     "     "     <path d="M165 347h6v12h-6zm7 0h28v12h-28z" stroke="#6b7818" fill="#d7f030"/>"     "     <path d="M201 347h10v12h-10zm11 0h3v12h-3zm4 0h27v12h-27z" fill="#d8f030" stroke="#6c7818"/>"     "     "     <path d="M244 347h3v12h-3zm4 0h23v12h-23zm24 0h20v12h-20z" stroke="#6c7818" fill="#d9f030"/>"     "     "     <path d="M293 347h2v12h-2zm3 0h15v12h-15z" fill="#daf030" stroke="#6d7818"/>"     "     <path d="M312 347h16v12h-16zm17 0h27v12h-27zm28 0h21v12h-21z" stroke="#6d7818" fill="#dbf030"/>"     "     "     <path d="M379 347h1v12h-1zm2 0h23v12h-23zm24 0h12v12h-12z" fill="#dcf030" stroke="#6e7818"/>"     "     "     <path d="M418 347h12v12h-12zm13 0h24v12h-24z" stroke="#6e7818" fill="#ddf030"/>"     "     <path d="M456 347h8v12h-8zm9 0h18v12h-18zm19 0h16v12h-16z" fill="#def030" stroke="#6f7818"/>"     "     "     <path d="M501 347h1v12h-1zm2 0h16v12h-16zm17 0h30v12h-30z" stroke="#6f7818" fill="#dff030"/>"     "     "     <path d="M551 347h7v12h-7zm8 0h19v12h-19z" fill="#e0f030" stroke="#707818"/>"     "     <path d="M579 347h11v12h-11zm12 0h14v12h-14zm15 0h22v12h-22z" stroke="#707818" fill="#e1f030"/>"     "     "     <path d="M629 347h14v12h-14zm15 0h21v12h-21zm22 0h4v12h-4z" fill="#e2f030" stroke="#717818"/>"     "     "     <path d="M671 347h26v12h-26zm27 0h4v12h-4z" stroke="#717818" fill="#e3f030"/>"     "     <path d="M703 347h25v12h-25zm26 0h10v12h-10zm11 0h26v11h-26z" fill="#e4f030" stroke="#727818"/>"     "     "     <path d="M767 347h22v11h-22zm23 0h19v11h-19zm20 0h17v11h-17z" stroke="#727818" fill="#e5f030"/>"     "     "     <path d="M828 347h7v11h-7zm8 0h10v11h-10z" fill="#e6f030" stroke="#737818"/>"     "     <path d="M847 347h22v11h-22zm23 0h13v11h-13zm14 0h27v11h-27z" stroke="#737818" fill="#e7f030"/>"     "     "     <path d="M912 347h13v11h-13zm14 0h21v11h-21zm22 0h18v11h-18z" fill="#e8f030" stroke="#747818"/>"     "     "     <path d="M967 347h15v11h-15zm16 0h27v11h-27z" stroke="#747818" fill="#e9f030"/>"     "     <path d="M1011 347h13v11h-13zM1 360h30v11H1zm31 0h29v11H32z" fill="#eaf030" stroke="#757818"/>"     "     "     <path d="M62 360h16v11H62zm17 0h3v11h-3zm4 0h2v11h-2z" stroke="#757818" fill="#ebf030"/>"     "     "     <path d="M86 360h3v11h-3zm4 0h18v11H90z" fill="#ecf030" stroke="#767818"/>"     "     <path d="M109 360h14v11h-14zm15 0h14v11h-14zm15 0h29v11h-29z" stroke="#767818" fill="#edf030"/>"     "     "     <path d="M169 360h10v11h-10zm11 0h13v11h-13zm14 0h28v11h-28z" fill="#eef030" stroke="#777818"/>"     "     "     <path d="M223 360h12v11h-12zm13 0h23v11h-23z" stroke="#777818" fill="#eff030"/>"     "     <path d="M260 360h5v11h-5zm6 0h9v11h-9zm10 0h20v11h-20z" fill="#f0f030" stroke="#787818"/>"     "     "     <path d="M297 360h19v11h-19zm20 0h19v11h-19zm20 0h30v11h-30z" stroke="#787818" fill="#f0f031"/>"     "     "     <path d="M368 360h29v11h-29zm30 0h27v11h-27z" fill="#f0f032" stroke="#787819"/>"     "     <path d="M426 360h20v11h-20zm21 0h15v11h-15zm16 0h17v11h-17z" stroke="#787819" fill="#f0f033"/>"     "     "     <path d="M481 360h4v11h-4zm5 0h28v11h-28zm29 0h23v11h-23z" fill="#f0f034" stroke="#78781a"/>"     "     "     <path d="M539 360h22v11h-22zm23 0h19v11h-19z" stroke="#78781a" fill="#f0f035"/>"     "     <path d="M582 360h11v11h-11zm12 0h26v11h-26zm27 0h11v11h-11z" fill="#f0f036" stroke="#78781b"/>"     "     "     <path d="M633 360h1v11h-1zm2 0h21v11h-21zm22 0h10v11h-10z" stroke="#78781b" fill="#f0f037"/>"     "     "     <path d="M668 360h29v11h-29zm30 0h8v10h-8z" fill="#f0f038" stroke="#78781c"/>"     "     <path d="M707 360h10v10h-10zm11 0h14v10h-14zm15 0h13v10h-13z" stroke="#78781c" fill="#f0f039"/>"     "     "     <path d="M747 360h3v10h-3zm4 0h23v10h-23zm24 0h6v10h-6z" fill="#f0f03a" stroke="#78781d"/>"     "     "     <path d="M782 360h16v10h-16zm17 0h3v10h-3z" stroke="#78781d" fill="#f0f03b"/>"     "     <path d="M803 360h27v10h-27zm28 0h21v10h-21zm22 0h14v10h-14z" fill="#f0f03c" stroke="#78781e"/>"     "     "     <path d="M868 360h15v10h-15zm16 0h24v10h-24zm25 0h28v10h-28z" stroke="#78781e" fill="#f0f03d"/>"     "     "     <path d="M938 360h27v10h-27zm28 0h7v10h-7z" fill="#f0f03e" stroke="#78781f"/>"     "     <path d="M974 360h17v10h-17zm18 0h15v10h-15zm16 0h16v10h-16z" stroke="#78781f" fill="#f0f03f"/>"     "     "     <path d="M1 372h3v10H1zm4 0h24v10H5zm25 0h30v10H30z" fill="#f0f040" stroke="#787820"/>"     "     "     <path d="M61 372h14v10H61zm15 0h26v10H76z" stroke="#787820" fill="#f0f041"/>"     "     <path d="M103 372h6v10h-6zm7 0h25v10h-25zm26 0h2v10h-2z" fill="#f0f042" stroke="#787821"/>"     "     "     <path d="M139 372h3v10h-3zm4 0h22v10h-22zm23 0h19v10h-19z" stroke="#787821" fill="#f0f043"/>"     "     "     <path d="M186 372h21v10h-21zm22 0h3v10h-3z" fill="#f0f044" stroke="#787822"/>"     "     <path d="M212 372h29v10h-29zm30 0h26v10h-26zm27 0h12v10h-12z" stroke="#787822" fill="#f0f045"/>"     "     "     <path d="M282 372h6v10h-6zm7 0h25v10h-25zm26 0h11v10h-11z" fill="#f0f046" stroke="#787823"/>"     "     "     <path d="M327 372h24v10h-24zm25 0h19v10h-19z" stroke="#787823" fill="#f0f047"/>"     "     <path d="M372 372h29v10h-29zm30 0h11v10h-11zm12 0h10v10h-10z" fill="#f0f048" stroke="#787824"/>"     "     "     <path d="M425 372h14v10h-14zm15 0h18v10h-18zm19 0h24v10h-24z" stroke="#787824" fill="#f0f049"/>"     "     "     <path d="M484 372h13v10h-13zm14 0h15v10h-15z" fill="#f0f04a" stroke="#787825"/>"     "     <path d="M514 372h9v10h-9zm10 0h24v10h-24zm25 0h9v9h-9z" stroke="#787825" fill="#f0f04b"/>"     "     "     <path d="M559 372h11v9h-11zm12 0h30v9h-30zm31 0h16v9h-16z" fill="#f0f04c" stroke="#787826"/>"     "     "     <path d="M619 372h17v9h-17zm18 0h26v9h-26z" stroke="#787826" fill="#f0f04d"/>"     "     <path d="M664 372h21v9h-21zm22 0h8v9h-8zm9 0h29v9h-29z" fill="#f0f04e" stroke="#787827"/>"     "     "     <path d="M725 372h11v9h-11zm12 0h12v9h-12zm13 0h27v9h-27z" stroke="#787827" fill="#f0f04f"/>"     "     "     <path d="M778 372h13v9h-13zm14 0h4v9h-4z" fill="#f0f050" stroke="#787828"/>"     "     <path d="M797 372h12v9h-12zm13 0h10v9h-10zm11 0h7v9h-7z" stroke="#787828" fill="#f0f051"/>"     "     "     <path d="M829 372h20v9h-20zm21 0h21v9h-21zm22 0h8v9h-8z" fill="#f0f052" stroke="#787829"/>"     "     "     <path d="M881 372h6v9h-6zm7 0h11v9h-11z" stroke="#787829" fill="#f0f053"/>"     "     <path d="M900 372h4v9h-4zm5 0h24v9h-24zm25 0h10v9h-10z" fill="#f0f054" stroke="#78782a"/>"     "     "     <path d="M941 372h28v9h-28zm29 0h8v9h-8zm9 0h20v9h-20z" stroke="#78782a" fill="#f0f055"/>"     "     "     <path d="M1000 372h24v6h-24zm0 7h24v2h-24z" fill="#f0f056" stroke="#78782b"/>"     "     <path d="M1 383h3v9H1zm4 0h22v9H5zm23 0h12v9H28z" stroke="#78782b" fill="#f0f057"/>"     "     "     <path d="M41 383h16v9H41zm17 0h20v9H58zm21 0h4v9h-4z" fill="#f0f058" stroke="#78782c"/>"     "     "     <path d="M84 383h13v9H84zm14 0h10v9H98z" stroke="#78782c" fill="#f0f059"/>"     "     <path d="M109 383h13v9h-13zm14 0h8v9h-8zm9 0h16v9h-16z" fill="#f0f05a" stroke="#78782d"/>"     "     "     <path d="M149 383h25v9h-25zm26 0h2v9h-2zm3 0h3v8h-3z" stroke="#78782d" fill="#f0f05b"/>"     "     "     <path d="M182 383h8v8h-8zm9 0h28v8h-28z" fill="#f0f05c" stroke="#78782e"/>"     "     <path d="M220 383h11v8h-11zm12 0h29v8h-29zm30 0h16v8h-16z" stroke="#78782e" fill="#f0f05d"/>"     "     "     <path d="M279 383h15v8h-15zm16 0h16v8h-16zm17 0h3v8h-3z" fill="#f0f05e" stroke="#78782f"/>"     "     "     <path d="M316 383h5v8h-5zm6 0h17v8h-17z" stroke="#78782f" fill="#f0f05f"/>"     "     <path d="M340 383h23v8h-23zm24 0h6v8h-6zm7 0h28v8h-28z" fill="#f0f060" stroke="#787830"/>"     "     "     <path d="M400 383h24v8h-24zm25 0h22v8h-22zm23 0h17v8h-17z" stroke="#787830" fill="#f0f061"/>"     "     "     <path d="M466 383h1v8h-1zm2 0h8v8h-8z" fill="#f0f062" stroke="#787831"/>"     "     <path d="M477 383h14v8h-14zm15 0h12v8h-12zm13 0h6v8h-6z" stroke="#787831" fill="#f0f063"/>"     "     "     <path d="M512 383h11v8h-11zm12 0h22v8h-22zm23 0h23v8h-23z" fill="#f0f064" stroke="#787832"/>"     "     "     <path d="M571 383h28v8h-28zm29 0h27v8h-27z" stroke="#787832" fill="#f0f065"/>"     "     <path d="M628 383h17v8h-17zm18 0h16v8h-16zm17 0h17v8h-17z" fill="#f0f066" stroke="#787833"/>"     "     "     <path d="M681 383h12v8h-12zm13 0h20v8h-20zm21 0h24v8h-24z" stroke="#787833" fill="#f0f067"/>"     "     "     <path d="M740 383h16v8h-16zm17 0h7v8h-7z" fill="#f0f068" stroke="#787834"/>"     "     <path d="M765 383h27v8h-27zm28 0h16v8h-16zm17 0h28v8h-28z" stroke="#787834" fill="#f0f069"/>"     "     "     <path d="M839 383h13v8h-13zm14 0h24v8h-24zm25 0h2v8h-2z" fill="#f0f06a" stroke="#787835"/>"     "     "     <path d="M881 383h13v8h-13zm14 0h23v8h-23z" stroke="#787835" fill="#f0f06b"/>"     "     <path d="M919 383h23v8h-23zm24 0h16v8h-16zm17 0h3v8h-3z" fill="#f0f06c" stroke="#787836"/>"     "     "     <path d="M964 383h29v8h-29zm30 0h30v5h-30zm0 6h30v2h-30z" stroke="#787836" fill="#f0f06d"/>"     "     "     <path d="M1 393h28v8H1zm29 0h7v8h-7z" fill="#f0f06e" stroke="#787837"/>"     "     <path d="M38 393h27v8H38zm28 0h11v8H66zm12 0h24v8H78z" stroke="#787837" fill="#f0f06f"/>"     "     "     <path d="M103 393h20v8h-20zm21 0h14v8h-14zm15 0h4v8h-4z" fill="#f0f070" stroke="#787838"/>"     "     "     <path d="M144 393h10v8h-10zm11 0h16v8h-16z" stroke="#787838" fill="#f0f071"/>"     "     <path d="M172 393h25v8h-25zm26 0h24v8h-24zm25 0h19v7h-19z" fill="#f0f072" stroke="#787839"/>"     "     "     <path d="M243 393h25v7h-25zm26 0h6v7h-6zm7 0h4v7h-4z" stroke="#787839" fill="#f0f073"/>"     "     "     <path d="M281 393h8v7h-8zm9 0h7v7h-7z" fill="#f0f074" stroke="#78783a"/>"     "     <path d="M298 393h24v7h-24zm25 0h24v7h-24zm25 0h3v7h-3z" stroke="#78783a" fill="#f0f075"/>"     "     "     <path d="M352 393h23v7h-23zm24 0h1v7h-1zm2 0h20v7h-20z" fill="#f0f076" stroke="#78783b"/>"     "     "     <path d="M399 393h2v7h-2zm3 0h29v7h-29z" stroke="#78783b" fill="#f0f077"/>"     "     <path d="M432 393h1v7h-1zm2 0h22v7h-22zm23 0h26v7h-26z" fill="#f0f078" stroke="#78783c"/>"     "     "     <path d="M484 393h28v7h-28zm29 0h26v7h-26zm27 0h23v7h-23z" stroke="#78783c" fill="#f0f079"/>"     "     "     <path d="M564 393h24v7h-24zm25 0h16v7h-16z" fill="#f0f07a" stroke="#78783d"/>"     "     <path d="M606 393h9v7h-9zm10 0h25v7h-25zm26 0h25v7h-25z" stroke="#78783d" fill="#f0f07b"/>"     "     "     <path d="M668 393h5v7h-5zm6 0h25v7h-25zm26 0h14v7h-14z" fill="#f0f07c" stroke="#78783e"/>"     "     "     <path d="M715 393h1v7h-1zm2 0h20v7h-20z" stroke="#78783e" fill="#f0f07d"/>"     "     <path d="M738 393h16v7h-16zm17 0h2v7h-2zm3 0h19v7h-19z" fill="#f0f07e" stroke="#78783f"/>"     "     "     <path d="M778 393h21v7h-21zm22 0h26v7h-26zm27 0h25v7h-25z" stroke="#78783f" fill="#f0f07f"/>"     "     "     <path d="M853 393h12v7h-12zm13 0h6v7h-6z" fill="#f0f080" stroke="#787840"/>"     "     <path d="M873 393h28v7h-28zm29 0h19v7h-19zm20 0h18v7h-18z" stroke="#787840" fill="#f0f081"/>"     "     "     <path d="M941 393h22v7h-22zm23 0h17v7h-17zm18 0h22v7h-22z" fill="#f0f082" stroke="#787841"/>"     "     "     <path d="M1005 393h19v2h-19zm0 3h19v4h-19z" stroke="#787841" fill="#f0f083"/>"     "     <path d="M1 402h4v7H1zm5 0h26v7H6zm27 0h12v7H33z" fill="#f0f084" stroke="#787842"/>"     "     "     <path d="M46 402h27v7H46zm28 0h6v7h-6zm7 0h5v7h-5z" stroke="#787842" fill="#f0f085"/>"     "     "     <path d="M87 402h10v7H87zm11 0h8v7h-8z" fill="#f0f086" stroke="#787843"/>"     "     <path d="M107 402h5v7h-5zm6 0h29v7h-29zm30 0h15v7h-15z" stroke="#787843" fill="#f0f087"/>"     "     "     <path d="M159 402h26v7h-26zm27 0h16v7h-16zm17 0h23v7h-23z" fill="#f0f088" stroke="#787844"/>"     "     "     <path d="M227 402h30v7h-30zm31 0h26v6h-26z" stroke="#787844" fill="#f0f089"/>"     "     <path d="M285 402h26v6h-26zm27 0h11v6h-11zm12 0h25v6h-25z" fill="#f0f08a" stroke="#787845"/>"     "     "     <path d="M350 402h18v6h-18zm19 0h20v6h-20zm21 0h25v6h-25z" stroke="#787845" fill="#f0f08b"/>"     "     "     <path d="M416 402h20v6h-20zm21 0h30v6h-30z" fill="#f0f08c" stroke="#787846"/>"     "     <path d="M468 402h11v6h-11zm12 0h5v6h-5zm6 0h11v6h-11z" stroke="#787846" fill="#f0f08d"/>"     "     "     <path d="M498 402h22v6h-22zm23 0h27v6h-27zm28 0h1v6h-1z" fill="#f0f08e" stroke="#787847"/>"     "     "     <path d="M551 402h10v6h-10zm11 0h24v6h-24z" stroke="#787847" fill="#f0f08f"/>"     "     <path d="M587 402h11v6h-11zm12 0h20v6h-20zm21 0h17v6h-17z" fill="#f0f090" stroke="#787848"/>"     "     "     <path d="M638 402h16v6h-16zm17 0h29v6h-29zm30 0h27v6h-27z" stroke="#787848" fill="#f0f091"/>"     "     "     <path d="M713 402h13v6h-13zm14 0h24v6h-24z" fill="#f0f092" stroke="#787849"/>"     "     <path d="M752 402h22v6h-22zm23 0h7v6h-7zm8 0h30v6h-30z" stroke="#787849" fill="#f0f093"/>"     "     "     <path d="M814 402h2v6h-2zm3 0h6v6h-6zm7 0h3v6h-3z" fill="#f0f094" stroke="#78784a"/>"     "     "     <path d="M828 402h25v6h-25zm26 0h15v6h-15z" stroke="#78784a" fill="#f0f095"/>"     "     <path d="M870 402h5v6h-5zm6 0h26v6h-26zm27 0h30v6h-30z" fill="#f0f096" stroke="#78784b"/>"     "     "     <path d="M934 402h19v6h-19zm20 0h13v6h-13zm14 0h3v6h-3z" stroke="#78784b" fill="#f0f097"/>"     "     "     <path d="M972 402h16v6h-16zm17 0h2v6h-2z" fill="#f0f098" stroke="#78784c"/>"     "     <path d="M992 402h4v5h-4zm5 0h15v5h-15zm16 0h11v5h-11z" stroke="#78784c" fill="#f0f099"/>"     "     "     <path d="M1 410h23v5H1zm24 0h23v5H25zm24 0h28v5H49z" fill="#f0f09a" stroke="#78784d"/>"     "     "     <path d="M78 410h21v5H78zm22 0h29v5h-29z" stroke="#78784d" fill="#f0f09b"/>"     "     <path d="M130 410h8v5h-8zm9 0h7v5h-7zm8 0h9v5h-9z" fill="#f0f09c" stroke="#78784e"/>"     "     "     <path d="M157 410h22v5h-22zm23 0h8v5h-8zm9 0h5v5h-5z" stroke="#78784e" fill="#f0f09d"/>"     "     "     <path d="M195 410h22v5h-22zm23 0h22v5h-22z" fill="#f0f09e" stroke="#78784f"/>"     "     <path d="M241 410h21v5h-21zm22 0h12v5h-12zm13 0h14v5h-14z" stroke="#78784f" fill="#f0f09f"/>"     "     "     <path d="M291 410h7v5h-7zm8 0h5v5h-5zm6 0h11v5h-11z" fill="#f0f0a0" stroke="#787850"/>"     "     "     <path d="M317 410h2v5h-2zm3 0h10v5h-10z" stroke="#787850" fill="#f0f0a1"/>"     "     <path d="M331 410h15v5h-15zm16 0h25v5h-25zm26 0h15v5h-15z" fill="#f0f0a2" stroke="#787851"/>"     "     "     <path d="M389 410h16v5h-16zm17 0h19v5h-19zm20 0h28v5h-28z" stroke="#787851" fill="#f0f0a3"/>"     "     "     <path d="M455 410h2v5h-2zm3 0h3v5h-3z" fill="#f0f0a4" stroke="#787852"/>"     "     <path d="M462 410h29v5h-29zm30 0h20v5h-20zm21 0h4v5h-4z" stroke="#787852" fill="#f0f0a5"/>"     "     "     <path d="M518 410h29v5h-29zm30 0h2v5h-2zm3 0h28v5h-28z" fill="#f0f0a6" stroke="#787853"/>"     "     "     <path d="M580 410h4v5h-4zm5 0h12v5h-12z" stroke="#787853" fill="#f0f0a7"/>"     "     <path d="M598 410h24v5h-24zm25 0h28v5h-28zm29 0h13v4h-13z" fill="#f0f0a8" stroke="#787854"/>"     "     "     <path d="M666 410h16v4h-16zm17 0h22v4h-22zm23 0h16v4h-16z" stroke="#787854" fill="#f0f0a9"/>"     "     "     <path d="M723 410h5v4h-5zm6 0h9v4h-9z" fill="#f0f0aa" stroke="#787855"/>"     "     <path d="M739 410h16v4h-16zm17 0h3v4h-3zm4 0h19v4h-19z" stroke="#787855" fill="#f0f0ab"/>"     "     "     <path d="M780 410h22v4h-22zm23 0h26v4h-26zm27 0h13v4h-13z" fill="#f0f0ac" stroke="#787856"/>"     "     "     <path d="M844 410h6v4h-6zm7 0h1v4h-1z" stroke="#787856" fill="#f0f0ad"/>"     "     <path d="M853 410h29v4h-29zm30 0h7v4h-7zm8 0h11v4h-11z" fill="#f0f0ae" stroke="#787857"/>"     "     "     <path d="M903 410h13v4h-13zm14 0h26v4h-26zm27 0h15v4h-15z" stroke="#787857" fill="#f0f0af"/>"     "     "     <path d="M960 410h8v4h-8zm9 0h1v4h-1z" fill="#f0f0b0" stroke="#787858"/>"     "     <path d="M971 410h22v4h-22zm23 0h30v4h-30zM1 416h22v4H1z" stroke="#787858" fill="#f0f0b1"/>"     "     "     <path d="M24 416h7v4h-7zm8 0h24v4H32zm25 0h23v4H57z" fill="#f0f0b2" stroke="#787859"/>"     "     "     <path d="M81 416h22v4H81zm23 0h22v4h-22z" stroke="#787859" fill="#f0f0b3"/>"     "     <path d="M127 416h14v4h-14zm15 0h30v4h-30zm31 0h29v4h-29z" fill="#f0f0b4" stroke="#78785a"/>"     "     "     <path d="M203 416h1v4h-1zm2 0h5v4h-5zm6 0h21v4h-21z" stroke="#78785a" fill="#f0f0b5"/>"     "     "     <path d="M233 416h15v4h-15zm16 0h11v4h-11z" fill="#f0f0b6" stroke="#78785b"/>"     "     <path d="M261 416h10v4h-10zm11 0h9v4h-9zm10 0h13v3h-13z" stroke="#78785b" fill="#f0f0b7"/>"     "     "     <path d="M296 416h9v3h-9zm10 0h11v3h-11zm12 0h22v3h-22z" fill="#f0f0b8" stroke="#78785c"/>"     "     "     <path d="M341 416h29v3h-29zm30 0h30v3h-30z" stroke="#78785c" fill="#f0f0b9"/>"     "     <path d="M402 416h12v3h-12zm13 0h6v3h-6zm7 0h6v3h-6z" fill="#f0f0ba" stroke="#78785d"/>"     "     "     <path d="M429 416h1v3h-1zm2 0h18v3h-18zm19 0h6v3h-6z" stroke="#78785d" fill="#f0f0bb"/>"     "     "     <path d="M457 416h8v3h-8zm9 0h18v3h-18z" fill="#f0f0bc" stroke="#78785e"/>"     "     <path d="M485 416h17v3h-17zm18 0h25v3h-25zm26 0h2v3h-2z" stroke="#78785e" fill="#f0f0bd"/>"     "     "     <path d="M532 416h27v3h-27zm28 0h28v3h-28zm29 0h9v3h-9z" fill="#f0f0be" stroke="#78785f"/>"     "     "     <path d="M599 416h13v3h-13zm14 0h23v3h-23z" stroke="#78785f" fill="#f0f0bf"/>"     "     <path d="M637 416h17v3h-17zm18 0h7v3h-7zm8 0h14v3h-14z" fill="#f0f0c0" stroke="#787860"/>"     "     "     <path d="M678 416h18v3h-18zm19 0h4v3h-4zm5 0h1v3h-1z" stroke="#787860" fill="#f0f0c1"/>"     "     "     <path d="M704 416h21v3h-21zm22 0h13v3h-13z" fill="#f0f0c2" stroke="#787861"/>"     "     <path d="M740 416h11v3h-11zm12 0h15v3h-15zm16 0h30v3h-30z" stroke="#787861" fill="#f0f0c3"/>"     "     "     <path d="M799 416h24v3h-24zm25 0h25v3h-25zm26 0h20v3h-20z" fill="#f0f0c4" stroke="#787862"/>"     "     "     <path d="M871 416h29v3h-29zm30 0h25v3h-25z" stroke="#787862" fill="#f0f0c5"/>"     "     <path d="M927 416h20v3h-20zm21 0h5v3h-5zm6 0h6v3h-6z" fill="#f0f0c6" stroke="#787863"/>"     "     "     <path d="M961 416h27v3h-27zm28 0h12v3h-12zm13 0h22v1h-22z" stroke="#787863" fill="#f0f0c7"/>"     "     "     <path d="M1002 418h22v1h-22zM1 421h30v3H1z" fill="#f0f0c8" stroke="#787864"/>"     "     <path d="M32 421h30v3H32zm31 0h1v3h-1zm2 0h20v3H65z" stroke="#787864" fill="#f0f0c9"/>"     "     "     <path d="M86 421h7v3h-7zm8 0h23v3H94zm24 0h28v3h-28z" fill="#f0f0ca" stroke="#787865"/>"     "     "     <path d="M147 421h28v2h-28zm29 0h8v2h-8z" stroke="#787865" fill="#f0f0cb"/>"     "     <path d="M185 421h12v2h-12zm13 0h25v2h-25zm26 0h19v2h-19z" fill="#f0f0cc" stroke="#787866"/>"     "     "     <path d="M244 421h19v2h-19zm20 0h11v2h-11zm12 0h5v2h-5z" stroke="#787866" fill="#f0f0cd"/>"     "     "     <path d="M282 420h21v2h-21zm22 0h30v2h-30z" fill="#f0f0ce" stroke="#787867"/>"     "     <path d="M335 420h9v2h-9zm10 0h14v2h-14zm15 0h13v2h-13z" stroke="#787867" fill="#f0f0cf"/>"     "     "     <path d="M374 420h7v2h-7zm8 0h19v2h-19zm20 0h17v2h-17z" fill="#f0f0d0" stroke="#787868"/>"     "     "     <path d="M420 420h13v2h-13zm14 0h27v2h-27z" stroke="#787868" fill="#f0f0d1"/>"     "     <path d="M462 420h13v2h-13zm14 0h18v2h-18zm19 0h21v2h-21z" fill="#f0f0d2" stroke="#787869"/>"     "     "     <path d="M517 420h28v2h-28zm29 0h1v2h-1zm2 0h9v2h-9z" stroke="#787869" fill="#f0f0d3"/>"     "     "     <path d="M558 420h26v2h-26zm27 0h2v2h-2z" fill="#f0f0d4" stroke="#78786a"/>"     "     <path d="M588 420h6v2h-6zm7 0h15v2h-15zm16 0h10v2h-10z" stroke="#78786a" fill="#f0f0d5"/>"     "     "     <path d="M622 420h19v2h-19zm20 0h20v2h-20zm21 0h26v2h-26z" fill="#f0f0d6" stroke="#78786b"/>"     "     "     <path d="M690 420h30v2h-30zm31 0h5v2h-5z" stroke="#78786b" fill="#f0f0d7"/>"     "     <path d="M727 420h12v2h-12zm13 0h9v2h-9zm10 0h14v2h-14z" fill="#f0f0d8" stroke="#78786c"/>"     "     "     <path d="M765 420h24v2h-24zm25 0h2v2h-2zm3 0h23v2h-23z" stroke="#78786c" fill="#f0f0d9"/>"     "     "     <path d="M817 420h16v2h-16zm17 0h3v2h-3z" fill="#f0f0da" stroke="#78786d"/>"     "     <path d="M838 420h21v2h-21zm22 0h6v2h-6zm7 0h5v2h-5z" stroke="#78786d" fill="#f0f0db"/>"     "     "     <path d="M873 420h29v2h-29zm30 0h21v2h-21zm22 0h18v2h-18z" fill="#f0f0dc" stroke="#78786e"/>"     "     "     <path d="M944 420h3v2h-3zm4 0h6v2h-6z" stroke="#78786e" fill="#f0f0dd"/>"     "     <path d="M955 420h18v2h-18zm19 0h18v2h-18zm19 0h14v1h-14z" fill="#f0f0de" stroke="#78786f"/>"     "     "     <path d="M1008 420h16v1h-16zM1 425h13v1H1zm14 0h19v1H15z" stroke="#78786f" fill="#f0f0df"/>"     "     "     <path d="M35 425h27v1H35zm28 0h5v1h-5z" fill="#f0f0e0" stroke="#787870"/>"     "     <path d="M69 425h3v1h-3zm4 0h27v1H73zm28 0h4v1h-4z" stroke="#787870" fill="#f0f0e1"/>"     "     "     <path d="M106 425h5v1h-5zm6 0h18v1h-18zm19 0h10v1h-10z" fill="#f0f0e2" stroke="#787871"/>"     "     "     <path d="M142 425h19v1h-19zm20 0h19v1h-19z" stroke="#787871" fill="#f0f0e3"/>"     "     <path d="M182 425h12v1h-12zm13 0h12v1h-12zm13 0h27v1h-27z" fill="#f0f0e4" stroke="#787872"/>"     "     "     <path d="M236 425h28v1h-28zm29 0h2v1h-2zm3 0h2v1h-2z" stroke="#787872" fill="#f0f0e5"/>"     "     "     <path d="M271 425h28v1h-28zm29 0h3v1h-3z" fill="#f0f0e6" stroke="#787873"/>"     "     <path d="M304 425h21v1h-21zm22 0h30v1h-30zm31 0h17v1h-17z" stroke="#787873" fill="#f0f0e7"/>"     "     "     <path d="M375 425h15v1h-15zm16 0h12v1h-12zm13 0h12v1h-12z" fill="#f0f0e8" stroke="#787874"/>"     "     "     <path d="M417 425h12v1h-12zm13 0h11v1h-11z" stroke="#787874" fill="#f0f0e9"/>"     "     <path d="M442 425h6v1h-6zm7 0h7v1h-7zm8 0h1v1h-1z" fill="#f0f0ea" stroke="#787875"/>"     "     "     <path d="M459 425h15v1h-15zm16 0h2v1h-2zm3 0h10v1h-10z" stroke="#787875" fill="#f0f0eb"/>"     "     "     <path d="M489 425h23v1h-23zm24 0h5v1h-5z" fill="#f0f0ec" stroke="#787876"/>"     "     <path d="M519 425h23v1h-23zm24 0h20v1h-20zm21 0h27v1h-27z" stroke="#787876" fill="#f0f0ed"/>"     "     "     <path d="M592 425h6v1h-6zm7 0h19v1h-19zm20 0h12v1h-12z" fill="#f0f0ee" stroke="#787877"/>"     "     "     <path d="M632 425h23v1h-23zm24 0h5v1h-5z" stroke="#787877" fill="#f0f0ef"/>"     "     <text y="526" font-size="12" fill="#000" x="0"> MaxRectsBin(size: 1024x512, choice: BestShortSideFit, method: LongerLeftoverAxis): inserted 1536 of 1536 rectangles with w/h lengths between [2, 31], occupancy: 80.22% </text></svg>