<svg xmlns="http://www.w3.org/2000/svg" viewBox="0 0 1024 536" xmlns:v="https://vecta.io/nano"><path d="M0 0h1024v512H0z" fill="#fff" stroke="#000"/>"     <path d="M1 1h30v19H1zm0 20h7v30H1zm8 0h22v30H9z" fill="#303030" stroke="#181818"/>"     "     "     <path d="M1 52h18v30H1zm19 0h11v30H20zM1 83h7v30H1z" stroke="#181818" fill="#303130"/>"     "     "     <path d="M9 83h22v30H9zm-8 31h16v30H1z" fill="#303230" stroke="#181918"/>"     "     <path d="M18 114h13v30H18zM1 145h20v30H1zm21 0h9v30h-9z" stroke="#181918" fill="#303330"/>"     "     "     <path d="M1 176h15v30H1zm16 0h14v30H17zM1 207h15v30H1z" fill="#303430" stroke="#181a18"/>"     "     "     <path d="M17 207h14v30H17zM1 238h3v30H1z" stroke="#181a18" fill="#303530"/>"     "     <path d="M5 238h26v30H5zm-4 31h17v30H1zm18 0h12v30H19z" fill="#303630" stroke="#181b18"/>"     "     "     <path d="M1 300h21v30H1zm22 0h8v30h-8zM1 331h29v30H1z" stroke="#181b18" fill="#303730"/>"     "     "     <path d="M1 362h13v30H1zm14 0h15v29H15z" fill="#303830" stroke="#181c18"/>"     "     <path d="M1 393h7v30H1zm8 0h22v30H9zm-8 31h1v30H1z" stroke="#181c18" fill="#303930"/>"     "     "     <path d="M3 424h28v30H3zm-2 31h29v30H1zm0 31h30v26H1z" fill="#303a30" stroke="#181d18"/>"     "     "     <path d="M32 1h30v17H32zm0 18h5v30h-5z" stroke="#181d18" fill="#303b30"/>"     "     <path d="M38 19h24v30H38zm-6 31h28v30H32zm29 0h1v30h-1z" fill="#303c30" stroke="#181e18"/>"     "     "     <path d="M32 81h21v30H32zm22 0h7v29h-7zm-22 31h15v30H32z" stroke="#181e18" fill="#303d30"/>"     "     "     <path d="M48 112h14v30H48zm-16 31h28v30H32z" fill="#303e30" stroke="#181f18"/>"     "     <path d="M61 143h1v27h-1zm0 28h1v2h-1zm-29 3h20v30H32z" stroke="#181f18" fill="#303f30"/>"     "     "     <path d="M53 174h8v29h-8zm-21 31h20v30H32zm21-1h7v29h-7z" fill="#304030" stroke="#182018"/>"     "     "     <path d="M53 234h7v1h-7zm8-30h1v26h-1z" stroke="#182018" fill="#304130"/>"     "     <path d="M61 231h1v4h-1zm-29 5h23v30H32zm24 0h6v30h-6z" fill="#304230" stroke="#182118"/>"     "     "     <path d="M32 267h28v30H32zm29 0h1v26h-1zm0 27h1v3h-1z" stroke="#182118" fill="#304330"/>"     "     "     <path d="M32 298h3v30h-3zm4 0h26v29H36z" fill="#304430" stroke="#182218"/>"     "     <path d="M32 329h27v30H32zm28 0h2v30h-2zm-28 31h5v30h-5z" stroke="#182218" fill="#304530"/>"     "     "     <path d="M38 360h24v29H38zm-6 31h5v30h-5zm6-1h23v30H38z" fill="#304630" stroke="#182318"/>"     "     "     <path d="M32 422h23v30H32zm24 0h6v30h-6z" stroke="#182318" fill="#304730"/>"     "     <path d="M32 453h17v30H32zm18 0h12v30H50zm-18 31h29v27H32z" fill="#304830" stroke="#182418"/>"     "     "     <path d="M63 1h30v27H63zm0 28h7v30h-7zm8 0h22v30H71z" stroke="#182418" fill="#304930"/>"     "     "     <path d="M63 60h10v30H63zm11 0h19v30H74z" fill="#304a30" stroke="#182518"/>"     "     <path d="M63 91h10v30H63zm11 0h19v30H74zm-11 31h21v30H63z" stroke="#182518" fill="#304b30"/>"     "     "     <path d="M85 122h8v29h-8zm-22 31h5v30h-5zm6 0h23v28H69z" fill="#304c30" stroke="#182618"/>"     "     "     <path d="M69 182h24v1H69zm-6 2h3v30h-3z" stroke="#182618" fill="#304d30"/>"     "     <path d="M67 184h26v29H67zm-4 31h2v30h-2zm3 0h27v30H66z" fill="#304e30" stroke="#182718"/>"     "     "     <path d="M63 246h27v30H63zm28 0h2v30h-2zm-28 31h12v30H63z" stroke="#182718" fill="#304f30"/>"     "     "     <path d="M76 277h17v30H76zm-13 31h17v30H63z" fill="#305030" stroke="#182818"/>"     "     <path d="M81 308h11v29H81zm-18 31h18v30H63zm19 0h11v30H82z" stroke="#182818" fill="#305130"/>"     "     "     <path d="M63 370h4v30h-4zm5 0h25v30H68zm-5 31h19v29H63z" fill="#305230" stroke="#182918"/>"     "     "     <path d="M83 401h10v29H83zm-20 30h17v29H63z" stroke="#182918" fill="#305330"/>"     "     <path d="M81 431h12v29H81zm-18 30h27v29H63zm28 0h2v29h-2z" fill="#305430" stroke="#182a18"/>"     "     "     <path d="M63 491h30v21H63zM94 1h30v4H94zm0 5h29v29H94z" stroke="#182a18" fill="#305530"/>"     "     "     <path d="M94 36h19v29H94zm20 0h10v29h-10z" fill="#305630" stroke="#182b18"/>"     "     <path d="M94 66h29v29H94zm0 30h20v29H94zm21 0h9v29h-9z" stroke="#182b18" fill="#305730"/>"     "     "     <path d="M94 126h11v29H94zm12 0h18v29h-18zm-12 30h6v29h-6z" fill="#305830" stroke="#182c18"/>"     "     "     <path d="M101 156h23v29h-23zm-7 30h29v29H94z" stroke="#182c18" fill="#305930"/>"     "     <path d="M94 216h6v29h-6zm7 0h23v29h-23zm-7 30h4v29h-4z" fill="#305a30" stroke="#182d18"/>"     "     "     <path d="M99 246h25v29H99zm-5 30h22v29H94zm23 0h7v29h-7z" stroke="#182d18" fill="#305b30"/>"     "     "     <path d="M94 306h30v29H94zm0 30h20v29H94z" fill="#305c30" stroke="#182e18"/>"     "     <path d="M115 336h8v28h-8zm-21 30h29v29H94zm0 30h17v29H94z" stroke="#182e18" fill="#305d30"/>"     "     "     <path d="M112 396h12v29h-12zm-18 30h10v29H94zm11 0h19v29h-19z" fill="#305e30" stroke="#182f18"/>"     "     "     <path d="M94 456h17v29H94zm18 0h12v28h-12z" stroke="#182f18" fill="#305f30"/>"     "     <path d="M94 486h29v25H94zM125 1h30v18h-30zm0 19h28v29h-28z" fill="#306030" stroke="#183018"/>"     "     "     <path d="M154 20h1v26h-1zm0 27h1v2h-1zm-29 3h20v29h-20z" stroke="#183018" fill="#306130"/>"     "     "     <path d="M146 50h7v28h-7zm8 0h1v23h-1z" fill="#306230" stroke="#183118"/>"     "     <path d="M154 74h1v5h-1zm-29 6h20v29h-20zm21 0h9v27h-9z" stroke="#183118" fill="#306330"/>"     "     "     <path d="M146 108h6v1h-6zm7 0h2v1h-2zm-28 2h21v29h-21z" fill="#306430" stroke="#183218"/>"     "     "     <path d="M147 110h8v29h-8zm-22 30h3v29h-3z" stroke="#183218" fill="#306530"/>"     "     <path d="M129 140h26v28h-26zm-4 30h22v29h-22zm23 0h7v29h-7z" fill="#306630" stroke="#183318"/>"     "     "     <path d="M125 200h11v29h-11zm12 0h18v29h-18zm-12 30h13v29h-13z" stroke="#183318" fill="#306730"/>"     "     "     <path d="M139 230h16v29h-16zm-14 30h13v29h-13z" fill="#306830" stroke="#183418"/>"     "     <path d="M139 260h16v29h-16zm-14 30h11v29h-11zm12 0h18v29h-18z" stroke="#183418" fill="#306930"/>"     "     "     <path d="M125 320h17v29h-17zm18 0h12v28h-12zm-18 30h5v29h-5z" fill="#306a30" stroke="#183518"/>"     "     "     <path d="M131 350h24v29h-24zm-6 30h7v29h-7z" stroke="#183518" fill="#306b30"/>"     "     <path d="M133 380h22v29h-22zm-8 30h3v29h-3zm4 0h26v28h-26z" fill="#306c30" stroke="#183618"/>"     "     "     <path d="M125 440h19v29h-19zm20 0h10v29h-10zm-20 30h19v28h-19z" stroke="#183618" fill="#306d30"/>"     "     "     <path d="M145 470h10v28h-10zm-20 29h30v13h-30z" fill="#306e30" stroke="#183718"/>"     "     <path d="M156 1h30v3h-30zm0 4h2v28h-2zm3 0h27v28h-27z" stroke="#183718" fill="#306f30"/>"     "     "     <path d="M156 34h2v28h-2zm3 0h27v28h-27zm-3 29h16v28h-16z" fill="#307030" stroke="#183818"/>"     "     "     <path d="M173 63h13v28h-13zm-17 29h3v28h-3z" stroke="#183818" fill="#307130"/>"     "     <path d="M160 92h26v28h-26zm-4 29h14v28h-14zm15 0h15v27h-15z" fill="#307230" stroke="#183918"/>"     "     "     <path d="M156 150h10v28h-10zm11 0h19v28h-19zm-11 29h5v28h-5z" stroke="#183918" fill="#307330"/>"     "     "     <path d="M162 179h24v27h-24zm-6 29h3v28h-3z" fill="#307430" stroke="#183a18"/>"     "     <path d="M160 208h26v28h-26zm-4 29h10v28h-10zm11 0h19v27h-19z" stroke="#183a18" fill="#307530"/>"     "     "     <path d="M156 266h4v28h-4zm5 0h25v28h-25zm-5 29h21v28h-21z" fill="#307630" stroke="#183b18"/>"     "     "     <path d="M178 295h8v28h-8zm-22 29h10v28h-10z" stroke="#183b18" fill="#307730"/>"     "     <path d="M167 324h18v28h-18zm-11 29h16v28h-16zm17 0h13v28h-13z" fill="#307830" stroke="#183c18"/>"     "     "     <path d="M156 382h7v28h-7zm8 0h22v28h-22zm-8 29h7v28h-7z" stroke="#183c18" fill="#307930"/>"     "     "     <path d="M164 411h22v28h-22zm-8 29h18v28h-18z" fill="#307a30" stroke="#183d18"/>"     "     <path d="M175 440h11v28h-11zm-19 29h28v28h-28zm29 0h1v28h-1z" stroke="#183d18" fill="#307b30"/>"     "     "     <path d="M156 498h29v14h-29zM187 1h30v2h-30zm0 3h4v28h-4z" fill="#307c30" stroke="#183e18"/>"     "     "     <path d="M192 4h25v28h-25zm-5 29h18v28h-18z" stroke="#183e18" fill="#307d30"/>"     "     <path d="M206 33h11v28h-11zm-19 29h3v28h-3zm4 0h26v27h-26z" fill="#307e30" stroke="#183f18"/>"     "     "     <path d="M187 91h16v28h-16zm17 0h13v28h-13zm-17 29h28v28h-28z" stroke="#183f18" fill="#307f30"/>"     "     "     <path d="M216 120h1v28h-1zm-29 29h7v28h-7z" fill="#308030" stroke="#184018"/>"     "     <path d="M195 149h22v28h-22zm-8 29h21v28h-21zm22 0h8v28h-8z" stroke="#184018" fill="#308130"/>"     "     "     <path d="M187 207h10v28h-10zm11 0h19v27h-19zm-11 29h10v28h-10z" fill="#308230" stroke="#184118"/>"     "     "     <path d="M198 235h19v29h-19zm-11 30h10v28h-10z" stroke="#184118" fill="#308330"/>"     "     <path d="M198 265h19v27h-19zm-11 29h13v28h-13zm14 0h16v28h-16z" fill="#308430" stroke="#184218"/>"     "     "     <path d="M187 323h23v28h-23zm24 0h5v27h-5zm-24 29h16v28h-16z" stroke="#184218" fill="#308530"/>"     "     "     <path d="M204 352h13v27h-13zm-17 29h16v28h-16z" fill="#308630" stroke="#184318"/>"     "     <path d="M204 380h13v29h-13zm-17 30h28v28h-28zm29 0h1v23h-1z" stroke="#184318" fill="#308730"/>"     "     "     <path d="M216 434h1v4h-1zm-29 5h17v27h-17zm18 0h12v27h-12z" fill="#308830" stroke="#184418"/>"     "     "     <path d="M187 467h22v27h-22zm23 0h7v27h-7z" stroke="#184418" fill="#308930"/>"     "     <path d="M187 495h29v16h-29zM218 1h30v3h-30zm0 4h14v27h-14z" fill="#308a30" stroke="#184518"/>"     "     "     <path d="M233 5h15v27h-15zm-15 28h8v27h-8zm9 0h21v27h-21z" stroke="#184518" fill="#308b30"/>"     "     "     <path d="M218 61h25v27h-25zm26 0h4v27h-4z" fill="#308c30" stroke="#184618"/>"     "     <path d="M218 89h7v27h-7zm8 0h22v27h-22zm-8 28h3v27h-3z" stroke="#184618" fill="#308d30"/>"     "     "     <path d="M222 117h26v27h-26zm-4 28h20v27h-20zm21 0h9v27h-9z" fill="#308e30" stroke="#184718"/>"     "     "     <path d="M218 173h20v27h-20zm21 0h9v27h-9z" stroke="#184718" fill="#308f30"/>"     "     <path d="M218 201h18v27h-18zm19 0h11v27h-11zm-19 28h6v27h-6z" fill="#309030" stroke="#184818"/>"     "     "     <path d="M225 229h23v27h-23zm-7 28h21v27h-21zm22 0h8v27h-8z" stroke="#184818" fill="#309130"/>"     "     "     <path d="M218 285h3v27h-3zm4 0h26v27h-26z" fill="#309230" stroke="#184918"/>"     "     <path d="M218 313h27v27h-27zm28 0h2v27h-2zm-28 28h14v27h-14z" stroke="#184918" fill="#309330"/>"     "     "     <path d="M233 341h15v27h-15zm-15 28h17v27h-17zm18 0h12v27h-12z" fill="#309430" stroke="#184a18"/>"     "     "     <path d="M218 397h27v27h-27zm28 0h2v27h-2z" stroke="#184a18" fill="#309530"/>"     "     <path d="M218 425h25v27h-25zm26 0h4v26h-4zm-26 28h30v27h-30z" fill="#309630" stroke="#184b18"/>"     "     "     <path d="M218 481h29v27h-29zm0 28h30v3h-30zM249 1h30v4h-30z" stroke="#184b18" fill="#309730"/>"     "     "     <path d="M249 6h6v27h-6zm7 0h23v27h-23z" fill="#309830" stroke="#184c18"/>"     "     <path d="M249 34h15v27h-15zm16 0h14v27h-14zm-16 28h25v27h-25z" stroke="#184c18" fill="#309930"/>"     "     "     <path d="M275 62h3v26h-3zm-26 28h15v27h-15zm16 0h14v27h-14z" fill="#309a30" stroke="#184d18"/>"     "     "     <path d="M249 118h5v27h-5zm6 0h24v27h-24z" stroke="#184d18" fill="#309b30"/>"     "     <path d="M249 146h18v27h-18zm19 0h11v27h-11zm-19 28h19v27h-19z" fill="#309c30" stroke="#184e18"/>"     "     "     <path d="M269 174h10v27h-10zm-20 28h5v27h-5zm6 0h24v27h-24z" stroke="#184e18" fill="#309d30"/>"     "     "     <path d="M249 230h19v27h-19zm20 0h10v27h-10z" fill="#309e30" stroke="#184f18"/>"     "     <path d="M249 258h8v27h-8zm9 0h21v27h-21zm-9 28h3v27h-3z" stroke="#184f18" fill="#309f30"/>"     "     "     <path d="M253 286h25v26h-25zm-4 28h7v27h-7zm8 0h22v27h-22z" fill="#30a030" stroke="#185018"/>"     "     "     <path d="M249 342h19v27h-19zm20 0h10v26h-10z" stroke="#185018" fill="#30a130"/>"     "     <path d="M249 370h3v27h-3zm4 0h26v26h-26zm-4 28h30v27h-30z" fill="#30a230" stroke="#185118"/>"     "     "     <path d="M249 426h27v27h-27zm28 0h2v25h-2zm0 26h2v1h-2z" stroke="#185118" fill="#30a330"/>"     "     "     <path d="M249 454h17v27h-17zm18 0h12v26h-12z" fill="#30a430" stroke="#185218"/>"     "     <path d="M249 482h26v26h-26zm27 0h3v26h-3zm-27 27h30v3h-30z" stroke="#185218" fill="#30a530"/>"     "     "     <path d="M280 1h30v20h-30zm0 21h19v26h-19zm20 0h10v26h-10z" fill="#30a630" stroke="#185318"/>"     "     "     <path d="M280 49h14v26h-14zm15 0h15v26h-15z" stroke="#185318" fill="#30a730"/>"     "     <path d="M280 76h18v26h-18zm19 0h11v26h-11zm-19 27h17v26h-17z" fill="#30a830" stroke="#185418"/>"     "     "     <path d="M298 103h12v26h-12zm-18 27h24v26h-24zm25 0h5v26h-5z" stroke="#185418" fill="#30a930"/>"     "     "     <path d="M280 157h18v26h-18zm19 0h11v26h-11z" fill="#30aa30" stroke="#185518"/>"     "     <path d="M280 184h24v26h-24zm25 0h4v25h-4zm-25 27h19v26h-19z" stroke="#185518" fill="#30ab30"/>"     "     "     <path d="M300 211h10v26h-10zm-20 27h6v26h-6zm7 0h23v26h-23z" fill="#30ac30" stroke="#185618"/>"     "     "     <path d="M280 265h14v26h-14zm15 0h15v26h-15z" stroke="#185618" fill="#30ad30"/>"     "     <path d="M280 292h15v26h-15zm16 0h14v26h-14zm-16 27h22v26h-22z" fill="#30ae30" stroke="#185718"/>"     "     "     <path d="M303 319h7v26h-7zm-23 27h18v26h-18zm19 0h11v25h-11z" stroke="#185718" fill="#30af30"/>"     "     "     <path d="M280 373h19v26h-19zm20 0h9v26h-9z" fill="#30b030" stroke="#185818"/>"     "     <path d="M280 400h21v26h-21zm22 0h8v26h-8zm-22 27h4v26h-4z" stroke="#185818" fill="#30b130"/>"     "     "     <path d="M285 427h25v26h-25zm-5 27h15v26h-15zm16 0h14v26h-14z" fill="#30b230" stroke="#185918"/>"     "     "     <path d="M280 481h25v26h-25zm26 0h4v26h-4z" stroke="#185918" fill="#30b330"/>"     "     <path d="M280 508h29v3h-29zM311 1h30v6h-30zm0 7h13v26h-13z" fill="#30b430" stroke="#185a18"/>"     "     "     <path d="M325 8h16v26h-16zm-14 27h16v26h-16zm17 0h13v26h-13z" stroke="#185a18" fill="#30b530"/>"     "     "     <path d="M311 62h16v26h-16zm17 0h13v26h-13z" fill="#30b630" stroke="#185b18"/>"     "     <path d="M311 89h7v26h-7zm8 0h22v26h-22zm-8 27h8v26h-8z" stroke="#185b18" fill="#30b730"/>"     "     "     <path d="M320 116h21v26h-21zm-9 27h3v26h-3zm4 0h26v25h-26z" fill="#30b830" stroke="#185c18"/>"     "     "     <path d="M311 170h7v26h-7zm8 0h22v26h-22z" stroke="#185c18" fill="#30b930"/>"     "     <path d="M311 197h9v26h-9zm10 0h20v25h-20zm-10 27h3v26h-3z" fill="#30ba30" stroke="#185d18"/>"     "     "     <path d="M315 224h25v25h-25zm-4 27h7v26h-7zm8 0h22v26h-22z" stroke="#185d18" fill="#30bb30"/>"     "     "     <path d="M311 278h9v26h-9zm10 0h19v25h-19z" fill="#30bc30" stroke="#185e18"/>"     "     <path d="M311 305h13v26h-13zm14 0h16v26h-16zm-14 27h3v26h-3z" stroke="#185e18" fill="#30bd30"/>"     "     "     <path d="M315 332h25v25h-25zm-4 27h7v26h-7zm8 0h22v26h-22z" fill="#30be30" stroke="#185f18"/>"     "     "     <path d="M311 386h9v26h-9zm10 0h20v25h-20z" stroke="#185f18" fill="#30bf30"/>"     "     <path d="M311 413h19v26h-19zm20 0h9v25h-9zm-20 27h25v26h-25z" fill="#30c030" stroke="#186018"/>"     "     "     <path d="M337 440h4v26h-4zm-26 27h15v25h-15zm16 0h14v25h-14z" stroke="#186018" fill="#30c130"/>"     "     "     <path d="M311 493h30v19h-30zM342 1h30v18h-30z" fill="#30c230" stroke="#186118"/>"     "     <path d="M342 20h14v25h-14zm15 0h15v25h-15zm-15 26h21v25h-21z" stroke="#186118" fill="#30c330"/>"     "     "     <path d="M364 46h8v25h-8zm-22 26h21v25h-21zm22 0h8v25h-8z" fill="#30c430" stroke="#186218"/>"     "     "     <path d="M342 98h29v25h-29zm0 26h24v25h-24z" stroke="#186218" fill="#30c530"/>"     "     <path d="M367 124h5v25h-5zm-25 26h12v25h-12zm13 0h17v25h-17z" fill="#30c630" stroke="#186318"/>"     "     "     <path d="M342 176h15v25h-15zm16 0h14v25h-14zm-16 26h5v25h-5z" stroke="#186318" fill="#30c730"/>"     "     "     <path d="M348 202h24v25h-24zm-6 26h3v25h-3z" fill="#30c830" stroke="#186418"/>"     "     <path d="M346 228h25v24h-25zm-4 26h12v25h-12zm13 0h17v25h-17z" stroke="#186418" fill="#30c930"/>"     "     "     <path d="M342 280h18v25h-18zm19 0h11v24h-11zm-19 26h13v25h-13z" fill="#30ca30" stroke="#186518"/>"     "     "     <path d="M356 306h16v25h-16zm-14 26h3v25h-3z" stroke="#186518" fill="#30cb30"/>"     "     <path d="M346 332h24v23h-24zm25 0h1v23h-1zm-25 24h23v1h-23z" fill="#30cc30" stroke="#186618"/>"     "     "     <path d="M370 356h1v1h-1zm-28 2h27v25h-27zm28 0h2v25h-2z" stroke="#186618" fill="#30cd30"/>"     "     "     <path d="M342 384h13v25h-13zm14 0h15v24h-15z" fill="#30ce30" stroke="#186718"/>"     "     <path d="M342 410h22v25h-22zm23 0h7v25h-7zm-23 26h7v25h-7z" stroke="#186718" fill="#30cf30"/>"     "     "     <path d="M350 436h22v25h-22zm-8 26h12v25h-12zm13 0h17v25h-17z" fill="#30d030" stroke="#186818"/>"     "     "     <path d="M342 488h29v24h-29zM373 1h30v15h-30z" stroke="#186818" fill="#30d130"/>"     "     <path d="M373 17h21v25h-21zm22 0h8v25h-8zm-22 26h14v25h-14z" fill="#30d230" stroke="#186918"/>"     "     "     <path d="M388 43h15v25h-15zm-15 26h13v25h-13zm14 0h15v24h-15z" stroke="#186918" fill="#30d330"/>"     "     "     <path d="M373 95h13v25h-13zm14-1h14v24h-14z" fill="#30d430" stroke="#186a18"/>"     "     <path d="M387 119h16v1h-16zm15-25h1v23h-1zm-29 27h18v25h-18z" stroke="#186a18" fill="#30d530"/>"     "     "     <path d="M392 121h10v24h-10zm-19 26h21v25h-21zm22 0h7v24h-7z" fill="#30d630" stroke="#186b18"/>"     "     "     <path d="M373 173h20v25h-20zm21 0h9v25h-9z" stroke="#186b18" fill="#30d730"/>"     "     <path d="M373 199h30v25h-30zm0 26h4v25h-4zm5 0h24v24h-24z" fill="#30d830" stroke="#186c18"/>"     "     "     <path d="M373 251h24v25h-24zm25 0h5v24h-5zm-25 26h7v25h-7z" stroke="#186c18" fill="#30d930"/>"     "     "     <path d="M381 277h22v25h-22zm-8 26h9v24h-9z" fill="#30da30" stroke="#186d18"/>"     "     <path d="M383 303h20v24h-20zm-10 25h12v24h-12zm13 0h17v24h-17z" stroke="#186d18" fill="#30db30"/>"     "     "     <path d="M373 353h2v24h-2zm3 0h26v23h-26zm-3 25h2v24h-2z" fill="#30dc30" stroke="#186e18"/>"     "     "     <path d="M376 377h24v22h-24zm25 0h2v22h-2z" stroke="#186e18" fill="#30dd30"/>"     "     <path d="M376 400h27v1h-27zm-3 3h22v24h-22zm23 0h7v24h-7z" fill="#30de30" stroke="#186f18"/>"     "     "     <path d="M373 428h13v24h-13zm14 0h15v23h-15zm-14 25h22v24h-22z" stroke="#186f18" fill="#30df30"/>"     "     "     <path d="M396 453h7v24h-7zm-23 25h20v24h-20z" fill="#30e030" stroke="#187018"/>"     "     <path d="M394 478h9v24h-9zm-21 25h29v8h-29zM404 1h30v13h-30z" stroke="#187018" fill="#30e130"/>"     "     "     <path d="M404 15h9v24h-9zm10 0h20v24h-20zm-10 25h3v24h-3z" fill="#30e230" stroke="#187118"/>"     "     "     <path d="M408 40h25v22h-25zm0 23h23v1h-23z" stroke="#187118" fill="#30e330"/>"     "     <path d="M404 65h7v24h-7zm8 0h21v23h-21zm-8 25h13v24h-13z" fill="#30e430" stroke="#187218"/>"     "     "     <path d="M418 90h15v24h-15zm-14 25h13v24h-13zm14 0h16v23h-16z" stroke="#187218" fill="#30e530"/>"     "     "     <path d="M404 140h8v24h-8zm9 0h20v23h-20z" fill="#30e630" stroke="#187318"/>"     "     <path d="M404 165h10v24h-10zm11 0h19v24h-19zm-11 25h2v24h-2z" stroke="#187318" fill="#30e730"/>"     "     "     <path d="M407 190h25v21h-25zm26 0h1v21h-1zm-26 22h27v1h-27z" fill="#30e830" stroke="#187418"/>"     "     "     <path d="M404 215h11v24h-11zm12 0h18v24h-18z" stroke="#187418" fill="#30e930"/>"     "     <path d="M404 240h24v24h-24zm25 0h5v24h-5zm-25 25h24v24h-24z" fill="#30ea30" stroke="#187518"/>"     "     "     <path d="M429 265h5v24h-5zm-25 25h3v24h-3zm4 0h24v23h-24z" stroke="#187518" fill="#30eb30"/>"     "     "     <path d="M433 290h1v22h-1zm-29 25h4v24h-4z" fill="#30ec30" stroke="#187618"/>"     "     <path d="M409 315h23v22h-23zm24-2h1v22h-1zm-24 25h22v1h-22z" stroke="#187618" fill="#30ed30"/>"     "     "     <path d="M404 340h10v24h-10zm11 0h19v24h-19zm-11 25h12v24h-12z" fill="#30ee30" stroke="#187718"/>"     "     "     <path d="M417 365h17v24h-17zm-13 25h19v24h-19z" stroke="#187718" fill="#30ef30"/>"     "     <path d="M424 390h10v24h-10zm-20 25h29v24h-29zm0 25h15v24h-15z" fill="#30f030" stroke="#187818"/>"     "     "     <path d="M420 440h14v24h-14zm-16 25h13v24h-13zm14 0h16v23h-16z" stroke="#187818" fill="#31f030"/>"     "     "     <path d="M404 490h29v22h-29zM435 1h30v5h-30z" fill="#32f030" stroke="#197818"/>"     "     <path d="M435 7h18v24h-18zm19 0h10v23h-10zm-19 25h19v24h-19z" stroke="#197818" fill="#33f030"/>"     "     "     <path d="M455 32h10v24h-10zm-20 25h9v24h-9zm10 0h20v24h-20z" fill="#34f030" stroke="#1a7818"/>"     "     "     <path d="M435 82h12v24h-12zm13 0h16v23h-16z" stroke="#1a7818" fill="#35f030"/>"     "     <path d="M435 107h5v23h-5zm6 0h23v22h-23zm-6 24h2v23h-2z" fill="#36f030" stroke="#1b7818"/>"     "     "     <path d="M438 131h25v21h-25zm26 0h1v21h-1zm-26 22h27v1h-27z" stroke="#1b7818" fill="#37f030"/>"     "     "     <path d="M435 155h14v23h-14zm15 0h15v23h-15z" fill="#38f030" stroke="#1c7818"/>"     "     <path d="M435 179h5v23h-5zm6 0h22v22h-22zm23 0h1v21h-1z" stroke="#1c7818" fill="#39f030"/>"     "     "     <path d="M435 203h14v23h-14zm15 0h15v23h-15zm-15 24h22v23h-22z" fill="#3af030" stroke="#1d7818"/>"     "     "     <path d="M458 227h7v23h-7zm-23 24h22v23h-22z" stroke="#1d7818" fill="#3bf030"/>"     "     <path d="M458 251h7v23h-7zm-23 24h11v23h-11zm12 0h18v23h-18z" fill="#3cf030" stroke="#1e7818"/>"     "     "     <path d="M435 299h8v23h-8zm9 0h21v23h-21zm-9 24h5v23h-5z" stroke="#1e7818" fill="#3df030"/>"     "     "     <path d="M441 323h22v22h-22zm23 0h1v20h-1z" fill="#3ef030" stroke="#1f7818"/>"     "     <path d="M435 347h8v23h-8zm9 0h21v23h-21zm-9 24h11v23h-11z" stroke="#1f7818" fill="#3ff030"/>"     "     "     <path d="M447 371h18v23h-18zm-12 24h14v23h-14zm15 0h15v22h-15z" fill="#40f030" stroke="#207818"/>"     "     "     <path d="M435 419h14v23h-14zm15-1h15v24h-15z" stroke="#207818" fill="#41f030"/>"     "     <path d="M435 443h20v23h-20zm21 0h9v23h-9zm-21 24h11v23h-11z" fill="#42f030" stroke="#217818"/>"     "     "     <path d="M447 467h18v23h-18zm-12 24h29v20h-29zM466 1h30v10h-30z" stroke="#217818" fill="#43f030"/>"     "     "     <path d="M466 12h2v23h-2zm3 0h25v20h-25z" fill="#44f030" stroke="#227818"/>"     "     <path d="M495 12h1v20h-1zm-26 21h27v1h-27zm-3 3h28v23h-28z" stroke="#227818" fill="#45f030"/>"     "     "     <path d="M495 36h1v19h-1zm0 20h1v3h-1zm-29 4h5v23h-5z" fill="#46f030" stroke="#237818"/>"     "     "     <path d="M472 60h22v22h-22zm23 0h1v19h-1z" stroke="#237818" fill="#47f030"/>"     "     <path d="M495 80h1v3h-1zm-29 4h5v23h-5zm6 0h22v21h-22z" fill="#48f030" stroke="#247818"/>"     "     "     <path d="M495 84h1v21h-1zm-23 22h22v1h-22zm-6 2h6v23h-6z" stroke="#247818" fill="#49f030"/>"     "     "     <path d="M473 108h22v22h-22zm-7 24h4v23h-4z" fill="#4af030" stroke="#257818"/>"     "     <path d="M471 132h23v21h-23zm24 0h1v19h-1zm-24 22h19v1h-19z" stroke="#257818" fill="#4bf030"/>"     "     "     <path d="M491 154h5v1h-5zm-25 2h11v23h-11zm12 0h18v22h-18z" fill="#4cf030" stroke="#267818"/>"     "     "     <path d="M466 180h3v23h-3zm4 0h25v20h-25z" stroke="#267818" fill="#4df030"/>"     "     <path d="M470 201h26v2h-26zm-4 3h6v23h-6zm7 0h22v22h-22z" fill="#4ef030" stroke="#277818"/>"     "     "     <path d="M466 228h2v23h-2zm3 0h27v20h-27zm0 21h26v2h-26z" stroke="#277818" fill="#4ff030"/>"     "     "     <path d="M466 252h10v23h-10zm11 0h19v23h-19z" fill="#50f030" stroke="#287818"/>"     "     <path d="M466 276h20v23h-20zm21 0h9v23h-9zm-21 24h5v23h-5z" stroke="#287818" fill="#51f030"/>"     "     "     <path d="M472 300h22v21h-22zm23 0h1v17h-1zm0 18h1v3h-1z" fill="#52f030" stroke="#297818"/>"     "     "     <path d="M472 322h19v1h-19zm20 0h4v1h-4z" stroke="#297818" fill="#53f030"/>"     "     <path d="M466 324h13v23h-13zm14 0h16v21h-16zm0 22h16v1h-16z" fill="#54f030" stroke="#2a7818"/>"     "     "     <path d="M466 348h21v22h-21zm22 0h8v22h-8zm-22 23h5v22h-5z" stroke="#2a7818" fill="#55f030"/>"     "     "     <path d="M472 371h22v20h-22zm23 0h1v17h-1z" fill="#56f030" stroke="#2b7818"/>"     "     <path d="M472 392h19v1h-19zm20 0h4v1h-4zm-26 2h5v22h-5z" stroke="#2b7818" fill="#57f030"/>"     "     "     <path d="M472 394h23v20h-23zm0 21h19v1h-19zm20 0h3v1h-3z" fill="#58f030" stroke="#2c7818"/>"     "     "     <path d="M466 417h17v22h-17zm18 0h12v22h-12z" stroke="#2c7818" fill="#59f030"/>"     "     <path d="M466 440h14v22h-14zm15 0h15v22h-15zm-15 23h18v22h-18z" fill="#5af030" stroke="#2d7818"/>"     "     "     <path d="M485 463h11v22h-11zm-19 23h29v22h-29zm0 23h29v3h-29z" stroke="#2d7818" fill="#5bf030"/>"     "     "     <path d="M497 1h30v18h-30zm0 19h19v22h-19z" fill="#5cf030" stroke="#2e7818"/>"     "     <path d="M517 20h10v22h-10zm-20 23h3v22h-3zm4 0h25v19h-25z" stroke="#2e7818" fill="#5df030"/>"     "     "     <path d="M501 63h24v2h-24zm-4 3h20v22h-20zm21 0h9v22h-9z" fill="#5ef030" stroke="#2f7818"/>"     "     "     <path d="M497 89h6v22h-6zm7 0h21v20h-21z" stroke="#2f7818" fill="#5ff030"/>"     "     <path d="M526 89h1v15h-1zm-22 21h18v1h-18zm-7 2h19v22h-19z" fill="#60f030" stroke="#307818"/>"     "     "     <path d="M517 112h10v22h-10zm-20 23h14v22h-14zm15 0h15v22h-15z" stroke="#307818" fill="#61f030"/>"     "     "     <path d="M497 158h20v22h-20zm21 0h8v21h-8z" fill="#62f030" stroke="#317818"/>"     "     <path d="M497 181h2v22h-2zm3 0h27v20h-27zm0 21h17v1h-17z" stroke="#317818" fill="#63f030"/>"     "     "     <path d="M518 202h6v1h-6zm-21 2h7v22h-7zm8 0h21v21h-21z" fill="#64f030" stroke="#327818"/>"     "     "     <path d="M497 227h12v22h-12zm13 0h17v22h-17z" stroke="#327818" fill="#65f030"/>"     "     <path d="M497 250h3v22h-3zm4 0h24v19h-24zm0 20h24v2h-24z" fill="#66f030" stroke="#337818"/>"     "     "     <path d="M526 250h1v15h-1zm0 16h1v6h-1zm-29 7h14v22h-14z" stroke="#337818" fill="#67f030"/>"     "     "     <path d="M512 273h15v21h-15zm-15 23h5v22h-5z" fill="#68f030" stroke="#347818"/>"     "     <path d="M503 296h21v20h-21zm22 0h2v21h-2zm-22 21h15v1h-15z" stroke="#347818" fill="#69f030"/>"     "     "     <path d="M519 317h5v1h-5zm-22 2h4v22h-4zm5 0h23v19h-23z" fill="#6af030" stroke="#357818"/>"     "     "     <path d="M502 339h23v2h-23zm24-20h1v15h-1z" stroke="#357818" fill="#6bf030"/>"     "     <path d="M526 335h1v5h-1zm-29 7h20v22h-20zm21 0h8v21h-8z" fill="#6cf030" stroke="#367818"/>"     "     "     <path d="M497 365h29v22h-29zm0 23h13v22h-13zm14 0h16v22h-16z" stroke="#367818" fill="#6df030"/>"     "     "     <path d="M497 411h20v22h-20zm21 0h9v21h-9z" fill="#6ef030" stroke="#377818"/>"     "     <path d="M497 434h7v22h-7zm8 0h21v21h-21zm-8 23h20v22h-20z" stroke="#377818" fill="#6ff030"/>"     "     "     <path d="M518 457h8v21h-8zm-21 23h19v21h-19zm20 0h10v21h-10z" fill="#70f030" stroke="#387818"/>"     "     "     <path d="M497 502h28v9h-28zm29 0h1v10h-1z" stroke="#387818" fill="#71f030"/>"     "     <path d="M528 1h19v21h-19zm20 0h30v7h-30zm0 8h30v13h-30z" fill="#72f030" stroke="#397818"/>"     "     "     <path d="M579 1h29v5h-29zm0 6h29v15h-29zm30-6h29v6h-29z" stroke="#397818" fill="#73f030"/>"     "     "     <path d="M609 8h29v14h-29zm30-7h29v11h-29z" fill="#74f030" stroke="#3a7818"/>"     "     <path d="M639 13h28v8h-28zm30-12h29v19h-29zm0 20h15v1h-15z" stroke="#3a7818" fill="#75f030"/>"     "     "     <path d="M685 21h13v1h-13zm14-20h29v13h-29zm0 14h28v7h-28z" fill="#76f030" stroke="#3b7818"/>"     "     "     <path d="M729 1h29v21h-29zm30 0h29v5h-29z" stroke="#3b7818" fill="#77f030"/>"     "     <path d="M759 7h29v15h-29zm30-6h29v5h-29zm0 6h29v15h-29z" fill="#78f030" stroke="#3c7818"/>"     "     "     <path d="M819 1h29v16h-29zm0 17h29v4h-29zm30-17h29v11h-29z" stroke="#3c7818" fill="#79f030"/>"     "     "     <path d="M849 13h28v8h-28zm30-12h29v11h-29z" fill="#7af030" stroke="#3d7818"/>"     "     <path d="M879 13h28v8h-28zm30-12h29v4h-29zm0 5h28v16h-28z" stroke="#3d7818" fill="#7bf030"/>"     "     "     <path d="M939 1h29v11h-29zm0 12h27v8h-27zm28 0h1v8h-1z" fill="#7cf030" stroke="#3e7818"/>"     "     "     <path d="M969 1h29v20h-29zm30 0h25v19h-25z" stroke="#3e7818" fill="#7df030"/>"     "     <path d="M999 21h14v1h-14zm15 0h10v1h-10zm-486 2h28v21h-28z" fill="#7ef030" stroke="#3f7818"/>"     "     "     <path d="M557 23h28v12h-28zm0 13h27v7h-27zm29-13h28v3h-28z" stroke="#3f7818" fill="#7ff030"/>"     "     "     <path d="M586 27h28v17h-28zm29-4h28v5h-28z" fill="#80f030" stroke="#407818"/>"     "     <path d="M615 29h27v15h-27zm29-6h28v18h-28zm0 19h28v2h-28z" stroke="#407818" fill="#81f030"/>"     "     "     <path d="M673 23h28v17h-28zm0 18h28v3h-28zm29-18h28v21h-28z" fill="#82f030" stroke="#417818"/>"     "     "     <path d="M731 23h28v17h-28zm0 18h27v3h-27z" stroke="#417818" fill="#83f030"/>"     "     <path d="M760 23h28v20h-28zm29 0h28v18h-28zm0 19h28v2h-28z" fill="#84f030" stroke="#427818"/>"     "     "     <path d="M818 23h28v7h-28zm0 8h27v13h-27zm29-8h28v21h-28z" stroke="#427818" fill="#85f030"/>"     "     "     <path d="M876 23h28v5h-28zm0 6h27v13h-27z" fill="#86f030" stroke="#437818"/>"     "     <path d="M876 43h13v1h-13zm14 0h14v1h-14zm15-20h28v5h-28z" stroke="#437818" fill="#87f030"/>"     "     "     <path d="M905 29h26v13h-26zm27 0h1v13h-1zm-27 14h12v1h-12z" fill="#88f030" stroke="#447818"/>"     "     "     <path d="M918 43h15v1h-15zm16-20h28v5h-28z" stroke="#447818" fill="#89f030"/>"     "     <path d="M934 29h26v14h-26zm27 0h1v15h-1zm2-6h27v6h-27z" fill="#8af030" stroke="#457818"/>"     "     "     <path d="M963 30h25v12h-25zm26 0h1v12h-1zm2-7h27v16h-27z" stroke="#457818" fill="#8bf030"/>"     "     "     <path d="M1019 23h5v21h-5zm-28 17h27v3h-27z" fill="#8cf030" stroke="#467818"/>"     "     <path d="M963 43h12v1h-12zm13 0h14v1h-14zm-448 2h27v17h-27z" stroke="#467818" fill="#8df030"/>"     "     "     <path d="M528 63h18v21h-18zm19 0h8v21h-8zm-19 22h6v21h-6z" fill="#8ef030" stroke="#477818"/>"     "     "     <path d="M535 85h20v21h-20zm-7 22h16v21h-16z" stroke="#477818" fill="#8ff030"/>"     "     <path d="M545 107h10v21h-10zm-17 22h11v21h-11zm12 0h15v21h-15z" fill="#90f030" stroke="#487818"/>"     "     "     <path d="M528 151h8v21h-8zm9 0h18v21h-18zm-9 22h19v21h-19z" stroke="#487818" fill="#91f030"/>"     "     "     <path d="M548 173h7v21h-7zm-20 22h11v21h-11z" fill="#92f030" stroke="#497818"/>"     "     <path d="M540 195h15v21h-15zm-12 22h18v21h-18zm19 0h8v20h-8z" stroke="#497818" fill="#93f030"/>"     "     "     <path d="M528 239h2v21h-2zm3 0h22v19h-22zm23 0h1v14h-1z" fill="#94f030" stroke="#4a7818"/>"     "     "     <path d="M531 259h12v1h-12zm13 0h11v1h-11z" stroke="#4a7818" fill="#95f030"/>"     "     <path d="M528 261h14v21h-14zm15 0h12v21h-12zm-15 22h20v21h-20z" fill="#96f030" stroke="#4b7818"/>"     "     "     <path d="M549 283h6v21h-6zm-21 22h10v21h-10zm11 0h16v21h-16z" stroke="#4b7818" fill="#97f030"/>"     "     "     <path d="M528 327h11v21h-11zm12 0h15v21h-15z" fill="#98f030" stroke="#4c7818"/>"     "     <path d="M528 349h18v21h-18zm19 0h7v21h-7zm-19 22h12v21h-12z" stroke="#4c7818" fill="#99f030"/>"     "     "     <path d="M541 371h14v21h-14zm-13 22h11v21h-11zm12 0h15v21h-15z" fill="#9af030" stroke="#4d7818"/>"     "     "     <path d="M528 415h2v21h-2zm3 0h23v19h-23z" stroke="#4d7818" fill="#9bf030"/>"     "     <path d="M531 435h12v1h-12zm13 0h11v1h-11zm-16 2h14v21h-14z" fill="#9cf030" stroke="#4e7818"/>"     "     "     <path d="M543 437h12v21h-12zm-15 22h10v21h-10zm11 0h16v21h-16z" stroke="#4e7818" fill="#9df030"/>"     "     "     <path d="M528 481h17v21h-17zm18 0h9v21h-9z" fill="#9ef030" stroke="#4f7818"/>"     "     <path d="M528 503h27v8h-27zm28-458h20v19h-20zm21 0h27v11h-27z" stroke="#4f7818" fill="#9ff030"/>"     "     "     <path d="M577 57h26v6h-26zm28-12h27v18h-27zm28 0h27v18h-27z" fill="#a0f030" stroke="#507818"/>"     "     "     <path d="M661 45h27v18h-27zm28 0h27v6h-27z" stroke="#507818" fill="#a1f030"/>"     "     <path d="M689 52h26v12h-26zm28-7h27v16h-27zm0 17h21v2h-21z" fill="#a2f030" stroke="#517818"/>"     "     "     <path d="M739 62h5v2h-5zm6-17h27v6h-27zm0 7h25v10h-25z" stroke="#517818" fill="#a3f030"/>"     "     "     <path d="M771 52h1v7h-1zm-26 11h12v1h-12z" fill="#a4f030" stroke="#527818"/>"     "     <path d="M758 63h14v1h-14zm15-18h26v7h-26zm0 8h25v10h-25z" stroke="#527818" fill="#a5f030"/>"     "     "     <path d="M800 45h26v18h-26zm27 0h26v15h-26zm0 16h25v3h-25z" fill="#a6f030" stroke="#537818"/>"     "     "     <path d="M854 45h26v7h-26zm0 8h24v10h-24z" stroke="#537818" fill="#a7f030"/>"     "     <path d="M879 53h1v11h-1zm2-8h26v6h-26zm0 7h25v12h-25z" fill="#a8f030" stroke="#547818"/>"     "     "     <path d="M908 45h26v7h-26zm0 8h24v10h-24zm25 0h1v7h-1z" stroke="#547818" fill="#a9f030"/>"     "     "     <path d="M935 45h26v19h-26zm27 0h26v7h-26z" fill="#aaf030" stroke="#557818"/>"     "     <path d="M962 53h26v9h-26zm27-8h25v15h-25zm0 16h25v3h-25z" stroke="#557818" fill="#abf030"/>"     "     "     <path d="M1015 45h8v19h-8zm-53 18h12v1h-12zm13 0h12v1h-12z" fill="#acf030" stroke="#567818"/>"     "     "     <path d="M556 65h26v6h-26zm0 7h3v21h-3z" stroke="#567818" fill="#adf030"/>"     "     <path d="M560 72h20v19h-20zm21 0h1v12h-1zm-21 20h7v1h-7z" fill="#aef030" stroke="#577818"/>"     "     "     <path d="M556 94h13v21h-13zm14 0h12v21h-12zm-14 22h7v21h-7z" stroke="#577818" fill="#aff030"/>"     "     "     <path d="M564 116h18v21h-18zm-8 22h11v21h-11z" fill="#b0f030" stroke="#587818"/>"     "     <path d="M568 138h14v20h-14zm-12 22h15v20h-15zm16 0h10v20h-10z" stroke="#587818" fill="#b1f030"/>"     "     "     <path d="M556 181h12v20h-12zm13 0h13v20h-13zm-13 21h16v20h-16z" fill="#b2f030" stroke="#597818"/>"     "     "     <path d="M573 202h9v20h-9zm-17 21h12v20h-12z" stroke="#597818" fill="#b3f030"/>"     "     <path d="M569 223h13v20h-13zm-13 21h2v20h-2zm3 0h22v18h-22z" fill="#b4f030" stroke="#5a7818"/>"     "     "     <path d="M556 265h3v20h-3zm4 0h20v20h-20zm-4 21h2v20h-2z" stroke="#5a7818" fill="#b5f030"/>"     "     "     <path d="M559 286h21v18h-21zm-3 21h9v20h-9z" fill="#b6f030" stroke="#5b7818"/>"     "     <path d="M566 307h16v20h-16zm-10 21h17v20h-17zm18 0h8v20h-8z" stroke="#5b7818" fill="#b7f030"/>"     "     "     <path d="M556 349h6v20h-6zm7 0h19v20h-19zm-7 21h18v20h-18z" fill="#b8f030" stroke="#5c7818"/>"     "     "     <path d="M575 370h7v20h-7zm-19 21h5v20h-5z" stroke="#5c7818" fill="#b9f030"/>"     "     <path d="M562 391h20v20h-20zm-6 21h9v20h-9zm10 0h16v20h-16z" fill="#baf030" stroke="#5d7818"/>"     "     "     <path d="M556 433h3v20h-3zm4 0h19v17h-19zm20 0h2v17h-2z" stroke="#5d7818" fill="#bbf030"/>"     "     "     <path d="M560 451h21v2h-21zm-4 3h11v20h-11z" fill="#bcf030" stroke="#5e7818"/>"     "     <path d="M568 454h14v20h-14zm-12 21h10v20h-10zm11 0h15v20h-15z" stroke="#5e7818" fill="#bdf030"/>"     "     "     <path d="M556 496h24v14h-24zm27-431h19v20h-19zm20 0h25v3h-25z" fill="#bef030" stroke="#5f7818"/>"     "     "     <path d="M603 69h23v14h-23zm26-4h25v6h-25z" stroke="#5f7818" fill="#bff030"/>"     "     <path d="M629 72h24v12h-24zm26-7h25v7h-25zm0 8h24v12h-24z" fill="#c0f030" stroke="#607818"/>"     "     "     <path d="M681 65h25v7h-25zm-1 8h24v10h-24zm27-8h25v6h-25z" stroke="#607818" fill="#c1f030"/>"     "     "     <path d="M707 72h23v12h-23zm26-7h25v6h-25z" fill="#c2f030" stroke="#617818"/>"     "     <path d="M731 72h23v10h-23zm24 0h3v13h-3zm-24 11h21v2h-21z" stroke="#617818" fill="#c3f030"/>"     "     "     <path d="M759 65h25v7h-25zm0 8h23v11h-23zm26-8h25v7h-25z" fill="#c4f030" stroke="#627818"/>"     "     "     <path d="M783 73h23v8h-23zm24 0h3v8h-3z" stroke="#627818" fill="#c5f030"/>"     "     <path d="M783 82h24v3h-24zm25 0h2v3h-2zm3-17h24v4h-24z" fill="#c6f030" stroke="#637818"/>"     "     "     <path d="M811 70h23v14h-23zm25-5h24v6h-24zm0 7h23v12h-23z" stroke="#637818" fill="#c7f030"/>"     "     "     <path d="M861 65h24v6h-24zm0 7h22v12h-22z" fill="#c8f030" stroke="#647818"/>"     "     <path d="M886 65h24v8h-24zm0 9h23v11h-23zm25-9h24v8h-24z" stroke="#647818" fill="#c9f030"/>"     "     "     <path d="M910 74h22v8h-22zm23 0h2v8h-2zm-23 9h21v2h-21z" fill="#caf030" stroke="#657818"/>"     "     "     <path d="M932 83h3v2h-3zm4-18h24v8h-24z" stroke="#657818" fill="#cbf030"/>"     "     <path d="M936 74h22v11h-22zm25-9h24v6h-24zm0 7h22v13h-22z" fill="#ccf030" stroke="#667818"/>"     "     "     <path d="M986 65h24v7h-24zm25 0h13v19h-13zm-25 8h22v12h-22z" stroke="#667818" fill="#cdf030"/>"     "     "     <path d="M583 86h24v14h-24zm0 15h9v20h-9z" fill="#cef030" stroke="#677818"/>"     "     <path d="M593 101h13v19h-13zm-10 21h11v20h-11zm12 0h12v20h-12z" stroke="#677818" fill="#cff030"/>"     "     "     <path d="M583 143h8v20h-8zm9 0h15v20h-15zm-9 21h5v20h-5z" fill="#d0f030" stroke="#687818"/>"     "     "     <path d="M589 164h18v19h-18zm-6 21h19v19h-19z" stroke="#687818" fill="#d1f030"/>"     "     <path d="M603 185h4v19h-4zm-20 20h3v19h-3zm4 0h19v18h-19z" fill="#d2f030" stroke="#697818"/>"     "     "     <path d="M583 225h6v19h-6zm7 0h17v19h-17zm-7 20h5v19h-5z" stroke="#697818" fill="#d3f030"/>"     "     "     <path d="M589 245h18v19h-18zm-6 20h6v19h-6z" fill="#d4f030" stroke="#6a7818"/>"     "     <path d="M590 265h17v19h-17zm-7 20h15v19h-15zm16 0h7v18h-7z" stroke="#6a7818" fill="#d5f030"/>"     "     "     <path d="M583 305h11v19h-11zm12 0h12v19h-12zm-12 20h15v19h-15z" fill="#d6f030" stroke="#6b7818"/>"     "     "     <path d="M599 325h7v18h-7zm-16 20h16v19h-16z" stroke="#6b7818" fill="#d7f030"/>"     "     <path d="M600 345h7v19h-7zm-17 20h7v19h-7zm8 0h16v19h-16z" fill="#d8f030" stroke="#6c7818"/>"     "     "     <path d="M583 385h19v19h-19zm20 0h4v19h-4zm-20 20h10v19h-10z" stroke="#6c7818" fill="#d9f030"/>"     "     "     <path d="M594 405h13v19h-13zm-11 20h2v19h-2z" fill="#daf030" stroke="#6d7818"/>"     "     <path d="M586 425h21v17h-21zm-3 20h5v19h-5zm6 0h18v18h-18z" stroke="#6d7818" fill="#dbf030"/>"     "     "     <path d="M583 465h11v19h-11zm12 0h11v18h-11zm-12 20h18v18h-18z" fill="#dcf030" stroke="#6e7818"/>"     "     "     <path d="M602 485h5v18h-5zm-19 19h24v8h-24z" stroke="#6e7818" fill="#ddf030"/>"     "     <path d="M608 86h13v19h-13zm14 0h24v8h-24zm0 9h23v8h-23z" fill="#def030" stroke="#6f7818"/>"     "     "     <path d="M647 86h24v14h-24zm0 15h23v3h-23zm25-15h23v14h-23z" stroke="#6f7818" fill="#dff030"/>"     "     "     <path d="M672 101h23v4h-23zm24-15h23v3h-23z" fill="#e0f030" stroke="#707818"/>"     "     <path d="M696 90h22v14h-22zm24-4h23v5h-23zm0 6h21v11h-21z" stroke="#707818" fill="#e1f030"/>"     "     "     <path d="M744 86h23v5h-23zm0 6h21v13h-21zm24-6h23v7h-23z" fill="#e2f030" stroke="#717818"/>"     "     "     <path d="M768 94h22v11h-22zm24-8h23v8h-23z" stroke="#717818" fill="#e3f030"/>"     "     <path d="M792 95h21v9h-21zm24-9h23v8h-23zm-2 9h22v7h-22z" fill="#e4f030" stroke="#727818"/>"     "     "     <path d="M837 95h2v7h-2zm-23 8h20v2h-20zm21 0h3v2h-3z" stroke="#727818" fill="#e5f030"/>"     "     "     <path d="M840 86h23v7h-23zm0 8h21v11h-21z" fill="#e6f030" stroke="#737818"/>"     "     <path d="M864 86h22v4h-22zm0 5h22v14h-22zm23-5h22v5h-22z" stroke="#737818" fill="#e7f030"/>"     "     "     <path d="M887 92h20v12h-20zm23-6h22v4h-22zm0 5h22v14h-22z" fill="#e8f030" stroke="#747818"/>"     "     "     <path d="M933 86h22v16h-22zm0 17h19v2h-19z" stroke="#747818" fill="#e9f030"/>"     "     <path d="M953 103h2v2h-2zm3-17h22v17h-22zm23 0h22v3h-22z" fill="#eaf030" stroke="#757818"/>"     "     "     <path d="M1002 86h22v17h-22zm-23 4h20v15h-20zm-371 16h22v16h-22z" stroke="#757818" fill="#ebf030"/>"     "     "     <path d="M608 123h3v19h-3zm4 0h17v18h-17z" fill="#ecf030" stroke="#767818"/>"     "     <path d="M608 143h8v18h-8zm9 0h13v18h-13zm-9 19h6v18h-6z" stroke="#767818" fill="#edf030"/>"     "     "     <path d="M615 162h15v18h-15zm-7 19h3v18h-3zm4 0h18v17h-18z" fill="#eef030" stroke="#777818"/>"     "     "     <path d="M608 200h3v18h-3zm4-1h17v18h-17z" stroke="#777818" fill="#eff030"/>"     "     <path d="M608 219h2v18h-2zm3 0h18v17h-18zm-3 19h11v18h-11z" fill="#f0f030" stroke="#787818"/>"     "     "     <path d="M620 238h10v18h-10zm-12 19h11v18h-11zm12 0h10v18h-10z" stroke="#787818" fill="#f0f031"/>"     "     "     <path d="M608 276h6v18h-6zm7 0h15v18h-15z" fill="#f0f032" stroke="#787819"/>"     "     <path d="M608 295h4v18h-4zm5 0h17v18h-17zm-5 19h11v18h-11z" stroke="#787819" fill="#f0f033"/>"     "     "     <path d="M620 314h10v18h-10zm-12 19h7v18h-7zm8 0h14v18h-14z" fill="#f0f034" stroke="#78781a"/>"     "     "     <path d="M608 352h10v18h-10zm11 0h11v18h-11z" stroke="#78781a" fill="#f0f035"/>"     "     <path d="M608 371h13v18h-13zm14 0h8v18h-8zm-14 19h6v18h-6z" fill="#f0f036" stroke="#78781b"/>"     "     "     <path d="M615 390h15v18h-15zm-7 19h7v18h-7zm8 0h14v18h-14z" stroke="#78781b" fill="#f0f037"/>"     "     "     <path d="M608 428h9v18h-9zm10 0h12v18h-12z" fill="#f0f038" stroke="#78781c"/>"     "     <path d="M608 447h16v18h-16zm17 0h4v17h-4zm-17 19h12v18h-12z" stroke="#78781c" fill="#f0f039"/>"     "     "     <path d="M621 466h8v17h-8zm-13 19h13v18h-13zm14 0h8v17h-8z" fill="#f0f03a" stroke="#78781d"/>"     "     "     <path d="M608 504h22v7h-22zm23-398h14v18h-14z" stroke="#78781d" fill="#f0f03b"/>"     "     <path d="M646 106h22v4h-22zm0 5h20v11h-20zm23-5h22v4h-22z" fill="#f0f03c" stroke="#78781e"/>"     "     "     <path d="M669 111h20v11h-20zm23-5h22v6h-22zm0 7h20v9h-20z" stroke="#78781e" fill="#f0f03d"/>"     "     "     <path d="M715 106h22v5h-22zm0 6h19v11h-19z" fill="#f0f03e" stroke="#78781f"/>"     "     <path d="M735 112h2v12h-2zm3-6h22v7h-22zm0 8h20v9h-20z" stroke="#78781f" fill="#f0f03f"/>"     "     "     <path d="M761 106h22v4h-22zm0 5h19v13h-19zm20 0h2v13h-2z" fill="#f0f040" stroke="#787820"/>"     "     "     <path d="M784 106h22v6h-22zm0 7h20v9h-20z" stroke="#787820" fill="#f0f041"/>"     "     <path d="M807 106h22v5h-22zm0 6h19v10h-19zm20 0h2v12h-2z" fill="#f0f042" stroke="#787821"/>"     "     "     <path d="M830 106h22v4h-22zm0 5h19v11h-19zm20 0h2v13h-2z" stroke="#787821" fill="#f0f043"/>"     "     "     <path d="M853 106h21v3h-21zm0 4h19v14h-19z" fill="#f0f044" stroke="#787822"/>"     "     <path d="M875 106h21v5h-21zm0 6h19v11h-19zm22-6h21v5h-21z" stroke="#787822" fill="#f0f045"/>"     "     "     <path d="M895 112h20v8h-20zm21 0h2v8h-2zm-21 9h20v3h-20z" fill="#f0f046" stroke="#787823"/>"     "     "     <path d="M916 121h2v2h-2zm3-15h21v17h-21z" stroke="#787823" fill="#f0f047"/>"     "     <path d="M941 106h21v17h-21zm22 0h21v4h-21zm0 5h19v11h-19z" fill="#f0f048" stroke="#787824"/>"     "     "     <path d="M985 106h20v6h-20zm21 0h17v17h-17zm-21 7h19v10h-19z" stroke="#787824" fill="#f0f049"/>"     "     "     <path d="M631 125h20v16h-20zm0 17h3v18h-3z" fill="#f0f04a" stroke="#787825"/>"     "     <path d="M635 142h16v18h-16zm-4 19h4v18h-4zm5 0h15v17h-15z" stroke="#787825" fill="#f0f04b"/>"     "     "     <path d="M631 180h17v18h-17zm18 0h2v18h-2zm-18 19h9v17h-9z" fill="#f0f04c" stroke="#787826"/>"     "     "     <path d="M641 199h10v17h-10zm-10 18h4v17h-4z" stroke="#787826" fill="#f0f04d"/>"     "     <path d="M636 217h15v17h-15zm-5 18h16v17h-16zm17 0h3v17h-3z" fill="#f0f04e" stroke="#787827"/>"     "     "     <path d="M631 253h12v17h-12zm13 0h7v17h-7zm-13 18h14v17h-14z" stroke="#787827" fill="#f0f04f"/>"     "     "     <path d="M646 271h4v17h-4zm-15 18h12v17h-12z" fill="#f0f050" stroke="#787828"/>"     "     <path d="M644 289h7v17h-7zm-13 18h11v17h-11zm12 0h8v17h-8z" stroke="#787828" fill="#f0f051"/>"     "     "     <path d="M631 325h14v17h-14zm15 0h5v16h-5zm-15 18h13v17h-13z" fill="#f0f052" stroke="#787829"/>"     "     "     <path d="M645 343h6v17h-6zm-14 18h16v17h-16z" stroke="#787829" fill="#f0f053"/>"     "     <path d="M648 361h3v17h-3zm-17 18h14v17h-14zm15 0h5v16h-5z" fill="#f0f054" stroke="#78782a"/>"     "     "     <path d="M631 397h14v17h-14zm15-1h3v16h-3zm-15 19h8v17h-8z" stroke="#78782a" fill="#f0f055"/>"     "     "     <path d="M640 415h11v17h-11zm-9 18h3v17h-3z" fill="#f0f056" stroke="#78782b"/>"     "     <path d="M635 433h16v17h-16zm-4 18h20v17h-20zm0 18h12v17h-12z" stroke="#78782b" fill="#f0f057"/>"     "     "     <path d="M644 469h7v16h-7zm-13 18h12v17h-12zm13-1h7v18h-7z" fill="#f0f058" stroke="#78782c"/>"     "     "     <path d="M631 505h20v7h-20zm21-380h8v17h-8z" stroke="#78782c" fill="#f0f059"/>"     "     <path d="M661 125h20v3h-20zm0 4h18v11h-18zm21-4h20v6h-20z" fill="#f0f05a" stroke="#78782d"/>"     "     "     <path d="M682 132h17v9h-17zm18 0h2v10h-2zm3-7h20v3h-20z" stroke="#78782d" fill="#f0f05b"/>"     "     "     <path d="M703 129h18v12h-18zm21-4h20v6h-20z" fill="#f0f05c" stroke="#78782e"/>"     "     <path d="M724 132h17v8h-17zm18 0h2v10h-2zm3-7h20v5h-20z" stroke="#78782e" fill="#f0f05d"/>"     "     "     <path d="M745 131h17v8h-17zm18 0h2v7h-2zm-18 9h19v2h-19z" fill="#f0f05e" stroke="#78782f"/>"     "     "     <path d="M766 125h19v15h-19zm20 0h19v6h-19z" stroke="#78782f" fill="#f0f05f"/>"     "     <path d="M786 132h17v8h-17zm20-7h19v2h-19zm0 3h17v12h-17z" fill="#f0f060" stroke="#787830"/>"     "     "     <path d="M826 125h19v7h-19zm0 8h19v7h-19zm20-8h19v2h-19z" stroke="#787830" fill="#f0f061"/>"     "     "     <path d="M846 128h17v13h-17zm20-3h19v5h-19z" fill="#f0f062" stroke="#787831"/>"     "     <path d="M866 131h17v11h-17zm20-6h19v2h-19zm0 3h18v12h-18z" stroke="#787831" fill="#f0f063"/>"     "     "     <path d="M906 125h18v3h-18zm0 4h16v12h-16zm19-4h18v2h-18z" fill="#f0f064" stroke="#787832"/>"     "     "     <path d="M925 128h16v12h-16zm19-3h18v6h-18z" stroke="#787832" fill="#f0f065"/>"     "     <path d="M944 132h16v8h-16zm19-7h18v3h-18zm0 4h16v13h-16z" fill="#f0f066" stroke="#787833"/>"     "     "     <path d="M982 125h18v2h-18zm0 3h16v14h-16zm19-3h18v16h-18z" stroke="#787833" fill="#f0f067"/>"     "     "     <path d="M1020 125h2v15h-2zm-368 18h17v17h-17z" fill="#f0f068" stroke="#787834"/>"     "     <path d="M652 161h16v17h-16zm0 18h14v17h-14zm15 0h2v15h-2z" stroke="#787834" fill="#f0f069"/>"     "     "     <path d="M652 197h13v17h-13zm14 0h3v17h-3zm-14 18h12v17h-12z" fill="#f0f06a" stroke="#787835"/>"     "     "     <path d="M665 215h3v15h-3zm-13 18h14v17h-14z" stroke="#787835" fill="#f0f06b"/>"     "     <path d="M667 233h2v14h-2zm-15 18h16v17h-16zm0 18h9v17h-9z" fill="#f0f06c" stroke="#787836"/>"     "     "     <path d="M662 269h7v16h-7zm-10 18h8v17h-8zm9 0h8v15h-8z" stroke="#787836" fill="#f0f06d"/>"     "     "     <path d="M652 305h17v17h-17zm0 18h9v17h-9z" fill="#f0f06e" stroke="#787837"/>"     "     <path d="M662 323h7v15h-7zm-10 18h9v16h-9zm10-2h5v15h-5z" stroke="#787837" fill="#f0f06f"/>"     "     "     <path d="M662 355h7v2h-7zm-10 3h13v16h-13zm14 0h3v15h-3z" fill="#f0f070" stroke="#787838"/>"     "     "     <path d="M652 375h15v16h-15zm0 17h11v16h-11z" stroke="#787838" fill="#f0f071"/>"     "     <path d="M664 392h5v16h-5zm-12 17h13v16h-13zm14 0h3v14h-3z" fill="#f0f072" stroke="#787839"/>"     "     "     <path d="M652 426h11v16h-11zm12 0h5v15h-5zm-12 17h10v16h-10z" stroke="#787839" fill="#f0f073"/>"     "     "     <path d="M663 443h6v16h-6zm-11 17h15v16h-15z" fill="#f0f074" stroke="#78783a"/>"     "     <path d="M652 477h12v16h-12zm13 0h4v16h-4zm-13 17h16v16h-16z" stroke="#78783a" fill="#f0f075"/>"     "     "     <path d="M670 143h10v16h-10zm11 0h18v3h-18zm0 4h16v10h-16z" fill="#f0f076" stroke="#78783b"/>"     "     "     <path d="M700 143h18v2h-18zm0 3h16v13h-16z" stroke="#78783b" fill="#f0f077"/>"     "     <path d="M719 143h16v9h-16zm0 10h16v6h-16zm17-10h16v7h-16z" fill="#f0f078" stroke="#78783c"/>"     "     "     <path d="M736 151h16v8h-16zm17-8h16v2h-16zm0 3h16v13h-16z" stroke="#78783c" fill="#f0f079"/>"     "     "     <path d="M770 143h16v8h-16zm0 9h16v7h-16z" fill="#f0f07a" stroke="#78783d"/>"     "     <path d="M787 143h16v9h-16zm0 10h16v6h-16zm17-10h16v8h-16z" stroke="#78783d" fill="#f0f07b"/>"     "     "     <path d="M804 152h16v7h-16zm17-9h16v8h-16zm0 9h15v6h-15z" fill="#f0f07c" stroke="#78783e"/>"     "     "     <path d="M838 143h16v8h-16zm0 9h15v7h-15z" stroke="#78783e" fill="#f0f07d"/>"     "     <path d="M855 143h16v8h-16zm-1 9h15v5h-15zm18-9h16v9h-16z" fill="#f0f07e" stroke="#78783f"/>"     "     "     <path d="M872 153h15v5h-15zm17-10h16v4h-16zm0 5h16v11h-16z" stroke="#78783f" fill="#f0f07f"/>"     "     "     <path d="M906 143h16v4h-16zm0 5h16v11h-16z" fill="#f0f080" stroke="#787840"/>"     "     <path d="M923 143h16v13h-16zm0 14h15v2h-15zm17-14h16v12h-16z" stroke="#787840" fill="#f0f081"/>"     "     "     <path d="M940 156h15v3h-15zm17-13h16v10h-16zm0 11h15v4h-15z" fill="#f0f082" stroke="#787841"/>"     "     "     <path d="M974 143h16v12h-16zm0 13h14v2h-14z" stroke="#787841" fill="#f0f083"/>"     "     <path d="M991 143h16v14h-16zm17 0h15v16h-15zm-338 17h15v15h-15z" fill="#f0f084" stroke="#787842"/>"     "     "     <path d="M670 176h12v16h-12zm13 0h2v14h-2zm-13 17h10v16h-10z" stroke="#787842" fill="#f0f085"/>"     "     "     <path d="M681 193h3v14h-3zm-11 17h14v16h-14z" fill="#f0f086" stroke="#787843"/>"     "     <path d="M670 227h14v16h-14zm0 17h11v16h-11zm12 0h3v13h-3z" stroke="#787843" fill="#f0f087"/>"     "     "     <path d="M670 261h9v16h-9zm10 0h5v15h-5zm-10 17h6v15h-6z" fill="#f0f088" stroke="#787844"/>"     "     "     <path d="M677 278h8v15h-8zm-7 16h13v15h-13z" stroke="#787844" fill="#f0f089"/>"     "     <path d="M670 310h9v15h-9zm10 0h5v15h-5zm-10 16h9v15h-9z" fill="#f0f08a" stroke="#787845"/>"     "     "     <path d="M680 326h5v15h-5zm-10 16h10v15h-10zm11 0h4v15h-4z" stroke="#787845" fill="#f0f08b"/>"     "     "     <path d="M670 358h14v15h-14zm0 16h10v15h-10z" fill="#f0f08c" stroke="#787846"/>"     "     <path d="M681 374h4v14h-4zm-11 16h10v15h-10zm11-1h3v13h-3z" stroke="#787846" fill="#f0f08d"/>"     "     "     <path d="M670 406h9v15h-9zm10 0h5v14h-5zm-10 16h11v15h-11z" fill="#f0f08e" stroke="#787847"/>"     "     "     <path d="M682 422h3v13h-3zm-12 16h14v15h-14z" stroke="#787847" fill="#f0f08f"/>"     "     <path d="M670 454h14v15h-14zm0 16h14v15h-14zm0 16h9v15h-9z" fill="#f0f090" stroke="#787848"/>"     "     "     <path d="M670 502h15v10h-15zm10-16h5v14h-5zm6-326h11v15h-11z" stroke="#787848" fill="#f0f091"/>"     "     "     <path d="M698 160h15v14h-15zm16 0h15v15h-15z" fill="#f0f092" stroke="#787849"/>"     "     <path d="M730 160h15v10h-15zm0 11h14v3h-14zm16-11h15v10h-15z" stroke="#787849" fill="#f0f093"/>"     "     "     <path d="M746 171h14v4h-14zm16-11h15v11h-15zm0 12h14v2h-14z" fill="#f0f094" stroke="#78784a"/>"     "     "     <path d="M778 160h15v12h-15zm0 13h13v2h-13z" stroke="#78784a" fill="#f0f095"/>"     "     <path d="M794 160h15v11h-15zm0 12h13v3h-13zm16-12h15v14h-15z" fill="#f0f096" stroke="#78784b"/>"     "     "     <path d="M826 160h14v10h-14zm0 11h13v4h-13zm15-11h14v12h-14z" stroke="#78784b" fill="#f0f097"/>"     "     "     <path d="M841 173h13v2h-13zm15-13h14v14h-14z" fill="#f0f098" stroke="#78784c"/>"     "     <path d="M871 160h14v11h-14zm0 12h13v3h-13zm15-12h14v14h-14z" stroke="#78784c" fill="#f0f099"/>"     "     "     <path d="M901 160h14v14h-14zm15 0h14v8h-14zm0 9h14v6h-14z" fill="#f0f09a" stroke="#78784d"/>"     "     "     <path d="M931 160h14v8h-14zm0 9h14v6h-14z" stroke="#78784d" fill="#f0f09b"/>"     "     <path d="M946 160h14v10h-14zm0 11h13v4h-13zm15-11h14v13h-14z" fill="#f0f09c" stroke="#78784e"/>"     "     "     <path d="M976 160h14v11h-14zm0 12h13v3h-13zm15-12h14v12h-14z" stroke="#78784e" fill="#f0f09d"/>"     "     "     <path d="M991 173h12v2h-12zm15-13h14v13h-14z" fill="#f0f09e" stroke="#78784f"/>"     "     <path d="M1021 160h2v13h-2zm-335 16h13v11h-13zm14 0h14v10h-14z" stroke="#78784f" fill="#f0f09f"/>"     "     "     <path d="M715 176h14v5h-14zm0 6h13v4h-13zm15-6h14v10h-14z" fill="#f0f0a0" stroke="#787850"/>"     "     "     <path d="M745 176h14v7h-14zm0 8h12v3h-12z" stroke="#787850" fill="#f0f0a1"/>"     "     <path d="M760 176h13v10h-13zm14 0h13v11h-13zm14 0h13v9h-13z" fill="#f0f0a2" stroke="#787851"/>"     "     "     <path d="M802 176h13v9h-13zm14 0h13v10h-13zm14 0h13v6h-13z" stroke="#787851" fill="#f0f0a3"/>"     "     "     <path d="M830 183h13v4h-13zm14-7h13v6h-13z" fill="#f0f0a4" stroke="#787852"/>"     "     <path d="M844 183h12v3h-12zm14-7h13v8h-13zm0 9h11v2h-11z" stroke="#787852" fill="#f0f0a5"/>"     "     "     <path d="M872 176h13v11h-13zm14 0h13v11h-13zm14 0h13v8h-13z" fill="#f0f0a6" stroke="#787853"/>"     "     "     <path d="M900 185h9v2h-9zm14-9h13v9h-13z" stroke="#787853" fill="#f0f0a7"/>"     "     <path d="M928 176h12v10h-12zm13 0h12v11h-12zm13 0h12v9h-12z" fill="#f0f0a8" stroke="#787854"/>"     "     "     <path d="M967 176h12v9h-12zm13 0h12v8h-12zm0 9h9v2h-9z" stroke="#787854" fill="#f0f0a9"/>"     "     "     <path d="M993 176h12v7h-12zm0 8h12v3h-12z" fill="#f0f0aa" stroke="#787855"/>"     "     <path d="M1006 174h13v13h-13zm14 0h4v12h-4zm-334 14h13v14h-13z" stroke="#787855" fill="#f0f0ab"/>"     "     "     <path d="M686 203h9v15h-9zm10 0h3v12h-3zm-10 16h11v15h-11z" fill="#f0f0ac" stroke="#787856"/>"     "     "     <path d="M686 235h12v15h-12zm0 16h11v14h-11z" stroke="#787856" fill="#f0f0ad"/>"     "     <path d="M686 266h9v14h-9zm10 0h3v11h-3zm-10 15h10v14h-10z" fill="#f0f0ae" stroke="#787857"/>"     "     "     <path d="M697 281h2v11h-2zm-11 15h12v14h-12zm0 15h6v14h-6z" stroke="#787857" fill="#f0f0af"/>"     "     "     <path d="M693 311h5v13h-5zm-7 15h10v14h-10z" fill="#f0f0b0" stroke="#787858"/>"     "     <path d="M697 326h2v9h-2zm-11 15h7v14h-7zm8 0h5v13h-5z" stroke="#787858" fill="#f0f0b1"/>"     "     "     <path d="M686 356h7v14h-7zm8-1h4v12h-4zm0 13h5v2h-5z" fill="#f0f0b2" stroke="#787859"/>"     "     "     <path d="M686 371h11v14h-11zm0 15h13v14h-13z" stroke="#787859" fill="#f0f0b3"/>"     "     <path d="M686 401h11v13h-11zm0 14h9v13h-9zm10 0h3v11h-3z" fill="#f0f0b4" stroke="#78785a"/>"     "     "     <path d="M686 429h7v13h-7zm8 0h5v12h-5zm-8 14h11v13h-11z" stroke="#78785a" fill="#f0f0b5"/>"     "     "     <path d="M686 457h8v13h-8zm9 0h4v11h-4z" fill="#f0f0b6" stroke="#78785b"/>"     "     <path d="M686 471h9v13h-9zm10 0h3v10h-3zm-10 14h9v13h-9z" stroke="#78785b" fill="#f0f0b7"/>"     "     "     <path d="M686 499h12v12h-12zm10-17h3v10h-3zm0 11h3v5h-3z" fill="#f0f0b8" stroke="#78785c"/>"     "     "     <path d="M700 188h12v12h-12zm13 0h12v9h-12z" stroke="#78785c" fill="#f0f0b9"/>"     "     <path d="M713 198h9v2h-9zm13-10h12v5h-12zm0 6h12v6h-12z" fill="#f0f0ba" stroke="#78785d"/>"     "     "     <path d="M739 188h12v7h-12zm0 8h11v4h-11zm13-8h12v12h-12z" stroke="#78785d" fill="#f0f0bb"/>"     "     "     <path d="M765 188h12v8h-12zm0 9h11v3h-11z" fill="#f0f0bc" stroke="#78785e"/>"     "     <path d="M778 188h13v12h-13zm14 0h12v5h-12zm0 6h11v6h-11z" stroke="#78785e" fill="#f0f0bd"/>"     "     "     <path d="M805 188h13v11h-13zm14 0h11v11h-11zm12 0h11v8h-11z" fill="#f0f0be" stroke="#78785f"/>"     "     "     <path d="M831 197h11v3h-11zm12-9h11v4h-11z" stroke="#78785f" fill="#f0f0bf"/>"     "     <path d="M843 193h11v7h-11zm12-5h11v6h-11zm0 7h11v5h-11z" fill="#f0f0c0" stroke="#787860"/>"     "     "     <path d="M867 188h11v6h-11zm0 7h11v5h-11zm12-7h11v9h-11z" stroke="#787860" fill="#f0f0c1"/>"     "     "     <path d="M879 198h6v2h-6zm12-10h11v9h-11z" fill="#f0f0c2" stroke="#787861"/>"     "     <path d="M886 198h6v2h-6zm7 0h6v2h-6zm10-10h11v8h-11z" stroke="#787861" fill="#f0f0c3"/>"     "     "     <path d="M903 197h9v3h-9zm12-9h11v9h-11zm0 10h5v2h-5z" fill="#f0f0c4" stroke="#787862"/>"     "     "     <path d="M921 198h5v2h-5zm6-10h11v5h-11z" stroke="#787862" fill="#f0f0c5"/>"     "     <path d="M927 194h11v6h-11zm12-6h11v12h-11zm12 0h11v10h-11z" fill="#f0f0c6" stroke="#787863"/>"     "     "     <path d="M963 188h11v8h-11zm0 9h9v3h-9zm12-9h11v10h-11z" stroke="#787863" fill="#f0f0c7"/>"     "     "     <path d="M987 188h13v11h-13zm14 0h11v11h-11z" fill="#f0f0c8" stroke="#787864"/>"     "     <path d="M1013 188h10v12h-10zm-313 13h10v10h-10zm0 11h6v13h-6z" stroke="#787864" fill="#f0f0c9"/>"     "     "     <path d="M707 212h3v10h-3zm-7 14h6v13h-6zm7-3h3v10h-3z" fill="#f0f0ca" stroke="#787865"/>"     "     "     <path d="M707 234h3v5h-3zm-7 6h8v12h-8z" stroke="#787865" fill="#f0f0cb"/>"     "     <path d="M700 253h8v12h-8zm0 13h7v12h-7zm8 0h2v6h-2z" fill="#f0f0cc" stroke="#787866"/>"     "     "     <path d="M708 273h2v5h-2zm-8 6h7v12h-7zm8 0h2v6h-2z" stroke="#787866" fill="#f0f0cd"/>"     "     "     <path d="M708 286h2v5h-2zm-8 6h10v12h-10z" fill="#f0f0ce" stroke="#787867"/>"     "     <path d="M700 305h7v12h-7zm0 13h10v11h-10zm0 12h10v11h-10z" stroke="#787867" fill="#f0f0cf"/>"     "     "     <path d="M700 342h9v11h-9zm0 12h10v11h-10zm0 12h6v10h-6z" fill="#f0f0d0" stroke="#787868"/>"     "     "     <path d="M707 366h3v10h-3zm-7 11h6v10h-6z" stroke="#787868" fill="#f0f0d1"/>"     "     <path d="M707 377h3v9h-3zm-7 11h9v10h-9zm0 11h8v10h-8z" fill="#f0f0d2" stroke="#787869"/>"     "     "     <path d="M700 410h6v10h-6zm7 0h3v8h-3zm-7 11h7v10h-7z" stroke="#787869" fill="#f0f0d3"/>"     "     "     <path d="M700 432h10v10h-10zm0 11h4v9h-4z" fill="#f0f0d4" stroke="#78786a"/>"     "     <path d="M705 443h5v9h-5zm-5 10h9v9h-9zm0 10h8v9h-8z" stroke="#78786a" fill="#f0f0d5"/>"     "     "     <path d="M700 473h6v9h-6zm7 0h3v8h-3zm-7 10h8v9h-8z" fill="#f0f0d6" stroke="#78786b"/>"     "     "     <path d="M700 493h7v9h-7zm0 10h10v9h-10z" stroke="#78786b" fill="#f0f0d7"/>"     "     <path d="M711 201h10v8h-10zm11 0h10v6h-10zm11 0h10v7h-10z" fill="#f0f0d8" stroke="#78786c"/>"     "     "     <path d="M744 201h10v4h-10zm0 5h7v3h-7zm11-5h10v5h-10z" stroke="#78786c" fill="#f0f0d9"/>"     "     "     <path d="M766 201h9v4h-9zm0 5h7v3h-7z" fill="#f0f0da" stroke="#78786d"/>"     "     <path d="M776 201h9v4h-9zm-2 5h6v3h-6zm7 0h4v3h-4z" stroke="#78786d" fill="#f0f0db"/>"     "     "     <path d="M786 201h9v7h-9zm10 0h8v8h-8zm9 0h8v8h-8z" fill="#f0f0dc" stroke="#78786e"/>"     "     "     <path d="M814 201h8v7h-8zm9 0h8v5h-8z" stroke="#78786e" fill="#f0f0dd"/>"     "     <path d="M832 201h9v8h-9zm10 0h8v4h-8zm0 5h8v3h-8z" fill="#f0f0de" stroke="#78786f"/>"     "     "     <path d="M851 201h9v8h-9zm10 0h8v7h-8zm9 0h8v5h-8z" stroke="#78786f" fill="#f0f0df"/>"     "     "     <path d="M879 201h7v7h-7zm8 0h7v5h-7z" fill="#f0f0e0" stroke="#787870"/>"     "     <path d="M895 201h7v8h-7zm8 0h7v8h-7zm8 0h7v4h-7z" stroke="#787870" fill="#f0f0e1"/>"     "     "     <path d="M911 206h7v3h-7zm8-5h7v6h-7zm8 0h7v4h-7z" fill="#f0f0e2" stroke="#787871"/>"     "     "     <path d="M927 206h6v3h-6zm8-5h7v5h-7z" stroke="#787871" fill="#f0f0e3"/>"     "     <path d="M943 201h6v3h-6zm0 4h6v4h-6zm7-4h6v8h-6z" fill="#f0f0e4" stroke="#787872"/>"     "     "     <path d="M957 201h6v3h-6zm0 4h5v4h-5zm7-4h6v6h-6z" stroke="#787872" fill="#f0f0e5"/>"     "     "     <path d="M971 201h6v8h-6zm7 0h6v7h-6z" fill="#f0f0e6" stroke="#787873"/>"     "     <path d="M985 201h6v7h-6zm7 0h6v7h-6zm7 0h5v7h-5z" stroke="#787873" fill="#f0f0e7"/>"     "     "     <path d="M1005 201h5v7h-5zm6 0h5v8h-5zm6 0h5v6h-5z" fill="#f0f0e8" stroke="#787874"/>"     "     "     <path d="M711 210h10v9h-10zm0 10h4v9h-4z" stroke="#787874" fill="#f0f0e9"/>"     "     <path d="M716 220h4v8h-4zm-5 10h10v9h-10zm0 10h4v9h-4z" fill="#f0f0ea" stroke="#787875"/>"     "     "     <path d="M716 240h5v7h-5zm-5 10h4v7h-4zm5-2h4v7h-4z" stroke="#787875" fill="#f0f0eb"/>"     "     "     <path d="M711 258h3v6h-3zm4 0h5v5h-5z" fill="#f0f0ec" stroke="#787876"/>"     "     <path d="M711 265h5v6h-5zm6 0h4v5h-4zm-6 7h3v6h-3z" stroke="#787876" fill="#f0f0ed"/>"     "     "     <path d="M715 272h5v5h-5zm-4 7h4v5h-4zm5 0h5v4h-5z" fill="#f0f0ee" stroke="#787877"/>"     "     "     <path d="M711 285h4v5h-4zm5-1h4v3h-4z" stroke="#787877" fill="#f0f0ef"/>"     "     <text y="526" font-size="12" fill="#000" x="0"> MaxRectsBin(size: 1024x512, choice: BestLongSideFit, method: ShorterLeftoverAxis): inserted 1536 of 1536 rectangles with w/h lengths between [2, 31], occupancy: 80.22% </text></svg>