<svg xmlns="http://www.w3.org/2000/svg" viewBox="0 0 1024 536" xmlns:v="https://vecta.io/nano"><path d="M0 0h1024v512H0z" fill="#fff" stroke="#000"/>"     <g stroke="#181818"><path d="M1 1h22v1H1z" fill="#303030"/><path d="M1 3h15v1H1z" fill="#303130"/></g>"     "     <g stroke="#181918"><path d="M1 5h5v1H1z" fill="#303230"/><path d="M1 7h27v1H1z" fill="#303330"/></g>"     "     <g stroke="#181a18"><path d="M1 9h13v1H1z" fill="#303430"/><path d="M1 11h12v1H1z" fill="#303530"/></g>"     "     <path d="M1 13h19v1H1z" fill="#303730" stroke="#181b18"/>"     <g stroke="#181c18"><path d="M1 15h10v1H1z" fill="#303830"/><path d="M1 17h28v1H1z" fill="#303930"/></g>"     "     <g stroke="#181d18"><path d="M1 19h23v1H1z" fill="#303a30"/><path d="M1 21h27v1H1z" fill="#303b30"/></g>"     "     <path d="M1 23h20v1H1z" fill="#303d30" stroke="#181e18"/>"     <g stroke="#181f18"><path d="M1 25h22v1H1z" fill="#303e30"/><path d="M1 27h11v1H1z" fill="#303f30"/></g>"     "     <g stroke="#182018"><path d="M1 29h6v1H1z" fill="#304030"/><path d="M1 31h12v1H1z" fill="#304130"/></g>"     "     <path d="M1 33h5v1H1z" fill="#304330" stroke="#182118"/>"     <g stroke="#182218"><path d="M1 35h6v1H1z" fill="#304430"/><path d="M1 37h18v1H1z" fill="#304530"/></g>"     "     <g stroke="#182318"><path d="M1 39h23v1H1z" fill="#304630"/><path d="M1 41h14v1H1z" fill="#304730"/></g>"     "     <path d="M1 43h28v1H1z" fill="#304930" stroke="#182418"/>"     <g stroke="#182518"><path d="M1 45h3v1H1z" fill="#304a30"/><path d="M1 47h19v1H1z" fill="#304b30"/></g>"     "     <g stroke="#182618"><path d="M1 49h21v1H1z" fill="#304c30"/><path d="M1 51h5v1H1z" fill="#304d30"/></g>"     "     <path d="M1 53h2v1H1z" fill="#304f30" stroke="#182718"/>"     <g stroke="#182818"><path d="M1 55h12v1H1z" fill="#305030"/><path d="M1 57h23v1H1z" fill="#305130"/></g>"     "     <g stroke="#182918"><path d="M1 59h2v1H1z" fill="#305230"/><path d="M1 61h27v1H1z" fill="#305330"/></g>"     "     <path d="M1 63h5v1H1z" fill="#305530" stroke="#182a18"/>"     <g stroke="#182b18"><path d="M1 65h1v1H1z" fill="#305630"/><path d="M1 67h27v1H1z" fill="#305730"/></g>"     "     <g stroke="#182c18"><path d="M1 69h16v1H1z" fill="#305830"/><path d="M1 71h3v1H1z" fill="#305930"/></g>"     "     <path d="M1 73h12v1H1z" fill="#305b30" stroke="#182d18"/>"     <g stroke="#182e18"><path d="M1 75h19v1H1z" fill="#305c30"/><path d="M1 77h15v1H1z" fill="#305d30"/></g>"     "     <g stroke="#182f18"><path d="M1 79h12v1H1z" fill="#305e30"/><path d="M1 81h4v1H1z" fill="#305f30"/></g>"     "     <path d="M1 83h19v1H1z" fill="#306130" stroke="#183018"/>"     <g stroke="#183118"><path d="M1 85h30v1H1z" fill="#306230"/><path d="M1 87h12v1H1z" fill="#306330"/></g>"     "     <g stroke="#183218"><path d="M1 89h17v1H1z" fill="#306430"/><path d="M1 91h10v1H1z" fill="#306530"/></g>"     "     <path d="M1 93h7v1H1z" fill="#306730" stroke="#183318"/>"     <g stroke="#183418"><path d="M1 95h11v1H1z" fill="#306830"/><path d="M1 97h2v1H1z" fill="#306930"/></g>"     "     <g stroke="#183518"><path d="M1 99h13v2H1z" fill="#306a30"/><path d="M1 102h24v2H1z" fill="#306b30"/></g>"     "     <path d="M1 105h13v2H1z" fill="#306d30" stroke="#183618"/>"     <g stroke="#183718"><path d="M1 108h9v2H1z" fill="#306e30"/><path d="M1 111h3v2H1z" fill="#306f30"/></g>"     "     <g stroke="#183818"><path d="M1 114h10v2H1z" fill="#307030"/><path d="M1 117h19v2H1z" fill="#307130"/></g>"     "     <path d="M1 120h21v2H1z" fill="#307330" stroke="#183918"/>"     <g stroke="#183a18"><path d="M1 123h27v2H1z" fill="#307430"/><path d="M1 126h18v2H1z" fill="#307530"/></g>"     "     <g stroke="#183b18"><path d="M1 129h19v2H1z" fill="#307630"/><path d="M1 132h11v2H1z" fill="#307730"/></g>"     "     <path d="M1 135h5v2H1z" fill="#307930" stroke="#183c18"/>"     <g stroke="#183d18"><path d="M1 138h8v2H1z" fill="#307a30"/><path d="M1 141h5v2H1z" fill="#307b30"/></g>"     "     <g stroke="#183e18"><path d="M1 144h13v2H1z" fill="#307c30"/><path d="M1 147h25v2H1z" fill="#307d30"/></g>"     "     <path d="M1 150h30v2H1z" fill="#307f30" stroke="#183f18"/>"     <g stroke="#184018"><path d="M1 153h12v2H1z" fill="#308030"/><path d="M1 156h21v2H1z" fill="#308130"/></g>"     "     <g stroke="#184118"><path d="M1 159h23v2H1z" fill="#308230"/><path d="M1 162h6v2H1z" fill="#308330"/></g>"     "     <path d="M1 165h18v2H1z" fill="#308530" stroke="#184218"/>"     <g stroke="#184318"><path d="M1 168h19v2H1z" fill="#308630"/><path d="M1 171h15v2H1z" fill="#308730"/></g>"     "     <g stroke="#184418"><path d="M1 174h24v2H1z" fill="#308830"/><path d="M1 177h20v2H1z" fill="#308930"/></g>"     "     <path d="M1 180h12v2H1z" fill="#308b30" stroke="#184518"/>"     <g stroke="#184618"><path d="M1 183h26v2H1z" fill="#308c30"/><path d="M1 186h30v2H1z" fill="#308d30"/></g>"     "     <g stroke="#184718"><path d="M1 189h14v2H1z" fill="#308e30"/><path d="M1 192h30v2H1z" fill="#308f30"/></g>"     "     <path d="M1 195h28v2H1z" fill="#309030" stroke="#184818"/>"     <g stroke="#184918"><path d="M1 198h2v2H1z" fill="#309230"/><path d="M1 201h5v2H1z" fill="#309330"/></g>"     "     <g stroke="#184a18"><path d="M1 204h18v2H1z" fill="#309430"/><path d="M1 207h9v2H1z" fill="#309530"/></g>"     "     <path d="M1 210h19v2H1z" fill="#309630" stroke="#184b18"/>"     <g stroke="#184c18"><path d="M1 213h3v2H1z" fill="#309830"/><path d="M1 216h2v2H1z" fill="#309930"/></g>"     "     <g stroke="#184d18"><path d="M1 219h6v2H1z" fill="#309a30"/><path d="M1 222h19v2H1z" fill="#309b30"/></g>"     "     <path d="M1 225h7v2H1z" fill="#309c30" stroke="#184e18"/>"     <g stroke="#184f18"><path d="M1 228h26v2H1z" fill="#309e30"/><path d="M1 231h29v2H1z" fill="#309f30"/></g>"     "     <g stroke="#185018"><path d="M1 234h21v2H1z" fill="#30a030"/><path d="M1 237h6v2H1z" fill="#30a130"/></g>"     "     <path d="M1 240h1v2H1z" fill="#30a230" stroke="#185118"/>"     <g stroke="#185218"><path d="M1 243h28v2H1z" fill="#30a430"/><path d="M1 246h14v2H1z" fill="#30a530"/></g>"     "     <g stroke="#185318"><path d="M1 249h9v2H1z" fill="#30a630"/><path d="M1 252h17v2H1z" fill="#30a730"/></g>"     "     <path d="M1 255h21v2H1z" fill="#30a830" stroke="#185418"/>"     <g stroke="#185518"><path d="M1 258h18v2H1z" fill="#30aa30"/><path d="M1 261h16v2H1z" fill="#30ab30"/></g>"     "     <g stroke="#185618"><path d="M1 264h9v3H1z" fill="#30ac30"/><path d="M1 268h18v3H1z" fill="#30ad30"/></g>"     "     <path d="M1 272h18v3H1z" fill="#30ae30" stroke="#185718"/>"     <g stroke="#185818"><path d="M1 276h11v3H1z" fill="#30b030"/><path d="M1 280h7v3H1z" fill="#30b130"/></g>"     "     <g stroke="#185918"><path d="M1 284h28v3H1z" fill="#30b230"/><path d="M1 288h20v3H1z" fill="#30b330"/></g>"     "     <path d="M1 292h6v3H1z" fill="#30b430" stroke="#185a18"/>"     <g stroke="#185b18"><path d="M1 296h29v3H1z" fill="#30b630"/><path d="M1 300h27v3H1z" fill="#30b730"/></g>"     "     <g stroke="#185c18"><path d="M1 304h11v3H1z" fill="#30b830"/><path d="M1 308h17v3H1z" fill="#30b930"/></g>"     "     <path d="M1 312h6v3H1z" fill="#30ba30" stroke="#185d18"/>"     <g stroke="#185e18"><path d="M1 316h13v3H1z" fill="#30bc30"/><path d="M1 320h29v3H1z" fill="#30bd30"/></g>"     "     <g stroke="#185f18"><path d="M1 324h25v3H1z" fill="#30be30"/><path d="M1 328h15v3H1z" fill="#30bf30"/></g>"     "     <path d="M1 332h17v3H1z" fill="#30c030" stroke="#186018"/>"     <g stroke="#186118"><path d="M1 336h30v3H1z" fill="#30c230"/><path d="M1 340h8v3H1z" fill="#30c330"/></g>"     "     <g stroke="#186218"><path d="M1 344h25v3H1z" fill="#30c430"/><path d="M1 348h14v3H1z" fill="#30c530"/></g>"     "     <path d="M1 352h25v3H1z" fill="#30c630" stroke="#186318"/>"     <g stroke="#186418"><path d="M1 356h9v3H1z" fill="#30c830"/><path d="M1 360h23v3H1z" fill="#30c930"/></g>"     "     <g stroke="#186518"><path d="M1 364h22v3H1z" fill="#30ca30"/><path d="M1 368h18v3H1z" fill="#30cb30"/></g>"     "     <path d="M1 372h1v3H1z" fill="#30cc30" stroke="#186618"/>"     <g stroke="#186718"><path d="M1 376h6v3H1z" fill="#30ce30"/><path d="M1 380h13v3H1z" fill="#30cf30"/></g>"     "     <g stroke="#186818"><path d="M1 384h6v3H1z" fill="#30d030"/><path d="M1 388h23v3H1z" fill="#30d130"/></g>"     "     <path d="M1 392h28v3H1z" fill="#30d230" stroke="#186918"/>"     <g stroke="#186a18"><path d="M1 396h30v3H1z" fill="#30d430"/><path d="M1 400h13v3H1z" fill="#30d530"/></g>"     "     <g stroke="#186b18"><path d="M1 404h5v3H1z" fill="#30d630"/><path d="M1 408h1v3H1z" fill="#30d730"/></g>"     "     <path d="M1 412h20v3H1z" fill="#30d830" stroke="#186c18"/>"     <g stroke="#186d18"><path d="M1 416h30v3H1z" fill="#30da30"/><path d="M1 420h20v3H1z" fill="#30db30"/></g>"     "     <g stroke="#186e18"><path d="M1 424h1v3H1z" fill="#30dc30"/><path d="M1 428h24v3H1z" fill="#30dd30"/></g>"     "     <path d="M1 432h2v3H1z" fill="#30de30" stroke="#186f18"/>"     <g stroke="#187018"><path d="M1 436h12v3H1z" fill="#30e030"/><path d="M1 440h12v3H1z" fill="#30e130"/></g>"     "     <g stroke="#187118"><path d="M1 444h4v3H1z" fill="#30e230"/><path d="M1 448h30v3H1z" fill="#30e330"/></g>"     "     <path d="M1 452h7v3H1z" fill="#30e430" stroke="#187218"/>"     <g stroke="#187318"><path d="M1 456h21v3H1z" fill="#30e630"/><path d="M1 460h27v3H1z" fill="#30e730"/></g>"     "     <g stroke="#187418"><path d="M1 464h16v4H1z" fill="#30e830"/><path d="M1 469h11v4H1z" fill="#30e930"/></g>"     "     <path d="M1 474h22v4H1z" fill="#30ea30" stroke="#187518"/>"     <g stroke="#187618"><path d="M24 1h30v1H24z" fill="#30ec30"/><path d="M1 479h8v4H1z" fill="#30ed30"/></g>"     "     <g stroke="#187718"><path d="M15 99h30v2H15z" fill="#30ee30"/><path d="M11 264h30v3H11z" fill="#30ef30"/></g>"     "     <g stroke="#187818"><path d="M42 264h30v3H42z" fill="#30f030"/><path d="M73 264h30v3H73z" fill="#31f030"/></g>"     "     <path d="M55 1h27v1H55z" fill="#33f030" stroke="#197818"/>"     <g stroke="#1a7818"><path d="M46 99h28v2H46z" fill="#34f030"/><path d="M75 99h28v2H75z" fill="#35f030"/></g>"     "     <g stroke="#1b7818"><path d="M104 264h29v3h-29z" fill="#36f030"/><path d="M134 264h29v3h-29z" fill="#37f030"/></g>"     "     <path d="M18 464h30v4H18z" fill="#39f030" stroke="#1c7818"/>"     <g stroke="#1d7818"><path d="M83 1h26v1H83z" fill="#3af030"/><path d="M110 1h26v1h-26z" fill="#3bf030"/></g>"     "     <g stroke="#1e7818"><path d="M137 1h26v1h-26z" fill="#3cf030"/><path d="M104 99h27v2h-27z" fill="#3df030"/></g>"     "     <path d="M164 264h28v3h-28z" fill="#3ff030" stroke="#1f7818"/>"     <g stroke="#207818"><path d="M193 264h28v3h-28z" fill="#40f030"/><path d="M222 264h28v3h-28z" fill="#41f030"/></g>"     "     <g stroke="#217818"><path d="M49 464h29v4H49z" fill="#42f030"/><path d="M251 264h27v3h-27z" fill="#43f030"/></g>"     "     <path d="M279 264h27v3h-27z" fill="#45f030" stroke="#227818"/>"     <g stroke="#237818"><path d="M307 264h27v3h-27z" fill="#46f030"/><path d="M335 264h27v3h-27z" fill="#47f030"/></g>"     "     <g stroke="#247818"><path d="M79 464h28v4H79z" fill="#48f030"/><path d="M108 464h28v4h-28z" fill="#49f030"/></g>"     "     <path d="M1 484h23v4H1z" fill="#4bf030" stroke="#257818"/>"     <g stroke="#267818"><path d="M164 1h24v1h-24z" fill="#4cf030"/><path d="M132 99h25v2h-25z" fill="#4df030"/></g>"     "     <g stroke="#277818"><path d="M363 264h26v3h-26z" fill="#4ef030"/><path d="M390 264h26v3h-26z" fill="#4ff030"/></g>"     "     <path d="M417 264h26v3h-26z" fill="#51f030" stroke="#287818"/>"     <g stroke="#297818"><path d="M444 264h26v3h-26z" fill="#52f030"/><path d="M471 264h26v3h-26z" fill="#53f030"/></g>"     "     <g stroke="#2a7818"><path d="M20 268h30v7H20z" fill="#54f030"/><path d="M51 268h30v7H51z" fill="#55f030"/></g>"     "     <path d="M82 268h30v7H82z" fill="#57f030" stroke="#2b7818"/>"     <g stroke="#2c7818"><path d="M113 268h30v5h-30z" fill="#58f030"/><path d="M144 268h30v5h-30z" fill="#59f030"/></g>"     "     <g stroke="#2d7818"><path d="M175 268h30v5h-30z" fill="#5af030"/><path d="M206 268h30v5h-30z" fill="#5bf030"/></g>"     "     <path d="M237 268h29v5h-29z" fill="#5df030" stroke="#2e7818"/>"     <g stroke="#2f7818"><path d="M267 268h28v5h-28z" fill="#5ef030"/><path d="M14 436h30v7H14z" fill="#5ff030"/></g>"     "     <g stroke="#307818"><path d="M137 464h27v4h-27z" fill="#60f030"/><path d="M189 1h23v1h-23z" fill="#61f030"/></g>"     "     <path d="M213 1h23v1h-23z" fill="#63f030" stroke="#317818"/>"     <g stroke="#327818"><path d="M237 1h23v1h-23z" fill="#64f030"/><path d="M158 99h24v2h-24z" fill="#65f030"/></g>"     "     <g stroke="#337818"><path d="M183 99h24v2h-24z" fill="#66f030"/><path d="M208 99h24v2h-24z" fill="#67f030"/></g>"     "     <path d="M498 264h25v3h-25z" fill="#69f030" stroke="#347818"/>"     <g stroke="#357818"><path d="M524 264h25v3h-25z" fill="#6af030"/><path d="M296 268h27v5h-27z" fill="#6bf030"/></g>"     "     <g stroke="#367818"><path d="M324 268h27v5h-27z" fill="#6cf030"/><path d="M352 268h27v5h-27z" fill="#6df030"/></g>"     "     <path d="M45 436h29v7H45z" fill="#6ff030" stroke="#377818"/>"     <g stroke="#387818"><path d="M75 436h29v7H75z" fill="#70f030"/><path d="M105 436h29v6h-29z" fill="#71f030"/></g>"     "     <g stroke="#397818"><path d="M135 436h29v6h-29z" fill="#72f030"/><path d="M165 464h26v4h-26z" fill="#73f030"/></g>"     "     <path d="M192 464h26v4h-26z" fill="#75f030" stroke="#3a7818"/>"     <g stroke="#3b7818"><path d="M261 1h22v1h-22z" fill="#76f030"/><path d="M284 1h22v1h-22z" fill="#77f030"/></g>"     "     <g stroke="#3c7818"><path d="M233 99h23v2h-23z" fill="#78f030"/><path d="M257 99h23v2h-23z" fill="#79f030"/></g>"     "     <path d="M281 99h23v2h-23z" fill="#7bf030" stroke="#3d7818"/>"     <g stroke="#3e7818"><path d="M550 264h24v3h-24z" fill="#7cf030"/><path d="M575 264h24v3h-24z" fill="#7df030"/></g>"     "     <g stroke="#3f7818"><path d="M165 436h27v6h-27z" fill="#7ef030"/><path d="M193 436h27v6h-27z" fill="#7ff030"/></g>"     "     <path d="M219 464h25v4h-25z" fill="#81f030" stroke="#407818"/>"     <g stroke="#417818"><path d="M245 464h25v4h-25z" fill="#82f030"/><path d="M307 1h21v1h-21z" fill="#83f030"/></g>"     "     <g stroke="#427818"><path d="M329 1h21v1h-21z" fill="#84f030"/><path d="M351 1h21v1h-21z" fill="#85f030"/></g>"     "     <path d="M305 99h22v2h-22z" fill="#87f030" stroke="#437818"/>"     <g stroke="#447818"><path d="M328 99h22v2h-22z" fill="#88f030"/><path d="M600 264h23v3h-23z" fill="#89f030"/></g>"     "     <g stroke="#457818"><path d="M380 268h25v5h-25z" fill="#8af030"/><path d="M221 436h26v6h-26z" fill="#8bf030"/></g>"     "     <path d="M271 464h24v4h-24z" fill="#8df030" stroke="#467818"/>"     <g stroke="#477818"><path d="M373 1h20v1h-20z" fill="#8ef030"/><path d="M351 99h21v2h-21z" fill="#8ff030"/></g>"     "     <g stroke="#487818"><path d="M373 99h21v2h-21z" fill="#90f030"/><path d="M395 99h21v2h-21z" fill="#91f030"/></g>"     "     <path d="M624 264h22v3h-22z" fill="#92f030" stroke="#497818"/>"     <g stroke="#4a7818"><path d="M647 264h22v3h-22z" fill="#94f030"/><path d="M406 268h24v5h-24z" fill="#95f030"/></g>"     "     <g stroke="#4b7818"><path d="M431 268h24v5h-24z" fill="#96f030"/><path d="M296 464h23v4h-23z" fill="#97f030"/></g>"     "     <path d="M1 489h11v4H1z" fill="#98f030" stroke="#4c7818"/>"     <g stroke="#4d7818"><path d="M394 1h19v1h-19z" fill="#9af030"/><path d="M414 1h19v1h-19z" fill="#9bf030"/></g>"     "     <g stroke="#4e7818"><path d="M434 1h19v1h-19z" fill="#9cf030"/><path d="M417 99h20v2h-20z" fill="#9df030"/></g>"     "     <path d="M438 99h20v2h-20z" fill="#9ef030" stroke="#4f7818"/>"     <g stroke="#507818"><path d="M670 264h21v3h-21z" fill="#a0f030"/><path d="M456 268h23v5h-23z" fill="#a1f030"/></g>"     "     <g stroke="#517818"><path d="M480 268h23v5h-23z" fill="#a2f030"/><path d="M504 268h23v5h-23z" fill="#a3f030"/></g>"     "     <path d="M528 268h23v5h-23z" fill="#a4f030" stroke="#527818"/>"     <g stroke="#537818"><path d="M552 268h23v5h-23z" fill="#a6f030"/><path d="M576 268h23v5h-23z" fill="#a7f030"/></g>"     "     <g stroke="#547818"><path d="M320 464h22v4h-22z" fill="#a8f030"/><path d="M459 99h19v2h-19z" fill="#a9f030"/></g>"     "     <path d="M692 264h20v3h-20z" fill="#aaf030" stroke="#557818"/>"     <g stroke="#567818"><path d="M713 264h20v3h-20z" fill="#acf030"/><path d="M600 268h22v5h-22z" fill="#adf030"/></g>"     "     <g stroke="#577818"><path d="M623 268h22v5h-22z" fill="#aef030"/><path d="M646 268h22v5h-22z" fill="#aff030"/></g>"     "     <path d="M248 436h23v6h-23z" fill="#b0f030" stroke="#587818"/>"     <g stroke="#597818"><path d="M272 436h23v6h-23z" fill="#b2f030"/><path d="M454 1h17v1h-17z" fill="#b3f030"/></g>"     "     <g stroke="#5a7818"><path d="M472 1h17v1h-17z" fill="#b4f030"/><path d="M479 99h18v2h-18z" fill="#b5f030"/></g>"     "     <path d="M734 264h19v3h-19z" fill="#b6f030" stroke="#5b7818"/>"     <g stroke="#5c7818"><path d="M754 264h19v3h-19z" fill="#b8f030"/><path d="M669 268h21v5h-21z" fill="#b9f030"/></g>"     "     <g stroke="#5d7818"><path d="M296 436h22v6h-22z" fill="#baf030"/><path d="M490 1h16v1h-16z" fill="#bbf030"/></g>"     "     <path d="M774 264h18v3h-18z" fill="#bcf030" stroke="#5e7818"/>"     <g stroke="#5f7818"><path d="M793 264h18v3h-18z" fill="#bef030"/><path d="M812 264h18v3h-18z" fill="#bff030"/></g>"     "     <g stroke="#607818"><path d="M691 268h20v5h-20z" fill="#c0f030"/><path d="M712 268h20v5h-20z" fill="#c1f030"/></g>"     "     <path d="M319 436h21v6h-21z" fill="#c2f030" stroke="#617818"/>"     <g stroke="#627818"><path d="M341 436h21v6h-21z" fill="#c4f030"/><path d="M507 1h15v1h-15z" fill="#c5f030"/></g>"     "     <g stroke="#637818"><path d="M523 1h15v1h-15z" fill="#c6f030"/><path d="M539 1h15v1h-15z" fill="#c7f030"/></g>"     "     <path d="M555 1h15v1h-15z" fill="#c8f030" stroke="#647818"/>"     <g stroke="#657818"><path d="M571 1h15v1h-15z" fill="#caf030"/><path d="M831 264h17v3h-17z" fill="#cbf030"/></g>"     "     <g stroke="#667818"><path d="M849 264h17v3h-17z" fill="#ccf030"/><path d="M733 268h19v5h-19z" fill="#cdf030"/></g>"     "     <path d="M753 268h19v5h-19z" fill="#cef030" stroke="#677818"/>"     <g stroke="#687818"><path d="M363 436h20v6h-20z" fill="#d0f030"/><path d="M343 464h18v4h-18z" fill="#d1f030"/></g>"     "     <g stroke="#697818"><path d="M362 464h18v4h-18z" fill="#d2f030"/><path d="M1 494h30v4H1z" fill="#d3f030"/></g>"     "     <path d="M1 499h30v10H1z" fill="#d4f030" stroke="#6a7818"/>"     <g stroke="#6b7818"><path d="M32 494h30v15H32z" fill="#d6f030"/><path d="M63 494h30v13H63z" fill="#d7f030"/></g>"     "     <g stroke="#6c7818"><path d="M94 494h30v13H94z" fill="#d8f030"/><path d="M125 494h30v12h-30z" fill="#d9f030"/></g>"     "     <path d="M156 494h30v10h-30z" fill="#daf030" stroke="#6d7818"/>"     <g stroke="#6e7818"><path d="M187 494h30v8h-30z" fill="#dcf030"/><path d="M218 494h29v8h-29z" fill="#ddf030"/></g>"     "     <g stroke="#6f7818"><path d="M248 494h29v8h-29z" fill="#def030"/><path d="M278 494h29v7h-29z" fill="#dff030"/></g>"     "     <path d="M308 494h28v7h-28z" fill="#e0f030" stroke="#707818"/>"     <g stroke="#717818"><path d="M337 494h28v7h-28z" fill="#e2f030"/><path d="M366 494h28v7h-28z" fill="#e3f030"/></g>"     "     <g stroke="#727818"><path d="M395 494h28v7h-28z" fill="#e4f030"/><path d="M424 494h27v7h-27z" fill="#e5f030"/></g>"     "     <path d="M452 494h27v7h-27z" fill="#e6f030" stroke="#737818"/>"     <g stroke="#747818"><path d="M480 494h27v7h-27z" fill="#e8f030"/><path d="M508 494h26v7h-26z" fill="#e9f030"/></g>"     "     <g stroke="#757818"><path d="M535 494h26v7h-26z" fill="#eaf030"/><path d="M562 494h26v7h-26z" fill="#ebf030"/></g>"     "     <path d="M589 494h26v7h-26z" fill="#ecf030" stroke="#767818"/>"     <g stroke="#777818"><path d="M616 494h25v7h-25z" fill="#eef030"/><path d="M642 494h25v7h-25z" fill="#eff030"/></g>"     "     <g stroke="#787818"><path d="M668 494h24v7h-24z" fill="#f0f030"/><path d="M693 494h24v7h-24z" fill="#f0f031"/></g>"     "     <g stroke="#787819"><path d="M718 494h23v7h-23z" fill="#f0f032"/><path d="M742 494h22v7h-22z" fill="#f0f033"/></g>"     "     <path d="M765 494h22v7h-22z" fill="#f0f035" stroke="#78781a"/>"     <g stroke="#78781b"><path d="M788 494h21v7h-21z" fill="#f0f036"/><path d="M810 494h21v7h-21z" fill="#f0f037"/></g>"     "     <g stroke="#78781c"><path d="M587 1h14v1h-14z" fill="#f0f038"/><path d="M602 1h14v1h-14z" fill="#f0f039"/></g>"     "     <path d="M617 1h14v1h-14z" fill="#f0f03b" stroke="#78781d"/>"     <g stroke="#78781e"><path d="M632 1h14v1h-14z" fill="#f0f03c"/><path d="M498 99h15v2h-15z" fill="#f0f03d"/></g>"     "     <g stroke="#78781f"><path d="M514 99h15v2h-15z" fill="#f0f03e"/><path d="M867 264h16v3h-16z" fill="#f0f03f"/></g>"     "     <path d="M773 268h18v5h-18z" fill="#f0f041" stroke="#787820"/>"     <g stroke="#787821"><path d="M384 436h19v6h-19z" fill="#f0f042"/><path d="M404 436h19v6h-19z" fill="#f0f043"/></g>"     "     <g stroke="#787822"><path d="M381 464h17v4h-17z" fill="#f0f044"/><path d="M399 464h17v4h-17z" fill="#f0f045"/></g>"     "     <path d="M417 464h17v4h-17z" fill="#f0f047" stroke="#787823"/>"     <g stroke="#787824"><path d="M647 1h13v1h-13z" fill="#f0f048"/><path d="M661 1h13v1h-13z" fill="#f0f049"/></g>"     "     <g stroke="#787825"><path d="M530 99h14v2h-14z" fill="#f0f04a"/><path d="M545 99h14v2h-14z" fill="#f0f04b"/></g>"     "     <path d="M884 264h15v3h-15z" fill="#f0f04d" stroke="#787826"/>"     <g stroke="#787827"><path d="M900 264h15v3h-15z" fill="#f0f04e"/><path d="M424 436h18v6h-18z" fill="#f0f04f"/></g>"     "     <g stroke="#787828"><path d="M443 436h18v6h-18z" fill="#f0f050"/><path d="M462 436h18v6h-18z" fill="#f0f051"/></g>"     "     <path d="M832 494h19v7h-19z" fill="#f0f053" stroke="#787829"/>"     <g stroke="#78782a"><path d="M675 1h12v1h-12z" fill="#f0f054"/><path d="M688 1h12v1h-12z" fill="#f0f055"/></g>"     "     <g stroke="#78782b"><path d="M701 1h12v1h-12z" fill="#f0f056"/><path d="M560 99h13v2h-13z" fill="#f0f057"/></g>"     "     <path d="M574 99h13v2h-13z" fill="#f0f059" stroke="#78782c"/>"     <g stroke="#78782d"><path d="M916 264h14v3h-14z" fill="#f0f05a"/><path d="M931 264h14v3h-14z" fill="#f0f05b"/></g>"     "     <g stroke="#78782e"><path d="M792 268h16v5h-16z" fill="#f0f05c"/><path d="M809 268h16v5h-16z" fill="#f0f05d"/></g>"     "     <path d="M852 494h18v7h-18z" fill="#f0f05f" stroke="#78782f"/>"     <g stroke="#787830"><path d="M871 494h18v7h-18z" fill="#f0f060"/><path d="M890 494h18v7h-18z" fill="#f0f061"/></g>"     "     <g stroke="#787831"><path d="M909 494h18v7h-18z" fill="#f0f062"/><path d="M714 1h11v1h-11z" fill="#f0f063"/></g>"     "     <path d="M588 99h12v2h-12z" fill="#f0f065" stroke="#787832"/>"     <g stroke="#787833"><path d="M946 264h13v3h-13z" fill="#f0f066"/><path d="M960 264h13v3h-13z" fill="#f0f067"/></g>"     "     <g stroke="#787834"><path d="M974 264h13v3h-13z" fill="#f0f068"/><path d="M988 264h13v3h-13z" fill="#f0f069"/></g>"     "     <path d="M826 268h15v5h-15z" fill="#f0f06b" stroke="#787835"/>"     <g stroke="#787836"><path d="M842 268h15v5h-15z" fill="#f0f06c"/><path d="M858 268h15v5h-15z" fill="#f0f06d"/></g>"     "     <g stroke="#787837"><path d="M874 268h15v5h-15z" fill="#f0f06e"/><path d="M435 464h14v4h-14z" fill="#f0f06f"/></g>"     "     <path d="M928 494h17v7h-17z" fill="#f0f071" stroke="#787838"/>"     <g stroke="#787839"><path d="M601 99h11v2h-11z" fill="#f0f072"/><path d="M1002 264h12v3h-12z" fill="#f0f073"/></g>"     "     <g stroke="#78783a"><path d="M1015 264h9v3h-9z" fill="#f0f074"/><path d="M890 268h14v5h-14z" fill="#f0f075"/></g>"     "     <path d="M905 268h14v5h-14z" fill="#f0f077" stroke="#78783b"/>"     <g stroke="#78783c"><path d="M13 276h12v3H13z" fill="#f0f078"/><path d="M481 436h15v6h-15z" fill="#f0f079"/></g>"     "     <g stroke="#78783d"><path d="M450 464h13v4h-13z" fill="#f0f07a"/><path d="M946 494h16v7h-16z" fill="#f0f07b"/></g>"     "     <path d="M963 494h16v7h-16z" fill="#f0f07d" stroke="#78783e"/>"     <g stroke="#78783f"><path d="M613 99h10v2h-10z" fill="#f0f07e"/><path d="M920 268h13v5h-13z" fill="#f0f07f"/></g>"     "     <g stroke="#787840"><path d="M934 268h13v5h-13z" fill="#f0f080"/><path d="M26 276h11v3H26z" fill="#f0f081"/></g>"     "     <path d="M38 276h11v3H38z" fill="#f0f083" stroke="#787841"/>"     <g stroke="#787842"><path d="M497 436h14v6h-14z" fill="#f0f084"/><path d="M512 436h14v6h-14z" fill="#f0f085"/></g>"     "     <g stroke="#787843"><path d="M527 436h14v6h-14z" fill="#f0f086"/><path d="M464 464h12v4h-12z" fill="#f0f087"/></g>"     "     <path d="M477 464h12v4h-12z" fill="#f0f089" stroke="#787844"/>"     <g stroke="#787845"><path d="M980 494h15v7h-15z" fill="#f0f08a"/><path d="M996 494h28v7h-28z" fill="#f0f08b"/></g>"     "     <g stroke="#787846"><path d="M726 1h8v1h-8z" fill="#f0f08c"/><path d="M624 99h9v2h-9z" fill="#f0f08d"/></g>"     "     <path d="M948 268h12v5h-12z" fill="#f0f08f" stroke="#787847"/>"     <g stroke="#787848"><path d="M50 276h10v3H50z" fill="#f0f090"/><path d="M61 276h10v3H61z" fill="#f0f091"/></g>"     "     <g stroke="#787849"><path d="M72 276h10v3H72z" fill="#f0f092"/><path d="M83 276h10v3H83z" fill="#f0f093"/></g>"     "     <path d="M94 276h10v3H94z" fill="#f0f094" stroke="#78784a"/>"     <g stroke="#78784b"><path d="M542 436h13v6h-13z" fill="#f0f096"/><path d="M556 436h13v6h-13z" fill="#f0f097"/></g>"     "     <g stroke="#78784c"><path d="M490 464h11v4h-11z" fill="#f0f098"/><path d="M735 1h7v1h-7z" fill="#f0f099"/></g>"     "     <path d="M743 1h7v1h-7z" fill="#f0f09a" stroke="#78784d"/>"     <g stroke="#78784e"><path d="M751 1h7v1h-7z" fill="#f0f09c"/><path d="M634 99h8v2h-8z" fill="#f0f09d"/></g>"     "     <g stroke="#78784f"><path d="M961 268h11v5h-11z" fill="#f0f09e"/><path d="M570 436h12v6h-12z" fill="#f0f09f"/></g>"     "     <path d="M759 1h6v1h-6z" fill="#f0f0a0" stroke="#787850"/>"     <g stroke="#787851"><path d="M643 99h7v2h-7z" fill="#f0f0a2"/><path d="M651 99h7v2h-7z" fill="#f0f0a3"/></g>"     "     <g stroke="#787852"><path d="M105 276h8v3h-8z" fill="#f0f0a4"/><path d="M114 276h8v3h-8z" fill="#f0f0a5"/></g>"     "     <path d="M123 276h8v3h-8z" fill="#f0f0a6" stroke="#787853"/>"     <g stroke="#787854"><path d="M502 464h9v4h-9z" fill="#f0f0a8"/><path d="M512 464h9v4h-9z" fill="#f0f0a9"/></g>"     "     <g stroke="#787855"><path d="M522 464h9v4h-9z" fill="#f0f0aa"/><path d="M659 99h6v2h-6z" fill="#f0f0ab"/></g>"     "     <path d="M666 99h6v2h-6z" fill="#f0f0ac" stroke="#787856"/>"     <g stroke="#787857"><path d="M132 276h7v3h-7z" fill="#f0f0ae"/><path d="M583 436h10v6h-10z" fill="#f0f0af"/></g>"     "     <g stroke="#787858"><path d="M594 436h10v6h-10z" fill="#f0f0b0"/><path d="M605 436h10v6h-10z" fill="#f0f0b1"/></g>"     "     <path d="M532 464h8v4h-8z" fill="#f0f0b2" stroke="#787859"/>"     <g stroke="#78785a"><path d="M766 1h4v1h-4z" fill="#f0f0b4"/><path d="M771 1h4v1h-4z" fill="#f0f0b5"/></g>"     "     <g stroke="#78785b"><path d="M776 1h4v1h-4z" fill="#f0f0b6"/><path d="M673 99h5v2h-5z" fill="#f0f0b7"/></g>"     "     <path d="M679 99h5v2h-5z" fill="#f0f0b8" stroke="#78785c"/>"     <g stroke="#78785d"><path d="M685 99h5v2h-5z" fill="#f0f0ba"/><path d="M973 268h8v5h-8z" fill="#f0f0bb"/></g>"     "     <g stroke="#78785e"><path d="M140 276h6v3h-6z" fill="#f0f0bc"/><path d="M147 276h6v3h-6z" fill="#f0f0bd"/></g>"     "     <path d="M616 436h9v6h-9z" fill="#f0f0be" stroke="#78785f"/>"     <g stroke="#787860"><path d="M541 464h7v4h-7z" fill="#f0f0c0"/><path d="M549 464h7v4h-7z" fill="#f0f0c1"/></g>"     "     <g stroke="#787861"><path d="M982 268h7v5h-7z" fill="#f0f0c2"/><path d="M990 268h7v5h-7z" fill="#f0f0c3"/></g>"     "     <path d="M998 268h26v5h-26z" fill="#f0f0c4" stroke="#787862"/>"     <g stroke="#787863"><path d="M154 276h5v3h-5z" fill="#f0f0c6"/><path d="M626 436h14v4h-14z" fill="#f0f0c7"/></g>"     "     <g stroke="#787864"><path d="M160 276h4v3h-4z" fill="#f0f0c8"/><path d="M641 436h5v4h-5z" fill="#f0f0c9"/></g>"     "     <path d="M647 436h5v4h-5z" fill="#f0f0ca" stroke="#787865"/>"     <g stroke="#787866"><path d="M653 436h5v4h-5z" fill="#f0f0cc"/><path d="M659 436h19v4h-19z" fill="#f0f0cd"/></g>"     "     <g stroke="#787867"><path d="M679 436h10v4h-10z" fill="#f0f0ce"/><path d="M690 436h13v4h-13z" fill="#f0f0cf"/></g>"     "     <path d="M704 436h5v4h-5z" fill="#f0f0d0" stroke="#787868"/>"     <g stroke="#787869"><path d="M710 436h15v4h-15z" fill="#f0f0d2"/><path d="M726 436h21v4h-21z" fill="#f0f0d3"/></g>"     "     <g stroke="#78786a"><path d="M748 436h19v4h-19z" fill="#f0f0d4"/><path d="M768 436h29v4h-29z" fill="#f0f0d5"/></g>"     "     <path d="M798 436h29v4h-29z" fill="#f0f0d6" stroke="#78786b"/>"     <g stroke="#78786c"><path d="M828 436h30v4h-30z" fill="#f0f0d8"/><path d="M859 436h26v4h-26z" fill="#f0f0d9"/></g>"     "     <g stroke="#78786d"><path d="M886 436h22v4h-22z" fill="#f0f0da"/><path d="M909 436h7v4h-7z" fill="#f0f0db"/></g>"     "     <path d="M917 436h24v4h-24z" fill="#f0f0dc" stroke="#78786e"/>"     <g stroke="#78786f"><path d="M942 436h9v4h-9z" fill="#f0f0de"/><path d="M952 436h5v4h-5z" fill="#f0f0df"/></g>"     "     <g stroke="#787870"><path d="M958 436h7v4h-7z" fill="#f0f0e0"/><path d="M966 436h13v4h-13z" fill="#f0f0e1"/></g>"     "     <path d="M980 436h22v4h-22z" fill="#f0f0e2" stroke="#787871"/>"     <g stroke="#787872"><path d="M1003 436h6v4h-6z" fill="#f0f0e4"/><path d="M1010 436h9v4h-9z" fill="#f0f0e5"/></g>"     "     <g stroke="#787873"><path d="M557 464h22v4h-22z" fill="#f0f0e6"/><path d="M580 464h22v4h-22z" fill="#f0f0e7"/></g>"     "     <path d="M603 464h22v4h-22z" fill="#f0f0e8" stroke="#787874"/>"     <g stroke="#787875"><path d="M626 464h16v4h-16z" fill="#f0f0ea"/><path d="M643 464h26v4h-26z" fill="#f0f0eb"/></g>"     "     <g stroke="#787876"><path d="M670 464h16v4h-16z" fill="#f0f0ec"/><path d="M687 464h15v4h-15z" fill="#f0f0ed"/></g>"     "     <path d="M703 464h13v4h-13z" fill="#f0f0ee" stroke="#787877"/>"     <text y="526" font-size="12" fill="#000" x="0"> MaxRectsBin(size: 1024x512, choice: WorstShortSideFit, method: LongerLeftoverAxis): inserted 481 of 1536 rectangles with w/h lengths between [2, 31], occupancy: 7.99% </text></svg>