<svg xmlns="http://www.w3.org/2000/svg" viewBox="0 0 1024 536" xmlns:v="https://vecta.io/nano"><path d="M0 0h1024v512H0z" fill="#fff" stroke="#000"/>"     <path d="M1 1h1v1H1zm2 0h2v1H3z" fill="#303030" stroke="#181818"/>"     "     <path d="M6 1h2v1H6zm3 0h1v2H9z" stroke="#181818" fill="#303130"/>"     "     <path d="M11 1h2v1h-2zm3 0h3v1h-3z" fill="#303230" stroke="#181918"/>"     "     <path d="M18 1h1v3h-1zm2 0h1v3h-1z" stroke="#181918" fill="#303330"/>"     "     <path d="M22 1h3v1h-3zm4 0h1v3h-1z" fill="#303430" stroke="#181a18"/>"     "     <path d="M28 1h2v2h-2zm3 0h2v2h-2z" stroke="#181a18" fill="#303530"/>"     "     <path d="M34 1h1v4h-1zm2 0h1v4h-1z" fill="#303630" stroke="#181b18"/>"     "     <path d="M38 1h4v1h-4z" fill="#303730" stroke="#181b18"/>"     <path d="M43 1h1v4h-1zm2 0h5v1h-5z" fill="#303830" stroke="#181c18"/>"     "     <path d="M51 1h3v2h-3zm4 0h5v1h-5z" stroke="#181c18" fill="#303930"/>"     "     <path d="M61 1h3v2h-3zm4 0h5v1h-5z" fill="#303a30" stroke="#181d18"/>"     "     <path d="M71 1h5v1h-5zm6 0h2v3h-2z" stroke="#181d18" fill="#303b30"/>"     "     <path d="M80 1h6v1h-6zm7 0h6v1h-6z" fill="#303c30" stroke="#181e18"/>"     "     <path d="M94 1h1v6h-1zm2 0h1v7h-1z" stroke="#181e18" fill="#303d30"/>"     "     <g stroke="#181f18"><path d="M98 1h1v7h-1z" fill="#303e30"/><path d="M100 1h7v1h-7zm8 0h1v7h-1z" fill="#303f30"/></g>"     "     "     <path d="M110 1h5v2h-5zm6 0h1v8h-1z" fill="#304030" stroke="#182018"/>"     "     <path d="M118 1h5v2h-5zm6 0h2v5h-2z" stroke="#182018" fill="#304130"/>"     "     <path d="M127 1h2v5h-2zm3 0h2v5h-2z" fill="#304230" stroke="#182118"/>"     "     <path d="M133 1h5v2h-5zm6 0h3v4h-3z" stroke="#182118" fill="#304330"/>"     "     <path d="M143 1h4v3h-4zm5 0h2v6h-2z" fill="#304430" stroke="#182218"/>"     "     <path d="M151 1h6v2h-6zm7 0h6v2h-6z" stroke="#182218" fill="#304530"/>"     "     <g stroke="#182318"><path d="M165 1h6v2h-6z" fill="#304630"/><path d="M172 1h2v6h-2zm3 0h10v1h-10z" fill="#304730"/></g>"     "     "     <path d="M186 1h10v1h-10zm11 0h11v1h-11z" fill="#304830" stroke="#182418"/>"     "     <path d="M209 1h2v7h-2zm3 0h1v11h-1z" stroke="#182418" fill="#304930"/>"     "     <path d="M214 1h5v3h-5zm6 0h7v2h-7z" fill="#304a30" stroke="#182518"/>"     "     <path d="M228 1h3v5h-3zm4 0h2v7h-2z" stroke="#182518" fill="#304b30"/>"     "     <path d="M235 1h11v1h-11zm12 0h1v12h-1z" fill="#304c30" stroke="#182618"/>"     "     <path d="M249 1h12v1h-12z" fill="#304d30" stroke="#182618"/>"     <path d="M262 1h1v12h-1zm2 0h12v1h-12z" fill="#304e30" stroke="#182718"/>"     "     <path d="M277 1h1v12h-1zm2 0h12v1h-12z" stroke="#182718" fill="#304f30"/>"     "     <path d="M292 1h12v1h-12zm13 0h12v1h-12z" fill="#305030" stroke="#182818"/>"     "     <path d="M318 1h12v1h-12zm13 0h8v2h-8z" stroke="#182818" fill="#305130"/>"     "     <path d="M340 1h2v8h-2zm3 0h1v13h-1z" fill="#305230" stroke="#182918"/>"     "     <path d="M345 1h13v1h-13zm14 0h6v3h-6z" stroke="#182918" fill="#305330"/>"     "     <path d="M366 1h3v6h-3zm4 0h6v3h-6z" fill="#305430" stroke="#182a18"/>"     "     <path d="M377 1h6v3h-6z" fill="#305530" stroke="#182a18"/>"     <path d="M384 1h3v6h-3zm4 0h6v3h-6z" fill="#305630" stroke="#182b18"/>"     "     <path d="M395 1h1v13h-1zm2 0h9v2h-9z" stroke="#182b18" fill="#305730"/>"     "     <path d="M407 1h5v4h-5zm6 0h4v5h-4z" fill="#305830" stroke="#182c18"/>"     "     <path d="M418 1h1v14h-1zm2 0h1v14h-1z" stroke="#182c18" fill="#305930"/>"     "     <path d="M422 1h4v5h-4zm5 0h14v1h-14z" fill="#305a30" stroke="#182d18"/>"     "     <path d="M442 1h9v2h-9zm10 0h2v9h-2z" stroke="#182d18" fill="#305b30"/>"     "     <g stroke="#182e18"><path d="M455 1h1v14h-1z" fill="#305c30"/><path d="M457 1h4v5h-4zm5 0h9v2h-9z" fill="#305d30"/></g>"     "     "     <path d="M472 1h1v14h-1zm2 0h5v4h-5z" fill="#305e30" stroke="#182f18"/>"     "     <path d="M480 1h1v15h-1zm2 0h1v15h-1z" stroke="#182f18" fill="#305f30"/>"     "     <path d="M484 1h15v1h-15zm16 0h7v3h-7z" fill="#306030" stroke="#183018"/>"     "     <path d="M508 1h3v7h-3zm4 0h15v1h-15z" stroke="#183018" fill="#306130"/>"     "     <path d="M512 3h1v15h-1zm2 0h1v15h-1z" fill="#306230" stroke="#183118"/>"     "     <path d="M516 3h1v15h-1zm2 0h7v3h-7z" stroke="#183118" fill="#306330"/>"     "     <g stroke="#183218"><path d="M518 7h10v2h-10z" fill="#306430"/><path d="M518 10h2v10h-2zm3 0h1v16h-1z" fill="#306530"/></g>"     "     "     <path d="M523 10h16v1h-16zm0 2h6v4h-6z" fill="#306630" stroke="#183318"/>"     "     <path d="M523 17h2v11h-2zm3 0h11v2h-11z" stroke="#183318" fill="#306730"/>"     "     <path d="M526 20h1v17h-1zm2 0h1v17h-1z" fill="#306830" stroke="#183418"/>"     "     <path d="M530 20h5v5h-5zm6 0h8v3h-8z" stroke="#183418" fill="#306930"/>"     "     <path d="M536 24h3v8h-3zm4 0h3v8h-3z" fill="#306a30" stroke="#183518"/>"     "     <path d="M544 24h5v5h-5z" fill="#306b30" stroke="#183518"/>"     <path d="M544 30h3v8h-3zm4 0h17v1h-17z" fill="#306c30" stroke="#183618"/>"     "     <path d="M548 32h18v1h-18zm0 2h2v12h-2z" stroke="#183618" fill="#306d30"/>"     "     <path d="M551 34h12v2h-12zm0 3h12v2h-12z" fill="#306e30" stroke="#183718"/>"     "     <path d="M551 40h9v3h-9zm0 4h19v1h-19z" stroke="#183718" fill="#306f30"/>"     "     <path d="M551 46h1v19h-1zm2 0h7v4h-7z" fill="#307030" stroke="#183818"/>"     "     <path d="M561 46h3v9h-3zm4 0h1v19h-1z" stroke="#183818" fill="#307130"/>"     "     <path d="M567 46h1v19h-1zm2 0h4v7h-4z" fill="#307230" stroke="#183918"/>"     "     <path d="M569 54h19v1h-19z" fill="#307330" stroke="#183918"/>"     <path d="M569 56h9v3h-9zm0 4h19v1h-19z" fill="#307430" stroke="#183a18"/>"     "     <path d="M569 62h19v1h-19zm0 2h7v4h-7z" stroke="#183a18" fill="#307530"/>"     "     <path d="M577 64h4v7h-4zm5 0h13v2h-13z" fill="#307630" stroke="#183b18"/>"     "     <path d="M582 67h13v2h-13zm0 3h5v6h-5z" stroke="#183b18" fill="#307730"/>"     "     <path d="M588 70h13v2h-13zm0 3h20v1h-20z" fill="#307830" stroke="#183c18"/>"     "     <path d="M588 75h1v20h-1zm2 0h2v13h-2z" stroke="#183c18" fill="#307930"/>"     "     <g stroke="#183d18"><path d="M593 75h5v6h-5z" fill="#307a30"/><path d="M593 82h2v13h-2zm3 0h3v10h-3z" fill="#307b30"/></g>"     "     "     <path d="M600 82h3v10h-3zm4 0h3v10h-3z" fill="#307c30" stroke="#183e18"/>"     "     <path d="M596 93h1v21h-1zm2 0h1v21h-1z" stroke="#183e18" fill="#307d30"/>"     "     <path d="M600 93h1v21h-1zm2 0h3v10h-3z" fill="#307e30" stroke="#183f18"/>"     "     <path d="M606 93h3v10h-3zm4 0h21v1h-21z" stroke="#183f18" fill="#307f30"/>"     "     <path d="M610 95h2v14h-2zm3 0h8v4h-8z" fill="#308030" stroke="#184018"/>"     "     <path d="M613 100h14v2h-14zm0 3h2v14h-2z" stroke="#184018" fill="#308130"/>"     "     <g stroke="#184118"><path d="M616 103h4v8h-4z" fill="#308230"/><path d="M621 103h14v2h-14zm0 3h22v1h-22z" fill="#308330"/></g>"     "     "     <path d="M621 108h1v22h-1zm2 0h22v1h-22z" fill="#308430" stroke="#184218"/>"     "     <path d="M623 110h1v22h-1zm2 0h1v23h-1z" stroke="#184218" fill="#308530"/>"     "     <path d="M627 110h11v3h-11zm0 4h7v5h-7z" fill="#308630" stroke="#184318"/>"     "     <path d="M627 120h5v7h-5zm6 0h1v23h-1z" stroke="#184318" fill="#308730"/>"     "     <path d="M635 114h1v23h-1zm2 0h23v1h-23z" fill="#308830" stroke="#184418"/>"     "     <path d="M637 116h11v3h-11z" fill="#308930" stroke="#184418"/>"     <path d="M637 120h5v7h-5zm0 8h2v15h-2z" fill="#308a30" stroke="#184518"/>"     "     <path d="M640 128h15v2h-15zm0 3h23v1h-23z" stroke="#184518" fill="#308b30"/>"     "     <path d="M640 133h3v11h-3zm4 0h2v15h-2z" fill="#308c30" stroke="#184618"/>"     "     <path d="M647 133h23v1h-23zm0 2h3v11h-3z" stroke="#184618" fill="#308d30"/>"     "     <path d="M651 135h7v5h-7zm0 6h5v7h-5z" fill="#308e30" stroke="#184718"/>"     "     <path d="M657 141h6v6h-6zm0 7h4v9h-4z" stroke="#184718" fill="#308f30"/>"     "     <path d="M662 148h4v9h-4zm5 0h4v9h-4z" fill="#309030" stroke="#184818"/>"     "     <path d="M657 158h9v4h-9z" fill="#309130" stroke="#184818"/>"     <path d="M667 158h9v4h-9zm-10 5h1v24h-1z" fill="#309230" stroke="#184918"/>"     "     <path d="M659 163h16v2h-16zm17 0h3v12h-3z" stroke="#184918" fill="#309330"/>"     "     <path d="M680 163h3v12h-3zm4 0h12v3h-12z" fill="#309430" stroke="#184a18"/>"     "     <path d="M684 167h12v3h-12zm0 4h8v5h-8z" stroke="#184a18" fill="#309530"/>"     "     <path d="M684 177h8v5h-8zm9-6h5v8h-5z" fill="#309630" stroke="#184b18"/>"     "     <path d="M693 180h1v26h-1zm2 0h1v26h-1z" stroke="#184b18" fill="#309730"/>"     "     <g stroke="#184c18"><path d="M697 180h17v2h-17z" fill="#309830"/><path d="M697 183h1v26h-1zm2 0h10v4h-10z" fill="#309930"/></g>"     "     "     <path d="M699 188h3v13h-3zm4 0h27v1h-27z" fill="#309a30" stroke="#184d18"/>"     "     <path d="M703 190h1v27h-1zm2 0h6v7h-6z" stroke="#184d18" fill="#309b30"/>"     "     <path d="M705 198h27v1h-27zm0 2h3v13h-3z" fill="#309c30" stroke="#184e18"/>"     "     <path d="M709 200h13v3h-13zm0 4h6v7h-6z" stroke="#184e18" fill="#309d30"/>"     "     <path d="M716 204h3v13h-3zm4 0h13v3h-13z" fill="#309e30" stroke="#184f18"/>"     "     <path d="M720 208h3v13h-3zm4 0h7v6h-7z" stroke="#184f18" fill="#309f30"/>"     "     <g stroke="#185018"><path d="M724 215h13v3h-13z" fill="#30a030"/><path d="M724 219h27v1h-27zm0 2h6v7h-6z" fill="#30a130"/></g>"     "     "     <path d="M731 221h27v1h-27zm0 2h2v18h-2z" fill="#30a230" stroke="#185118"/>"     "     <path d="M734 223h18v2h-18zm0 3h18v2h-18z" stroke="#185118" fill="#30a330"/>"     "     <path d="M734 229h18v2h-18zm0 3h18v2h-18z" fill="#30a430" stroke="#185218"/>"     "     <path d="M734 235h28v1h-28zm0 2h28v1h-28z" stroke="#185218" fill="#30a530"/>"     "     <path d="M734 239h11v4h-11zm12 0h19v2h-19z" fill="#30a630" stroke="#185318"/>"     "     <path d="M746 242h11v4h-11z" fill="#30a730" stroke="#185318"/>"     <path d="M758 242h19v2h-19zm0 3h4v11h-4z" fill="#30a830" stroke="#185418"/>"     "     <path d="M763 245h19v2h-19zm0 3h2v19h-2z" stroke="#185418" fill="#30a930"/>"     "     <path d="M766 248h14v3h-14zm0 4h3v14h-3z" fill="#30aa30" stroke="#185518"/>"     "     <path d="M770 252h9v5h-9zm0 6h19v2h-19z" stroke="#185518" fill="#30ab30"/>"     "     <path d="M770 261h19v2h-19zm0 3h3v14h-3z" fill="#30ac30" stroke="#185618"/>"     "     <path d="M774 264h1v30h-1zm2 0h30v1h-30z" stroke="#185618" fill="#30ad30"/>"     "     <path d="M776 266h2v20h-2zm3 0h20v2h-20z" fill="#30ae30" stroke="#185718"/>"     "     <path d="M779 269h6v8h-6z" fill="#30af30" stroke="#185718"/>"     <path d="M786 269h2v20h-2zm3 0h6v8h-6z" fill="#30b030" stroke="#185818"/>"     "     <path d="M789 278h7v7h-7zm8 0h15v3h-15z" stroke="#185818" fill="#30b130"/>"     "     <path d="M797 282h3v15h-3zm4 0h3v15h-3z" fill="#30b230" stroke="#185918"/>"     "     <path d="M805 282h4v12h-4zm0 13h4v12h-4z" stroke="#185918" fill="#30b330"/>"     "     <path d="M810 282h2v21h-2zm3-4h10v5h-10z" fill="#30b430" stroke="#185a18"/>"     "     <path d="M813 284h21v2h-21zm0 3h21v2h-21z" stroke="#185a18" fill="#30b530"/>"     "     <g stroke="#185b18"><path d="M813 290h2v21h-2z" fill="#30b630"/><path d="M816 290h2v21h-2zm3 0h21v2h-21z" fill="#30b730"/></g>"     "     "     <path d="M819 293h21v2h-21zm0 3h3v16h-3z" fill="#30b830" stroke="#185c18"/>"     "     <path d="M823 296h2v22h-2zm3 0h2v22h-2z" stroke="#185c18" fill="#30b930"/>"     "     <path d="M829 296h6v9h-6zm0 10h13v4h-13z" fill="#30ba30" stroke="#185d18"/>"     "     <path d="M829 311h13v4h-13zm0 5h13v4h-13z" stroke="#185d18" fill="#30bb30"/>"     "     <path d="M829 321h4v13h-4zm5 0h3v17h-3z" fill="#30bc30" stroke="#185e18"/>"     "     <path d="M838 321h11v5h-11zm0 6h5v11h-5z" stroke="#185e18" fill="#30bd30"/>"     "     <g stroke="#185f18"><path d="M844 327h3v17h-3z" fill="#30be30"/><path d="M848 327h2v23h-2zm3 0h23v2h-23z" fill="#30bf30"/></g>"     "     "     <path d="M851 330h17v3h-17zm0 4h17v3h-17z" fill="#30c030" stroke="#186018"/>"     "     <path d="M851 338h8v7h-8zm0 8h2v23h-2z" stroke="#186018" fill="#30c130"/>"     "     <path d="M854 346h7v8h-7zm8 0h7v8h-7z" fill="#30c230" stroke="#186118"/>"     "     <path d="M854 355h11v5h-11zM279 3h2v23h-2z" stroke="#186118" fill="#30c330"/>"     "     <path d="M279 27h8v7h-8zm587 328h24v2h-24z" fill="#30c430" stroke="#186218"/>"     "     <path d="M279 35h24v2h-24z" fill="#30c530" stroke="#186218"/>"     <path d="M304 35h26v2h-26zm-25 3h4v14h-4z" fill="#30c630" stroke="#186318"/>"     "     <path d="M866 358h2v24h-2zm3 0h14v4h-14z" stroke="#186318" fill="#30c730"/>"     "     <path d="M279 53h2v24h-2zm590 310h2v24h-2z" fill="#30c830" stroke="#186418"/>"     "     <path d="M872 363h18v3h-18zM279 78h3v18h-3z" stroke="#186418" fill="#30c930"/>"     "     <path d="M872 367h3v18h-3zm4 0h18v3h-18z" fill="#30ca30" stroke="#186518"/>"     "     <path d="M279 97h18v3h-18zm0 4h3v18h-3z" stroke="#186518" fill="#30cb30"/>"     "     <path d="M876 371h6v10h-6zM279 120h6v10h-6z" fill="#30cc30" stroke="#186618"/>"     "     <path d="M883 371h10v6h-10z" fill="#30cd30" stroke="#186618"/>"     <path d="M279 131h6v10h-6zm0 11h5v12h-5z" fill="#30ce30" stroke="#186718"/>"     "     <path d="M883 378h25v2h-25zm0 3h12v5h-12z" stroke="#186718" fill="#30cf30"/>"     "     <path d="M279 155h12v5h-12zm0 6h2v25h-2z" fill="#30d030" stroke="#186818"/>"     "     <path d="M175 3h15v4h-15zm16 0h17v4h-17z" stroke="#186818" fill="#30d130"/>"     "     <path d="M172 8h7v9h-7zm8 0h28v9h-28z" fill="#30d230" stroke="#186918"/>"     "     <path d="M172 18h3v19h-3zm0 20h3v19h-3z" stroke="#186918" fill="#30d330"/>"     "     <g stroke="#186a18"><path d="M896 381h15v4h-15z" fill="#30d430"/><path d="M279 187h9v7h-9zM172 58h8v8h-8z" fill="#30d530"/></g>"     "     "     <path d="M181 58h27v8h-27zm98 137h26v2h-26z" fill="#30d630" stroke="#186b18"/>"     "     <path d="M172 67h8v8h-8zm9 0h27v8h-27z" stroke="#186b18" fill="#30d730"/>"     "     <path d="M896 386h11v6h-11zM279 198h11v6h-11z" fill="#30d830" stroke="#186c18"/>"     "     <path d="M172 76h20v3h-20zm0 4h27v2h-27z" stroke="#186c18" fill="#30d930"/>"     "     <path d="M279 205h5v13h-5zM172 83h11v6h-11z" fill="#30da30" stroke="#186d18"/>"     "     <path d="M184 83h24v6h-24zm-12 7h11v6h-11z" stroke="#186d18" fill="#30db30"/>"     "     <g stroke="#186e18"><path d="M184 90h24v6h-24z" fill="#30dc30"/><path d="M896 393h3v20h-3zM172 97h20v3h-20z" fill="#30dd30"/></g>"     "     "     <path d="M279 219h5v13h-5zM172 101h20v3h-20z" fill="#30de30" stroke="#186f18"/>"     "     <path d="M193 97h15v7h-15zm-21 8h3v20h-3z" stroke="#186f18" fill="#30df30"/>"     "     <path d="M900 393h2v27h-2zm3 0h16v4h-16z" fill="#30e030" stroke="#187018"/>"     "     <path d="M279 233h16v4h-16zM172 126h16v4h-16z" stroke="#187018" fill="#30e130"/>"     "     <path d="M189 126h19v4h-19zm90 112h2v28h-2z" fill="#30e230" stroke="#187118"/>"     "     <path d="M172 131h2v28h-2z" fill="#30e330" stroke="#187118"/>"     <path d="M903 398h28v2h-28zm0 3h28v2h-28z" fill="#30e430" stroke="#187218"/>"     "     <path d="M903 404h7v10h-7zM172 160h10v7h-10z" stroke="#187218" fill="#30e530"/>"     "     <path d="M183 160h25v7h-25zm96 107h21v3h-21z" fill="#30e630" stroke="#187318"/>"     "     <path d="M301 267h29v3h-29zm-129-99h3v21h-3z" stroke="#187318" fill="#30e730"/>"     "     <path d="M279 271h5v14h-5zm632 133h8v9h-8z" fill="#30e830" stroke="#187418"/>"     "     <path d="M172 190h8v9h-8zm9 0h27v9h-27z" stroke="#187418" fill="#30e930"/>"     "     <path d="M279 286h8v9h-8zm-107-86h14v5h-14z" fill="#30ea30" stroke="#187518"/>"     "     <path d="M187 200h21v5h-21z" fill="#30eb30" stroke="#187518"/>"     <path d="M920 404h4v17h-4zM172 206h4v17h-4z" fill="#30ec30" stroke="#187618"/>"     "     <path d="M279 296h5v14h-5zm646 108h8v9h-8z" stroke="#187618" fill="#30ed30"/>"     "     <path d="M172 224h29v2h-29zM151 4h6v12h-6z" fill="#30ee30" stroke="#187718"/>"     "     <path d="M158 4h13v12h-13zm14 223h22v3h-22z" stroke="#187718" fill="#30ef30"/>"     "     <path d="M279 311h3v22h-3zm-107-80h3v22h-3z" fill="#30f030" stroke="#187818"/>"     "     <path d="M151 17h2v30h-2zm3 0h17v30h-17z" stroke="#187818" fill="#31f030"/>"     "     <g stroke="#197818"><path d="M925 414h30v2h-30z" fill="#32f030"/><path d="M151 48h2v30h-2zm3 0h17v30h-17z" fill="#33f030"/></g>"     "     "     <path d="M925 417h30v2h-30zM172 254h4v18h-4z" fill="#34f030" stroke="#1a7818"/>"     "     <path d="M279 334h4v18h-4zm646 86h15v5h-15z" stroke="#1a7818" fill="#35f030"/>"     "     <path d="M151 79h15v5h-15zm0 6h5v15h-5z" fill="#36f030" stroke="#1b7818"/>"     "     <path d="M157 85h14v15h-14zm15 188h5v15h-5z" stroke="#1b7818" fill="#37f030"/>"     "     <path d="M178 273h30v15h-30zm747 153h7v11h-7z" fill="#38f030" stroke="#1c7818"/>"     "     <path d="M151 101h3v23h-3z" fill="#39f030" stroke="#1c7818"/>"     <path d="M155 101h16v23h-16zm124 252h23v3h-23z" fill="#3af030" stroke="#1d7818"/>"     "     <path d="M303 353h27v3h-27zm-131-64h23v3h-23z" stroke="#1d7818" fill="#3bf030"/>"     "     <path d="M484 3h5v15h-5zm6 0h9v15h-9z" fill="#3cf030" stroke="#1e7818"/>"     "     <path d="M151 125h15v5h-15zm21 168h5v15h-5z" stroke="#1e7818" fill="#3df030"/>"     "     <path d="M178 293h30v15h-30zm101 64h6v13h-6z" fill="#3ef030" stroke="#1f7818"/>"     "     <path d="M151 131h13v6h-13zm782 295h13v6h-13z" stroke="#1f7818" fill="#3ff030"/>"     "     <path d="M484 19h6v13h-6zm7 0h8v13h-8z" fill="#40f030" stroke="#207818"/>"     "     <path d="M151 138h8v10h-8z" fill="#41f030" stroke="#207818"/>"     <path d="M160 138h11v10h-11zM484 33h10v8h-10z" fill="#42f030" stroke="#217818"/>"     "     <path d="M427 3h9v9h-9zM151 149h3v24h-3z" stroke="#217818" fill="#43f030"/>"     "     <path d="M172 309h3v24h-3zM484 42h4v19h-4z" fill="#44f030" stroke="#227818"/>"     "     <path d="M489 42h10v19h-10zm-62-29h3v24h-3z" stroke="#227818" fill="#45f030"/>"     "     <path d="M431 13h10v24h-10zM279 371h5v16h-5z" fill="#46f030" stroke="#237818"/>"     "     <path d="M933 433h16v5h-16zM484 62h5v16h-5z" stroke="#237818" fill="#47f030"/>"     "     <g stroke="#247818"><path d="M490 62h9v16h-9z" fill="#48f030"/><path d="M80 3h7v12h-7zm265 0h3v25h-3z" fill="#49f030"/></g>"     "     "     <path d="M349 3h9v25h-9zm78 35h12v7h-12z" fill="#4af030" stroke="#257818"/>"     "     <path d="M151 174h3v25h-3zM370 5h3v25h-3z" stroke="#257818" fill="#4bf030"/>"     "     <path d="M374 5h9v25h-9zm53 41h3v25h-3z" fill="#4cf030" stroke="#267818"/>"     "     <path d="M431 46h10v25h-10zM80 16h7v12h-7z" stroke="#267818" fill="#4df030"/>"     "     <path d="M88 3h5v25h-5zm396 76h3v25h-3z" fill="#4ef030" stroke="#277818"/>"     "     <path d="M488 79h11v25h-11zM345 29h12v7h-12z" stroke="#277818" fill="#4ff030"/>"     "     <g stroke="#287818"><path d="M80 29h7v12h-7z" fill="#50f030"/><path d="M370 31h6v14h-6zm7 0h6v14h-6z" fill="#51f030"/></g>"     "     "     <path d="M345 37h6v14h-6zM249 3h11v8h-11z" fill="#52f030" stroke="#297818"/>"     "     <path d="M264 3h3v26h-3zm4 0h8v26h-8z" stroke="#297818" fill="#53f030"/>"     "     <path d="M172 334h3v26h-3zM427 72h11v8h-11z" fill="#54f030" stroke="#2a7818"/>"     "     <path d="M80 42h3v26h-3zm4 0h9v26h-9z" stroke="#2a7818" fill="#55f030"/>"     "     <path d="M151 200h3v26h-3zM370 46h11v8h-11z" fill="#56f030" stroke="#2b7818"/>"     "     <path d="M484 105h3v26h-3z" fill="#57f030" stroke="#2b7818"/>"     <path d="M488 105h11v26h-11zM249 12h10v9h-10z" fill="#58f030" stroke="#2c7818"/>"     "     <path d="M279 388h10v9h-10zM427 81h4v21h-4z" stroke="#2c7818" fill="#59f030"/>"     "     <path d="M432 81h9v21h-9zm-87-29h9v10h-9z" fill="#5af030" stroke="#2d7818"/>"     "     <path d="M370 55h10v9h-10zM249 22h3v27h-3z" stroke="#2d7818" fill="#5bf030"/>"     "     <path d="M253 22h8v27h-8zm92 41h6v15h-6z" fill="#5cf030" stroke="#2e7818"/>"     "     <path d="M352 63h6v15h-6zm-88-33h3v27h-3z" stroke="#2e7818" fill="#5df030"/>"     "     <path d="M268 30h8v27h-8zm102 35h3v27h-3z" fill="#5ef030" stroke="#2f7818"/>"     "     <path d="M374 65h9v27h-9z" fill="#5ff030" stroke="#2f7818"/>"     <path d="M80 69h3v27h-3zm4 0h9v27h-9z" fill="#60f030" stroke="#307818"/>"     "     <path d="M427 103h7v13h-7zM65 3h3v27h-3z" stroke="#307818" fill="#61f030"/>"     "     <path d="M69 3h7v27h-7zm166 0h5v18h-5z" fill="#62f030" stroke="#317818"/>"     "     <path d="M484 132h4v22h-4zm5 0h10v22h-10z" stroke="#317818" fill="#63f030"/>"     "     <path d="M345 79h4v22h-4zm5 0h8v22h-8z" fill="#64f030" stroke="#327818"/>"     "     <path d="M249 50h4v22h-4zm5 0h7v22h-7z" stroke="#327818" fill="#65f030"/>"     "     <g stroke="#337818"><path d="M151 227h4v22h-4z" fill="#66f030"/><path d="M156 227h15v22h-15zm794 206h22v4h-22z" fill="#67f030"/></g>"     "     "     <path d="M279 398h22v4h-22zm23 0h28v4h-28z" fill="#68f030" stroke="#347818"/>"     "     <path d="M427 117h4v22h-4zm5 0h9v22h-9z" stroke="#347818" fill="#69f030"/>"     "     <path d="M264 58h3v28h-3zm4 0h8v28h-8z" fill="#6af030" stroke="#357818"/>"     "     <path d="M659 166h3v28h-3zm4 0h12v28h-12z" stroke="#357818" fill="#6bf030"/>"     "     <path d="M235 22h3v28h-3zm4 0h7v28h-7z" fill="#6cf030" stroke="#367818"/>"     "     <path d="M370 93h3v28h-3zM80 97h3v28h-3z" stroke="#367818" fill="#6df030"/>"     "     <g stroke="#377818"><path d="M65 31h8v12h-8z" fill="#6ef030"/><path d="M345 102h12v8h-12zm139 53h8v12h-8z" fill="#6ff030"/></g>"     "     "     <path d="M249 73h8v12h-8zm30 330h16v6h-16z" fill="#70f030" stroke="#387818"/>"     "     <path d="M65 44h6v16h-6zm280 67h6v16h-6z" stroke="#387818" fill="#71f030"/>"     "     <path d="M950 438h23v4h-23zm-778-77h9v11h-9z" fill="#72f030" stroke="#397818"/>"     "     <path d="M182 361h26v11h-26zm245-221h7v14h-7z" stroke="#397818" fill="#73f030"/>"     "     <path d="M249 86h3v29h-3zm4 0h8v29h-8z" fill="#74f030" stroke="#3a7818"/>"     "     <path d="M235 51h3v29h-3z" fill="#75f030" stroke="#3a7818"/>"     <path d="M239 51h7v29h-7zm25 36h5v19h-5z" fill="#76f030" stroke="#3b7818"/>"     "     <path d="M270 87h6v19h-6zM151 250h11v9h-11z" stroke="#3b7818" fill="#77f030"/>"     "     <path d="M484 168h14v7h-14zm-114-46h11v9h-11z" fill="#78f030" stroke="#3c7818"/>"     "     <path d="M65 61h4v23h-4zm5 0h6v23h-6z" stroke="#3c7818" fill="#79f030"/>"     "     <path d="M80 126h7v14h-7zm579 69h11v9h-11z" fill="#7af030" stroke="#3d7818"/>"     "     <path d="M484 176h3v29h-3zm4 0h11v29h-11z" stroke="#3d7818" fill="#7bf030"/>"     "     <path d="M345 128h5v19h-5zm6 0h7v19h-7z" fill="#7cf030" stroke="#3e7818"/>"     "     <path d="M427 155h5v19h-5z" fill="#7df030" stroke="#3e7818"/>"     <path d="M433 155h8v19h-8zM279 410h10v10h-10z" fill="#7ef030" stroke="#3f7818"/>"     "     <path d="M370 132h10v10h-10zM151 260h3v30h-3z" stroke="#3f7818" fill="#7ff030"/>"     "     <path d="M155 260h16v30h-16zm109-153h3v30h-3z" fill="#80f030" stroke="#407818"/>"     "     <path d="M268 107h8v30h-8zm682 336h30v3h-30z" stroke="#407818" fill="#81f030"/>"     "     <path d="M659 205h3v30h-3zm4 0h12v30h-12z" fill="#82f030" stroke="#417818"/>"     "     <path d="M80 141h3v30h-3zm4 0h9v30h-9z" stroke="#417818" fill="#83f030"/>"     "     <g stroke="#427818"><path d="M235 81h3v30h-3z" fill="#84f030"/><path d="M239 81h7v30h-7zm-67 292h30v3h-30z" fill="#85f030"/></g>"     "     "     <path d="M370 143h4v24h-4zm5 0h8v24h-8z" fill="#86f030" stroke="#437818"/>"     "     <path d="M249 116h4v24h-4zm5 0h7v24h-7z" stroke="#437818" fill="#87f030"/>"     "     <path d="M65 85h5v20h-5zm6 0h5v20h-5z" fill="#88f030" stroke="#447818"/>"     "     <path d="M345 148h8v13h-8zM397 4h6v17h-6z" stroke="#447818" fill="#89f030"/>"     "     <path d="M442 4h8v13h-8zm20 0h5v20h-5z" fill="#8af030" stroke="#457818"/>"     "     <path d="M427 175h7v15h-7zM172 377h4v25h-4z" stroke="#457818" fill="#8bf030"/>"     "     <g stroke="#467818"><path d="M950 447h12v9h-12z" fill="#8cf030"/><path d="M442 18h9v12h-9zm-97 144h4v25h-4z" fill="#8df030"/></g>"     "     "     <path d="M350 162h8v25h-8zm134 44h12v9h-12z" fill="#8ef030" stroke="#477818"/>"     "     <path d="M397 22h5v21h-5zM65 106h11v10H65z" stroke="#477818" fill="#8ff030"/>"     "     <path d="M462 25h5v21h-5zM264 138h10v11h-10z" fill="#90f030" stroke="#487818"/>"     "     <path d="M249 141h10v11h-10zm121 27h11v10h-11z" stroke="#487818" fill="#91f030"/>"     "     <path d="M427 191h6v18h-6zm7 0h7v18h-7z" fill="#92f030" stroke="#497818"/>"     "     <path d="M442 31h6v18h-6z" fill="#93f030" stroke="#497818"/>"     <path d="M235 112h6v18h-6zm44 309h6v18h-6z" fill="#94f030" stroke="#4a7818"/>"     "     <path d="M80 172h4v26h-4zm5 0h8v26h-8z" stroke="#4a7818" fill="#95f030"/>"     "     <path d="M65 117h4v26h-4zm5 0h6v26h-6z" fill="#96f030" stroke="#4b7818"/>"     "     <path d="M484 216h4v26h-4zm5 0h10v26h-10z" stroke="#4b7818" fill="#97f030"/>"     "     <path d="M264 150h8v14h-8zm395 86h14v8h-14z" fill="#98f030" stroke="#4c7818"/>"     "     <path d="M397 44h4v26h-4zM249 153h7v16h-7z" stroke="#4c7818" fill="#99f030"/>"     "     <path d="M370 179h7v16h-7zM151 291h16v7h-16z" fill="#9af030" stroke="#4d7818"/>"     "     <path d="M462 47h7v16h-7z" fill="#9bf030" stroke="#4d7818"/>"     <path d="M442 50h7v16h-7zm166 32h22v5h-22z" fill="#9cf030" stroke="#4e7818"/>"     "     <path d="M235 131h5v22h-5zm6 0h5v22h-5z" stroke="#4e7818" fill="#9df030"/>"     "     <path d="M331 4h5v22h-5zm328 241h5v22h-5z" fill="#9ef030" stroke="#4f7818"/>"     "     <path d="M665 245h10v22h-10zM124 7h5v22h-5z" stroke="#4f7818" fill="#9ff030"/>"     "     <path d="M345 188h9v13h-9zm82 22h4v27h-4z" fill="#a0f030" stroke="#507818"/>"     "     <path d="M264 165h6v19h-6zM151 299h13v9h-13z" stroke="#507818" fill="#a1f030"/>"     "     <g stroke="#517818"><path d="M462 64h6v19h-6z" fill="#a2f030"/><path d="M442 67h9v13h-9zM249 170h9v13h-9z" fill="#a3f030"/></g>"     "     "     <path d="M370 196h13v9h-13zM65 144h9v13h-9z" fill="#a4f030" stroke="#527818"/>"     "     <path d="M397 71h5v23h-5zM80 199h10v12H80z" stroke="#527818" fill="#a5f030"/>"     "     <path d="M331 27h7v17h-7zm14 175h12v10h-12z" fill="#a6f030" stroke="#537818"/>"     "     <path d="M124 30h5v23h-5zm507 52h12v10h-12z" stroke="#537818" fill="#a7f030"/>"     "     <path d="M484 243h5v23h-5zm6 0h9v23h-9z" fill="#a8f030" stroke="#547818"/>"     "     <path d="M442 81h5v23h-5zm-207 73h5v23h-5z" stroke="#547818" fill="#a9f030"/>"     "     <g stroke="#557818"><path d="M241 154h5v23h-5z" fill="#aaf030"/><path d="M370 206h7v17h-7zm92-122h8v15h-8z" fill="#abf030"/></g>"     "     "     <path d="M151 309h11v11h-11zm98-125h5v23h-5z" fill="#acf030" stroke="#567818"/>"     "     <path d="M255 184h6v23h-6zm9 1h11v11h-11z" stroke="#567818" fill="#adf030"/>"     "     <path d="M65 158h5v23h-5zm15 54h8v15h-8z" fill="#aef030" stroke="#577818"/>"     "     <path d="M331 45h4v28h-4zm14 168h6v20h-6z" stroke="#577818" fill="#aff030"/>"     "     <path d="M352 213h6v20h-6zM644 82h20v6h-20z" fill="#b0f030" stroke="#587818"/>"     "     <path d="M397 95h6v20h-6z" fill="#b1f030" stroke="#587818"/>"     <path d="M659 268h5v24h-5zm6 0h10v24h-10z" fill="#b2f030" stroke="#597818"/>"     "     <path d="M124 54h5v24h-5zm338 46h4v29h-4z" stroke="#597818" fill="#b3f030"/>"     "     <path d="M467 100h4v29h-4zm-40 138h4v29h-4z" fill="#b4f030" stroke="#5a7818"/>"     "     <path d="M264 197h5v24h-5zm6 0h6v24h-6z" stroke="#5a7818" fill="#b5f030"/>"     "     <path d="M963 447h9v14h-9zM1 3h7v18H1z" fill="#b6f030" stroke="#5b7818"/>"     "     <path d="M100 3h7v18h-7zm342 102h7v18h-7z" stroke="#5b7818" fill="#b7f030"/>"     "     <path d="M220 4h7v18h-7zm-48 399h16v8h-16z" fill="#b8f030" stroke="#5c7818"/>"     "     <path d="M500 5h6v21h-6z" fill="#b9f030" stroke="#5c7818"/>"     <path d="M370 224h8v16h-8zm-219 97h16v8h-16z" fill="#baf030" stroke="#5d7818"/>"     "     <path d="M235 178h8v16h-8zM80 228h8v16h-8z" stroke="#5d7818" fill="#bbf030"/>"     "     <path d="M65 182h8v16h-8zm332-66h8v16h-8z" fill="#bcf030" stroke="#5e7818"/>"     "     <path d="M249 208h10v13h-10zM665 82h13v10h-13z" stroke="#5e7818" fill="#bdf030"/>"     "     <path d="M331 74h6v21h-6zm153 193h4v30h-4z" fill="#bef030" stroke="#5f7818"/>"     "     <path d="M489 267h10v30h-10zM1 22h4v30H1z" stroke="#5f7818" fill="#bff030"/>"     "     <g stroke="#607818"><path d="M100 22h4v30h-4z" fill="#c0f030"/><path d="M220 23h5v25h-5zm125 211h12v11h-12z" fill="#c1f030"/></g>"     "     "     <path d="M124 79h7v19h-7zm318 45h9v15h-9z" fill="#c2f030" stroke="#617818"/>"     "     <path d="M500 27h7v19h-7zM151 330h11v12h-11z" stroke="#617818" fill="#c3f030"/>"     "     <path d="M536 33h7v19h-7zm-74 97h9v15h-9z" fill="#c4f030" stroke="#627818"/>"     "     <path d="M235 195h9v15h-9zm135 46h9v15h-9z" stroke="#627818" fill="#c5f030"/>"     "     <path d="M679 82h22v6h-22zm-282 51h6v22h-6z" fill="#c6f030" stroke="#637818"/>"     "     <path d="M279 440h22v6h-22zm-15-218h5v26h-5z" stroke="#637818" fill="#c7f030"/>"     "     <g stroke="#647818"><path d="M270 222h6v26h-6z" fill="#c8f030"/><path d="M249 222h8v17h-8zM65 199h8v17h-8z" fill="#c9f030"/></g>"     "     "     <path d="M331 96h8v17h-8zM80 245h8v17h-8z" fill="#caf030" stroke="#657818"/>"     "     <path d="M659 293h8v17h-8zm-314-47h8v17h-8z" stroke="#657818" fill="#cbf030"/>"     "     <path d="M172 412h8v17h-8zm9 0h27v17h-27z" fill="#ccf030" stroke="#667818"/>"     "     <path d="M442 140h8v17h-8zM124 99h8v17h-8z" stroke="#667818" fill="#cdf030"/>"     "     <path d="M500 47h5v27h-5zm-280 2h5v27h-5z" fill="#cef030" stroke="#677818"/>"     "     <path d="M553 51h7v20h-7z" fill="#cff030" stroke="#677818"/>"     <path d="M536 53h5v27h-5zM1 53h7v20H1z" fill="#d0f030" stroke="#687818"/>"     "     <path d="M427 268h14v10h-14zM100 53h5v28h-5z" stroke="#687818" fill="#d1f030"/>"     "     <path d="M462 146h9v16h-9zm-227 65h10v14h-10z" fill="#d2f030" stroke="#697818"/>"     "     <path d="M574 46h28v5h-28zm-243 68h8v18h-8z" stroke="#697818" fill="#d3f030"/>"     "     <path d="M370 257h10v14h-10zm-219 86h14v10h-14z" fill="#d4f030" stroke="#6a7818"/>"     "     <path d="M397 156h9v16h-9zM11 3h5v28h-5z" stroke="#6a7818" fill="#d5f030"/>"     "     <path d="M124 117h8v18h-8zm578-35h14v10h-14z" fill="#d6f030" stroke="#6b7818"/>"     "     <path d="M65 217h10v14H65z" fill="#d7f030" stroke="#6b7818"/>"     <path d="M359 5h5v28h-5zm29 0h5v28h-5z" fill="#d8f030" stroke="#6c7818"/>"     "     <path d="M249 240h11v13h-11zm193-82h9v16h-9z" stroke="#6c7818" fill="#d9f030"/>"     "     <path d="M569 69h7v21h-7zm103 79h16v9h-16z" fill="#daf030" stroke="#6d7818"/>"     "     <path d="M553 72h7v21h-7zM427 279h13v11h-13z" stroke="#6d7818" fill="#dbf030"/>"     "     <path d="M1 74h7v21H1zm79 189h13v11H80z" fill="#dcf030" stroke="#6e7818"/>"     "     <path d="M500 75h5v29h-5zm-38 88h9v17h-9z" stroke="#6e7818" fill="#ddf030"/>"     "     <g stroke="#6f7818"><path d="M345 264h11v13h-11z" fill="#def030"/><path d="M220 77h5v29h-5zm316 4h5v29h-5z" fill="#dff030"/></g>"     "     "     <path d="M235 226h11v13h-11zm249 72h11v13h-11z" fill="#e0f030" stroke="#707818"/>"     "     <path d="M100 82h5v29h-5zm559 229h11v13h-11z" stroke="#707818" fill="#e1f030"/>"     "     <path d="M973 447h11v13h-11zM264 249h12v12h-12z" fill="#e2f030" stroke="#717818"/>"     "     <path d="M279 447h12v12h-12zm52-314h6v25h-6z" stroke="#717818" fill="#e3f030"/>"     "     <path d="M397 173h9v17h-9zm320-91h15v10h-15z" fill="#e4f030" stroke="#727818"/>"     "     <path d="M124 136h6v25h-6zm246 136h12v12h-12z" stroke="#727818" fill="#e5f030"/>"     "     <g stroke="#737818"><path d="M442 175h9v17h-9z" fill="#e6f030"/><path d="M65 232h10v15H65zM603 46h25v6h-25z" fill="#e7f030"/></g>"     "     "     <path d="M569 91h7v22h-7zM249 254h10v15h-10z" fill="#e8f030" stroke="#747818"/>"     "     <path d="M11 32h5v30h-5zm678 116h17v9h-17z" stroke="#747818" fill="#e9f030"/>"     "     <path d="M553 94h7v22h-7zM359 34h5v30h-5z" fill="#eaf030" stroke="#757818"/>"     "     <path d="M388 34h5v30h-5zM151 354h15v10h-15z" stroke="#757818" fill="#ebf030"/>"     "     <path d="M80 275h10v15H80zm347 16h10v15h-10z" fill="#ecf030" stroke="#767818"/>"     "     <path d="M1 96h7v22H1z" fill="#edf030" stroke="#767818"/>"     <path d="M462 181h7v22h-7zm-117 97h11v14h-11z" fill="#eef030" stroke="#777818"/>"     "     <path d="M235 240h11v14h-11zm367-136h5v30h-5z" stroke="#777818" fill="#eff030"/>"     "     <path d="M753 223h14v11h-14zm-489 39h11v14h-11z" fill="#f0f030" stroke="#787818"/>"     "     <path d="M500 105h5v30h-5zm-280 2h6v26h-6z" stroke="#787818" fill="#f0f031"/>"     "     <path d="M734 244h10v16h-10zm-337-53h8v20h-8z" fill="#f0f032" stroke="#787819"/>"     "     <path d="M484 312h10v16h-10zm52-201h6v26h-6z" stroke="#787819" fill="#f0f033"/>"     "     <g stroke="#78781a"><path d="M733 82h16v10h-16z" fill="#f0f034"/><path d="M100 112h7v23h-7zm342 81h8v20h-8z" fill="#f0f035"/></g>"     "     "     <path d="M659 325h10v16h-10zm87-78h10v16h-10z" fill="#f0f036" stroke="#78781b"/>"     "     <path d="M370 285h8v20h-8zm199-171h7v23h-7z" stroke="#78781b" fill="#f0f037"/>"     "     <path d="M331 159h8v20h-8zm376-11h18v9h-18z" fill="#f0f038" stroke="#78781c"/>"     "     <path d="M65 248h11v15H65zM629 46h23v7h-23z" stroke="#78781c" fill="#f0f039"/>"     "     <path d="M553 117h7v23h-7zM249 270h11v15h-11z" fill="#f0f03a" stroke="#78781d"/>"     "     <path d="M124 162h6v27h-6zM1 119h6v27H1z" stroke="#78781d" fill="#f0f03b"/>"     "     <g stroke="#78781e"><path d="M11 63h6v27h-6z" fill="#f0f03c"/><path d="M359 65h6v27h-6zm29 0h6v27h-6z" fill="#f0f03d"/></g>"     "     "     <path d="M151 365h11v15h-11zm-71-74h11v15H80z" fill="#f0f03e" stroke="#78781f"/>"     "     <path d="M235 255h11v15h-11zm192 52h14v12h-14z" stroke="#78781f" fill="#f0f03f"/>"     "     <path d="M462 204h8v21h-8zm306 19h17v10h-17z" fill="#f0f040" stroke="#787820"/>"     "     <path d="M345 293h12v14h-12zM172 430h14v12h-14z" stroke="#787820" fill="#f0f041"/>"     "     <path d="M187 430h21v12h-21zm77-153h8v21h-8z" fill="#f0f042" stroke="#787821"/>"     "     <path d="M643 120h24v7h-24z" fill="#f0f043" stroke="#787821"/>"     <path d="M220 134h7v24h-7zm530-52h21v8h-21z" fill="#f0f044" stroke="#787822"/>"     "     <path d="M734 261h8v21h-8zM602 135h7v24h-7z" stroke="#787822" fill="#f0f045"/>"     "     <path d="M500 136h7v24h-7zm-103 76h8v21h-8z" fill="#f0f046" stroke="#787823"/>"     "     <path d="M100 136h7v25h-7zm469 2h7v25h-7z" stroke="#787823" fill="#f0f047"/>"     "     <path d="M536 138h7v25h-7zm-205 42h8v22h-8z" fill="#f0f048" stroke="#787824"/>"     "     <path d="M65 264h11v16H65zm681 0h11v16h-11z" stroke="#787824" fill="#f0f049"/>"     "     <path d="M726 148h25v7h-25zm-284 66h7v25h-7z" fill="#f0f04a" stroke="#787825"/>"     "     <path d="M599 75h29v6h-29z" fill="#f0f04b" stroke="#787825"/>"     <path d="M653 46h25v7h-25zm-100 95h6v29h-6z" fill="#f0f04c" stroke="#787826"/>"     "     <path d="M684 183h6v29h-6zM484 329h13v13h-13z" stroke="#787826" fill="#f0f04d"/>"     "     <path d="M249 286h11v16h-11zM11 91h6v30h-6z" fill="#f0f04e" stroke="#787827"/>"     "     <path d="M359 93h6v30h-6zm29 0h6v30h-6z" stroke="#787827" fill="#f0f04f"/>"     "     <path d="M699 171h23v8h-23zM1 147h7v26H1z" fill="#f0f050" stroke="#787828"/>"     "     <path d="M659 342h11v16h-11zm-424-71h11v16h-11z" stroke="#787828" fill="#f0f051"/>"     "     <g stroke="#787829"><path d="M124 190h7v26h-7z" fill="#f0f052"/><path d="M370 306h12v15h-12zm57 14h12v15h-12z" fill="#f0f053"/></g>"     "     "     <path d="M80 307h10v18H80zm265 1h10v18h-10z" fill="#f0f054" stroke="#78782a"/>"     "     <path d="M462 226h9v20h-9zm324-3h18v10h-18z" stroke="#78782a" fill="#f0f055"/>"     "     <path d="M668 120h26v7h-26zm-448 39h7v26h-7z" fill="#f0f056" stroke="#78782b"/>"     "     <path d="M602 160h7v26h-7zm-102 1h7v26h-7z" stroke="#78782b" fill="#f0f057"/>"     "     <path d="M100 162h7v26h-7zm297 72h9v20h-9z" fill="#f0f058" stroke="#78782c"/>"     "     <path d="M569 164h7v26h-7zm-33 0h7v26h-7z" stroke="#78782c" fill="#f0f059"/>"     "     <g stroke="#78782d"><path d="M65 281h10v18H65z" fill="#f0f05a"/><path d="M331 203h8v23h-8zm415 78h9v20h-9z" fill="#f0f05b"/></g>"     "     "     <path d="M772 82h20v9h-20zM264 299h9v20h-9z" fill="#f0f05c" stroke="#78782e"/>"     "     <path d="M151 381h13v14h-13zm583-98h9v20h-9z" stroke="#78782e" fill="#f0f05d"/>"     "     <path d="M279 460h13v14h-13zM679 46h27v7h-27z" fill="#f0f05e" stroke="#78782f"/>"     "     <path d="M752 148h20v9h-20zm91 158h14v13h-14z" stroke="#78782f" fill="#f0f05f"/>"     "     <path d="M249 303h11v17h-11zm193-63h8v23h-8z" fill="#f0f060" stroke="#787830"/>"     "     <path d="M553 171h7v27h-7z" fill="#f0f061" stroke="#787830"/>"     <path d="M484 343h14v13h-14zm239-172h23v8h-23z" fill="#f0f062" stroke="#787831"/>"     "     <path d="M973 461h11v17h-11zM1 174h7v27H1z" stroke="#787831" fill="#f0f063"/>"     "     <path d="M235 288h8v23h-8zm449-75h8v23h-8z" fill="#f0f064" stroke="#787832"/>"     "     <path d="M676 176h7v28h-7zM370 322h11v17h-11z" stroke="#787832" fill="#f0f065"/>"     "     <path d="M462 247h9v21h-9zm-338-30h8v24h-8z" fill="#f0f066" stroke="#787833"/>"     "     <path d="M427 336h10v19h-10zm378-113h19v10h-19z" stroke="#787833" fill="#f0f067"/>"     "     <path d="M985 447h21v9h-21zM695 120h28v7h-28z" fill="#f0f068" stroke="#787834"/>"     "     <path d="M659 359h16v12h-16z" fill="#f0f069" stroke="#787834"/>"     <path d="M80 326h12v16H80zm617-163h28v7h-28z" fill="#f0f06a" stroke="#787835"/>"     "     <path d="M220 186h7v28h-7zm125 141h12v16h-12z" stroke="#787835" fill="#f0f06b"/>"     "     <path d="M602 187h7v28h-7zM172 443h16v12h-16z" fill="#f0f06c" stroke="#787836"/>"     "     <path d="M189 443h19v12h-19zm311-255h7v29h-7z" stroke="#787836" fill="#f0f06d"/>"     "     <path d="M397 255h8v24h-8zm-297-66h7v29h-7z" fill="#f0f06e" stroke="#787837"/>"     "     <path d="M331 227h8v24h-8zm238-36h7v29h-7z" stroke="#787837" fill="#f0f06f"/>"     "     <g stroke="#787838"><path d="M536 191h7v29h-7z" fill="#f0f070"/><path d="M65 300h8v24h-8zM793 82h24v8h-24z" fill="#f0f071"/></g>"     "     "     <path d="M746 302h11v18h-11zM707 46h30v7h-30z" fill="#f0f072" stroke="#787839"/>"     "     <path d="M264 320h12v16h-12zm509-172h25v8h-25z" stroke="#787839" fill="#f0f073"/>"     "     <path d="M858 306h16v12h-16zm-124-2h11v18h-11z" fill="#f0f074" stroke="#78783a"/>"     "     <path d="M484 357h13v15h-13zm263-186h25v8h-25z" stroke="#78783a" fill="#f0f075"/>"     "     <path d="M249 321h11v18h-11zm304-122h7v30h-7z" fill="#f0f076" stroke="#78783b"/>"     "     <path d="M712 190h30v7h-30zm-270 74h9v23h-9z" stroke="#78783b" fill="#f0f077"/>"     "     <g stroke="#78783c"><path d="M1 202h7v30H1z" fill="#f0f078"/><path d="M684 237h8v27h-8zM151 396h14v14h-14z" fill="#f0f079"/></g>"     "     "     <path d="M370 340h11v18h-11zm92-71h9v24h-9z" fill="#f0f07a" stroke="#78783d"/>"     "     <path d="M235 312h11v18h-11zm-111-70h8v28h-8z" stroke="#78783d" fill="#f0f07b"/>"     "     <path d="M825 223h18v11h-18zM659 372h14v14h-14z" fill="#f0f07c" stroke="#78783e"/>"     "     <path d="M80 343h10v20H80zm265 1h10v20h-10z" stroke="#78783e" fill="#f0f07d"/>"     "     <path d="M427 356h14v14h-14zm-96-104h8v28h-8z" fill="#f0f07e" stroke="#78783f"/>"     "     <path d="M397 280h9v24h-9z" fill="#f0f07f" stroke="#78783f"/>"     <path d="M746 321h11v19h-11zm-482 16h12v17h-12z" fill="#f0f080" stroke="#787840"/>"     "     <path d="M734 323h11v19h-11zm84-241h21v10h-21z" stroke="#787840" fill="#f0f081"/>"     "     <path d="M875 306h17v12h-17zM65 325h11v19H65z" fill="#f0f082" stroke="#787841"/>"     "     <path d="M249 340h12v17h-12zm550-192h24v9h-24z" stroke="#787841" fill="#f0f083"/>"     "     <path d="M773 171h28v8h-28zm212 286h12v17h-12z" fill="#f0f084" stroke="#787842"/>"     "     <path d="M998 457h26v17h-26zm-514-84h12v17h-12z" stroke="#787842" fill="#f0f085"/>"     "     <path d="M442 288h9v24h-9zm242-23h8v28h-8z" fill="#f0f086" stroke="#787843"/>"     "     <path d="M235 331h11v19h-11z" fill="#f0f087" stroke="#787843"/>"     <path d="M844 223h19v11h-19zm-382 71h8v28h-8z" fill="#f0f088" stroke="#787844"/>"     "     <path d="M370 359h12v17h-12zm-246-88h8v29h-8z" stroke="#787844" fill="#f0f089"/>"     "     <path d="M151 411h16v13h-16zm508-24h13v16h-13z" fill="#f0f08a" stroke="#787845"/>"     "     <path d="M427 371h13v16h-13zm-255 85h16v13h-16z" stroke="#787845" fill="#f0f08b"/>"     "     <path d="M189 456h19v13h-19zM80 364h13v16H80z" fill="#f0f08c" stroke="#787846"/>"     "     <path d="M345 365h13v16h-13zm401-24h11v19h-11z" stroke="#787846" fill="#f0f08d"/>"     "     <g stroke="#787847"><path d="M331 281h8v29h-8z" fill="#f0f08e"/><path d="M264 355h10v21h-10zm133-50h9v26h-9z" fill="#f0f08f"/></g>"     "     "     <path d="M734 343h10v21h-10zM840 82h21v10h-21z" fill="#f0f090" stroke="#787848"/>"     "     <path d="M796 269h29v8h-29zm-547 89h12v18h-12z" stroke="#787848" fill="#f0f091"/>"     "     <path d="M65 345h11v20H65zm759-197h26v9h-26z" fill="#f0f092" stroke="#787849"/>"     "     <path d="M893 306h15v14h-15zM279 475h15v14h-15z" stroke="#787849" fill="#f0f093"/>"     "     <path d="M279 490h15v22h-15zm163-177h9v26h-9z" fill="#f0f094" stroke="#78784a"/>"     "     <path d="M484 391h14v15h-14zm-249-40h11v20h-11z" stroke="#78784a" fill="#f0f095"/>"     "     <g stroke="#78784b"><path d="M864 223h20v11h-20z" fill="#f0f096"/><path d="M370 377h12v18h-12zm57 11h14v15h-14z" fill="#f0f097"/></g>"     "     "     <path d="M462 323h9v26h-9zm197 81h14v15h-14z" fill="#f0f098" stroke="#78784c"/>"     "     <path d="M80 381h12v18H80zm71 44h12v18h-12z" stroke="#78784c" fill="#f0f099"/>"     "     <path d="M836 296h29v9h-29zm-491 86h13v17h-13z" fill="#f0f09a" stroke="#78784d"/>"     "     <path d="M854 361h11v20h-11zm-108 0h11v21h-11z" stroke="#78784d" fill="#f0f09b"/>"     "     <path d="M862 82h23v10h-23zM734 365h10v23h-10z" fill="#f0f09c" stroke="#78784e"/>"     "     <path d="M249 377h10v23h-10z" fill="#f0f09d" stroke="#78784e"/>"     <path d="M264 377h11v21h-11zM65 366h11v21H65z" fill="#f0f09e" stroke="#78784f"/>"     "     <path d="M909 306h17v13h-17zm-733 3h17v13h-17z" stroke="#78784f" fill="#f0f09f"/>"     "     <path d="M484 407h14v16h-14zm-249-35h11v21h-11z" fill="#f0f0a0" stroke="#787850"/>"     "     <path d="M885 223h21v11h-21zM427 404h14v16h-14z" stroke="#787850" fill="#f0f0a1"/>"     "     <path d="M883 387h11v21h-11zm-513 9h11v21h-11z" fill="#f0f0a2" stroke="#787851"/>"     "     <path d="M172 470h16v14h-16zm17 0h19v14h-19z" stroke="#787851" fill="#f0f0a3"/>"     "     <path d="M659 420h14v16h-14zm-314-20h13v18h-13z" fill="#f0f0a4" stroke="#787852"/>"     "     <path d="M80 400h13v18H80z" fill="#f0f0a5" stroke="#787852"/>"     <path d="M854 382h10v24h-10zm-108 1h10v24h-10z" fill="#f0f0a6" stroke="#787853"/>"     "     <path d="M985 475h15v15h-15zm0 16h15v21h-15z" stroke="#787853" fill="#f0f0a7"/>"     "     <path d="M886 82h24v10h-24zM65 388h10v24H65z" fill="#f0f0a8" stroke="#787854"/>"     "     <path d="M734 389h10v24h-10zm-470 10h12v20h-12z" stroke="#787854" fill="#f0f0a9"/>"     "     <path d="M927 306h18v13h-18zM151 444h15v15h-15z" fill="#f0f0aa" stroke="#787855"/>"     "     <path d="M249 401h12v20h-12zm235 23h14v17h-14z" stroke="#787855" fill="#f0f0ab"/>"     "     <g stroke="#787856"><path d="M235 394h10v24h-10z" fill="#f0f0ac"/><path d="M282 238h14v17h-14zm625-15h22v11h-22z" fill="#f0f0ad"/></g>"     "     "     <path d="M427 421h14v17h-14zm-132 54h14v17h-14z" fill="#f0f0ae" stroke="#787857"/>"     "     <path d="M883 409h12v20h-12zm-513 9h12v20h-12z" stroke="#787857" fill="#f0f0af"/>"     "     <path d="M155 149h14v17h-14zm21-131h14v17h-14z" fill="#f0f0b0" stroke="#787858"/>"     "     <path d="M191 18h17v17h-17zm154 401h11v22h-11z" stroke="#787858" fill="#f0f0b1"/>"     "     <path d="M80 419h11v22H80zm579 18h15v16h-15z" fill="#f0f0b2" stroke="#787859"/>"     "     <path d="M285 205h15v16h-15zm16 0h29v27h-29z" stroke="#787859" fill="#f0f0b3"/>"     "     <g stroke="#78785a"><path d="M282 161h15v16h-15z" fill="#f0f0b4"/><path d="M854 407h10v25h-10zm79 32h13v19h-13z" fill="#f0f0b5"/></g>"     "     "     <path d="M176 323h13v19h-13zm570 85h11v23h-11z" fill="#f0f0b6" stroke="#78785b"/>"     "     <path d="M911 82h26v10h-26zM282 53h13v19h-13z" stroke="#78785b" fill="#f0f0b7"/>"     "     <path d="M264 420h12v21h-12zm-199-7h11v23H65z" fill="#f0f0b8" stroke="#78785c"/>"     "     <path d="M946 306h19v13h-19zM734 414h11v23h-11z" stroke="#78785c" fill="#f0f0b9"/>"     "     <path d="M249 422h12v21h-12zM282 3h14v18h-14z" fill="#f0f0ba" stroke="#78785d"/>"     "     <path d="M930 223h23v11h-23z" fill="#f0f0bb" stroke="#78785d"/>"     <path d="M484 442h14v18h-14zm-249-23h11v23h-11z" fill="#f0f0bc" stroke="#78785e"/>"     "     <path d="M151 460h14v18h-14zm276-21h12v21h-12z" stroke="#78785e" fill="#f0f0bd"/>"     "     <path d="M283 311h15v17h-15zm600 119h11v23h-11z" fill="#f0f0be" stroke="#78785f"/>"     "     <path d="M172 485h17v15h-17zm18 0h18v27h-18z" stroke="#78785f" fill="#f0f0bf"/>"     "     <path d="M370 439h13v20h-13zM155 167h16v16h-16z" fill="#f0f0c0" stroke="#787860"/>"     "     <path d="M659 454h13v20h-13zm-314-12h10v26h-10z" stroke="#787860" fill="#f0f0c1"/>"     "     <path d="M80 442h12v22H80zm206-322h22v12h-22z" fill="#f0f0c2" stroke="#787861"/>"     "     <path d="M309 120h21v21h-21z" fill="#f0f0c3" stroke="#787861"/>"     <path d="M175 131h22v12h-22zm122 107h22v12h-22z" fill="#f0f0c4" stroke="#787862"/>"     "     <path d="M746 432h11v24h-11zm108 1h11v24h-11z" stroke="#787862" fill="#f0f0c5"/>"     "     <path d="M938 82h27v10h-27zM264 442h10v27h-10z" fill="#f0f0c6" stroke="#787863"/>"     "     <path d="M933 459h15v18h-15zM283 78h18v15h-18z" stroke="#787863" fill="#f0f0c7"/>"     "     <path d="M302 78h28v18h-28zm-19 23h18v15h-18z" fill="#f0f0c8" stroke="#787864"/>"     "     <path d="M302 101h28v18h-28zm699 374h16v17h-16z" stroke="#787864" fill="#f0f0c9"/>"     "     <g stroke="#787865"><path d="M1001 493h23v19h-23z" fill="#f0f0ca"/><path d="M65 437h10v28H65zm219-103h16v17h-16z" fill="#f0f0cb"/></g>"     "     "     <path d="M301 334h29v18h-29zm-52 110h12v23h-12z" fill="#f0f0cc" stroke="#787866"/>"     "     <path d="M734 438h10v28h-10zm232-132h21v13h-21z" stroke="#787866" fill="#f0f0cd"/>"     "     <path d="M296 53h17v16h-17zm2 108h16v17h-16z" fill="#f0f0ce" stroke="#787867"/>"     "     <path d="M315 161h15v25h-15zm-29 260h16v17h-16z" stroke="#787867" fill="#f0f0cf"/>"     "     <path d="M303 421h27v18h-27zm651-198h28v10h-28z" fill="#f0f0d0" stroke="#787868"/>"     "     <path d="M177 377h21v13h-21zm58 66h10v28h-10z" stroke="#787868" fill="#f0f0d1"/>"     "     <g stroke="#787869"><path d="M484 461h12v23h-12z" fill="#f0f0d2"/><path d="M484 485h15v27h-15zM297 3h20v14h-20z" fill="#f0f0d3"/></g>"     "     "     <path d="M310 475h14v20h-14zm0 21h20v16h-20z" fill="#f0f0d4" stroke="#78786a"/>"     "     <path d="M285 371h28v10h-28zm142 90h10v28h-10z" stroke="#78786a" fill="#f0f0d5"/>"     "     <path d="M427 490h14v22h-14zm456-36h10v28h-10z" fill="#f0f0d6" stroke="#78786b"/>"     "     <path d="M883 483h12v29h-12zM176 231h19v15h-19z" stroke="#78786b" fill="#f0f0d7"/>"     "     <path d="M370 460h13v22h-13zm0 23h13v29h-13z" fill="#f0f0d8" stroke="#78786c"/>"     "     <path d="M299 311h15v19h-15z" fill="#f0f0d9" stroke="#78786c"/>"     <path d="M315 311h15v22h-15zM155 184h15v19h-15z" fill="#f0f0da" stroke="#78786d"/>"     "     <path d="M155 204h16v22h-16zm21-168h22v13h-22z" stroke="#78786d" fill="#f0f0db"/>"     "     <path d="M176 168h18v16h-18zm774 289h12v24h-12z" fill="#f0f0dc" stroke="#78786e"/>"     "     <path d="M950 482h12v30h-12zM190 323h16v18h-16z" stroke="#78786e" fill="#f0f0dd"/>"     "     <path d="M190 342h18v18h-18zm-39 137h18v16h-18z" fill="#f0f0de" stroke="#78786f"/>"     "     <path d="M151 496h20v16h-20zM284 38h24v12h-24z" stroke="#78786f" fill="#f0f0df"/>"     "     <path d="M309 38h21v14h-21zm-133 67h17v17h-17z" fill="#f0f0e0" stroke="#787870"/>"     "     <path d="M285 271h24v12h-24z" fill="#f0f0e1" stroke="#787870"/>"     <path d="M285 296h24v12h-24zM80 465h12v24H80z" fill="#f0f0e2" stroke="#787871"/>"     "     <path d="M746 457h10v29h-10zm108 1h10v29h-10z" stroke="#787871" fill="#f0f0e3"/>"     "     <path d="M966 82h29v10h-29zM659 475h14v21h-14z" fill="#f0f0e4" stroke="#787872"/>"     "     <path d="M286 357h29v10h-29zM177 254h17v17h-17z" stroke="#787872" fill="#f0f0e5"/>"     "     <path d="M345 469h11v27h-11zm588 9h14v21h-14z" fill="#f0f0e6" stroke="#787873"/>"     "     <path d="M285 142h27v11h-27zm-36 326h11v27h-11z" stroke="#787873" fill="#f0f0e7"/>"     "     <g stroke="#787874"><path d="M177 206h20v15h-20z" fill="#f0f0e8"/><path d="M293 460h23v13h-23zm-228 6h10v30H65z" fill="#f0f0e9"/></g>"     "     "     <path d="M264 470h12v25h-12zm724-164h25v12h-25z" fill="#f0f0ea" stroke="#787875"/>"     "     <path d="M734 467h10v30h-10zM175 144h20v15h-20z" stroke="#787875" fill="#f0f0eb"/>"     "     <path d="M297 251h20v15h-20zm-5 196h25v12h-25z" fill="#f0f0ec" stroke="#787876"/>"     "     <path d="M983 223h28v11h-28zM235 472h11v28h-11z" stroke="#787876" fill="#f0f0ed"/>"     "     <path d="M314 53h15v20h-15zm659 426h11v29h-11z" fill="#f0f0ee" stroke="#787877"/>"     "     <path d="M177 391h29v11h-29z" fill="#f0f0ef" stroke="#787877"/>"     <text y="526" font-size="12" fill="#000" x="0"> MaxRectsBin(size: 1024x512, choice: WorstAreaFit, method: ShorterLeftoverAxis): inserted 1075 of 1536 rectangles with w/h lengths between [2, 31], occupancy: 32.87% </text></svg>