<svg xmlns="http://www.w3.org/2000/svg" viewBox="0 0 1024 536" xmlns:v="https://vecta.io/nano"><path d="M0 0h1024v512H0z" fill="#fff" stroke="#000"/>"     <path d="M1 1h29v30H1zm0 31h29v30H1zm0 31h29v30H1z" fill="#303030" stroke="#181818"/>"     "     "     <path d="M1 94h29v29H1zm0 30h29v29H1zm0 30h29v29H1z" stroke="#181818" fill="#303130"/>"     "     "     <path d="M1 184h29v29H1zm0 30h28v30H1z" fill="#303230" stroke="#181918"/>"     "     <path d="M1 245h28v30H1zm0 31h28v30H1zm0 31h28v30H1z" stroke="#181918" fill="#303330"/>"     "     "     <path d="M1 338h28v29H1zm0 30h27v30H1zm28 0h1v30h-1z" fill="#303430" stroke="#181a18"/>"     "     "     <path d="M1 399h27v30H1zm28 0h1v30h-1z" stroke="#181a18" fill="#303530"/>"     "     <path d="M1 430h27v30H1zm28 0h1v28h-1zm0 29h1v1h-1z" fill="#303630" stroke="#181b18"/>"     "     "     <path d="M1 461h27v30H1zm0 31h29v20H1zm28-31h1v28h-1z" stroke="#181b18" fill="#303730"/>"     "     "     <path d="M31 1h27v30H31zm0 31h27v30H31z" fill="#303830" stroke="#181c18"/>"     "     <path d="M31 63h27v29H31zm0 30h27v29H31zm0 30h27v29H31z" stroke="#181c18" fill="#303930"/>"     "     "     <path d="M31 153h26v30H31zm0 31h26v30H31zm0 31h27v28H31z" fill="#303a30" stroke="#181d18"/>"     "     "     <path d="M31 244h27v28H31zm0 29h26v29H31z" stroke="#181d18" fill="#303b30"/>"     "     <path d="M31 303h26v29H31zm0 30h25v30H31zm26 0h1v27h-1z" fill="#303c30" stroke="#181e18"/>"     "     "     <path d="M57 361h1v2h-1zm-26 3h25v30H31zm26 0h1v27h-1z" stroke="#181e18" fill="#303d30"/>"     "     "     <path d="M57 392h1v2h-1zm-26 3h27v27H31z" fill="#303e30" stroke="#181f18"/>"     "     <path d="M31 423h27v27H31zm0 28h27v27H31zm0 28h26v28H31z" stroke="#181f18" fill="#303f30"/>"     "     "     <path d="M31 508h27v4H31zM59 1h28v28H59zm0 29h28v28H59z" fill="#304030" stroke="#182018"/>"     "     "     <path d="M59 59h28v28H59zm0 29h26v28H59z" stroke="#182018" fill="#304130"/>"     "     <path d="M86 88h1v27h-1zm-27 29h28v26H59zm0 27h28v26H59z" fill="#304230" stroke="#182118"/>"     "     "     <path d="M59 171h25v29H59zm26 0h2v29h-2zm-26 30h25v29H59z" stroke="#182118" fill="#304330"/>"     "     "     <path d="M85 201h2v28h-2zm-26 30h25v29H59z" fill="#304430" stroke="#182218"/>"     "     <path d="M85 230h2v30h-2zm-26 31h24v30H59zm25 0h3v30h-3z" stroke="#182218" fill="#304530"/>"     "     "     <path d="M59 292h27v26H59zm0 27h27v26H59zm0 27h26v27H59z" fill="#304630" stroke="#182318"/>"     "     "     <path d="M86 346h1v27h-1zm-27 28h28v25H59z" stroke="#182318" fill="#304730"/>"     "     <path d="M59 400h25v28H59zm26 0h2v28h-2zm-26 29h24v29H59z" fill="#304830" stroke="#182418"/>"     "     "     <path d="M84 429h3v29h-3zm-25 30h24v29H59zm25 0h3v29h-3z" stroke="#182418" fill="#304930"/>"     "     "     <path d="M59 489h28v23H59zM88 1h29v24H88z" fill="#304a30" stroke="#182518"/>"     "     <path d="M88 26h29v24H88zm0 25h23v30H88zm24 0h5v30h-5z" stroke="#182518" fill="#304b30"/>"     "     "     <path d="M88 82h23v30H88zm24 0h5v30h-5zm-24 31h23v30H88z" fill="#304c30" stroke="#182618"/>"     "     "     <path d="M112 113h5v30h-5zm-24 31h26v26H88z" stroke="#182618" fill="#304d30"/>"     "     <path d="M115 144h2v26h-2zm-27 27h26v26H88zm27 0h2v26h-2z" fill="#304e30" stroke="#182718"/>"     "     "     <path d="M88 198h25v27H88zm26 0h3v27h-3zm-26 28h27v25H88z" stroke="#182718" fill="#304f30"/>"     "     "     <path d="M116 226h1v24h-1zm-28 26h25v27H88z" fill="#305030" stroke="#182818"/>"     "     <path d="M114 252h3v27h-3zm-26 28h25v27H88zm26 0h3v27h-3z" stroke="#182818" fill="#305130"/>"     "     "     <path d="M88 308h29v23H88zm0 24h29v23H88zm0 24h22v30H88z" fill="#305230" stroke="#182918"/>"     "     "     <path d="M111 356h6v30h-6zm-23 31h22v30H88z" stroke="#182918" fill="#305330"/>"     "     <path d="M111 387h6v30h-6zm-23 31h22v30H88zm23 0h6v30h-6z" fill="#305430" stroke="#182a18"/>"     "     "     <path d="M88 449h22v30H88zm23 0h6v29h-6zm-23 31h25v26H88z" stroke="#182a18" fill="#305530"/>"     "     "     <path d="M114 480h3v26h-3zm-26 27h29v5H88z" fill="#305630" stroke="#182b18"/>"     "     <path d="M118 1h26v25h-26zm0 26h26v25h-26zm0 26h25v26h-25z" stroke="#182b18" fill="#305730"/>"     "     "     <path d="M118 80h25v26h-25zm0 27h24v27h-24zm25 0h1v27h-1z" fill="#305830" stroke="#182c18"/>"     "     "     <path d="M118 135h24v27h-24zm25 0h1v26h-1z" stroke="#182c18" fill="#305930"/>"     "     <path d="M118 163h24v27h-24zm25-1h1v26h-1zm-25 29h23v28h-23z" fill="#305a30" stroke="#182d18"/>"     "     "     <path d="M142 191h2v28h-2zm-24 29h23v28h-23zm24 0h2v28h-2z" stroke="#182d18" fill="#305b30"/>"     "     "     <path d="M118 249h22v29h-22zm23 0h3v29h-3z" fill="#305c30" stroke="#182e18"/>"     "     <path d="M118 279h22v29h-22zm23 0h3v29h-3zm-23 30h22v29h-22z" stroke="#182e18" fill="#305d30"/>"     "     "     <path d="M141 309h3v28h-3zm-23 30h22v29h-22zm23-1h3v30h-3z" fill="#305e30" stroke="#182f18"/>"     "     "     <path d="M118 369h22v29h-22zm23 0h3v28h-3z" stroke="#182f18" fill="#305f30"/>"     "     <path d="M118 399h22v29h-22zm23-1h3v30h-3zm-23 31h21v30h-21z" fill="#306030" stroke="#183018"/>"     "     "     <path d="M140 429h4v30h-4zm-22 31h21v30h-21zm22 0h4v30h-4z" stroke="#183018" fill="#306130"/>"     "     "     <path d="M118 491h26v21h-26zM145 1h30v21h-30z" fill="#306230" stroke="#183118"/>"     "     <path d="M145 23h21v30h-21zm22 0h8v30h-8zm-22 31h25v25h-25z" stroke="#183118" fill="#306330"/>"     "     "     <path d="M171 54h4v25h-4zm-26 26h25v25h-25zm26 0h4v25h-4z" fill="#306430" stroke="#183218"/>"     "     "     <path d="M145 106h24v26h-24zm25 0h5v26h-5z" stroke="#183218" fill="#306530"/>"     "     <path d="M145 133h24v26h-24zm25 0h5v25h-5zm-25 27h23v27h-23z" fill="#306630" stroke="#183318"/>"     "     "     <path d="M169 160h6v27h-6zm-24 28h23v27h-23zm24 0h6v27h-6z" stroke="#183318" fill="#306730"/>"     "     "     <path d="M145 216h28v22h-28zm29 0h1v22h-1z" fill="#306830" stroke="#183418"/>"     "     <path d="M145 239h22v28h-22zm23 0h7v28h-7zm-23 29h28v22h-28z" stroke="#183418" fill="#306930"/>"     "     "     <path d="M174 268h1v22h-1zm-29 23h21v29h-21zm22 0h8v29h-8z" fill="#306a30" stroke="#183518"/>"     "     "     <path d="M145 321h29v21h-29zm0 22h20v30h-20z" stroke="#183518" fill="#306b30"/>"     "     <path d="M166 343h9v30h-9zm-21 31h20v30h-20zm21 0h9v29h-9z" fill="#306c30" stroke="#183618"/>"     "     "     <path d="M145 405h20v30h-20zm21-1h9v28h-9zm0 29h9v2h-9z" stroke="#183618" fill="#306d30"/>"     "     "     <path d="M145 436h30v20h-30zm0 21h24v25h-24z" fill="#306e30" stroke="#183718"/>"     "     <path d="M170 457h5v25h-5zm-25 26h25v24h-25zm26 0h4v29h-4z" stroke="#183718" fill="#306f30"/>"     "     "     <path d="M145 508h24v4h-24zM176 1h24v25h-24zm0 26h24v25h-24z" fill="#307030" stroke="#183818"/>"     "     "     <path d="M176 53h23v26h-23zm0 27h23v26h-23z" stroke="#183818" fill="#307130"/>"     "     <path d="M176 107h22v27h-22zm23 0h1v26h-1zm-23 28h22v27h-22z" fill="#307230" stroke="#183918"/>"     "     "     <path d="M199 134h1v23h-1zm0 24h1v4h-1zm-23 5h22v27h-22z" stroke="#183918" fill="#307330"/>"     "     "     <path d="M199 163h1v23h-1zm0 24h1v3h-1z" fill="#307430" stroke="#183a18"/>"     "     <path d="M176 191h21v28h-21zm22 0h2v27h-2zm-22 29h21v28h-21z" stroke="#183a18" fill="#307530"/>"     "     "     <path d="M198 219h2v27h-2zm0 28h2v1h-2zm-22 2h21v28h-21z" fill="#307630" stroke="#183b18"/>"     "     "     <path d="M198 249h2v25h-2zm0 26h2v2h-2z" stroke="#183b18" fill="#307730"/>"     "     <path d="M176 278h21v28h-21zm22 0h2v25h-2zm0 26h2v2h-2z" fill="#307830" stroke="#183c18"/>"     "     "     <path d="M176 307h21v28h-21zm22 0h2v24h-2zm0 25h2v3h-2z" stroke="#183c18" fill="#307930"/>"     "     "     <path d="M176 336h20v29h-20zm21 0h3v28h-3z" fill="#307a30" stroke="#183d18"/>"     "     <path d="M176 366h20v29h-20zm21-1h3v30h-3zm-21 31h20v29h-20z" stroke="#183d18" fill="#307b30"/>"     "     "     <path d="M197 396h3v28h-3zm-21 30h20v29h-20zm21-1h3v30h-3z" fill="#307c30" stroke="#183e18"/>"     "     "     <path d="M176 456h20v29h-20zm21 0h3v28h-3z" stroke="#183e18" fill="#307d30"/>"     "     <path d="M176 486h24v24h-24zm0 25h23v1h-23zM201 1h24v24h-24z" fill="#307e30" stroke="#183f18"/>"     "     "     <path d="M201 26h24v24h-24zm0 25h22v26h-22zm23 0h1v23h-1z" stroke="#183f18" fill="#307f30"/>"     "     "     <path d="M224 75h1v2h-1zm-23 3h22v26h-22z" fill="#308030" stroke="#184018"/>"     "     <path d="M224 78h1v23h-1zm-23 27h22v26h-22zm23-3h1v23h-1z" stroke="#184018" fill="#308130"/>"     "     "     <path d="M224 126h1v5h-1zm-23 6h22v26h-22zm23 0h1v22h-1z" fill="#308230" stroke="#184118"/>"     "     "     <path d="M224 155h1v3h-1zm-23 4h22v26h-22z" stroke="#184118" fill="#308330"/>"     "     <path d="M224 159h1v22h-1zm0 23h1v3h-1zm-23 4h19v30h-19z" fill="#308430" stroke="#184218"/>"     "     "     <path d="M221 186h4v30h-4zm-20 31h19v30h-19zm20 0h4v29h-4z" stroke="#184218" fill="#308530"/>"     "     "     <path d="M201 248h19v30h-19zm20-1h4v29h-4z" fill="#308630" stroke="#184318"/>"     "     <path d="M221 277h4v1h-4zm-20 2h19v30h-19zm20 0h4v28h-4z" stroke="#184318" fill="#308730"/>"     "     "     <path d="M221 308h4v1h-4zm-20 2h21v27h-21zm22 0h2v24h-2z" fill="#308830" stroke="#184418"/>"     "     "     <path d="M201 338h21v27h-21zm22-3h2v30h-2z" stroke="#184418" fill="#308930"/>"     "     <path d="M201 366h21v27h-21zm22 0h2v24h-2zm-22 28h20v28h-20z" fill="#308a30" stroke="#184518"/>"     "     "     <path d="M222 394h3v27h-3zm-21 29h19v29h-19zm20 0h4v28h-4z" stroke="#184518" fill="#308b30"/>"     "     "     <path d="M201 453h19v29h-19zm20-1h4v26h-4z" fill="#308c30" stroke="#184618"/>"     "     <path d="M221 479h4v3h-4zm-20 4h24v23h-24zm0 24h24v5h-24z" stroke="#184618" fill="#308d30"/>"     "     "     <path d="M226 1h29v19h-29zm0 20h29v19h-29zm0 20h29v19h-29z" fill="#308e30" stroke="#184718"/>"     "     "     <path d="M226 61h24v23h-24zm25 0h4v23h-4z" stroke="#184718" fill="#308f30"/>"     "     <path d="M226 85h19v29h-19zm20 0h9v27h-9zm0 28h8v1h-8z" fill="#309030" stroke="#184818"/>"     "     "     <path d="M226 115h22v25h-22zm23 0h6v25h-6zm-23 26h25v22h-25z" stroke="#184818" fill="#309130"/>"     "     "     <path d="M252 141h3v22h-3zm-26 23h25v22h-25z" fill="#309230" stroke="#184918"/>"     "     <path d="M252 164h3v22h-3zm-26 23h25v22h-25zm26 0h3v22h-3z" stroke="#184918" fill="#309330"/>"     "     "     <path d="M226 210h26v21h-26zm27 0h2v21h-2zm-27 22h18v30h-18z" fill="#309430" stroke="#184a18"/>"     "     "     <path d="M245 232h10v30h-10zm-19 31h18v30h-18z" stroke="#184a18" fill="#309530"/>"     "     <path d="M245 263h10v30h-10zm-19 31h18v30h-18zm19 0h10v30h-10z" fill="#309630" stroke="#184b18"/>"     "     "     <path d="M226 325h18v30h-18zm19 0h10v29h-10zm-19 31h18v30h-18z" stroke="#184b18" fill="#309730"/>"     "     "     <path d="M245 355h10v29h-10zm0 30h10v1h-10z" fill="#309830" stroke="#184c18"/>"     "     <path d="M226 387h27v20h-27zm28 0h1v20h-1zm-28 21h20v27h-20z" stroke="#184c18" fill="#309930"/>"     "     "     <path d="M247 408h8v27h-8zm-21 28h20v27h-20zm21 0h8v27h-8z" fill="#309a30" stroke="#184d18"/>"     "     "     <path d="M226 464h27v20h-27zm28 0h1v20h-1z" stroke="#184d18" fill="#309b30"/>"     "     <path d="M226 485h28v19h-28zm0 20h28v7h-28zM256 1h28v19h-28z" fill="#309c30" stroke="#184e18"/>"     "     "     <path d="M256 21h22v24h-22zm23 0h5v24h-5zm-23 25h24v22h-24z" stroke="#184e18" fill="#309d30"/>"     "     "     <path d="M281 46h3v21h-3zm-25 23h22v24h-22z" fill="#309e30" stroke="#184f18"/>"     "     <path d="M279 69h5v24h-5zm-23 25h21v25h-21zm22 0h6v25h-6z" stroke="#184f18" fill="#309f30"/>"     "     "     <path d="M256 120h21v25h-21zm22 0h6v25h-6zm-22 26h25v21h-25z" fill="#30a030" stroke="#185018"/>"     "     "     <path d="M282 146h2v21h-2zm-26 22h25v21h-25z" stroke="#185018" fill="#30a130"/>"     "     <path d="M282 168h2v21h-2zm-26 22h21v25h-21zm22 0h6v24h-6z" fill="#30a230" stroke="#185118"/>"     "     "     <path d="M256 216h21v25h-21zm22-1h6v26h-6zm-22 27h18v29h-18z" stroke="#185118" fill="#30a330"/>"     "     "     <path d="M275 242h9v27h-9zm0 28h7v1h-7z" fill="#30a430" stroke="#185218"/>"     "     <path d="M256 272h18v29h-18zm19 0h9v27h-9zm0 28h7v1h-7z" stroke="#185218" fill="#30a530"/>"     "     "     <path d="M256 302h18v29h-18zm19 0h9v26h-9zm0 27h9v2h-9z" fill="#30a630" stroke="#185318"/>"     "     "     <path d="M256 332h19v27h-19zm20 0h8v27h-8z" stroke="#185318" fill="#30a730"/>"     "     <path d="M256 360h19v27h-19zm20 0h8v27h-8zm-20 28h19v27h-19z" fill="#30a830" stroke="#185418"/>"     "     "     <path d="M276 388h8v27h-8zm-20 28h19v27h-19zm20 0h8v26h-8z" stroke="#185418" fill="#30a930"/>"     "     "     <path d="M256 444h19v27h-19zm20-1h8v28h-8z" fill="#30aa30" stroke="#185518"/>"     "     <path d="M256 472h19v27h-19zm0 28h28v12h-28zm20-28h8v26h-8z" stroke="#185518" fill="#30ab30"/>"     "     "     <path d="M285 1h30v17h-30zm0 18h17v30h-17zm18 0h12v30h-12z" fill="#30ac30" stroke="#185618"/>"     "     "     <path d="M285 50h30v17h-30zm0 18h17v30h-17z" stroke="#185618" fill="#30ad30"/>"     "     <path d="M303 68h12v30h-12zm-18 31h17v30h-17zm18 0h12v30h-12z" fill="#30ae30" stroke="#185718"/>"     "     "     <path d="M285 130h23v22h-23zm24 0h6v22h-6zm-24 23h22v23h-22z" stroke="#185718" fill="#30af30"/>"     "     "     <path d="M308 153h7v23h-7zm-23 24h23v22h-23z" fill="#30b030" stroke="#185818"/>"     "     <path d="M309 177h6v22h-6zm-24 23h22v23h-22zm23 0h7v23h-7z" stroke="#185818" fill="#30b130"/>"     "     "     <path d="M285 224h18v28h-18zm19 0h11v28h-11zm-19 29h28v18h-28z" fill="#30b230" stroke="#185918"/>"     "     "     <path d="M314 253h1v18h-1zm-29 19h18v28h-18z" stroke="#185918" fill="#30b330"/>"     "     <path d="M304 272h11v28h-11zm-19 29h18v28h-18zm19 0h11v27h-11z" fill="#30b430" stroke="#185a18"/>"     "     "     <path d="M285 330h28v18h-28zm29 0h1v17h-1zm-29 19h25v20h-25z" stroke="#185a18" fill="#30b530"/>"     "     "     <path d="M311 349h4v19h-4zm-26 21h20v25h-20z" fill="#30b630" stroke="#185b18"/>"     "     <path d="M306 370h9v25h-9zm-21 26h20v25h-20zm21 0h9v25h-9z" stroke="#185b18" fill="#30b730"/>"     "     "     <path d="M285 422h20v25h-20zm21 0h9v24h-9zm-21 26h25v20h-25z" fill="#30b830" stroke="#185c18"/>"     "     "     <path d="M311 448h4v19h-4zm-26 21h19v26h-19z" stroke="#185c18" fill="#30b930"/>"     "     <path d="M305 469h10v26h-10zm-20 27h30v16h-30zM316 1h19v26h-19z" fill="#30ba30" stroke="#185d18"/>"     "     "     <path d="M316 28h17v29h-17zm18 0h1v21h-1zm0 22h1v7h-1z" stroke="#185d18" fill="#30bb30"/>"     "     "     <path d="M316 58h19v26h-19zm0 27h19v26h-19z" fill="#30bc30" stroke="#185e18"/>"     "     <path d="M316 112h19v26h-19zm0 27h17v29h-17zm18 0h1v21h-1z" stroke="#185e18" fill="#30bd30"/>"     "     "     <path d="M334 161h1v7h-1zm-18 8h17v29h-17zm18 0h1v21h-1z" fill="#30be30" stroke="#185f18"/>"     "     "     <path d="M334 191h1v6h-1zm-18 8h17v29h-17z" stroke="#185f18" fill="#30bf30"/>"     "     <path d="M334 198h1v21h-1zm0 22h1v6h-1zm-18 9h18v27h-18z" fill="#30c030" stroke="#186018"/>"     "     "     <path d="M316 257h18v27h-18zm0 28h18v27h-18zm0 28h18v27h-18z" stroke="#186018" fill="#30c130"/>"     "     "     <path d="M316 341h18v27h-18zm0 28h17v28h-17z" fill="#30c230" stroke="#186118"/>"     "     <path d="M334 369h1v19h-1zm0 20h1v6h-1zm-18 9h17v28h-17z" stroke="#186118" fill="#30c330"/>"     "     "     <path d="M334 396h1v19h-1zm0 20h1v10h-1zm-18 11h17v28h-17z" fill="#30c430" stroke="#186218"/>"     "     "     <path d="M334 427h1v19h-1zm0 20h1v5h-1z" stroke="#186218" fill="#30c530"/>"     "     <path d="M316 456h19v25h-19zm0 26h19v25h-19zm0 26h18v4h-18z" fill="#30c630" stroke="#186318"/>"     "     "     <path d="M336 1h22v22h-22zm0 23h22v22h-22zm0 23h22v22h-22z" stroke="#186318" fill="#30c730"/>"     "     "     <path d="M336 70h22v22h-22zm0 23h22v22h-22z" fill="#30c830" stroke="#186418"/>"     "     <path d="M336 116h21v23h-21zm0 24h21v23h-21zm0 24h21v23h-21z" stroke="#186418" fill="#30c930"/>"     "     "     <path d="M336 188h21v23h-21zm0 24h20v24h-20zm21 0h1v19h-1z" fill="#30ca30" stroke="#186518"/>"     "     "     <path d="M357 232h1v4h-1zm-21 5h20v24h-20z" stroke="#186518" fill="#30cb30"/>"     "     <path d="M357 237h1v19h-1zm0 20h1v3h-1zm-21 5h20v24h-20z" fill="#30cc30" stroke="#186618"/>"     "     "     <path d="M357 261h1v19h-1zm0 20h1v5h-1zm-21 6h20v24h-20z" stroke="#186618" fill="#30cd30"/>"     "     "     <path d="M357 287h1v19h-1zm0 20h1v3h-1z" fill="#30ce30" stroke="#186718"/>"     "     <path d="M336 312h19v25h-19zm20 0h2v24h-2zm-20 26h18v26h-18z" stroke="#186718" fill="#30cf30"/>"     "     "     <path d="M355 338h3v26h-3zm-19 27h18v26h-18zm19 0h3v26h-3z" fill="#30d030" stroke="#186818"/>"     "     "     <path d="M336 392h18v26h-18zm19 0h3v26h-3z" stroke="#186818" fill="#30d130"/>"     "     <path d="M336 419h18v26h-18zm19 0h3v26h-3zm-19 27h16v29h-16z" fill="#30d230" stroke="#186918"/>"     "     "     <path d="M353 446h5v29h-5zm-17 30h16v29h-16zm17 0h5v29h-5z" stroke="#186918" fill="#30d330"/>"     "     "     <path d="M336 506h22v6h-22zM359 1h29v16h-29z" fill="#30d430" stroke="#186a18"/>"     "     <path d="M359 18h29v16h-29zm0 17h21v22h-21zm22 0h7v22h-7z" stroke="#186a18" fill="#30d530"/>"     "     "     <path d="M359 58h22v21h-22zm23 0h6v21h-6zm-23 22h22v21h-22z" fill="#30d630" stroke="#186b18"/>"     "     "     <path d="M382 80h6v21h-6zm-23 22h17v27h-17z" stroke="#186b18" fill="#30d730"/>"     "     <path d="M377 102h11v27h-11zm-18 28h17v27h-17zm18 0h11v27h-11z" fill="#30d830" stroke="#186c18"/>"     "     "     <path d="M359 158h20v23h-20zm21 0h8v23h-8zm-21 24h20v23h-20z" stroke="#186c18" fill="#30d930"/>"     "     "     <path d="M380 182h8v23h-8zm-21 24h17v27h-17z" fill="#30da30" stroke="#186d18"/>"     "     <path d="M377 206h11v26h-11zm-18 28h27v17h-27zm28 0h1v17h-1z" stroke="#186d18" fill="#30db30"/>"     "     "     <path d="M359 252h20v23h-20zm21 0h8v23h-8zm-21 24h23v20h-23z" fill="#30dc30" stroke="#186e18"/>"     "     "     <path d="M383 276h5v20h-5zm-24 21h19v24h-19z" stroke="#186e18" fill="#30dd30"/>"     "     <path d="M379 297h9v24h-9zm-20 25h19v24h-19zm20 0h9v24h-9z" fill="#30de30" stroke="#186f18"/>"     "     "     <path d="M359 347h24v19h-24zm25 0h4v18h-4zm-25 20h19v24h-19z" stroke="#186f18" fill="#30df30"/>"     "     "     <path d="M379 367h9v24h-9zm-20 25h24v19h-24z" fill="#30e030" stroke="#187018"/>"     "     <path d="M384 392h4v17h-4zm-25 20h15v30h-15zm16 0h13v30h-13z" stroke="#187018" fill="#30e130"/>"     "     "     <path d="M359 443h15v30h-15zm16 0h13v30h-13zm-16 31h15v30h-15z" fill="#30e230" stroke="#187118"/>"     "     "     <path d="M375 474h13v30h-13zm-16 31h29v7h-29z" stroke="#187118" fill="#30e330"/>"     "     <path d="M389 1h15v30h-15zm0 31h15v29h-15zm0 30h15v29h-15z" fill="#30e430" stroke="#187218"/>"     "     "     <path d="M389 92h15v29h-15zm0 30h15v29h-15zm0 30h14v30h-14z" stroke="#187218" fill="#30e530"/>"     "     "     <path d="M389 183h14v30h-14zm0 31h14v30h-14z" fill="#30e630" stroke="#187318"/>"     "     <path d="M389 245h14v29h-14zm0 30h14v29h-14zm0 30h15v27h-15z" stroke="#187318" fill="#30e730"/>"     "     "     <path d="M389 333h15v27h-15zm0 28h15v27h-15zm0 28h15v27h-15z" fill="#30e830" stroke="#187418"/>"     "     "     <path d="M389 417h15v27h-15zm0 28h15v27h-15z" stroke="#187418" fill="#30e930"/>"     "     <path d="M389 473h14v28h-14zm0 29h15v10h-15zM405 1h18v25h-18z" fill="#30ea30" stroke="#187518"/>"     "     "     <path d="M405 27h18v25h-18zm0 26h16v28h-16zm17 0h1v17h-1z" stroke="#187518" fill="#30eb30"/>"     "     "     <path d="M422 71h1v5h-1zm-17 11h16v28h-16z" fill="#30ec30" stroke="#187618"/>"     "     <path d="M422 77h1v16h-1zm0 17h1v16h-1zm-17 17h16v28h-16z" stroke="#187618" fill="#30ed30"/>"     "     "     <path d="M422 111h1v15h-1zm0 16h1v12h-1zm-17 13h16v28h-16z" fill="#30ee30" stroke="#187718"/>"     "     "     <path d="M422 140h1v15h-1zm0 16h1v12h-1z" stroke="#187718" fill="#30ef30"/>"     "     <path d="M405 169h16v28h-16zm17 0h1v15h-1zm0 16h1v12h-1z" fill="#30f030" stroke="#187818"/>"     "     "     <path d="M405 198h16v28h-16zm17 0h1v15h-1zm0 16h1v12h-1z" stroke="#187818" fill="#31f030"/>"     "     "     <path d="M405 227h16v28h-16zm17 0h1v15h-1z" fill="#32f030" stroke="#197818"/>"     "     <path d="M422 243h1v12h-1zm-17 13h17v26h-17zm0 27h16v27h-16z" stroke="#197818" fill="#33f030"/>"     "     "     <path d="M422 283h1v15h-1zm0 16h1v11h-1zm-17 12h16v27h-16z" fill="#34f030" stroke="#1a7818"/>"     "     "     <path d="M422 311h1v15h-1zm0 16h1v11h-1z" stroke="#1a7818" fill="#35f030"/>"     "     <path d="M405 339h18v24h-18zm0 25h18v24h-18zm0 25h17v25h-17z" fill="#36f030" stroke="#1b7818"/>"     "     "     <path d="M405 415h17v25h-17zm0 26h17v25h-17zm0 26h16v26h-16z" stroke="#1b7818" fill="#37f030"/>"     "     "     <path d="M405 494h18v18h-18zm17-27h1v14h-1z" fill="#38f030" stroke="#1c7818"/>"     "     <path d="M422 482h1v11h-1zm2-481h21v21h-21zm0 22h21v21h-21z" stroke="#1c7818" fill="#39f030"/>"     "     "     <path d="M424 45h20v22h-20zm0 23h20v22h-20zm0 23h20v22h-20z" fill="#3af030" stroke="#1d7818"/>"     "     "     <path d="M424 114h20v22h-20zm0 23h20v22h-20z" stroke="#1d7818" fill="#3bf030"/>"     "     <path d="M424 160h20v22h-20zm0 23h19v23h-19zm20 0h1v14h-1z" fill="#3cf030" stroke="#1e7818"/>"     "     "     <path d="M424 207h19v23h-19zm20-9h1v14h-1zm0 15h1v14h-1z" stroke="#1e7818" fill="#3df030"/>"     "     "     <path d="M424 231h19v23h-19zm20-3h1v14h-1z" fill="#3ef030" stroke="#1f7818"/>"     "     <path d="M424 255h21v20h-21zm0 21h20v21h-20zm0 22h20v21h-20z" stroke="#1f7818" fill="#3ff030"/>"     "     "     <path d="M424 320h21v20h-21zm0 21h19v22h-19zm20 0h1v13h-1z" fill="#40f030" stroke="#207818"/>"     "     "     <path d="M424 364h19v22h-19zm20-9h1v13h-1z" stroke="#207818" fill="#41f030"/>"     "     <path d="M444 369h1v13h-1zm-20 18h19v22h-19zm20-4h1v12h-1z" fill="#42f030" stroke="#217818"/>"     "     "     <path d="M444 396h1v12h-1zm-20 14h16v26h-16zm17 0h4v26h-4z" stroke="#217818" fill="#43f030"/>"     "     "     <path d="M424 437h16v26h-16zm17 0h4v26h-4z" fill="#44f030" stroke="#227818"/>"     "     <path d="M424 464h16v26h-16zm17 0h4v26h-4zm-17 27h20v20h-20z" stroke="#227818" fill="#45f030"/>"     "     "     <path d="M446 1h23v18h-23zm0 19h23v18h-23zm0 19h23v18h-23z" fill="#46f030" stroke="#237818"/>"     "     "     <path d="M446 58h17v24h-17zm18 0h5v23h-5z" stroke="#237818" fill="#47f030"/>"     "     <path d="M446 83h17v24h-17zm18-1h5v23h-5zm-18 26h16v25h-16z" fill="#48f030" stroke="#247818"/>"     "     "     <path d="M463 108h6v24h-6zm-17 26h20v20h-20zm21 0h2v20h-2z" stroke="#247818" fill="#49f030"/>"     "     "     <path d="M446 155h19v21h-19zm20 0h3v21h-3z" fill="#4af030" stroke="#257818"/>"     "     <path d="M446 177h19v21h-19zm20 0h3v20h-3zm-20 22h19v21h-19z" stroke="#257818" fill="#4bf030"/>"     "     "     <path d="M466 198h3v20h-3zm-20 23h22v18h-22zm0 19h18v22h-18z" fill="#4cf030" stroke="#267818"/>"     "     "     <path d="M465 240h4v22h-4zm-19 23h18v22h-18z" stroke="#267818" fill="#4df030"/>"     "     <path d="M465 263h4v22h-4zm-19 23h13v30h-13zm14 0h8v29h-8z" fill="#4ef030" stroke="#277818"/>"     "     "     <path d="M446 317h13v30h-13zm14-1h9v26h-9zm0 27h9v4h-9z" stroke="#277818" fill="#4ff030"/>"     "     "     <path d="M446 348h15v26h-15zm16 0h7v26h-7z" fill="#50f030" stroke="#287818"/>"     "     <path d="M446 375h15v26h-15zm16 0h7v26h-7zm-16 27h15v26h-15z" stroke="#287818" fill="#51f030"/>"     "     "     <path d="M462 402h7v26h-7zm-16 27h15v26h-15zm16 0h7v26h-7z" fill="#52f030" stroke="#297818"/>"     "     "     <path d="M446 456h15v26h-15zm16 0h7v26h-7z" stroke="#297818" fill="#53f030"/>"     "     <path d="M446 483h14v27h-14zm15 0h8v25h-8zm-15 28h12v1h-12z" fill="#54f030" stroke="#2a7818"/>"     "     "     <path d="M470 1h14v27h-14zm0 28h13v29h-13zm0 30h14v27h-14z" stroke="#2a7818" fill="#55f030"/>"     "     "     <path d="M470 87h14v27h-14zm0 28h13v29h-13z" fill="#56f030" stroke="#2b7818"/>"     "     <path d="M470 145h13v29h-13zm0 30h13v29h-13zm0 30h13v28h-13z" stroke="#2b7818" fill="#57f030"/>"     "     "     <path d="M470 234h13v28h-13zm0 29h13v28h-13zm0 29h13v28h-13z" fill="#58f030" stroke="#2c7818"/>"     "     "     <path d="M470 321h14v26h-14zm0 27h14v26h-14z" stroke="#2c7818" fill="#59f030"/>"     "     <path d="M470 375h14v26h-14zm0 27h14v26h-14zm0 27h14v26h-14z" fill="#5af030" stroke="#2d7818"/>"     "     "     <path d="M470 456h13v27h-13zm0 28h13v27h-13zM485 1h19v20h-19z" stroke="#2d7818" fill="#5bf030"/>"     "     "     <path d="M485 22h19v20h-19zm0 21h19v20h-19z" fill="#5cf030" stroke="#2e7818"/>"     "     <path d="M485 64h19v20h-19zm0 21h18v21h-18zm0 22h18v21h-18z" stroke="#2e7818" fill="#5df030"/>"     "     "     <path d="M485 129h18v21h-18zm0 22h18v21h-18zm0 22h18v21h-18z" fill="#5ef030" stroke="#2f7818"/>"     "     "     <path d="M485 195h18v21h-18zm0 22h15v25h-15z" stroke="#2f7818" fill="#5ff030"/>"     "     <path d="M501 217h3v25h-3zm-16 26h15v25h-15zm16 0h3v25h-3z" fill="#60f030" stroke="#307818"/>"     "     "     <path d="M485 269h15v25h-15zm16 0h3v25h-3zm-16 26h15v25h-15z" stroke="#307818" fill="#61f030"/>"     "     "     <path d="M501 295h3v25h-3zm-16 26h15v25h-15z" fill="#62f030" stroke="#317818"/>"     "     <path d="M501 321h3v25h-3zm-16 26h17v22h-17zm18 0h1v12h-1z" stroke="#317818" fill="#63f030"/>"     "     "     <path d="M485 370h17v22h-17zm0 23h17v22h-17zm0 23h17v22h-17z" fill="#64f030" stroke="#327818"/>"     "     "     <path d="M485 439h16v23h-16zm17 0h2v23h-2z" stroke="#327818" fill="#65f030"/>"     "     <path d="M485 463h16v23h-16zm17 0h2v23h-2zm-17 24h16v23h-16z" fill="#66f030" stroke="#337818"/>"     "     "     <path d="M502 487h2v23h-2zm3-486h15v24h-15zm0 25h15v24h-15z" stroke="#337818" fill="#67f030"/>"     "     "     <path d="M505 51h15v24h-15zm0 25h15v24h-15z" fill="#68f030" stroke="#347818"/>"     "     <path d="M505 101h15v24h-15zm0 25h13v27h-13zm0 28h14v25h-14z" stroke="#347818" fill="#69f030"/>"     "     "     <path d="M505 180h14v25h-14zm0 26h14v25h-14zm0 26h12v29h-12z" fill="#6af030" stroke="#357818"/>"     "     "     <path d="M518 232h2v24h-2zm0 25h2v3h-2z" stroke="#357818" fill="#6bf030"/>"     "     <path d="M505 262h14v25h-14zm0 26h12v29h-12zm13 0h2v23h-2z" fill="#6cf030" stroke="#367818"/>"     "     "     <path d="M518 312h2v5h-2zm-13 6h15v23h-15zm0 24h15v23h-15z" stroke="#367818" fill="#6df030"/>"     "     "     <path d="M505 366h15v23h-15zm0 24h13v26h-13z" fill="#6ef030" stroke="#377818"/>"     "     <path d="M505 417h13v26h-13zm0 27h13v26h-13zm0 27h13v26h-13z" stroke="#377818" fill="#6ff030"/>"     "     "     <path d="M505 498h15v14h-15zM521 1h19v19h-19zm20 0h19v19h-19z" fill="#70f030" stroke="#387818"/>"     "     "     <path d="M561 1h20v18h-20zm21 0h21v17h-21z" stroke="#387818" fill="#71f030"/>"     "     <path d="M604 1h21v17h-21zm22 0h21v17h-21zm22 0h21v17h-21z" fill="#72f030" stroke="#397818"/>"     "     "     <path d="M670 1h22v16h-22zm0 17h22v2h-22zm23-17h22v16h-22z" stroke="#397818" fill="#73f030"/>"     "     "     <path d="M693 18h22v2h-22zm23-17h22v16h-22z" fill="#74f030" stroke="#3a7818"/>"     "     <path d="M716 18h21v2h-21zm23-17h19v18h-19zm20 0h19v18h-19z" stroke="#3a7818" fill="#75f030"/>"     "     "     <path d="M779 1h18v19h-18zm19 0h20v17h-20zm21 0h26v13h-26z" fill="#76f030" stroke="#3b7818"/>"     "     "     <path d="M819 15h23v5h-23zm24 0h2v5h-2z" stroke="#3b7818" fill="#77f030"/>"     "     <path d="M846 1h20v17h-20zm21 0h28v12h-28zm0 13h27v6h-27z" fill="#78f030" stroke="#3c7818"/>"     "     "     <path d="M896 1h28v12h-28zm-1 13h29v6h-29zm30-13h24v14h-24z" stroke="#3c7818" fill="#79f030"/>"     "     "     <path d="M925 16h24v4h-24zm25-15h24v14h-24z" fill="#7af030" stroke="#3d7818"/>"     "     <path d="M950 16h23v4h-23zm25-15h24v14h-24zm-1 15h22v4h-22z" stroke="#3d7818" fill="#7bf030"/>"     "     "     <path d="M997 16h2v3h-2zm3-15h24v14h-24zm0 15h22v4h-22z" fill="#7cf030" stroke="#3e7818"/>"     "     "     <path d="M521 21h24v14h-24zm0 15h16v21h-16z" stroke="#3e7818" fill="#7df030"/>"     "     <path d="M538 36h7v21h-7zm-17 22h16v21h-16zm17 0h7v21h-7z" fill="#7ef030" stroke="#3f7818"/>"     "     "     <path d="M521 80h21v16h-21zm22 0h2v16h-2zm-22 17h16v21h-16z" stroke="#3f7818" fill="#7ff030"/>"     "     "     <path d="M538 97h7v21h-7zm-17 22h11v30h-11z" fill="#80f030" stroke="#407818"/>"     "     <path d="M533 119h11v30h-11zm-12 31h15v22h-15zm16 0h8v22h-8z" stroke="#407818" fill="#81f030"/>"     "     "     <path d="M521 173h22v15h-22zm0 16h22v15h-22zm0 16h13v25h-13z" fill="#82f030" stroke="#417818"/>"     "     "     <path d="M535 205h10v25h-10zm-14 26h13v25h-13z" stroke="#417818" fill="#83f030"/>"     "     <path d="M535 231h10v25h-10zm-14 26h12v27h-12zm13 0h11v26h-11z" fill="#84f030" stroke="#427818"/>"     "     "     <path d="M521 285h13v25h-13zm14 0h10v24h-10zm-14 26h13v25h-13z" stroke="#427818" fill="#85f030"/>"     "     "     <path d="M535 310h10v26h-10zm-14 27h12v27h-12z" fill="#86f030" stroke="#437818"/>"     "     <path d="M534 337h11v25h-11zm-13 28h18v18h-18zm19 0h5v18h-5z" stroke="#437818" fill="#87f030"/>"     "     "     <path d="M521 384h23v14h-23zm0 15h11v29h-11zm12 0h11v29h-11z" fill="#88f030" stroke="#447818"/>"     "     "     <path d="M521 429h19v17h-19zm20 0h4v17h-4z" stroke="#447818" fill="#89f030"/>"     "     <path d="M521 447h23v14h-23zm0 15h14v23h-14zm15 0h9v23h-9z" fill="#8af030" stroke="#457818"/>"     "     "     <path d="M521 486h19v17h-19zm20 0h4v17h-4zm-20 18h24v8h-24z" stroke="#457818" fill="#8bf030"/>"     "     "     <path d="M546 21h14v23h-14zm15 0h29v11h-29z" fill="#8cf030" stroke="#467818"/>"     "     <path d="M561 33h29v11h-29zm30-12h14v23h-14zm15 0h29v11h-29z" stroke="#467818" fill="#8df030"/>"     "     "     <path d="M606 33h29v11h-29zm30-12h29v11h-29zm0 12h29v11h-29z" fill="#8ef030" stroke="#477818"/>"     "     "     <path d="M666 21h19v17h-19zm0 18h19v5h-19z" stroke="#477818" fill="#8ff030"/>"     "     <path d="M686 21h14v23h-14zm15 0h23v14h-23zm0 15h23v8h-23z" fill="#90f030" stroke="#487818"/>"     "     "     <path d="M725 21h16v20h-16zm0 21h15v2h-15zm17-21h16v20h-16z" stroke="#487818" fill="#91f030"/>"     "     "     <path d="M741 42h17v2h-17zm18-21h16v20h-16z" fill="#92f030" stroke="#497818"/>"     "     <path d="M759 42h15v2h-15zm17-21h20v16h-20zm0 17h20v6h-20z" stroke="#497818" fill="#93f030"/>"     "     "     <path d="M797 21h21v15h-21zm0 16h20v7h-20zm22-16h21v15h-21z" fill="#94f030" stroke="#4a7818"/>"     "     "     <path d="M818 37h22v7h-22zm23-16h15v21h-15z" stroke="#4a7818" fill="#95f030"/>"     "     <path d="M857 21h15v21h-15zm16 0h15v21h-15zm16 0h26v12h-26z" fill="#96f030" stroke="#4b7818"/>"     "     "     <path d="M889 34h26v10h-26zm27-13h26v12h-26zm0 13h24v10h-24z" stroke="#4b7818" fill="#97f030"/>"     "     "     <path d="M943 21h26v12h-26zm-2 13h28v10h-28z" fill="#98f030" stroke="#4c7818"/>"     "     <path d="M970 21h24v13h-24zm0 14h23v9h-23zm25-14h24v13h-24z" stroke="#4c7818" fill="#99f030"/>"     "     "     <path d="M1020 21h4v22h-4zm-26 14h25v8h-25zM546 45h13v24h-13z" fill="#9af030" stroke="#4d7818"/>"     "     "     <path d="M546 70h13v24h-13zm0 25h12v25h-12z" stroke="#4d7818" fill="#9bf030"/>"     "     <path d="M546 121h12v25h-12zm0 26h12v25h-12zm0 26h12v25h-12z" fill="#9cf030" stroke="#4e7818"/>"     "     "     <path d="M546 199h12v25h-12zm0 26h13v23h-13zm0 24h10v29h-10z" stroke="#4e7818" fill="#9df030"/>"     "     "     <path d="M557 249h2v21h-2zm0 22h2v7h-2z" fill="#9ef030" stroke="#4f7818"/>"     "     <path d="M546 279h10v29h-10zm11 0h2v21h-2zm0 22h2v7h-2z" stroke="#4f7818" fill="#9ff030"/>"     "     "     <path d="M546 309h12v24h-12zm0 25h12v24h-12zm0 25h12v24h-12z" fill="#a0f030" stroke="#507818"/>"     "     "     <path d="M546 384h12v24h-12zm0 25h12v24h-12z" stroke="#507818" fill="#a1f030"/>"     "     <path d="M546 434h13v22h-13zm0 23h13v22h-13zm0 23h10v28h-10z" fill="#a2f030" stroke="#517818"/>"     "     "     <path d="M546 509h13v3h-13zm11-29h2v21h-2zm0 22h2v6h-2z" stroke="#517818" fill="#a3f030"/>"     "     "     <path d="M560 45h22v14h-22zm23 0h22v14h-22z" fill="#a4f030" stroke="#527818"/>"     "     <path d="M606 45h22v14h-22zm23 0h22v14h-22zm23 0h22v14h-22z" stroke="#527818" fill="#a5f030"/>"     "     "     <path d="M675 45h22v14h-22zm23 0h21v14h-21zm22 0h21v14h-21z" fill="#a6f030" stroke="#537818"/>"     "     "     <path d="M742 45h21v14h-21zm22 0h28v10h-28z" stroke="#537818" fill="#a7f030"/>"     "     <path d="M764 56h27v3h-27zm29-11h28v10h-28zm-1 11h27v3h-27z" fill="#a8f030" stroke="#547818"/>"     "     "     <path d="M822 45h28v10h-28zm-2 11h30v3h-30zm31-11h28v10h-28z" stroke="#547818" fill="#a9f030"/>"     "     "     <path d="M851 56h24v3h-24zm29-11h28v10h-28z" fill="#aaf030" stroke="#557818"/>"     "     <path d="M876 56h30v3h-30zm33-11h20v14h-20zm21 0h20v14h-20z" stroke="#557818" fill="#abf030"/>"     "     "     <path d="M951 45h23v12h-23zm24 0h23v12h-23zm24 0h21v13h-21z" fill="#acf030" stroke="#567818"/>"     "     "     <path d="M1021 45h3v14h-3zM560 60h18v17h-18z" stroke="#567818" fill="#adf030"/>"     "     <path d="M560 78h17v18h-17zm0 19h18v17h-18zm0 18h17v18h-17z" fill="#aef030" stroke="#577818"/>"     "     "     <path d="M560 134h17v18h-17zm0 19h18v17h-18zm0 18h16v19h-16z" stroke="#577818" fill="#aff030"/>"     "     "     <path d="M560 191h16v19h-16zm0 20h15v20h-15z" fill="#b0f030" stroke="#587818"/>"     "     <path d="M576 211h2v20h-2zm-16 21h15v20h-15zm16 0h2v20h-2z" stroke="#587818" fill="#b1f030"/>"     "     "     <path d="M560 253h15v20h-15zm16 0h2v19h-2zm-16 21h15v20h-15z" fill="#b2f030" stroke="#597818"/>"     "     "     <path d="M576 273h2v19h-2zm-16 22h17v17h-17z" stroke="#597818" fill="#b3f030"/>"     "     <path d="M560 313h17v17h-17zm0 18h17v17h-17zm0 18h16v18h-16z" fill="#b4f030" stroke="#5a7818"/>"     "     "     <path d="M560 368h18v16h-18zm0 17h18v16h-18zm0 17h15v19h-15z" stroke="#5a7818" fill="#b5f030"/>"     "     "     <path d="M576 402h2v19h-2zm-16 20h15v19h-15z" fill="#b6f030" stroke="#5b7818"/>"     "     <path d="M576 422h2v19h-2zm-16 20h15v19h-15zm16 0h2v19h-2z" stroke="#5b7818" fill="#b7f030"/>"     "     "     <path d="M560 462h10v27h-10zm11 0h7v27h-7zm-11 28h13v21h-13z" fill="#b8f030" stroke="#5c7818"/>"     "     "     <path d="M574 490h4v21h-4zm5-430h27v10h-27z" stroke="#5c7818" fill="#b9f030"/>"     "     <path d="M607 60h24v10h-24zm25 0h24v10h-24zm25 0h24v10h-24z" fill="#baf030" stroke="#5d7818"/>"     "     "     <path d="M682 60h24v10h-24zm25 0h24v10h-24zm25 0h24v10h-24z" stroke="#5d7818" fill="#bbf030"/>"     "     "     <path d="M757 60h26v9h-26zm27 0h29v8h-29z" fill="#bcf030" stroke="#5e7818"/>"     "     <path d="M814 60h29v8h-29zm30 0h26v9h-26zm27 0h26v9h-26z" stroke="#5e7818" fill="#bdf030"/>"     "     "     <path d="M898 60h23v10h-23zm24 0h23v10h-23zm24 0h23v10h-23z" fill="#bef030" stroke="#5f7818"/>"     "     "     <path d="M970 60h28v8h-28zm29 0h22v10h-22z" stroke="#5f7818" fill="#bff030"/>"     "     <path d="M1022 60h2v10h-2zM579 71h16v17h-16zm0 18h16v17h-16z" fill="#c0f030" stroke="#607818"/>"     "     "     <path d="M579 107h16v17h-16zm0 18h16v17h-16zm0 18h16v17h-16z" stroke="#607818" fill="#c1f030"/>"     "     "     <path d="M579 161h15v18h-15zm0 19h15v18h-15z" fill="#c2f030" stroke="#617818"/>"     "     <path d="M579 199h15v18h-15zm0 19h11v24h-11zm12 0h4v22h-4z" stroke="#617818" fill="#c3f030"/>"     "     "     <path d="M579 243h11v24h-11zm12-2h4v22h-4zm0 23h4v3h-4z" fill="#c4f030" stroke="#627818"/>"     "     "     <path d="M579 268h14v19h-14zm0 20h12v22h-12z" stroke="#627818" fill="#c5f030"/>"     "     <path d="M592 288h3v20h-3zm-13 23h12v22h-12zm13-2h3v24h-3z" fill="#c6f030" stroke="#637818"/>"     "     "     <path d="M579 334h12v22h-12zm13 0h3v20h-3zm-13 23h12v22h-12z" stroke="#637818" fill="#c7f030"/>"     "     "     <path d="M592 355h3v24h-3zm-13 25h13v20h-13z" fill="#c8f030" stroke="#647818"/>"     "     <path d="M593 380h2v19h-2zm-14 21h13v20h-13zm14-1h2v18h-2z" stroke="#647818" fill="#c9f030"/>"     "     "     <path d="M579 422h16v16h-16zm0 17h11v23h-11zm12 0h3v23h-3z" fill="#caf030" stroke="#657818"/>"     "     "     <path d="M579 463h15v17h-15zm0 18h11v23h-11z" stroke="#657818" fill="#cbf030"/>"     "     <path d="M579 505h16v7h-16zm12-24h3v23h-3zm5-410h11v23h-11z" fill="#ccf030" stroke="#667818"/>"     "     "     <path d="M608 71h11v23h-11zm12 0h11v23h-11zm12 0h17v15h-17z" stroke="#667818" fill="#cdf030"/>"     "     "     <path d="M632 87h17v7h-17zm18-16h11v23h-11z" fill="#cef030" stroke="#677818"/>"     "     <path d="M662 71h21v12h-21zm0 13h21v10h-21zm22-13h21v12h-21z" stroke="#677818" fill="#cff030"/>"     "     "     <path d="M684 84h21v10h-21zm22-13h21v12h-21zm0 13h21v10h-21z" fill="#d0f030" stroke="#687818"/>"     "     "     <path d="M728 71h12v21h-12zm13 0h14v18h-14z" stroke="#687818" fill="#d1f030"/>"     "     <path d="M741 90h14v4h-14zm15-19h14v18h-14zm0 19h14v4h-14z" fill="#d2f030" stroke="#697818"/>"     "     "     <path d="M771 71h14v18h-14zm0 19h13v4h-13zm15-19h19v13h-19z" stroke="#697818" fill="#d3f030"/>"     "     "     <path d="M786 85h18v9h-18zm20-14h13v19h-13z" fill="#d4f030" stroke="#6a7818"/>"     "     <path d="M806 91h13v3h-13zm14-20h13v19h-13zm0 20h13v3h-13z" stroke="#6a7818" fill="#d5f030"/>"     "     "     <path d="M834 71h13v19h-13zm0 20h13v3h-13zm14-20h13v19h-13z" fill="#d6f030" stroke="#6b7818"/>"     "     "     <path d="M848 91h13v3h-13zm14-20h22v11h-22z" stroke="#6b7818" fill="#d7f030"/>"     "     <path d="M862 83h22v11h-22zm23-12h22v11h-22zm0 12h21v11h-21z" fill="#d8f030" stroke="#6c7818"/>"     "     "     <path d="M908 71h20v12h-20zm0 13h20v10h-20zm21-13h12v20h-12z" stroke="#6c7818" fill="#d9f030"/>"     "     "     <path d="M929 92h12v2h-12zm13-21h20v12h-20z" fill="#daf030" stroke="#6d7818"/>"     "     <path d="M942 84h20v10h-20zm21-13h12v20h-12zm0 21h12v2h-12z" stroke="#6d7818" fill="#dbf030"/>"     "     "     <path d="M976 71h15v16h-15zm0 17h15v6h-15zm16-17h15v16h-15z" fill="#dcf030" stroke="#6e7818"/>"     "     "     <path d="M992 88h15v6h-15zm16-17h15v16h-15z" stroke="#6e7818" fill="#ddf030"/>"     "     <path d="M1008 88h16v6h-16zm-412 7h14v17h-14zm0 18h14v17h-14z" fill="#def030" stroke="#6f7818"/>"     "     "     <path d="M596 131h14v17h-14zm0 18h14v17h-14zm0 18h14v17h-14z" stroke="#6f7818" fill="#dff030"/>"     "     "     <path d="M596 185h14v17h-14zm0 18h13v18h-13z" fill="#e0f030" stroke="#707818"/>"     "     <path d="M596 222h13v18h-13zm0 19h13v18h-13zm0 19h11v21h-11z" stroke="#707818" fill="#e1f030"/>"     "     "     <path d="M608 260h2v18h-2zm-12 22h11v21h-11zm12-3h2v18h-2z" fill="#e2f030" stroke="#717818"/>"     "     "     <path d="M608 298h2v5h-2zm-12 6h11v21h-11z" stroke="#717818" fill="#e3f030"/>"     "     <path d="M608 304h2v18h-2zm-12 22h11v21h-11zm12-3h2v18h-2z" fill="#e4f030" stroke="#727818"/>"     "     "     <path d="M608 342h2v5h-2zm-12 6h11v21h-11zm12 0h2v15h-2z" stroke="#727818" fill="#e5f030"/>"     "     "     <path d="M608 364h2v5h-2zm-12 6h11v21h-11z" fill="#e6f030" stroke="#737818"/>"     "     <path d="M608 370h2v14h-2zm0 15h2v6h-2zm-12 7h8v28h-8z" stroke="#737818" fill="#e7f030"/>"     "     "     <path d="M605 392h5v28h-5zm-9 29h8v28h-8zm9 0h5v28h-5z" fill="#e8f030" stroke="#747818"/>"     "     "     <path d="M596 450h8v28h-8zm9 0h5v28h-5z" stroke="#747818" fill="#e9f030"/>"     "     <path d="M596 479h8v28h-8zm9 0h5v28h-5zm-9 29h13v4h-13z" fill="#eaf030" stroke="#757818"/>"     "     "     <path d="M611 95h19v12h-19zm20 0h22v10h-22zm23 0h20v11h-20z" stroke="#757818" fill="#ebf030"/>"     "     "     <path d="M675 95h20v11h-20zm21 0h20v11h-20z" fill="#ecf030" stroke="#767818"/>"     "     <path d="M717 95h20v11h-20zm21 0h30v7h-30zm0 8h23v3h-23z" stroke="#767818" fill="#edf030"/>"     "     "     <path d="M762 103h6v4h-6zm7-8h30v7h-30zm0 8h30v2h-30z" fill="#eef030" stroke="#777818"/>"     "     "     <path d="M800 95h30v7h-30zm0 8h30v2h-30z" stroke="#777818" fill="#eff030"/>"     "     <path d="M831 95h30v7h-30zm0 8h16v4h-16zm17 0h13v4h-13z" fill="#f0f030" stroke="#787818"/>"     "     "     <path d="M862 95h30v7h-30zm0 8h16v4h-16zm17 0h13v4h-13z" stroke="#787818" fill="#f0f031"/>"     "     "     <path d="M893 95h18v12h-18zm19 0h18v12h-18z" fill="#f0f032" stroke="#787819"/>"     "     <path d="M931 95h18v12h-18zm19 0h18v12h-18zm19 0h21v10h-21z" stroke="#787819" fill="#f0f033"/>"     "     "     <path d="M991 95h29v7h-29zm30 0h3v12h-3zm-30 8h16v4h-16z" fill="#f0f034" stroke="#78781a"/>"     "     "     <path d="M1008 103h12v4h-12zm-397 5h15v15h-15z" stroke="#78781a" fill="#f0f035"/>"     "     <path d="M611 124h15v15h-15zm0 16h14v16h-14zm0 17h14v16h-14z" fill="#f0f036" stroke="#78781b"/>"     "     "     <path d="M611 174h14v16h-14zm0 17h14v16h-14zm0 17h13v17h-13z" stroke="#78781b" fill="#f0f037"/>"     "     "     <path d="M611 226h13v17h-13zm0 18h13v17h-13z" fill="#f0f038" stroke="#78781c"/>"     "     <path d="M611 262h11v19h-11zm12 0h3v19h-3zm-12 20h7v29h-7z" stroke="#78781c" fill="#f0f039"/>"     "     "     <path d="M619 282h7v29h-7zm-8 30h14v15h-14zm0 16h11v19h-11z" fill="#f0f03a" stroke="#78781d"/>"     "     "     <path d="M623 328h3v19h-3zm-12 20h7v29h-7z" stroke="#78781d" fill="#f0f03b"/>"     "     <path d="M619 348h7v28h-7zm-8 30h11v19h-11zm12 0h3v18h-3z" fill="#f0f03c" stroke="#78781e"/>"     "     "     <path d="M611 398h15v14h-15zm0 15h11v19h-11zm12 0h3v18h-3z" stroke="#78781e" fill="#f0f03d"/>"     "     "     <path d="M611 433h11v19h-11zm12-1h3v20h-3z" fill="#f0f03e" stroke="#78781f"/>"     "     <path d="M611 453h15v14h-15zm0 15h14v15h-14zm0 16h14v15h-14z" stroke="#78781f" fill="#f0f03f"/>"     "     "     <path d="M611 500h15v12h-15zm16-392h19v11h-19zm20 0h25v8h-25z" fill="#f0f040" stroke="#787820"/>"     "     "     <path d="M647 117h14v2h-14zm15 0h10v2h-10z" stroke="#787820" fill="#f0f041"/>"     "     <path d="M673 108h28v7h-28zm0 8h18v3h-18zm19 0h9v3h-9z" fill="#f0f042" stroke="#787821"/>"     "     "     <path d="M702 108h28v7h-28zm0 8h18v3h-18zm19 0h9v3h-9z" stroke="#787821" fill="#f0f043"/>"     "     "     <path d="M731 108h28v7h-28zm0 8h18v3h-18z" fill="#f0f044" stroke="#787822"/>"     "     <path d="M750 116h9v3h-9zm10-8h22v9h-22zm23 0h18v11h-18z" stroke="#787822" fill="#f0f045"/>"     "     "     <path d="M802 108h18v11h-18zm19 0h18v11h-18zm19 0h18v11h-18z" fill="#f0f046" stroke="#787823"/>"     "     "     <path d="M859 108h18v11h-18zm19 0h18v11h-18z" stroke="#787823" fill="#f0f047"/>"     "     <path d="M897 108h24v8h-24zm0 9h14v2h-14zm15 0h9v2h-9z" fill="#f0f048" stroke="#787824"/>"     "     "     <path d="M922 108h24v8h-24zm0 9h14v2h-14zm15 0h9v2h-9z" stroke="#787824" fill="#f0f049"/>"     "     "     <path d="M947 108h24v8h-24zm0 9h13v2h-13z" fill="#f0f04a" stroke="#787825"/>"     "     <path d="M961 117h8v2h-8zm11-9h24v8h-24zm-2 9h13v2h-13z" stroke="#787825" fill="#f0f04b"/>"     "     "     <path d="M984 117h12v2h-12zm13-9h24v8h-24zm25 0h2v11h-2z" fill="#f0f04c" stroke="#787826"/>"     "     "     <path d="M997 117h13v2h-13zm14 0h8v2h-8z" stroke="#787826" fill="#f0f04d"/>"     "     <path d="M627 120h13v16h-13zm0 17h13v16h-13zm0 17h13v16h-13z" fill="#f0f04e" stroke="#787827"/>"     "     "     <path d="M627 171h13v16h-13zm0 17h13v16h-13zm0 17h13v16h-13z" stroke="#787827" fill="#f0f04f"/>"     "     "     <path d="M627 222h12v17h-12zm0 18h12v17h-12z" fill="#f0f050" stroke="#787828"/>"     "     <path d="M627 258h12v17h-12zm0 18h12v17h-12zm0 18h12v17h-12z" stroke="#787828" fill="#f0f051"/>"     "     "     <path d="M627 312h12v17h-12zm0 18h7v27h-7zm8 0h5v27h-5z" fill="#f0f052" stroke="#787829"/>"     "     "     <path d="M627 358h13v15h-13zm0 16h7v27h-7z" stroke="#787829" fill="#f0f053"/>"     "     <path d="M635 374h5v27h-5zm-8 28h7v27h-7zm8 0h5v27h-5z" fill="#f0f054" stroke="#78782a"/>"     "     "     <path d="M627 430h12v16h-12zm0 17h12v16h-12zm0 17h12v16h-12z" stroke="#78782a" fill="#f0f055"/>"     "     "     <path d="M627 481h12v16h-12zm0 17h13v14h-13z" fill="#f0f056" stroke="#78782b"/>"     "     <path d="M641 120h14v14h-14zm15 0h14v14h-14zm15 0h14v14h-14z" stroke="#78782b" fill="#f0f057"/>"     "     "     <path d="M686 120h16v12h-16zm17 0h16v12h-16zm17 0h19v10h-19z" fill="#f0f058" stroke="#78782c"/>"     "     "     <path d="M720 131h18v3h-18zm20-11h21v9h-21z" stroke="#78782c" fill="#f0f059"/>"     "     <path d="M740 130h15v4h-15zm16 0h5v4h-5zm6-10h21v9h-21z" fill="#f0f05a" stroke="#78782d"/>"     "     "     <path d="M762 130h15v4h-15zm16 0h5v4h-5zm6-10h21v9h-21z" stroke="#78782d" fill="#f0f05b"/>"     "     "     <path d="M784 130h17v3h-17zm22-10h19v10h-19z" fill="#f0f05c" stroke="#78782e"/>"     "     <path d="M806 131h17v3h-17zm20-11h19v10h-19zm-2 11h17v3h-17z" stroke="#78782e" fill="#f0f05d"/>"     "     "     <path d="M846 120h26v7h-26zm0 8h26v6h-26zm27-8h17v11h-17z" fill="#f0f05e" stroke="#78782f"/>"     "     "     <path d="M873 132h13v2h-13zm18-12h26v7h-26z" stroke="#78782f" fill="#f0f05f"/>"     "     <path d="M891 128h26v6h-26zm27-8h17v11h-17zm0 12h13v2h-13z" fill="#f0f060" stroke="#787830"/>"     "     "     <path d="M936 120h23v8h-23zm0 9h23v5h-23zm24-9h17v11h-17z" stroke="#787830" fill="#f0f061"/>"     "     "     <path d="M960 132h11v2h-11zm12 0h5v2h-5z" fill="#f0f062" stroke="#787831"/>"     "     <path d="M978 120h26v7h-26zm0 8h26v6h-26zm27-8h13v14h-13z" stroke="#787831" fill="#f0f063"/>"     "     "     <path d="M1019 120h5v14h-5zm-378 15h23v8h-23zm0 9h7v26h-7z" fill="#f0f064" stroke="#787832"/>"     "     "     <path d="M649 144h9v20h-9zm10 0h5v20h-5z" stroke="#787832" fill="#f0f065"/>"     "     <path d="M649 165h15v5h-15zm-8 6h20v9h-20zm21 0h2v7h-2z" fill="#f0f066" stroke="#787833"/>"     "     "     <path d="M641 181h6v29h-6zm7 0h9v20h-9zm10 0h6v20h-6z" stroke="#787833" fill="#f0f067"/>"     "     "     <path d="M648 202h16v8h-16zm-7 9h20v9h-20z" fill="#f0f068" stroke="#787834"/>"     "     <path d="M662 211h2v6h-2zm-21 10h20v9h-20zm21-3h2v6h-2z" stroke="#787834" fill="#f0f069"/>"     "     "     <path d="M641 231h20v9h-20zm21-6h2v6h-2zm-21 16h9v20h-9z" fill="#f0f06a" stroke="#787835"/>"     "     "     <path d="M651 241h13v14h-13zm0 15h13v5h-13z" stroke="#787835" fill="#f0f06b"/>"     "     <path d="M641 262h14v13h-14zm15 0h8v13h-8zm-15 14h10v18h-10z" fill="#f0f06c" stroke="#787836"/>"     "     "     <path d="M652 276h10v18h-10zm-11 19h10v18h-10zm11 0h10v18h-10z" stroke="#787836" fill="#f0f06d"/>"     "     "     <path d="M641 314h7v25h-7zm8 0h7v25h-7z" fill="#f0f06e" stroke="#787837"/>"     "     <path d="M657 314h7v25h-7zm-16 26h7v25h-7zm8 0h12v15h-12z" stroke="#787837" fill="#f0f06f"/>"     "     "     <path d="M649 356h15v9h-15zm-8 10h7v25h-7zm8 0h7v25h-7z" fill="#f0f070" stroke="#787838"/>"     "     "     <path d="M657 366h7v25h-7zm-16 26h22v8h-22z" stroke="#787838" fill="#f0f071"/>"     "     <path d="M641 401h11v16h-11zm12 0h11v16h-11zm-12 17h16v11h-16z" fill="#f0f072" stroke="#787839"/>"     "     "     <path d="M658 418h6v11h-6zm-17 12h11v16h-11zm12 0h11v16h-11z" stroke="#787839" fill="#f0f073"/>"     "     "     <path d="M641 447h7v24h-7zm8 0h7v24h-7z" fill="#f0f074" stroke="#78783a"/>"     "     <path d="M657 447h7v24h-7zm-16 25h7v24h-7zm0 25h21v8h-21z" stroke="#78783a" fill="#f0f075"/>"     "     "     <path d="M641 506h20v6h-20zm8-34h7v24h-7zm8 0h7v23h-7z" fill="#f0f076" stroke="#78783b"/>"     "     "     <path d="M665 135h17v10h-17zm18 0h21v8h-21z" stroke="#78783b" fill="#f0f077"/>"     "     <path d="M705 135h21v8h-21zm22 0h21v8h-21zm22 0h21v8h-21z" fill="#f0f078" stroke="#78783c"/>"     "     "     <path d="M771 135h27v6h-27zm0 7h17v3h-17zm18 0h8v3h-8z" stroke="#78783c" fill="#f0f079"/>"     "     "     <path d="M799 135h27v6h-27zm-1 7h16v3h-16z" fill="#f0f07a" stroke="#78783d"/>"     "     <path d="M815 142h11v3h-11zm12-7h23v7h-23zm24 0h20v8h-20z" stroke="#78783d" fill="#f0f07b"/>"     "     "     <path d="M872 135h20v8h-20zm21 0h20v8h-20zm21 0h20v8h-20z" fill="#f0f07c" stroke="#78783e"/>"     "     "     <path d="M935 135h16v10h-16zm17 0h16v10h-16z" stroke="#78783e" fill="#f0f07d"/>"     "     <path d="M969 135h16v10h-16zm17 0h16v10h-16zm17 0h16v10h-16z" fill="#f0f07e" stroke="#78783f"/>"     "     "     <path d="M1020 135h4v10h-4zm-355 11h13v13h-13zm14 0h14v12h-14z" stroke="#78783f" fill="#f0f07f"/>"     "     "     <path d="M694 146h14v12h-14zm15 0h14v12h-14z" fill="#f0f080" stroke="#787840"/>"     "     <path d="M724 146h15v11h-15zm16 0h15v11h-15zm16 0h15v11h-15z" stroke="#787840" fill="#f0f081"/>"     "     "     <path d="M772 146h15v11h-15zm16 0h15v11h-15zm16 0h30v5h-30z" fill="#f0f082" stroke="#787841"/>"     "     "     <path d="M804 152h30v5h-30zm31-6h22v7h-22z" stroke="#787841" fill="#f0f083"/>"     "     <path d="M835 154h22v5h-22zm23-8h22v7h-22zm0 8h22v5h-22z" fill="#f0f084" stroke="#787842"/>"     "     "     <path d="M881 146h22v7h-22zm0 8h22v5h-22zm23-8h12v13h-12z" stroke="#787842" fill="#f0f085"/>"     "     "     <path d="M917 146h14v11h-14zm15 0h29v5h-29z" fill="#f0f086" stroke="#787843"/>"     "     <path d="M932 152h24v6h-24zm25 0h4v7h-4zm5-6h17v9h-17z" stroke="#787843" fill="#f0f087"/>"     "     "     <path d="M962 156h15v3h-15zm18-10h14v11h-14zm15 0h14v11h-14z" fill="#f0f088" stroke="#787844"/>"     "     "     <path d="M1010 146h14v11h-14zm-345 14h9v17h-9z" stroke="#787844" fill="#f0f089"/>"     "     <path d="M665 178h8v19h-8zm0 20h9v17h-9zm0 18h9v17h-9z" fill="#f0f08a" stroke="#787845"/>"     "     "     <path d="M665 234h5v28h-5zm6 0h3v15h-3zm0 16h3v12h-3z" stroke="#787845" fill="#f0f08b"/>"     "     "     <path d="M665 263h8v18h-8zm0 19h8v18h-8z" fill="#f0f08c" stroke="#787846"/>"     "     <path d="M665 301h9v16h-9zm0 17h9v16h-9zm0 17h9v16h-9z" stroke="#787846" fill="#f0f08d"/>"     "     "     <path d="M665 352h9v16h-9zm0 17h9v16h-9zm0 17h6v23h-6z" fill="#f0f08e" stroke="#787847"/>"     "     "     <path d="M665 410h6v23h-6zm0 24h7v20h-7z" stroke="#787847" fill="#f0f08f"/>"     "     <path d="M665 455h8v17h-8zm0 18h8v17h-8zm0 18h8v17h-8z" fill="#f0f090" stroke="#787848"/>"     "     "     <path d="M665 509h8v3h-8zm10-349h10v15h-10zm11 0h10v15h-10z" stroke="#787848" fill="#f0f091"/>"     "     "     <path d="M697 160h10v15h-10zm11 0h15v10h-15z" fill="#f0f092" stroke="#787849"/>"     "     <path d="M708 171h12v4h-12zm16-11h15v10h-15zm-3 11h15v3h-15z" stroke="#787849" fill="#f0f093"/>"     "     "     <path d="M740 160h12v12h-12zm13 0h12v12h-12zm13 0h12v12h-12z" fill="#f0f094" stroke="#78784a"/>"     "     "     <path d="M779 160h13v11h-13zm0 12h13v3h-13z" stroke="#78784a" fill="#f0f095"/>"     "     <path d="M793 160h11v13h-11zm12 0h13v11h-13zm0 12h13v3h-13z" fill="#f0f096" stroke="#78784b"/>"     "     "     <path d="M819 160h13v11h-13zm0 12h12v3h-12zm14-12h13v11h-13z" stroke="#78784b" fill="#f0f097"/>"     "     "     <path d="M832 172h14v3h-14zm15-12h11v13h-11z" fill="#f0f098" stroke="#78784c"/>"     "     <path d="M859 160h11v13h-11zm12 0h11v13h-11zm12 0h14v10h-14z" stroke="#78784c" fill="#f0f099"/>"     "     "     <path d="M883 171h11v4h-11zm15-11h10v14h-10zm11 0h10v14h-10z" fill="#f0f09a" stroke="#78784d"/>"     "     "     <path d="M920 160h14v10h-14zm0 11h14v3h-14z" stroke="#78784d" fill="#f0f09b"/>"     "     <path d="M935 160h14v10h-14zm0 11h11v4h-11zm15-11h14v10h-14z" fill="#f0f09c" stroke="#78784e"/>"     "     "     <path d="M947 171h11v4h-11zm12 0h5v4h-5zm6-11h17v8h-17z" stroke="#78784e" fill="#f0f09d"/>"     "     "     <path d="M965 169h17v6h-17zm18-9h17v8h-17z" fill="#f0f09e" stroke="#78784f"/>"     "     <path d="M983 169h16v6h-16zm18-9h17v8h-17zm18 0h5v15h-5z" stroke="#78784f" fill="#f0f09f"/>"     "     "     <path d="M1000 169h18v6h-18zm-325 7h8v17h-8zm0 18h8v17h-8z" fill="#f0f0a0" stroke="#787850"/>"     "     "     <path d="M675 212h8v17h-8zm0 18h7v19h-7z" stroke="#787850" fill="#f0f0a1"/>"     "     <path d="M675 250h7v19h-7zm0 20h7v19h-7zm0 20h7v19h-7z" fill="#f0f0a2" stroke="#787851"/>"     "     "     <path d="M675 310h8v16h-8zm0 17h8v16h-8zm0 17h8v16h-8z" stroke="#787851" fill="#f0f0a3"/>"     "     "     <path d="M675 361h8v16h-8zm0 17h8v16h-8z" fill="#f0f0a4" stroke="#787852"/>"     "     <path d="M675 395h8v16h-8zm0 17h7v18h-7zm0 19h7v18h-7z" stroke="#787852" fill="#f0f0a5"/>"     "     "     <path d="M675 450h7v18h-7zm0 19h7v18h-7zm0 19h7v18h-7z" fill="#f0f0a6" stroke="#787853"/>"     "     "     <path d="M675 507h8v5h-8zm9-331h9v15h-9z" stroke="#787853" fill="#f0f0a7"/>"     "     <path d="M684 192h9v15h-9zm0 16h9v15h-9zm0 16h9v15h-9z" fill="#f0f0a8" stroke="#787854"/>"     "     "     <path d="M684 240h9v14h-9zm0 15h6v20h-6zm0 21h5v23h-5z" stroke="#787854" fill="#f0f0a9"/>"     "     "     <path d="M690 276h3v12h-3zm0 13h3v10h-3z" fill="#f0f0aa" stroke="#787855"/>"     "     <path d="M684 300h8v15h-8zm0 16h5v23h-5zm6 0h3v11h-3z" stroke="#787855" fill="#f0f0ab"/>"     "     "     <path d="M690 328h3v11h-3zm-6 12h5v23h-5zm6 0h3v11h-3z" fill="#f0f0ac" stroke="#787856"/>"     "     "     <path d="M690 352h3v10h-3zm-6 12h8v15h-8z" stroke="#787856" fill="#f0f0ad"/>"     "     <path d="M684 380h5v23h-5zm6 0h3v10h-3zm0 11h3v10h-3z" fill="#f0f0ae" stroke="#787857"/>"     "     "     <path d="M684 404h7v17h-7zm0 18h9v13h-9zm0 14h9v13h-9z" stroke="#787857" fill="#f0f0af"/>"     "     "     <path d="M684 450h6v19h-6zm0 20h9v13h-9z" fill="#f0f0b0" stroke="#787858"/>"     "     <path d="M684 484h6v19h-6zm0 20h9v8h-9zm10-328h11v12h-11z" stroke="#787858" fill="#f0f0b1"/>"     "     "     <path d="M706 176h12v11h-12zm13 0h13v10h-13zm14 0h13v10h-13z" fill="#f0f0b2" stroke="#787859"/>"     "     "     <path d="M747 176h11v11h-11zm12 0h11v11h-11z" stroke="#787859" fill="#f0f0b3"/>"     "     <path d="M771 176h10v12h-10zm11 0h12v10h-12zm13 0h10v12h-10z" fill="#f0f0b4" stroke="#78785a"/>"     "     "     <path d="M806 176h13v9h-13zm14 0h19v6h-19zm0 7h19v5h-19z" stroke="#78785a" fill="#f0f0b5"/>"     "     "     <path d="M840 176h13v9h-13zm14 0h13v9h-13z" fill="#f0f0b6" stroke="#78785b"/>"     "     <path d="M868 176h22v5h-22zm0 6h22v5h-22zm23-6h22v5h-22z" stroke="#78785b" fill="#f0f0b7"/>"     "     "     <path d="M891 182h18v6h-18zm19 0h3v6h-3zm4-6h16v7h-16z" fill="#f0f0b8" stroke="#78785c"/>"     "     "     <path d="M914 184h9v4h-9zm10 0h5v4h-5z" stroke="#78785c" fill="#f0f0b9"/>"     "     <path d="M931 176h16v7h-16zm-1 8h9v4h-9zm10 0h7v4h-7z" fill="#f0f0ba" stroke="#78785d"/>"     "     "     <path d="M948 176h16v7h-16zm0 8h9v4h-9zm10 0h5v4h-5z" stroke="#78785d" fill="#f0f0bb"/>"     "     "     <path d="M965 176h16v7h-16zm-1 8h9v4h-9z" fill="#f0f0bc" stroke="#78785e"/>"     "     <path d="M974 184h7v4h-7zm8-8h14v8h-14zm0 9h10v3h-10z" stroke="#78785e" fill="#f0f0bd"/>"     "     "     <path d="M997 176h14v8h-14zm15 0h10v11h-10zm-19 9h8v3h-8z" fill="#f0f0be" stroke="#78785f"/>"     "     "     <path d="M1002 185h8v3h-8zm-308 4h6v18h-6z" stroke="#78785f" fill="#f0f0bf"/>"     "     <path d="M694 208h6v18h-6zm0 19h5v21h-5zm0 22h5v21h-5z" fill="#f0f0c0" stroke="#787860"/>"     "     "     <path d="M694 271h5v21h-5zm0 22h5v20h-5zm0 21h5v19h-5z" stroke="#787860" fill="#f0f0c1"/>"     "     "     <path d="M694 334h6v16h-6zm0 17h6v14h-6z" fill="#f0f0c2" stroke="#787861"/>"     "     <path d="M694 366h6v14h-6zm0 15h6v14h-6zm0 15h5v16h-5z" stroke="#787861" fill="#f0f0c3"/>"     "     "     <path d="M694 413h5v16h-5zm0 17h5v16h-5zm0 17h6v13h-6z" fill="#f0f0c4" stroke="#787862"/>"     "     "     <path d="M694 461h6v13h-6zm0 14h6v13h-6z" stroke="#787862" fill="#f0f0c5"/>"     "     <path d="M694 489h6v13h-6zm0 14h6v9h-6zm7-314h10v11h-10z" fill="#f0f0c6" stroke="#787863"/>"     "     "     <path d="M712 189h11v10h-11zm12 0h11v10h-11zm12 0h10v11h-10z" stroke="#787863" fill="#f0f0c7"/>"     "     "     <path d="M747 189h12v9h-12zm13 0h12v9h-12z" fill="#f0f0c8" stroke="#787864"/>"     "     <path d="M773 189h12v9h-12zm13 0h15v7h-15zm0 8h7v3h-7z" stroke="#787864" fill="#f0f0c9"/>"     "     "     <path d="M794 197h7v3h-7zm8-8h15v7h-15zm0 8h7v3h-7z" fill="#f0f0ca" stroke="#787865"/>"     "     "     <path d="M810 197h6v3h-6zm8-8h13v8h-13z" stroke="#787865" fill="#f0f0cb"/>"     "     <path d="M832 189h13v8h-13zm14 0h10v10h-10zm11 0h10v10h-10z" fill="#f0f0cc" stroke="#787866"/>"     "     "     <path d="M868 189h9v11h-9zm10 0h14v7h-14zm0 8h6v3h-6z" stroke="#787866" fill="#f0f0cd"/>"     "     "     <path d="M885 197h6v3h-6zm8-8h11v9h-11z" fill="#f0f0ce" stroke="#787867"/>"     "     <path d="M905 189h14v7h-14zm0 8h6v3h-6zm7 0h6v3h-6z" stroke="#787867" fill="#f0f0cf"/>"     "     "     <path d="M920 189h11v9h-11zm12 0h14v7h-14zm0 8h5v3h-5z" fill="#f0f0d0" stroke="#787868"/>"     "     "     <path d="M938 197h5v3h-5zm9-8h11v9h-11z" stroke="#787868" fill="#f0f0d1"/>"     "     <path d="M959 189h12v8h-12zm13 0h12v8h-12zm13 0h12v8h-12z" fill="#f0f0d2" stroke="#787869"/>"     "     "     <path d="M998 189h12v8h-12zm13 0h13v7h-13zm-310 12h10v9h-10z" stroke="#787869" fill="#f0f0d3"/>"     "     "     <path d="M701 211h10v9h-10zm0 10h10v9h-10z" fill="#f0f0d4" stroke="#78786a"/>"     "     <path d="M701 231h9v10h-9zm0 11h8v11h-8zm0 12h8v11h-8z" stroke="#78786a" fill="#f0f0d5"/>"     "     "     <path d="M701 266h8v11h-8zm0 12h7v12h-7zm0 13h7v12h-7z" fill="#f0f0d6" stroke="#78786b"/>"     "     "     <path d="M701 304h7v12h-7zm0 13h7v12h-7z" stroke="#78786b" fill="#f0f0d7"/>"     "     <path d="M701 330h7v12h-7zm0 13h9v9h-9zm0 10h8v10h-8z" fill="#f0f0d8" stroke="#78786c"/>"     "     "     <path d="M701 364h10v8h-10zm0 9h5v15h-5zm6 0h4v8h-4z" stroke="#78786c" fill="#f0f0d9"/>"     "     "     <path d="M701 389h5v15h-5zm6-7h4v8h-4z" fill="#f0f0da" stroke="#78786d"/>"     "     <path d="M707 391h4v7h-4zm-6 14h7v11h-7zm0 12h5v15h-5z" stroke="#78786d" fill="#f0f0db"/>"     "     "     <path d="M701 433h5v15h-5zm0 16h5v15h-5zm0 16h6v12h-6z" fill="#f0f0dc" stroke="#78786e"/>"     "     "     <path d="M701 478h8v9h-8zm0 10h8v9h-8z" stroke="#78786e" fill="#f0f0dd"/>"     "     <path d="M701 498h8v9h-8zm11-297h5v14h-5zm0 15h5v14h-5z" fill="#f0f0de" stroke="#78786f"/>"     "     "     <path d="M712 231h5v13h-5zm0 14h5v12h-5zm0 13h5v12h-5z" stroke="#78786f" fill="#f0f0df"/>"     "     "     <path d="M712 271h5v12h-5zm0 13h5v11h-5z" fill="#f0f0e0" stroke="#787870"/>"     "     <path d="M712 296h5v11h-5zm0 12h5v11h-5zm0 12h5v10h-5z" stroke="#787870" fill="#f0f0e1"/>"     "     "     <path d="M712 331h5v9h-5zm0 10h5v8h-5zm0 9h5v8h-5z" fill="#f0f0e2" stroke="#787871"/>"     "     "     <path d="M712 359h5v7h-5zm0 8h5v7h-5z" stroke="#787871" fill="#f0f0e3"/>"     "     <path d="M712 375h5v7h-5zm0 8h5v7h-5zm0 8h5v7h-5z" fill="#f0f0e4" stroke="#787872"/>"     "     "     <path d="M712 399h5v6h-5zm0 7h5v6h-5zm0 7h5v5h-5z" stroke="#787872" fill="#f0f0e5"/>"     "     "     <path d="M712 419h5v5h-5zm6-218h10v7h-10z" fill="#f0f0e6" stroke="#787873"/>"     "     <path d="M729 201h10v7h-10zm11 0h11v6h-11zm12 0h11v6h-11z" stroke="#787873" fill="#f0f0e7"/>"     "     "     <path d="M764 201h11v6h-11zm12 0h9v7h-9zm10 0h9v7h-9z" fill="#f0f0e8" stroke="#787874"/>"     "     "     <path d="M796 201h10v6h-10zm11 0h10v6h-10z" stroke="#787874" fill="#f0f0e9"/>"     "     <path d="M818 201h10v6h-10zm11 0h10v6h-10zm11 0h8v7h-8z" fill="#f0f0ea" stroke="#787875"/>"     "     "     <path d="M849 201h8v7h-8zm9 0h8v7h-8zm9 0h8v7h-8z" stroke="#787875" fill="#f0f0eb"/>"     "     "     <path d="M876 201h7v7h-7zm8 0h8v6h-8z" fill="#f0f0ec" stroke="#787876"/>"     "     <path d="M893 201h8v6h-8zm9 0h6v7h-6zm7 0h6v7h-6z" stroke="#787876" fill="#f0f0ed"/>"     "     "     <path d="M916 201h6v7h-6zm7 0h7v6h-7zm8 0h6v6h-6z" fill="#f0f0ee" stroke="#787877"/>"     "     "     <path d="M718 209h8v8h-8zm0 9h8v8h-8z" stroke="#787877" fill="#f0f0ef"/>"     "     <text y="526" font-size="12" fill="#000" x="0"> MaxRectsBin(size: 1024x512, choice: BestAreaFit, method: ShorterAxis): inserted 1536 of 1536 rectangles with w/h lengths between [2, 31], occupancy: 80.22% </text></svg>