<svg xmlns="http://www.w3.org/2000/svg" viewBox="0 0 1024 536" xmlns:v="https://vecta.io/nano"><path d="M0 0h1024v512H0z" fill="#fff" stroke="#000"/>"     <g stroke="#181818"><path d="M1 1h1v1H1z" fill="#303030"/><path d="M1 3h2v1H1z" fill="#303130"/></g>"     "     <g stroke="#181918"><path d="M1 5h2v1H1z" fill="#303230"/><path d="M1 7h1v2H1z" fill="#303330"/></g>"     "     <g stroke="#181a18"><path d="M1 10h2v1H1z" fill="#303430"/><path d="M1 12h3v1H1z" fill="#303530"/></g>"     "     <g stroke="#181b18"><path d="M1 14h1v3H1z" fill="#303630"/><path d="M1 18h1v3H1z" fill="#303730"/></g>"     "     <path d="M1 22h3v1H1z" fill="#303930" stroke="#181c18"/>"     <g stroke="#181d18"><path d="M1 24h1v3H1z" fill="#303a30"/><path d="M1 28h2v2H1z" fill="#303b30"/></g>"     "     <g stroke="#181e18"><path d="M1 31h2v2H1z" fill="#303c30"/><path d="M1 34h1v4H1z" fill="#303d30"/></g>"     "     <g stroke="#181f18"><path d="M1 39h1v4H1z" fill="#303e30"/><path d="M1 44h4v1H1z" fill="#303f30"/></g>"     "     <path d="M6 44h1v4H6z" fill="#304030" stroke="#182018"/>"     <g stroke="#182118"><path d="M6 49h5v1H6z" fill="#304230"/><path d="M12 49h3v2h-3z" fill="#304330"/></g>"     "     <g stroke="#182218"><path d="M12 52h5v1h-5z" fill="#304430"/><path d="M18 52h3v2h-3z" fill="#304530"/></g>"     "     <g stroke="#182318"><path d="M18 55h5v1h-5z" fill="#304630"/><path d="M24 55h5v1h-5z" fill="#304730"/></g>"     "     <g stroke="#182418"><path d="M30 55h2v3h-2z" fill="#304830"/><path d="M30 59h6v1h-6z" fill="#304930"/></g>"     "     <path d="M37 59h6v1h-6z" fill="#304b30" stroke="#182518"/>"     <g stroke="#182618"><path d="M44 59h1v6h-1z" fill="#304c30"/><path d="M44 66h1v7h-1z" fill="#304d30"/></g>"     "     <g stroke="#182718"><path d="M44 74h1v7h-1z" fill="#304e30"/><path d="M44 82h7v1h-7z" fill="#304f30"/></g>"     "     <g stroke="#182818"><path d="M52 82h1v7h-1z" fill="#305030"/><path d="M52 90h5v2h-5z" fill="#305130"/></g>"     "     <path d="M52 93h1v8h-1z" fill="#305230" stroke="#182918"/>"     <g stroke="#182a18"><path d="M52 102h5v2h-5z" fill="#305430"/><path d="M52 105h2v5h-2z" fill="#305530"/></g>"     "     <g stroke="#182b18"><path d="M52 111h2v5h-2z" fill="#305630"/><path d="M52 117h2v5h-2z" fill="#305730"/></g>"     "     <g stroke="#182c18"><path d="M52 123h5v2h-5z" fill="#305830"/><path d="M52 126h3v4h-3z" fill="#305930"/></g>"     "     <g stroke="#182d18"><path d="M52 131h4v3h-4z" fill="#305a30"/><path d="M52 135h2v6h-2z" fill="#305b30"/></g>"     "     <path d="M52 142h6v2h-6z" fill="#305d30" stroke="#182e18"/>"     <g stroke="#182f18"><path d="M52 145h6v2h-6z" fill="#305e30"/><path d="M52 148h6v2h-6z" fill="#305f30"/></g>"     "     <g stroke="#183018"><path d="M52 151h2v6h-2z" fill="#306030"/><path d="M52 158h10v1H52z" fill="#306130"/></g>"     "     <g stroke="#183118"><path d="M63 158h10v1H63z" fill="#306230"/><path d="M74 158h11v1H74z" fill="#306330"/></g>"     "     <path d="M86 158h2v7h-2z" fill="#306430" stroke="#183218"/>"     <g stroke="#183318"><path d="M86 166h1v11h-1z" fill="#306630"/><path d="M86 178h5v3h-5z" fill="#306730"/></g>"     "     <g stroke="#183418"><path d="M86 182h7v2h-7z" fill="#306830"/><path d="M86 185h3v5h-3z" fill="#306930"/></g>"     "     <g stroke="#183518"><path d="M86 191h2v7h-2z" fill="#306a30"/><path d="M86 199h11v1H86z" fill="#306b30"/></g>"     "     <g stroke="#183618"><path d="M98 199h1v12h-1z" fill="#306c30"/><path d="M98 212h12v1H98z" fill="#306d30"/></g>"     "     <path d="M111 212h1v12h-1z" fill="#306f30" stroke="#183718"/>"     <g stroke="#183818"><path d="M111 225h12v1h-12z" fill="#307030"/><path d="M124 225h1v12h-1z" fill="#307130"/></g>"     "     <g stroke="#183918"><path d="M124 238h12v1h-12z" fill="#307230"/><path d="M137 238h12v1h-12z" fill="#307330"/></g>"     "     <g stroke="#183a18"><path d="M150 238h12v1h-12z" fill="#307430"/><path d="M163 238h12v1h-12z" fill="#307530"/></g>"     "     <path d="M176 238h8v2h-8z" fill="#307630" stroke="#183b18"/>"     <g stroke="#183c18"><path d="M176 241h2v8h-2z" fill="#307830"/><path d="M176 250h1v13h-1z" fill="#307930"/></g>"     "     <g stroke="#183d18"><path d="M176 264h13v1h-13z" fill="#307a30"/><path d="M190 264h6v3h-6z" fill="#307b30"/></g>"     "     <g stroke="#183e18"><path d="M190 268h3v6h-3z" fill="#307c30"/><path d="M190 275h6v3h-6z" fill="#307d30"/></g>"     "     <g stroke="#183f18"><path d="M190 279h6v3h-6z" fill="#307e30"/><path d="M190 283h3v6h-3z" fill="#307f30"/></g>"     "     <path d="M190 290h6v3h-6z" fill="#308130" stroke="#184018"/>"     <g stroke="#184118"><path d="M190 294h1v13h-1z" fill="#308230"/><path d="M190 308h9v2h-9z" fill="#308330"/></g>"     "     <g stroke="#184218"><path d="M190 311h5v4h-5z" fill="#308430"/><path d="M190 316h4v5h-4z" fill="#308530"/></g>"     "     <g stroke="#184318"><path d="M190 322h1v14h-1z" fill="#308630"/><path d="M190 337h1v14h-1z" fill="#308730"/></g>"     "     <path d="M190 352h4v5h-4z" fill="#308830" stroke="#184418"/>"     <g stroke="#184518"><path d="M190 358h14v1h-14z" fill="#308a30"/><path d="M205 358h9v2h-9z" fill="#308b30"/></g>"     "     <g stroke="#184618"><path d="M205 361h2v9h-2z" fill="#308c30"/><path d="M205 371h1v14h-1z" fill="#308d30"/></g>"     "     <g stroke="#184718"><path d="M205 386h4v5h-4z" fill="#308e30"/><path d="M205 392h9v2h-9z" fill="#308f30"/></g>"     "     <g stroke="#184818"><path d="M205 395h1v14h-1z" fill="#309030"/><path d="M205 410h5v4h-5z" fill="#309130"/></g>"     "     <path d="M205 415h1v15h-1z" fill="#309330" stroke="#184918"/>"     <g stroke="#184a18"><path d="M205 431h1v15h-1z" fill="#309430"/><path d="M205 447h15v1h-15z" fill="#309530"/></g>"     "     <g stroke="#184b18"><path d="M205 449h7v3h-7z" fill="#309630"/><path d="M205 453h3v7h-3z" fill="#309730"/></g>"     "     <g stroke="#184c18"><path d="M205 461h15v1h-15z" fill="#309830"/><path d="M205 463h1v15h-1z" fill="#309930"/></g>"     "     <path d="M205 479h1v15h-1z" fill="#309a30" stroke="#184d18"/>"     <g stroke="#184e18"><path d="M207 415h1v15h-1z" fill="#309c30"/><path d="M207 463h7v3h-7z" fill="#309d30"/></g>"     "     <g stroke="#184f18"><path d="M192 322h10v2h-10z" fill="#309e30"/><path d="M207 467h2v10h-2z" fill="#309f30"/></g>"     "     <g stroke="#185018"><path d="M46 59h1v16h-1z" fill="#30a030"/><path d="M192 325h16v1h-16z" fill="#30a130"/></g>"     "     <g stroke="#185118"><path d="M192 327h6v4h-6z" fill="#30a230"/><path d="M55 105h2v11h-2z" fill="#30a330"/></g>"     "     <path d="M192 332h11v2h-11z" fill="#30a530" stroke="#185218"/>"     <g stroke="#185318"><path d="M48 59h17v1H48z" fill="#30a630"/><path d="M205 495h1v17h-1z" fill="#30a730"/></g>"     "     <g stroke="#185418"><path d="M207 478h5v5h-5z" fill="#30a830"/><path d="M207 484h8v3h-8z" fill="#30a930"/></g>"     "     <g stroke="#185518"><path d="M207 488h3v8h-3z" fill="#30aa30"/><path d="M48 61h3v8h-3z" fill="#30ab30"/></g>"     "     <path d="M58 102h5v5h-5z" fill="#30ac30" stroke="#185618"/>"     <g stroke="#185718"><path d="M124 240h3v8h-3z" fill="#30ae30"/><path d="M192 335h17v1h-17z" fill="#30af30"/></g>"     "     <g stroke="#185818"><path d="M128 240h18v1h-18z" fill="#30b030"/><path d="M207 431h2v12h-2z" fill="#30b130"/></g>"     "     <g stroke="#185918"><path d="M207 497h12v2h-12z" fill="#30b230"/><path d="M209 415h12v2h-12z" fill="#30b330"/></g>"     "     <g stroke="#185a18"><path d="M192 337h9v3h-9z" fill="#30b430"/><path d="M207 371h19v1h-19z" fill="#30b530"/></g>"     "     <path d="M207 395h19v1h-19z" fill="#30b730" stroke="#185b18"/>"     <g stroke="#185c18"><path d="M100 199h7v4h-7z" fill="#30b830"/><path d="M52 160h3v9h-3z" fill="#30b930"/></g>"     "     <g stroke="#185d18"><path d="M178 250h19v1h-19z" fill="#30ba30"/><path d="M113 212h19v1h-19z" fill="#30bb30"/></g>"     "     <g stroke="#185e18"><path d="M126 225h4v7h-4z" fill="#30bc30"/><path d="M192 294h19v1h-19z" fill="#30bd30"/></g>"     "     <path d="M88 166h9v3h-9z" fill="#30be30" stroke="#185f18"/>"     <g stroke="#186018"><path d="M207 500h19v1h-19z" fill="#30c030"/><path d="M207 373h19v1h-19z" fill="#30c130"/></g>"     "     <g stroke="#186118"><path d="M207 397h7v4h-7z" fill="#30c230"/><path d="M209 418h4v7h-4z" fill="#30c330"/></g>"     "     <g stroke="#186218"><path d="M210 431h13v2h-13z" fill="#30c430"/><path d="M56 160h13v2H56z" fill="#30c530"/></g>"     "     <g stroke="#186318"><path d="M3 34h5v6H3z" fill="#30c630"/><path d="M178 252h13v2h-13z" fill="#30c730"/></g>"     "     <path d="M113 214h20v1h-20z" fill="#30c930" stroke="#186418"/>"     <g stroke="#186518"><path d="M192 296h20v1h-20z" fill="#30ca30"/><path d="M192 341h13v2h-13z" fill="#30cb30"/></g>"     "     <g stroke="#186618"><path d="M207 375h5v6h-5z" fill="#30cc30"/><path d="M207 502h13v2h-13z" fill="#30cd30"/></g>"     "     <g stroke="#186718"><path d="M210 467h3v10h-3z" fill="#30ce30"/><path d="M214 467h3v10h-3z" fill="#30cf30"/></g>"     "     <path d="M218 467h3v10h-3z" fill="#30d030" stroke="#186818"/>"     <g stroke="#186918"><path d="M222 467h21v1h-21z" fill="#30d230"/><path d="M52 61h21v1H52z" fill="#30d330"/></g>"     "     <g stroke="#186a18"><path d="M54 93h21v1H54z" fill="#30d430"/><path d="M58 108h10v3H58z" fill="#30d530"/></g>"     "     <g stroke="#186b18"><path d="M59 142h10v3H59z" fill="#30d630"/><path d="M192 298h21v1h-21z" fill="#30d730"/></g>"     "     <g stroke="#186c18"><path d="M113 216h14v2h-14z" fill="#30d830"/><path d="M3 14h8v4H3z" fill="#30d930"/></g>"     "     <path d="M208 361h14v2h-14z" fill="#30db30" stroke="#186d18"/>"     <g stroke="#186e18"><path d="M210 434h14v2h-14z" fill="#30dc30"/><path d="M147 240h4v8h-4z" fill="#30dd30"/></g>"     "     <g stroke="#186f18"><path d="M54 82h14v2H54z" fill="#30de30"/><path d="M178 255h22v1h-22z" fill="#30df30"/></g>"     "     <g stroke="#187018"><path d="M179 241h22v1h-22z" fill="#30e030"/><path d="M88 170h22v1H88z" fill="#30e130"/></g>"     "     <path d="M89 158h22v1H89z" fill="#30e230" stroke="#187118"/>"     <g stroke="#187218"><path d="M89 191h23v1H89z" fill="#30e430"/><path d="M100 204h11v3h-11z" fill="#30e530"/></g>"     "     <g stroke="#187318"><path d="M211 488h7v5h-7z" fill="#30e630"/><path d="M222 469h5v7h-5z" fill="#30e730"/></g>"     "     <g stroke="#187418"><path d="M131 225h23v1h-23z" fill="#30e830"/><path d="M9 34h23v1H9z" fill="#30e930"/></g>"     "     <g stroke="#187518"><path d="M52 63h23v1H52z" fill="#30ea30"/><path d="M54 95h11v3H54z" fill="#30eb30"/></g>"     "     <path d="M55 135h7v5h-7z" fill="#30ed30" stroke="#187618"/>"     <g stroke="#187718"><path d="M55 151h15v2H55z" fill="#30ee30"/><path d="M192 344h15v2h-15z" fill="#30ef30"/></g>"     "     <g stroke="#187818"><path d="M192 300h23v1h-23z" fill="#30f030"/><path d="M197 275h11v3h-11z" fill="#31f030"/></g>"     "     <g stroke="#197818"><path d="M152 240h2v15h-2z" fill="#32f030"/><path d="M207 402h23v1h-23z" fill="#33f030"/></g>"     "     <path d="M207 505h11v3h-11z" fill="#34f030" stroke="#1a7818"/>"     <g stroke="#1b7818"><path d="M209 453h7v5h-7z" fill="#36f030"/><path d="M214 418h5v7h-5z" fill="#37f030"/></g>"     "     <g stroke="#1c7818"><path d="M220 418h6v6h-6z" fill="#38f030"/><path d="M228 469h9v4h-9z" fill="#39f030"/></g>"     "     <g stroke="#1d7818"><path d="M30 61h4v9h-4z" fill="#3af030"/><path d="M4 28h9v4H4z" fill="#3bf030"/></g>"     "     <g stroke="#1e7818"><path d="M178 257h9v4h-9z" fill="#3cf030"/><path d="M179 243h9v4h-9z" fill="#3df030"/></g>"     "     <path d="M46 76h24v1H46z" fill="#3ff030" stroke="#1f7818"/>"     <g stroke="#207818"><path d="M48 70h16v2H48z" fill="#40f030"/><path d="M55 117h12v3H55z" fill="#41f030"/></g>"     "     <g stroke="#217818"><path d="M194 268h12v3h-12z" fill="#42f030"/><path d="M194 283h12v3h-12z" fill="#43f030"/></g>"     "     <g stroke="#227818"><path d="M63 135h12v3H63z" fill="#44f030"/><path d="M64 102h8v5h-8z" fill="#45f030"/></g>"     "     <path d="M155 240h8v5h-8z" fill="#46f030" stroke="#237818"/>"     <g stroke="#247818"><path d="M208 364h8v5h-8z" fill="#48f030"/><path d="M73 102h26v1H73z" fill="#49f030"/></g>"     "     <g stroke="#257818"><path d="M210 437h26v1h-26z" fill="#4af030"/><path d="M213 375h17v2h-17z" fill="#4bf030"/></g>"     "     <g stroke="#267818"><path d="M70 160h1v26h-1z" fill="#4cf030"/><path d="M88 172h10v4H88z" fill="#4df030"/></g>"     "     <g stroke="#277818"><path d="M89 160h13v3H89z" fill="#4ef030"/><path d="M89 193h27v1H89z" fill="#4ff030"/></g>"     "     <path d="M90 185h27v1H90z" fill="#51f030" stroke="#287818"/>"     <g stroke="#297818"><path d="M227 418h7v6h-7z" fill="#52f030"/><path d="M235 418h27v1h-27z" fill="#53f030"/></g>"     "     <g stroke="#2a7818"><path d="M18 57h3v13h-3z" fill="#54f030"/><path d="M113 219h13v3h-13z" fill="#55f030"/></g>"     "     <g stroke="#2b7818"><path d="M131 227h13v3h-13z" fill="#56f030"/><path d="M128 242h6v7h-6z" fill="#57f030"/></g>"     "     <path d="M8 44h13v3H8z" fill="#58f030" stroke="#2c7818"/>"     <g stroke="#2d7818"><path d="M9 36h13v3H9z" fill="#5af030"/><path d="M12 14h13v3H12z" fill="#5bf030"/></g>"     "     <g stroke="#2e7818"><path d="M14 28h27v1H14z" fill="#5cf030"/><path d="M192 302h27v1h-27z" fill="#5df030"/></g>"     "     <g stroke="#2f7818"><path d="M195 316h18v2h-18z" fill="#5ef030"/><path d="M195 352h18v2h-18z" fill="#5ff030"/></g>"     "     <g stroke="#307818"><path d="M72 160h7v6h-7z" fill="#60f030"/><path d="M207 404h18v2h-18z" fill="#61f030"/></g>"     "     <path d="M56 163h6v7h-6z" fill="#63f030" stroke="#317818"/>"     <g stroke="#327818"><path d="M210 386h18v2h-18z" fill="#64f030"/><path d="M213 478h18v2h-18z" fill="#65f030"/></g>"     "     <g stroke="#337818"><path d="M52 65h28v1H52z" fill="#66f030"/><path d="M54 85h28v1H54z" fill="#67f030"/></g>"     "     <g stroke="#347818"><path d="M217 453h11v4h-11z" fill="#68f030"/><path d="M217 364h19v2h-19z" fill="#69f030"/></g>"     "     <path d="M56 126h11v4H56z" fill="#6af030" stroke="#357818"/>"     <g stroke="#367818"><path d="M219 488h19v2h-19z" fill="#6cf030"/><path d="M58 112h11v4H58z" fill="#6df030"/></g>"     "     <g stroke="#377818"><path d="M59 146h19v2H59z" fill="#6ef030"/><path d="M68 126h19v2H68z" fill="#6ff030"/></g>"     "     <g stroke="#387818"><path d="M70 112h14v3H70z" fill="#70f030"/><path d="M99 172h14v3H99z" fill="#71f030"/></g>"     "     <g stroke="#397818"><path d="M108 199h19v2h-19z" fill="#72f030"/><path d="M126 233h19v2h-19z" fill="#73f030"/></g>"     "     <path d="M188 257h14v3h-14z" fill="#75f030" stroke="#3a7818"/>"     <g stroke="#3b7818"><path d="M189 243h30v1h-30z" fill="#76f030"/><path d="M192 347h30v1h-30z" fill="#77f030"/></g>"     "     <g stroke="#3c7818"><path d="M196 311h20v2h-20z" fill="#78f030"/><path d="M199 327h20v2h-20z" fill="#79f030"/></g>"     "     <g stroke="#3d7818"><path d="M3 24h20v2H3z" fill="#7af030"/><path d="M4 3h15v3H4z" fill="#7bf030"/></g>"     "     <path d="M209 426h15v3h-15z" fill="#7cf030" stroke="#3e7818"/>"     <g stroke="#3f7818"><path d="M210 439h15v3h-15z" fill="#7ef030"/><path d="M35 61h5v9h-5z" fill="#7ff030"/></g>"     "     <g stroke="#407818"><path d="M30 71h6v8h-6z" fill="#80f030"/><path d="M211 410h12v4h-12z" fill="#81f030"/></g>"     "     <g stroke="#417818"><path d="M215 397h12v4h-12z" fill="#82f030"/><path d="M20 3h21v2H20z" fill="#83f030"/></g>"     "     <g stroke="#427818"><path d="M22 44h21v2H22z" fill="#84f030"/><path d="M23 36h21v2H23z" fill="#85f030"/></g>"     "     <path d="M224 410h21v2h-21z" fill="#87f030" stroke="#437818"/>"     <g stroke="#447818"><path d="M26 14h21v2H26z" fill="#88f030"/><path d="M228 397h21v2h-21z" fill="#89f030"/></g>"     "     <g stroke="#457818"><path d="M229 453h21v2h-21z" fill="#8af030"/><path d="M33 55h16v3H33z" fill="#8bf030"/></g>"     "     <g stroke="#467818"><path d="M235 420h22v2h-22z" fill="#8cf030"/><path d="M238 469h22v2h-22z" fill="#8df030"/></g>"     "     <path d="M46 78h17v3H46z" fill="#8ef030" stroke="#477818"/>"     <g stroke="#487818"><path d="M50 55h17v3H50z" fill="#90f030"/><path d="M98 214h6v8h-6z" fill="#91f030"/></g>"     "     <g stroke="#497818"><path d="M55 154h23v2H55z" fill="#92f030"/><path d="M57 131h23v2H57z" fill="#93f030"/></g>"     "     <g stroke="#4a7818"><path d="M64 78h17v3H64z" fill="#94f030"/><path d="M66 95h17v3H66z" fill="#95f030"/></g>"     "     <g stroke="#4b7818"><path d="M68 55h23v2H68z" fill="#96f030"/><path d="M68 117h23v2H68z" fill="#97f030"/></g>"     "     <path d="M69 108h24v2H69z" fill="#99f030" stroke="#4c7818"/>"     <g stroke="#4d7818"><path d="M70 142h24v2H70z" fill="#9af030"/><path d="M73 104h24v2H73z" fill="#9bf030"/></g>"     "     <g stroke="#4e7818"><path d="M76 135h24v2H76z" fill="#9cf030"/><path d="M82 78h24v2H82z" fill="#9df030"/></g>"     "     <g stroke="#4f7818"><path d="M84 95h18v3H84z" fill="#9ef030"/><path d="M85 112h18v3H85z" fill="#9ff030"/></g>"     "     <path d="M86 201h7v7h-7z" fill="#a0f030" stroke="#507818"/>"     <g stroke="#517818"><path d="M89 195h18v3H89z" fill="#a2f030"/><path d="M90 187h18v3H90z" fill="#a3f030"/></g>"     "     <g stroke="#527818"><path d="M92 178h18v3H92z" fill="#a4f030"/><path d="M111 227h10v5h-10z" fill="#a5f030"/></g>"     "     <g stroke="#537818"><path d="M98 166h18v3H98z" fill="#a6f030"/><path d="M100 208h25v2h-25z" fill="#a7f030"/></g>"     "     <g stroke="#547818"><path d="M103 95h25v2h-25z" fill="#a8f030"/><path d="M103 160h19v3h-19z" fill="#a9f030"/></g>"     "     <path d="M104 112h19v3h-19z" fill="#abf030" stroke="#557818"/>"     <g stroke="#567818"><path d="M108 195h26v2h-26z" fill="#acf030"/><path d="M109 187h26v2h-26z" fill="#adf030"/></g>"     "     <g stroke="#577818"><path d="M22 57h6v9h-6z" fill="#aef030"/><path d="M111 178h20v3h-20z" fill="#aff030"/></g>"     "     <g stroke="#587818"><path d="M112 204h27v2h-27z" fill="#b0f030"/><path d="M114 172h20v3h-20z" fill="#b1f030"/></g>"     "     <path d="M117 166h20v3h-20z" fill="#b2f030" stroke="#597818"/>"     <g stroke="#5a7818"><path d="M123 160h20v3h-20z" fill="#b4f030"/><path d="M124 112h20v3h-20z" fill="#b5f030"/></g>"     "     <g stroke="#5b7818"><path d="M127 219h27v2h-27z" fill="#b6f030"/><path d="M132 178h28v2h-28z" fill="#b7f030"/></g>"     "     <g stroke="#5c7818"><path d="M135 172h28v2h-28z" fill="#b8f030"/><path d="M138 166h28v2h-28z" fill="#b9f030"/></g>"     "     <g stroke="#5d7818"><path d="M144 160h28v2h-28z" fill="#baf030"/><path d="M145 112h21v3h-21z" fill="#bbf030"/></g>"     "     <path d="M145 227h21v3h-21z" fill="#bdf030" stroke="#5e7818"/>"     <g stroke="#5f7818"><path d="M176 266h13v4h-13z" fill="#bef030"/><path d="M44 84h4v13h-4z" fill="#bff030"/></g>"     "     <g stroke="#607818"><path d="M167 112h29v2h-29z" fill="#c0f030"/><path d="M167 227h22v3h-22z" fill="#c1f030"/></g>"     "     <g stroke="#617818"><path d="M176 271h13v4h-13z" fill="#c2f030"/><path d="M176 276h4v13h-4z" fill="#c3f030"/></g>"     "     <path d="M190 227h22v3h-22z" fill="#c4f030" stroke="#627818"/>"     <g stroke="#637818"><path d="M192 304h22v3h-22z" fill="#c6f030"/><path d="M197 264h30v2h-30z" fill="#c7f030"/></g>"     "     <g stroke="#647818"><path d="M197 290h30v2h-30z" fill="#c8f030"/><path d="M197 279h30v2h-30z" fill="#c9f030"/></g>"     "     <g stroke="#657818"><path d="M164 240h11v5h-11z" fill="#caf030"/><path d="M155 246h5v11h-5z" fill="#cbf030"/></g>"     "     <g stroke="#667818"><path d="M161 246h8v7h-8z" fill="#ccf030"/><path d="M202 337h30v2h-30z" fill="#cdf030"/></g>"     "     <path d="M203 257h23v3h-23z" fill="#cff030" stroke="#677818"/>"     <g stroke="#687818"><path d="M135 242h8v7h-8z" fill="#d0f030"/><path d="M128 250h7v8h-7z" fill="#d1f030"/></g>"     "     <g stroke="#697818"><path d="M207 268h23v3h-23z" fill="#d2f030"/><path d="M207 283h23v3h-23z" fill="#d3f030"/></g>"     "     <g stroke="#6a7818"><path d="M207 382h24v3h-24z" fill="#d4f030"/><path d="M207 509h24v3h-24z" fill="#d5f030"/></g>"     "     <path d="M209 275h24v3h-24z" fill="#d6f030" stroke="#6b7818"/>"     <g stroke="#6c7818"><path d="M213 449h25v3h-25z" fill="#d8f030"/><path d="M213 227h25v3h-25z" fill="#d9f030"/></g>"     "     <g stroke="#6d7818"><path d="M213 378h25v3h-25z" fill="#daf030"/><path d="M215 463h25v3h-25z" fill="#dbf030"/></g>"     "     <g stroke="#6e7818"><path d="M215 304h25v3h-25z" fill="#dcf030"/><path d="M216 484h26v3h-26z" fill="#ddf030"/></g>"     "     <g stroke="#6f7818"><path d="M219 505h26v3h-26z" fill="#def030"/><path d="M225 426h26v3h-26z" fill="#dff030"/></g>"     "     <path d="M226 439h26v3h-26z" fill="#e1f030" stroke="#707818"/>"     <g stroke="#717818"><path d="M227 371h26v3h-26z" fill="#e2f030"/><path d="M227 257h27v3h-27z" fill="#e3f030"/></g>"     "     <g stroke="#727818"><path d="M231 268h27v3h-27z" fill="#e4f030"/><path d="M231 283h27v3h-27z" fill="#e5f030"/></g>"     "     <g stroke="#737818"><path d="M232 382h27v3h-27z" fill="#e6f030"/><path d="M232 509h27v3h-27z" fill="#e7f030"/></g>"     "     <path d="M234 275h27v3h-27z" fill="#e8f030" stroke="#747818"/>"     <g stroke="#757818"><path d="M22 67h5v11h-5z" fill="#eaf030"/><path d="M239 449h28v3h-28z" fill="#ebf030"/></g>"     "     <g stroke="#767818"><path d="M239 227h28v3h-28z" fill="#ecf030"/><path d="M239 378h28v3h-28z" fill="#edf030"/></g>"     "     <g stroke="#777818"><path d="M241 463h28v3h-28z" fill="#eef030"/><path d="M241 304h28v3h-28z" fill="#eff030"/></g>"     "     <g stroke="#787818"><path d="M243 484h29v3h-29z" fill="#f0f030"/><path d="M111 233h7v8h-7z" fill="#f0f031"/></g>"     "     <path d="M246 505h29v3h-29z" fill="#f0f033" stroke="#787819"/>"     <g stroke="#78781a"><path d="M252 426h29v3h-29z" fill="#f0f034"/><path d="M253 439h29v3h-29z" fill="#f0f035"/></g>"     "     <g stroke="#78781b"><path d="M254 371h30v3h-30z" fill="#f0f036"/><path d="M255 257h30v3h-30z" fill="#f0f037"/></g>"     "     <g stroke="#78781c"><path d="M30 80h4v14h-4z" fill="#f0f038"/><path d="M259 268h30v3h-30z" fill="#f0f039"/></g>"     "     <path d="M259 283h30v3h-30z" fill="#f0f03a" stroke="#78781d"/>"     <g stroke="#78781e"><path d="M260 382h30v3h-30z" fill="#f0f03c"/><path d="M260 509h30v3h-30z" fill="#f0f03d"/></g>"     "     <g stroke="#78781f"><path d="M262 275h30v3h-30z" fill="#f0f03e"/><path d="M6 51h4v14H6z" fill="#f0f03f"/></g>"     "     <g stroke="#787820"><path d="M72 167h6v10h-6z" fill="#f0f040"/><path d="M12 54h5v12h-5z" fill="#f0f041"/></g>"     "     <g stroke="#787821"><path d="M12 67h5v12h-5z" fill="#f0f042"/><path d="M22 79h5v12h-5z" fill="#f0f043"/></g>"     "     <path d="M12 80h4v15h-4z" fill="#f0f045" stroke="#787822"/>"     <g stroke="#787823"><path d="M22 92h4v15h-4z" fill="#f0f046"/><path d="M63 163h6v10h-6z" fill="#f0f047"/></g>"     "     <g stroke="#787824"><path d="M86 209h6v10h-6z" fill="#f0f048"/><path d="M56 171h6v10h-6z" fill="#f0f049"/></g>"     "     <g stroke="#787825"><path d="M63 174h6v11h-6z" fill="#f0f04a"/><path d="M72 178h6v11h-6z" fill="#f0f04b"/></g>"     "     <path d="M161 254h7v9h-7z" fill="#f0f04c" stroke="#787826"/>"     <g stroke="#787827"><path d="M1 46h4v16H1z" fill="#f0f04e"/><path d="M56 182h5v13h-5z" fill="#f0f04f"/></g>"     "     <g stroke="#787828"><path d="M190 360h9v7h-9z" fill="#f0f050"/><path d="M63 186h5v13h-5z" fill="#f0f051"/></g>"     "     <g stroke="#787829"><path d="M72 190h6v11h-6z" fill="#f0f052"/><path d="M1 63h4v16H1z" fill="#f0f053"/></g>"     "     <g stroke="#78782a"><path d="M6 66h4v16H6z" fill="#f0f054"/><path d="M72 202h6v11h-6z" fill="#f0f055"/></g>"     "     <path d="M111 242h7v10h-7z" fill="#f0f057" stroke="#78782b"/>"     <g stroke="#78782c"><path d="M1 80h4v17H1z" fill="#f0f058"/><path d="M6 83h4v17H6z" fill="#f0f059"/></g>"     "     <g stroke="#78782d"><path d="M181 276h8v8h-8z" fill="#f0f05a"/><path d="M80 160h5v14h-5z" fill="#f0f05b"/></g>"     "     <g stroke="#78782e"><path d="M136 250h7v10h-7z" fill="#f0f05c"/><path d="M72 214h4v17h-4z" fill="#f0f05d"/></g>"     "     <path d="M30 95h4v18h-4z" fill="#f0f05e" stroke="#78782f"/>"     <g stroke="#787830"><path d="M111 253h5v14h-5z" fill="#f0f060"/><path d="M12 96h4v18h-4z" fill="#f0f061"/></g>"     "     <g stroke="#787831"><path d="M1 98h4v19H1z" fill="#f0f062"/><path d="M44 98h4v19h-4z" fill="#f0f063"/></g>"     "     <g stroke="#787832"><path d="M181 285h8v8h-8z" fill="#f0f064"/><path d="M86 220h5v14h-5z" fill="#f0f065"/></g>"     "     <g stroke="#787833"><path d="M6 101h4v21H6z" fill="#f0f066"/><path d="M128 259h6v12h-6z" fill="#f0f067"/></g>"     "     <path d="M98 223h5v15h-5z" fill="#f0f069" stroke="#787834"/>"     <g stroke="#787835"><path d="M80 175h5v15h-5z" fill="#f0f06a"/><path d="M136 261h5v15h-5z" fill="#f0f06b"/></g>"     "     <g stroke="#787836"><path d="M22 108h4v22h-4z" fill="#f0f06c"/><path d="M161 264h5v15h-5z" fill="#f0f06d"/></g>"     "     <g stroke="#787837"><path d="M181 294h8v9h-8z" fill="#f0f06e"/><path d="M30 114h4v22h-4z" fill="#f0f06f"/></g>"     "     <path d="M12 115h4v22h-4z" fill="#f0f070" stroke="#787838"/>"     <g stroke="#787839"><path d="M1 118h4v22H1z" fill="#f0f072"/><path d="M44 118h4v22h-4z" fill="#f0f073"/></g>"     "     <g stroke="#78783a"><path d="M80 191h5v15h-5z" fill="#f0f074"/><path d="M6 123h4v22H6z" fill="#f0f075"/></g>"     "     <g stroke="#78783b"><path d="M56 196h5v15h-5z" fill="#f0f076"/><path d="M22 131h4v22h-4z" fill="#f0f077"/></g>"     "     <g stroke="#78783c"><path d="M181 304h8v9h-8z" fill="#f0f078"/><path d="M63 200h5v15h-5z" fill="#f0f079"/></g>"     "     <path d="M30 137h4v23h-4z" fill="#f0f07b" stroke="#78783d"/>"     <g stroke="#78783e"><path d="M12 138h4v23h-4z" fill="#f0f07c"/><path d="M1 141h4v24H1z" fill="#f0f07d"/></g>"     "     <g stroke="#78783f"><path d="M44 141h4v24h-4z" fill="#f0f07e"/><path d="M80 207h5v16h-5z" fill="#f0f07f"/></g>"     "     <g stroke="#787840"><path d="M6 146h4v25H6z" fill="#f0f080"/><path d="M56 212h5v16h-5z" fill="#f0f081"/></g>"     "     <path d="M181 314h8v9h-8z" fill="#f0f082" stroke="#787841"/>"     <g stroke="#787842"><path d="M105 214h5v16h-5z" fill="#f0f084"/><path d="M63 216h5v18h-5z" fill="#f0f085"/></g>"     "     <g stroke="#787843"><path d="M22 154h4v25h-4z" fill="#f0f086"/><path d="M30 161h4v26h-4z" fill="#f0f087"/></g>"     "     <g stroke="#787844"><path d="M12 162h4v26h-4z" fill="#f0f088"/><path d="M80 224h5v19h-5z" fill="#f0f089"/></g>"     "     <g stroke="#787845"><path d="M181 324h8v9h-8z" fill="#f0f08a"/><path d="M1 166h4v26H1z" fill="#f0f08b"/></g>"     "     <path d="M44 166h4v26h-4z" fill="#f0f08d" stroke="#787846"/>"     <g stroke="#787847"><path d="M128 272h6v13h-6z" fill="#f0f08e"/><path d="M56 229h5v19h-5z" fill="#f0f08f"/></g>"     "     <g stroke="#787848"><path d="M105 231h5v19h-5z" fill="#f0f090"/><path d="M6 172h4v27H6z" fill="#f0f091"/></g>"     "     <g stroke="#787849"><path d="M63 235h5v20h-5z" fill="#f0f092"/><path d="M86 235h5v20h-5z" fill="#f0f093"/></g>"     "     <path d="M22 180h4v28h-4z" fill="#f0f094" stroke="#78784a"/>"     <g stroke="#78784b"><path d="M98 239h5v20h-5z" fill="#f0f096"/><path d="M181 334h7v11h-7z" fill="#f0f097"/></g>"     "     <g stroke="#78784c"><path d="M128 286h6v13h-6z" fill="#f0f098"/><path d="M80 244h5v21h-5z" fill="#f0f099"/></g>"     "     <g stroke="#78784d"><path d="M30 188h4v28h-4z" fill="#f0f09a"/><path d="M170 246h5v21h-5z" fill="#f0f09b"/></g>"     "     <g stroke="#78784e"><path d="M12 189h4v29h-4z" fill="#f0f09c"/><path d="M56 249h5v21h-5z" fill="#f0f09d"/></g>"     "     <path d="M1 193h4v29H1z" fill="#f0f09f" stroke="#78784f"/>"     <g stroke="#787850"><path d="M44 193h4v29h-4z" fill="#f0f0a0"/><path d="M105 251h5v22h-5z" fill="#f0f0a1"/></g>"     "     <g stroke="#787851"><path d="M6 200h4v30H6z" fill="#f0f0a2"/><path d="M63 256h5v22h-5z" fill="#f0f0a3"/></g>"     "     <g stroke="#787852"><path d="M86 256h5v22h-5z" fill="#f0f0a4"/><path d="M128 300h6v13h-6z" fill="#f0f0a5"/></g>"     "     <path d="M155 258h5v22h-5z" fill="#f0f0a6" stroke="#787853"/>"     <g stroke="#787854"><path d="M98 260h5v22h-5z" fill="#f0f0a8"/><path d="M22 209h4v30h-4z" fill="#f0f0a9"/></g>"     "     <g stroke="#787855"><path d="M190 368h6v13h-6z" fill="#f0f0aa"/><path d="M80 266h5v22h-5z" fill="#f0f0ab"/></g>"     "     <g stroke="#787856"><path d="M170 268h5v23h-5z" fill="#f0f0ac"/><path d="M111 268h5v23h-5z" fill="#f0f0ad"/></g>"     "     <g stroke="#787857"><path d="M30 217h4v30h-4z" fill="#f0f0ae"/><path d="M56 271h5v23h-5z" fill="#f0f0af"/></g>"     "     <path d="M105 274h5v23h-5z" fill="#f0f0b1" stroke="#787858"/>"     <g stroke="#787859"><path d="M128 314h6v14h-6z" fill="#f0f0b2"/><path d="M136 277h5v23h-5z" fill="#f0f0b3"/></g>"     "     <g stroke="#78785a"><path d="M63 279h5v23h-5z" fill="#f0f0b4"/><path d="M86 279h5v23h-5z" fill="#f0f0b5"/></g>"     "     <g stroke="#78785b"><path d="M161 280h5v23h-5z" fill="#f0f0b6"/><path d="M155 281h5v24h-5z" fill="#f0f0b7"/></g>"     "     <path d="M181 346h7v12h-7z" fill="#f0f0b8" stroke="#78785c"/>"     <g stroke="#78785d"><path d="M98 283h5v24h-5z" fill="#f0f0ba"/><path d="M80 289h5v24h-5z" fill="#f0f0bb"/></g>"     "     <g stroke="#78785e"><path d="M128 329h6v14h-6z" fill="#f0f0bc"/><path d="M170 292h5v25h-5z" fill="#f0f0bd"/></g>"     "     <g stroke="#78785f"><path d="M111 292h5v25h-5z" fill="#f0f0be"/><path d="M56 295h5v26h-5z" fill="#f0f0bf"/></g>"     "     <g stroke="#787860"><path d="M181 359h7v12h-7z" fill="#f0f0c0"/><path d="M105 298h5v27h-5z" fill="#f0f0c1"/></g>"     "     <path d="M136 301h5v27h-5z" fill="#f0f0c3" stroke="#787861"/>"     <g stroke="#787862"><path d="M63 303h5v27h-5z" fill="#f0f0c4"/><path d="M86 303h5v28h-5z" fill="#f0f0c5"/></g>"     "     <g stroke="#787863"><path d="M161 304h5v28h-5z" fill="#f0f0c6"/><path d="M128 344h6v14h-6z" fill="#f0f0c7"/></g>"     "     <g stroke="#787864"><path d="M155 306h5v28h-5z" fill="#f0f0c8"/><path d="M98 308h5v28h-5z" fill="#f0f0c9"/></g>"     "     <path d="M181 372h7v12h-7z" fill="#f0f0ca" stroke="#787865"/>"     <g stroke="#787866"><path d="M80 314h5v28h-5z" fill="#f0f0cc"/><path d="M170 318h5v29h-5z" fill="#f0f0cd"/></g>"     "     <g stroke="#787867"><path d="M111 318h5v29h-5z" fill="#f0f0ce"/><path d="M56 322h5v29h-5z" fill="#f0f0cf"/></g>"     "     <g stroke="#787868"><path d="M128 359h6v15h-6z" fill="#f0f0d0"/><path d="M105 326h5v29h-5z" fill="#f0f0d1"/></g>"     "     <g stroke="#787869"><path d="M181 385h7v12h-7z" fill="#f0f0d2"/><path d="M136 329h5v30h-5z" fill="#f0f0d3"/></g>"     "     <path d="M63 331h5v30h-5z" fill="#f0f0d5" stroke="#78786a"/>"     <g stroke="#78786b"><path d="M86 332h5v30h-5z" fill="#f0f0d6"/><path d="M161 333h5v30h-5z" fill="#f0f0d7"/></g>"     "     <g stroke="#78786c"><path d="M155 335h5v30h-5z" fill="#f0f0d8"/><path d="M128 375h6v15h-6z" fill="#f0f0d9"/></g>"     "     <g stroke="#78786d"><path d="M181 398h7v12h-7z" fill="#f0f0da"/><path d="M190 382h6v16h-6z" fill="#f0f0db"/></g>"     "     <path d="M128 391h6v16h-6z" fill="#f0f0dc" stroke="#78786e"/>"     <g stroke="#78786f"><path d="M181 411h7v13h-7z" fill="#f0f0de"/><path d="M190 399h6v16h-6z" fill="#f0f0df"/></g>"     "     <g stroke="#787870"><path d="M128 408h6v17h-6z" fill="#f0f0e0"/><path d="M181 425h7v14h-7z" fill="#f0f0e1"/></g>"     "     <g stroke="#787871"><path d="M190 416h6v18h-6z" fill="#f0f0e2"/><path d="M128 426h6v18h-6z" fill="#f0f0e3"/></g>"     "     <g stroke="#787872"><path d="M181 440h7v14h-7z" fill="#f0f0e4"/><path d="M190 435h6v18h-6z" fill="#f0f0e5"/></g>"     "     <path d="M181 455h7v14h-7z" fill="#f0f0e7" stroke="#787873"/>"     <g stroke="#787874"><path d="M128 445h6v18h-6z" fill="#f0f0e8"/><path d="M190 454h6v19h-6z" fill="#f0f0e9"/></g>"     "     <g stroke="#787875"><path d="M181 470h7v15h-7z" fill="#f0f0ea"/><path d="M181 486h7v26h-7z" fill="#f0f0eb"/></g>"     "     <g stroke="#787876"><path d="M128 464h6v19h-6z" fill="#f0f0ec"/><path d="M190 474h6v19h-6z" fill="#f0f0ed"/></g>"     "     <path d="M128 484h6v20h-6z" fill="#f0f0ee" stroke="#787877"/>"     <text y="526" font-size="12" fill="#000" x="0"> MaxRectsBin(size: 1024x512, choice: WorstAreaFit, method: MaximizeArea): inserted 512 of 1536 rectangles with w/h lengths between [2, 31], occupancy: 7.27% </text></svg>