<svg xmlns="http://www.w3.org/2000/svg" viewBox="0 0 1024 536" xmlns:v="https://vecta.io/nano"><path d="M0 0h1024v512H0z" fill="#fff" stroke="#000"/>"     <path d="M1 1h22v1H1zm0 2h15v1H1z" fill="#303030" stroke="#181818"/>"     "     <path d="M1 5h5v1H1zm0 2h27v1H1z" stroke="#181818" fill="#303130"/>"     "     <g stroke="#181918"><path d="M1 9h13v1H1z" fill="#303230"/><path d="M1 11h12v1H1zm0 2h19v1H1z" fill="#303330"/></g>"     "     "     <path d="M1 15h10v1H1zm0 2h28v1H1z" fill="#303430" stroke="#181a18"/>"     "     <path d="M1 19h23v1H1z" fill="#303530" stroke="#181a18"/>"     <path d="M1 21h27v1H1zm0 2h20v1H1z" fill="#303630" stroke="#181b18"/>"     "     <path d="M1 25h22v1H1z" fill="#303730" stroke="#181b18"/>"     <path d="M1 27h11v1H1zm0 2h6v1H1z" fill="#303830" stroke="#181c18"/>"     "     <path d="M1 31h12v1H1zm0 2h5v1H1z" stroke="#181c18" fill="#303930"/>"     "     <g stroke="#181d18"><path d="M1 35h6v1H1z" fill="#303a30"/><path d="M1 37h18v1H1zm0 2h23v1H1z" fill="#303b30"/></g>"     "     "     <g stroke="#181e18"><path d="M1 41h14v1H1z" fill="#303c30"/><path d="M1 43h28v1H1zm0 2h3v1H1z" fill="#303d30"/></g>"     "     "     <path d="M5 45h19v1H5zm-4 2h21v1H1z" fill="#303e30" stroke="#181f18"/>"     "     <path d="M1 49h5v1H1z" fill="#303f30" stroke="#181f18"/>"     <path d="M1 51h2v1H1zm3 0h12v1H4z" fill="#304030" stroke="#182018"/>"     "     <path d="M1 53h23v1H1z" fill="#304130" stroke="#182018"/>"     <path d="M1 55h2v1H1zm3 0h27v1H4z" fill="#304230" stroke="#182118"/>"     "     <path d="M1 57h5v1H1zm0 2h1v1H1z" stroke="#182118" fill="#304330"/>"     "     <g stroke="#182218"><path d="M3 59h27v1H3z" fill="#304430"/><path d="M1 61h16v1H1zm0 2h3v1H1z" fill="#304530"/></g>"     "     "     <path d="M5 63h12v1H5zm-4 2h19v1H1z" fill="#304630" stroke="#182318"/>"     "     <path d="M1 67h15v1H1z" fill="#304730" stroke="#182318"/>"     <path d="M1 69h12v1H1zm0 2h4v1H1z" fill="#304830" stroke="#182418"/>"     "     <path d="M1 73h19v1H1z" fill="#304930" stroke="#182418"/>"     <path d="M1 75h30v1H1zm0 2h12v1H1z" fill="#304a30" stroke="#182518"/>"     "     <path d="M1 79h17v1H1zm0 2h10v1H1z" stroke="#182518" fill="#304b30"/>"     "     <g stroke="#182618"><path d="M1 83h7v1H1z" fill="#304c30"/><path d="M1 85h11v1H1zm0 2h2v1H1z" fill="#304d30"/></g>"     "     "     <g stroke="#182718"><path d="M4 87h13v2H4z" fill="#304e30"/><path d="M4 90h24v2H4zm0 3h13v2H4z" fill="#304f30"/></g>"     "     "     <path d="M4 96h9v2H4zm0 3h3v2H4z" fill="#305030" stroke="#182818"/>"     "     <path d="M8 99h10v2H8z" fill="#305130" stroke="#182818"/>"     <path d="M4 102h19v2H4zm0 3h21v2H4z" fill="#305230" stroke="#182918"/>"     "     <path d="M4 108h27v2H4z" fill="#305330" stroke="#182918"/>"     <path d="M4 111h18v2H4zm0 3h19v2H4z" fill="#305430" stroke="#182a18"/>"     "     <path d="M4 117h11v2H4zm0 3h5v2H4z" stroke="#182a18" fill="#305530"/>"     "     <g stroke="#182b18"><path d="M10 120h8v2h-8z" fill="#305630"/><path d="M4 123h5v2H4zm6 0h13v2H10z" fill="#305730"/></g>"     "     "     <path d="M4 126h25v2H4zm0 3h30v2H4z" fill="#305830" stroke="#182c18"/>"     "     <path d="M4 132h12v2H4z" fill="#305930" stroke="#182c18"/>"     <path d="M4 135h21v2H4zm0 3h23v2H4z" fill="#305a30" stroke="#182d18"/>"     "     <path d="M4 141h6v2H4z" fill="#305b30" stroke="#182d18"/>"     <path d="M11 141h18v2H11zm-7 3h19v2H4z" fill="#305c30" stroke="#182e18"/>"     "     <path d="M4 147h15v2H4zm0 3h24v2H4z" stroke="#182e18" fill="#305d30"/>"     "     <g stroke="#182f18"><path d="M4 153h20v2H4z" fill="#305e30"/><path d="M4 156h12v2H4zm0 3h26v2H4z" fill="#305f30"/></g>"     "     "     <g stroke="#183018"><path d="M4 162h30v2H4z" fill="#306030"/><path d="M4 165h14v2H4zm0 3h30v2H4z" fill="#306130"/></g>"     "     "     <path d="M4 171h28v2H4zm0 3h2v2H4z" fill="#306230" stroke="#183118"/>"     "     <path d="M7 174h5v2H7z" fill="#306330" stroke="#183118"/>"     <path d="M13 174h18v2H13zm-9 3h9v2H4z" fill="#306430" stroke="#183218"/>"     "     <path d="M4 180h19v2H4z" fill="#306530" stroke="#183218"/>"     <path d="M4 183h3v2H4zm4 0h2v2H8z" fill="#306630" stroke="#183318"/>"     "     <path d="M11 183h6v2h-6zm7 0h19v2H18z" stroke="#183318" fill="#306730"/>"     "     <g stroke="#183418"><path d="M4 186h7v2H4z" fill="#306830"/><path d="M12 186h26v2H12zm-8 3h29v2H4z" fill="#306930"/></g>"     "     "     <path d="M4 192h21v2H4zm0 3h6v2H4z" fill="#306a30" stroke="#183518"/>"     "     <path d="M11 195h1v2h-1z" fill="#306b30" stroke="#183518"/>"     <path d="M13 195h28v2H13zm-9 3h14v2H4z" fill="#306c30" stroke="#183618"/>"     "     <path d="M4 201h9v2H4z" fill="#306d30" stroke="#183618"/>"     <path d="M4 204h17v2H4zm0 3h21v2H4z" fill="#306e30" stroke="#183718"/>"     "     <path d="M4 210h18v2H4zm0 3h16v2H4z" stroke="#183718" fill="#306f30"/>"     "     <g stroke="#183818"><path d="M4 216h9v3H4z" fill="#307030"/><path d="M14 216h18v3H14zm-10 4h18v3H4z" fill="#307130"/></g>"     "     "     <g stroke="#183918"><path d="M4 224h11v3H4z" fill="#307230"/><path d="M16 224h7v3h-7zm8 0h28v3H24z" fill="#307330"/></g>"     "     "     <path d="M4 228h20v3H4zm0 4h6v3H4z" fill="#307430" stroke="#183a18"/>"     "     <path d="M11 232h29v3H11z" fill="#307530" stroke="#183a18"/>"     <path d="M4 236h27v3H4zm0 4h11v3H4z" fill="#307630" stroke="#183b18"/>"     "     <path d="M16 240h17v3H16z" fill="#307730" stroke="#183b18"/>"     <path d="M4 244h6v3H4zm7 0h13v3H11z" fill="#307830" stroke="#183c18"/>"     "     <path d="M25 244h29v3H25zm-21 4h25v3H4z" stroke="#183c18" fill="#307930"/>"     "     <g stroke="#183d18"><path d="M4 252h15v3H4z" fill="#307a30"/><path d="M4 256h17v3H4zm0 4h30v3H4z" fill="#307b30"/></g>"     "     "     <path d="M4 264h8v3H4zm9 0h25v3H13z" fill="#307c30" stroke="#183e18"/>"     "     <path d="M4 268h14v3H4z" fill="#307d30" stroke="#183e18"/>"     <path d="M19 268h25v3H19zm-15 4h9v3H4z" fill="#307e30" stroke="#183f18"/>"     "     <path d="M14 272h23v3H14z" fill="#307f30" stroke="#183f18"/>"     <path d="M4 276h22v3H4zm0 4h18v3H4z" fill="#308030" stroke="#184018"/>"     "     <path d="M4 284h1v3H4zm2 0h6v3H6z" stroke="#184018" fill="#308130"/>"     "     <g stroke="#184118"><path d="M13 284h13v3H13z" fill="#308230"/><path d="M27 284h6v3h-6zm7 0h23v3H34z" fill="#308330"/></g>"     "     "     <g stroke="#184218"><path d="M4 288h28v3H4z" fill="#308430"/><path d="M4 292h30v3H4zm0 4h13v3H4z" fill="#308530"/></g>"     "     "     <path d="M18 296h5v3h-5zm6 0h1v3h-1z" fill="#308630" stroke="#184318"/>"     "     <path d="M26 296h20v3H26z" fill="#308730" stroke="#184318"/>"     <path d="M4 300h30v3H4zm0 4h20v3H4z" fill="#308830" stroke="#184418"/>"     "     <path d="M4 308h1v3H4z" fill="#308930" stroke="#184418"/>"     <path d="M6 308h24v3H6zm-2 4h2v3H4z" fill="#308a30" stroke="#184518"/>"     "     <path d="M7 312h12v3H7zm13 0h12v3H20z" stroke="#184518" fill="#308b30"/>"     "     <g stroke="#184618"><path d="M33 312h4v3h-4z" fill="#308c30"/><path d="M38 312h30v3H38zm-34 4h7v3H4z" fill="#308d30"/></g>"     "     "     <path d="M12 316h21v3H12zm-8 4h27v3H4z" fill="#308e30" stroke="#184718"/>"     "     <path d="M4 324h16v4H4z" fill="#308f30" stroke="#184718"/>"     <path d="M21 324h11v4H21zm12 0h22v4H33z" fill="#309030" stroke="#184818"/>"     "     <path d="M56 324h8v4h-8z" fill="#309130" stroke="#184818"/>"     <path d="M65 324h23v4H65zm24 0h11v4H89z" fill="#309230" stroke="#184918"/>"     "     <path d="M101 324h13v4h-13zm14 0h15v4h-15z" stroke="#184918" fill="#309330"/>"     "     <g stroke="#184a18"><path d="M131 324h21v4h-21z" fill="#309430"/><path d="M153 324h19v4h-19zm20 0h29v4h-29z" fill="#309530"/></g>"     "     "     <g stroke="#184b18"><path d="M4 329h29v4H4z" fill="#309630"/><path d="M4 334h30v4H4zm0 5h22v4H4z" fill="#309730"/></g>"     "     "     <path d="M27 339h3v4h-3zm4 0h1v4h-1z" fill="#309830" stroke="#184c18"/>"     "     <path d="M33 339h7v4h-7z" fill="#309930" stroke="#184c18"/>"     <path d="M41 339h24v4H41zm25 0h5v4h-5z" fill="#309a30" stroke="#184d18"/>"     "     <path d="M72 339h13v4H72z" fill="#309b30" stroke="#184d18"/>"     <path d="M86 339h22v4H86zm23 0h22v4h-22z" fill="#309c30" stroke="#184e18"/>"     "     <path d="M132 339h22v4h-22zm23 0h16v4h-16z" stroke="#184e18" fill="#309d30"/>"     "     <g stroke="#184f18"><path d="M172 339h9v4h-9z" fill="#309e30"/><path d="M182 339h7v4h-7zm8 0h1v4h-1z" fill="#309f30"/></g>"     "     "     <path d="M192 339h26v4h-26zM4 344h15v4H4z" fill="#30a030" stroke="#185018"/>"     "     <path d="M20 344h14v4H20z" fill="#30a130" stroke="#185018"/>"     <path d="M35 344h10v4H35zm11 0h26v4H46z" fill="#30a230" stroke="#185118"/>"     "     <path d="M73 344h13v4H73z" fill="#30a330" stroke="#185118"/>"     <path d="M87 344h19v4H87zm20 0h5v4h-5z" fill="#30a430" stroke="#185218"/>"     "     <path d="M113 344h22v4h-22zm23 0h30v4h-30z" stroke="#185218" fill="#30a530"/>"     "     <g stroke="#185318"><path d="M4 349h1v4H4z" fill="#30a630"/><path d="M6 349h16v4H6zm17 0h6v4h-6z" fill="#30a730"/></g>"     "     "     <g stroke="#185418"><path d="M30 349h9v4h-9z" fill="#30a830"/><path d="M40 349h26v5H40zm27 0h22v5H67z" fill="#30a930"/></g>"     "     "     <path d="M90 349h7v5h-7zm8 0h25v5H98z" fill="#30aa30" stroke="#185518"/>"     "     <path d="M124 349h15v5h-15z" fill="#30ab30" stroke="#185518"/>"     <path d="M140 349h28v5h-28zm29 0h4v5h-4z" fill="#30ac30" stroke="#185618"/>"     "     <path d="M174 349h22v5h-22z" fill="#30ad30" stroke="#185618"/>"     <path d="M197 349h29v5h-29zm30 0h10v5h-10z" fill="#30ae30" stroke="#185718"/>"     "     <path d="M238 349h11v5h-11zm12 0h23v5h-23z" stroke="#185718" fill="#30af30"/>"     "     <g stroke="#185818"><path d="M274 349h23v5h-23z" fill="#30b030"/><path d="M298 349h29v5h-29zm-258 6h8v5h-8z" fill="#30b130"/></g>"     "     "     <path d="M49 355h15v5H49zm16 0h5v5h-5z" fill="#30b230" stroke="#185918"/>"     "     <path d="M71 355h4v5h-4z" fill="#30b330" stroke="#185918"/>"     <path d="M76 355h8v5h-8zm9 0h14v5H85z" fill="#30b430" stroke="#185a18"/>"     "     <path d="M100 355h28v5h-28z" fill="#30b530" stroke="#185a18"/>"     <path d="M129 355h28v5h-28zm29 0h11v5h-11z" fill="#30b630" stroke="#185b18"/>"     "     <path d="M170 355h12v5h-12zm13 0h21v5h-21z" stroke="#185b18" fill="#30b730"/>"     "     <g stroke="#185c18"><path d="M205 355h28v5h-28z" fill="#30b830"/><path d="M234 355h22v5h-22zm23 0h24v5h-24z" fill="#30b930"/></g>"     "     "     <g stroke="#185d18"><path d="M282 355h21v5h-21z" fill="#30ba30"/><path d="M304 355h19v5h-19zm20 0h9v5h-9z" fill="#30bb30"/></g>"     "     "     <path d="M334 355h2v5h-2zm3 0h2v5h-2z" fill="#30bc30" stroke="#185e18"/>"     "     <path d="M340 355h15v5h-15z" fill="#30bd30" stroke="#185e18"/>"     <path d="M356 355h29v5h-29zm-316 6h3v5h-3z" fill="#30be30" stroke="#185f18"/>"     "     <path d="M44 361h4v5h-4z" fill="#30bf30" stroke="#185f18"/>"     <path d="M49 361h20v5H49zm21 0h12v5H70z" fill="#30c030" stroke="#186018"/>"     "     <path d="M83 361h7v5h-7zm8 0h5v5h-5z" stroke="#186018" fill="#30c130"/>"     "     <g stroke="#186118"><path d="M97 361h30v5H97z" fill="#30c230"/><path d="M128 361h2v5h-2zm3 0h16v5h-16z" fill="#30c330"/></g>"     "     "     <path d="M148 361h11v6h-11zm12 0h27v6h-27z" fill="#30c430" stroke="#186218"/>"     "     <path d="M188 361h11v6h-11z" fill="#30c530" stroke="#186218"/>"     <path d="M200 361h17v6h-17zm18 0h2v6h-2z" fill="#30c630" stroke="#186318"/>"     "     <path d="M221 361h19v6h-19z" fill="#30c730" stroke="#186318"/>"     <path d="M241 361h2v6h-2zm3 0h24v6h-24z" fill="#30c830" stroke="#186418"/>"     "     <path d="M269 361h6v6h-6zm7 0h22v6h-22z" stroke="#186418" fill="#30c930"/>"     "     <g stroke="#186518"><path d="M299 361h13v6h-13z" fill="#30ca30"/><path d="M313 361h27v6h-27zm28 0h13v6h-13z" fill="#30cb30"/></g>"     "     "     <g stroke="#186618"><path d="M355 361h5v6h-5z" fill="#30cc30"/><path d="M361 361h25v6h-25zm26 0h3v6h-3z" fill="#30cd30"/></g>"     "     "     <path d="M391 361h25v6h-25zm26 0h16v6h-16z" fill="#30ce30" stroke="#186718"/>"     "     <path d="M434 361h20v6h-20z" fill="#30cf30" stroke="#186718"/>"     <path d="M455 361h16v6h-16zm17 0h26v6h-26z" fill="#30d030" stroke="#186818"/>"     "     <path d="M148 368h20v6h-20z" fill="#30d130" stroke="#186818"/>"     <path d="M169 368h30v6h-30zm31 0h11v6h-11z" fill="#30d230" stroke="#186918"/>"     "     <path d="M212 368h24v6h-24zm25 0h27v6h-27z" stroke="#186918" fill="#30d330"/>"     "     <g stroke="#186a18"><path d="M265 368h26v6h-26z" fill="#30d430"/><path d="M292 368h22v6h-22zm23 0h5v6h-5z" fill="#30d530"/></g>"     "     "     <path d="M321 368h18v6h-18zm19 0h10v6h-10z" fill="#30d630" stroke="#186b18"/>"     "     <path d="M351 368h7v6h-7z" fill="#30d730" stroke="#186b18"/>"     <path d="M359 368h3v6h-3zm4 0h24v6h-24z" fill="#30d830" stroke="#186c18"/>"     "     <path d="M388 368h29v6h-29z" fill="#30d930" stroke="#186c18"/>"     <path d="M418 368h11v6h-11zm12 0h25v6h-25z" fill="#30da30" stroke="#186d18"/>"     "     <path d="M456 368h1v6h-1zm2 0h20v6h-20z" stroke="#186d18" fill="#30db30"/>"     "     <g stroke="#186e18"><path d="M479 368h26v6h-26z" fill="#30dc30"/><path d="M148 375h15v6h-15zm16 0h30v6h-30z" fill="#30dd30"/></g>"     "     "     <g stroke="#186f18"><path d="M195 375h30v6h-30z" fill="#30de30"/><path d="M226 375h16v6h-16zm17 0h1v7h-1z" fill="#30df30"/></g>"     "     "     <path d="M245 375h26v7h-26zm27 0h24v7h-24z" fill="#30e030" stroke="#187018"/>"     "     <path d="M297 375h19v7h-19z" fill="#30e130" stroke="#187018"/>"     <path d="M317 375h5v7h-5zm6 0h21v7h-21z" fill="#30e230" stroke="#187118"/>"     "     <path d="M345 375h20v7h-20z" fill="#30e330" stroke="#187118"/>"     <path d="M366 375h12v7h-12zm13 0h10v7h-10z" fill="#30e430" stroke="#187218"/>"     "     <path d="M390 375h5v7h-5zm6 0h26v7h-26z" stroke="#187218" fill="#30e530"/>"     "     <g stroke="#187318"><path d="M423 375h29v7h-29z" fill="#30e630"/><path d="M453 375h26v7h-26zm27 0h16v7h-16z" fill="#30e730"/></g>"     "     "     <path d="M497 375h4v7h-4zm5 0h18v7h-18z" fill="#30e830" stroke="#187418"/>"     "     <path d="M521 375h15v7h-15z" fill="#30e930" stroke="#187418"/>"     <path d="M537 375h9v7h-9zm10 0h19v7h-19z" fill="#30ea30" stroke="#187518"/>"     "     <path d="M567 375h16v7h-16z" fill="#30eb30" stroke="#187518"/>"     <path d="M584 375h26v7h-26zm-341 8h22v7h-22z" fill="#30ec30" stroke="#187618"/>"     "     <path d="M266 383h24v7h-24zm25 0h23v7h-23z" stroke="#187618" fill="#30ed30"/>"     "     <g stroke="#187718"><path d="M315 383h27v7h-27z" fill="#30ee30"/><path d="M343 383h6v7h-6zm7 0h7v7h-7z" fill="#30ef30"/></g>"     "     "     <g stroke="#187818"><path d="M358 383h3v7h-3z" fill="#30f030"/><path d="M362 383h23v7h-23zm24 0h16v7h-16z" fill="#31f030"/></g>"     "     "     <path d="M403 383h5v7h-5zm6 0h22v7h-22z" fill="#32f030" stroke="#197818"/>"     "     <path d="M432 383h2v7h-2z" fill="#33f030" stroke="#197818"/>"     <path d="M435 383h14v7h-14zm15 0h25v7h-25z" fill="#34f030" stroke="#1a7818"/>"     "     <path d="M476 383h20v7h-20z" fill="#35f030" stroke="#1a7818"/>"     <path d="M497 383h28v7h-28zm29 0h28v7h-28z" fill="#36f030" stroke="#1b7818"/>"     "     <path d="M555 383h8v7h-8zm9 0h25v7h-25z" stroke="#1b7818" fill="#37f030"/>"     "     <g stroke="#1c7818"><path d="M590 383h25v7h-25z" fill="#38f030"/><path d="M616 383h2v7h-2zm3 0h6v7h-6z" fill="#39f030"/></g>"     "     "     <path d="M626 383h12v7h-12zm13 0h1v7h-1z" fill="#3af030" stroke="#1d7818"/>"     "     <path d="M641 383h25v7h-25z" fill="#3bf030" stroke="#1d7818"/>"     <path d="M243 391h30v7h-30zm31 0h4v7h-4z" fill="#3cf030" stroke="#1e7818"/>"     "     <path d="M279 391h1v7h-1z" fill="#3df030" stroke="#1e7818"/>"     <path d="M281 391h22v7h-22zm23 0h29v7h-29z" fill="#3ef030" stroke="#1f7818"/>"     "     <path d="M334 391h19v7h-19zm20 0h8v7h-8z" stroke="#1f7818" fill="#3ff030"/>"     "     <g stroke="#207818"><path d="M363 391h6v7h-6z" fill="#40f030"/><path d="M370 391h26v7h-26zm27 0h24v7h-24z" fill="#41f030"/></g>"     "     "     <g stroke="#217818"><path d="M422 391h17v7h-17z" fill="#42f030"/><path d="M440 391h23v7h-23zm24 0h25v7h-25z" fill="#43f030"/></g>"     "     "     <path d="M490 391h23v8h-23zm24 0h22v8h-22z" fill="#44f030" stroke="#227818"/>"     "     <path d="M537 391h11v8h-11z" fill="#45f030" stroke="#227818"/>"     <path d="M549 391h28v8h-28zm29 0h16v8h-16z" fill="#46f030" stroke="#237818"/>"     "     <path d="M595 391h12v8h-12z" fill="#47f030" stroke="#237818"/>"     <path d="M608 391h3v8h-3zm4 0h24v8h-24z" fill="#48f030" stroke="#247818"/>"     "     <path d="M637 391h16v8h-16zm17 0h27v8h-27z" stroke="#247818" fill="#49f030"/>"     "     <g stroke="#257818"><path d="M40 367h1v13h-1z" fill="#4af030"/><path d="M243 399h28v8h-28zM42 367h1v15h-1z" fill="#4bf030"/></g>"     "     "     <path d="M490 400h12v8h-12zm13 0h24v8h-24z" fill="#4cf030" stroke="#267818"/>"     "     <path d="M528 400h3v8h-3z" fill="#4df030" stroke="#267818"/>"     <path d="M532 400h27v8h-27zm28 0h16v8h-16z" fill="#4ef030" stroke="#277818"/>"     "     <path d="M577 400h10v8h-10z" fill="#4ff030" stroke="#277818"/>"     <path d="M588 400h17v8h-17zm18 0h17v8h-17z" fill="#50f030" stroke="#287818"/>"     "     <path d="M624 400h15v8h-15zm16 0h29v8h-29z" stroke="#287818" fill="#51f030"/>"     "     <g stroke="#297818"><path d="M670 400h24v8h-24z" fill="#52f030"/><path d="M695 400h11v8h-11zm12 0h8v8h-8z" fill="#53f030"/></g>"     "     "     <g stroke="#2a7818"><path d="M716 400h13v8h-13z" fill="#54f030"/><path d="M730 400h16v8h-16zm17 0h16v8h-16z" fill="#55f030"/></g>"     "     "     <path d="M764 400h14v8h-14zm15 0h5v8h-5z" fill="#56f030" stroke="#2b7818"/>"     "     <path d="M785 400h16v8h-16z" fill="#57f030" stroke="#2b7818"/>"     <path d="M802 400h11v8h-11zm12 0h2v8h-2z" fill="#58f030" stroke="#2c7818"/>"     "     <path d="M817 400h14v8h-14z" fill="#59f030" stroke="#2c7818"/>"     <path d="M832 400h29v8h-29zM44 367h1v15h-1z" fill="#5af030" stroke="#2d7818"/>"     "     <path d="M46 367h1v12h-1zm2 0h1v15h-1z" stroke="#2d7818" fill="#5bf030"/>"     "     <g stroke="#2e7818"><path d="M50 367h1v22h-1z" fill="#5cf030"/><path d="M243 408h8v8h-8zm9 0h17v8h-17z" fill="#5df030"/></g>"     "     "     <path d="M270 408h4v8h-4zm5 0h6v8h-6z" fill="#5ef030" stroke="#2f7818"/>"     "     <path d="M282 408h24v8h-24z" fill="#5ff030" stroke="#2f7818"/>"     <path d="M490 409h7v8h-7zm8 0h28v8h-28z" fill="#60f030" stroke="#307818"/>"     "     <path d="M527 409h23v8h-23z" fill="#61f030" stroke="#307818"/>"     <path d="M551 409h1v8h-1zm2 0h7v8h-7z" fill="#62f030" stroke="#317818"/>"     "     <path d="M561 409h20v8h-20zm21 0h3v8h-3z" stroke="#317818" fill="#63f030"/>"     "     <g stroke="#327818"><path d="M586 409h27v8h-27z" fill="#64f030"/><path d="M614 409h23v8h-23zm24 0h16v8h-16z" fill="#65f030"/></g>"     "     "     <g stroke="#337818"><path d="M655 409h24v8h-24z" fill="#66f030"/><path d="M680 409h23v8h-23zm24 0h28v8h-28z" fill="#67f030"/></g>"     "     "     <path d="M52 367h1v23h-1zm96 15h1v27h-1z" fill="#68f030" stroke="#347818"/>"     "     <path d="M54 367h1v17h-1z" fill="#69f030" stroke="#347818"/>"     <path d="M150 382h1v26h-1zm-94-15h1v30h-1z" fill="#6af030" stroke="#357818"/>"     "     <path d="M152 382h1v17h-1z" fill="#6bf030" stroke="#357818"/>"     <path d="M58 367h1v14h-1zm96 15h1v12h-1z" fill="#6cf030" stroke="#367818"/>"     "     <path d="M243 417h28v8h-28zM60 367h1v14h-1z" stroke="#367818" fill="#6df030"/>"     "     <g stroke="#377818"><path d="M490 418h6v8h-6z" fill="#6ef030"/><path d="M497 418h17v8h-17zm18 0h13v8h-13z" fill="#6ff030"/></g>"     "     "     <path d="M529 418h22v8h-22zm23 0h20v8h-20z" fill="#70f030" stroke="#387818"/>"     "     <path d="M573 418h25v8h-25z" fill="#71f030" stroke="#387818"/>"     <path d="M156 382h1v22h-1zm443 36h9v9h-9z" fill="#72f030" stroke="#397818"/>"     "     <path d="M609 418h17v9h-17z" fill="#73f030" stroke="#397818"/>"     <path d="M627 418h29v9h-29zm30 0h10v9h-10z" fill="#74f030" stroke="#3a7818"/>"     "     <path d="M668 418h21v9h-21zm22 0h13v9h-13z" stroke="#3a7818" fill="#75f030"/>"     "     <g stroke="#3b7818"><path d="M704 418h8v9h-8z" fill="#76f030"/><path d="M713 418h6v9h-6zm7 0h4v9h-4z" fill="#77f030"/></g>"     "     "     <g stroke="#3c7818"><path d="M725 418h24v9h-24z" fill="#78f030"/><path d="M750 418h28v9h-28zM62 367h1v19h-1z" fill="#79f030"/></g>"     "     "     <path d="M158 382h1v20h-1zm-94-15h1v26h-1z" fill="#7af030" stroke="#3d7818"/>"     "     <path d="M160 382h1v13h-1z" fill="#7bf030" stroke="#3d7818"/>"     <path d="M66 367h1v21h-1zm96 15h1v21h-1z" fill="#7cf030" stroke="#3e7818"/>"     "     <path d="M68 367h1v16h-1z" fill="#7df030" stroke="#3e7818"/>"     <path d="M164 382h1v21h-1zm79 44h8v9h-8z" fill="#7ef030" stroke="#3f7818"/>"     "     <path d="M252 426h27v9h-27zM70 367h1v19h-1z" stroke="#3f7818" fill="#7ff030"/>"     "     <g stroke="#407818"><path d="M490 427h10v9h-10z" fill="#80f030"/><path d="M501 427h8v9h-8zm9 0h7v9h-7z" fill="#81f030"/></g>"     "     "     <path d="M518 427h4v9h-4zm-352-45h1v26h-1z" fill="#82f030" stroke="#417818"/>"     "     <path d="M599 428h20v9h-20z" fill="#83f030" stroke="#417818"/>"     <path d="M620 428h13v9h-13zm14 0h12v9h-12z" fill="#84f030" stroke="#427818"/>"     "     <path d="M647 428h22v9h-22z" fill="#85f030" stroke="#427818"/>"     <path d="M670 428h30v9h-30zm31 0h11v9h-11z" fill="#86f030" stroke="#437818"/>"     "     <path d="M713 428h26v9h-26zm27 0h16v9h-16z" stroke="#437818" fill="#87f030"/>"     "     <g stroke="#447818"><path d="M757 428h11v9h-11z" fill="#88f030"/><path d="M769 428h12v9h-12zm13 0h13v9h-13z" fill="#89f030"/></g>"     "     "     <g stroke="#457818"><path d="M796 428h4v9h-4z" fill="#8af030"/><path d="M801 428h20v9h-20zm21 0h3v9h-3z" fill="#8bf030"/></g>"     "     "     <path d="M826 428h25v9h-25zM72 367h1v23h-1z" fill="#8cf030" stroke="#467818"/>"     "     <path d="M523 427h1v11h-1z" fill="#8df030" stroke="#467818"/>"     <path d="M168 382h1v12h-1zm-94-15h1v14h-1z" fill="#8ef030" stroke="#477818"/>"     "     <path d="M170 382h1v19h-1z" fill="#8ff030" stroke="#477818"/>"     <path d="M525 427h2v14h-2zM76 367h1v23h-1z" fill="#90f030" stroke="#487818"/>"     "     <path d="M172 382h1v14h-1zm356 45h1v15h-1z" stroke="#487818" fill="#91f030"/>"     "     <g stroke="#497818"><path d="M78 367h1v15h-1z" fill="#92f030"/><path d="M174 382h1v24h-1zm69 54h21v9h-21z" fill="#93f030"/></g>"     "     "     <path d="M265 436h20v9h-20zm21 0h11v9h-11z" fill="#94f030" stroke="#4a7818"/>"     "     <path d="M298 436h2v9h-2z" fill="#95f030" stroke="#4a7818"/>"     <path d="M301 436h16v9h-16zm17 0h10v9h-10z" fill="#96f030" stroke="#4b7818"/>"     "     <path d="M329 436h8v9h-8z" fill="#97f030" stroke="#4b7818"/>"     <path d="M338 436h20v9h-20zm192-9h2v18h-2z" fill="#98f030" stroke="#4c7818"/>"     "     <path d="M80 367h2v28h-2zm519 71h16v9h-16z" stroke="#4c7818" fill="#99f030"/>"     "     <g stroke="#4d7818"><path d="M616 438h12v9h-12z" fill="#9af030"/><path d="M176 382h2v28h-2zm453 56h8v10h-8z" fill="#9bf030"/></g>"     "     "     <g stroke="#4e7818"><path d="M638 438h14v10h-14z" fill="#9cf030"/><path d="M653 438h13v10h-13zm14 0h12v10h-12z" fill="#9df030"/></g>"     "     "     <path d="M680 438h23v10h-23zm24 0h3v10h-3z" fill="#9ef030" stroke="#4f7818"/>"     "     <path d="M708 438h21v10h-21z" fill="#9ff030" stroke="#4f7818"/>"     <path d="M730 438h15v10h-15zm16 0h28v10h-28z" fill="#a0f030" stroke="#507818"/>"     "     <path d="M775 438h7v10h-7z" fill="#a1f030" stroke="#507818"/>"     <path d="M783 438h17v10h-17zm18 0h6v10h-6z" fill="#a2f030" stroke="#517818"/>"     "     <path d="M808 438h25v10h-25zm26 0h3v10h-3z" stroke="#517818" fill="#a3f030"/>"     "     <g stroke="#527818"><path d="M838 438h22v10h-22z" fill="#a4f030"/><path d="M861 438h19v10h-19zm20 0h29v10h-29z" fill="#a5f030"/></g>"     "     "     <path d="M533 427h2v12h-2zM83 367h2v30h-2z" fill="#a6f030" stroke="#537818"/>"     "     <path d="M179 382h2v10h-2z" fill="#a7f030" stroke="#537818"/>"     <path d="M536 427h2v21h-2zM86 367h2v24h-2z" fill="#a8f030" stroke="#547818"/>"     "     <path d="M182 382h2v23h-2z" fill="#a9f030" stroke="#547818"/>"     <path d="M539 427h2v27h-2zM89 367h2v21h-2z" fill="#aaf030" stroke="#557818"/>"     "     <path d="M243 446h6v10h-6zm7 0h16v10h-16z" stroke="#557818" fill="#abf030"/>"     "     <g stroke="#567818"><path d="M267 446h21v10h-21z" fill="#acf030"/><path d="M289 446h10v10h-10zm11 0h24v10h-24z" fill="#adf030"/></g>"     "     "     <g stroke="#577818"><path d="M325 446h24v10h-24z" fill="#aef030"/><path d="M350 446h19v10h-19zm20 0h27v10h-27z" fill="#aff030"/></g>"     "     "     <path d="M185 382h2v15h-2zm357 45h2v19h-2z" fill="#b0f030" stroke="#587818"/>"     "     <path d="M92 367h2v25h-2z" fill="#b1f030" stroke="#587818"/>"     <path d="M629 449h3v10h-3zm4 0h10v10h-10z" fill="#b2f030" stroke="#597818"/>"     "     <path d="M644 449h24v10h-24z" fill="#b3f030" stroke="#597818"/>"     <path d="M669 449h29v10h-29zm30 0h18v10h-18z" fill="#b4f030" stroke="#5a7818"/>"     "     <path d="M718 449h25v10h-25zm26 0h15v10h-15z" stroke="#5a7818" fill="#b5f030"/>"     "     <g stroke="#5b7818"><path d="M760 449h15v10h-15z" fill="#b6f030"/><path d="M776 449h16v10h-16zm17 0h14v10h-14z" fill="#b7f030"/></g>"     "     "     <path d="M808 449h24v10h-24zm25 0h3v10h-3z" fill="#b8f030" stroke="#5c7818"/>"     "     <path d="M837 449h27v10h-27z" fill="#b9f030" stroke="#5c7818"/>"     <path d="M865 449h14v10h-14zm15 0h24v10h-24z" fill="#baf030" stroke="#5d7818"/>"     "     <path d="M188 382h2v11h-2z" fill="#bbf030" stroke="#5d7818"/>"     <path d="M545 427h2v20h-2zM95 367h2v13h-2z" fill="#bcf030" stroke="#5e7818"/>"     "     <path d="M191 382h2v21h-2zm357 45h2v22h-2z" stroke="#5e7818" fill="#bdf030"/>"     "     <g stroke="#5f7818"><path d="M98 367h2v24h-2z" fill="#bef030"/><path d="M194 382h2v23h-2zm357 45h2v13h-2z" fill="#bff030"/></g>"     "     "     <g stroke="#607818"><path d="M243 457h30v10h-30z" fill="#c0f030"/><path d="M274 457h26v10h-26zm27 0h11v10h-11z" fill="#c1f030"/></g>"     "     "     <path d="M313 457h13v10h-13zm14 0h9v10h-9z" fill="#c2f030" stroke="#617818"/>"     "     <path d="M337 457h26v10h-26z" fill="#c3f030" stroke="#617818"/>"     <path d="M364 457h6v10h-6zm7 0h11v10h-11z" fill="#c4f030" stroke="#627818"/>"     "     <path d="M383 457h3v10h-3z" fill="#c5f030" stroke="#627818"/>"     <path d="M387 457h14v10h-14zm-286-90h2v20h-2z" fill="#c6f030" stroke="#637818"/>"     "     <path d="M402 457h23v11h-23zm-205-75h2v24h-2z" stroke="#637818" fill="#c7f030"/>"     "     <g stroke="#647818"><path d="M554 427h2v14h-2z" fill="#c8f030"/><path d="M104 367h2v23h-2zm525 93h14v11h-14z" fill="#c9f030"/></g>"     "     "     <path d="M644 460h27v11h-27zm28 0h13v11h-13z" fill="#caf030" stroke="#657818"/>"     "     <path d="M686 460h18v11h-18z" fill="#cbf030" stroke="#657818"/>"     <path d="M705 460h15v11h-15zm16 0h27v11h-27z" fill="#ccf030" stroke="#667818"/>"     "     <path d="M749 460h3v11h-3z" fill="#cdf030" stroke="#667818"/>"     <path d="M753 460h16v11h-16zm17 0h29v11h-29z" fill="#cef030" stroke="#677818"/>"     "     <path d="M800 460h3v11h-3zm4 0h18v11h-18z" stroke="#677818" fill="#cff030"/>"     "     <g stroke="#687818"><path d="M823 460h13v11h-13z" fill="#d0f030"/><path d="M837 460h29v11h-29zm30 0h10v11h-10z" fill="#d1f030"/></g>"     "     "     <g stroke="#697818"><path d="M878 460h12v11h-12z" fill="#d2f030"/><path d="M891 460h5v11h-5zm6 0h23v11h-23z" fill="#d3f030"/></g>"     "     "     <path d="M921 460h9v11h-9zm10 0h29v11h-29z" fill="#d4f030" stroke="#6a7818"/>"     "     <path d="M200 382h2v15h-2z" fill="#d5f030" stroke="#6a7818"/>"     <path d="M557 427h2v22h-2zm-450-60h3v17h-3z" fill="#d6f030" stroke="#6b7818"/>"     "     <path d="M203 382h3v20h-3z" fill="#d7f030" stroke="#6b7818"/>"     <path d="M560 427h3v18h-3zm-449-60h3v18h-3z" fill="#d8f030" stroke="#6c7818"/>"     "     <path d="M243 468h19v11h-19zm20 0h28v11h-28z" stroke="#6c7818" fill="#d9f030"/>"     "     <g stroke="#6d7818"><path d="M292 468h15v11h-15z" fill="#daf030"/><path d="M308 468h26v11h-26zM4 354h3v13H4z" fill="#dbf030"/></g>"     "     "     <path d="M207 382h3v28h-3zm195 87h19v11h-19z" fill="#dcf030" stroke="#6e7818"/>"     "     <path d="M422 469h22v11h-22z" fill="#ddf030" stroke="#6e7818"/>"     <path d="M4 368h3v22H4zm560 59h3v27h-3z" fill="#def030" stroke="#6f7818"/>"     "     <path d="M115 367h3v15h-3z" fill="#dff030" stroke="#6f7818"/>"     <path d="M490 437h3v26h-3zm139 35h11v11h-11z" fill="#e0f030" stroke="#707818"/>"     "     <path d="M629 484h11v28h-11zm12-12h17v11h-17z" stroke="#707818" fill="#e1f030"/>"     "     <g stroke="#717818"><path d="M641 484h17v28h-17z" fill="#e2f030"/><path d="M659 472h21v11h-21zm0 12h21v28h-21z" fill="#e3f030"/></g>"     "     "     <g stroke="#727818"><path d="M681 472h10v11h-10z" fill="#e4f030"/><path d="M681 484h10v28h-10zm11-12h17v11h-17z" fill="#e5f030"/></g>"     "     "     <path d="M692 484h17v28h-17zm18-12h29v11h-29z" fill="#e6f030" stroke="#737818"/>"     "     <path d="M710 484h29v28h-29z" fill="#e7f030" stroke="#737818"/>"     <path d="M740 472h4v11h-4zm0 12h4v28h-4z" fill="#e8f030" stroke="#747818"/>"     "     <path d="M745 472h27v11h-27z" fill="#e9f030" stroke="#747818"/>"     <path d="M745 484h27v28h-27zm28-12h19v11h-19z" fill="#eaf030" stroke="#757818"/>"     "     <path d="M773 484h19v28h-19zm20-12h20v11h-20z" stroke="#757818" fill="#ebf030"/>"     "     <g stroke="#767818"><path d="M793 484h20v28h-20z" fill="#ecf030"/><path d="M814 472h30v11h-30zm0 12h30v28h-30z" fill="#edf030"/></g>"     "     "     <path d="M845 472h10v11h-10zm0 12h10v28h-10z" fill="#eef030" stroke="#777818"/>"     "     <path d="M856 472h7v11h-7z" fill="#eff030" stroke="#777818"/>"     <path d="M856 484h7v28h-7zm8-12h13v11h-13z" fill="#f0f030" stroke="#787818"/>"     "     <path d="M864 484h13v28h-13z" fill="#f0f031" stroke="#787818"/>"     <path d="M878 472h19v11h-19zm0 12h19v28h-19z" fill="#f0f032" stroke="#787819"/>"     "     <path d="M898 472h26v11h-26zm0 12h26v28h-26z" stroke="#787819" fill="#f0f033"/>"     "     <g stroke="#78781a"><path d="M925 472h22v11h-22z" fill="#f0f034"/><path d="M925 484h22v28h-22zm23-12h21v11h-21z" fill="#f0f035"/></g>"     "     "     <g stroke="#78781b"><path d="M948 484h21v28h-21z" fill="#f0f036"/><path d="M970 472h11v11h-11zm12 0h13v11h-13z" fill="#f0f037"/></g>"     "     "     <path d="M115 383h3v30h-3zM8 354h3v22H8z" fill="#f0f038" stroke="#78781c"/>"     "     <path d="M211 382h3v25h-3z" fill="#f0f039" stroke="#78781c"/>"     <path d="M18 61h30v3H18zm31 0h30v3H49z" fill="#f0f03a" stroke="#78781d"/>"     "     <path d="M568 427h3v24h-3z" fill="#f0f03b" stroke="#78781d"/>"     <path d="M80 61h29v3H80zm30 0h29v3h-29z" fill="#f0f03c" stroke="#78781e"/>"     "     <path d="M203 324h30v4h-30zm396 124h3v26h-3z" stroke="#78781e" fill="#f0f03d"/>"     "     <g stroke="#78781f"><path d="M140 61h28v3h-28z" fill="#f0f03e"/><path d="M169 61h28v3h-28zm65 263h29v4h-29z" fill="#f0f03f"/></g>"     "     "     <path d="M328 349h30v5h-30zm31 0h30v5h-30z" fill="#f0f040" stroke="#787820"/>"     "     <path d="M390 349h30v5h-30z" fill="#f0f041" stroke="#787820"/>"     <path d="M421 349h30v5h-30zm-302 18h3v16h-3z" fill="#f0f042" stroke="#787821"/>"     "     <path d="M494 437h3v27h-3z" fill="#f0f043" stroke="#787821"/>"     <path d="M119 384h3v26h-3zm79-323h27v3h-27z" fill="#f0f044" stroke="#787822"/>"     "     <path d="M226 61h27v3h-27zm38 263h28v4h-28z" stroke="#787822" fill="#f0f045"/>"     "     <g stroke="#787823"><path d="M452 349h29v5h-29z" fill="#f0f046"/><path d="M12 354h3v17h-3zm203 28h3v25h-3z" fill="#f0f047"/></g>"     "     "     <g stroke="#787824"><path d="M12 372h3v14h-3z" fill="#f0f048"/><path d="M12 387h3v13h-3zm0 14h3v13h-3z" fill="#f0f049"/></g>"     "     "     <path d="M12 415h3v20h-3zM254 61h26v3h-26z" fill="#f0f04a" stroke="#787825"/>"     "     <path d="M281 61h26v3h-26z" fill="#f0f04b" stroke="#787825"/>"     <path d="M293 324h27v4h-27zm189 25h28v5h-28z" fill="#f0f04c" stroke="#787826"/>"     "     <path d="M499 361h29v6h-29z" fill="#f0f04d" stroke="#787826"/>"     <path d="M529 361h29v6h-29zm82 14h30v7h-30z" fill="#f0f04e" stroke="#787827"/>"     "     <path d="M642 375h30v7h-30zm31 0h30v7h-30z" stroke="#787827" fill="#f0f04f"/>"     "     <g stroke="#787828"><path d="M704 375h30v7h-30z" fill="#f0f050"/><path d="M572 427h3v19h-3zM321 324h26v4h-26z" fill="#f0f051"/></g>"     "     "     <path d="M348 324h26v4h-26zm163 25h27v5h-27z" fill="#f0f052" stroke="#787829"/>"     "     <path d="M539 349h27v5h-27z" fill="#f0f053" stroke="#787829"/>"     <path d="M567 349h27v5h-27zm168 26h29v7h-29z" fill="#f0f054" stroke="#78782a"/>"     "     <path d="M765 375h29v7h-29z" fill="#f0f055" stroke="#78782a"/>"     <path d="M795 375h29v7h-29zm-113 16h30v8h-30z" fill="#f0f056" stroke="#78782b"/>"     "     <path d="M603 448h3v19h-3zM308 61h24v3h-24z" stroke="#78782b" fill="#f0f057"/>"     "     <g stroke="#78782c"><path d="M375 324h25v4h-25z" fill="#f0f058"/><path d="M401 324h25v4h-25zm158 37h27v6h-27z" fill="#f0f059"/></g>"     "     "     <g stroke="#78782d"><path d="M587 361h27v6h-27z" fill="#f0f05a"/><path d="M123 367h3v21h-3zm4 0h20v21h-20z" fill="#f0f05b"/></g>"     "     "     <path d="M123 389h3v12h-3zm4 0h20v12h-20z" fill="#f0f05c" stroke="#78782e"/>"     "     <path d="M123 402h3v15h-3z" fill="#f0f05d" stroke="#78782e"/>"     <path d="M127 402h20v15h-20zm-4 16h3v23h-3z" fill="#f0f05e" stroke="#78782f"/>"     "     <path d="M825 375h28v7h-28z" fill="#f0f05f" stroke="#78782f"/>"     <path d="M854 375h28v7h-28zm29 0h28v7h-28z" fill="#f0f060" stroke="#787830"/>"     "     <path d="M713 391h29v8h-29zm30 0h29v8h-29z" stroke="#787830" fill="#f0f061"/>"     "     <g stroke="#787831"><path d="M498 437h3v14h-3z" fill="#f0f062"/><path d="M243 480h30v11h-30zm0 12h30v20h-30z" fill="#f0f063"/></g>"     "     "     <path d="M274 480h22v11h-22zm0 12h22v20h-22z" fill="#f0f064" stroke="#787832"/>"     "     <path d="M297 480h14v11h-14z" fill="#f0f065" stroke="#787832"/>"     <path d="M297 492h14v20h-14zm15-12h20v11h-20z" fill="#f0f066" stroke="#787833"/>"     "     <path d="M312 492h20v20h-20z" fill="#f0f067" stroke="#787833"/>"     <path d="M427 324h24v4h-24zm168 25h25v5h-25z" fill="#f0f068" stroke="#787834"/>"     "     <path d="M16 354h3v12h-3zm4 0h19v12H20z" stroke="#787834" fill="#f0f069"/>"     "     <g stroke="#787835"><path d="M16 367h3v13h-3z" fill="#f0f06a"/><path d="M20 367h19v13H20zm-4 14h3v18h-3z" fill="#f0f06b"/></g>"     "     "     <g stroke="#787836"><path d="M20 381h21v18H20z" fill="#f0f06c"/><path d="M16 400h4v13h-4zm5 0h20v13H21z" fill="#f0f06d"/></g>"     "     "     <path d="M16 414h4v22h-4zm599-53h26v6h-26z" fill="#f0f06e" stroke="#787837"/>"     "     <path d="M912 375h27v7h-27z" fill="#f0f06f" stroke="#787837"/>"     <path d="M940 375h27v7h-27zm28 0h27v7h-27z" fill="#f0f070" stroke="#787838"/>"     "     <path d="M773 391h28v8h-28z" fill="#f0f071" stroke="#787838"/>"     <path d="M911 438h30v10h-30zm31 0h30v10h-30z" fill="#f0f072" stroke="#787839"/>"     "     <path d="M333 480h14v12h-14zm0 13h14v19h-14z" stroke="#787839" fill="#f0f073"/>"     "     <g stroke="#78783a"><path d="M348 480h7v12h-7z" fill="#f0f074"/><path d="M348 493h7v19h-7zm8-13h22v12h-22z" fill="#f0f075"/></g>"     "     "     <path d="M379 480h22v12h-22zm73-156h23v4h-23z" fill="#f0f076" stroke="#78783b"/>"     "     <path d="M621 349h24v5h-24z" fill="#f0f077" stroke="#78783b"/>"     <path d="M646 349h24v5h-24zm350 26h26v7h-26z" fill="#f0f078" stroke="#78783c"/>"     "     <path d="M219 382h4v12h-4z" fill="#f0f079" stroke="#78783c"/>"     <path d="M224 382h18v12h-18zm-5 13h4v18h-4z" fill="#f0f07a" stroke="#78783d"/>"     "     <path d="M224 395h18v18h-18zm-5 19h4v17h-4z" stroke="#78783d" fill="#f0f07b"/>"     "     <g stroke="#78783e"><path d="M224 414h18v17h-18z" fill="#f0f07c"/><path d="M219 432h4v12h-4zm5 0h18v12h-18z" fill="#f0f07d"/></g>"     "     "     <g stroke="#78783f"><path d="M219 445h4v17h-4z" fill="#f0f07e"/><path d="M667 383h26v7h-26zm27 0h26v7h-26z" fill="#f0f07f"/></g>"     "     "     <path d="M721 383h26v7h-26zm81 8h27v8h-27z" fill="#f0f080" stroke="#787840"/>"     "     <path d="M830 391h27v8h-27z" fill="#f0f081" stroke="#787840"/>"     <path d="M973 438h29v10h-29zm30 0h21v10h-21z" fill="#f0f082" stroke="#787841"/>"     "     <path d="M398 446h29v10h-29z" fill="#f0f083" stroke="#787841"/>"     <path d="M402 481h17v12h-17zm0 13h17v18h-17z" fill="#f0f084" stroke="#787842"/>"     "     <path d="M420 481h25v12h-25zm0 13h25v18h-25z" stroke="#787842" fill="#f0f085"/>"     "     <g stroke="#787843"><path d="M446 481h23v12h-23z" fill="#f0f086"/><path d="M671 349h23v5h-23zm24 0h23v5h-23z" fill="#f0f087"/></g>"     "     "     <path d="M719 349h23v5h-23zm24 0h23v5h-23z" fill="#f0f088" stroke="#787844"/>"     "     <path d="M767 349h23v5h-23z" fill="#f0f089" stroke="#787844"/>"     <path d="M791 349h23v5h-23zm-43 34h25v7h-25z" fill="#f0f08a" stroke="#787845"/>"     "     <path d="M774 383h25v7h-25z" fill="#f0f08b" stroke="#787845"/>"     <path d="M858 391h26v8h-26zm27 0h26v8h-26z" fill="#f0f08c" stroke="#787846"/>"     "     <path d="M779 418h27v9h-27zm28 0h27v9h-27z" stroke="#787846" fill="#f0f08d"/>"     "     <g stroke="#787847"><path d="M576 427h4v18h-4z" fill="#f0f08e"/><path d="M428 446h28v10h-28zm29 0h28v10h-28z" fill="#f0f08f"/></g>"     "     "     <g stroke="#787848"><path d="M905 449h28v10h-28z" fill="#f0f090"/><path d="M934 449h28v10h-28zm-508 8h29v11h-29z" fill="#f0f091"/></g>"     "     "     <path d="M456 457h29v11h-29zm505 3h29v11h-29z" fill="#f0f092" stroke="#787849"/>"     "     <path d="M991 460h29v11h-29z" fill="#f0f093" stroke="#787849"/>"     <path d="M815 349h22v5h-22zm23 0h22v5h-22z" fill="#f0f094" stroke="#78784a"/>"     "     <path d="M861 349h22v5h-22z" fill="#f0f095" stroke="#78784a"/>"     <path d="M642 361h23v6h-23zm24 0h23v6h-23z" fill="#f0f096" stroke="#78784b"/>"     "     <path d="M800 383h24v7h-24zm25 0h24v7h-24z" stroke="#78784b" fill="#f0f097"/>"     "     <g stroke="#78784c"><path d="M912 391h25v8h-25z" fill="#f0f098"/><path d="M938 391h25v8h-25zm-103 27h26v9h-26z" fill="#f0f099"/></g>"     "     "     <path d="M862 418h26v9h-26zm27 0h26v9h-26z" fill="#f0f09a" stroke="#78784d"/>"     "     <path d="M916 418h26v9h-26z" fill="#f0f09b" stroke="#78784d"/>"     <path d="M607 448h4v14h-4zm277-99h21v5h-21z" fill="#f0f09c" stroke="#78784e"/>"     "     <path d="M690 361h22v6h-22z" fill="#f0f09d" stroke="#78784e"/>"     <path d="M127 418h4v17h-4zm5 0h15v17h-15z" fill="#f0f09e" stroke="#78784f"/>"     "     <path d="M850 383h23v7h-23zm114 8h24v8h-24z" stroke="#78784f" fill="#f0f09f"/>"     "     <g stroke="#787850"><path d="M943 418h25v9h-25z" fill="#f0f0a0"/><path d="M963 449h26v10h-26zm7 35h28v12h-28z" fill="#f0f0a1"/></g>"     "     "     <g stroke="#787851"><path d="M999 484h25v12h-25z" fill="#f0f0a2"/><path d="M906 349h20v5h-20zm21 0h20v5h-20z" fill="#f0f0a3"/></g>"     "     "     <path d="M713 361h21v6h-21zm22 0h21v6h-21z" fill="#f0f0a4" stroke="#787852"/>"     "     <path d="M127 436h5v15h-5z" fill="#f0f0a5" stroke="#787852"/>"     <path d="M133 436h14v15h-14zm-6 16h5v19h-5z" fill="#f0f0a6" stroke="#787853"/>"     "     <path d="M133 452h14v30h-14z" fill="#f0f0a7" stroke="#787853"/>"     <path d="M133 483h14v29h-14zm741-100h22v7h-22z" fill="#f0f0a8" stroke="#787854"/>"     "     <path d="M897 383h22v7h-22zm92 8h23v8h-23z" stroke="#787854" fill="#f0f0a9"/>"     "     <g stroke="#787855"><path d="M272 399h23v8h-23z" fill="#f0f0aa"/><path d="M21 414h5v19h-5zm948 4h24v9h-24z" fill="#f0f0ab"/></g>"     "     "     <path d="M994 418h24v9h-24zm-714 8h24v9h-24z" fill="#f0f0ac" stroke="#787856"/>"     "     <path d="M502 437h5v14h-5z" fill="#f0f0ad" stroke="#787856"/>"     <path d="M508 437h14v14h-14zm-10 15h5v14h-5z" fill="#f0f0ae" stroke="#787857"/>"     "     <path d="M21 434h5v12h-5z" fill="#f0f0af" stroke="#787857"/>"     <path d="M27 414h14v30H27zm-6 33h5v13h-5z" fill="#f0f0b0" stroke="#787858"/>"     "     <path d="M27 445h14v15H27zm-6 16h5v15h-5z" stroke="#787858" fill="#f0f0b1"/>"     "     <g stroke="#787859"><path d="M27 461h13v30H27z" fill="#f0f0b2"/><path d="M27 492h14v20H27zm943 5h30v15h-30z" fill="#f0f0b3"/></g>"     "     "     <g stroke="#78785a"><path d="M1001 497h23v15h-23z" fill="#f0f0b4"/><path d="M757 361h20v6h-20zm163 22h21v7h-21z" fill="#f0f0b5"/></g>"     "     "     <path d="M942 383h21v7h-21zm-637 43h23v9h-23z" fill="#f0f0b6" stroke="#78785b"/>"     "     <path d="M329 426h23v9h-23z" fill="#f0f0b7" stroke="#78785b"/>"     <path d="M612 448h14v30h-14zm378 1h24v10h-24z" fill="#f0f0b8" stroke="#78785c"/>"     "     <path d="M335 468h25v11h-25z" fill="#f0f0b9" stroke="#78785c"/>"     <path d="M612 479h13v30h-13zm336-130h18v5h-18z" fill="#f0f0ba" stroke="#78785d"/>"     "     <path d="M504 452h5v16h-5zm6 0h12v16h-12z" stroke="#78785d" fill="#f0f0bb"/>"     "     <g stroke="#78785e"><path d="M504 469h5v16h-5z" fill="#f0f0bc"/><path d="M510 469h12v30h-12zm0 31h12v12h-12z" fill="#f0f0bd"/></g>"     "     "     <path d="M778 361h19v6h-19zm20 0h19v6h-19z" fill="#f0f0be" stroke="#78785f"/>"     "     <path d="M224 445h5v15h-5z" fill="#f0f0bf" stroke="#78785f"/>"     <path d="M230 445h12v15h-12zm-6 16h5v15h-5z" fill="#f0f0c0" stroke="#787860"/>"     "     <path d="M230 461h12v15h-12z" fill="#f0f0c1" stroke="#787860"/>"     <path d="M224 477h5v13h-5zm6 0h12v29h-12z" fill="#f0f0c2" stroke="#787861"/>"     "     <path d="M296 399h21v8h-21zm22 0h21v8h-21z" stroke="#787861" fill="#f0f0c3"/>"     "     <g stroke="#787862"><path d="M340 399h21v8h-21z" fill="#f0f0c4"/><path d="M362 399h21v8h-21zm22 0h21v8h-21z" fill="#f0f0c5"/></g>"     "     "     <g stroke="#787863"><path d="M581 427h17v30h-17z" fill="#f0f0c6"/><path d="M581 458h17v30h-17zm-220 10h24v11h-24z" fill="#f0f0c7"/></g>"     "     "     <path d="M386 468h15v11h-15zm59 1h24v10h-24z" fill="#f0f0c8" stroke="#787864"/>"     "     <path d="M470 469h19v24h-19z" fill="#f0f0c9" stroke="#787864"/>"     <path d="M996 472h24v10h-24zM818 361h18v6h-18z" fill="#f0f0ca" stroke="#787865"/>"     "     <path d="M837 361h18v6h-18z" fill="#f0f0cb" stroke="#787865"/>"     <path d="M856 361h18v6h-18zm-450 38h20v8h-20z" fill="#f0f0cc" stroke="#787866"/>"     "     <path d="M427 399h20v8h-20zm-74 27h21v9h-21z" stroke="#787866" fill="#f0f0cd"/>"     "     <g stroke="#787867"><path d="M446 494h30v18h-30z" fill="#f0f0ce"/><path d="M477 494h12v18h-12zm487-111h18v7h-18z" fill="#f0f0cf"/></g>"     "     "     <path d="M983 383h18v7h-18zm19 0h18v7h-18z" fill="#f0f0d0" stroke="#787868"/>"     "     <path d="M448 399h19v8h-19z" fill="#f0f0d1" stroke="#787868"/>"     <path d="M375 426h20v9h-20zm21 0h20v9h-20z" fill="#f0f0d2" stroke="#787869"/>"     "     <path d="M417 426h20v9h-20z" fill="#f0f0d3" stroke="#787869"/>"     <path d="M581 489h6v12h-6zm7 0h10v23h-10z" fill="#f0f0d4" stroke="#78786a"/>"     "     <path d="M356 493h30v16h-30zm112-94h18v7h-18z" stroke="#78786a" fill="#f0f0d5"/>"     "     <g stroke="#78786b"><path d="M862 400h18v8h-18z" fill="#f0f0d6"/><path d="M881 400h18v8h-18zm-6-39h15v6h-15z" fill="#f0f0d7"/></g>"     "     "     <g stroke="#78786c"><path d="M900 400h17v7h-17z" fill="#f0f0d8"/><path d="M918 400h17v8h-17zm18 0h17v8h-17z" fill="#f0f0d9"/></g>"     "     "     <path d="M954 400h17v8h-17zm18 0h17v8h-17z" fill="#f0f0da" stroke="#78786d"/>"     "     <path d="M990 400h17v8h-17z" fill="#f0f0db" stroke="#78786d"/>"     <path d="M438 426h18v9h-18zm453-65h14v6h-14z" fill="#f0f0dc" stroke="#78786e"/>"     "     <path d="M906 361h14v6h-14z" fill="#f0f0dd" stroke="#78786e"/>"     <path d="M921 361h14v6h-14zm87 39h16v7h-16z" fill="#f0f0de" stroke="#78786f"/>"     "     <path d="M307 408h16v7h-16zm150 18h17v9h-17z" stroke="#78786f" fill="#f0f0df"/>"     "     <g stroke="#787870"><path d="M475 426h14v9h-14z" fill="#f0f0e0"/><path d="M852 428h17v9h-17zm18 0h17v9h-17z" fill="#f0f0e1"/></g>"     "     "     <path d="M936 361h13v6h-13zm14 0h13v6h-13z" fill="#f0f0e2" stroke="#787871"/>"     "     <path d="M324 408h15v7h-15z" fill="#f0f0e3" stroke="#787871"/>"     <path d="M340 408h15v8h-15zm548 20h16v9h-16z" fill="#f0f0e4" stroke="#787872"/>"     "     <path d="M905 428h16v9h-16z" fill="#f0f0e5" stroke="#787872"/>"     <path d="M387 493h7v12h-7zm-31-85h14v7h-14z" fill="#f0f0e6" stroke="#787873"/>"     "     <path d="M371 408h14v7h-14zm551 20h15v9h-15z" stroke="#787873" fill="#f0f0e7"/>"     "     <g stroke="#787874"><path d="M938 428h15v9h-15z" fill="#f0f0e8"/><path d="M954 428h15v9h-15zm16 0h15v9h-15z" fill="#f0f0e9"/></g>"     "     "     <g stroke="#787875"><path d="M986 428h15v9h-15z" fill="#f0f0ea"/><path d="M386 408h13v8h-13zm14 0h13v7h-13z" fill="#f0f0eb"/></g>"     "     "     <path d="M414 408h12v8h-12zm13 0h12v8h-12z" fill="#f0f0ec" stroke="#787876"/>"     "     <path d="M440 408h12v7h-12z" fill="#f0f0ed" stroke="#787876"/>"     <path d="M1002 428h13v9h-13zm-643 8h13v9h-13z" fill="#f0f0ee" stroke="#787877"/>"     "     <path d="M373 436h13v9h-13z" fill="#f0f0ef" stroke="#787877"/>"     <text y="526" font-size="12" fill="#000" x="0"> MaxRectsBin(size: 1024x512, choice: WorstShortSideFit, method: MinimizeArea): inserted 928 of 1536 rectangles with w/h lengths between [2, 31], occupancy: 26.61% </text></svg>