<svg xmlns="http://www.w3.org/2000/svg" viewBox="0 0 1024 536" xmlns:v="https://vecta.io/nano"><path d="M0 0h1024v512H0z" fill="#fff" stroke="#000"/>"     <path d="M1 1h22v1H1zm23 0h15v1H24z" fill="#303030" stroke="#181818"/>"     "     <path d="M40 1h5v1h-5zm6 0h27v1H46z" stroke="#181818" fill="#303130"/>"     "     <path d="M74 1h13v1H74zm14 0h12v1H88z" fill="#303230" stroke="#181918"/>"     "     <path d="M101 1h19v1h-19zm20 0h10v1h-10z" stroke="#181918" fill="#303330"/>"     "     <path d="M132 1h28v1h-28zm29 0h23v1h-23z" fill="#303430" stroke="#181a18"/>"     "     <path d="M185 1h27v1h-27zm28 0h20v1h-20z" stroke="#181a18" fill="#303530"/>"     "     <g stroke="#181b18"><path d="M234 1h22v1h-22z" fill="#303630"/><path d="M257 1h11v1h-11zm12 0h6v1h-6z" fill="#303730"/></g>"     "     "     <path d="M276 1h12v1h-12zm13 0h5v1h-5z" fill="#303830" stroke="#181c18"/>"     "     <path d="M295 1h6v1h-6zm7 0h18v1h-18z" stroke="#181c18" fill="#303930"/>"     "     <path d="M321 1h23v1h-23zm24 0h14v1h-14z" fill="#303a30" stroke="#181d18"/>"     "     <path d="M360 1h28v1h-28zm29 0h3v1h-3z" stroke="#181d18" fill="#303b30"/>"     "     <g stroke="#181e18"><path d="M393 1h19v1h-19z" fill="#303c30"/><path d="M413 1h21v1h-21zm22 0h5v1h-5z" fill="#303d30"/></g>"     "     "     <path d="M441 1h2v1h-2zm3 0h12v1h-12z" fill="#303e30" stroke="#181f18"/>"     "     <path d="M457 1h23v1h-23zm24 0h2v1h-2z" stroke="#181f18" fill="#303f30"/>"     "     <path d="M484 1h27v1h-27zm28 0h1v1h-1z" fill="#304030" stroke="#182018"/>"     "     <path d="M514 1h1v2h-1zM1 3h3v1H1z" stroke="#182018" fill="#304130"/>"     "     <g stroke="#182118"><path d="M514 4h2v1h-2z" fill="#304230"/><path d="M5 3h2v2H5zm512 1h1v3h-1z" fill="#304330"/></g>"     "     "     <path d="M5 6h5v1H5zm6 0h1v3h-1z" fill="#304430" stroke="#182218"/>"     "     <path d="M517 8h4v1h-4zm5 0h1v3h-1z" stroke="#182218" fill="#304530"/>"     "     <path d="M11 10h7v1h-7zm8 0h2v2h-2z" fill="#304630" stroke="#182318"/>"     "     <path d="M522 12h3v2h-3zM19 13h5v2h-5z" stroke="#182318" fill="#304730"/>"     "     <g stroke="#182418"><path d="M526 12h1v4h-1z" fill="#304830"/><path d="M25 13h1v4h-1zm501 4h5v2h-5z" fill="#304930"/></g>"     "     "     <path d="M25 18h3v2h-3zm507-1h1v4h-1z" fill="#304a30" stroke="#182518"/>"     "     <path d="M29 18h2v3h-2zm503 4h5v3h-5z" stroke="#182518" fill="#304b30"/>"     "     <path d="M29 22h4v3h-4zm5 0h2v5h-2z" fill="#304c30" stroke="#182618"/>"     "     <path d="M538 22h2v6h-2zM34 28h5v2h-5z" stroke="#182618" fill="#304d30"/>"     "     <g stroke="#182718"><path d="M538 29h6v3h-6z" fill="#304e30"/><path d="M40 28h2v5h-2zm505 1h2v5h-2z" fill="#304f30"/></g>"     "     "     <path d="M40 34h6v3h-6zm505 1h6v2h-6z" fill="#305030" stroke="#182818"/>"     "     <path d="M47 34h2v6h-2zm505 1h1v6h-1z" stroke="#182818" fill="#305130"/>"     "     <path d="M47 41h6v3h-6zm505 1h3v4h-3z" fill="#305230" stroke="#182918"/>"     "     <path d="M556 42h3v5h-3zM54 41h1v7h-1z" stroke="#182918" fill="#305330"/>"     "     <g stroke="#182a18"><path d="M556 48h6v2h-6z" fill="#305430"/><path d="M54 49h6v2h-6zm509-1h3v6h-3z" fill="#305530"/></g>"     "     "     <path d="M61 49h3v6h-3zm502 6h7v3h-7z" fill="#305630" stroke="#182b18"/>"     "     <path d="M61 56h6v3h-6zm510-1h3v7h-3z" stroke="#182b18" fill="#305730"/>"     "     <path d="M68 56h4v5h-4zm503 7h7v2h-7z" fill="#305830" stroke="#182c18"/>"     "     <path d="M68 62h5v4h-5zm6 0h4v5h-4z" stroke="#182c18" fill="#305930"/>"     "     <g stroke="#182d18"><path d="M579 63h2v7h-2z" fill="#305a30"/><path d="M74 68h7v4h-7zm505 3h7v3h-7z" fill="#305b30"/></g>"     "     "     <path d="M82 68h1v7h-1zm505 3h2v7h-2z" fill="#305c30" stroke="#182e18"/>"     "     <path d="M82 76h5v4h-5zm6 0h4v7h-4z" stroke="#182e18" fill="#305d30"/>"     "     <path d="M587 79h8v4h-8zm9 0h1v7h-1z" fill="#305e30" stroke="#182f18"/>"     "     <path d="M88 84h8v2h-8zm508 3h6v4h-6z" stroke="#182f18" fill="#305f30"/>"     "     <g stroke="#183018"><path d="M97 84h3v8h-3z" fill="#306030"/><path d="M603 87h2v8h-2zM97 93h8v3h-8z" fill="#306130"/></g>"     "     "     <path d="M603 96h9v3h-9zm-497-3h1v8h-1z" fill="#306230" stroke="#183118"/>"     "     <path d="M613 96h3v8h-3zm-507 6h9v2h-9z" stroke="#183118" fill="#306330"/>"     "     <path d="M613 105h7v4h-7zm-497-3h3v8h-3z" fill="#306430" stroke="#183218"/>"     "     <path d="M621 105h4v5h-4zm-505 6h7v5h-7z" stroke="#183218" fill="#306530"/>"     "     <g stroke="#183318"><path d="M621 111h5v5h-5z" fill="#306630"/><path d="M124 111h4v8h-4zm503 0h4v7h-4z" fill="#306730"/></g>"     "     "     <path d="M124 120h9v4h-9zm503-1h8v5h-8z" fill="#306830" stroke="#183418"/>"     "     <path d="M636 119h4v9h-4zm-502 1h4v9h-4z" stroke="#183418" fill="#306930"/>"     "     <path d="M636 129h9v2h-9zm-502 1h9v4h-9z" fill="#306a30" stroke="#183518"/>"     "     <path d="M646 129h4v9h-4zm-502 1h3v9h-3z" stroke="#183518" fill="#306b30"/>"     "     <g stroke="#183618"><path d="M646 139h9v2h-9z" fill="#306c30"/><path d="M144 140h9v3h-9zm512-1h2v9h-2z" fill="#306d30"/></g>"     "     "     <path d="M154 140h3v10h-3zm502 9h10v4h-10z" fill="#306e30" stroke="#183718"/>"     "     <path d="M154 151h10v2h-10zm513-2h3v10h-3z" stroke="#183718" fill="#306f30"/>"     "     <path d="M165 151h3v10h-3zm502 9h10v5h-10z" fill="#307030" stroke="#183818"/>"     "     <path d="M165 162h10v1h-10zm513-2h3v10h-3z" stroke="#183818" fill="#307130"/>"     "     <g stroke="#183918"><path d="M176 162h5v7h-5z" fill="#307230"/><path d="M176 170h8v5h-8zm502 1h9v5h-9z" fill="#307330"/></g>"     "     "     <path d="M185 170h2v10h-2zm503 1h5v6h-5z" fill="#307430" stroke="#183a18"/>"     "     <path d="M688 178h7v5h-7zm-503 3h5v5h-5z" stroke="#183a18" fill="#307530"/>"     "     <path d="M191 181h5v6h-5zm505-3h3v10h-3z" fill="#307630" stroke="#183b18"/>"     "     <path d="M191 188h11v3h-11zm505 1h11v6h-11z" stroke="#183b18" fill="#307730"/>"     "     <g stroke="#183c18"><path d="M203 188h3v11h-3z" fill="#307830"/><path d="M708 189h4v11h-4zm-505 11h11v4h-11z" fill="#307930"/></g>"     "     "     <path d="M708 201h11v6h-11zm-493-1h5v11h-5z" fill="#307a30" stroke="#183d18"/>"     "     <path d="M720 201h2v11h-2zm-505 11h11v4h-11z" stroke="#183d18" fill="#307b30"/>"     "     <path d="M720 213h11v2h-11zm-493-1h5v7h-5z" fill="#307c30" stroke="#183e18"/>"     "     <path d="M732 213h1v11h-1zm-505 7h6v6h-6z" stroke="#183e18" fill="#307d30"/>"     "     <g stroke="#183f18"><path d="M234 220h5v8h-5z" fill="#307e30"/><path d="M732 225h11v5h-11zm-498 4h10v6h-10z" fill="#307f30"/></g>"     "     "     <path d="M744 225h3v11h-3zm-499 4h1v12h-1z" fill="#308030" stroke="#184018"/>"     "     <path d="M744 237h11v3h-11zm-499 5h11v1h-11z" stroke="#184018" fill="#308130"/>"     "     <path d="M756 237h2v12h-2zm-499 5h5v7h-5z" fill="#308230" stroke="#184118"/>"     "     <path d="M756 250h11v5h-11zm-499 0h7v6h-7z" stroke="#184118" fill="#308330"/>"     "     <g stroke="#184218"><path d="M768 250h6v8h-6z" fill="#308430"/><path d="M265 250h6v9h-6zm503 9h10v7h-10z" fill="#308530"/></g>"     "     "     <path d="M265 260h6v7h-6zm7-10h1v13h-1z" fill="#308630" stroke="#184318"/>"     "     <path d="M779 259h1v12h-1zm-507 5h7v7h-7z" stroke="#184318" fill="#308730"/>"     "     <path d="M280 264h4v12h-4zm499 8h11v6h-11z" fill="#308830" stroke="#184418"/>"     "     <path d="M280 277h12v2h-12zm511-5h4v12h-4z" stroke="#184418" fill="#308930"/>"     "     <g stroke="#184518"><path d="M293 277h3v12h-3z" fill="#308a30"/><path d="M791 285h12v2h-12zm-498 5h12v5h-12z" fill="#308b30"/></g>"     "     "     <path d="M804 285h1v12h-1zm-498 5h3v12h-3z" fill="#308c30" stroke="#184618"/>"     "     <path d="M804 298h12v5h-12zm-498 5h12v1h-12z" stroke="#184618" fill="#308d30"/>"     "     <path d="M817 298h5v12h-5zm-498 5h3v13h-3z" fill="#308e30" stroke="#184718"/>"     "     <path d="M817 311h12v1h-12zm-498 6h12v3h-12z" stroke="#184718" fill="#308f30"/>"     "     <path d="M830 311h6v10h-6zm-498 6h6v10h-6z" fill="#309030" stroke="#184818"/>"     "     <path d="M830 322h9v7h-9z" fill="#309130" stroke="#184818"/>"     <path d="M840 322h6v7h-6zm-10 8h12v1h-12z" fill="#309230" stroke="#184918"/>"     "     <path d="M332 328h11v6h-11zm511 2h6v7h-6z" stroke="#184918" fill="#309330"/>"     "     <path d="M344 328h6v13h-6zm499 10h12v3h-12z" fill="#309430" stroke="#184a18"/>"     "     <path d="M344 342h13v2h-13zm512-4h6v10h-6z" stroke="#184a18" fill="#309530"/>"     "     <path d="M358 342h5v13h-5zm498 7h12v7h-12z" fill="#309630" stroke="#184b18"/>"     "     <path d="M869 349h3v13h-3z" fill="#309730" stroke="#184b18"/>"     <path d="M358 356h13v2h-13zm14 0h2v13h-2z" fill="#309830" stroke="#184c18"/>"     "     <path d="M869 363h13v4h-13zm14 0h3v13h-3z" stroke="#184c18" fill="#309930"/>"     "     <path d="M372 370h13v6h-13zm14 0h2v13h-2z" fill="#309a30" stroke="#184d18"/>"     "     <path d="M883 377h13v2h-13zm14 0h3v13h-3z" stroke="#184d18" fill="#309b30"/>"     "     <path d="M386 384h13v3h-13zm14 0h6v13h-6z" fill="#309c30" stroke="#184e18"/>"     "     <path d="M897 391h8v7h-8z" fill="#309d30" stroke="#184e18"/>"     <path d="M906 391h6v8h-6zm-506 7h13v4h-13z" fill="#309e30" stroke="#184f18"/>"     "     <path d="M906 400h12v7h-12zm-492-2h4v13h-4z" stroke="#184f18" fill="#309f30"/>"     "     <path d="M919 400h1v13h-1zm-505 12h13v3h-13z" fill="#30a030" stroke="#185018"/>"     "     <path d="M919 414h13v3h-13zm-491-2h6v12h-6z" stroke="#185018" fill="#30a130"/>"     "     <path d="M933 414h5v13h-5zm-505 11h13v4h-13z" fill="#30a230" stroke="#185118"/>"     "     <path d="M933 428h13v6h-13z" fill="#30a330" stroke="#185118"/>"     <path d="M442 425h2v14h-2zm505 3h7v12h-7z" fill="#30a430" stroke="#185218"/>"     "     <path d="M442 440h14v5h-14zm505 1h8v7h-8z" stroke="#185218" fill="#30a530"/>"     "     <path d="M956 441h7v10h-7zm-499-1h6v14h-6z" fill="#30a630" stroke="#185318"/>"     "     <path d="M956 452h14v3h-14zm-499 3h14v7h-14z" stroke="#185318" fill="#30a730"/>"     "     <path d="M971 452h1v14h-1zm-499 3h1v14h-1z" fill="#30a830" stroke="#185418"/>"     "     <path d="M971 467h14v2h-14z" fill="#30a930" stroke="#185418"/>"     <path d="M472 470h14v4h-14zm514-3h7v9h-7z" fill="#30aa30" stroke="#185518"/>"     "     <path d="M994 467h30v9h-30zM516 1h30v2h-30z" stroke="#185518" fill="#30ab30"/>"     "     <path d="M547 1h30v1h-30zm-60 469h6v14h-6z" fill="#30ac30" stroke="#185618"/>"     "     <path d="M494 470h27v14h-27zM519 4h30v3h-30z" stroke="#185618" fill="#30ad30"/>"     "     <path d="M550 4h30v3h-30zm31 0h30v3h-30z" fill="#30ae30" stroke="#185718"/>"     "     <path d="M1 5h2v30H1z" fill="#30af30" stroke="#185718"/>"     <path d="M522 15h1v30h-1zM25 21h3v30h-3z" fill="#30b030" stroke="#185818"/>"     "     <path d="M25 52h2v30h-2zm527-5h2v30h-2z" stroke="#185818" fill="#30b130"/>"     "     <path d="M986 477h11v8h-11zm0 9h11v26h-11z" fill="#30b230" stroke="#185918"/>"     "     <path d="M1 36h3v30H1zm0 31h3v30H1z" stroke="#185918" fill="#30b330"/>"     "     <path d="M1 98h3v30H1zM578 1h28v2h-28z" fill="#30b430" stroke="#185a18"/>"     "     <path d="M607 1h28v2h-28z" fill="#30b530" stroke="#185a18"/>"     <path d="M612 4h29v3h-29zm30 0h29v3h-29z" fill="#30b630" stroke="#185b18"/>"     "     <path d="M528 12h30v4h-30zm-4 3h1v27h-1z" stroke="#185b18" fill="#30b730"/>"     "     <path d="M29 26h4v30h-4zm0 31h4v30h-4z" fill="#30b830" stroke="#185c18"/>"     "     <path d="M1 129h3v29H1zm0 30h3v29H1z" stroke="#185c18" fill="#30b930"/>"     "     <path d="M1 189h2v29H1zM636 1h27v1h-27z" fill="#30ba30" stroke="#185d18"/>"     "     <path d="M664 1h27v2h-27z" fill="#30bb30" stroke="#185d18"/>"     <path d="M672 4h28v3h-28zm29 0h28v3h-28z" fill="#30bc30" stroke="#185e18"/>"     "     <path d="M730 4h28v3h-28zM5 8h5v30H5z" stroke="#185e18" fill="#30bd30"/>"     "     <path d="M559 12h29v4h-29zM37 22h30v5H37z" fill="#30be30" stroke="#185f18"/>"     "     <path d="M68 22h30v5H68zm31 0h30v5H99z" stroke="#185f18" fill="#30bf30"/>"     "     <path d="M130 22h30v5h-30zM29 88h4v29h-4z" fill="#30c030" stroke="#186018"/>"     "     <path d="M29 118h4v29h-4z" fill="#30c130" stroke="#186018"/>"     <path d="M522 46h3v28h-3zm0 29h2v28h-2z" fill="#30c230" stroke="#186118"/>"     "     <path d="M25 83h3v28h-3zm0 29h2v28h-2z" stroke="#186118" fill="#30c330"/>"     "     <path d="M692 1h26v1h-26zm27 0h26v1h-26z" fill="#30c430" stroke="#186218"/>"     "     <path d="M746 1h26v1h-26zm13 3h27v3h-27z" stroke="#186218" fill="#30c530"/>"     "     <path d="M787 4h27v3h-27zm28 0h27v3h-27z" fill="#30c630" stroke="#186318"/>"     "     <path d="M843 4h27v3h-27z" fill="#30c730" stroke="#186318"/>"     <path d="M5 39h5v29H5zm0 30h5v29H5z" fill="#30c830" stroke="#186418"/>"     "     <path d="M5 99h5v29H5zm584-87h28v4h-28z" stroke="#186418" fill="#30c930"/>"     "     <path d="M618 12h28v4h-28zM161 22h29v5h-29z" fill="#30ca30" stroke="#186518"/>"     "     <path d="M538 33h6v30h-6zm0 31h6v30h-6z" stroke="#186518" fill="#30cb30"/>"     "     <path d="M538 95h6v30h-6zm14-17h2v27h-2z" fill="#30cc30" stroke="#186618"/>"     "     <path d="M552 106h3v27h-3z" fill="#30cd30" stroke="#186618"/>"     <path d="M552 134h3v27h-3zM773 1h25v2h-25z" fill="#30ce30" stroke="#186718"/>"     "     <path d="M871 4h26v3h-26zm27 0h26v3h-26z" stroke="#186718" fill="#30cf30"/>"     "     <path d="M925 4h26v3h-26zm27 0h26v3h-26z" fill="#30d030" stroke="#186818"/>"     "     <path d="M979 4h26v3h-26zm27 0h18v3h-18z" stroke="#186818" fill="#30d130"/>"     "     <path d="M5 129h5v28H5zm0 29h5v28H5z" fill="#30d230" stroke="#186918"/>"     "     <path d="M5 187h5v28H5z" fill="#30d330" stroke="#186918"/>"     <path d="M5 216h5v28H5zM647 12h27v4h-27z" fill="#30d430" stroke="#186a18"/>"     "     <path d="M11 12h7v30h-7zm530 10h29v6h-29z" stroke="#186a18" fill="#30d530"/>"     "     <path d="M571 22h29v6h-29zm-380 0h28v5h-28z" fill="#30d630" stroke="#186b18"/>"     "     <path d="M538 126h6v29h-6zM56 41h30v7H56z" stroke="#186b18" fill="#30d730"/>"     "     <path d="M87 41h30v7H87zm31 0h30v7h-30z" fill="#30d830" stroke="#186c18"/>"     "     <path d="M149 41h30v7h-30z" fill="#30d930" stroke="#186c18"/>"     <path d="M552 162h2v26h-2zM1 219h2v26H1z" fill="#30da30" stroke="#186d18"/>"     "     <path d="M799 1h24v2h-24zm25 0h24v1h-24z" stroke="#186d18" fill="#30db30"/>"     "     <path d="M849 1h24v2h-24zm25 0h24v2h-24z" fill="#30dc30" stroke="#186e18"/>"     "     <path d="M13 6h25v3H13zm26 0h25v3H39z" stroke="#186e18" fill="#30dd30"/>"     "     <path d="M675 12h26v4h-26zm27 0h26v4h-26z" fill="#30de30" stroke="#186f18"/>"     "     <path d="M11 43h7v29h-7z" fill="#30df30" stroke="#186f18"/>"     <path d="M11 73h7v29h-7zm209-51h27v5h-27z" fill="#30e030" stroke="#187018"/>"     "     <path d="M248 22h27v5h-27zm28 0h27v5h-27z" stroke="#187018" fill="#30e130"/>"     "     <path d="M29 148h4v26h-4zm0 27h4v26h-4z" fill="#30e230" stroke="#187118"/>"     "     <path d="M180 41h29v7h-29zm30 0h29v7h-29z" stroke="#187118" fill="#30e330"/>"     "     <path d="M240 41h29v7h-29zM101 84h30v8h-30z" fill="#30e430" stroke="#187218"/>"     "     <path d="M1 246h2v25H1z" fill="#30e530" stroke="#187218"/>"     <path d="M1 272h3v25H1zm0 26h3v25H1z" fill="#30e630" stroke="#187318"/>"     "     <path d="M1 324h3v25H1zM899 1h23v1h-23z" stroke="#187318" fill="#30e730"/>"     "     <path d="M923 1h23v1h-23zm24 0h23v2h-23z" fill="#30e830" stroke="#187418"/>"     "     <path d="M971 1h23v2h-23zm24 0h23v1h-23z" stroke="#187418" fill="#30e930"/>"     "     <path d="M8 3h23v2H8zm57 3h24v3H65z" fill="#30ea30" stroke="#187518"/>"     "     <path d="M90 6h24v3H90z" fill="#30eb30" stroke="#187518"/>"     <path d="M5 245h5v26H5zM729 12h25v4h-25z" fill="#30ec30" stroke="#187618"/>"     "     <path d="M755 12h25v4h-25zM11 103h7v28h-7z" stroke="#187618" fill="#30ed30"/>"     "     <path d="M11 132h7v28h-7zM601 22h27v6h-27z" fill="#30ee30" stroke="#187718"/>"     "     <path d="M629 22h27v6h-27zm-91 134h6v27h-6z" stroke="#187718" fill="#30ef30"/>"     "     <path d="M538 184h6v27h-6zm0 28h6v27h-6z" fill="#30f030" stroke="#187818"/>"     "     <path d="M270 41h28v7h-28zm29 0h28v7h-28z" stroke="#187818" fill="#31f030"/>"     "     <g stroke="#197818"><path d="M328 41h28v7h-28z" fill="#32f030"/><path d="M357 41h28v7h-28zM132 84h29v8h-29z" fill="#33f030"/></g>"     "     "     <path d="M162 84h29v8h-29zm425 0h8v29h-8z" fill="#34f030" stroke="#1a7818"/>"     "     <path d="M587 114h8v29h-8zm411 363h5v14h-5z" stroke="#1a7818" fill="#35f030"/>"     "     <path d="M1004 477h20v14h-20zM1 350h2v24H1z" fill="#36f030" stroke="#1b7818"/>"     "     <path d="M522 104h3v24h-3zm0 25h2v24h-2z" stroke="#1b7818" fill="#37f030"/>"     "     <g stroke="#1c7818"><path d="M32 3h22v1H32z" fill="#38f030"/><path d="M55 3h22v1H55zm23 0h22v2H78z" fill="#39f030"/></g>"     "     "     <path d="M101 3h22v2h-22zm14 3h23v3h-23z" fill="#3af030" stroke="#1d7818"/>"     "     <path d="M5 272h5v25H5zM781 12h24v4h-24z" stroke="#1d7818" fill="#3bf030"/>"     "     <path d="M11 161h7v27h-7zM657 22h26v6h-26z" fill="#3cf030" stroke="#1e7818"/>"     "     <path d="M304 22h25v5h-25zM29 202h4v24h-4z" stroke="#1e7818" fill="#3df030"/>"     "     <g stroke="#1f7818"><path d="M538 240h6v26h-6z" fill="#3ef030"/><path d="M538 267h6v26h-6zm0 27h6v26h-6z" fill="#3ff030"/></g>"     "     "     <path d="M386 41h27v7h-27zm28 0h27v7h-27z" fill="#40f030" stroke="#207818"/>"     "     <path d="M442 41h27v7h-27zM192 84h28v8h-28z" stroke="#207818" fill="#41f030"/>"     "     <path d="M587 144h8v28h-8zm0 29h8v28h-8z" fill="#42f030" stroke="#217818"/>"     "     <path d="M587 202h8v28h-8zm0 29h8v28h-8z" stroke="#217818" fill="#43f030"/>"     "     <g stroke="#227818"><path d="M587 260h8v28h-8z" fill="#44f030"/><path d="M603 100h9v29h-9zm-445 40h30v10h-30z" fill="#45f030"/></g>"     "     "     <path d="M189 140h30v10h-30zm467 14h10v30h-10z" fill="#46f030" stroke="#237818"/>"     "     <path d="M487 485h14v2h-14zm15 0h19v27h-19z" stroke="#237818" fill="#47f030"/>"     "     <path d="M487 488h14v24h-14zM25 141h2v23h-2z" fill="#48f030" stroke="#247818"/>"     "     <path d="M25 165h3v23h-3zm0 24h3v23h-3z" stroke="#247818" fill="#49f030"/>"     "     <g stroke="#257818"><path d="M124 3h21v2h-21z" fill="#4af030"/><path d="M146 3h21v2h-21zm22 0h21v1h-21z" fill="#4bf030"/></g>"     "     "     <path d="M190 3h21v1h-21zm22 0h21v1h-21z" fill="#4cf030" stroke="#267818"/>"     "     <path d="M234 3h21v2h-21zm-95 3h22v3h-22z" stroke="#267818" fill="#4df030"/>"     "     <path d="M162 6h22v3h-22zM5 298h5v24H5z" fill="#4ef030" stroke="#277818"/>"     "     <path d="M806 12h23v4h-23zM11 189h7v26h-7z" stroke="#277818" fill="#4ff030"/>"     "     <g stroke="#287818"><path d="M11 216h7v26h-7z" fill="#50f030"/><path d="M11 243h7v26h-7zm0 27h7v26h-7z" fill="#51f030"/></g>"     "     "     <path d="M11 297h7v26h-7zM330 22h24v5h-24z" fill="#52f030" stroke="#297818"/>"     "     <path d="M355 22h24v5h-24zM29 227h4v23h-4z" stroke="#297818" fill="#53f030"/>"     "     <path d="M538 321h6v25h-6zm0 26h6v25h-6z" fill="#54f030" stroke="#2a7818"/>"     "     <path d="M538 373h6v25h-6zM470 41h26v7h-26z" stroke="#2a7818" fill="#55f030"/>"     "     <g stroke="#2b7818"><path d="M497 41h24v7h-24z" fill="#56f030"/><path d="M575 55h26v7h-26zm27 0h26v7h-26z" fill="#57f030"/></g>"     "     "     <path d="M629 55h26v7h-26zM221 84h27v8h-27z" fill="#58f030" stroke="#2c7818"/>"     "     <path d="M249 84h27v8h-27zm338 205h8v27h-8z" stroke="#2c7818" fill="#59f030"/>"     "     <path d="M587 317h8v27h-8zm0 28h8v27h-8z" fill="#5af030" stroke="#2d7818"/>"     "     <path d="M603 130h9v28h-9zm-383 10h29v10h-29z" stroke="#2d7818" fill="#5bf030"/>"     "     <g stroke="#2e7818"><path d="M250 140h29v10h-29z" fill="#5cf030"/><path d="M656 185h10v29h-10zm0 30h10v29h-10z" fill="#5df030"/></g>"     "     "     <path d="M191 192h11v30h-11zm0 31h11v30h-11z" fill="#5ef030" stroke="#2f7818"/>"     "     <path d="M25 213h3v22h-3zM256 3h20v1h-20z" stroke="#2f7818" fill="#5ff030"/>"     "     <path d="M277 3h20v2h-20zm21 0h20v2h-20z" fill="#60f030" stroke="#307818"/>"     "     <path d="M185 6h21v3h-21zM5 323h5v23H5z" stroke="#307818" fill="#61f030"/>"     "     <g stroke="#317818"><path d="M5 347h5v23H5z" fill="#62f030"/><path d="M830 12h22v4h-22zM11 324h7v25h-7z" fill="#63f030"/></g>"     "     "     <path d="M11 350h7v25h-7zm0 26h7v25h-7z" fill="#64f030" stroke="#327818"/>"     "     <path d="M11 402h7v25h-7zm0 26h7v25h-7z" stroke="#327818" fill="#65f030"/>"     "     <path d="M380 22h23v5h-23zm24 0h23v5h-23z" fill="#66f030" stroke="#337818"/>"     "     <path d="M428 22h23v5h-23zm24 0h23v5h-23z" stroke="#337818" fill="#67f030"/>"     "     <g stroke="#347818"><path d="M476 22h23v5h-23z" fill="#68f030"/><path d="M500 22h21v5h-21zM29 251h4v22h-4z" fill="#69f030"/></g>"     "     "     <path d="M29 274h4v22h-4zm0 23h4v22h-4z" fill="#6af030" stroke="#357818"/>"     "     <path d="M29 320h4v22h-4zm0 23h4v22h-4z" stroke="#357818" fill="#6bf030"/>"     "     <path d="M29 366h4v22h-4zM43 28h23v5H43z" fill="#6cf030" stroke="#367818"/>"     "     <path d="M538 399h6v24h-6zm0 25h6v24h-6z" stroke="#367818" fill="#6df030"/>"     "     <g stroke="#377818"><path d="M538 449h6v24h-6z" fill="#6ef030"/><path d="M656 55h25v7h-25zm26 0h25v7h-25z" fill="#6ff030"/></g>"     "     "     <path d="M277 84h26v8h-26zm27 0h26v8h-26z" fill="#70f030" stroke="#387818"/>"     "     <path d="M603 159h9v27h-9zm-464-39h27v9h-27z" stroke="#387818" fill="#71f030"/>"     "     <path d="M167 120h27v9h-27zm113 20h28v10h-28z" fill="#72f030" stroke="#397818"/>"     "     <path d="M309 140h28v10h-28zm29 0h28v10h-28z" stroke="#397818" fill="#73f030"/>"     "     <g stroke="#3a7818"><path d="M367 140h28v10h-28z" fill="#74f030"/><path d="M396 140h28v10h-28zm29 0h28v10h-28z" fill="#75f030"/></g>"     "     "     <path d="M656 245h10v28h-10zm-449-57h29v11h-29z" fill="#76f030" stroke="#3b7818"/>"     "     <path d="M237 188h29v11h-29zm30 0h29v11h-29z" stroke="#3b7818" fill="#77f030"/>"     "     <path d="M297 188h29v11h-29zm-106 66h11v29h-11z" fill="#78f030" stroke="#3c7818"/>"     "     <path d="M191 284h11v29h-11zm0 30h11v29h-11z" stroke="#3c7818" fill="#79f030"/>"     "     <g stroke="#3d7818"><path d="M191 344h11v29h-11z" fill="#7af030"/><path d="M247 229h30v12h-30zm31 0h30v12h-30z" fill="#7bf030"/></g>"     "     "     <path d="M280 280h12v30h-12zM25 236h2v21h-2z" fill="#7cf030" stroke="#3e7818"/>"     "     <path d="M552 189h2v21h-2zm0 22h2v21h-2z" stroke="#3e7818" fill="#7df030"/>"     "     <path d="M552 233h2v21h-2zm0 22h3v21h-3z" fill="#7ef030" stroke="#3f7818"/>"     "     <path d="M319 3h19v1h-19zm20 0h19v2h-19z" stroke="#3f7818" fill="#7ff030"/>"     "     <g stroke="#407818"><path d="M359 3h19v1h-19z" fill="#80f030"/><path d="M379 3h19v1h-19zM207 6h20v3h-20z" fill="#81f030"/></g>"     "     "     <path d="M228 6h20v3h-20zM5 371h5v22H5z" fill="#82f030" stroke="#417818"/>"     "     <path d="M5 394h5v22H5zm0 23h5v22H5z" stroke="#417818" fill="#83f030"/>"     "     <path d="M11 454h7v24h-7zm0 25h7v24h-7z" fill="#84f030" stroke="#427818"/>"     "     <path d="M11 504h7v8h-7zM684 22h23v6h-23z" stroke="#427818" fill="#85f030"/>"     "     <g stroke="#437818"><path d="M708 22h23v6h-23z" fill="#86f030"/><path d="M29 389h4v21h-4zM67 28h22v5H67z" fill="#87f030"/></g>"     "     "     <path d="M90 28h22v5H90zm23 0h22v5h-22z" fill="#88f030" stroke="#447818"/>"     "     <path d="M708 55h24v7h-24zm-145 4h7v24h-7z" stroke="#447818" fill="#89f030"/>"     "     <path d="M331 84h25v8h-25zm26 0h25v8h-25z" fill="#8af030" stroke="#457818"/>"     "     <path d="M587 373h8v25h-8zm16-186h9v26h-9z" stroke="#457818" fill="#8bf030"/>"     "     <g stroke="#467818"><path d="M195 120h26v9h-26z" fill="#8cf030"/><path d="M222 120h26v9h-26zm27 0h26v9h-26z" fill="#8df030"/></g>"     "     "     <path d="M276 120h26v9h-26zm380 154h10v27h-10z" fill="#8ef030" stroke="#477818"/>"     "     <path d="M656 302h10v27h-10zm-465 72h11v28h-11z" stroke="#477818" fill="#8ff030"/>"     "     <path d="M191 403h11v28h-11zm118-174h29v12h-29z" fill="#90f030" stroke="#487818"/>"     "     <path d="M274 250h30v13h-30zm31 0h30v13h-30z" stroke="#487818" fill="#91f030"/>"     "     <path d="M280 311h12v29h-12zm64 34h13v30h-13z" fill="#92f030" stroke="#497818"/>"     "     <path d="M344 376h13v30h-13z" fill="#93f030" stroke="#497818"/>"     <path d="M344 407h13v30h-13zm208-130h3v20h-3z" fill="#94f030" stroke="#4a7818"/>"     "     <path d="M552 298h3v20h-3zm0 21h2v20h-2z" stroke="#4a7818" fill="#95f030"/>"     "     <path d="M1 375h3v20H1zM399 3h18v2h-18z" fill="#96f030" stroke="#4b7818"/>"     "     <path d="M249 6h19v3h-19zm20 0h19v3h-19z" stroke="#4b7818" fill="#97f030"/>"     "     <path d="M5 440h5v21H5zM732 22h22v6h-22z" fill="#98f030" stroke="#4c7818"/>"     "     <path d="M136 28h21v5h-21z" fill="#99f030" stroke="#4c7818"/>"     <path d="M538 474h6v22h-6zm0 23h6v15h-6z" fill="#9af030" stroke="#4d7818"/>"     "     <path d="M552 340h1v19h-1zm2 0h1v19h-1z" stroke="#4d7818" fill="#9bf030"/>"     "     <path d="M552 360h2v19h-2zM40 38h6v22h-6z" fill="#9cf030" stroke="#4e7818"/>"     "     <path d="M733 55h23v7h-23zM563 84h7v23h-7z" stroke="#4e7818" fill="#9df030"/>"     "     <path d="M563 108h7v23h-7zm0 24h7v23h-7z" fill="#9ef030" stroke="#4f7818"/>"     "     <path d="M383 84h24v8h-24z" fill="#9ff030" stroke="#4f7818"/>"     <path d="M587 399h8v24h-8zm0 25h8v24h-8z" fill="#a0f030" stroke="#507818"/>"     "     <path d="M587 449h8v24h-8zm0 25h8v24h-8z" stroke="#507818" fill="#a1f030"/>"     "     <path d="M587 499h8v13h-8zm-35-119h2v19h-2z" fill="#a2f030" stroke="#517818"/>"     "     <path d="M552 400h2v19h-2zm0 20h2v19h-2z" stroke="#517818" fill="#a3f030"/>"     "     <path d="M552 440h2v19h-2zM88 87h8v24h-8z" fill="#a4f030" stroke="#527818"/>"     "     <path d="M603 214h9v25h-9z" fill="#a5f030" stroke="#527818"/>"     <path d="M303 120h25v9h-25zm151 20h26v10h-26z" fill="#a6f030" stroke="#537818"/>"     "     <path d="M656 330h10v26h-10zm0 27h10v26h-10z" stroke="#537818" fill="#a7f030"/>"     "     <path d="M191 432h11v27h-11zm0 28h11v27h-11z" fill="#a8f030" stroke="#547818"/>"     "     <path d="M191 488h11v24h-11zm505-292h11v27h-11z" stroke="#547818" fill="#a9f030"/>"     "     <path d="M339 229h28v12h-28zm29 0h28v12h-28z" fill="#aaf030" stroke="#557818"/>"     "     <path d="M336 250h29v13h-29z" fill="#abf030" stroke="#557818"/>"     <path d="M366 250h29v13h-29zm-86 91h12v28h-12z" fill="#acf030" stroke="#567818"/>"     "     <path d="M344 438h13v29h-13zm0 30h13v29h-13z" stroke="#567818" fill="#adf030"/>"     "     <path d="M344 498h13v14h-13zm98-52h14v30h-14z" fill="#aef030" stroke="#577818"/>"     "     <path d="M442 477h14v30h-14zm0 31h14v4h-14z" stroke="#577818" fill="#aff030"/>"     "     <path d="M956 456h14v30h-14zm0 31h14v25h-14z" fill="#b0f030" stroke="#587818"/>"     "     <path d="M418 3h17v1h-17z" fill="#b1f030" stroke="#587818"/>"     <path d="M436 3h17v1h-17zM289 6h18v3h-18z" fill="#b2f030" stroke="#597818"/>"     "     <path d="M308 6h18v3h-18zm19 0h18v3h-18z" stroke="#597818" fill="#b3f030"/>"     "     <path d="M5 462h5v20H5zM755 22h21v6h-21z" fill="#b4f030" stroke="#5a7818"/>"     "     <path d="M777 22h21v6h-21zM29 411h4v19h-4z" stroke="#5a7818" fill="#b5f030"/>"     "     <path d="M29 431h4v19h-4zM158 28h20v5h-20z" fill="#b6f030" stroke="#5b7818"/>"     "     <path d="M179 28h20v5h-20z" fill="#b7f030" stroke="#5b7818"/>"     <path d="M757 55h22v7h-22zm23 0h22v7h-22z" fill="#b8f030" stroke="#5c7818"/>"     "     <path d="M563 156h7v22h-7zm0 23h7v22h-7z" stroke="#5c7818" fill="#b9f030"/>"     "     <path d="M563 202h7v22h-7zM408 84h23v8h-23z" fill="#baf030" stroke="#5d7818"/>"     "     <path d="M432 84h23v8h-23zm120 376h2v18h-2z" stroke="#5d7818" fill="#bbf030"/>"     "     <path d="M552 479h2v18h-2zm0 19h3v14h-3z" fill="#bcf030" stroke="#5e7818"/>"     "     <path d="M88 112h8v23h-8z" fill="#bdf030" stroke="#5e7818"/>"     <path d="M88 136h8v23h-8zm0 24h8v23h-8z" fill="#bef030" stroke="#5f7818"/>"     "     <path d="M88 184h8v23h-8zm515 56h9v24h-9z" stroke="#5f7818" fill="#bff030"/>"     "     <path d="M329 120h24v9h-24zm25 0h24v9h-24z" fill="#c0f030" stroke="#607818"/>"     "     <path d="M379 120h24v9h-24zm277 264h10v25h-10z" stroke="#607818" fill="#c1f030"/>"     "     <path d="M656 410h10v25h-10zm40-186h11v26h-11z" fill="#c2f030" stroke="#617818"/>"     "     <path d="M396 250h28v13h-28z" fill="#c3f030" stroke="#617818"/>"     <path d="M425 250h28v13h-28zM280 370h12v27h-12z" fill="#c4f030" stroke="#627818"/>"     "     <path d="M280 398h12v27h-12zM25 258h3v18h-3z" stroke="#627818" fill="#c5f030"/>"     "     <path d="M25 277h2v18h-2zm333 82h13v28h-13z" fill="#c6f030" stroke="#637818"/>"     "     <path d="M358 388h13v28h-13zm164-234h3v18h-3z" stroke="#637818" fill="#c7f030"/>"     "     <path d="M522 173h2v18h-2zm-65 290h14v29h-14z" fill="#c8f030" stroke="#647818"/>"     "     <path d="M457 493h14v19h-14z" fill="#c9f030" stroke="#647818"/>"     <path d="M971 470h14v29h-14zm0 30h14v12h-14z" fill="#caf030" stroke="#657818"/>"     "     <path d="M454 3h16v1h-16zM346 6h17v3h-17z" stroke="#657818" fill="#cbf030"/>"     "     <path d="M364 6h17v3h-17zM5 483h5v19H5z" fill="#ccf030" stroke="#667818"/>"     "     <path d="M853 12h18v4h-18zm19 0h18v4h-18z" stroke="#667818" fill="#cdf030"/>"     "     <path d="M799 22h20v6h-20zm-599 6h19v5h-19z" fill="#cef030" stroke="#677818"/>"     "     <path d="M220 28h19v5h-19z" fill="#cff030" stroke="#677818"/>"     <path d="M40 61h6v20h-6zm0 21h6v20h-6z" fill="#d0f030" stroke="#687818"/>"     "     <path d="M40 103h6v20h-6zm763-48h21v7h-21z" stroke="#687818" fill="#d1f030"/>"     "     <path d="M825 55h21v7h-21zM563 225h7v21h-7z" fill="#d2f030" stroke="#697818"/>"     "     <path d="M88 208h8v22h-8zm0 23h8v22h-8z" stroke="#697818" fill="#d3f030"/>"     "     <path d="M404 120h23v9h-23zm24 0h23v9h-23z" fill="#d4f030" stroke="#6a7818"/>"     "     <path d="M481 140h24v10h-24z" fill="#d5f030" stroke="#6a7818"/>"     <path d="M506 140h15v10h-15zm165 9h24v10h-24z" fill="#d6f030" stroke="#6b7818"/>"     "     <path d="M696 149h24v10h-24zm-40 287h10v24h-10z" stroke="#6b7818" fill="#d7f030"/>"     "     <path d="M656 461h10v24h-10zm0 25h10v24h-10z" fill="#d8f030" stroke="#6c7818"/>"     "     <path d="M154 154h10v24h-10zm0 25h10v24h-10z" stroke="#6c7818" fill="#d9f030"/>"     "     <path d="M327 188h25v11h-25zm70 41h26v12h-26z" fill="#daf030" stroke="#6d7818"/>"     "     <path d="M454 250h27v13h-27z" fill="#dbf030" stroke="#6d7818"/>"     <path d="M280 426h12v26h-12zm0 27h12v26h-12z" fill="#dcf030" stroke="#6e7818"/>"     "     <path d="M358 417h13v27h-13zm0 28h13v27h-13z" stroke="#6e7818" fill="#ddf030"/>"     "     <path d="M445 425h28v14h-28zM1 396h2v17H1z" fill="#def030" stroke="#6f7818"/>"     "     <path d="M522 192h3v17h-3zm0 18h3v17h-3z" stroke="#6f7818" fill="#dff030"/>"     "     <path d="M522 228h1v17h-1zm2 0h1v16h-1z" fill="#e0f030" stroke="#707818"/>"     "     <path d="M471 3h15v1h-15z" fill="#e1f030" stroke="#707818"/>"     <path d="M487 3h15v2h-15zM382 6h16v3h-16z" fill="#e2f030" stroke="#717818"/>"     "     <path d="M22 10h15v1H22zm16 0h15v1H38z" stroke="#717818" fill="#e3f030"/>"     "     <path d="M54 10h15v2H54zm16 0h15v1H70z" fill="#e4f030" stroke="#727818"/>"     "     <path d="M86 10h15v1H86zm805 2h17v4h-17z" stroke="#727818" fill="#e5f030"/>"     "     <path d="M909 12h17v4h-17zm18 0h17v4h-17z" fill="#e6f030" stroke="#737818"/>"     "     <path d="M820 22h19v6h-19z" fill="#e7f030" stroke="#737818"/>"     <path d="M840 22h19v6h-19zm-600 6h18v5h-18z" fill="#e8f030" stroke="#747818"/>"     "     <path d="M40 124h6v19h-6zm523 123h7v20h-7z" stroke="#747818" fill="#e9f030"/>"     "     <path d="M563 268h7v20h-7zM456 84h21v8h-21z" fill="#eaf030" stroke="#757818"/>"     "     <path d="M478 84h21v8h-21zm22 0h21v8h-21z" stroke="#757818" fill="#ebf030"/>"     "     <path d="M606 87h21v8h-21zm22 0h21v8h-21z" fill="#ecf030" stroke="#767818"/>"     "     <path d="M603 265h9v22h-9z" fill="#edf030" stroke="#767818"/>"     <path d="M721 149h23v10h-23zm24 0h23v10h-23z" fill="#eef030" stroke="#777818"/>"     "     <path d="M154 204h10v23h-10zm199-16h24v11h-24z" stroke="#777818" fill="#eff030"/>"     "     <path d="M424 229h25v12h-25zm26 0h25v12h-25z" fill="#f0f030" stroke="#787818"/>"     "     <path d="M476 229h25v12h-25zm26 0h19v12h-19z" stroke="#787818" fill="#f0f031"/>"     "     <path d="M482 250h26v13h-26zm27 0h12v13h-12z" fill="#f0f032" stroke="#787819"/>"     "     <path d="M522 246h2v16h-2zM280 480h12v25h-12z" stroke="#787819" fill="#f0f033"/>"     "     <g stroke="#78781a"><path d="M791 288h12v25h-12z" fill="#f0f034"/><path d="M323 303h26v13h-26zm35 170h13v26h-13z" fill="#f0f035"/></g>"     "     "     <path d="M869 368h13v26h-13zm0 27h13v26h-13z" fill="#f0f036" stroke="#78781b"/>"     "     <path d="M474 425h15v1h-15zm0 2h15v12h-15z" stroke="#78781b" fill="#f0f037"/>"     "     <path d="M490 425h27v14h-27zm28 0h3v14h-3z" fill="#f0f038" stroke="#78781c"/>"     "     <path d="M464 440h27v14h-27zm8 35h1v14h-1z" stroke="#78781c" fill="#f0f039"/>"     "     <g stroke="#78781d"><path d="M474 475h12v14h-12z" fill="#f0f03a"/><path d="M472 490h14v22h-14zM399 6h15v3h-15z" fill="#f0f03b"/></g>"     "     "     <path d="M415 6h15v3h-15zm-313 4h14v2h-14z" fill="#f0f03c" stroke="#78781e"/>"     "     <path d="M117 10h14v1h-14zm743 12h18v6h-18z" stroke="#78781e" fill="#f0f03d"/>"     "     <path d="M879 22h18v6h-18zm19 0h18v6h-18z" fill="#f0f03e" stroke="#78781f"/>"     "     <path d="M29 451h4v16h-4zm0 17h4v16h-4z" stroke="#78781f" fill="#f0f03f"/>"     "     <g stroke="#787820"><path d="M29 485h4v16h-4z" fill="#f0f040"/><path d="M40 144h6v18h-6zm807-89h19v7h-19z" fill="#f0f041"/></g>"     "     "     <path d="M563 289h7v19h-7zm0 20h7v19h-7z" fill="#f0f042" stroke="#787821"/>"     "     <path d="M563 329h7v19h-7zm87-242h20v8h-20z" stroke="#787821" fill="#f0f043"/>"     "     <path d="M671 87h20v8h-20zM88 254h8v20h-8z" fill="#f0f044" stroke="#787822"/>"     "     <path d="M88 275h8v20h-8zm515 13h9v21h-9z" stroke="#787822" fill="#f0f045"/>"     "     <g stroke="#787823"><path d="M603 310h9v21h-9z" fill="#f0f046"/><path d="M452 120h21v9h-21zm317 29h22v10h-22z" fill="#f0f047"/></g>"     "     "     <path d="M154 228h10v22h-10zm224-40h23v11h-23z" fill="#f0f048" stroke="#787824"/>"     "     <path d="M402 188h23v11h-23zm24 0h23v11h-23z" stroke="#787824" fill="#f0f049"/>"     "     <path d="M450 188h23v11h-23zm246 63h11v23h-11z" fill="#f0f04a" stroke="#787825"/>"     "     <path d="M696 275h11v23h-11zm63-38h24v12h-24z" stroke="#787825" fill="#f0f04b"/>"     "     <g stroke="#787826"><path d="M784 237h24v12h-24z" fill="#f0f04c"/><path d="M809 237h24v12h-24zm-18 77h12v24h-12z" fill="#f0f04d"/></g>"     "     "     <path d="M791 339h12v24h-12zm-441-36h25v13h-25z" fill="#f0f04e" stroke="#787827"/>"     "     <path d="M376 303h25v13h-25zm26 0h25v13h-25z" stroke="#787827" fill="#f0f04f"/>"     "     <path d="M428 303h25v13h-25zm94-40h3v15h-3z" fill="#f0f050" stroke="#787828"/>"     "     <path d="M522 279h2v15h-2zm-30 161h26v14h-26z" stroke="#787828" fill="#f0f051"/>"     "     <g stroke="#787829"><path d="M973 452h26v14h-26z" fill="#f0f052"/><path d="M1000 452h24v14h-24zm-2 40h12v8h-12z" fill="#f0f053"/></g>"     "     "     <path d="M1011 492h13v20h-13zm-13 9h12v11h-12z" fill="#f0f054" stroke="#78782a"/>"     "     <path d="M19 16h5v16h-5zm240 12h16v5h-16z" stroke="#78782a" fill="#f0f055"/>"     "     <path d="M276 28h16v5h-16zM40 163h6v17h-6z" fill="#f0f056" stroke="#78782b"/>"     "     <path d="M867 55h18v7h-18zm19 0h18v7h-18z" stroke="#78782b" fill="#f0f057"/>"     "     <g stroke="#78782c"><path d="M905 55h18v7h-18z" fill="#f0f058"/><path d="M924 55h18v7h-18zM563 349h7v18h-7z" fill="#f0f059"/></g>"     "     "     <path d="M692 87h19v8h-19zm-89 245h9v20h-9z" fill="#f0f05a" stroke="#78782d"/>"     "     <path d="M603 353h9v20h-9zm0 21h9v20h-9z" stroke="#78782d" fill="#f0f05b"/>"     "     <path d="M603 395h9v20h-9zM474 120h20v9h-20z" fill="#f0f05c" stroke="#78782e"/>"     "     <path d="M495 120h20v9h-20zm146-1h20v9h-20z" stroke="#78782e" fill="#f0f05d"/>"     "     <g stroke="#78782f"><path d="M792 149h21v10h-21z" fill="#f0f05e"/><path d="M814 149h21v10h-21zM154 251h10v21h-10z" fill="#f0f05f"/></g>"     "     "     <path d="M154 273h10v21h-10zm542 26h11v22h-11z" fill="#f0f060" stroke="#787830"/>"     "     <path d="M696 322h11v22h-11zm0 23h11v22h-11z" stroke="#787830" fill="#f0f061"/>"     "     <path d="M791 364h12v23h-12zm0 24h12v23h-12z" fill="#f0f062" stroke="#787831"/>"     "     <path d="M454 303h24v13h-24zm25 0h24v13h-24z" stroke="#787831" fill="#f0f063"/>"     "     <g stroke="#787832"><path d="M504 303h17v13h-17z" fill="#f0f064"/><path d="M351 328h24v13h-24zm25 0h24v13h-24z" fill="#f0f065"/></g>"     "     "     <path d="M474 455h25v14h-25zm26 0h21v14h-21z" fill="#f0f066" stroke="#787833"/>"     "     <path d="M19 33h5v15h-5zm0 16h4v15h-4z" stroke="#787833" fill="#f0f067"/>"     "     <path d="M526 20h5v15h-5zm0 16h5v15h-5z" fill="#f0f068" stroke="#787834"/>"     "     <path d="M526 52h4v15h-4zM293 28h15v5h-15z" stroke="#787834" fill="#f0f069"/>"     "     <g stroke="#787835"><path d="M309 28h15v5h-15z" fill="#f0f06a"/><path d="M325 28h15v5h-15zm16 0h15v5h-15z" fill="#f0f06b"/></g>"     "     "     <path d="M40 181h6v16h-6zm0 17h6v16h-6z" fill="#f0f06c" stroke="#787836"/>"     "     <path d="M40 215h6v16h-6zM943 55h17v7h-17z" stroke="#787836" fill="#f0f06d"/>"     "     <path d="M563 368h7v17h-7zM712 87h18v8h-18z" fill="#f0f06e" stroke="#787837"/>"     "     <path d="M731 87h18v8h-18zm105 62h20v10h-20z" stroke="#787837" fill="#f0f06f"/>"     "     <g stroke="#787838"><path d="M857 149h20v10h-20z" fill="#f0f070"/><path d="M474 188h21v11h-21zm22 0h21v11h-21z" fill="#f0f071"/></g>"     "     "     <path d="M713 189h21v11h-21zm22 0h21v11h-21z" fill="#f0f072" stroke="#787839"/>"     "     <path d="M757 189h21v11h-21zm-61 179h11v21h-11z" stroke="#787839" fill="#f0f073"/>"     "     <path d="M696 390h11v21h-11zm138-153h22v12h-22z" fill="#f0f074" stroke="#78783a"/>"     "     <path d="M791 412h12v22h-12zm0 23h12v22h-12z" stroke="#78783a" fill="#f0f075"/>"     "     <g stroke="#78783b"><path d="M791 458h12v22h-12z" fill="#f0f076"/><path d="M401 328h23v13h-23zM917 22h15v6h-15z" fill="#f0f077"/></g>"     "     "     <path d="M357 28h14v5h-14zm604 27h16v7h-16z" fill="#f0f078" stroke="#78783c"/>"     "     <path d="M978 55h16v7h-16zM563 386h7v16h-7z" stroke="#78783c" fill="#f0f079"/>"     "     <path d="M563 403h7v16h-7zm0 17h7v16h-7z" fill="#f0f07a" stroke="#78783d"/>"     "     <path d="M750 87h17v8h-17zm18 0h17v8h-17z" stroke="#78783d" fill="#f0f07b"/>"     "     <g stroke="#78783e"><path d="M786 87h17v8h-17z" fill="#f0f07c"/><path d="M804 87h17v8h-17zm18 0h17v8h-17z" fill="#f0f07d"/></g>"     "     "     <path d="M88 296h8v17h-8zm0 18h8v17h-8z" fill="#f0f07e" stroke="#78783f"/>"     "     <path d="M88 332h8v17h-8zm0 18h8v17h-8z" stroke="#78783f" fill="#f0f07f"/>"     "     <path d="M662 119h18v9h-18zm216 30h19v10h-19z" fill="#f0f080" stroke="#787840"/>"     "     <path d="M154 295h10v19h-10zm0 20h10v19h-10z" stroke="#787840" fill="#f0f081"/>"     "     <g stroke="#787841"><path d="M779 189h20v11h-20z" fill="#f0f082"/><path d="M800 189h20v11h-20zM696 412h11v20h-11z" fill="#f0f083"/></g>"     "     "     <path d="M696 433h11v20h-11zm161-196h21v12h-21z" fill="#f0f084" stroke="#787842"/>"     "     <path d="M791 481h12v21h-12zm0 22h12v9h-12z" stroke="#787842" fill="#f0f085"/>"     "     <path d="M293 296h12v21h-12zm0 22h12v21h-12z" fill="#f0f086" stroke="#787843"/>"     "     <path d="M425 328h22v13h-22zm444 94h13v22h-13z" stroke="#787843" fill="#f0f087"/>"     "     <g stroke="#787844"><path d="M933 22h14v6h-14z" fill="#f0f088"/><path d="M995 55h15v7h-15zm16 0h13v7h-13z" fill="#f0f089"/></g>"     "     "     <path d="M563 437h7v15h-7zM88 368h8v16h-8z" fill="#f0f08a" stroke="#787845"/>"     "     <path d="M88 385h8v16h-8zm0 17h8v16h-8z" stroke="#787845" fill="#f0f08b"/>"     "     <path d="M88 419h8v16h-8zm0 17h8v16h-8z" fill="#f0f08c" stroke="#787846"/>"     "     <path d="M88 453h8v16h-8zm0 17h8v16h-8z" stroke="#787846" fill="#f0f08d"/>"     "     <g stroke="#787847"><path d="M603 416h9v17h-9z" fill="#f0f08e"/><path d="M681 119h17v9h-17zm18 0h17v9h-17z" fill="#f0f08f"/></g>"     "     "     <path d="M717 119h17v9h-17zm181 30h18v10h-18z" fill="#f0f090" stroke="#787848"/>"     "     <path d="M917 149h18v10h-18zm19 0h18v10h-18z" stroke="#787848" fill="#f0f091"/>"     "     <path d="M154 335h10v18h-10zm667-146h19v11h-19z" fill="#f0f092" stroke="#787849"/>"     "     <path d="M841 189h19v11h-19zM696 454h11v19h-11z" stroke="#787849" fill="#f0f093"/>"     "     <path d="M696 474h11v19h-11zm0 20h11v18h-11z" fill="#f0f094" stroke="#78784a"/>"     "     <path d="M203 205h11v19h-11z" fill="#f0f095" stroke="#78784a"/>"     <path d="M203 225h11v19h-11zm676 12h20v12h-20z" fill="#f0f096" stroke="#78784b"/>"     "     <path d="M900 237h20v12h-20zM293 340h12v20h-12z" stroke="#78784b" fill="#f0f097"/>"     "     <path d="M293 361h12v20h-12zm155-33h21v13h-21z" fill="#f0f098" stroke="#78784c"/>"     "     <path d="M869 445h13v21h-13zM582 63h14v7h-14z" stroke="#78784c" fill="#f0f099"/>"     "     <path d="M597 63h14v7h-14zm243 24h15v8h-15z" fill="#f0f09a" stroke="#78784d"/>"     "     <path d="M88 487h8v15h-8z" fill="#f0f09b" stroke="#78784d"/>"     <path d="M88 503h8v9h-8zm515-69h9v16h-9z" fill="#f0f09c" stroke="#78784e"/>"     "     <path d="M603 451h9v16h-9zm0 17h9v16h-9z" stroke="#78784e" fill="#f0f09d"/>"     "     <path d="M735 119h16v9h-16zm17 0h16v9h-16z" fill="#f0f09e" stroke="#78784f"/>"     "     <path d="M154 354h10v17h-10zm707-165h18v11h-18z" stroke="#78784f" fill="#f0f09f"/>"     "     <path d="M880 189h18v11h-18zm19 0h18v11h-18z" fill="#f0f0a0" stroke="#787850"/>"     "     <path d="M203 245h11v18h-11z" fill="#f0f0a1" stroke="#787850"/>"     <path d="M203 264h11v18h-11zm267 64h20v13h-20z" fill="#f0f0a2" stroke="#787851"/>"     "     <path d="M97 97h8v14h-8zm0 15h8v14h-8z" stroke="#787851" fill="#f0f0a3"/>"     "     <path d="M769 119h15v9h-15zm16 0h15v9h-15z" fill="#f0f0a4" stroke="#787852"/>"     "     <path d="M801 119h15v9h-15zm16 0h15v9h-15z" stroke="#787852" fill="#f0f0a5"/>"     "     <path d="M833 119h15v9h-15zm122 30h16v10h-16z" fill="#f0f0a6" stroke="#787853"/>"     "     <path d="M972 149h16v10h-16z" fill="#f0f0a7" stroke="#787853"/>"     <path d="M989 149h16v10h-16zM154 372h10v16h-10z" fill="#f0f0a8" stroke="#787854"/>"     "     <path d="M154 389h10v16h-10zm764-200h17v11h-17z" stroke="#787854" fill="#f0f0a9"/>"     "     <path d="M203 283h11v17h-11zm0 18h11v17h-11z" fill="#f0f0aa" stroke="#787855"/>"     "     <path d="M921 237h18v12h-18zM293 382h12v18h-12z" stroke="#787855" fill="#f0f0ab"/>"     "     <path d="M293 401h12v18h-12zm0 19h12v18h-12z" fill="#f0f0ac" stroke="#787856"/>"     "     <path d="M491 328h19v13h-19z" fill="#f0f0ad" stroke="#787856"/>"     <path d="M511 328h10v13h-10zm-147 14h19v13h-19z" fill="#f0f0ae" stroke="#787857"/>"     "     <path d="M384 342h19v13h-19zm20 0h19v13h-19z" stroke="#787857" fill="#f0f0af"/>"     "     <path d="M869 467h7v12h-7zm-497-90h7v12h-7z" fill="#f0f0b0" stroke="#787858"/>"     "     <path d="M883 380h7v8h-7zm-497 8h13v19h-13z" stroke="#787858" fill="#f0f0b1"/>"     "     <path d="M386 408h7v11h-7zM856 87h13v8h-13z" fill="#f0f0b2" stroke="#787859"/>"     "     <path d="M97 127h8v13h-8z" fill="#f0f0b3" stroke="#787859"/>"     <path d="M849 119h14v9h-14zm157 30h15v10h-15z" fill="#f0f0b4" stroke="#78785a"/>"     "     <path d="M169 151h15v10h-15zm16 0h15v10h-15z" stroke="#78785a" fill="#f0f0b5"/>"     "     <path d="M154 406h10v15h-10zm0 16h10v15h-10z" fill="#f0f0b6" stroke="#78785b"/>"     "     <path d="M936 189h16v11h-16zm17 0h16v11h-16z" stroke="#78785b" fill="#f0f0b7"/>"     "     <path d="M970 189h16v11h-16zm17 0h16v11h-16z" fill="#f0f0b8" stroke="#78785c"/>"     "     <path d="M203 319h11v16h-11z" fill="#f0f0b9" stroke="#78785c"/>"     <path d="M940 237h17v12h-17zm18 0h17v12h-17z" fill="#f0f0ba" stroke="#78785d"/>"     "     <path d="M976 237h17v12h-17zm18 0h17v12h-17z" stroke="#78785d" fill="#f0f0bb"/>"     "     <path d="M1012 237h12v12h-12zM386 420h8v10h-8z" fill="#f0f0bc" stroke="#78785e"/>"     "     <path d="M781 259h17v12h-17zM293 439h12v17h-12z" stroke="#78785e" fill="#f0f0bd"/>"     "     <path d="M424 342h18v13h-18zm19 0h8v8h-8z" fill="#f0f0be" stroke="#78785f"/>"     "     <path d="M452 342h12v8h-12z" fill="#f0f0bf" stroke="#78785f"/>"     <path d="M465 342h18v13h-18zm19 0h10v8h-10z" fill="#f0f0c0" stroke="#787860"/>"     "     <path d="M495 342h11v8h-11zm12 0h14v13h-14z" stroke="#787860" fill="#f0f0c1"/>"     "     <path d="M873 349h11v8h-11zm12 0h18v13h-18z" fill="#f0f0c2" stroke="#787861"/>"     "     <path d="M904 349h8v8h-8zm-504 54h8v9h-8z" stroke="#787861" fill="#f0f0c3"/>"     "     <path d="M414 416h8v12h-8zm505 2h8v9h-8z" fill="#f0f0c4" stroke="#787862"/>"     "     <path d="M428 430h8v9h-8z" fill="#f0f0c5" stroke="#787862"/>"     <path d="M933 435h8v12h-8zm-330 50h9v13h-9z" fill="#f0f0c6" stroke="#787863"/>"     "     <path d="M603 499h9v13h-9zm330-51h9v9h-9z" stroke="#787863" fill="#f0f0c7"/>"     "     <path d="M106 105h9v13h-9zm0 14h9v13h-9z" fill="#f0f0c8" stroke="#787864"/>"     "     <path d="M864 119h13v9h-13zm14 0h13v9h-13z" stroke="#787864" fill="#f0f0c9"/>"     "     <path d="M201 151h14v10h-14zm15 0h14v10h-14z" fill="#f0f0ca" stroke="#787865"/>"     "     <path d="M154 438h10v14h-10z" fill="#f0f0cb" stroke="#787865"/>"     <path d="M154 453h10v14h-10zm0 15h10v14h-10z" fill="#f0f0cc" stroke="#787866"/>"     "     <path d="M154 483h10v14h-10zm850-294h15v11h-15z" stroke="#787866" fill="#f0f0cd"/>"     "     <path d="M221 200h15v11h-15zm16 0h15v11h-15z" fill="#f0f0ce" stroke="#787867"/>"     "     <path d="M203 336h11v15h-11zm0 16h11v15h-11z" stroke="#787867" fill="#f0f0cf"/>"     "     <path d="M799 259h16v12h-16zm17 0h16v12h-16z" fill="#f0f0d0" stroke="#787868"/>"     "     <path d="M293 457h12v16h-12z" fill="#f0f0d1" stroke="#787868"/>"     <path d="M293 474h12v16h-12zm0 17h12v16h-12z" fill="#f0f0d2" stroke="#787869"/>"     "     <path d="M804 304h12v16h-12zm109 45h11v9h-11z" stroke="#787869" fill="#f0f0d3"/>"     "     <path d="M925 349h11v9h-11zm12 0h10v9h-10z" fill="#f0f0d4" stroke="#78786a"/>"     "     <path d="M948 349h17v13h-17zm18 0h12v9h-12z" stroke="#78786a" fill="#f0f0d5"/>"     "     <path d="M979 349h11v9h-11zm12 0h10v9h-10z" fill="#f0f0d6" stroke="#78786b"/>"     "     <path d="M1002 349h10v9h-10z" fill="#f0f0d7" stroke="#78786b"/>"     <path d="M1013 349h11v13h-11zm-638 7h12v9h-12z" fill="#f0f0d8" stroke="#78786c"/>"     "     <path d="M869 480h9v10h-9zm-497-90h13v17h-13z" stroke="#78786c" fill="#f0f0d9"/>"     "     <path d="M372 408h9v11h-9zm-218 90h10v13h-10z" fill="#f0f0da" stroke="#78786d"/>"     "     <path d="M253 200h14v11h-14zm15 0h14v11h-14z" stroke="#78786d" fill="#f0f0db"/>"     "     <path d="M203 368h11v14h-11zm0 15h11v14h-11z" fill="#f0f0dc" stroke="#78786e"/>"     "     <path d="M833 259h15v12h-15z" fill="#f0f0dd" stroke="#78786e"/>"     <path d="M388 356h16v13h-16zm17 0h16v13h-16z" fill="#f0f0de" stroke="#78786f"/>"     "     <path d="M422 356h10v10h-10zm11 0h16v13h-16z" stroke="#78786f" fill="#f0f0df"/>"     "     <path d="M450 356h12v10h-12zm13 0h10v10h-10z" fill="#f0f0e0" stroke="#787870"/>"     "     <path d="M474 356h11v10h-11zm12 0h11v10h-11z" stroke="#787870" fill="#f0f0e1"/>"     "     <path d="M883 389h13v16h-13zm0 17h13v16h-13z" fill="#f0f0e2" stroke="#787871"/>"     "     <path d="M883 423h10v12h-10z" fill="#f0f0e3" stroke="#787871"/>"     <path d="M386 431h10v11h-10zm14-18h10v11h-10z" fill="#f0f0e4" stroke="#787872"/>"     "     <path d="M414 429h10v12h-10zm505-1h13v16h-13z" stroke="#787872" fill="#f0f0e5"/>"     "     <path d="M919 445h10v11h-10zM283 200h13v11h-13z" fill="#f0f0e6" stroke="#787873"/>"     "     <path d="M297 200h13v11h-13zm14 0h13v11h-13z" stroke="#787873" fill="#f0f0e7"/>"     "     <path d="M325 200h13v11h-13zM203 398h11v13h-11z" fill="#f0f0e8" stroke="#787874"/>"     "     <path d="M203 412h11v13h-11z" fill="#f0f0e9" stroke="#787874"/>"     <path d="M203 426h11v13h-11zm601-105h12v14h-12z" fill="#f0f0ea" stroke="#787875"/>"     "     <path d="M498 356h15v13h-15zm389 7h11v11h-11z" stroke="#787875" fill="#f0f0eb"/>"     "     <path d="M899 363h11v11h-11zm-471 77h11v12h-11z" fill="#f0f0ec" stroke="#787876"/>"     "     <path d="M911 363h14v13h-14zm15 0h12v12h-12z" stroke="#787876" fill="#f0f0ed"/>"     "     <path d="M939 363h12v12h-12zm-6 95h13v14h-13z" fill="#f0f0ee" stroke="#787877"/>"     "     <path d="M952 363h13v13h-13z" fill="#f0f0ef" stroke="#787877"/>"     <text y="526" font-size="12" fill="#000" x="0"> MaxRectsBin(size: 1024x512, choice: WorstShortSideFit, method: ShorterAxis): inserted 1057 of 1536 rectangles with w/h lengths between [2, 31], occupancy: 32.22% </text></svg>