<svg xmlns="http://www.w3.org/2000/svg" viewBox="0 0 1024 536" xmlns:v="https://vecta.io/nano"><path d="M0 0h1024v512H0z" fill="#fff" stroke="#000"/>"     <path d="M1 1h1v1H1zm2 0h2v1H3z" fill="#303030" stroke="#181818"/>"     "     <path d="M6 1h2v1H6zm3 0h1v2H9z" stroke="#181818" fill="#303130"/>"     "     <g stroke="#181918"><path d="M11 1h2v1h-2z" fill="#303230"/><path d="M14 1h3v1h-3zm-3 2h1v3h-1z" fill="#303330"/></g>"     "     "     <path d="M13 3h1v3h-1zm2 0h3v1h-3z" fill="#303430" stroke="#181a18"/>"     "     <path d="M15 5h1v3h-1z" fill="#303530" stroke="#181a18"/>"     <path d="M17 5h2v2h-2zm3 0h2v2h-2z" fill="#303630" stroke="#181b18"/>"     "     <path d="M23 5h1v4h-1z" fill="#303730" stroke="#181b18"/>"     <path d="M25 5h1v4h-1zm2 0h4v1h-4z" fill="#303830" stroke="#181c18"/>"     "     <path d="M27 7h1v4h-1zm2 0h5v1h-5z" stroke="#181c18" fill="#303930"/>"     "     <g stroke="#181d18"><path d="M29 9h3v2h-3z" fill="#303a30"/><path d="M33 9h5v1h-5zm0 2h3v2h-3z" fill="#303b30"/></g>"     "     "     <g stroke="#181e18"><path d="M37 11h5v1h-5z" fill="#303c30"/><path d="M37 13h5v1h-5zm0 2h2v3h-2z" fill="#303d30"/></g>"     "     "     <path d="M40 15h6v1h-6zm0 2h6v1h-6z" fill="#303e30" stroke="#181f18"/>"     "     <path d="M37 19h1v6h-1z" fill="#303f30" stroke="#181f18"/>"     <path d="M39 19h1v7h-1zm2 0h1v7h-1z" fill="#304030" stroke="#182018"/>"     "     <path d="M43 19h7v1h-7z" fill="#304130" stroke="#182018"/>"     <path d="M43 21h1v7h-1zm2 0h5v2h-5z" fill="#304230" stroke="#182118"/>"     "     <path d="M45 24h1v8h-1zm2 0h5v2h-5z" stroke="#182118" fill="#304330"/>"     "     <g stroke="#182218"><path d="M53 24h2v5h-2z" fill="#304430"/><path d="M56 24h2v5h-2zm3 0h2v5h-2z" fill="#304530"/></g>"     "     "     <g stroke="#182318"><path d="M62 24h5v2h-5z" fill="#304630"/><path d="M62 27h3v4h-3zm4 0h4v3h-4z" fill="#304730"/></g>"     "     "     <path d="M71 27h2v6h-2zm3 0h6v2h-6z" fill="#304830" stroke="#182418"/>"     "     <path d="M74 30h6v2h-6z" fill="#304930" stroke="#182418"/>"     <path d="M74 33h6v2h-6zm0 3h2v6h-2z" fill="#304a30" stroke="#182518"/>"     "     <path d="M77 36h10v1H77z" fill="#304b30" stroke="#182518"/>"     <path d="M77 38h10v1H77zm0 2h11v1H77z" fill="#304c30" stroke="#182618"/>"     "     <path d="M77 42h2v7h-2zm3 0h1v11h-1z" stroke="#182618" fill="#304d30"/>"     "     <g stroke="#182718"><path d="M82 42h5v3h-5z" fill="#304e30"/><path d="M88 42h7v2h-7zm0 3h3v5h-3z" fill="#304f30"/></g>"     "     "     <g stroke="#182818"><path d="M92 45h2v7h-2z" fill="#305030"/><path d="M95 45h11v1H95zm0 2h1v12h-1z" fill="#305130"/></g>"     "     "     <path d="M97 47h12v1H97zm0 2h1v12h-1z" fill="#305230" stroke="#182918"/>"     "     <path d="M99 49h12v1H99z" fill="#305330" stroke="#182918"/>"     <path d="M99 51h1v12h-1zm2 0h12v1h-12z" fill="#305430" stroke="#182a18"/>"     "     <path d="M101 53h12v1h-12z" fill="#305530" stroke="#182a18"/>"     <path d="M101 55h12v1h-12zm0 2h12v1h-12z" fill="#305630" stroke="#182b18"/>"     "     <path d="M101 59h8v2h-8zm0 3h2v8h-2z" stroke="#182b18" fill="#305730"/>"     "     <g stroke="#182c18"><path d="M104 62h1v13h-1z" fill="#305830"/><path d="M106 62h13v1h-13zm0 2h6v3h-6z" fill="#305930"/></g>"     "     "     <g stroke="#182d18"><path d="M113 64h3v6h-3z" fill="#305a30"/><path d="M117 64h6v3h-6zm7 0h6v3h-6z" fill="#305b30"/></g>"     "     "     <path d="M131 64h3v6h-3zm4 0h6v3h-6z" fill="#305c30" stroke="#182e18"/>"     "     <path d="M142 64h1v13h-1z" fill="#305d30" stroke="#182e18"/>"     <path d="M144 64h9v2h-9zm0 3h5v4h-5z" fill="#305e30" stroke="#182f18"/>"     "     <path d="M150 67h4v5h-4z" fill="#305f30" stroke="#182f18"/>"     <path d="M155 67h1v14h-1zm2 0h1v14h-1z" fill="#306030" stroke="#183018"/>"     "     <path d="M159 67h4v5h-4zm5 0h14v1h-14z" stroke="#183018" fill="#306130"/>"     "     <g stroke="#183118"><path d="M164 69h9v2h-9z" fill="#306230"/><path d="M164 72h2v9h-2zm3 0h1v14h-1z" fill="#306330"/></g>"     "     "     <path d="M169 72h4v5h-4zm5-3h9v2h-9z" fill="#306430" stroke="#183218"/>"     "     <path d="M174 72h1v14h-1z" fill="#306530" stroke="#183218"/>"     <path d="M176 72h5v4h-5zm6 0h1v15h-1z" fill="#306630" stroke="#183318"/>"     "     <path d="M184 69h1v15h-1z" fill="#306730" stroke="#183318"/>"     <path d="M186 69h15v1h-15zm0 2h7v3h-7z" fill="#306830" stroke="#183418"/>"     "     <path d="M186 75h3v7h-3zm4 0h15v1h-15z" stroke="#183418" fill="#306930"/>"     "     <g stroke="#183518"><path d="M190 77h1v15h-1z" fill="#306a30"/><path d="M192 77h1v15h-1zm2 0h1v15h-1z" fill="#306b30"/></g>"     "     "     <g stroke="#183618"><path d="M196 77h7v3h-7z" fill="#306c30"/><path d="M196 81h10v2h-10zm0 3h2v10h-2z" fill="#306d30"/></g>"     "     "     <path d="M199 84h1v16h-1zm2 0h16v1h-16z" fill="#306e30" stroke="#183718"/>"     "     <path d="M201 86h6v4h-6z" fill="#306f30" stroke="#183718"/>"     <path d="M208 86h2v11h-2zm3 0h11v2h-11z" fill="#307030" stroke="#183818"/>"     "     <path d="M211 89h1v17h-1z" fill="#307130" stroke="#183818"/>"     <path d="M213 89h1v17h-1zm2 0h5v5h-5z" fill="#307230" stroke="#183918"/>"     "     <path d="M221 89h8v3h-8zm0 4h3v8h-3z" stroke="#183918" fill="#307330"/>"     "     <g stroke="#183a18"><path d="M225 93h3v8h-3z" fill="#307430"/><path d="M229 93h5v5h-5zm6 0h3v8h-3z" fill="#307530"/></g>"     "     "     <g stroke="#183b18"><path d="M239 93h17v1h-17z" fill="#307630"/><path d="M239 95h18v1h-18zm0 2h2v12h-2z" fill="#307730"/></g>"     "     "     <path d="M242 97h12v2h-12zm0 3h12v2h-12z" fill="#307830" stroke="#183c18"/>"     "     <path d="M242 103h9v3h-9z" fill="#307930" stroke="#183c18"/>"     <path d="M242 107h19v1h-19zm0 2h1v19h-1z" fill="#307a30" stroke="#183d18"/>"     "     <path d="M244 109h7v4h-7z" fill="#307b30" stroke="#183d18"/>"     <path d="M252 109h3v9h-3zm4 0h1v19h-1z" fill="#307c30" stroke="#183e18"/>"     "     <path d="M258 109h1v19h-1zm2 0h4v7h-4z" stroke="#183e18" fill="#307d30"/>"     "     <g stroke="#183f18"><path d="M265 109h19v1h-19z" fill="#307e30"/><path d="M265 111h9v3h-9zm0 4h19v1h-19z" fill="#307f30"/></g>"     "     "     <g stroke="#184018"><path d="M260 117h19v1h-19z" fill="#308030"/><path d="M260 119h7v4h-7zm8 0h4v7h-4z" fill="#308130"/></g>"     "     "     <path d="M273 119h13v2h-13zm0 3h13v2h-13z" fill="#308230" stroke="#184118"/>"     "     <path d="M273 125h5v6h-5z" fill="#308330" stroke="#184118"/>"     <path d="M279 125h13v2h-13zm0 3h20v1h-20z" fill="#308430" stroke="#184218"/>"     "     <path d="M279 130h1v20h-1z" fill="#308530" stroke="#184218"/>"     <path d="M281 130h2v13h-2zm3 0h5v6h-5z" fill="#308630" stroke="#184318"/>"     "     <path d="M290 130h2v13h-2zm3 0h3v10h-3z" stroke="#184318" fill="#308730"/>"     "     <g stroke="#184418"><path d="M297 130h3v10h-3z" fill="#308830"/><path d="M301 130h3v10h-3zm4 0h1v21h-1z" fill="#308930"/></g>"     "     "     <g stroke="#184518"><path d="M307 130h1v21h-1z" fill="#308a30"/><path d="M309 130h1v21h-1zm2 0h3v10h-3z" fill="#308b30"/></g>"     "     "     <path d="M315 130h3v10h-3zm4 0h21v1h-21z" fill="#308c30" stroke="#184618"/>"     "     <path d="M319 132h2v14h-2z" fill="#308d30" stroke="#184618"/>"     <path d="M322 132h8v4h-8zm9 0h14v2h-14z" fill="#308e30" stroke="#184718"/>"     "     <path d="M331 135h2v14h-2z" fill="#308f30" stroke="#184718"/>"     <path d="M334 135h4v8h-4zm5 0h14v2h-14z" fill="#309030" stroke="#184818"/>"     "     <path d="M339 138h22v1h-22zm0 2h1v22h-1z" stroke="#184818" fill="#309130"/>"     "     <g stroke="#184918"><path d="M341 140h22v1h-22z" fill="#309230"/><path d="M341 142h1v22h-1zm2 0h1v23h-1z" fill="#309330"/></g>"     "     "     <path d="M345 142h11v3h-11zm0 4h7v5h-7z" fill="#309430" stroke="#184a18"/>"     "     <path d="M353 146h5v7h-5z" fill="#309530" stroke="#184a18"/>"     <path d="M359 146h1v23h-1zm2 0h1v23h-1z" fill="#309630" stroke="#184b18"/>"     "     <path d="M363 146h23v1h-23z" fill="#309730" stroke="#184b18"/>"     <path d="M363 148h11v3h-11zm0 4h5v7h-5z" fill="#309830" stroke="#184c18"/>"     "     <path d="M369 152h2v15h-2zm3 0h15v2h-15z" stroke="#184c18" fill="#309930"/>"     "     <g stroke="#184d18"><path d="M372 155h23v1h-23z" fill="#309a30"/><path d="M372 157h3v11h-3zm4 0h2v15h-2z" fill="#309b30"/></g>"     "     "     <g stroke="#184e18"><path d="M379 157h23v1h-23z" fill="#309c30"/><path d="M379 159h3v11h-3zm4 0h7v5h-7z" fill="#309d30"/></g>"     "     "     <path d="M391 159h5v7h-5zm6 0h6v6h-6z" fill="#309e30" stroke="#184f18"/>"     "     <path d="M404 159h4v9h-4z" fill="#309f30" stroke="#184f18"/>"     <path d="M409 159h4v9h-4zm5 0h4v9h-4z" fill="#30a030" stroke="#185018"/>"     "     <path d="M419 159h9v4h-9z" fill="#30a130" stroke="#185018"/>"     <path d="M419 164h9v4h-9zm-15 5h1v24h-1z" fill="#30a230" stroke="#185118"/>"     "     <path d="M406 169h16v2h-16zm0 3h3v12h-3z" stroke="#185118" fill="#30a330"/>"     "     <g stroke="#185218"><path d="M410 172h3v12h-3z" fill="#30a430"/><path d="M414 172h12v3h-12zm0 4h12v3h-12z" fill="#30a530"/></g>"     "     "     <g stroke="#185318"><path d="M414 180h8v5h-8z" fill="#30a630"/><path d="M423 180h8v5h-8zm9 0h5v8h-5z" fill="#30a730"/></g>"     "     "     <path d="M438 180h1v26h-1zm2 0h1v26h-1z" fill="#30a830" stroke="#185418"/>"     "     <path d="M442 180h17v2h-17z" fill="#30a930" stroke="#185418"/>"     <path d="M442 183h1v26h-1zm2 0h10v4h-10z" fill="#30aa30" stroke="#185518"/>"     "     <path d="M444 188h3v13h-3z" fill="#30ab30" stroke="#185518"/>"     <path d="M448 188h27v1h-27zm0 2h1v27h-1z" fill="#30ac30" stroke="#185618"/>"     "     <path d="M450 190h6v7h-6zm7 0h27v1h-27z" stroke="#185618" fill="#30ad30"/>"     "     <g stroke="#185718"><path d="M457 192h3v13h-3z" fill="#30ae30"/><path d="M461 192h13v3h-13zm0 4h6v7h-6z" fill="#30af30"/></g>"     "     "     <g stroke="#185818"><path d="M468 196h3v13h-3z" fill="#30b030"/><path d="M472 196h13v3h-13zm0 4h3v13h-3z" fill="#30b130"/></g>"     "     "     <path d="M476 200h7v6h-7zm8 0h13v3h-13z" fill="#30b230" stroke="#185918"/>"     "     <path d="M484 204h27v1h-27z" fill="#30b330" stroke="#185918"/>"     <path d="M484 206h6v7h-6zm7 0h27v1h-27z" fill="#30b430" stroke="#185a18"/>"     "     <path d="M491 208h2v18h-2z" fill="#30b530" stroke="#185a18"/>"     <path d="M494 208h18v2h-18zm0 3h18v2h-18z" fill="#30b630" stroke="#185b18"/>"     "     <path d="M494 214h18v2h-18zm0 3h18v2h-18z" stroke="#185b18" fill="#30b730"/>"     "     <g stroke="#185c18"><path d="M494 220h28v1h-28z" fill="#30b830"/><path d="M494 222h28v1h-28zm0 2h11v4h-11z" fill="#30b930"/></g>"     "     "     <g stroke="#185d18"><path d="M494 229h19v2h-19z" fill="#30ba30"/><path d="M494 232h11v4h-11zm0 5h19v2h-19z" fill="#30bb30"/></g>"     "     "     <path d="M494 240h4v11h-4zm5 0h19v2h-19z" fill="#30bc30" stroke="#185e18"/>"     "     <path d="M499 243h2v19h-2z" fill="#30bd30" stroke="#185e18"/>"     <path d="M502 243h14v3h-14zm0 4h3v14h-3z" fill="#30be30" stroke="#185f18"/>"     "     <path d="M506 247h9v5h-9z" fill="#30bf30" stroke="#185f18"/>"     <path d="M516 247h19v2h-19zm0 3h19v2h-19z" fill="#30c030" stroke="#186018"/>"     "     <path d="M506 253h3v14h-3zm4 0h1v30h-1z" stroke="#186018" fill="#30c130"/>"     "     <g stroke="#186118"><path d="M512 253h30v1h-30z" fill="#30c230"/><path d="M512 255h2v20h-2zm3 0h20v2h-20z" fill="#30c330"/></g>"     "     "     <path d="M515 258h6v8h-6zm7 0h2v20h-2z" fill="#30c430" stroke="#186218"/>"     "     <path d="M525 258h6v8h-6z" fill="#30c530" stroke="#186218"/>"     <path d="M532 258h7v7h-7zm8 0h15v3h-15z" fill="#30c630" stroke="#186318"/>"     "     <path d="M540 262h3v15h-3z" fill="#30c730" stroke="#186318"/>"     <path d="M544 262h3v15h-3zm4 0h4v12h-4z" fill="#30c830" stroke="#186418"/>"     "     <path d="M553 262h4v12h-4zm5 0h2v21h-2z" stroke="#186418" fill="#30c930"/>"     "     <g stroke="#186518"><path d="M561 262h10v5h-10z" fill="#30ca30"/><path d="M572 262h21v2h-21zm0 3h21v2h-21z" fill="#30cb30"/></g>"     "     "     <g stroke="#186618"><path d="M561 268h2v21h-2z" fill="#30cc30"/><path d="M564 268h2v21h-2zm3 0h21v2h-21z" fill="#30cd30"/></g>"     "     "     <path d="M567 271h21v2h-21zm0 3h3v16h-3z" fill="#30ce30" stroke="#186718"/>"     "     <path d="M571 274h2v22h-2z" fill="#30cf30" stroke="#186718"/>"     <path d="M574 274h2v22h-2zm3 0h6v9h-6z" fill="#30d030" stroke="#186818"/>"     "     <path d="M584 274h13v4h-13z" fill="#30d130" stroke="#186818"/>"     <path d="M584 279h13v4h-13zm-7 5h13v4h-13z" fill="#30d230" stroke="#186918"/>"     "     <path d="M577 289h4v13h-4zm5 0h3v17h-3z" stroke="#186918" fill="#30d330"/>"     "     <g stroke="#186a18"><path d="M586 289h11v5h-11z" fill="#30d430"/><path d="M586 295h5v11h-5zm6 0h3v17h-3z" fill="#30d530"/></g>"     "     "     <g stroke="#186b18"><path d="M596 295h2v23h-2z" fill="#30d630"/><path d="M599 295h23v2h-23zm0 3h17v3h-17z" fill="#30d730"/></g>"     "     "     <path d="M599 302h17v3h-17zm0 4h8v7h-8z" fill="#30d830" stroke="#186c18"/>"     "     <path d="M608 306h2v23h-2z" fill="#30d930" stroke="#186c18"/>"     <path d="M611 306h7v8h-7zm8 0h7v8h-7z" fill="#30da30" stroke="#186d18"/>"     "     <path d="M627 306h11v5h-11z" fill="#30db30" stroke="#186d18"/>"     <path d="M627 312h2v23h-2zm3 0h8v7h-8z" fill="#30dc30" stroke="#186e18"/>"     "     <path d="M639 306h24v2h-24zm0 3h24v2h-24z" stroke="#186e18" fill="#30dd30"/>"     "     <g stroke="#186f18"><path d="M639 312h4v14h-4z" fill="#30de30"/><path d="M644 312h2v24h-2zm3 0h14v4h-14z" fill="#30df30"/></g>"     "     "     <g stroke="#187018"><path d="M647 317h2v24h-2z" fill="#30e030"/><path d="M650 317h2v24h-2zm3 0h18v3h-18z" fill="#30e130"/></g>"     "     "     <path d="M653 321h3v18h-3zm4 0h3v18h-3z" fill="#30e230" stroke="#187118"/>"     "     <path d="M661 321h18v3h-18z" fill="#30e330" stroke="#187118"/>"     <path d="M661 325h18v3h-18zm0 4h3v18h-3z" fill="#30e430" stroke="#187218"/>"     "     <path d="M665 329h6v10h-6z" fill="#30e530" stroke="#187218"/>"     <path d="M672 329h6v10h-6zm7 0h10v6h-10z" fill="#30e630" stroke="#187318"/>"     "     <path d="M690 329h6v10h-6zm7 0h5v12h-5z" stroke="#187318" fill="#30e730"/>"     "     <g stroke="#187418"><path d="M703 329h25v2h-25z" fill="#30e830"/><path d="M703 332h12v5h-12zm0 6h12v5h-12z" fill="#30e930"/></g>"     "     "     <g stroke="#187518"><path d="M703 344h2v25h-2z" fill="#30ea30"/><path d="M706 344h15v4h-15zm0 5h7v9h-7z" fill="#30eb30"/></g>"     "     "     <path d="M714 349h3v19h-3zm4 0h3v19h-3z" fill="#30ec30" stroke="#187618"/>"     "     <path d="M722 344h15v4h-15z" fill="#30ed30" stroke="#187618"/>"     <path d="M722 349h9v7h-9zm10 0h26v2h-26z" fill="#30ee30" stroke="#187718"/>"     "     <path d="M732 352h8v8h-8z" fill="#30ef30" stroke="#187718"/>"     <path d="M741 352h26v2h-26zm0 3h8v8h-8z" fill="#30f030" stroke="#187818"/>"     "     <path d="M750 355h11v6h-11zm12 0h11v6h-11z" stroke="#187818" fill="#31f030"/>"     "     <g stroke="#197818"><path d="M750 362h20v3h-20z" fill="#32f030"/><path d="M750 366h5v13h-5zm6 0h27v2h-27z" fill="#33f030"/></g>"     "     "     <path d="M756 369h5v13h-5zm6 0h11v6h-11z" fill="#34f030" stroke="#1a7818"/>"     "     <path d="M774 369h11v6h-11z" fill="#35f030" stroke="#1a7818"/>"     <path d="M786 369h3v20h-3zm4 0h20v3h-20z" fill="#36f030" stroke="#1b7818"/>"     "     <path d="M790 373h20v3h-20z" fill="#37f030" stroke="#1b7818"/>"     <path d="M790 377h3v20h-3zm4 0h2v27h-2z" fill="#38f030" stroke="#1c7818"/>"     "     <path d="M797 377h16v4h-16zm0 5h16v4h-16z" stroke="#1c7818" fill="#39f030"/>"     "     <g stroke="#1d7818"><path d="M797 387h16v4h-16z" fill="#3af030"/><path d="M797 392h2v28h-2zm3 0h2v28h-2z" fill="#3bf030"/></g>"     "     "     <g stroke="#1e7818"><path d="M803 392h28v2h-28z" fill="#3cf030"/><path d="M803 395h28v2h-28zm0 3h7v10h-7z" fill="#3df030"/></g>"     "     "     <path d="M811 398h10v7h-10zm11 0h21v3h-21z" fill="#3ef030" stroke="#1f7818"/>"     "     <path d="M822 402h3v21h-3z" fill="#3ff030" stroke="#1f7818"/>"     <path d="M826 402h5v14h-5zm6 0h8v9h-8z" fill="#40f030" stroke="#207818"/>"     "     <path d="M841 402h8v9h-8z" fill="#41f030" stroke="#207818"/>"     <path d="M850 402h8v9h-8zm9 0h4v17h-4z" fill="#42f030" stroke="#217818"/>"     "     <path d="M864 402h14v5h-14zm0 6h4v17h-4z" stroke="#217818" fill="#43f030"/>"     "     <g stroke="#227818"><path d="M869 408h4v17h-4z" fill="#44f030"/><path d="M874 408h5v14h-5zm6 0h8v9h-8z" fill="#45f030"/></g>"     "     "     <g stroke="#237818"><path d="M889 408h29v2h-29z" fill="#46f030"/><path d="M889 411h6v12h-6zm7 0h22v3h-22z" fill="#47f030"/></g>"     "     "     <path d="M896 415h3v22h-3zm4 0h3v22h-3z" fill="#48f030" stroke="#247818"/>"     "     <path d="M904 415h2v30h-2z" fill="#49f030" stroke="#247818"/>"     <path d="M907 415h30v2h-30zm0 3h30v2h-30z" fill="#4af030" stroke="#257818"/>"     "     <path d="M907 421h30v2h-30z" fill="#4bf030" stroke="#257818"/>"     <path d="M907 424h4v18h-4zm5 0h4v18h-4z" fill="#4cf030" stroke="#267818"/>"     "     <path d="M917 424h15v5h-15zm0 6h15v5h-15z" stroke="#267818" fill="#4df030"/>"     "     <g stroke="#277818"><path d="M81 27h15v5H81z" fill="#4ef030"/><path d="M97 27h15v5H97zm820 409h7v11h-7z" fill="#4ff030"/></g>"     "     "     <g stroke="#287818"><path d="M113 27h23v3h-23z" fill="#50f030"/><path d="M113 31h23v4h-23zm24-4h23v3h-23z" fill="#51f030"/></g>"     "     "     <path d="M137 31h23v4h-23zm24-4h23v3h-23z" fill="#52f030" stroke="#297818"/>"     "     <path d="M925 436h5v15h-5z" fill="#53f030" stroke="#297818"/>"     <path d="M185 27h15v5h-15zm16 0h15v5h-15z" fill="#54f030" stroke="#2a7818"/>"     "     <path d="M114 51h13v6h-13z" fill="#55f030" stroke="#2a7818"/>"     <path d="M217 27h13v6h-13zm714 409h13v6h-13z" fill="#56f030" stroke="#2b7818"/>"     "     <path d="M128 51h13v6h-13zm103-24h10v8h-10z" stroke="#2b7818" fill="#57f030"/>"     "     <g stroke="#2c7818"><path d="M142 51h24v3h-24z" fill="#58f030"/><path d="M142 55h24v3h-24zm100-28h10v8h-10z" fill="#59f030"/></g>"     "     "     <g stroke="#2d7818"><path d="M253 27h19v4h-19z" fill="#5af030"/><path d="M167 51h19v4h-19zm106-24h24v3h-24z" fill="#5bf030"/></g>"     "     "     <path d="M273 31h24v4h-24zm-86 20h16v5h-16z" fill="#5cf030" stroke="#2e7818"/>"     "     <path d="M931 443h9v9h-9z" fill="#5df030" stroke="#2e7818"/>"     <path d="M204 51h16v5h-16zm94-24h16v5h-16z" fill="#5ef030" stroke="#2f7818"/>"     "     <path d="M221 51h12v7h-12z" fill="#5ff030" stroke="#2f7818"/>"     <path d="M315 27h25v3h-25zm0 4h25v4h-25z" fill="#60f030" stroke="#307818"/>"     "     <path d="M234 51h12v7h-12zM117 68h3v25h-3z" stroke="#307818" fill="#61f030"/>"     "     <g stroke="#317818"><path d="M121 68h9v25h-9z" fill="#62f030"/><path d="M247 51h25v3h-25zm0 4h25v3h-25z" fill="#63f030"/></g>"     "     "     <path d="M341 27h12v7h-12zm172 181h25v3h-25z" fill="#64f030" stroke="#327818"/>"     "     <path d="M513 212h25v7h-25z" fill="#65f030" stroke="#327818"/>"     <path d="M354 27h12v7h-12zm-81 24h12v7h-12z" fill="#66f030" stroke="#337818"/>"     "     <path d="M429 159h14v6h-14z" fill="#67f030" stroke="#337818"/>"     <path d="M367 27h14v6h-14zm-81 24h14v6h-14z" fill="#68f030" stroke="#347818"/>"     "     <path d="M414 186h11v8h-11zm527 257h3v26h-3z" stroke="#347818" fill="#69f030"/>"     "     <g stroke="#357818"><path d="M945 436h3v26h-3z" fill="#6af030"/><path d="M117 94h11v8h-11zm832 342h3v26h-3z" fill="#6bf030"/></g>"     "     "     <g stroke="#367818"><path d="M539 208h26v3h-26z" fill="#6cf030"/><path d="M539 212h26v7h-26zm-95-53h11v8h-11z" fill="#6df030"/></g>"     "     "     <path d="M301 51h26v3h-26zm81-24h21v4h-21z" fill="#6ef030" stroke="#377818"/>"     "     <path d="M117 103h10v9h-10z" fill="#6ff030" stroke="#377818"/>"     <path d="M414 195h10v9h-10zm42-36h10v9h-10z" fill="#70f030" stroke="#387818"/>"     "     <path d="M117 113h10v9h-10z" fill="#71f030" stroke="#387818"/>"     <path d="M404 27h15v6h-15zm63 132h27v3h-27z" fill="#72f030" stroke="#397818"/>"     "     <path d="M467 163h27v5h-27zM328 51h27v3h-27z" stroke="#397818" fill="#73f030"/>"     "     <g stroke="#3a7818"><path d="M953 436h3v27h-3z" fill="#74f030"/><path d="M414 205h3v27h-3zm4 0h13v27h-13z" fill="#75f030"/></g>"     "     "     <g stroke="#3b7818"><path d="M566 208h27v3h-27z" fill="#76f030"/><path d="M566 212h27v7h-27zm-449-89h7v13h-7z" fill="#77f030"/></g>"     "     "     <path d="M420 27h15v6h-15zm-64 24h27v3h-27z" fill="#78f030" stroke="#3c7818"/>"     "     <path d="M436 27h18v5h-18z" fill="#79f030" stroke="#3c7818"/>"     <path d="M495 159h22v4h-22zm0 5h22v4h-22z" fill="#7af030" stroke="#3d7818"/>"     "     <path d="M117 137h4v22h-4z" fill="#7bf030" stroke="#3d7818"/>"     <path d="M122 137h8v22h-8zm835 299h22v4h-22z" fill="#7cf030" stroke="#3e7818"/>"     "     <path d="M594 208h22v4h-22zm0 5h22v6h-22z" stroke="#3e7818" fill="#7df030"/>"     "     <g stroke="#3f7818"><path d="M455 27h22v4h-22z" fill="#7ef030"/><path d="M384 51h22v4h-22zm134 108h28v3h-28z" fill="#7ff030"/></g>"     "     "     <g stroke="#407818"><path d="M518 163h28v5h-28z" fill="#80f030"/><path d="M414 233h3v28h-3zm4 0h13v28h-13z" fill="#81f030"/></g>"     "     "     <path d="M407 51h28v3h-28zm0 4h28v3h-28z" fill="#82f030" stroke="#417818"/>"     "     <path d="M117 160h3v28h-3z" fill="#83f030" stroke="#417818"/>"     <path d="M121 160h9v28h-9zM478 27h12v8h-12z" fill="#84f030" stroke="#427818"/>"     "     <path d="M617 208h12v8h-12z" fill="#85f030" stroke="#427818"/>"     <path d="M957 441h8v12h-8zM51 19h29v3H51z" fill="#86f030" stroke="#437818"/>"     "     <path d="M491 27h12v8h-12zm-64 145h16v6h-16z" stroke="#437818" fill="#87f030"/>"     "     <g stroke="#447818"><path d="M547 159h16v6h-16z" fill="#88f030"/><path d="M630 208h16v6h-16zM81 19h29v3H81z" fill="#89f030"/></g>"     "     "     <g stroke="#457818"><path d="M436 51h29v3h-29z" fill="#8af030"/><path d="M436 55h29v3h-29zm68-28h14v7h-14z" fill="#8bf030"/></g>"     "     "     <path d="M444 172h14v7h-14zM255 97h19v5h-19z" fill="#8cf030" stroke="#467818"/>"     "     <path d="M564 159h11v9h-11z" fill="#8df030" stroke="#467818"/>"     <path d="M111 19h30v3h-30zm408 8h14v7h-14z" fill="#8ef030" stroke="#477818"/>"     "     <path d="M647 208h11v9h-11z" fill="#8ff030" stroke="#477818"/>"     <path d="M117 189h11v9h-11zm342-17h19v5h-19z" fill="#90f030" stroke="#487818"/>"     "     <path d="M414 262h11v9h-11zM275 97h19v5h-19z" stroke="#487818" fill="#91f030"/>"     "     <g stroke="#497818"><path d="M576 159h30v3h-30z" fill="#92f030"/><path d="M576 163h30v5h-30zM466 51h30v3h-30z" fill="#93f030"/></g>"     "     "     <path d="M466 55h30v3h-30zm-173 86h10v10h-10z" fill="#94f030" stroke="#4a7818"/>"     "     <path d="M293 152h10v10h-10z" fill="#95f030" stroke="#4a7818"/>"     <path d="M293 163h3v30h-3zm4 0h13v30h-13z" fill="#96f030" stroke="#4b7818"/>"     "     <path d="M293 194h3v30h-3z" fill="#97f030" stroke="#4b7818"/>"     <path d="M297 194h13v30h-13zm-4 31h3v30h-3z" fill="#98f030" stroke="#4c7818"/>"     "     <path d="M297 225h13v30h-13zm-4 31h4v24h-4z" stroke="#4c7818" fill="#99f030"/>"     "     <g stroke="#4d7818"><path d="M298 256h12v24h-12z" fill="#9af030"/><path d="M287 119h20v5h-20zm247-92h13v8h-13z" fill="#9bf030"/></g>"     "     "     <g stroke="#4e7818"><path d="M142 19h25v4h-25z" fill="#9cf030"/><path d="M117 199h5v20h-5zm6 0h7v20h-7z" fill="#9df030"/></g>"     "     "     <path d="M659 208h13v8h-13zM295 97h20v5h-20z" fill="#9ef030" stroke="#4f7818"/>"     "     <path d="M479 172h17v6h-17z" fill="#9ff030" stroke="#4f7818"/>"     <path d="M53 30h8v13h-8zm361 242h15v7h-15z" fill="#a0f030" stroke="#507818"/>"     "     <path d="M308 119h21v5h-21z" fill="#a1f030" stroke="#507818"/>"     <path d="M548 27h15v7h-15zm-380-8h26v4h-26z" fill="#a2f030" stroke="#517818"/>"     "     <path d="M598 274h12v9h-12zM316 97h21v5h-21z" stroke="#517818" fill="#a3f030"/>"     "     <g stroke="#527818"><path d="M966 441h12v9h-12z" fill="#a4f030"/><path d="M673 208h12v9h-12zM497 51h21v5h-21z" fill="#a5f030"/></g>"     "     "     <g stroke="#537818"><path d="M497 172h18v6h-18z" fill="#a6f030"/><path d="M53 44h6v18h-6zm361 236h10v11h-10z" fill="#a7f030"/></g>"     "     "     <path d="M607 159h18v6h-18zM293 281h11v10h-11z" fill="#a8f030" stroke="#547818"/>"     "     <path d="M330 119h26v4h-26z" fill="#a9f030" stroke="#547818"/>"     <path d="M564 27h18v6h-18zm-369-8h26v4h-26z" fill="#aaf030" stroke="#557818"/>"     "     <path d="M611 274h14v8h-14z" fill="#abf030" stroke="#557818"/>"     <path d="M338 97h26v4h-26zM117 220h10v11h-10z" fill="#acf030" stroke="#567818"/>"     "     <path d="M1 3h7v16H1zm515 169h16v7h-16z" stroke="#567818" fill="#adf030"/>"     "     <g stroke="#577818"><path d="M686 208h10v11h-10z" fill="#aef030"/><path d="M53 63h8v14h-8zm466-12h16v7h-16z" fill="#aff030"/></g>"     "     "     <g stroke="#587818"><path d="M222 19h27v4h-27z" fill="#b0f030"/><path d="M357 119h22v5h-22zm269 40h16v7h-16z" fill="#b1f030"/></g>"     "     "     <path d="M626 274h16v7h-16zm-212 18h11v10h-11z" fill="#b2f030" stroke="#597818"/>"     "     <path d="M583 27h22v5h-22z" fill="#b3f030" stroke="#597818"/>"     <path d="M293 292h5v22h-5zm6 0h11v22h-11z" fill="#b4f030" stroke="#5a7818"/>"     "     <path d="M365 97h22v5h-22z" fill="#b5f030" stroke="#5a7818"/>"     <path d="M1 20h5v22H1zm532 152h22v5h-22z" fill="#b6f030" stroke="#5b7818"/>"     "     <path d="M697 208h13v9h-13zm-580 24h6v19h-6z" stroke="#5b7818" fill="#b7f030"/>"     "     <g stroke="#5c7818"><path d="M124 232h6v19h-6z" fill="#b8f030"/><path d="M53 78h6v19h-6zm483-27h23v5h-23z" fill="#b9f030"/></g>"     "     "     <g stroke="#5d7818"><path d="M250 19h28v4h-28z" fill="#baf030"/><path d="M380 119h23v5h-23zm263 40h13v9h-13z" fill="#bbf030"/></g>"     "     "     <path d="M643 274h13v9h-13zM388 97h23v5h-23z" fill="#bcf030" stroke="#5e7818"/>"     "     <path d="M414 303h9v13h-9z" fill="#bdf030" stroke="#5e7818"/>"     <path d="M711 208h13v9h-13zM606 27h17v7h-17z" fill="#bef030" stroke="#5f7818"/>"     "     <path d="M1 43h5v23H1z" fill="#bff030" stroke="#5f7818"/>"     <path d="M556 172h23v5h-23zM53 98h7v17h-7z" fill="#c0f030" stroke="#607818"/>"     "     <path d="M279 19h28v4h-28zm125 100h23v5h-23z" stroke="#607818" fill="#c1f030"/>"     "     <g stroke="#617818"><path d="M560 51h23v5h-23z" fill="#c2f030"/><path d="M716 332h13v9h-13zm-59-173h15v8h-15z" fill="#c3f030"/></g>"     "     "     <path d="M657 274h23v5h-23zM412 97h24v5h-24z" fill="#c4f030" stroke="#627818"/>"     "     <path d="M966 451h10v12h-10z" fill="#c5f030" stroke="#627818"/>"     <path d="M117 252h12v10h-12zM624 27h15v8h-15z" fill="#c6f030" stroke="#637818"/>"     "     <path d="M725 208h12v10h-12z" fill="#c7f030" stroke="#637818"/>"     <path d="M308 19h29v4h-29zm120 100h24v5h-24z" fill="#c8f030" stroke="#647818"/>"     "     <path d="M53 116h6v20h-6zM1 67h6v20H1z" stroke="#647818" fill="#c9f030"/>"     "     <g stroke="#657818"><path d="M293 315h11v11h-11z" fill="#caf030"/><path d="M580 172h20v6h-20zm150 160h11v11h-11z" fill="#cbf030"/></g>"     "     "     <g stroke="#667818"><path d="M584 51h20v6h-20z" fill="#ccf030"/><path d="M437 97h29v4h-29zm-23 220h4v29h-4z" fill="#cdf030"/></g>"     "     "     <path d="M419 317h12v29h-12zm254-158h24v5h-24z" fill="#cef030" stroke="#677818"/>"     "     <path d="M117 263h9v14h-9z" fill="#cff030" stroke="#677818"/>"     <path d="M640 27h18v7h-18zm98 181h18v7h-18z" fill="#d0f030" stroke="#687818"/>"     "     <path d="M681 274h18v7h-18z" fill="#d1f030" stroke="#687818"/>"     <path d="M338 19h30v4h-30zm115 100h30v4h-30z" fill="#d2f030" stroke="#697818"/>"     "     <path d="M1 88h7v18H1zm741 244h18v7h-18z" stroke="#697818" fill="#d3f030"/>"     "     <g stroke="#6a7818"><path d="M601 172h21v6h-21z" fill="#d4f030"/><path d="M322 137h8v16h-8zm-269 0h8v16h-8z" fill="#d5f030"/></g>"     "     "     <g stroke="#6b7818"><path d="M605 51h21v6h-21z" fill="#d6f030"/><path d="M293 327h16v8h-16zM467 97h30v4h-30z" fill="#d7f030"/></g>"     "     "     <path d="M659 27h16v8h-16zM117 278h8v16h-8z" fill="#d8f030" stroke="#6c7818"/>"     "     <path d="M762 376h16v8h-16z" fill="#d9f030" stroke="#6c7818"/>"     <path d="M221 102h5v25h-5zm477 57h16v8h-16z" fill="#daf030" stroke="#6d7818"/>"     "     <path d="M617 298h25v5h-25z" fill="#dbf030" stroke="#6d7818"/>"     <path d="M700 274h19v7h-19zM1 107h7v19H1z" fill="#dcf030" stroke="#6e7818"/>"     "     <path d="M484 119h26v5h-26zm-162 35h7v19h-7z" stroke="#6e7818" fill="#ddf030"/>"     "     <g stroke="#6f7818"><path d="M53 154h7v19h-7z" fill="#def030"/><path d="M757 208h13v10h-13zm-134-36h22v6h-22z" fill="#dff030"/></g>"     "     "     <g stroke="#707818"><path d="M293 336h13v10h-13z" fill="#e0f030"/><path d="M244 114h6v22h-6zm383-63h23v6h-23z" fill="#e1f030"/></g>"     "     "     <path d="M611 315h12v11h-12zm150 17h12v11h-12z" fill="#e2f030" stroke="#717818"/>"     "     <path d="M814 377h15v9h-15z" fill="#e3f030" stroke="#717818"/>"     <path d="M498 97h27v5h-27zm178-70h17v8h-17z" fill="#e4f030" stroke="#727818"/>"     "     <path d="M106 68h6v23h-6z" fill="#e5f030" stroke="#727818"/>"     <path d="M135 68h5v27h-5zm125 56h7v20h-7z" fill="#e6f030" stroke="#737818"/>"     "     <path d="M715 159h15v9h-15zM1 127h5v28H1z" stroke="#737818" fill="#e7f030"/>"     "     <g stroke="#747818"><path d="M762 385h9v15h-9z" fill="#e8f030"/><path d="M772 385h13v15h-13zM511 119h28v5h-28z" fill="#e9f030"/></g>"     "     "     <g stroke="#757818"><path d="M221 128h5v28h-5z" fill="#eaf030"/><path d="M117 295h9v15h-9zm603-21h15v9h-15z" fill="#ebf030"/></g>"     "     "     <path d="M322 174h8v17h-8zm-269 0h8v17h-8z" fill="#ecf030" stroke="#767818"/>"     "     <path d="M771 208h17v8h-17z" fill="#edf030" stroke="#767818"/>"     <path d="M643 298h28v5h-28zm3-126h24v6h-24z" fill="#eef030" stroke="#777818"/>"     "     <path d="M17 8h5v29h-5z" fill="#eff030" stroke="#777818"/>"     <path d="M774 332h17v8h-17zM244 137h6v24h-6z" fill="#f0f030" stroke="#787818"/>"     "     <path d="M27 12h5v29h-5zm387 335h8v17h-8z" stroke="#787818" fill="#f0f031"/>"     "     <g stroke="#787819"><path d="M423 347h8v17h-8z" fill="#f0f032"/><path d="M293 347h8v17h-8zm9 0h8v17h-8z" fill="#f0f033"/></g>"     "     "     <path d="M651 51h24v6h-24zM526 97h29v5h-29z" fill="#f0f034" stroke="#78781a"/>"     "     <path d="M977 451h14v10h-14z" fill="#f0f035" stroke="#78781a"/>"     <path d="M611 327h14v10h-14zm83-300h18v8h-18z" fill="#f0f036" stroke="#78781b"/>"     "     <path d="M311 141h7v21h-7z" fill="#f0f037" stroke="#78781b"/>"     <path d="M201 91h5v29h-5zm530 68h16v9h-16z" fill="#f0f038" stroke="#78781c"/>"     "     <path d="M260 145h7v21h-7zM106 92h6v25h-6z" stroke="#78781c" fill="#f0f039"/>"     "     <g stroke="#78781d"><path d="M830 377h10v14h-10z" fill="#f0f03a"/><path d="M536 247h30v5h-30zM135 96h6v25h-6z" fill="#f0f03b"/></g>"     "     "     <g stroke="#78781e"><path d="M47 27h5v30h-5z" fill="#f0f03c"/><path d="M540 119h30v5h-30zm196 155h16v9h-16z" fill="#f0f03d"/></g>"     "     "     <path d="M322 192h8v18h-8zm-269 0h7v21h-7z" fill="#f0f03e" stroke="#78781f"/>"     "     <path d="M345 152h6v25h-6z" fill="#f0f03f" stroke="#78781f"/>"     <path d="M1 156h7v22H1zm788 52h14v10h-14z" fill="#f0f040" stroke="#787820"/>"     "     <path d="M17 38h5v30h-5z" fill="#f0f041" stroke="#787820"/>"     <path d="M221 157h7v22h-7zM117 311h10v14h-10z" fill="#f0f042" stroke="#787821"/>"     "     <path d="M671 172h22v7h-22zm1 126h22v7h-22z" stroke="#787821" fill="#f0f043"/>"     "     <g stroke="#787822"><path d="M611 338h10v14h-10z" fill="#f0f044"/><path d="M713 27h19v8h-19zm79 305h13v11h-13z" fill="#f0f045"/></g>"     "     "     <g stroke="#787823"><path d="M244 162h7v22h-7z" fill="#f0f046"/><path d="M311 163h6v26h-6zM676 51h26v6h-26z" fill="#f0f047"/></g>"     "     "     <path d="M748 159h16v9h-16zm-365 6h6v26h-6z" fill="#f0f048" stroke="#787824"/>"     "     <path d="M841 377h13v11h-13z" fill="#f0f049" stroke="#787824"/>"     <path d="M260 167h6v26h-6zm-154-49h6v27h-6z" fill="#f0f04a" stroke="#787825"/>"     "     <path d="M680 321h23v7h-23z" fill="#f0f04b" stroke="#787825"/>"     <path d="M832 412h11v13h-11zm12 0h14v13h-14z" fill="#f0f04c" stroke="#787826"/>"     "     <path d="M753 274h16v9h-16zM201 121h6v27h-6z" stroke="#787826" fill="#f0f04d"/>"     "     <g stroke="#787827"><path d="M135 122h6v27h-6z" fill="#f0f04e"/><path d="M322 211h8v20h-8zm440 190h13v11h-13z" fill="#f0f04f"/></g>"     "     "     <g stroke="#787828"><path d="M53 214h8v20h-8z" fill="#f0f050"/><path d="M414 365h11v13h-11zm-121 0h11v13h-11z" fill="#f0f051"/></g>"     "     "     <path d="M345 178h7v23h-7zm459 30h13v11h-13z" fill="#f0f052" stroke="#787829"/>"     "     <path d="M1 179h7v23H1z" fill="#f0f053" stroke="#787829"/>"     <path d="M221 180h7v23h-7zm585 152h13v11h-13z" fill="#f0f054" stroke="#78782a"/>"     "     <path d="M694 172h27v6h-27z" fill="#f0f055" stroke="#78782a"/>"     <path d="M117 326h12v12h-12zm578-28h27v6h-27z" fill="#f0f056" stroke="#78782b"/>"     "     <path d="M733 27h20v8h-20zm32 132h16v9h-16z" stroke="#78782b" fill="#f0f057"/>"     "     <g stroke="#78782c"><path d="M406 185h7v24h-7z" fill="#f0f058"/><path d="M244 185h7v24h-7zm367 168h12v12h-12z" fill="#f0f059"/></g>"     "     "     <g stroke="#78782d"><path d="M311 190h7v24h-7z" fill="#f0f05a"/><path d="M855 377h12v12h-12zM703 51h24v7h-24z" fill="#f0f05b"/></g>"     "     "     <path d="M770 274h17v9h-17zm-66 47h24v7h-24z" fill="#f0f05c" stroke="#78782e"/>"     "     <path d="M729 321h15v10h-15z" fill="#f0f05d" stroke="#78782e"/>"     <path d="M745 321h15v10h-15zm16 0h15v10h-15z" fill="#f0f05e" stroke="#78782f"/>"     "     <path d="M777 321h15v10h-15z" fill="#f0f05f" stroke="#78782f"/>"     <path d="M793 321h15v10h-15zM383 192h7v25h-7z" fill="#f0f060" stroke="#787830"/>"     "     <path d="M106 146h6v29h-6zm154 48h7v25h-7z" stroke="#787830" fill="#f0f061"/>"     "     <g stroke="#787831"><path d="M322 232h8v20h-8z" fill="#f0f062"/><path d="M201 149h6v29h-6zm-66 1h6v29h-6z" fill="#f0f063"/></g>"     "     "     <path d="M818 208h15v10h-15zM53 235h8v21h-8z" fill="#f0f064" stroke="#787832"/>"     "     <path d="M820 332h14v11h-14z" fill="#f0f065" stroke="#787832"/>"     <path d="M345 202h7v25h-7zM1 203h7v25H1z" fill="#f0f066" stroke="#787833"/>"     "     <path d="M977 462h14v11h-14z" fill="#f0f067" stroke="#787833"/>"     <path d="M221 204h7v25h-7zM117 339h9v17h-9z" fill="#f0f068" stroke="#787834"/>"     "     <path d="M782 159h17v9h-17zM665 340h11v14h-11z" stroke="#787834" fill="#f0f069"/>"     "     <g stroke="#787835"><path d="M754 27h21v8h-21z" fill="#f0f06a"/><path d="M476 207h7v25h-7zm-62 172h14v11h-14z" fill="#f0f06b"/></g>"     "     "     <g stroke="#787836"><path d="M293 379h9v17h-9z" fill="#f0f06c"/><path d="M762 413h12v13h-12zM397 166h6v30h-6z" fill="#f0f06d"/></g>"     "     "     <path d="M722 172h26v7h-26zm-316 38h7v26h-7z" fill="#f0f06e" stroke="#787837"/>"     "     <path d="M244 210h7v26h-7z" fill="#f0f06f" stroke="#787837"/>"     <path d="M723 298h26v7h-26zm-175-23h9v18h-9z" fill="#f0f070" stroke="#787838"/>"     "     <path d="M809 321h16v10h-16z" fill="#f0f071" stroke="#787838"/>"     <path d="M788 274h21v8h-21zm80 103h16v10h-16z" fill="#f0f072" stroke="#787839"/>"     "     <path d="M311 215h7v26h-7zm300 151h10v16h-10z" stroke="#787839" fill="#f0f073"/>"     "     <g stroke="#78783a"><path d="M832 426h10v16h-10z" fill="#f0f074"/><path d="M843 426h15v16h-15zM728 51h26v7h-26z" fill="#f0f075"/></g>"     "     "     <g stroke="#78783b"><path d="M383 218h7v26h-7z" fill="#f0f076"/><path d="M106 176h6v30h-6zm216 77h8v21h-8z" fill="#f0f077"/></g>"     "     "     <path d="M260 220h7v26h-7zm-59-41h6v30h-6z" fill="#f0f078" stroke="#78783c"/>"     "     <path d="M53 257h8v21h-8z" fill="#f0f079" stroke="#78783c"/>"     <path d="M834 208h16v10h-16zm1 124h15v11h-15z" fill="#f0f07a" stroke="#78783d"/>"     "     <path d="M345 228h7v27h-7z" fill="#f0f07b" stroke="#78783d"/>"     <path d="M1 229h7v27H1zm799-70h22v8h-22z" fill="#f0f07c" stroke="#78783e"/>"     "     <path d="M221 230h7v27h-7zM776 27h23v8h-23z" stroke="#78783e" fill="#f0f07d"/>"     "     <g stroke="#78783f"><path d="M665 355h11v15h-11z" fill="#f0f07e"/><path d="M476 233h7v28h-7zm-62 158h11v15h-11z" fill="#f0f07f"/></g>"     "     "     <g stroke="#787840"><path d="M117 357h11v15h-11z" fill="#f0f080"/><path d="M826 321h17v10h-17zm-278-27h9v20h-9z" fill="#f0f081"/></g>"     "     "     <path d="M749 172h28v7h-28zm-343 65h7v28h-7z" fill="#f0f082" stroke="#787841"/>"     "     <path d="M244 237h7v28h-7z" fill="#f0f083" stroke="#787841"/>"     <path d="M750 298h28v7h-28zm60-24h20v9h-20z" fill="#f0f084" stroke="#787842"/>"     "     <path d="M311 242h7v28h-7z" fill="#f0f085" stroke="#787842"/>"     <path d="M322 275h8v23h-8zM755 51h29v7h-29z" fill="#f0f086" stroke="#787843"/>"     "     <path d="M885 377h15v11h-15zM383 245h7v29h-7z" stroke="#787843" fill="#f0f087"/>"     "     <g stroke="#787844"><path d="M293 397h12v14h-12z" fill="#f0f088"/><path d="M53 279h8v23h-8zm207-32h7v29h-7z" fill="#f0f089"/></g>"     "     "     <g stroke="#787845"><path d="M611 383h14v12h-14z" fill="#f0f08a"/><path d="M851 208h16v11h-16zm0 124h16v11h-16z" fill="#f0f08b"/></g>"     "     "     <path d="M762 427h14v12h-14zM582 307h9v20h-9z" fill="#f0f08c" stroke="#787846"/>"     "     <path d="M345 256h7v29h-7z" fill="#f0f08d" stroke="#787846"/>"     <path d="M823 159h20v9h-20zM800 27h23v8h-23z" fill="#f0f08e" stroke="#787847"/>"     "     <path d="M1 257h7v29H1z" fill="#f0f08f" stroke="#787847"/>"     <path d="M221 258h7v30h-7zm444 113h13v13h-13z" fill="#f0f090" stroke="#787848"/>"     "     <path d="M844 321h18v10h-18zm-296-6h9v20h-9z" stroke="#787848" fill="#f0f091"/>"     "     <g stroke="#787849"><path d="M476 262h7v30h-7z" fill="#f0f092"/><path d="M117 373h11v16h-11zm562-37h10v18h-10z" fill="#f0f093"/></g>"     "     "     <path d="M831 274h20v9h-20zm-53-102h30v7h-30z" fill="#f0f094" stroke="#78784a"/>"     "     <path d="M406 266h7v30h-7z" fill="#f0f095" stroke="#78784a"/>"     <path d="M532 266h7v30h-7zm-210 33h8v23h-8z" fill="#f0f096" stroke="#78784b"/>"     "     <path d="M414 407h11v16h-11z" fill="#f0f097" stroke="#78784b"/>"     <path d="M832 443h11v16h-11zm12 0h14v16h-14z" fill="#f0f098" stroke="#78784c"/>"     "     <path d="M868 208h18v10h-18zm0 124h18v10h-18z" stroke="#78784c" fill="#f0f099"/>"     "     <g stroke="#78784d"><path d="M53 303h8v23h-8z" fill="#f0f09a"/><path d="M977 474h15v12h-15zm0 13h15v25h-15z" fill="#f0f09b"/></g>"     "     "     <g stroke="#78784e"><path d="M611 396h12v15h-12z" fill="#f0f09c"/><path d="M901 377h13v14h-13zm-319-49h9v20h-9z" fill="#f0f09d"/></g>"     "     "     <path d="M293 412h14v13h-14zm551-253h21v9h-21z" fill="#f0f09e" stroke="#78784f"/>"     "     <path d="M824 27h24v8h-24z" fill="#f0f09f" stroke="#78784f"/>"     <path d="M665 385h13v14h-13zm-66-71h8v24h-8z" fill="#f0f0a0" stroke="#787850"/>"     "     <path d="M863 321h21v9h-21z" fill="#f0f0a1" stroke="#787850"/>"     <path d="M548 336h9v21h-9zm214 104h17v11h-17z" fill="#f0f0a2" stroke="#787851"/>"     "     <path d="M679 355h10v19h-10zm-49-35h8v24h-8z" stroke="#787851" fill="#f0f0a3"/>"     "     <g stroke="#787852"><path d="M117 390h11v17h-11z" fill="#f0f0a4"/><path d="M852 274h24v8h-24zm-530 49h8v24h-8z" fill="#f0f0a5"/></g>"     "     "     <g stroke="#787853"><path d="M53 327h8v24h-8z" fill="#f0f0a6"/><path d="M887 208h17v11h-17zm0 124h19v10h-19z" fill="#f0f0a7"/></g>"     "     "     <path d="M915 377h19v10h-19zm-333-28h9v22h-9z" fill="#f0f0a8" stroke="#787854"/>"     "     <path d="M611 412h12v16h-12z" fill="#f0f0a9" stroke="#787854"/>"     <path d="M414 424h16v12h-16zm251-24h12v16h-12z" fill="#f0f0aa" stroke="#787855"/>"     "     <path d="M866 159h25v8h-25z" fill="#f0f0ab" stroke="#787855"/>"     <path d="M849 27h25v8h-25zM293 426h16v12h-16z" fill="#f0f0ac" stroke="#787856"/>"     "     <path d="M599 339h8v25h-8zm123 18h9v23h-9z" stroke="#787856" fill="#f0f0ad"/>"     "     <g stroke="#787857"><path d="M548 358h9v23h-9z" fill="#f0f0ae"/><path d="M885 321h20v10h-20zm-206 54h10v20h-10z" fill="#f0f0af"/></g>"     "     "     <g stroke="#787858"><path d="M630 345h8v26h-8z" fill="#f0f0b0"/><path d="M117 408h12v16h-12zm645 44h12v16h-12z" fill="#f0f0b1"/></g>"     "     "     <path d="M322 348h8v26h-8zm555-74h24v9h-24z" fill="#f0f0b2" stroke="#787859"/>"     "     <path d="M905 208h18v11h-18z" fill="#f0f0b3" stroke="#787859"/>"     <path d="M832 460h14v14h-14zM53 352h8v27h-8z" fill="#f0f0b4" stroke="#78785a"/>"     "     <path d="M907 332h18v11h-18z" fill="#f0f0b5" stroke="#78785a"/>"     <path d="M582 372h9v24h-9zm-168 65h14v14h-14z" fill="#f0f0b6" stroke="#78785b"/>"     "     <path d="M935 377h14v14h-14zm-203-16h8v27h-8z" stroke="#78785b" fill="#f0f0b7"/>"     "     <g stroke="#78785c"><path d="M611 429h11v18h-11z" fill="#f0f0b8"/><path d="M665 417h11v18h-11zm-372 22h11v18h-11z" fill="#f0f0b9"/></g>"     "     "     <g stroke="#78785d"><path d="M875 27h27v8h-27z" fill="#f0f0ba"/><path d="M741 364h8v27h-8zm151-205h24v9h-24z" fill="#f0f0bb"/></g>"     "     "     <path d="M599 365h8v27h-8zm123 16h9v24h-9z" fill="#f0f0bc" stroke="#78785e"/>"     "     <path d="M906 321h21v10h-21z" fill="#f0f0bd" stroke="#78785e"/>"     <path d="M548 382h9v25h-9zm131 14h10v21h-10z" fill="#f0f0be" stroke="#78785f"/>"     "     <path d="M993 474h11v18h-11z" fill="#f0f0bf" stroke="#78785f"/>"     <path d="M993 493h11v19h-11zM630 372h8v28h-8z" fill="#f0f0c0" stroke="#787860"/>"     "     <path d="M117 425h12v17h-12zm205-50h8v28h-8z" stroke="#787860" fill="#f0f0c1"/>"     "     <g stroke="#787861"><path d="M924 208h19v11h-19z" fill="#f0f0c2"/><path d="M902 274h28v8h-28zm24 58h19v11h-19z" fill="#f0f0c3"/></g>"     "     "     <path d="M53 380h8v28h-8zm758 26h10v21h-10z" fill="#f0f0c4" stroke="#787862"/>"     "     <path d="M582 397h8v28h-8z" fill="#f0f0c5" stroke="#787862"/>"     <path d="M950 377h17v12h-17zm-17 47h19v11h-19z" fill="#f0f0c6" stroke="#787863"/>"     "     <path d="M414 452h12v17h-12z" fill="#f0f0c7" stroke="#787863"/>"     <path d="M732 389h8v28h-8zm-67 47h12v17h-12z" fill="#f0f0c8" stroke="#787864"/>"     "     <path d="M903 27h29v8h-29zm25 294h21v10h-21z" stroke="#787864" fill="#f0f0c9"/>"     "     <g stroke="#787865"><path d="M762 469h12v17h-12z" fill="#f0f0ca"/><path d="M741 392h8v29h-8zm176-233h26v9h-26z" fill="#f0f0cb"/></g>"     "     "     <g stroke="#787866"><path d="M599 393h8v29h-8z" fill="#f0f0cc"/><path d="M611 448h12v17h-12zm111-42h9v26h-9z" fill="#f0f0cd"/></g>"     "     "     <path d="M679 418h10v22h-10zm153 57h13v16h-13z" fill="#f0f0ce" stroke="#787867"/>"     "     <path d="M548 408h9v26h-9z" fill="#f0f0cf" stroke="#787867"/>"     <path d="M293 458h16v13h-16zm-176-15h13v16h-13z" fill="#f0f0d0" stroke="#787868"/>"     "     <path d="M630 401h8v29h-8z" fill="#f0f0d1" stroke="#787868"/>"     <path d="M944 208h19v11h-19zm2 124h19v11h-19z" fill="#f0f0d2" stroke="#787869"/>"     "     <path d="M322 404h8v30h-8zm489 24h10v22h-10z" stroke="#787869" fill="#f0f0d3"/>"     "     <g stroke="#78786a"><path d="M931 274h26v9h-26z" fill="#f0f0d4"/><path d="M968 377h16v13h-16zm-15 47h20v11h-20z" fill="#f0f0d5"/></g>"     "     "     <g stroke="#78786b"><path d="M864 426h9v26h-9z" fill="#f0f0d6"/><path d="M582 426h9v27h-9zm83 28h13v16h-13z" fill="#f0f0d7"/></g>"     "     "     <path d="M950 321h23v10h-23zm55 153h16v13h-16z" fill="#f0f0d8" stroke="#78786c"/>"     "     <path d="M1005 488h19v24h-19z" fill="#f0f0d9" stroke="#78786c"/>"     <path d="M414 470h15v14h-15zm0 15h17v27h-17z" fill="#f0f0da" stroke="#78786d"/>"     "     <path d="M944 159h27v9h-27z" fill="#f0f0db" stroke="#78786d"/>"     <path d="M679 441h10v23h-10zm43-8h9v27h-9z" fill="#f0f0dc" stroke="#78786e"/>"     "     <path d="M992 451h14v15h-14zm15 0h17v22h-17z" stroke="#78786e" fill="#f0f0dd"/>"     "     <g stroke="#78786f"><path d="M611 466h15v14h-15z" fill="#f0f0de"/><path d="M293 472h14v15h-14zm0 16h17v24h-17z" fill="#f0f0df"/></g>"     "     "     <g stroke="#787870"><path d="M117 460h12v18h-12z" fill="#f0f0e0"/><path d="M964 208h20v11h-20zM548 435h9v29h-9z" fill="#f0f0e1"/></g>"     "     "     <path d="M966 332h20v11h-20zM811 451h10v23h-10z" fill="#f0f0e2" stroke="#787871"/>"     "     <path d="M907 443h9v30h-9z" fill="#f0f0e3" stroke="#787871"/>"     <path d="M762 487h14v15h-14zm223-110h15v14h-15z" fill="#f0f0e4" stroke="#787872"/>"     "     <path d="M1001 377h23v14h-23z" fill="#f0f0e5" stroke="#787872"/>"     <path d="M974 424h20v11h-20zm21 0h29v11h-29z" fill="#f0f0e6" stroke="#787873"/>"     "     <path d="M665 471h12v18h-12zm0 19h13v22h-13z" stroke="#787873" fill="#f0f0e7"/>"     "     <g stroke="#787874"><path d="M832 492h12v18h-12z" fill="#f0f0e8"/><path d="M845 492h13v20h-13zm129-171h24v10h-24z" fill="#f0f0e9"/></g>"     "     "     <g stroke="#787875"><path d="M999 321h25v10h-25z" fill="#f0f0ea"/><path d="M611 481h12v18h-12zm355-17h10v24h-10z" fill="#f0f0eb"/></g>"     "     "     <path d="M679 465h10v24h-10zm-562 14h13v17h-13z" fill="#f0f0ec" stroke="#787876"/>"     "     <path d="M985 208h21v11h-21z" fill="#f0f0ed" stroke="#787876"/>"     <path d="M987 332h21v11h-21zM811 475h10v24h-10z" fill="#f0f0ee" stroke="#787877"/>"     "     <path d="M775 452h10v24h-10z" fill="#f0f0ef" stroke="#787877"/>"     <text y="526" font-size="12" fill="#000" x="0"> MaxRectsBin(size: 1024x512, choice: WorstAreaFit, method: MinimizeArea): inserted 924 of 1536 rectangles with w/h lengths between [2, 31], occupancy: 23.53% </text></svg>