<svg xmlns="http://www.w3.org/2000/svg" viewBox="0 0 1024 536" xmlns:v="https://vecta.io/nano"><path d="M0 0h1024v512H0z" fill="#fff" stroke="#000"/>"     <path d="M1 1h30v19H1zm0 20h7v30H1zm8 0h22v30H9z" fill="#303030" stroke="#181818"/>"     "     "     <path d="M1 52h18v30H1zm19 0h11v30H20zM1 83h7v30H1z" stroke="#181818" fill="#303130"/>"     "     "     <path d="M9 83h22v30H9zm-8 31h16v30H1z" fill="#303230" stroke="#181918"/>"     "     <path d="M18 114h13v30H18zM1 145h20v30H1zm21 0h9v30h-9z" stroke="#181918" fill="#303330"/>"     "     "     <path d="M1 176h15v30H1zm16 0h14v30H17zM1 207h15v30H1z" fill="#303430" stroke="#181a18"/>"     "     "     <path d="M17 207h14v30H17zM1 238h3v30H1z" stroke="#181a18" fill="#303530"/>"     "     <path d="M5 238h26v30H5zm-4 31h17v30H1zm18 0h12v30H19z" fill="#303630" stroke="#181b18"/>"     "     "     <path d="M1 300h21v30H1zm22 0h8v30h-8zM1 331h29v30H1z" stroke="#181b18" fill="#303730"/>"     "     "     <path d="M1 362h13v30H1zm14 0h15v29H15z" fill="#303830" stroke="#181c18"/>"     "     <path d="M1 393h7v30H1zm0 31h1v30H1zm0 31h1v27H1z" stroke="#181c18" fill="#303930"/>"     "     "     <path d="M1 483h1v26H1zm0 27h1v2H1zm2-86h5v30H3z" fill="#303a30" stroke="#181d18"/>"     "     "     <path d="M3 455h3v30H3zm4 0h1v30H7z" stroke="#181d18" fill="#303b30"/>"     "     <path d="M3 486h5v26H3zm6-93h21v30H9zm0 31h15v30H9z" fill="#303c30" stroke="#181e18"/>"     "     "     <path d="M25 424h6v30h-6zM9 455h20v30H9zm0 31h22v26H9z" stroke="#181e18" fill="#303d30"/>"     "     "     <path d="M30 455h1v26h-1zm0 27h1v3h-1z" fill="#303e30" stroke="#181f18"/>"     "     <path d="M32 1h30v17H32zm0 18h28v30H32zm29 0h1v26h-1z" stroke="#181f18" fill="#303f30"/>"     "     "     <path d="M61 46h1v3h-1zm-29 4h29v30H32zm0 31h28v30H32z" fill="#304030" stroke="#182018"/>"     "     "     <path d="M61 81h1v24h-1zm0 25h1v5h-1z" stroke="#182018" fill="#304130"/>"     "     <path d="M32 112h28v30H32zm29 0h1v23h-1zm0 24h1v6h-1z" fill="#304230" stroke="#182118"/>"     "     "     <path d="M32 143h20v30H32zm21 0h8v29h-8zm-21 31h23v30H32z" stroke="#182118" fill="#304330"/>"     "     "     <path d="M56 174h6v30h-6zm-24 31h28v30H32z" fill="#304430" stroke="#182218"/>"     "     <path d="M61 205h1v23h-1zm0 24h1v6h-1zm-29 7h27v30H32z" stroke="#182218" fill="#304530"/>"     "     "     <path d="M60 236h2v30h-2zm-28 31h5v30h-5zm6 0h24v30H38z" fill="#304630" stroke="#182318"/>"     "     "     <path d="M32 298h5v30h-5zm6 0h24v29H38z" stroke="#182318" fill="#304730"/>"     "     <path d="M32 329h18v30H32zm19 0h11v30H51zm-19 31h23v30H32z" fill="#304830" stroke="#182418"/>"     "     "     <path d="M56 360h6v30h-6zm-24 31h23v30H32zm24 0h6v29h-6z" stroke="#182418" fill="#304930"/>"     "     "     <path d="M32 422h17v30H32zm18 0h12v30H50z" fill="#304a30" stroke="#182518"/>"     "     <path d="M32 453h22v30H32zm23 0h7v30h-7zm-23 31h29v27H32z" stroke="#182518" fill="#304b30"/>"     "     "     <path d="M63 1h30v27H63zm0 28h7v30h-7zm8 0h22v30H71z" fill="#304c30" stroke="#182618"/>"     "     "     <path d="M63 60h10v30H63zm11 0h19v30H74z" stroke="#182618" fill="#304d30"/>"     "     <path d="M63 91h10v30H63zm11 0h19v30H74zm-11 31h21v30H63z" fill="#304e30" stroke="#182718"/>"     "     "     <path d="M85 122h7v29h-7zm-22 31h5v30h-5zm6 0h23v28H69z" stroke="#182718" fill="#304f30"/>"     "     "     <path d="M69 182h23v1H69zm-6 2h3v30h-3z" fill="#305030" stroke="#182818"/>"     "     <path d="M67 184h26v30H67zm-4 31h2v30h-2zm0 31h2v28h-2z" stroke="#182818" fill="#305130"/>"     "     "     <path d="M63 275h2v28h-2zm0 29h2v27h-2zm0 28h2v25h-2z" fill="#305230" stroke="#182918"/>"     "     "     <path d="M63 358h2v24h-2zm0 25h2v24h-2z" stroke="#182918" fill="#305330"/>"     "     <path d="M63 408h2v24h-2zm0 25h2v23h-2zm0 24h2v23h-2z" fill="#305430" stroke="#182a18"/>"     "     "     <path d="M63 481h2v23h-2zm0 24h2v7h-2zm3-290h27v30H66z" stroke="#182a18" fill="#305530"/>"     "     "     <path d="M66 246h12v30H66zm13 0h14v30H79z" fill="#305630" stroke="#182b18"/>"     "     <path d="M66 277h17v30H66zm18 0h8v29h-8zm-18 31h4v30h-4z" stroke="#182b18" fill="#305730"/>"     "     "     <path d="M71 308h22v29H71zm-5 31h11v29H66zm12 0h15v29H78z" fill="#305830" stroke="#182c18"/>"     "     "     <path d="M66 369h19v29H66zm20 0h7v29h-7z" stroke="#182c18" fill="#305930"/>"     "     <path d="M66 399h17v29H66zm18 0h9v29h-9zm-18 30h27v29H66z" fill="#305a30" stroke="#182d18"/>"     "     "     <path d="M66 459h19v29H66zm20 0h7v29h-7zm-20 30h27v23H66z" stroke="#182d18" fill="#305b30"/>"     "     "     <path d="M94 1h30v4H94zm31 0h30v3h-30z" fill="#305c30" stroke="#182e18"/>"     "     <path d="M156 1h30v2h-30zm0 3h28v1h-28zm29 0h1v1h-1z" stroke="#182e18" fill="#305d30"/>"     "     "     <path d="M187 1h30v2h-30zm0 3h28v1h-28zm31-3h30v3h-30z" fill="#305e30" stroke="#182f18"/>"     "     "     <path d="M249 1h30v3h-30zm31 0h30v4h-30z" stroke="#182f18" fill="#305f30"/>"     "     <path d="M311 1h30v3h-30zm31 0h29v3h-29zm30 0h29v4h-29z" fill="#306030" stroke="#183018"/>"     "     "     <path d="M402 1h29v4h-29zm30 0h29v3h-29zm30 0h29v2h-29z" stroke="#183018" fill="#306130"/>"     "     "     <path d="M462 4h27v1h-27zm30-3h28v3h-28z" fill="#306230" stroke="#183118"/>"     "     <path d="M521 1h28v2h-28zm0 3h27v1h-27zm29-3h28v3h-28z" stroke="#183118" fill="#306330"/>"     "     "     <path d="M579 1h28v2h-28zm0 3h27v1h-27zm29-3h27v3h-27z" fill="#306430" stroke="#183218"/>"     "     "     <path d="M636 1h27v2h-27zm0 3h27v1h-27z" stroke="#183218" fill="#306530"/>"     "     <path d="M664 1h27v3h-27zm28 0h26v2h-26zm0 3h23v1h-23z" fill="#306630" stroke="#183318"/>"     "     "     <path d="M716 4h2v1h-2zm3-3h26v4h-26zm27 0h26v4h-26z" stroke="#183318" fill="#306730"/>"     "     "     <path d="M773 1h26v2h-26zm0 3h23v1h-23z" fill="#306830" stroke="#183418"/>"     "     <path d="M797 4h2v1h-2zm3-3h25v2h-25zm0 3h22v1h-22z" stroke="#183418" fill="#306930"/>"     "     "     <path d="M823 4h2v1h-2zm3-3h25v3h-25zm26 0h25v3h-25z" fill="#306a30" stroke="#183518"/>"     "     "     <path d="M878 1h25v3h-25zm26 0h24v2h-24z" stroke="#183518" fill="#306b30"/>"     "     <path d="M904 4h22v1h-22zm25-3h24v4h-24zm25 0h24v2h-24z" fill="#306c30" stroke="#183618"/>"     "     "     <path d="M954 4h21v1h-21zm25-3h24v3h-24zm25 0h20v3h-20z" stroke="#183618" fill="#306d30"/>"     "     "     <path d="M94 6h30v27H94zm0 28h29v29H94z" fill="#306e30" stroke="#183718"/>"     "     <path d="M94 64h10v29H94zm11 0h19v29h-19zM94 94h29v29H94z" stroke="#183718" fill="#306f30"/>"     "     "     <path d="M94 124h20v29H94zm21 0h8v28h-8zm-21 30h11v29H94z" fill="#307030" stroke="#183818"/>"     "     "     <path d="M106 154h18v29h-18zm-12 30h29v29H94z" stroke="#183818" fill="#307130"/>"     "     <path d="M94 214h6v29h-6zm7 0h23v29h-23zm-7 30h4v29h-4z" fill="#307230" stroke="#183918"/>"     "     "     <path d="M99 244h25v29H99zm-5 30h30v29H94zm0 30h20v29H94z" stroke="#183918" fill="#307330"/>"     "     "     <path d="M115 304h7v28h-7zm8 0h1v23h-1z" fill="#307430" stroke="#183a18"/>"     "     <path d="M123 328h1v5h-1zm-29 6h17v29H94zm18 0h12v29h-12z" stroke="#183a18" fill="#307530"/>"     "     "     <path d="M94 364h10v29H94zm11 0h19v29h-19zm-11 30h17v29H94z" fill="#307630" stroke="#183b18"/>"     "     "     <path d="M112 394h12v29h-12zm-18 30h28v29H94z" stroke="#183b18" fill="#307730"/>"     "     <path d="M123 424h1v22h-1zm0 23h1v6h-1zm-29 7h20v29H94z" fill="#307830" stroke="#183c18"/>"     "     "     <path d="M94 484h29v27H94zm21-30h9v27h-9zm0 28h7v1h-7z" stroke="#183c18" fill="#307930"/>"     "     "     <path d="M125 6h30v17h-30zm0 18h26v29h-26z" fill="#307a30" stroke="#183d18"/>"     "     <path d="M152 24h3v29h-3zm-27 30h20v29h-20zm21 0h7v27h-7z" stroke="#183d18" fill="#307b30"/>"     "     "     <path d="M146 82h7v1h-7zm8-28h1v22h-1zm0 23h1v4h-1z" fill="#307c30" stroke="#183e18"/>"     "     "     <path d="M125 84h21v29h-21zm22 0h8v29h-8z" stroke="#183e18" fill="#307d30"/>"     "     <path d="M125 114h29v29h-29zm0 30h22v29h-22zm23 0h7v29h-7z" fill="#307e30" stroke="#183f18"/>"     "     "     <path d="M125 174h11v29h-11zm12 0h18v29h-18zm-12 30h26v29h-26z" stroke="#183f18" fill="#307f30"/>"     "     "     <path d="M152 204h3v29h-3zm-27 30h13v29h-13z" fill="#308030" stroke="#184018"/>"     "     <path d="M139 234h16v29h-16zm-14 30h13v29h-13zm14 0h16v29h-16z" stroke="#184018" fill="#308130"/>"     "     "     <path d="M125 294h11v29h-11zm12 0h18v29h-18zm-12 30h17v29h-17z" fill="#308230" stroke="#184118"/>"     "     "     <path d="M143 324h12v28h-12zm-18 30h5v29h-5z" stroke="#184118" fill="#308330"/>"     "     <path d="M131 354h24v29h-24zm-6 30h7v29h-7zm8 0h22v29h-22z" fill="#308430" stroke="#184218"/>"     "     "     <path d="M125 414h19v29h-19zm20 0h10v29h-10zm-20 30h19v28h-19z" stroke="#184218" fill="#308530"/>"     "     "     <path d="M145 444h10v28h-10zm-20 29h21v28h-21z" fill="#308630" stroke="#184318"/>"     "     <path d="M125 502h21v10h-21zm22-29h3v28h-3zm0 29h3v10h-3z" stroke="#184318" fill="#308730"/>"     "     "     <path d="M151 473h3v28h-3zm0 29h4v10h-4zm5-496h30v13h-30z" fill="#308830" stroke="#184418"/>"     "     "     <path d="M187 6h30v5h-30zm0 6h29v6h-29z" stroke="#184418" fill="#308930"/>"     "     <path d="M218 6h30v13h-30zm31 0h30v10h-30zm0 11h23v2h-23z" fill="#308a30" stroke="#184518"/>"     "     "     <path d="M273 17h6v2h-6zm7-11h30v13h-30zm31 0h29v11h-29z" stroke="#184518" fill="#308b30"/>"     "     "     <path d="M311 18h20v1h-20zm21 0h8v1h-8z" fill="#308c30" stroke="#184618"/>"     "     <path d="M341 6h29v5h-29zm0 6h28v7h-28zm30-6h29v5h-29z" stroke="#184618" fill="#308d30"/>"     "     "     <path d="M370 12h28v5h-28zm29 0h1v5h-1zm-29 6h19v1h-19z" fill="#308e30" stroke="#184718"/>"     "     "     <path d="M390 18h10v1h-10zm11-12h29v13h-29z" stroke="#184718" fill="#308f30"/>"     "     <path d="M431 6h29v11h-29zm0 12h19v1h-19zm20 0h5v1h-5z" fill="#309030" stroke="#184818"/>"     "     "     <path d="M457 18h3v1h-3zm4-12h29v8h-29zm0 9h23v4h-23z" stroke="#184818" fill="#309130"/>"     "     "     <path d="M485 15h5v4h-5zm6-9h29v10h-29z" fill="#309230" stroke="#184918"/>"     "     <path d="M491 17h21v2h-21zm22 0h7v2h-7zm8-11h29v13h-29z" stroke="#184918" fill="#309330"/>"     "     "     <path d="M551 6h29v11h-29zm0 12h19v1h-19zm20 0h4v1h-4z" fill="#309430" stroke="#184a18"/>"     "     "     <path d="M576 18h4v1h-4zm5-12h29v5h-29z" stroke="#184a18" fill="#309530"/>"     "     <path d="M581 12h28v7h-28zm30-6h29v11h-29zm0 12h19v1h-19z" fill="#309630" stroke="#184b18"/>"     "     "     <path d="M631 18h3v1h-3zm4 0h4v1h-4zm6-12h28v12h-28z" stroke="#184b18" fill="#309730"/>"     "     "     <path d="M670 6h28v8h-28zm0 9h28v4h-28z" fill="#309830" stroke="#184c18"/>"     "     <path d="M699 6h28v8h-28zm0 9h28v4h-28zm29-9h28v9h-28z" stroke="#184c18" fill="#309930"/>"     "     "     <path d="M728 16h28v3h-28zm29-10h28v8h-28zm0 9h23v3h-23z" fill="#309a30" stroke="#184d18"/>"     "     "     <path d="M781 15h4v3h-4zm5-9h28v13h-28z" stroke="#184d18" fill="#309b30"/>"     "     <path d="M815 6h28v5h-28zm0 6h28v7h-28zm29-6h28v8h-28z" fill="#309c30" stroke="#184e18"/>"     "     "     <path d="M844 15h23v3h-23zm24 0h4v3h-4zm5-9h28v5h-28z" stroke="#184e18" fill="#309d30"/>"     "     "     <path d="M873 12h28v7h-28zm29-6h28v5h-28z" fill="#309e30" stroke="#184f18"/>"     "     <path d="M902 12h28v7h-28zm29-6h28v11h-28zm0 12h18v1h-18z" stroke="#184f18" fill="#309f30"/>"     "     "     <path d="M950 18h7v1h-7zm10-12h28v13h-28zm29 0h28v11h-28z" fill="#30a030" stroke="#185018"/>"     "     "     <path d="M1018 6h6v13h-6zm-29 12h17v1h-17z" stroke="#185018" fill="#30a130"/>"     "     <path d="M1007 18h10v1h-10zm-851 2h30v25h-30zm0 26h16v28h-16z" fill="#30a230" stroke="#185118"/>"     "     "     <path d="M173 46h13v28h-13zm-17 29h14v28h-14zm15 0h15v27h-15z" stroke="#185118" fill="#30a330"/>"     "     "     <path d="M156 104h10v28h-10zm11 0h19v28h-19z" fill="#30a430" stroke="#185218"/>"     "     <path d="M156 133h5v28h-5zm6 0h24v27h-24zm-6 29h28v28h-28z" stroke="#185218" fill="#30a530"/>"     "     "     <path d="M185 162h1v21h-1zm0 22h1v3h-1zm-29 7h10v28h-10z" fill="#30a630" stroke="#185318"/>"     "     "     <path d="M167 191h19v27h-19zm-11 29h10v28h-10z" stroke="#185318" fill="#30a730"/>"     "     <path d="M167 219h19v29h-19zm-11 30h18v28h-18zm19 0h10v28h-10z" fill="#30a830" stroke="#185418"/>"     "     "     <path d="M156 278h28v28h-28zm29 0h1v21h-1zm-29 29h26v28h-26z" stroke="#185418" fill="#30a930"/>"     "     "     <path d="M183 307h3v27h-3zm-27 29h16v28h-16z" fill="#30aa30" stroke="#185518"/>"     "     <path d="M173 336h13v28h-13zm-17 29h16v28h-16zm17 0h13v27h-13z" stroke="#185518" fill="#30ab30"/>"     "     "     <path d="M156 394h18v28h-18zm19 0h10v28h-10zm-19 29h12v28h-12z" fill="#30ac30" stroke="#185618"/>"     "     "     <path d="M169 423h17v28h-17zm-13 29h16v28h-16z" stroke="#185618" fill="#30ad30"/>"     "     <path d="M173 452h12v26h-12zm0 27h12v1h-12zm-17 2h28v28h-28z" fill="#30ae30" stroke="#185718"/>"     "     "     <path d="M185 481h1v21h-1zm-29 29h21v2h-21zm22 0h8v2h-8z" stroke="#185718" fill="#30af30"/>"     "     "     <path d="M187 20h30v27h-30zm0 28h26v28h-26z" fill="#30b030" stroke="#185818"/>"     "     <path d="M214 48h3v27h-3zm-27 29h18v28h-18zm19 0h10v28h-10z" stroke="#185818" fill="#30b130"/>"     "     "     <path d="M187 106h16v28h-16zm17 0h13v26h-13zm0 27h13v1h-13z" fill="#30b230" stroke="#185918"/>"     "     "     <path d="M187 135h21v28h-21zm22 0h8v28h-8z" stroke="#185918" fill="#30b330"/>"     "     <path d="M187 164h25v28h-25zm26 0h3v27h-3zm-26 29h22v28h-22z" fill="#30b430" stroke="#185a18"/>"     "     "     <path d="M210 193h6v27h-6zm-23 29h23v28h-23zm24 0h5v27h-5z" stroke="#185a18" fill="#30b530"/>"     "     "     <path d="M187 251h17v27h-17zm18 0h12v27h-12z" fill="#30b630" stroke="#185b18"/>"     "     <path d="M187 279h28v27h-28zm29 0h1v20h-1zm-29 28h26v27h-26z" stroke="#185b18" fill="#30b730"/>"     "     "     <path d="M214 307h3v27h-3zm-27 28h14v27h-14zm15 0h15v27h-15z" fill="#30b830" stroke="#185c18"/>"     "     "     <path d="M187 363h17v27h-17zm18 0h12v27h-12z" stroke="#185c18" fill="#30b930"/>"     "     <path d="M187 391h22v27h-22zm23 0h7v27h-7zm-23 28h8v27h-8z" fill="#30ba30" stroke="#185d18"/>"     "     "     <path d="M187 447h7v27h-7zm0 28h6v27h-6zm0 28h8v9h-8z" stroke="#185d18" fill="#30bb30"/>"     "     "     <path d="M194 475h1v19h-1zm0 20h1v7h-1z" fill="#30bc30" stroke="#185e18"/>"     "     <path d="M196 419h20v27h-20zm0 28h20v27h-20zm0 28h21v27h-21z" stroke="#185e18" fill="#30bd30"/>"     "     "     <path d="M196 503h21v9h-21zm22-483h30v18h-30zm0 19h25v27h-25z" fill="#30be30" stroke="#185f18"/>"     "     "     <path d="M244 39h4v27h-4zm-26 28h28v27h-28z" stroke="#185f18" fill="#30bf30"/>"     "     <path d="M247 67h1v19h-1zm-29 28h27v27h-27zm28 0h2v22h-2z" fill="#30c030" stroke="#186018"/>"     "     "     <path d="M246 118h2v3h-2zm-28 5h27v27h-27zm28-1h2v22h-2z" stroke="#186018" fill="#30c130"/>"     "     "     <path d="M246 145h2v5h-2zm-28 6h14v27h-14z" fill="#30c230" stroke="#186118"/>"     "     <path d="M233 151h15v27h-15zm-15 28h18v27h-18zm19 0h11v27h-11z" stroke="#186118" fill="#30c330"/>"     "     "     <path d="M218 207h9v27h-9zm10 0h20v27h-20zm-10 28h17v27h-17z" fill="#30c430" stroke="#186218"/>"     "     "     <path d="M236 235h10v26h-10zm11 0h1v19h-1z" stroke="#186218" fill="#30c530"/>"     "     <path d="M218 263h27v27h-27zm28 0h2v21h-2zm0 22h2v5h-2z" fill="#30c630" stroke="#186318"/>"     "     "     <path d="M218 291h25v27h-25zm26 0h3v26h-3zm-26 28h19v27h-19z" stroke="#186318" fill="#30c730"/>"     "     "     <path d="M238 319h10v27h-10zm-20 28h30v27h-30z" fill="#30c830" stroke="#186418"/>"     "     <path d="M218 375h15v27h-15zm16 0h14v27h-14zm-16 28h18v27h-18z" stroke="#186418" fill="#30c930"/>"     "     "     <path d="M237 403h11v27h-11zm-19 28h25v27h-25zm26 0h4v26h-4z" fill="#30ca30" stroke="#186518"/>"     "     "     <path d="M218 459h15v27h-15zm0 28h15v25h-15z" stroke="#186518" fill="#30cb30"/>"     "     <path d="M234 459h5v27h-5zm0 28h5v25h-5zm6-28h5v27h-5z" fill="#30cc30" stroke="#186618"/>"     "     "     <path d="M240 487h8v25h-8zm6-28h2v21h-2zm0 22h2v5h-2z" stroke="#186618" fill="#30cd30"/>"     "     "     <path d="M249 20h30v15h-30zm31 0h29v14h-29z" fill="#30ce30" stroke="#186718"/>"     "     <path d="M310 20h29v15h-29zm30 0h29v15h-29zm30 0h29v14h-29z" stroke="#186718" fill="#30cf30"/>"     "     "     <path d="M400 20h27v6h-27zm0 7h27v8h-27zm28-7h27v11h-27z" fill="#30d030" stroke="#186818"/>"     "     "     <path d="M428 32h22v3h-22zm23 0h3v2h-3z" stroke="#186818" fill="#30d130"/>"     "     <path d="M456 20h27v8h-27zm0 9h27v6h-27zm28-9h27v9h-27z" fill="#30d230" stroke="#186918"/>"     "     "     <path d="M484 30h24v5h-24zm25 0h2v5h-2zm3-10h27v13h-27z" stroke="#186918" fill="#30d330"/>"     "     "     <path d="M512 34h16v1h-16zm28-14h27v14h-27z" fill="#30d430" stroke="#186a18"/>"     "     <path d="M568 20h27v6h-27zm0 7h27v8h-27zm28-7h27v10h-27z" stroke="#186a18" fill="#30d530"/>"     "     "     <path d="M596 31h22v4h-22zm23 0h2v2h-2zm5-11h27v13h-27z" fill="#30d630" stroke="#186b18"/>"     "     "     <path d="M624 34h15v1h-15zm16 0h11v1h-11z" stroke="#186b18" fill="#30d730"/>"     "     <path d="M652 20h27v15h-27zm28 0h26v15h-26zm27 0h26v7h-26z" fill="#30d830" stroke="#186c18"/>"     "     "     <path d="M707 28h26v7h-26zm27-8h26v6h-26zm0 7h26v8h-26z" stroke="#186c18" fill="#30d930"/>"     "     "     <path d="M761 20h26v14h-26zm27 0h26v7h-26z" fill="#30da30" stroke="#186d18"/>"     "     <path d="M788 28h26v7h-26zm27-8h26v7h-26zm0 8h26v7h-26z" stroke="#186d18" fill="#30db30"/>"     "     "     <path d="M842 20h26v14h-26zm27 0h26v12h-26zm0 13h21v2h-21z" fill="#30dc30" stroke="#186e18"/>"     "     "     <path d="M891 33h3v2h-3zm5-13h26v15h-26z" stroke="#186e18" fill="#30dd30"/>"     "     <path d="M923 20h26v10h-26zm0 11h26v4h-26zm27-11h26v12h-26z" fill="#30de30" stroke="#186f18"/>"     "     "     <path d="M950 33h21v2h-21zm22 0h2v2h-2zm5-13h26v13h-26z" stroke="#186f18" fill="#30df30"/>"     "     "     <path d="M1004 20h20v15h-20zm-27 14h15v1h-15z" fill="#30e030" stroke="#187018"/>"     "     <path d="M249 36h30v18h-30zm31 0h30v18h-30zm31 0h29v16h-29z" stroke="#187018" fill="#30e130"/>"     "     "     <path d="M311 53h14v1h-14zm15 0h14v1h-14zm15-17h29v16h-29z" fill="#30e230" stroke="#187118"/>"     "     "     <path d="M341 53h13v1h-13zm14 0h15v1h-15z" stroke="#187118" fill="#30e330"/>"     "     <path d="M371 36h28v16h-28zm0 17h12v1h-12zm13 0h15v1h-15z" fill="#30e430" stroke="#187218"/>"     "     "     <path d="M400 36h28v17h-28zm29 0h28v17h-28zm29 0h28v16h-28z" stroke="#187218" fill="#30e530"/>"     "     "     <path d="M458 53h12v1h-12zm13 0h15v1h-15z" fill="#30e630" stroke="#187318"/>"     "     <path d="M487 36h28v18h-28zm29 0h28v18h-28zm29 0h27v16h-27z" stroke="#187318" fill="#30e730"/>"     "     "     <path d="M545 53h12v1h-12zm13 0h14v1h-14zm15-17h27v16h-27z" fill="#30e830" stroke="#187418"/>"     "     "     <path d="M573 53h12v1h-12zm13 0h14v1h-14z" stroke="#187418" fill="#30e930"/>"     "     <path d="M601 36h27v18h-27zm28 0h27v18h-27zm28 0h27v17h-27z" fill="#30ea30" stroke="#187518"/>"     "     "     <path d="M685 36h27v18h-27zm28 0h26v13h-26zm0 14h22v4h-22z" stroke="#187518" fill="#30eb30"/>"     "     "     <path d="M740 36h26v14h-26zm0 15h26v3h-26z" fill="#30ec30" stroke="#187618"/>"     "     <path d="M767 36h26v6h-26zm0 7h26v11h-26zm27-7h26v6h-26z" stroke="#187618" fill="#30ed30"/>"     "     "     <path d="M794 43h26v11h-26zm27-7h26v9h-26zm0 10h26v8h-26z" fill="#30ee30" stroke="#187718"/>"     "     "     <path d="M848 36h26v18h-26zm27 0h26v15h-26z" stroke="#187718" fill="#30ef30"/>"     "     <path d="M875 52h20v2h-20zm21 0h5v2h-5zm6-16h26v13h-26z" fill="#30f030" stroke="#187818"/>"     "     "     <path d="M902 50h22v4h-22zm27-14h26v10h-26zm0 11h26v7h-26z" stroke="#187818" fill="#31f030"/>"     "     "     <path d="M956 36h26v7h-26zm0 8h25v10h-25z" fill="#32f030" stroke="#197818"/>"     "     <path d="M983 36h26v16h-26zm27 0h14v18h-14zm-27 17h12v1h-12z" stroke="#197818" fill="#33f030"/>"     "     "     <path d="M996 53h13v1h-13zm-747 2h30v25h-30zm0 26h19v27h-19z" fill="#34f030" stroke="#1a7818"/>"     "     "     <path d="M269 81h9v26h-9zm-20 28h19v27h-19z" stroke="#1a7818" fill="#35f030"/>"     "     <path d="M269 109h9v26h-9zm-20 28h19v27h-19zm20 0h9v26h-9z" fill="#36f030" stroke="#1b7818"/>"     "     "     <path d="M249 165h23v27h-23zm24 0h6v26h-6zm-24 28h19v27h-19z" stroke="#1b7818" fill="#37f030"/>"     "     "     <path d="M269 193h9v26h-9zm-20 28h22v27h-22z" fill="#38f030" stroke="#1c7818"/>"     "     <path d="M272 221h7v27h-7zm-23 28h8v27h-8zm9 0h21v27h-21z" stroke="#1c7818" fill="#39f030"/>"     "     "     <path d="M249 277h19v26h-19zm20 0h9v25h-9zm-20 27h14v26h-14z" fill="#3af030" stroke="#1d7818"/>"     "     "     <path d="M264 304h15v26h-15zm-15 27h18v26h-18z" stroke="#1d7818" fill="#3bf030"/>"     "     <path d="M268 331h11v25h-11zm-19 27h26v26h-26zm27 0h3v26h-3z" fill="#3cf030" stroke="#1e7818"/>"     "     "     <path d="M249 385h24v26h-24zm25 0h4v25h-4zm-25 27h25v26h-25z" stroke="#1e7818" fill="#3df030"/>"     "     "     <path d="M275 412h3v25h-3zm-26 27h18v26h-18z" fill="#3ef030" stroke="#1f7818"/>"     "     <path d="M268 439h9v24h-9zm10 0h1v17h-1zm-29 27h24v26h-24z" stroke="#1f7818" fill="#3ff030"/>"     "     "     <path d="M249 493h30v19h-30zm25-27h5v25h-5zm6-411h30v21h-30z" fill="#40f030" stroke="#207818"/>"     "     "     <path d="M280 77h19v26h-19zm20 0h9v24h-9z" stroke="#207818" fill="#41f030"/>"     "     <path d="M280 104h16v26h-16zm17 0h13v26h-13zm-17 27h27v26h-27z" fill="#42f030" stroke="#217818"/>"     "     "     <path d="M308 131h2v21h-2zm-28 27h25v26h-25zm26 0h4v25h-4z" stroke="#217818" fill="#43f030"/>"     "     "     <path d="M280 185h18v26h-18zm19 0h11v24h-11z" fill="#44f030" stroke="#227818"/>"     "     <path d="M299 210h11v1h-11zm-19 2h19v26h-19zm20 0h9v24h-9z" stroke="#227818" fill="#45f030"/>"     "     "     <path d="M280 239h19v26h-19zm20 0h10v24h-10zm-20 27h25v26h-25z" fill="#46f030" stroke="#237818"/>"     "     "     <path d="M306 266h3v25h-3zm-26 27h21v26h-21z" stroke="#237818" fill="#47f030"/>"     "     <path d="M302 293h7v25h-7zm-22 27h27v26h-27zm28 0h2v20h-2z" fill="#48f030" stroke="#247818"/>"     "     "     <path d="M308 341h2v5h-2zm-28 6h23v26h-23zm24 0h5v24h-5z" stroke="#247818" fill="#49f030"/>"     "     "     <path d="M280 374h17v26h-17zm18 0h12v25h-12z" fill="#4af030" stroke="#257818"/>"     "     <path d="M280 401h15v26h-15zm16 0h14v26h-14zm-16 27h16v26h-16z" stroke="#257818" fill="#4bf030"/>"     "     "     <path d="M297 428h13v25h-13zm-17 27h16v26h-16zm17-1h12v25h-12z" fill="#4cf030" stroke="#267818"/>"     "     "     <path d="M297 480h12v1h-12zm-17 2h26v26h-26z" stroke="#267818" fill="#4df030"/>"     "     <path d="M280 509h26v3h-26zm27-27h3v26h-3zm4-427h30v20h-30z" fill="#4ef030" stroke="#277818"/>"     "     "     <path d="M311 76h28v26h-28zm29 0h1v17h-1zm-29 27h28v26h-28z" stroke="#277818" fill="#4ff030"/>"     "     "     <path d="M340 94h1v16h-1zm0 17h1v15h-1z" fill="#50f030" stroke="#287818"/>"     "     <path d="M311 130h22v26h-22zm23 0h7v26h-7zm-23 27h22v26h-22z" stroke="#287818" fill="#51f030"/>"     "     "     <path d="M334 157h7v25h-7zm-23 27h14v25h-14zm15 0h15v25h-15z" fill="#52f030" stroke="#297818"/>"     "     "     <path d="M311 210h14v25h-14zm15 0h15v25h-15z" stroke="#297818" fill="#53f030"/>"     "     <path d="M311 236h21v25h-21zm22 0h8v25h-8zm-22 26h21v25h-21z" fill="#54f030" stroke="#2a7818"/>"     "     "     <path d="M333 262h8v25h-8zm-22 26h29v25h-29zm0 26h25v25h-25z" stroke="#2a7818" fill="#55f030"/>"     "     "     <path d="M337 314h3v24h-3zm-26 26h24v25h-24z" fill="#56f030" stroke="#2b7818"/>"     "     <path d="M336 340h5v24h-5zm-25 26h24v25h-24zm25-1h3v24h-3z" stroke="#2b7818" fill="#57f030"/>"     "     "     <path d="M340 365h1v15h-1zm-29 27h14v25h-14zm15 0h15v25h-15z" fill="#58f030" stroke="#2c7818"/>"     "     "     <path d="M311 418h18v25h-18zm19 0h11v24h-11z" stroke="#2c7818" fill="#59f030"/>"     "     <path d="M311 444h21v25h-21zm22 0h7v24h-7zm-22 26h19v25h-19z" fill="#5af030" stroke="#2d7818"/>"     "     "     <path d="M331 470h10v25h-10zm-20 26h25v12h-25zm26 0h4v12h-4z" stroke="#2d7818" fill="#5bf030"/>"     "     "     <path d="M307 509h21v3h-21zm22 0h12v3h-12z" fill="#5cf030" stroke="#2e7818"/>"     "     <path d="M342 55h29v22h-29zm0 23h26v25h-26zm27 0h2v20h-2z" stroke="#2e7818" fill="#5df030"/>"     "     "     <path d="M342 104h17v25h-17zm18 0h10v24h-10zm-18 26h27v25h-27z" fill="#5ef030" stroke="#2f7818"/>"     "     "     <path d="M370 130h1v14h-1zm-28 26h20v25h-20z" stroke="#2f7818" fill="#5ff030"/>"     "     <path d="M363 156h8v24h-8zm-21 26h13v25h-13zm14 0h15v25h-15z" fill="#60f030" stroke="#307818"/>"     "     "     <path d="M342 208h22v25h-22zm23 0h6v25h-6zm-23 26h20v25h-20z" stroke="#307818" fill="#61f030"/>"     "     "     <path d="M363 234h7v24h-7zm-21 26h26v25h-26z" fill="#62f030" stroke="#317818"/>"     "     <path d="M369 260h2v19h-2zm-27 26h12v25h-12zm13 0h16v25h-16z" stroke="#317818" fill="#63f030"/>"     "     "     <path d="M342 312h21v25h-21zm22 0h7v25h-7zm-22 26h17v25h-17z" fill="#64f030" stroke="#327818"/>"     "     "     <path d="M360 338h10v24h-10zm-18 26h13v25h-13z" stroke="#327818" fill="#65f030"/>"     "     <path d="M356 364h15v24h-15zm-14 26h28v25h-28zm0 26h29v25h-29z" fill="#66f030" stroke="#337818"/>"     "     "     <path d="M342 442h14v25h-14zm15 0h13v24h-13zm-15 26h20v25h-20z" stroke="#337818" fill="#67f030"/>"     "     "     <path d="M363 468h8v23h-8zm-21 26h25v17h-25z" fill="#68f030" stroke="#347818"/>"     "     <path d="M368 494h3v18h-3zm4-439h29v23h-29zm0 24h13v25h-13z" stroke="#347818" fill="#69f030"/>"     "     "     <path d="M386 79h15v24h-15zm-14 26h25v25h-25zm26 0h3v23h-3z" fill="#6af030" stroke="#357818"/>"     "     "     <path d="M372 131h18v25h-18zm19 0h10v23h-10z" stroke="#357818" fill="#6bf030"/>"     "     <path d="M372 157h12v24h-12zm13 0h16v23h-16zm-13 25h27v24h-27z" fill="#6cf030" stroke="#367818"/>"     "     "     <path d="M400 182h1v12h-1zm0 13h1v11h-1zm-28 12h24v24h-24z" stroke="#367818" fill="#6df030"/>"     "     "     <path d="M397 207h4v24h-4zm-25 25h22v24h-22z" fill="#6ef030" stroke="#377818"/>"     "     <path d="M395 232h6v24h-6zm-23 25h18v24h-18zm19 0h10v24h-10z" stroke="#377818" fill="#6ff030"/>"     "     "     <path d="M372 282h20v24h-20zm21 0h8v24h-8zm-21 25h19v24h-19z" fill="#70f030" stroke="#387818"/>"     "     "     <path d="M392 307h9v24h-9zm-20 25h22v24h-22z" stroke="#387818" fill="#71f030"/>"     "     <path d="M395 332h6v24h-6zm-23 25h20v24h-20zm21 0h8v24h-8z" fill="#72f030" stroke="#397818"/>"     "     "     <path d="M372 382h25v24h-25zm26 0h3v22h-3zm-26 25h12v24h-12z" stroke="#397818" fill="#73f030"/>"     "     "     <path d="M385 407h16v23h-16zm-13 25h13v24h-13z" fill="#74f030" stroke="#3a7818"/>"     "     <path d="M386 432h15v24h-15zm-14 25h13v24h-13zm14 0h15v24h-15z" stroke="#3a7818" fill="#75f030"/>"     "     "     <path d="M372 482h29v24h-29zm0 25h23v5h-23zm24 0h5v5h-5z" fill="#76f030" stroke="#3b7818"/>"     "     "     <path d="M402 55h29v20h-29zm30 0h29v20h-29z" stroke="#3b7818" fill="#77f030"/>"     "     <path d="M462 55h28v20h-28zm29 0h27v20h-27zm28 0h26v19h-26z" fill="#78f030" stroke="#3c7818"/>"     "     "     <path d="M546 55h25v20h-25zm26 0h25v7h-25zm0 8h25v12h-25z" stroke="#3c7818" fill="#79f030"/>"     "     "     <path d="M598 55h25v20h-25zm26 0h25v9h-25z" fill="#7af030" stroke="#3d7818"/>"     "     <path d="M624 65h24v10h-24zm26-10h25v6h-25zm0 7h24v12h-24z" stroke="#3d7818" fill="#7bf030"/>"     "     "     <path d="M676 55h25v19h-25zm26 0h25v6h-25zm0 7h24v12h-24z" fill="#7cf030" stroke="#3e7818"/>"     "     "     <path d="M728 55h25v19h-25zm26 0h25v7h-25z" stroke="#3e7818" fill="#7df030"/>"     "     <path d="M754 63h23v10h-23zm0 11h12v1h-12zm26-19h25v7h-25z" fill="#7ef030" stroke="#3f7818"/>"     "     "     <path d="M780 63h23v12h-23zm26-8h25v7h-25zm-2 8h24v10h-24z" stroke="#3f7818" fill="#7ff030"/>"     "     "     <path d="M829 63h2v10h-2zm3-8h24v19h-24z" fill="#80f030" stroke="#407818"/>"     "     <path d="M857 55h24v7h-24zm0 8h24v12h-24zm25-8h24v7h-24z" stroke="#407818" fill="#81f030"/>"     "     "     <path d="M882 63h23v12h-23zm25-8h24v14h-24zm0 15h23v5h-23z" fill="#82f030" stroke="#417818"/>"     "     "     <path d="M932 55h24v17h-24zm0 18h19v2h-19z" stroke="#417818" fill="#83f030"/>"     "     <path d="M957 55h24v7h-24zm0 8h23v11h-23zm25-8h24v14h-24z" fill="#84f030" stroke="#427818"/>"     "     "     <path d="M1007 55h17v20h-17zm-25 15h22v4h-22zm-580 6h29v22h-29z" stroke="#427818" fill="#85f030"/>"     "     "     <path d="M402 99h13v24h-13zm14 0h15v24h-15z" fill="#86f030" stroke="#437818"/>"     "     <path d="M402 124h20v24h-20zm21 0h8v24h-8zm-21 25h24v24h-24z" stroke="#437818" fill="#87f030"/>"     "     "     <path d="M427 149h4v23h-4zm-25 25h25v24h-25zm26 0h3v22h-3z" fill="#88f030" stroke="#447818"/>"     "     "     <path d="M402 199h24v24h-24zm25 0h4v22h-4z" stroke="#447818" fill="#89f030"/>"     "     <path d="M402 224h29v24h-29zm0 25h19v24h-19zm20 0h8v23h-8z" fill="#8af030" stroke="#457818"/>"     "     "     <path d="M402 274h27v24h-27zm0 25h14v24h-14zm15 0h14v24h-14z" stroke="#457818" fill="#8bf030"/>"     "     "     <path d="M402 324h20v24h-20zm21 0h8v24h-8z" fill="#8cf030" stroke="#467818"/>"     "     <path d="M402 349h18v24h-18zm19 0h10v24h-10zm-19 25h19v24h-19z" stroke="#467818" fill="#8df030"/>"     "     "     <path d="M422 374h9v23h-9zm-20 25h5v23h-5zm0 24h5v23h-5z" fill="#8ef030" stroke="#477818"/>"     "     "     <path d="M402 447h5v23h-5zm0 24h5v23h-5z" stroke="#477818" fill="#8ff030"/>"     "     <path d="M402 495h4v17h-4zm6-96h21v23h-21zm0 24h14v23h-14z" fill="#90f030" stroke="#487818"/>"     "     "     <path d="M423 423h8v23h-8zm-15 24h14v23h-14zm15 0h8v23h-8z" stroke="#487818" fill="#91f030"/>"     "     "     <path d="M408 471h23v24h-23zm0 25h23v16h-23z" fill="#92f030" stroke="#497818"/>"     "     <path d="M432 76h29v22h-29zm0 23h6v23h-6zm7 0h22v23h-22z" stroke="#497818" fill="#93f030"/>"     "     "     <path d="M432 123h22v23h-22zm23 0h6v23h-6zm-23 24h13v23h-13z" fill="#94f030" stroke="#4a7818"/>"     "     "     <path d="M446 147h15v23h-15zm-14 24h20v23h-20z" stroke="#4a7818" fill="#95f030"/>"     "     <path d="M453 171h8v23h-8zm-21 24h11v23h-11zm12 0h17v22h-17z" fill="#96f030" stroke="#4b7818"/>"     "     "     <path d="M432 219h7v23h-7zm8 0h21v23h-21zm-8 24h20v23h-20z" stroke="#4b7818" fill="#97f030"/>"     "     "     <path d="M453 243h8v23h-8zm-21 24h26v23h-26z" fill="#98f030" stroke="#4c7818"/>"     "     <path d="M459 267h2v18h-2zm-27 24h11v23h-11zm12 0h16v21h-16z" stroke="#4c7818" fill="#99f030"/>"     "     "     <path d="M432 315h20v23h-20zm21 0h7v22h-7zm-21 24h24v23h-24z" fill="#9af030" stroke="#4d7818"/>"     "     "     <path d="M457 339h3v21h-3zm-25 24h28v23h-28z" stroke="#4d7818" fill="#9bf030"/>"     "     <path d="M432 387h5v23h-5zm6 0h22v22h-22zm-6 24h21v23h-21z" fill="#9cf030" stroke="#4e7818"/>"     "     "     <path d="M454 411h7v23h-7zm-22 24h14v23h-14zm15 0h14v23h-14z" stroke="#4e7818" fill="#9df030"/>"     "     "     <path d="M432 459h15v23h-15zm16 0h12v22h-12z" fill="#9ef030" stroke="#4f7818"/>"     "     <path d="M432 483h25v22h-25zm26 0h3v20h-3zm-26 23h24v6h-24z" stroke="#4f7818" fill="#9ff030"/>"     "     "     <path d="M457 506h4v6h-4zm5-430h29v21h-29zm30 0h28v21h-28z" fill="#a0f030" stroke="#507818"/>"     "     "     <path d="M521 76h28v21h-28zm29 0h28v21h-28z" stroke="#507818" fill="#a1f030"/>"     "     <path d="M579 76h27v21h-27zm28 0h26v21h-26zm27 0h25v21h-25z" fill="#a2f030" stroke="#517818"/>"     "     "     <path d="M660 76h25v21h-25zm26 0h24v19h-24zm25 0h24v8h-24z" stroke="#517818" fill="#a3f030"/>"     "     "     <path d="M711 85h23v11h-23zm25-9h24v17h-24z" fill="#a4f030" stroke="#527818"/>"     "     <path d="M736 94h20v3h-20zm25-18h24v14h-24zm0 15h22v4h-22z" stroke="#527818" fill="#a5f030"/>"     "     "     <path d="M786 76h24v10h-24zm0 11h22v8h-22zm25-11h23v18h-23z" fill="#a6f030" stroke="#537818"/>"     "     "     <path d="M811 95h19v2h-19zm24-19h23v19h-23z" stroke="#537818" fill="#a7f030"/>"     "     <path d="M859 76h23v14h-23zm0 15h22v6h-22zm24-15h23v19h-23z" fill="#a8f030" stroke="#547818"/>"     "     "     <path d="M907 76h23v7h-23zm0 8h22v12h-22zm24-8h23v18h-23z" stroke="#547818" fill="#a9f030"/>"     "     "     <path d="M931 95h19v2h-19zm24-19h23v15h-23z" fill="#aaf030" stroke="#557818"/>"     "     <path d="M955 92h23v5h-23zm24-16h23v19h-23zm24 0h21v21h-21z" stroke="#557818" fill="#abf030"/>"     "     "     <path d="M462 98h28v22h-28zm0 23h11v23h-11zm12 0h15v22h-15z" fill="#acf030" stroke="#567818"/>"     "     "     <path d="M462 145h14v23h-14zm15 0h13v22h-13z" stroke="#567818" fill="#adf030"/>"     "     <path d="M462 169h11v23h-11zm12 0h14v22h-14zm-12 24h10v23h-10z" fill="#aef030" stroke="#577818"/>"     "     "     <path d="M473 193h16v21h-16zm-11 24h9v23h-9zm10 0h18v23h-18z" stroke="#577818" fill="#aff030"/>"     "     "     <path d="M462 241h21v22h-21zm22 0h6v22h-6z" fill="#b0f030" stroke="#587818"/>"     "     <path d="M462 264h5v22h-5zm6 0h22v22h-22zm-6 23h23v22h-23z" stroke="#587818" fill="#b1f030"/>"     "     "     <path d="M486 287h4v22h-4zm-24 23h5v22h-5zm6 0h22v22h-22z" fill="#b2f030" stroke="#597818"/>"     "     "     <path d="M462 333h20v22h-20zm21 0h7v22h-7z" stroke="#597818" fill="#b3f030"/>"     "     <path d="M462 356h20v22h-20zm21 0h7v22h-7zm-21 23h20v22h-20z" fill="#b4f030" stroke="#5a7818"/>"     "     "     <path d="M483 379h7v22h-7zm-21 23h28v22h-28zm0 23h20v22h-20z" stroke="#5a7818" fill="#b5f030"/>"     "     "     <path d="M483 425h7v22h-7zm-21 23h14v22h-14z" fill="#b6f030" stroke="#5b7818"/>"     "     <path d="M477 448h13v22h-13zm-15 23h24v22h-24zm25 0h3v20h-3z" stroke="#5b7818" fill="#b7f030"/>"     "     "     <path d="M462 494h23v14h-23zm24 0h4v14h-4zm-24 15h20v3h-20z" fill="#b8f030" stroke="#5c7818"/>"     "     "     <path d="M483 509h7v3h-7zm8-411h27v22h-27z" stroke="#5c7818" fill="#b9f030"/>"     "     <path d="M491 121h18v22h-18zm19 0h8v22h-8zm-19 23h19v22h-19z" fill="#baf030" stroke="#5d7818"/>"     "     "     <path d="M511 144h7v21h-7zm-20 23h20v22h-20zm21 0h6v22h-6z" stroke="#5d7818" fill="#bbf030"/>"     "     "     <path d="M491 190h23v22h-23zm24 0h3v19h-3z" fill="#bcf030" stroke="#5e7818"/>"     "     <path d="M491 213h25v22h-25zm0 23h19v22h-19zm20 0h6v21h-6z" stroke="#5e7818" fill="#bdf030"/>"     "     "     <path d="M491 259h5v22h-5zm6 0h21v22h-21zm-6 23h25v22h-25z" fill="#bef030" stroke="#5f7818"/>"     "     "     <path d="M491 305h22v22h-22zm23 0h3v19h-3z" stroke="#5f7818" fill="#bff030"/>"     "     <path d="M491 328h14v22h-14zm15 0h12v22h-12zm-15 23h26v22h-26z" fill="#c0f030" stroke="#607818"/>"     "     "     <path d="M491 374h10v22h-10zm11 0h16v22h-16zm-11 23h26v22h-26z" stroke="#607818" fill="#c1f030"/>"     "     "     <path d="M491 420h22v22h-22zm23 0h3v18h-3z" fill="#c2f030" stroke="#617818"/>"     "     <path d="M491 443h18v22h-18zm19 0h8v21h-8zm-19 23h19v21h-19z" stroke="#617818" fill="#c3f030"/>"     "     "     <path d="M511 466h7v21h-7zm-20 22h23v20h-23zm24 0h3v18h-3z" fill="#c4f030" stroke="#627818"/>"     "     "     <path d="M491 509h19v2h-19zm20 0h7v3h-7z" stroke="#627818" fill="#c5f030"/>"     "     <path d="M519 98h23v7h-23zm24 0h22v5h-22zm23 0h22v5h-22z" fill="#c6f030" stroke="#637818"/>"     "     "     <path d="M589 98h22v5h-22zm23 0h21v5h-21zm22 0h21v4h-21z" stroke="#637818" fill="#c7f030"/>"     "     "     <path d="M634 103h19v2h-19zm22-5h21v5h-21z" fill="#c8f030" stroke="#647818"/>"     "     <path d="M678 98h20v5h-20zm21 0h20v6h-20zm21 0h20v7h-20z" stroke="#647818" fill="#c9f030"/>"     "     "     <path d="M741 98h20v6h-20zm21 0h20v6h-20zm21 0h20v7h-20z" fill="#caf030" stroke="#657818"/>"     "     "     <path d="M804 98h19v7h-19zm20 0h19v7h-19z" stroke="#657818" fill="#cbf030"/>"     "     <path d="M844 98h19v6h-19zm20 0h19v7h-19zm20 0h19v5h-19z" fill="#ccf030" stroke="#667818"/>"     "     "     <path d="M904 98h19v4h-19zm0 5h18v2h-18zm20-5h19v4h-19z" stroke="#667818" fill="#cdf030"/>"     "     "     <path d="M923 103h18v2h-18zm21-5h18v3h-18z" fill="#cef030" stroke="#677818"/>"     "     <path d="M944 102h18v3h-18zm19-4h18v2h-18zm0 3h18v4h-18z" stroke="#677818" fill="#cff030"/>"     "     "     <path d="M982 98h18v7h-18zm19 0h18v6h-18zm19 0h4v7h-4z" fill="#d0f030" stroke="#687818"/>"     "     "     <path d="M519 106h23v21h-23zm0 22h19v21h-19z" stroke="#687818" fill="#d1f030"/>"     "     <path d="M539 128h3v18h-3zm-20 22h11v21h-11zm12 0h11v21h-11z" fill="#d2f030" stroke="#697818"/>"     "     "     <path d="M519 172h18v21h-18zm19 0h4v18h-4zm-19 22h6v21h-6z" stroke="#697818" fill="#d3f030"/>"     "     "     <path d="M526 194h16v21h-16zm-7 22h19v21h-19z" fill="#d4f030" stroke="#6a7818"/>"     "     <path d="M539 216h3v17h-3zm-20 22h5v21h-5zm6 0h17v21h-17z" stroke="#6a7818" fill="#d5f030"/>"     "     "     <path d="M519 260h11v21h-11zm12 0h11v21h-11zm-12 22h22v21h-22z" fill="#d6f030" stroke="#6b7818"/>"     "     "     <path d="M519 304h18v21h-18zm19 0h4v17h-4z" stroke="#6b7818" fill="#d7f030"/>"     "     <path d="M519 326h17v21h-17zm18 0h5v20h-5zm-18 22h8v21h-8z" fill="#d8f030" stroke="#6c7818"/>"     "     "     <path d="M528 348h14v21h-14zm-9 22h15v21h-15zm16 0h7v21h-7z" stroke="#6c7818" fill="#d9f030"/>"     "     "     <path d="M519 392h10v21h-10zm11 0h12v21h-12z" fill="#daf030" stroke="#6d7818"/>"     "     <path d="M519 414h20v21h-20zm21 0h2v15h-2zm-21 22h8v21h-8z" stroke="#6d7818" fill="#dbf030"/>"     "     "     <path d="M528 436h14v21h-14zm-9 22h8v21h-8zm0 22h8v21h-8z" fill="#dcf030" stroke="#6e7818"/>"     "     "     <path d="M519 502h8v10h-8zm9-44h12v21h-12z" stroke="#6e7818" fill="#ddf030"/>"     "     <path d="M528 480h11v21h-11zm0 22h14v10h-14zm12-22h2v15h-2z" fill="#def030" stroke="#6f7818"/>"     "     "     <path d="M543 106h22v17h-22zm23 0h22v15h-22zm23 0h22v16h-22z" stroke="#6f7818" fill="#dff030"/>"     "     "     <path d="M612 106h22v17h-22zm23 0h22v17h-22z" fill="#e0f030" stroke="#707818"/>"     "     <path d="M658 106h22v14h-22zm0 15h18v2h-18zm23-15h22v14h-22z" stroke="#707818" fill="#e1f030"/>"     "     "     <path d="M677 121h17v2h-17zm18 0h8v2h-8zm9-15h22v14h-22z" fill="#e2f030" stroke="#717818"/>"     "     "     <path d="M704 121h16v2h-16zm23-15h22v10h-22z" stroke="#717818" fill="#e3f030"/>"     "     <path d="M727 117h17v3h-17zm-6 4h15v2h-15zm16 0h12v2h-12z" fill="#e4f030" stroke="#727818"/>"     "     "     <path d="M750 106h22v15h-22zm23 0h22v11h-22zm0 12h17v3h-17z" stroke="#727818" fill="#e5f030"/>"     "     "     <path d="M796 106h22v11h-22zm0 12h16v4h-16z" fill="#e6f030" stroke="#737818"/>"     "     <path d="M813 118h5v5h-5zm6-12h22v12h-22zm0 13h16v4h-16z" stroke="#737818" fill="#e7f030"/>"     "     "     <path d="M836 119h5v4h-5zm6-13h22v9h-22zm0 10h17v7h-17z" fill="#e8f030" stroke="#747818"/>"     "     "     <path d="M860 116h4v7h-4zm5-10h22v16h-22z" stroke="#747818" fill="#e9f030"/>"     "     <path d="M888 106h22v11h-22zm0 12h16v5h-16zm17 0h4v5h-4z" fill="#eaf030" stroke="#757818"/>"     "     "     <path d="M911 106h21v9h-21zm0 10h17v6h-17zm18 0h3v7h-3z" stroke="#757818" fill="#ebf030"/>"     "     "     <path d="M933 106h21v15h-21zm22 0h21v17h-21z" fill="#ecf030" stroke="#767818"/>"     "     <path d="M977 106h21v10h-21zm22 0h21v15h-21zm22 0h3v17h-3z" stroke="#767818" fill="#edf030"/>"     "     "     <path d="M977 117h16v6h-16zm17 0h3v5h-3zm-451 7h22v18h-22z" fill="#eef030" stroke="#777818"/>"     "     "     <path d="M543 143h15v21h-15zm16 0h6v20h-6z" stroke="#777818" fill="#eff030"/>"     "     <path d="M543 165h10v21h-10zm11 0h11v21h-11zm-11 22h13v21h-13z" fill="#f0f030" stroke="#787818"/>"     "     "     <path d="M557 187h8v20h-8zm-14 22h21v21h-21zm0 22h18v21h-18z" stroke="#787818" fill="#f0f031"/>"     "     "     <path d="M562 231h3v16h-3zm-19 22h20v21h-20z" fill="#f0f032" stroke="#787819"/>"     "     <path d="M543 275h15v21h-15zm16 0h5v20h-5zm-16 22h14v21h-14z" stroke="#787819" fill="#f0f033"/>"     "     "     <path d="M558 297h6v19h-6zm-15 22h21v20h-21zm0 21h16v20h-16z" fill="#f0f034" stroke="#78781a"/>"     "     "     <path d="M560 340h5v19h-5zm-17 21h10v20h-10z" stroke="#78781a" fill="#f0f035"/>"     "     <path d="M554 361h11v20h-11zm-11 21h12v20h-12zm13 0h9v20h-9z" fill="#f0f036" stroke="#78781b"/>"     "     "     <path d="M543 403h16v20h-16zm17 0h5v19h-5zm-17 21h9v20h-9z" stroke="#78781b" fill="#f0f037"/>"     "     "     <path d="M553 424h12v20h-12zm-10 21h9v20h-9z" fill="#f0f038" stroke="#78781c"/>"     "     <path d="M553 445h12v20h-12zm-10 21h10v20h-10zm11 0h11v20h-11z" stroke="#78781c" fill="#f0f039"/>"     "     "     <path d="M543 487h20v20h-20zm0 21h16v4h-16zm17 0h5v4h-5z" fill="#f0f03a" stroke="#78781d"/>"     "     "     <path d="M566 124h22v19h-22zm0 20h18v20h-18z" stroke="#78781d" fill="#f0f03b"/>"     "     <path d="M585 144h3v15h-3zm-19 21h16v20h-16zm17 0h5v18h-5z" fill="#f0f03c" stroke="#78781e"/>"     "     "     <path d="M566 186h12v20h-12zm13 0h9v20h-9zm-13 21h19v20h-19z" stroke="#78781e" fill="#f0f03d"/>"     "     "     <path d="M586 207h2v14h-2zm-20 21h20v20h-20z" fill="#f0f03e" stroke="#78781f"/>"     "     <path d="M566 249h14v20h-14zm15 0h7v19h-7zm-15 21h8v20h-8z" stroke="#78781f" fill="#f0f03f"/>"     "     "     <path d="M575 270h13v20h-13zm-9 21h9v20h-9zm10 0h11v19h-11z" fill="#f0f040" stroke="#787820"/>"     "     "     <path d="M566 312h21v20h-21zm0 21h13v20h-13z" stroke="#787820" fill="#f0f041"/>"     "     <path d="M580 333h8v20h-8zm-14 21h22v20h-22zm0 21h11v20h-11z" fill="#f0f042" stroke="#787821"/>"     "     "     <path d="M578 375h10v19h-10zm-12 21h17v20h-17zm18 0h4v17h-4z" stroke="#787821" fill="#f0f043"/>"     "     "     <path d="M566 417h15v19h-15zm16 0h6v19h-6z" fill="#f0f044" stroke="#787822"/>"     "     <path d="M566 437h20v19h-20zm0 20h18v19h-18zm19 0h3v15h-3z" stroke="#787822" fill="#f0f045"/>"     "     "     <path d="M566 477h15v19h-15zm16 0h6v18h-6zm-16 20h20v15h-20z" fill="#f0f046" stroke="#787823"/>"     "     "     <path d="M589 124h21v18h-21zm22 0h21v18h-21z" stroke="#787823" fill="#f0f047"/>"     "     <path d="M633 124h21v12h-21zm0 13h15v3h-15zm16 0h5v3h-5z" fill="#f0f048" stroke="#787824"/>"     "     "     <path d="M655 124h21v11h-21zm0 12h16v6h-16zm17 0h3v6h-3z" stroke="#787824" fill="#f0f049"/>"     "     "     <path d="M677 124h21v9h-21zm0 10h20v8h-20z" fill="#f0f04a" stroke="#787825"/>"     "     <path d="M699 124h21v16h-21zm22 0h21v13h-21zm0 14h15v4h-15z" stroke="#787825" fill="#f0f04b"/>"     "     "     <path d="M737 138h5v4h-5zm6-14h21v12h-21zm0 13h15v5h-15z" fill="#f0f04c" stroke="#787826"/>"     "     "     <path d="M765 124h21v17h-21zm22 0h21v18h-21z" stroke="#787826" fill="#f0f04d"/>"     "     <path d="M809 124h20v11h-20zm0 12h16v6h-16zm17 0h3v6h-3z" fill="#f0f04e" stroke="#787827"/>"     "     "     <path d="M830 124h20v15h-20zm0 16h14v2h-14zm21-16h20v16h-20z" stroke="#787827" fill="#f0f04f"/>"     "     "     <path d="M872 124h20v14h-20zm0 15h14v2h-14z" fill="#f0f050" stroke="#787828"/>"     "     <path d="M893 124h20v15h-20zm0 16h13v2h-13zm14 0h6v2h-6z" stroke="#787828" fill="#f0f051"/>"     "     "     <path d="M914 124h20v9h-20zm0 10h17v8h-17zm18 0h2v6h-2z" fill="#f0f052" stroke="#787829"/>"     "     "     <path d="M935 124h20v9h-20zm0 10h17v8h-17z" stroke="#787829" fill="#f0f053"/>"     "     <path d="M953 134h2v7h-2zm3-10h19v12h-19zm0 13h15v5h-15z" fill="#f0f054" stroke="#78782a"/>"     "     "     <path d="M976 124h19v17h-19zm20 0h19v18h-19zm20 0h8v18h-8z" stroke="#78782a" fill="#f0f055"/>"     "     "     <path d="M589 143h20v19h-20zm0 20h13v19h-13z" fill="#f0f056" stroke="#78782b"/>"     "     <path d="M603 163h6v18h-6zm-14 20h19v19h-19zm0 20h16v19h-16z" stroke="#78782b" fill="#f0f057"/>"     "     "     <path d="M606 203h3v14h-3zm-17 20h20v19h-20zm0 20h11v19h-11z" fill="#f0f058" stroke="#78782c"/>"     "     "     <path d="M601 243h8v19h-8zm-12 20h13v19h-13z" stroke="#78782c" fill="#f0f059"/>"     "     <path d="M603 263h6v18h-6zm-14 20h19v19h-19zm0 20h13v19h-13z" fill="#f0f05a" stroke="#78782d"/>"     "     "     <path d="M603 303h5v16h-5zm0 17h6v2h-6zm-14 3h13v19h-13z" stroke="#78782d" fill="#f0f05b"/>"     "     "     <path d="M603 323h5v16h-5zm0 17h6v2h-6z" fill="#f0f05c" stroke="#78782e"/>"     "     <path d="M589 343h11v18h-11zm12 0h8v18h-8zm-12 19h10v18h-10z" stroke="#78782e" fill="#f0f05d"/>"     "     "     <path d="M600 362h9v18h-9zm-11 19h18v18h-18zm0 19h13v18h-13z" fill="#f0f05e" stroke="#78782f"/>"     "     "     <path d="M603 400h5v15h-5zm-14 19h7v18h-7z" stroke="#78782f" fill="#f0f05f"/>"     "     <path d="M597 419h12v18h-12zm-8 19h11v18h-11zm12 0h7v17h-7z" fill="#f0f060" stroke="#787830"/>"     "     "     <path d="M589 457h11v18h-11zm12 0h8v17h-8zm-12 19h7v18h-7z" stroke="#787830" fill="#f0f061"/>"     "     "     <path d="M589 495h7v16h-7zm8-19h11v18h-11z" fill="#f0f062" stroke="#787831"/>"     "     <path d="M597 495h12v17h-12zm13-352h19v17h-19zm0 18h12v18h-12z" stroke="#787831" fill="#f0f063"/>"     "     "     <path d="M623 161h5v15h-5zm-13 19h17v18h-17zm0 19h14v18h-14z" fill="#f0f064" stroke="#787832"/>"     "     "     <path d="M625 199h3v14h-3zm-15 19h7v18h-7z" stroke="#787832" fill="#f0f065"/>"     "     <path d="M618 218h11v18h-11zm-8 19h10v18h-10zm11 0h7v18h-7z" fill="#f0f066" stroke="#787833"/>"     "     "     <path d="M610 256h13v18h-13zm14 0h5v15h-5zm-14 19h10v18h-10z" stroke="#787833" fill="#f0f067"/>"     "     "     <path d="M621 275h8v17h-8zm-11 19h17v18h-17z" fill="#f0f068" stroke="#787834"/>"     "     <path d="M610 313h17v18h-17zm0 19h19v18h-19zm0 19h16v18h-16z" stroke="#787834" fill="#f0f069"/>"     "     "     <path d="M627 351h2v14h-2zm-17 19h18v18h-18zm0 19h13v18h-13z" fill="#f0f06a" stroke="#787835"/>"     "     "     <path d="M624 389h5v15h-5zm-14 19h14v18h-14z" stroke="#787835" fill="#f0f06b"/>"     "     <path d="M625 408h3v13h-3zm-15 19h14v17h-14zm15-5h3v13h-3z" fill="#f0f06c" stroke="#787836"/>"     "     "     <path d="M625 436h4v8h-4zm-15 9h14v17h-14zm15 0h3v13h-3z" stroke="#787836" fill="#f0f06d"/>"     "     "     <path d="M610 463h9v17h-9zm10 0h9v17h-9z" fill="#f0f06e" stroke="#787837"/>"     "     <path d="M610 481h14v17h-14zm0 18h19v13h-19zm15-18h2v13h-2z" stroke="#787837" fill="#f0f06f"/>"     "     "     <path d="M630 143h19v15h-19zm20 0h19v11h-19zm0 12h14v3h-14z" fill="#f0f070" stroke="#787838"/>"     "     "     <path d="M670 143h19v11h-19zm-5 12h13v2h-13z" stroke="#787838" fill="#f0f071"/>"     "     <path d="M679 155h10v3h-10zm11-12h19v10h-19zm0 11h15v4h-15z" fill="#f0f072" stroke="#787839"/>"     "     "     <path d="M710 143h19v11h-19zm0 12h13v2h-13zm20-12h19v14h-19z" stroke="#787839" fill="#f0f073"/>"     "     "     <path d="M750 143h19v10h-19zm0 11h14v4h-14z" fill="#f0f074" stroke="#78783a"/>"     "     <path d="M770 143h19v11h-19zm0 12h13v3h-13zm20-12h18v15h-18z" stroke="#78783a" fill="#f0f075"/>"     "     "     <path d="M809 143h18v12h-18zm0 13h12v2h-12zm19-13h18v15h-18z" fill="#f0f076" stroke="#78783b"/>"     "     "     <path d="M847 143h18v11h-18zm0 12h13v3h-13z" stroke="#78783b" fill="#f0f077"/>"     "     <path d="M866 143h18v15h-18zm19 0h18v10h-18zm0 11h13v4h-13z" fill="#f0f078" stroke="#78783c"/>"     "     "     <path d="M904 143h18v12h-18zm0 13h11v2h-11zm19-13h17v11h-17z" stroke="#78783c" fill="#f0f079"/>"     "     "     <path d="M923 155h13v3h-13zm18-12h17v8h-17z" fill="#f0f07a" stroke="#78783d"/>"     "     <path d="M941 152h15v6h-15zm18-9h17v12h-17zm0 13h9v2h-9z" stroke="#78783d" fill="#f0f07b"/>"     "     "     <path d="M977 143h17v11h-17zm0 12h12v3h-12zm18-12h17v10h-17z" fill="#f0f07c" stroke="#78783e"/>"     "     "     <path d="M1013 143h11v15h-11zm-18 11h13v4h-13z" stroke="#78783e" fill="#f0f07d"/>"     "     <path d="M630 159h19v17h-19zm0 18h14v17h-14zm15 0h4v13h-4z" fill="#f0f07e" stroke="#78783f"/>"     "     "     <path d="M630 195h17v17h-17zm0 18h11v17h-11zm12 0h7v16h-7z" stroke="#78783f" fill="#f0f07f"/>"     "     "     <path d="M630 231h15v17h-15zm16 0h2v13h-2z" fill="#f0f080" stroke="#787840"/>"     "     <path d="M630 249h18v17h-18zm0 18h16v17h-16zm17 0h2v12h-2z" stroke="#787840" fill="#f0f081"/>"     "     "     <path d="M630 285h12v17h-12zm13 0h6v15h-6zm-13 18h12v17h-12z" fill="#f0f082" stroke="#787841"/>"     "     "     <path d="M643 301h6v14h-6zm0 15h6v3h-6z" stroke="#787841" fill="#f0f083"/>"     "     <path d="M630 321h17v17h-17zm0 18h18v17h-18zm0 18h12v17h-12z" fill="#f0f084" stroke="#787842"/>"     "     "     <path d="M643 357h5v14h-5zm-13 18h14v17h-14zm15 0h3v13h-3z" stroke="#787842" fill="#f0f085"/>"     "     "     <path d="M630 393h13v17h-13zm14 0h5v14h-5z" fill="#f0f086" stroke="#787843"/>"     "     <path d="M630 411h8v17h-8zm9 0h10v16h-10zm-9 18h16v17h-16z" stroke="#787843" fill="#f0f087"/>"     "     "     <path d="M647 429h2v11h-2zm-17 18h16v17h-16zm17-6h2v10h-2z" fill="#f0f088" stroke="#787844"/>"     "     "     <path d="M647 452h2v9h-2zm-17 13h16v17h-16z" stroke="#787844" fill="#f0f089"/>"     "     <path d="M630 483h17v17h-17zm0 18h16v8h-16zm0 9h9v2h-9z" fill="#f0f08a" stroke="#787845"/>"     "     "     <path d="M640 510h9v2h-9zm10-351h19v16h-19zm20 0h18v16h-18z" stroke="#787845" fill="#f0f08b"/>"     "     "     <path d="M689 159h18v16h-18zm19 0h17v15h-17z" fill="#f0f08c" stroke="#787846"/>"     "     <path d="M726 159h17v8h-17zm0 9h16v7h-16zm18-9h17v13h-17z" stroke="#787846" fill="#f0f08d"/>"     "     "     <path d="M762 159h17v16h-17zm18 0h16v13h-16zm17 0h16v9h-16z" fill="#f0f08e" stroke="#787847"/>"     "     "     <path d="M797 169h15v5h-15zm17-10h16v8h-16z" stroke="#787847" fill="#f0f08f"/>"     "     <path d="M814 168h16v7h-16zm17-9h16v9h-16zm0 10h14v5h-14z" fill="#f0f090" stroke="#787848"/>"     "     "     <path d="M848 159h16v8h-16zm0 9h16v7h-16zm17-9h16v10h-16z" stroke="#787848" fill="#f0f091"/>"     "     "     <path d="M865 170h13v4h-13zm17-11h16v11h-16z" fill="#f0f092" stroke="#787849"/>"     "     <path d="M882 171h12v3h-12zm17-12h16v12h-16zm0 13h11v3h-11z" stroke="#787849" fill="#f0f093"/>"     "     "     <path d="M916 159h16v14h-16zm17 0h16v12h-16zm0 13h11v3h-11z" fill="#f0f094" stroke="#78784a"/>"     "     "     <path d="M950 159h16v8h-16zm0 9h15v7h-15z" stroke="#78784a" fill="#f0f095"/>"     "     <path d="M967 159h16v14h-16zm17 0h16v12h-16zm17 0h16v13h-16z" fill="#f0f096" stroke="#78784b"/>"     "     "     <path d="M1018 159h6v14h-6zm-34 13h9v3h-9zm10 0h6v3h-6z" stroke="#78784b" fill="#f0f097"/>"     "     "     <path d="M650 176h18v17h-18zm0 18h9v17h-9z" fill="#f0f098" stroke="#78784c"/>"     "     <path d="M660 194h8v17h-8zm-10 18h9v17h-9zm10 0h8v17h-8z" stroke="#78784c" fill="#f0f099"/>"     "     "     <path d="M650 230h13v17h-13zm14 0h3v12h-3zm-14 18h12v17h-12z" fill="#f0f09a" stroke="#78784d"/>"     "     "     <path d="M663 248h5v13h-5zm-13 18h14v17h-14z" stroke="#78784d" fill="#f0f09b"/>"     "     <path d="M665 266h3v11h-3zm-15 18h14v16h-14zm15-6h3v11h-3z" fill="#f0f09c" stroke="#78784e"/>"     "     "     <path d="M665 290h3v10h-3zm-15 11h9v16h-9zm10 0h8v16h-8z" stroke="#78784e" fill="#f0f09d"/>"     "     "     <path d="M650 318h12v16h-12zm13 0h5v13h-5z" fill="#f0f09e" stroke="#78784f"/>"     "     <path d="M650 335h15v16h-15zm0 17h11v16h-11zm12 0h6v14h-6z" stroke="#78784f" fill="#f0f09f"/>"     "     "     <path d="M650 369h12v16h-12zm13 0h5v12h-5zm-13 17h10v16h-10z" fill="#f0f0a0" stroke="#787850"/>"     "     "     <path d="M661 386h7v15h-7zm-11 17h13v16h-13z" stroke="#787850" fill="#f0f0a1"/>"     "     <path d="M664 403h4v12h-4zm-14 17h11v16h-11zm12 0h6v13h-6z" fill="#f0f0a2" stroke="#787851"/>"     "     "     <path d="M650 437h13v16h-13zm14 0h4v11h-4zm-14 17h11v16h-11z" stroke="#787851" fill="#f0f0a3"/>"     "     "     <path d="M662 454h6v12h-6zm0 13h6v3h-6z" fill="#f0f0a4" stroke="#787852"/>"     "     <path d="M650 471h15v16h-15zm0 17h13v16h-13zm0 17h14v7h-14z" stroke="#787852" fill="#f0f0a5"/>"     "     "     <path d="M665 505h3v6h-3zm-1-17h3v10h-3zm5-312h16v12h-16z" fill="#f0f0a6" stroke="#787853"/>"     "     "     <path d="M686 176h16v10h-16zm17 0h16v8h-16z" stroke="#787853" fill="#f0f0a7"/>"     "     <path d="M703 185h9v3h-9zm17-9h16v9h-16zm17 0h16v8h-16z" fill="#f0f0a8" stroke="#787854"/>"     "     "     <path d="M737 185h8v3h-8zm17-9h15v10h-15zm16 0h15v10h-15z" stroke="#787854" fill="#f0f0a9"/>"     "     "     <path d="M786 176h15v8h-15zm0 9h8v3h-8z" fill="#f0f0aa" stroke="#787855"/>"     "     <path d="M802 176h15v10h-15zm16 0h15v12h-15zm16 0h15v11h-15z" stroke="#787855" fill="#f0f0ab"/>"     "     "     <path d="M850 176h15v11h-15zm16 0h14v10h-14zm15 0h14v12h-14z" fill="#f0f0ac" stroke="#787856"/>"     "     "     <path d="M896 176h14v8h-14zm0 9h8v3h-8z" stroke="#787856" fill="#f0f0ad"/>"     "     <path d="M911 176h14v11h-14zm15 0h14v10h-14zm15 0h14v10h-14z" fill="#f0f0ae" stroke="#787857"/>"     "     "     <path d="M956 176h14v8h-14zm0 9h10v3h-10zm15-9h14v12h-14z" stroke="#787857" fill="#f0f0af"/>"     "     "     <path d="M986 176h14v11h-14zm15 0h13v10h-13z" fill="#f0f0b0" stroke="#787858"/>"     "     <path d="M1015 176h9v12h-9zm-346 13h16v13h-16zm17 0h14v13h-14z" stroke="#787858" fill="#f0f0b1"/>"     "     "     <path d="M701 189h14v13h-14zm15 0h13v6h-13zm0 7h13v6h-13z" fill="#f0f0b2" stroke="#787859"/>"     "     "     <path d="M730 189h13v9h-13zm0 10h8v3h-8z" stroke="#787859" fill="#f0f0b3"/>"     "     <path d="M744 189h13v9h-13zm-5 10h9v3h-9zm19-10h13v10h-13z" fill="#f0f0b4" stroke="#78785a"/>"     "     "     <path d="M772 189h13v13h-13zm14 0h14v13h-14zm15 0h13v11h-13z" stroke="#78785a" fill="#f0f0b5"/>"     "     "     <path d="M815 189h14v13h-14zm15 0h13v8h-13z" fill="#f0f0b6" stroke="#78785b"/>"     "     <path d="M830 198h11v4h-11zm14-9h13v11h-13zm14 0h13v9h-13z" stroke="#78785b" fill="#f0f0b7"/>"     "     "     <path d="M872 189h13v8h-13zm0 9h11v4h-11zm14-9h13v11h-13z" fill="#f0f0b8" stroke="#78785c"/>"     "     "     <path d="M900 189h13v11h-13zm14 0h15v13h-15z" stroke="#78785c" fill="#f0f0b9"/>"     "     <path d="M930 189h12v8h-12zm0 9h9v4h-9zm13-9h12v7h-12z" fill="#f0f0ba" stroke="#78785d"/>"     "     "     <path d="M943 197h12v5h-12zm13-8h12v7h-12zm0 8h12v5h-12z" stroke="#78785d" fill="#f0f0bb"/>"     "     "     <path d="M969 189h12v11h-12zm13 0h12v13h-12z" fill="#f0f0bc" stroke="#78785e"/>"     "     <path d="M995 189h12v12h-12zm13 0h14v12h-14zm-339 14h16v16h-16z" stroke="#78785e" fill="#f0f0bd"/>"     "     "     <path d="M669 220h10v16h-10zm11 0h5v11h-5zm-11 17h9v16h-9z" fill="#f0f0be" stroke="#78785f"/>"     "     "     <path d="M679 237h6v10h-6zm0 11h6v5h-6z" stroke="#78785f" fill="#f0f0bf"/>"     "     <path d="M669 254h15v16h-15zm0 17h14v16h-14zm0 17h11v16h-11z" fill="#f0f0c0" stroke="#787860"/>"     "     "     <path d="M681 288h4v9h-4zm-12 17h14v15h-14zm0 16h9v15h-9z" stroke="#787860" fill="#f0f0c1"/>"     "     "     <path d="M679 321h6v10h-6zm-10 16h15v15h-15z" fill="#f0f0c2" stroke="#787861"/>"     "     <path d="M669 353h8v15h-8zm9 0h7v14h-7zm-9 16h9v15h-9z" stroke="#787861" fill="#f0f0c3"/>"     "     "     <path d="M679 369h6v10h-6zm-10 16h9v15h-9zm10-5h6v9h-6z" fill="#f0f0c4" stroke="#787862"/>"     "     "     <path d="M679 390h6v10h-6zm-10 11h14v15h-14z" stroke="#787862" fill="#f0f0c5"/>"     "     <path d="M669 417h14v15h-14zm0 16h9v15h-9zm10 0h4v9h-4z" fill="#f0f0c6" stroke="#787863"/>"     "     "     <path d="M679 443h6v5h-6zm-10 6h15v15h-15zm0 16h12v15h-12z" stroke="#787863" fill="#f0f0c7"/>"     "     "     <path d="M669 481h11v15h-11zm0 16h15v14h-15z" fill="#f0f0c8" stroke="#787864"/>"     "     <path d="M681 481h4v9h-4zm5-278h15v14h-15zm0 15h10v15h-10z" stroke="#787864" fill="#f0f0c9"/>"     "     "     <path d="M697 218h4v7h-4zm0 8h4v7h-4zm-11 8h9v15h-9z" fill="#f0f0ca" stroke="#787865"/>"     "     "     <path d="M696 234h5v8h-5zm-10 16h14v15h-14z" stroke="#787865" fill="#f0f0cb"/>"     "     <path d="M686 266h10v15h-10zm11 0h4v9h-4zm-11 16h10v15h-10z" fill="#f0f0cc" stroke="#787866"/>"     "     "     <path d="M697 276h4v8h-4zm-11 22h11v15h-11zm0 16h11v14h-11z" stroke="#787866" fill="#f0f0cd"/>"     "     "     <path d="M686 329h14v14h-14zm0 15h14v14h-14z" fill="#f0f0ce" stroke="#787867"/>"     "     <path d="M686 359h10v14h-10zm0 15h10v14h-10zm0 15h7v14h-7z" stroke="#787867" fill="#f0f0cf"/>"     "     "     <path d="M694 389h7v13h-7zm-8 15h11v14h-11zm0 15h9v14h-9z" fill="#f0f0d0" stroke="#787868"/>"     "     "     <path d="M696 419h5v7h-5zm-10 15h14v14h-14z" stroke="#787868" fill="#f0f0d1"/>"     "     <path d="M686 449h11v13h-11zm0 14h9v13h-9zm10 0h5v7h-5z" fill="#f0f0d2" stroke="#787869"/>"     "     "     <path d="M686 477h11v13h-11zm0 14h8v13h-8zm0 14h8v7h-8z" stroke="#787869" fill="#f0f0d3"/>"     "     "     <path d="M695 491h6v8h-6zm0 9h6v8h-6z" fill="#f0f0d4" stroke="#78786a"/>"     "     <path d="M702 203h12v12h-12zm0 13h11v13h-11zm0 14h9v13h-9z" stroke="#78786a" fill="#f0f0d5"/>"     "     "     <path d="M702 244h11v13h-11zm0 14h9v13h-9zm0 14h8v12h-8z" fill="#f0f0d6" stroke="#78786b"/>"     "     "     <path d="M702 285h10v12h-10zm0 13h7v12h-7z" stroke="#78786b" fill="#f0f0d7"/>"     "     <path d="M702 311h7v12h-7zm0 13h7v12h-7zm0 13h8v12h-8z" fill="#f0f0d8" stroke="#78786c"/>"     "     "     <path d="M702 350h12v12h-12zm0 13h10v12h-10zm0 13h11v12h-11z" stroke="#78786c" fill="#f0f0d9"/>"     "     "     <path d="M702 389h10v11h-10zm0 12h10v11h-10z" fill="#f0f0da" stroke="#78786d"/>"     "     <path d="M702 413h10v11h-10zm0 12h7v11h-7zm0 12h11v11h-11z" stroke="#78786d" fill="#f0f0db"/>"     "     "     <path d="M702 449h9v11h-9zm0 12h11v11h-11zm0 12h10v10h-10z" fill="#f0f0dc" stroke="#78786e"/>"     "     "     <path d="M702 484h11v10h-11zm0 11h9v10h-9z" stroke="#78786e" fill="#f0f0dd"/>"     "     <path d="M702 506h11v6h-11zm13-303h10v10h-10zm0 11h10v11h-10z" fill="#f0f0de" stroke="#78786f"/>"     "     "     <path d="M715 226h7v10h-7zm0 11h10v12h-10zm0 13h8v9h-8z" stroke="#78786f" fill="#f0f0df"/>"     "     "     <path d="M715 260h9v11h-9zm0 12h9v12h-9z" fill="#f0f0e0" stroke="#787870"/>"     "     <path d="M715 285h8v9h-8zm0 10h10v9h-10zm0 10h9v9h-9z" stroke="#787870" fill="#f0f0e1"/>"     "     "     <path d="M715 315h10v9h-10zm0 10h10v9h-10zm0 10h9v11h-9z" fill="#f0f0e2" stroke="#787871"/>"     "     "     <path d="M715 347h7v9h-7zm0 10h8v9h-8z" stroke="#787871" fill="#f0f0e3"/>"     "     <path d="M715 367h9v11h-9zm0 12h9v12h-9zm0 13h8v11h-8z" fill="#f0f0e4" stroke="#787872"/>"     "     "     <path d="M715 404h8v12h-8zm0 13h10v8h-10zm0 9h7v8h-7z" stroke="#787872" fill="#f0f0e5"/>"     "     "     <path d="M715 435h8v11h-8zm0 12h8v8h-8z" fill="#f0f0e6" stroke="#787873"/>"     "     <path d="M715 456h8v11h-8zm0 12h8v8h-8zm0 9h6v7h-6z" stroke="#787873" fill="#f0f0e7"/>"     "     "     <path d="M715 485h6v7h-6zm0 8h8v7h-8zm0 8h8v7h-8z" fill="#f0f0e8" stroke="#787874"/>"     "     "     <path d="M726 203h5v7h-5zm0 8h5v10h-5z" stroke="#787874" fill="#f0f0e9"/>"     "     <path d="M726 222h5v7h-5zm0 8h5v7h-5zm0 8h5v11h-5z" fill="#f0f0ea" stroke="#787875"/>"     "     "     <path d="M726 250h5v8h-5zm0 9h5v9h-5zm0 10h5v8h-5z" stroke="#787875" fill="#f0f0eb"/>"     "     "     <path d="M726 278h5v11h-5zm6-75h9v7h-9z" fill="#f0f0ec" stroke="#787876"/>"     "     <path d="M742 203h11v6h-11zm12 0h11v6h-11zm12 0h11v6h-11z" stroke="#787876" fill="#f0f0ed"/>"     "     "     <path d="M778 203h10v7h-10zm11 0h7v6h-7zm8 0h7v7h-7z" fill="#f0f0ee" stroke="#787877"/>"     "     "     <path d="M805 203h6v6h-6zm7 0h6v7h-6z" stroke="#787877" fill="#f0f0ef"/>"     "     <text y="526" font-size="12" fill="#000" x="0"> MaxRectsBin(size: 1024x512, choice: BestLongSideFit, method: MinimizeArea): inserted 1536 of 1536 rectangles with w/h lengths between [2, 31], occupancy: 80.22% </text></svg>