<svg xmlns="http://www.w3.org/2000/svg" viewBox="0 0 1024 536" xmlns:v="https://vecta.io/nano"><path d="M0 0h1024v512H0z" fill="#fff" stroke="#000"/>"     <path d="M1 1h1v13H1zm2 0h1v15H3z" fill="#303030" stroke="#181818"/>"     "     <path d="M5 1h1v7H5z" fill="#303130" stroke="#181818"/>"     <path d="M7 1h1v15H7zm2 0h1v12H9z" fill="#303230" stroke="#181918"/>"     "     <path d="M11 1h1v22h-1z" fill="#303330" stroke="#181918"/>"     <path d="M13 1h1v23h-1zm2 0h1v27h-1z" fill="#303430" stroke="#181a18"/>"     "     <path d="M17 1h1v17h-1z" fill="#303530" stroke="#181a18"/>"     <g stroke="#181b18"><path d="M19 1h1v30h-1z" fill="#303630"/><path d="M21 1h1v17h-1zm2 0h1v14h-1z" fill="#303730"/></g>"     "     "     <g stroke="#181c18"><path d="M25 1h1v12h-1z" fill="#303830"/><path d="M27 1h1v14h-1zm2 0h1v19h-1z" fill="#303930"/></g>"     "     "     <g stroke="#181d18"><path d="M31 1h1v20h-1z" fill="#303a30"/><path d="M33 1h1v21h-1zm2 0h1v4h-1z" fill="#303b30"/></g>"     "     "     <g stroke="#181e18"><path d="M37 1h1v21h-1z" fill="#303c30"/><path d="M39 1h1v16h-1z" fill="#303d30"/></g>"     "     <path d="M41 1h1v21h-1zm2 0h1v19h-1z" fill="#303e30" stroke="#181f18"/>"     "     <path d="M45 1h1v8h-1z" fill="#303f30" stroke="#181f18"/>"     <path d="M47 1h1v12h-1zm2 0h1v19h-1z" fill="#304030" stroke="#182018"/>"     "     <path d="M51 1h1v14h-1z" fill="#304130" stroke="#182018"/>"     <path d="M53 1h1v4h-1zm2 0h1v15h-1z" fill="#304230" stroke="#182118"/>"     "     <path d="M57 1h1v11h-1z" fill="#304330" stroke="#182118"/>"     <g stroke="#182218"><path d="M59 1h1v15h-1z" fill="#304430"/><path d="M61 1h1v3h-1zm2 0h1v23h-1z" fill="#304530"/></g>"     "     "     <g stroke="#182318"><path d="M65 1h1v24h-1z" fill="#304630"/><path d="M67 1h1v1h-1zm2 0h1v13h-1z" fill="#304730"/></g>"     "     "     <g stroke="#182418"><path d="M71 1h1v3h-1z" fill="#304830"/><path d="M73 1h1v22h-1zm2 0h1v26h-1z" fill="#304930"/></g>"     "     "     <g stroke="#182518"><path d="M77 1h1v2h-1z" fill="#304a30"/><path d="M79 1h1v14h-1z" fill="#304b30"/></g>"     "     <path d="M81 1h1v4h-1zm2 0h1v26h-1z" fill="#304c30" stroke="#182618"/>"     "     <path d="M85 1h1v7h-1z" fill="#304d30" stroke="#182618"/>"     <path d="M87 1h1v7h-1zm2 0h1v23h-1z" fill="#304e30" stroke="#182718"/>"     "     <path d="M91 1h1v26h-1z" fill="#304f30" stroke="#182718"/>"     <path d="M93 1h1v6h-1zm2 0h1v3h-1z" fill="#305030" stroke="#182818"/>"     "     <path d="M97 1h1v15h-1z" fill="#305130" stroke="#182818"/>"     <g stroke="#182918"><path d="M99 1h2v28h-2z" fill="#305230"/><path d="M102 1h2v14h-2zm3 0h2v28h-2z" fill="#305330"/></g>"     "     "     <g stroke="#182a18"><path d="M108 1h2v18h-2z" fill="#305430"/><path d="M111 1h2v12h-2zm3 0h2v21h-2z" fill="#305530"/></g>"     "     "     <g stroke="#182b18"><path d="M117 1h2v6h-2z" fill="#305630"/><path d="M120 1h2v23h-2zm3 0h2v21h-2z" fill="#305730"/></g>"     "     "     <g stroke="#182c18"><path d="M126 1h2v15h-2z" fill="#305830"/><path d="M129 1h2v19h-2z" fill="#305930"/></g>"     "     <path d="M132 1h2v8h-2zm3 0h2v20h-2z" fill="#305a30" stroke="#182d18"/>"     "     <path d="M138 1h2v13h-2z" fill="#305b30" stroke="#182d18"/>"     <path d="M141 1h2v7h-2zm3 0h2v22h-2z" fill="#305c30" stroke="#182e18"/>"     "     <path d="M147 1h2v1h-2z" fill="#305d30" stroke="#182e18"/>"     <path d="M150 1h2v23h-2zm3 0h2v13h-2z" fill="#305e30" stroke="#182f18"/>"     "     <path d="M156 1h2v14h-2z" fill="#305f30" stroke="#182f18"/>"     <g stroke="#183018"><path d="M159 1h2v9h-2z" fill="#306030"/><path d="M162 1h2v15h-2zm3 0h2v22h-2z" fill="#306130"/></g>"     "     "     <g stroke="#183118"><path d="M168 1h2v5h-2z" fill="#306230"/><path d="M171 1h2v5h-2zm3 0h2v2h-2z" fill="#306330"/></g>"     "     "     <g stroke="#183218"><path d="M177 1h2v21h-2z" fill="#306430"/><path d="M180 1h2v1h-2zm3 0h2v10h-2z" fill="#306530"/></g>"     "     "     <g stroke="#183318"><path d="M186 1h2v1h-2z" fill="#306630"/><path d="M189 1h2v24h-2z" fill="#306730"/></g>"     "     <path d="M192 1h2v24h-2zm3 0h2v23h-2z" fill="#306830" stroke="#183418"/>"     "     <path d="M198 1h2v2h-2z" fill="#306930" stroke="#183418"/>"     <path d="M201 1h2v27h-2zm3 0h2v20h-2z" fill="#306a30" stroke="#183518"/>"     "     <path d="M207 1h2v3h-2z" fill="#306b30" stroke="#183518"/>"     <path d="M210 1h2v25h-2zm3 0h2v5h-2z" fill="#306c30" stroke="#183618"/>"     "     <path d="M216 1h2v24h-2z" fill="#306d30" stroke="#183618"/>"     <g stroke="#183718"><path d="M219 1h2v7h-2z" fill="#306e30"/><path d="M222 1h2v30h-2zm3 0h2v11h-2z" fill="#306f30"/></g>"     "     "     <g stroke="#183818"><path d="M228 1h2v6h-2z" fill="#307030"/><path d="M231 1h3v17h-3zm4 0h3v8h-3z" fill="#307130"/></g>"     "     "     <g stroke="#183918"><path d="M239 1h3v18h-3z" fill="#307230"/><path d="M243 1h3v18h-3zm4 0h3v10h-3z" fill="#307330"/></g>"     "     "     <g stroke="#183a18"><path d="M251 1h3v13h-3z" fill="#307430"/><path d="M255 1h3v28h-3z" fill="#307530"/></g>"     "     <path d="M259 1h3v11h-3zm4 0h3v26h-3z" fill="#307630" stroke="#183b18"/>"     "     <path d="M267 1h3v2h-3z" fill="#307730" stroke="#183b18"/>"     <path d="M271 1h3v30h-3zm4 0h3v25h-3z" fill="#307830" stroke="#183c18"/>"     "     <path d="M279 1h3v10h-3z" fill="#307930" stroke="#183c18"/>"     <path d="M283 1h3v25h-3zm4 0h3v24h-3z" fill="#307a30" stroke="#183d18"/>"     "     <path d="M291 1h3v26h-3z" fill="#307b30" stroke="#183d18"/>"     <g stroke="#183e18"><path d="M295 1h3v16h-3z" fill="#307c30"/><path d="M299 1h3v17h-3zm4 0h3v6h-3z" fill="#307d30"/></g>"     "     "     <g stroke="#183f18"><path d="M307 1h3v7h-3z" fill="#307e30"/><path d="M311 1h3v27h-3zm4 0h3v13h-3z" fill="#307f30"/></g>"     "     "     <g stroke="#184018"><path d="M319 1h3v19h-3z" fill="#308030"/><path d="M323 1h3v21h-3zm4 0h3v15h-3z" fill="#308130"/></g>"     "     "     <g stroke="#184118"><path d="M331 1h3v4h-3z" fill="#308230"/><path d="M335 1h3v28h-3z" fill="#308330"/></g>"     "     <path d="M339 1h3v23h-3zm4 0h3v14h-3z" fill="#308430" stroke="#184218"/>"     "     <path d="M347 1h3v9h-3z" fill="#308530" stroke="#184218"/>"     <path d="M351 1h3v26h-3zm4 0h3v24h-3z" fill="#308630" stroke="#184318"/>"     "     <path d="M359 1h3v30h-3z" fill="#308730" stroke="#184318"/>"     <path d="M363 1h3v12h-3zm4 0h3v13h-3z" fill="#308830" stroke="#184418"/>"     "     <path d="M371 1h3v18h-3z" fill="#308930" stroke="#184418"/>"     <g stroke="#184518"><path d="M375 1h3v28h-3z" fill="#308a30"/><path d="M379 1h3v26h-3zm4 0h3v1h-3z" fill="#308b30"/></g>"     "     "     <g stroke="#184618"><path d="M383 3h3v8h-3z" fill="#308c30"/><path d="M387 1h3v29h-3zm4 0h3v13h-3z" fill="#308d30"/></g>"     "     "     <g stroke="#184718"><path d="M395 1h3v22h-3z" fill="#308e30"/><path d="M399 1h3v6h-3z" fill="#308f30"/></g>"     "     <path d="M403 1h3v10h-3zm4 0h3v15h-3z" fill="#309030" stroke="#184818"/>"     "     <path d="M411 1h3v27h-3z" fill="#309130" stroke="#184818"/>"     <path d="M415 1h3v10h-3zm4 0h3v22h-3z" fill="#309230" stroke="#184918"/>"     "     <path d="M423 1h3v2h-3z" fill="#309330" stroke="#184918"/>"     <path d="M423 4h3v27h-3zm4-3h3v12h-3z" fill="#309430" stroke="#184a18"/>"     "     <path d="M431 1h3v26h-3z" fill="#309530" stroke="#184a18"/>"     <g stroke="#184b18"><path d="M435 1h3v11h-3z" fill="#309630"/><path d="M439 1h3v20h-3zm4 0h3v14h-3z" fill="#309730"/></g>"     "     "     <g stroke="#184c18"><path d="M447 1h3v1h-3z" fill="#309830"/><path d="M447 3h3v19h-3zm4-2h3v29h-3z" fill="#309930"/></g>"     "     "     <g stroke="#184d18"><path d="M455 1h3v27h-3z" fill="#309a30"/><path d="M459 1h3v20h-3zm4 0h3v5h-3z" fill="#309b30"/></g>"     "     "     <g stroke="#184e18"><path d="M467 1h3v8h-3z" fill="#309c30"/><path d="M471 1h3v30h-3z" fill="#309d30"/></g>"     "     <path d="M475 1h3v10h-3zm4 0h4v25h-4z" fill="#309e30" stroke="#184f18"/>"     "     <path d="M484 1h4v9h-4z" fill="#309f30" stroke="#184f18"/>"     <path d="M489 1h4v5h-4zm5 0h4v30h-4z" fill="#30a030" stroke="#185018"/>"     "     <path d="M499 1h4v28h-4z" fill="#30a130" stroke="#185018"/>"     <path d="M504 1h4v22h-4zm5 0h4v26h-4z" fill="#30a230" stroke="#185118"/>"     "     <path d="M514 1h22v1h-22z" fill="#30a330" stroke="#185118"/>"     <g stroke="#185218"><path d="M67 3h1v15h-1z" fill="#30a430"/><path d="M147 3h1v11h-1zm33 0h1v5h-1z" fill="#30a530"/></g>"     "     "     <g stroke="#185318"><path d="M186 3h1v17h-1z" fill="#30a630"/><path d="M514 3h27v1h-27zM77 4h1v13h-1z" fill="#30a730"/></g>"     "     "     <g stroke="#185418"><path d="M174 4h1v12h-1z" fill="#30a830"/><path d="M198 4h1v19h-1zm69 0h1v10h-1z" fill="#30a930"/></g>"     "     "     <g stroke="#185518"><path d="M269 4h1v10h-1z" fill="#30aa30"/><path d="M61 5h1v28h-1z" fill="#30ab30"/></g>"     "     <path d="M71 5h1v23h-1zm24 0h1v27h-1z" fill="#30ac30" stroke="#185618"/>"     "     <path d="M207 5h1v20h-1z" fill="#30ad30" stroke="#185618"/>"     <path d="M514 5h4v9h-4zm5 0h22v1h-22z" fill="#30ae30" stroke="#185718"/>"     "     <path d="M35 6h1v11h-1z" fill="#30af30" stroke="#185718"/>"     <path d="M53 6h1v6h-1zm28 0h1v12h-1z" fill="#30b030" stroke="#185818"/>"     "     <path d="M331 6h1v5h-1z" fill="#30b130" stroke="#185818"/>"     <g stroke="#185918"><path d="M333 6h1v5h-1z" fill="#30b230"/><path d="M168 7h1v6h-1zm2 0h3v6h-3z" fill="#30b330"/></g>"     "     "     <g stroke="#185a18"><path d="M213 7h1v18h-1z" fill="#30b430"/><path d="M463 7h1v23h-1zm2 0h1v23h-1z" fill="#30b530"/></g>"     "     "     <g stroke="#185b18"><path d="M489 7h1v14h-1z" fill="#30b630"/><path d="M491 7h2v14h-2zm28 0h28v1h-28z" fill="#30b730"/></g>"     "     "     <g stroke="#185c18"><path d="M93 8h1v7h-1z" fill="#30b830"/><path d="M117 8h1v19h-1z" fill="#30b930"/></g>"     "     <path d="M228 8h1v21h-1zm75 0h1v12h-1z" fill="#30ba30" stroke="#185d18"/>"     "     <path d="M305 8h1v12h-1z" fill="#30bb30" stroke="#185d18"/>"     <path d="M399 8h1v27h-1zm2 0h1v27h-1z" fill="#30bc30" stroke="#185e18"/>"     "     <path d="M5 9h1v5H5z" fill="#30bd30" stroke="#185e18"/>"     <path d="M85 9h1v16h-1zm56 0h1v15h-1z" fill="#30be30" stroke="#185f18"/>"     "     <path d="M219 9h1v19h-1z" fill="#30bf30" stroke="#185f18"/>"     <g stroke="#186018"><path d="M307 9h1v12h-1z" fill="#30c030"/><path d="M309 9h1v12h-1zM180 9h1v4h-1z" fill="#30c130"/></g>"     "     "     <g stroke="#186118"><path d="M519 9h19v1h-19z" fill="#30c230"/><path d="M45 10h1v30h-1zm474 1h4v12h-4z" fill="#30c330"/></g>"     "     "     <g stroke="#186218"><path d="M132 10h2v13h-2z" fill="#30c430"/><path d="M235 10h2v24h-2zm232 0h2v13h-2z" fill="#30c530"/></g>"     "     "     <g stroke="#186318"><path d="M159 11h2v9h-2z" fill="#30c630"/><path d="M347 11h2v10h-2z" fill="#30c730"/></g>"     "     <path d="M484 11h2v19h-2zm40 0h21v2h-21z" fill="#30c830" stroke="#186418"/>"     "     <path d="M183 12h2v27h-2z" fill="#30c930" stroke="#186418"/>"     <path d="M247 12h2v18h-2zm32 0h2v19h-2z" fill="#30ca30" stroke="#186518"/>"     "     <path d="M331 12h2v11h-2z" fill="#30cb30" stroke="#186518"/>"     <path d="M383 12h2v5h-2zm20 0h2v8h-2z" fill="#30cc30" stroke="#186618"/>"     "     <path d="M415 12h2v13h-2z" fill="#30cd30" stroke="#186618"/>"     <g stroke="#186718"><path d="M475 12h2v18h-2z" fill="#30ce30"/><path d="M225 13h2v25h-2zm34 0h2v21h-2z" fill="#30cf30"/></g>"     "     "     <g stroke="#186818"><path d="M435 13h2v30h-2z" fill="#30d030"/><path d="M111 14h2v12h-2zm57 0h2v21h-2z" fill="#30d130"/></g>"     "     "     <g stroke="#186918"><path d="M171 14h2v21h-2z" fill="#30d230"/><path d="M363 14h2v16h-2zm64 0h2v23h-2z" fill="#30d330"/></g>"     "     "     <g stroke="#186a18"><path d="M180 14h2v6h-2z" fill="#30d430"/><path d="M524 14h4v3h-4z" fill="#30d530"/></g>"     "     <path d="M524 18h4v18h-4zm5-4h18v2h-18z" fill="#30d630" stroke="#186b18"/>"     "     <path d="M138 15h2v19h-2z" fill="#30d730" stroke="#186b18"/>"     <path d="M153 15h2v5h-2zm98 0h2v15h-2z" fill="#30d830" stroke="#186c18"/>"     "     <path d="M267 15h2v24h-2z" fill="#30d930" stroke="#186c18"/>"     <path d="M315 15h2v20h-2zm52 0h2v12h-2z" fill="#30da30" stroke="#186d18"/>"     "     <path d="M391 15h2v26h-2z" fill="#30db30" stroke="#186d18"/>"     <g stroke="#186e18"><path d="M147 15h2v30h-2z" fill="#30dc30"/><path d="M514 15h2v30h-2zm-412 1h2v28h-2z" fill="#30dd30"/></g>"     "     "     <g stroke="#186f18"><path d="M156 16h2v5h-2z" fill="#30de30"/><path d="M343 16h2v18h-2zm100 0h2v9h-2z" fill="#30df30"/></g>"     "     "     <g stroke="#187018"><path d="M126 17h2v19h-2z" fill="#30e030"/><path d="M162 17h2v26h-2zm165 0h2v6h-2z" fill="#30e130"/></g>"     "     "     <g stroke="#187118"><path d="M407 17h2v19h-2z" fill="#30e230"/><path d="M174 17h2v7h-2z" fill="#30e330"/></g>"     "     <path d="M529 17h29v2h-29zm-234 1h2v6h-2z" fill="#30e430" stroke="#187218"/>"     "     <path d="M383 18h2v17h-2z" fill="#30e530" stroke="#187218"/>"     <path d="M231 19h2v28h-2zm68 0h2v14h-2z" fill="#30e630" stroke="#187318"/>"     "     <path d="M529 20h4v17h-4z" fill="#30e730" stroke="#187318"/>"     <path d="M108 20h2v9h-2zm131 0h3v9h-3z" fill="#30e830" stroke="#187418"/>"     "     <path d="M243 20h3v9h-3z" fill="#30e930" stroke="#187418"/>"     <g stroke="#187518"><path d="M371 20h3v18h-3z" fill="#30ea30"/><path d="M534 20h11v3h-11zm-231 1h3v7h-3z" fill="#30eb30"/></g>"     "     "     <g stroke="#187618"><path d="M319 21h3v28h-3z" fill="#30ec30"/><path d="M403 21h3v21h-3zm-96 1h3v20h-3z" fill="#30ed30"/></g>"     "     "     <g stroke="#187718"><path d="M439 22h3v12h-3z" fill="#30ee30"/><path d="M459 22h3v18h-3z" fill="#30ef30"/></g>"     "     <path d="M489 22h3v29h-3zm-142 0h3v27h-3z" fill="#30f030" stroke="#187818"/>"     "     <path d="M323 23h3v12h-3z" fill="#31f030" stroke="#187818"/>"     <path d="M447 23h3v11h-3zm87 1h4v17h-4z" fill="#32f030" stroke="#197818"/>"     "     <path d="M395 24h3v27h-3z" fill="#33f030" stroke="#197818"/>"     <path d="M419 24h3v30h-3zm85 0h3v17h-3z" fill="#34f030" stroke="#1a7818"/>"     "     <path d="M519 24h3v6h-3z" fill="#35f030" stroke="#1a7818"/>"     <g stroke="#1b7818"><path d="M467 24h3v13h-3z" fill="#36f030"/><path d="M327 24h3v29h-3zm212 0h25v3h-25z" fill="#37f030"/></g>"     "     "     <g stroke="#1c7818"><path d="M339 25h3v15h-3z" fill="#38f030"/><path d="M295 25h3v17h-3zm-106 1h3v30h-3z" fill="#39f030"/></g>"     "     "     <g stroke="#1d7818"><path d="M213 26h3v8h-3z" fill="#3af030"/><path d="M287 26h3v7h-3zm68 0h3v25h-3z" fill="#3bf030"/></g>"     "     "     <g stroke="#1e7818"><path d="M85 26h3v14h-3z" fill="#3cf030"/><path d="M415 26h3v25h-3z" fill="#3df030"/></g>"     "     <path d="M443 26h3v23h-3zm-168 1h3v22h-3z" fill="#3ef030" stroke="#1f7818"/>"     "     <path d="M283 27h3v18h-3z" fill="#3ff030" stroke="#1f7818"/>"     <path d="M479 27h3v6h-3zm-216 1h3v13h-3z" fill="#40f030" stroke="#207818"/>"     "     <path d="M291 28h3v6h-3z" fill="#41f030" stroke="#207818"/>"     <path d="M351 28h3v23h-3zm28 0h3v28h-3z" fill="#42f030" stroke="#217818"/>"     "     <path d="M431 28h3v30h-3z" fill="#43f030" stroke="#217818"/>"     <g stroke="#227818"><path d="M509 28h3v13h-3z" fill="#44f030"/><path d="M367 28h3v5h-3zm172 0h4v11h-4z" fill="#45f030"/></g>"     "     "     <g stroke="#237818"><path d="M544 28h20v3h-20z" fill="#46f030"/><path d="M303 29h3v30h-3zm8 0h3v20h-3z" fill="#47f030"/></g>"     "     "     <g stroke="#247818"><path d="M411 29h3v24h-3z" fill="#48f030"/><path d="M105 30h4v16h-4zm134 0h4v10h-4z" fill="#49f030"/></g>"     "     "     <g stroke="#257818"><path d="M499 30h4v11h-4z" fill="#4af030"/><path d="M484 31h4v22h-4z" fill="#4bf030"/></g>"     "     <path d="M247 31h4v8h-4zm272 0h4v7h-4z" fill="#4cf030" stroke="#267818"/>"     "     <path d="M494 32h4v23h-4z" fill="#4df030" stroke="#267818"/>"     <path d="M544 32h11v4h-11zm0 5h4v12h-4z" fill="#4ef030" stroke="#277818"/>"     "     <path d="M479 34h4v13h-4z" fill="#4ff030" stroke="#277818"/>"     <path d="M213 35h4v15h-4zm-45 1h4v22h-4z" fill="#50f030" stroke="#287818"/>"     "     <path d="M524 37h4v21h-4z" fill="#51f030" stroke="#287818"/>"     <g stroke="#297818"><path d="M549 37h19v4h-19z" fill="#52f030"/><path d="M549 42h4v5h-4zm-20-4h4v5h-4z" fill="#53f030"/></g>"     "     "     <g stroke="#2a7818"><path d="M519 39h4v6h-4z" fill="#54f030"/><path d="M539 40h4v29h-4zm-292 0h4v29h-4z" fill="#55f030"/></g>"     "     "     <g stroke="#2b7818"><path d="M239 41h4v30h-4z" fill="#56f030"/><path d="M499 42h4v22h-4zm5 0h9v22h-9z" fill="#57f030"/></g>"     "     "     <g stroke="#2c7818"><path d="M534 42h4v7h-4z" fill="#58f030"/><path d="M554 42h4v29h-4z" fill="#59f030"/></g>"     "     <path d="M559 42h24v4h-24zm-30 2h4v13h-4z" fill="#5af030" stroke="#2d7818"/>"     "     <path d="M556 32h9v4h-9z" fill="#5bf030" stroke="#2d7818"/>"     <path d="M514 46h4v22h-4zm5 0h4v22h-4z" fill="#5cf030" stroke="#2e7818"/>"     "     <path d="M105 47h4v30h-4z" fill="#5df030" stroke="#2e7818"/>"     <path d="M559 47h4v23h-4zm5 0h22v4h-22z" fill="#5ef030" stroke="#2f7818"/>"     "     <path d="M479 48h4v16h-4z" fill="#5ff030" stroke="#2f7818"/>"     <g stroke="#307818"><path d="M549 48h4v9h-4z" fill="#60f030"/><path d="M534 50h4v26h-4zm10 0h4v9h-4z" fill="#61f030"/></g>"     "     "     <g stroke="#317818"><path d="M213 51h5v4h-5z" fill="#62f030"/><path d="M351 52h4v15h-4zm138 0h4v14h-4z" fill="#63f030"/></g>"     "     "     <g stroke="#327818"><path d="M564 52h4v28h-4z" fill="#64f030"/><path d="M569 52h26v4h-26zm-4-28h26v4h-26z" fill="#65f030"/></g>"     "     "     <g stroke="#337818"><path d="M484 54h4v13h-4z" fill="#66f030"/><path d="M327 54h4v19h-4z" fill="#67f030"/></g>"     "     <path d="M566 32h24v4h-24zm-72 24h4v16h-4z" fill="#68f030" stroke="#347818"/>"     "     <path d="M569 37h17v4h-17z" fill="#69f030" stroke="#347818"/>"     <path d="M213 56h5v26h-5zm356 1h4v7h-4z" fill="#6af030" stroke="#357818"/>"     "     <path d="M189 57h5v22h-5z" fill="#6bf030" stroke="#357818"/>"     <path d="M574 57h7v5h-7zm-45 1h4v5h-4z" fill="#6cf030" stroke="#367818"/>"     "     <path d="M168 59h5v25h-5z" fill="#6df030" stroke="#367818"/>"     <g stroke="#377818"><path d="M549 58h4v7h-4z" fill="#6ef030"/><path d="M574 63h4v14h-4zm-50-4h4v8h-4z" fill="#6ff030"/></g>"     "     "     <g stroke="#387818"><path d="M579 63h15v5h-15z" fill="#70f030"/><path d="M499 65h5v30h-5zm6 0h8v30h-8z" fill="#71f030"/></g>"     "     "     <g stroke="#397818"><path d="M579 69h4v27h-4z" fill="#72f030"/><path d="M544 60h4v13h-4zm-193 8h5v28h-5z" fill="#73f030"/></g>"     "     "     <g stroke="#3a7818"><path d="M514 69h5v11h-5z" fill="#74f030"/><path d="M582 57h18v4h-18z" fill="#75f030"/></g>"     "     <path d="M584 69h22v5h-22zm-337 1h5v29h-5z" fill="#76f030" stroke="#3b7818"/>"     "     <path d="M584 42h25v4h-25z" fill="#77f030" stroke="#3b7818"/>"     <path d="M239 72h5v10h-5zm345 3h5v23h-5z" fill="#78f030" stroke="#3c7818"/>"     "     <path d="M327 74h5v21h-5z" fill="#79f030" stroke="#3c7818"/>"     <path d="M590 75h11v5h-11zm-485 3h5v23h-5z" fill="#7af030" stroke="#3d7818"/>"     "     <path d="M590 81h5v16h-5z" fill="#7bf030" stroke="#3d7818"/>"     <g stroke="#3e7818"><path d="M592 24h22v5h-22z" fill="#7cf030"/><path d="M189 80h5v23h-5zm325 1h5v29h-5z" fill="#7df030"/></g>"     "     "     <g stroke="#3f7818"><path d="M596 81h8v5h-8z" fill="#7ef030"/><path d="M213 83h5v15h-5zm382-20h24v5h-24z" fill="#7ff030"/></g>"     "     "     <g stroke="#407818"><path d="M239 83h5v5h-5z" fill="#80f030"/><path d="M596 87h5v27h-5zm-428-2h5v8h-5z" fill="#81f030"/></g>"     "     "     <g stroke="#417818"><path d="M602 87h14v5h-14z" fill="#82f030"/><path d="M601 57h25v5h-25z" fill="#83f030"/></g>"     "     <path d="M239 89h5v28h-5zm363-14h19v5h-19z" fill="#84f030" stroke="#427818"/>"     "     <path d="M602 93h5v28h-5z" fill="#85f030" stroke="#427818"/>"     <path d="M605 81h7v5h-7zm3 12h7v5h-7z" fill="#86f030" stroke="#437818"/>"     "     <path d="M168 94h5v28h-5z" fill="#87f030" stroke="#437818"/>"     <path d="M607 69h16v5h-16zM499 96h12v5h-12z" fill="#88f030" stroke="#447818"/>"     "     <path d="M327 96h5v16h-5z" fill="#89f030" stroke="#447818"/>"     <g stroke="#457818"><path d="M608 99h5v22h-5z" fill="#8af030"/><path d="M351 97h5v28h-5zm239 1h5v19h-5z" fill="#8bf030"/></g>"     "     "     <g stroke="#467818"><path d="M213 99h5v12h-5z" fill="#8cf030"/><path d="M584 99h5v22h-5zm30 0h24v5h-24z" fill="#8df030"/></g>"     "     "     <g stroke="#477818"><path d="M247 100h5v21h-5z" fill="#8ef030"/><path d="M613 81h30v5h-30z" fill="#8ff030"/></g>"     "     <path d="M105 102h5v9h-5zm394 0h5v5h-5z" fill="#90f030" stroke="#487818"/>"     "     <path d="M505 102h8v5h-8z" fill="#91f030" stroke="#487818"/>"     <path d="M614 105h5v23h-5zm1-81h11v5h-11z" fill="#92f030" stroke="#497818"/>"     "     <path d="M189 104h5v15h-5z" fill="#93f030" stroke="#497818"/>"     <path d="M616 93h20v5h-20zm1-6h6v5h-6z" fill="#94f030" stroke="#4a7818"/>"     "     <path d="M620 105h29v5h-29z" fill="#95f030" stroke="#4a7818"/>"     <g stroke="#4b7818"><path d="M620 63h15v5h-15z" fill="#96f030"/><path d="M499 108h5v20h-5zm6 0h8v20h-8z" fill="#97f030"/></g>"     "     "     <g stroke="#4c7818"><path d="M620 111h5v23h-5z" fill="#98f030"/><path d="M622 75h13v5h-13zm2-6h7v5h-7z" fill="#99f030"/></g>"     "     "     <g stroke="#4d7818"><path d="M514 111h6v11h-6z" fill="#9af030"/><path d="M624 87h23v5h-23zm2 24h27v6h-27z" fill="#9bf030"/></g>"     "     "     <g stroke="#4e7818"><path d="M105 112h5v6h-5z" fill="#9cf030"/><path d="M213 112h5v7h-5z" fill="#9df030"/></g>"     "     <path d="M327 113h6v11h-6zm299 5h5v30h-5z" fill="#9ef030" stroke="#4f7818"/>"     "     <path d="M627 24h18v5h-18z" fill="#9ff030" stroke="#4f7818"/>"     <path d="M627 57h14v5h-14zm-388 61h6v17h-6z" fill="#a0f030" stroke="#507818"/>"     "     <path d="M632 118h16v6h-16z" fill="#a1f030" stroke="#507818"/>"     <path d="M632 69h13v5h-13zm0 56h5v15h-5z" fill="#a2f030" stroke="#517818"/>"     "     <path d="M596 115h5v12h-5z" fill="#a3f030" stroke="#517818"/>"     <g stroke="#527818"><path d="M247 122h6v19h-6z" fill="#a4f030"/><path d="M602 122h6v6h-6zm34-59h27v5h-27z" fill="#a5f030"/></g>"     "     "     <g stroke="#537818"><path d="M636 75h30v5h-30z" fill="#a6f030"/><path d="M514 123h6v22h-6zm123-30h29v5h-29z" fill="#a7f030"/></g>"     "     "     <g stroke="#547818"><path d="M327 125h6v13h-6z" fill="#a8f030"/><path d="M638 125h27v6h-27zm0 7h5v23h-5z" fill="#a9f030"/></g>"     "     "     <g stroke="#557818"><path d="M351 126h6v25h-6z" fill="#aaf030"/><path d="M590 118h5v14h-5z" fill="#abf030"/></g>"     "     <path d="M639 99h27v5h-27zm-534 20h5v15h-5z" fill="#acf030" stroke="#567818"/>"     "     <path d="M189 120h5v15h-5z" fill="#adf030" stroke="#567818"/>"     <path d="M642 57h23v5h-23zm-143 72h11v6h-11z" fill="#aef030" stroke="#577818"/>"     "     <path d="M602 129h6v26h-6z" fill="#aff030" stroke="#577818"/>"     <path d="M609 129h10v26h-10zm35-48h22v5h-22z" fill="#b0f030" stroke="#587818"/>"     "     <path d="M644 132h5v20h-5z" fill="#b1f030" stroke="#587818"/>"     <g stroke="#597818"><path d="M650 132h30v6h-30z" fill="#b2f030"/><path d="M646 24h21v5h-21zm-433 96h5v19h-5z" fill="#b3f030"/></g>"     "     "     <g stroke="#5a7818"><path d="M646 69h30v5h-30z" fill="#b4f030"/><path d="M648 87h24v5h-24zm-149 49h6v25h-6z" fill="#b5f030"/></g>"     "     "     <g stroke="#5b7818"><path d="M506 136h7v25h-7z" fill="#b6f030"/><path d="M239 136h6v20h-6zm410-18h19v6h-19z" fill="#b7f030"/></g>"     "     "     <g stroke="#5c7818"><path d="M650 139h6v18h-6z" fill="#b8f030"/><path d="M327 139h6v16h-6z" fill="#b9f030"/></g>"     "     <path d="M657 139h26v6h-26zm-3-28h8v6h-8z" fill="#baf030" stroke="#5d7818"/>"     "     <path d="M247 142h6v20h-6z" fill="#bbf030" stroke="#5d7818"/>"     <path d="M657 146h6v26h-6zm-143 0h6v20h-6z" fill="#bcf030" stroke="#5e7818"/>"     "     <path d="M664 146h30v6h-30z" fill="#bdf030" stroke="#5e7818"/>"     <path d="M663 111h14v6h-14zm-312 41h6v16h-6z" fill="#bef030" stroke="#5f7818"/>"     "     <path d="M664 153h6v9h-6z" fill="#bff030" stroke="#5f7818"/>"     <g stroke="#607818"><path d="M671 153h11v6h-11z" fill="#c0f030"/><path d="M666 125h7v6h-7zm1-50h6v10h-6z" fill="#c1f030"/></g>"     "     "     <g stroke="#617818"><path d="M667 93h6v10h-6z" fill="#c2f030"/><path d="M668 24h23v6h-23zm-66 132h6v30h-6z" fill="#c3f030"/></g>"     "     "     <g stroke="#627818"><path d="M609 156h10v30h-10z" fill="#c4f030"/><path d="M327 156h6v24h-6zm342-38h18v6h-18z" fill="#c5f030"/></g>"     "     "     <g stroke="#637818"><path d="M239 157h6v27h-6z" fill="#c6f030"/><path d="M650 158h6v26h-6z" fill="#c7f030"/></g>"     "     <path d="M671 160h6v13h-6zm7 0h22v6h-22z" fill="#c8f030" stroke="#647818"/>"     "     <path d="M674 75h6v10h-6z" fill="#c9f030" stroke="#647818"/>"     <path d="M499 162h6v15h-6zm7 0h7v15h-7z" fill="#caf030" stroke="#657818"/>"     "     <path d="M674 93h19v6h-19z" fill="#cbf030" stroke="#657818"/>"     <path d="M674 125h8v6h-8zm-427 38h6v18h-6z" fill="#ccf030" stroke="#667818"/>"     "     <path d="M664 163h6v13h-6z" fill="#cdf030" stroke="#667818"/>"     <g stroke="#677818"><path d="M678 111h7v6h-7z" fill="#cef030"/><path d="M678 167h6v27h-6zm-164 0h6v10h-6z" fill="#cff030"/></g>"     "     "     <g stroke="#687818"><path d="M685 167h7v6h-7z" fill="#d0f030"/><path d="M681 75h29v6h-29zm-330 94h6v29h-6z" fill="#d1f030"/></g>"     "     "     <g stroke="#697818"><path d="M681 132h20v6h-20z" fill="#d2f030"/><path d="M683 125h14v6h-14zm0 28h29v6h-29z" fill="#d3f030"/></g>"     "     "     <g stroke="#6a7818"><path d="M684 139h14v6h-14z" fill="#d4f030"/><path d="M657 173h6v24h-6z" fill="#d5f030"/></g>"     "     <path d="M685 174h6v12h-6zm1-63h15v6h-15z" fill="#d6f030" stroke="#6b7818"/>"     "     <path d="M671 174h6v24h-6z" fill="#d7f030" stroke="#6b7818"/>"     <path d="M692 174h25v6h-25zm-4-56h7v6h-7z" fill="#d8f030" stroke="#6c7818"/>"     "     <path d="M499 178h7v26h-7z" fill="#d9f030" stroke="#6c7818"/>"     <path d="M507 178h16v26h-16zM692 24h23v6h-23z" fill="#daf030" stroke="#6d7818"/>"     "     <path d="M692 181h6v27h-6z" fill="#dbf030" stroke="#6d7818"/>"     <g stroke="#6e7818"><path d="M693 167h21v6h-21z" fill="#dcf030"/><path d="M694 93h21v6h-21zm-367 88h7v24h-7z" fill="#ddf030"/></g>"     "     "     <g stroke="#6f7818"><path d="M699 181h19v7h-19z" fill="#def030"/><path d="M247 182h7v21h-7zm448-36h13v6h-13z" fill="#dff030"/></g>"     "     "     <g stroke="#707818"><path d="M696 118h18v6h-18z" fill="#e0f030"/><path d="M239 185h7v9h-7zm459-60h22v6h-22z" fill="#e1f030"/></g>"     "     "     <g stroke="#717818"><path d="M602 187h12v7h-12z" fill="#e2f030"/><path d="M699 189h7v28h-7z" fill="#e3f030"/></g>"     "     <path d="M707 189h10v7h-10zm-468 6h7v29h-7z" fill="#e4f030" stroke="#727818"/>"     "     <path d="M602 195h7v26h-7z" fill="#e5f030" stroke="#727818"/>"     <path d="M610 195h9v26h-9zm97 2h7v30h-7z" fill="#e6f030" stroke="#737818"/>"     "     <path d="M715 197h16v7h-16z" fill="#e7f030" stroke="#737818"/>"     <path d="M711 75h12v7h-12zM351 199h7v17h-7z" fill="#e8f030" stroke="#747818"/>"     "     <path d="M715 205h7v30h-7z" fill="#e9f030" stroke="#747818"/>"     <g stroke="#757818"><path d="M716 24h17v7h-17z" fill="#eaf030"/><path d="M716 93h29v7h-29zM247 204h7v19h-7z" fill="#ebf030"/></g>"     "     "     <g stroke="#767818"><path d="M499 205h7v26h-7z" fill="#ecf030"/><path d="M507 205h16v26h-16zm216 0h22v7h-22z" fill="#edf030"/></g>"     "     "     <g stroke="#777818"><path d="M327 206h7v24h-7z" fill="#eef030"/><path d="M718 189h24v7h-24z" fill="#eff030"/></g>"     "     <path d="M719 181h18v7h-18zm4 32h7v10h-7z" fill="#f0f030" stroke="#787818"/>"     "     <path d="M724 75h18v7h-18z" fill="#f0f031" stroke="#787818"/>"     <path d="M731 213h30v7h-30zm-380 4h7v24h-7z" fill="#f0f032" stroke="#787819"/>"     "     <path d="M699 218h7v23h-7z" fill="#f0f033" stroke="#787819"/>"     <path d="M731 221h7v29h-7zm1-24h27v7h-27z" fill="#f0f034" stroke="#78781a"/>"     "     <path d="M739 221h27v7h-27z" fill="#f0f035" stroke="#78781a"/>"     <g stroke="#78781b"><path d="M734 24h24v7h-24z" fill="#f0f036"/><path d="M602 222h7v22h-7zm-355 2h7v20h-7z" fill="#f0f037"/></g>"     "     "     <g stroke="#78781c"><path d="M723 224h7v7h-7z" fill="#f0f038"/><path d="M239 225h7v22h-7zm499-44h18v7h-18z" fill="#f0f039"/></g>"     "     "     <g stroke="#78781d"><path d="M739 229h7v27h-7z" fill="#f0f03a"/><path d="M707 228h7v26h-7zm40 1h8v7h-8z" fill="#f0f03b"/></g>"     "     "     <g stroke="#78781e"><path d="M743 75h21v7h-21z" fill="#f0f03c"/><path d="M327 231h7v23h-7z" fill="#f0f03d"/></g>"     "     <path d="M743 189h26v7h-26zm-244 43h7v25h-7z" fill="#f0f03e" stroke="#78781f"/>"     "     <path d="M507 232h16v25h-16z" fill="#f0f03f" stroke="#78781f"/>"     <path d="M723 232h7v29h-7zm23-139h23v7h-23z" fill="#f0f040" stroke="#787820"/>"     "     <path d="M746 205h30v7h-30z" fill="#f0f041" stroke="#787820"/>"     <path d="M747 237h7v16h-7zm-32-1h7v23h-7z" fill="#f0f042" stroke="#787821"/>"     "     <path d="M755 237h14v7h-14z" fill="#f0f043" stroke="#787821"/>"     <g stroke="#787822"><path d="M351 242h7v20h-7z" fill="#f0f044"/><path d="M699 242h7v28h-7zm56 3h7v25h-7z" fill="#f0f045"/></g>"     "     "     <g stroke="#787823"><path d="M756 229h16v7h-16z" fill="#f0f046"/><path d="M247 245h7v16h-7zm510-64h9v7h-9z" fill="#f0f047"/></g>"     "     "     <g stroke="#787824"><path d="M602 245h7v28h-7z" fill="#f0f048"/><path d="M763 245h8v7h-8zm-4-221h12v7h-12z" fill="#f0f049"/></g>"     "     "     <g stroke="#787825"><path d="M239 248h7v25h-7z" fill="#f0f04a"/><path d="M760 197h25v7h-25z" fill="#f0f04b"/></g>"     "     <path d="M762 213h29v7h-29zm-31 38h7v25h-7z" fill="#f0f04c" stroke="#787826"/>"     "     <path d="M763 253h7v22h-7z" fill="#f0f04d" stroke="#787826"/>"     <path d="M765 75h21v7h-21zm6 178h26v7h-26z" fill="#f0f04e" stroke="#787827"/>"     "     <path d="M747 254h7v12h-7z" fill="#f0f04f" stroke="#787827"/>"     <path d="M327 255h7v18h-7zm440-74h11v7h-11z" fill="#f0f050" stroke="#787828"/>"     "     <path d="M707 255h7v25h-7z" fill="#f0f051" stroke="#787828"/>"     <g stroke="#787829"><path d="M767 221h12v7h-12z" fill="#f0f052"/><path d="M739 257h7v19h-7zm-240 1h16v7h-16z" fill="#f0f053"/></g>"     "     "     <g stroke="#78782a"><path d="M770 93h28v7h-28z" fill="#f0f054"/><path d="M770 189h13v7h-13zm0 48h15v7h-15z" fill="#f0f055"/></g>"     "     "     <g stroke="#78782b"><path d="M771 261h7v28h-7z" fill="#f0f056"/><path d="M772 24h26v7h-26zm0 221h26v7h-26z" fill="#f0f057"/></g>"     "     "     <g stroke="#78782c"><path d="M715 260h7v8h-7z" fill="#f0f058"/><path d="M773 229h28v7h-28z" fill="#f0f059"/></g>"     "     <path d="M779 261h25v8h-25zm-532 1h7v8h-7z" fill="#f0f05a" stroke="#78782d"/>"     "     <path d="M777 205h30v7h-30z" fill="#f0f05b" stroke="#78782d"/>"     <path d="M779 181h14v7h-14zm-280 85h23v8h-23z" fill="#f0f05c" stroke="#78782e"/>"     "     <path d="M779 270h7v27h-7z" fill="#f0f05d" stroke="#78782e"/>"     <path d="M780 221h18v7h-18zm-57 41h7v14h-7z" fill="#f0f05e" stroke="#78782f"/>"     "     <path d="M787 270h22v8h-22z" fill="#f0f05f" stroke="#78782f"/>"     <g stroke="#787830"><path d="M784 189h26v7h-26z" fill="#f0f060"/><path d="M786 197h22v7h-22zm0 40h19v7h-19z" fill="#f0f061"/></g>"     "     "     <g stroke="#787831"><path d="M602 274h11v8h-11z" fill="#f0f062"/><path d="M787 75h21v8h-21zM499 275h8v8h-8z" fill="#f0f063"/></g>"     "     "     <g stroke="#787832"><path d="M508 275h15v8h-15z" fill="#f0f064"/><path d="M787 279h8v10h-8zm-64-2h8v28h-8z" fill="#f0f065"/></g>"     "     "     <g stroke="#787833"><path d="M732 277h14v28h-14z" fill="#f0f066"/><path d="M796 279h23v8h-23z" fill="#f0f067"/></g>"     "     <path d="M602 283h16v8h-16zm-103 1h16v8h-16z" fill="#f0f068" stroke="#787834"/>"     "     <path d="M796 288h8v18h-8z" fill="#f0f069" stroke="#787834"/>"     <path d="M799 93h25v8h-25zm6 195h12v8h-12z" fill="#f0f06a" stroke="#787835"/>"     "     <path d="M787 290h8v24h-8z" fill="#f0f06b" stroke="#787835"/>"     <path d="M602 292h12v8h-12zm203-31h29v8h-29z" fill="#f0f06c" stroke="#787836"/>"     "     <path d="M499 293h24v8h-24z" fill="#f0f06d" stroke="#787836"/>"     <g stroke="#787837"><path d="M805 297h8v12h-8z" fill="#f0f06e"/><path d="M809 75h25v8h-25zm5 222h28v8h-28z" fill="#f0f06f"/></g>"     "     "     <g stroke="#787838"><path d="M810 270h17v8h-17z" fill="#f0f070"/><path d="M602 301h8v27h-8zm9 0h8v27h-8z" fill="#f0f071"/></g>"     "     "     <g stroke="#787839"><path d="M499 302h8v28h-8z" fill="#f0f072"/><path d="M814 306h8v9h-8zm-91 0h8v28h-8z" fill="#f0f073"/></g>"     "     "     <g stroke="#78783a"><path d="M818 288h20v8h-20z" fill="#f0f074"/><path d="M823 306h13v8h-13z" fill="#f0f075"/></g>"     "     <path d="M796 307h8v24h-8zm24-28h28v8h-28z" fill="#f0f076" stroke="#78783b"/>"     "     <path d="M805 310h8v16h-8z" fill="#f0f077" stroke="#78783b"/>"     <path d="M823 315h8v9h-8zm2-222h27v8h-27z" fill="#f0f078" stroke="#78783c"/>"     "     <path d="M787 315h8v27h-8z" fill="#f0f079" stroke="#78783c"/>"     <path d="M832 315h10v8h-10zm-4-45h23v8h-23z" fill="#f0f07a" stroke="#78783d"/>"     "     <path d="M814 316h8v17h-8z" fill="#f0f07b" stroke="#78783d"/>"     <g stroke="#78783e"><path d="M832 324h8v21h-8z" fill="#f0f07c"/><path d="M835 75h21v8h-21zm0 186h9v8h-9z" fill="#f0f07d"/></g>"     "     "     <g stroke="#78783f"><path d="M841 324h17v8h-17z" fill="#f0f07e"/><path d="M837 306h23v8h-23zm-14 19h8v17h-8z" fill="#f0f07f"/></g>"     "     "     <g stroke="#787840"><path d="M839 288h9v8h-9z" fill="#f0f080"/><path d="M805 327h8v29h-8zm36 6h8v24h-8z" fill="#f0f081"/></g>"     "     "     <g stroke="#787841"><path d="M602 329h16v8h-16z" fill="#f0f082"/><path d="M843 297h18v8h-18z" fill="#f0f083"/></g>"     "     <path d="M499 331h24v8h-24zm344-16h19v8h-19z" fill="#f0f084" stroke="#787842"/>"     "     <path d="M796 332h8v11h-8z" fill="#f0f085" stroke="#787842"/>"     <path d="M845 261h17v8h-17zm5 72h11v8h-11z" fill="#f0f086" stroke="#787843"/>"     "     <path d="M814 334h8v13h-8z" fill="#f0f087" stroke="#787843"/>"     <path d="M723 335h8v28h-8zm126-56h8v17h-8z" fill="#f0f088" stroke="#787844"/>"     "     <path d="M602 338h16v8h-16z" fill="#f0f089" stroke="#787844"/>"     <g stroke="#787845"><path d="M850 342h8v21h-8z" fill="#f0f08a"/><path d="M852 270h20v8h-20zm-353 70h14v8h-14z" fill="#f0f08b"/></g>"     "     "     <g stroke="#787846"><path d="M853 93h26v8h-26z" fill="#f0f08c"/><path d="M859 342h20v8h-20zm-72 1h8v16h-8z" fill="#f0f08d"/></g>"     "     "     <g stroke="#787847"><path d="M823 343h8v14h-8z" fill="#f0f08e"/><path d="M796 344h8v8h-8z" fill="#f0f08f"/></g>"     "     <path d="M857 75h15v8h-15zm1 204h27v8h-27z" fill="#f0f090" stroke="#787848"/>"     "     <path d="M832 346h8v17h-8z" fill="#f0f091" stroke="#787848"/>"     <path d="M859 324h17v8h-17zm-257 23h8v22h-8z" fill="#f0f092" stroke="#787849"/>"     "     <path d="M859 351h8v17h-8z" fill="#f0f093" stroke="#787849"/>"     <path d="M814 348h8v24h-8zm47-42h12v8h-12z" fill="#f0f094" stroke="#78784a"/>"     "     <path d="M499 349h23v8h-23z" fill="#f0f095" stroke="#78784a"/>"     <g stroke="#78784b"><path d="M862 333h13v8h-13z" fill="#f0f096"/><path d="M862 297h26v8h-26zm1-36h21v8h-21z" fill="#f0f097"/></g>"     "     "     <g stroke="#78784c"><path d="M863 315h29v8h-29z" fill="#f0f098"/><path d="M868 351h16v8h-16zm-72 2h8v29h-8z" fill="#f0f099"/></g>"     "     "     <g stroke="#78784d"><path d="M805 357h8v23h-8z" fill="#f0f09a"/><path d="M868 360h9v9h-9zm-369-2h17v9h-17z" fill="#f0f09b"/></g>"     "     "     <g stroke="#78784e"><path d="M878 360h29v9h-29z" fill="#f0f09c"/><path d="M868 370h9v24h-9z" fill="#f0f09d"/></g>"     "     <path d="M873 75h14v9h-14zM723 364h13v9h-13z" fill="#f0f09e" stroke="#78784f"/>"     "     <path d="M878 370h9v27h-9z" fill="#f0f09f" stroke="#78784f"/>"     <path d="M880 93h15v9h-15zM499 368h10v9h-10z" fill="#f0f0a0" stroke="#787850"/>"     "     <path d="M510 368h13v9h-13z" fill="#f0f0a1" stroke="#787850"/>"     <path d="M602 370h9v21h-9zm286 0h24v9h-24z" fill="#f0f0a2" stroke="#787851"/>"     "     <path d="M886 279h26v9h-26z" fill="#f0f0a3" stroke="#787851"/>"     <g stroke="#787852"><path d="M723 374h9v28h-9z" fill="#f0f0a4"/><path d="M733 374h13v28h-13zM888 75h21v9h-21z" fill="#f0f0a5"/></g>"     "     "     <g stroke="#787853"><path d="M888 380h9v16h-9z" fill="#f0f0a6"/><path d="M499 378h21v9h-21zm399 2h12v9h-12z" fill="#f0f0a7"/></g>"     "     "     <g stroke="#787854"><path d="M896 93h18v9h-18z" fill="#f0f0a8"/><path d="M898 390h9v15h-9zm-399-2h20v9h-20z" fill="#f0f0a9"/></g>"     "     "     <g stroke="#787855"><path d="M908 390h20v9h-20z" fill="#f0f0aa"/><path d="M602 392h12v9h-12z" fill="#f0f0ab"/></g>"     "     <path d="M868 395h9v25h-9zm40-35h16v9h-16z" fill="#f0f0ac" stroke="#787856"/>"     "     <path d="M908 400h9v25h-9z" fill="#f0f0ad" stroke="#787856"/>"     <path d="M888 397h9v27h-9zm22-322h15v9h-15z" fill="#f0f0ae" stroke="#787857"/>"     "     <path d="M878 398h9v10h-9z" fill="#f0f0af" stroke="#787857"/>"     <path d="M499 398h13v9h-13zm14 0h10v9h-10z" fill="#f0f0b0" stroke="#787858"/>"     "     <path d="M911 380h15v9h-15z" fill="#f0f0b1" stroke="#787858"/>"     <g stroke="#787859"><path d="M918 400h16v9h-16z" fill="#f0f0b2"/><path d="M913 279h9v11h-9zm0 91h24v9h-24z" fill="#f0f0b3"/></g>"     "     "     <g stroke="#78785a"><path d="M602 402h11v9h-11z" fill="#f0f0b4"/><path d="M915 93h27v9h-27zM723 403h9v30h-9z" fill="#f0f0b5"/></g>"     "     "     <g stroke="#78785b"><path d="M733 403h13v30h-13z" fill="#f0f0b6"/><path d="M898 406h9v11h-9zm20 4h9v20h-9z" fill="#f0f0b7"/></g>"     "     "     <g stroke="#78785c"><path d="M499 408h10v9h-10z" fill="#f0f0b8"/><path d="M510 408h13v9h-13z" fill="#f0f0b9"/></g>"     "     <path d="M878 409h9v20h-9zm50 1h16v9h-16z" fill="#f0f0ba" stroke="#78785d"/>"     "     <path d="M923 279h9v17h-9z" fill="#f0f0bb" stroke="#78785d"/>"     <path d="M602 412h11v9h-11zm323-52h23v9h-23z" fill="#f0f0bc" stroke="#78785e"/>"     "     <path d="M926 75h15v9h-15z" fill="#f0f0bd" stroke="#78785e"/>"     <path d="M927 380h26v9h-26zm1 40h9v26h-9z" fill="#f0f0be" stroke="#78785f"/>"     "     <path d="M929 390h26v9h-26z" fill="#f0f0bf" stroke="#78785f"/>"     <g stroke="#787860"><path d="M898 418h9v12h-9z" fill="#f0f0c0"/><path d="M499 418h16v9h-16zm439 2h20v9h-20z" fill="#f0f0c1"/></g>"     "     "     <g stroke="#787861"><path d="M933 279h20v9h-20z" fill="#f0f0c2"/><path d="M868 421h9v13h-9zm67-21h17v9h-17z" fill="#f0f0c3"/></g>"     "     "     <g stroke="#787862"><path d="M602 422h10v24h-10z" fill="#f0f0c4"/><path d="M938 370h17v9h-17zm0 60h9v13h-9z" fill="#f0f0c5"/></g>"     "     "     <g stroke="#787863"><path d="M499 428h14v10h-14z" fill="#f0f0c6"/><path d="M942 75h20v9h-20z" fill="#f0f0c7"/></g>"     "     <path d="M943 93h23v9h-23zm5 337h12v10h-12z" fill="#f0f0c8" stroke="#787864"/>"     "     <path d="M945 410h24v9h-24z" fill="#f0f0c9" stroke="#787864"/>"     <path d="M723 434h13v10h-13zm225 7h10v12h-10z" fill="#f0f0ca" stroke="#787865"/>"     "     <path d="M499 439h10v25h-10z" fill="#f0f0cb" stroke="#787865"/>"     <path d="M510 439h13v25h-13zm449 2h23v10h-23z" fill="#f0f0cc" stroke="#787866"/>"     "     <path d="M954 279h10v10h-10z" fill="#f0f0cd" stroke="#787866"/>"     <g stroke="#787867"><path d="M723 445h10v24h-10z" fill="#f0f0ce"/><path d="M734 445h12v24h-12zm-132 2h10v21h-10z" fill="#f0f0cf"/></g>"     "     "     <g stroke="#787868"><path d="M959 452h10v15h-10z" fill="#f0f0d0"/><path d="M961 430h15v10h-15zm2-355h28v10h-28z" fill="#f0f0d1"/></g>"     "     "     <g stroke="#787869"><path d="M970 452h15v10h-15z" fill="#f0f0d2"/><path d="M965 279h18v10h-18zm-17 175h10v28h-10z" fill="#f0f0d3"/></g>"     "     "     <g stroke="#78786a"><path d="M948 483h10v29h-10z" fill="#f0f0d4"/><path d="M967 93h24v10h-24z" fill="#f0f0d5"/></g>"     "     <path d="M732 306h10v17h-10zm238 157h10v21h-10z" fill="#f0f0d6" stroke="#78786b"/>"     "     <path d="M970 485h10v27h-10z" fill="#f0f0d7" stroke="#78786b"/>"     <path d="M981 463h26v10h-26zm27 0h16v10h-16z" fill="#f0f0d8" stroke="#78786c"/>"     "     <path d="M977 430h28v10h-28z" fill="#f0f0d9" stroke="#78786c"/>"     <path d="M1006 430h18v10h-18zm-507 35h22v10h-22z" fill="#f0f0da" stroke="#78786d"/>"     "     <path d="M959 468h10v19h-10z" fill="#f0f0db" stroke="#78786d"/>"     <g stroke="#78786e"><path d="M959 488h10v24h-10z" fill="#f0f0dc"/><path d="M602 469h10v27h-10zm0 28h10v15h-10z" fill="#f0f0dd"/></g>"     "     "     <g stroke="#78786f"><path d="M981 474h10v11h-10z" fill="#f0f0de"/><path d="M981 486h10v26h-10zm-258-16h14v10h-14z" fill="#f0f0df"/></g>"     "     "     <g stroke="#787870"><path d="M983 441h23v10h-23z" fill="#f0f0e0"/><path d="M984 279h28v10h-28zm29 0h11v10h-11z" fill="#f0f0e1"/></g>"     "     "     <g stroke="#787871"><path d="M732 324h10v25h-10z" fill="#f0f0e2"/><path d="M732 350h14v13h-14z" fill="#f0f0e3"/></g>"     "     <path d="M992 474h30v10h-30zm-6-22h29v10h-29z" fill="#f0f0e4" stroke="#787872"/>"     "     <path d="M499 476h13v10h-13z" fill="#f0f0e5" stroke="#787872"/>"     <path d="M513 476h10v10h-10zm-14 11h24v25h-24z" fill="#f0f0e6" stroke="#787873"/>"     "     <path d="M992 75h14v10h-14z" fill="#f0f0e7" stroke="#787873"/>"     <path d="M1007 75h17v11h-17zm-15 410h28v10h-28z" fill="#f0f0e8" stroke="#787874"/>"     "     <path d="M992 93h23v10h-23z" fill="#f0f0e9" stroke="#787874"/>"     <g stroke="#787875"><path d="M992 496h10v12h-10z" fill="#f0f0ea"/><path d="M1003 496h21v16h-21zm-280-15h10v24h-10z" fill="#f0f0eb"/></g>"     "     "     <g stroke="#787876"><path d="M734 481h10v19h-10z" fill="#f0f0ec"/><path d="M734 501h12v11h-12zM508 302h15v10h-15z" fill="#f0f0ed"/></g>"     "     "     <g stroke="#787877"><path d="M508 313h15v17h-15z" fill="#f0f0ee"/><path d="M1007 441h14v10h-14z" fill="#f0f0ef"/></g>"     "     <text y="526" font-size="12" fill="#000" x="0"> MaxRectsBin(size: 1024x512, choice: WorstLongSideFit, method: MinimizeArea): inserted 822 of 1536 rectangles with w/h lengths between [2, 31], occupancy: 19.55% </text></svg>