<svg xmlns="http://www.w3.org/2000/svg" viewBox="0 0 1024 536" xmlns:v="https://vecta.io/nano"><path d="M0 0h1024v512H0z" fill="#fff" stroke="#000"/>"     <path d="M1 1h1v13H1zm2 0h1v15H3z" fill="#303030" stroke="#181818"/>"     "     <path d="M5 1h1v7H5z" fill="#303130" stroke="#181818"/>"     <path d="M7 1h1v15H7zm2 0h1v12H9z" fill="#303230" stroke="#181918"/>"     "     <path d="M11 1h1v22h-1z" fill="#303330" stroke="#181918"/>"     <path d="M13 1h1v23h-1zm2 0h1v27h-1z" fill="#303430" stroke="#181a18"/>"     "     <path d="M17 1h1v17h-1z" fill="#303530" stroke="#181a18"/>"     <path d="M19 1h1v30h-1zm2 0h1v17h-1z" fill="#303630" stroke="#181b18"/>"     "     <path d="M23 1h1v14h-1z" fill="#303730" stroke="#181b18"/>"     <path d="M25 1h1v12h-1zm2 0h1v14h-1z" fill="#303830" stroke="#181c18"/>"     "     <path d="M29 1h1v19h-1z" fill="#303930" stroke="#181c18"/>"     <path d="M31 1h1v20h-1zm2 0h1v21h-1z" fill="#303a30" stroke="#181d18"/>"     "     <path d="M35 1h1v4h-1z" fill="#303b30" stroke="#181d18"/>"     <path d="M37 1h1v21h-1zm2 0h1v16h-1z" fill="#303c30" stroke="#181e18"/>"     "     <path d="M41 1h1v21h-1z" fill="#303d30" stroke="#181e18"/>"     <path d="M43 1h1v19h-1zm2 0h1v8h-1z" fill="#303e30" stroke="#181f18"/>"     "     <path d="M47 1h1v12h-1z" fill="#303f30" stroke="#181f18"/>"     <path d="M49 1h1v19h-1zm2 0h1v14h-1z" fill="#304030" stroke="#182018"/>"     "     <path d="M53 1h1v4h-1z" fill="#304130" stroke="#182018"/>"     <path d="M55 1h1v15h-1zm2 0h1v11h-1z" fill="#304230" stroke="#182118"/>"     "     <path d="M59 1h1v15h-1z" fill="#304330" stroke="#182118"/>"     <path d="M61 1h1v3h-1zm2 0h1v23h-1z" fill="#304430" stroke="#182218"/>"     "     <path d="M65 1h1v24h-1z" fill="#304530" stroke="#182218"/>"     <path d="M67 1h1v1h-1zm2 0h1v13h-1z" fill="#304630" stroke="#182318"/>"     "     <path d="M71 1h1v3h-1z" fill="#304730" stroke="#182318"/>"     <path d="M73 1h1v22h-1zm2 0h1v26h-1z" fill="#304830" stroke="#182418"/>"     "     <path d="M77 1h1v2h-1z" fill="#304930" stroke="#182418"/>"     <g stroke="#182518"><path d="M79 1h1v14h-1z" fill="#304a30"/><path d="M81 1h1v4h-1zm2 0h1v26h-1z" fill="#304b30"/></g>"     "     "     <g stroke="#182618"><path d="M85 1h1v7h-1z" fill="#304c30"/><path d="M87 1h1v7h-1zm2 0h1v23h-1z" fill="#304d30"/></g>"     "     "     <g stroke="#182718"><path d="M91 1h1v26h-1z" fill="#304e30"/><path d="M93 1h1v6h-1zm2 0h1v3h-1z" fill="#304f30"/></g>"     "     "     <g stroke="#182818"><path d="M97 1h1v15h-1z" fill="#305030"/><path d="M99 1h2v28h-2zm3 0h2v14h-2z" fill="#305130"/></g>"     "     "     <g stroke="#182918"><path d="M105 1h2v28h-2z" fill="#305230"/><path d="M108 1h2v18h-2zm3 0h2v12h-2z" fill="#305330"/></g>"     "     "     <g stroke="#182a18"><path d="M114 1h2v21h-2z" fill="#305430"/><path d="M117 1h2v6h-2zm3 0h2v23h-2z" fill="#305530"/></g>"     "     "     <g stroke="#182b18"><path d="M123 1h2v21h-2z" fill="#305630"/><path d="M126 1h2v15h-2zm3 0h2v19h-2z" fill="#305730"/></g>"     "     "     <g stroke="#182c18"><path d="M132 1h2v8h-2z" fill="#305830"/><path d="M135 1h2v20h-2zm3 0h2v13h-2z" fill="#305930"/></g>"     "     "     <g stroke="#182d18"><path d="M141 1h2v7h-2z" fill="#305a30"/><path d="M144 1h2v22h-2zm3 0h2v1h-2z" fill="#305b30"/></g>"     "     "     <g stroke="#182e18"><path d="M150 1h2v23h-2z" fill="#305c30"/><path d="M153 1h2v13h-2zm3 0h2v14h-2z" fill="#305d30"/></g>"     "     "     <g stroke="#182f18"><path d="M159 1h2v9h-2z" fill="#305e30"/><path d="M162 1h2v15h-2zm3 0h2v22h-2z" fill="#305f30"/></g>"     "     "     <g stroke="#183018"><path d="M168 1h2v5h-2z" fill="#306030"/><path d="M171 1h2v5h-2zm3 0h2v2h-2z" fill="#306130"/></g>"     "     "     <g stroke="#183118"><path d="M177 1h2v21h-2z" fill="#306230"/><path d="M180 1h2v1h-2zm3 0h2v10h-2z" fill="#306330"/></g>"     "     "     <g stroke="#183218"><path d="M186 1h2v1h-2z" fill="#306430"/><path d="M189 1h2v24h-2z" fill="#306530"/></g>"     "     <path d="M192 1h2v24h-2zm3 0h2v23h-2z" fill="#306630" stroke="#183318"/>"     "     <path d="M198 1h2v2h-2z" fill="#306730" stroke="#183318"/>"     <path d="M201 1h2v27h-2zm3 0h2v20h-2z" fill="#306830" stroke="#183418"/>"     "     <path d="M207 1h2v3h-2z" fill="#306930" stroke="#183418"/>"     <path d="M210 1h2v25h-2zm3 0h2v5h-2z" fill="#306a30" stroke="#183518"/>"     "     <path d="M216 1h2v24h-2z" fill="#306b30" stroke="#183518"/>"     <path d="M219 1h2v7h-2zm3 0h2v30h-2z" fill="#306c30" stroke="#183618"/>"     "     <path d="M225 1h2v11h-2z" fill="#306d30" stroke="#183618"/>"     <path d="M228 1h2v6h-2zm3 0h3v17h-3z" fill="#306e30" stroke="#183718"/>"     "     <path d="M235 1h3v8h-3z" fill="#306f30" stroke="#183718"/>"     <path d="M239 1h3v18h-3zm4 0h3v18h-3z" fill="#307030" stroke="#183818"/>"     "     <path d="M247 1h3v10h-3z" fill="#307130" stroke="#183818"/>"     <path d="M251 1h3v13h-3zm4 0h3v28h-3z" fill="#307230" stroke="#183918"/>"     "     <path d="M259 1h3v11h-3z" fill="#307330" stroke="#183918"/>"     <path d="M263 1h3v26h-3zm4 0h3v2h-3z" fill="#307430" stroke="#183a18"/>"     "     <path d="M271 1h3v30h-3z" fill="#307530" stroke="#183a18"/>"     <path d="M275 1h3v25h-3zm4 0h3v10h-3z" fill="#307630" stroke="#183b18"/>"     "     <path d="M283 1h3v25h-3z" fill="#307730" stroke="#183b18"/>"     <path d="M287 1h3v24h-3zm4 0h3v26h-3z" fill="#307830" stroke="#183c18"/>"     "     <path d="M295 1h3v16h-3z" fill="#307930" stroke="#183c18"/>"     <path d="M299 1h3v17h-3zm4 0h3v6h-3z" fill="#307a30" stroke="#183d18"/>"     "     <path d="M307 1h3v7h-3z" fill="#307b30" stroke="#183d18"/>"     <path d="M311 1h3v27h-3zm4 0h3v13h-3z" fill="#307c30" stroke="#183e18"/>"     "     <path d="M319 1h3v19h-3z" fill="#307d30" stroke="#183e18"/>"     <g stroke="#183f18"><path d="M323 1h3v21h-3z" fill="#307e30"/><path d="M327 1h3v15h-3zm4 0h3v4h-3z" fill="#307f30"/></g>"     "     "     <g stroke="#184018"><path d="M335 1h3v28h-3z" fill="#308030"/><path d="M339 1h3v23h-3zm4 0h3v14h-3z" fill="#308130"/></g>"     "     "     <g stroke="#184118"><path d="M347 1h3v9h-3z" fill="#308230"/><path d="M351 1h3v26h-3zm4 0h3v24h-3z" fill="#308330"/></g>"     "     "     <g stroke="#184218"><path d="M359 1h3v30h-3z" fill="#308430"/><path d="M363 1h3v12h-3zm4 0h3v13h-3z" fill="#308530"/></g>"     "     "     <g stroke="#184318"><path d="M371 1h3v18h-3z" fill="#308630"/><path d="M375 1h3v28h-3zm4 0h3v26h-3z" fill="#308730"/></g>"     "     "     <g stroke="#184418"><path d="M383 1h3v1h-3z" fill="#308830"/><path d="M387 1h3v8h-3zm4 0h3v29h-3z" fill="#308930"/></g>"     "     "     <g stroke="#184518"><path d="M395 1h3v13h-3z" fill="#308a30"/><path d="M399 1h3v22h-3zm4 0h3v6h-3z" fill="#308b30"/></g>"     "     "     <g stroke="#184618"><path d="M407 1h3v10h-3z" fill="#308c30"/><path d="M411 1h3v15h-3zm4 0h3v27h-3z" fill="#308d30"/></g>"     "     "     <g stroke="#184718"><path d="M419 1h3v10h-3z" fill="#308e30"/><path d="M423 1h3v22h-3zm4 0h3v2h-3z" fill="#308f30"/></g>"     "     "     <g stroke="#184818"><path d="M431 1h3v27h-3z" fill="#309030"/><path d="M435 1h3v12h-3zm4 0h3v26h-3z" fill="#309130"/></g>"     "     "     <g stroke="#184918"><path d="M443 1h3v11h-3z" fill="#309230"/><path d="M447 1h3v20h-3zm4 0h3v14h-3z" fill="#309330"/></g>"     "     "     <g stroke="#184a18"><path d="M455 1h3v1h-3z" fill="#309430"/><path d="M459 1h3v19h-3zm4 0h3v29h-3z" fill="#309530"/></g>"     "     "     <g stroke="#184b18"><path d="M467 1h3v27h-3z" fill="#309630"/><path d="M471 1h3v20h-3zm4 0h3v5h-3z" fill="#309730"/></g>"     "     "     <g stroke="#184c18"><path d="M479 1h3v8h-3z" fill="#309830"/><path d="M483 1h3v30h-3z" fill="#309930"/></g>"     "     <path d="M487 1h3v10h-3zm4 0h4v25h-4z" fill="#309a30" stroke="#184d18"/>"     "     <path d="M496 1h4v9h-4z" fill="#309b30" stroke="#184d18"/>"     <path d="M501 1h4v5h-4zm5 0h4v30h-4z" fill="#309c30" stroke="#184e18"/>"     "     <path d="M511 1h22v1h-22z" fill="#309d30" stroke="#184e18"/>"     <path d="M511 3h4v22h-4zM67 3h1v15h-1z" fill="#309e30" stroke="#184f18"/>"     "     <path d="M147 3h1v11h-1z" fill="#309f30" stroke="#184f18"/>"     <path d="M180 3h1v5h-1zm6 0h1v27h-1z" fill="#30a030" stroke="#185018"/>"     "     <path d="M383 3h1v13h-1z" fill="#30a130" stroke="#185018"/>"     <path d="M455 3h1v17h-1zm61 0h12v1h-12z" fill="#30a230" stroke="#185118"/>"     "     <path d="M77 4h1v19h-1z" fill="#30a330" stroke="#185118"/>"     <path d="M174 4h1v10h-1zm24 0h1v28h-1z" fill="#30a430" stroke="#185218"/>"     "     <path d="M267 4h1v23h-1z" fill="#30a530" stroke="#185218"/>"     <path d="M269 4h1v23h-1zm158 0h1v27h-1z" fill="#30a630" stroke="#185318"/>"     "     <path d="M429 4h1v27h-1z" fill="#30a730" stroke="#185318"/>"     <path d="M61 5h1v20h-1zm10 0h1v22h-1z" fill="#30a830" stroke="#185418"/>"     "     <path d="M95 5h1v11h-1z" fill="#30a930" stroke="#185418"/>"     <path d="M207 5h1v6h-1zm309 0h12v1h-12z" fill="#30aa30" stroke="#185518"/>"     "     <path d="M35 6h1v5h-1z" fill="#30ab30" stroke="#185518"/>"     <path d="M53 6h1v6h-1zm28 0h1v18h-1z" fill="#30ac30" stroke="#185618"/>"     "     <path d="M331 6h1v14h-1z" fill="#30ad30" stroke="#185618"/>"     <path d="M168 7h1v28h-1zm2 0h3v28h-3z" fill="#30ae30" stroke="#185718"/>"     "     <path d="M213 7h1v7h-1z" fill="#30af30" stroke="#185718"/>"     <path d="M475 7h1v19h-1zm2 0h1v19h-1z" fill="#30b030" stroke="#185818"/>"     "     <path d="M501 7h1v21h-1z" fill="#30b130" stroke="#185818"/>"     <g stroke="#185918"><path d="M503 7h2v21h-2z" fill="#30b230"/><path d="M516 7h4v28h-4zm5 0h5v1h-5z" fill="#30b330"/></g>"     "     "     <g stroke="#185a18"><path d="M93 8h1v10h-1z" fill="#30b430"/><path d="M117 8h1v12h-1zm111 0h1v23h-1z" fill="#30b530"/></g>"     "     "     <g stroke="#185b18"><path d="M303 8h1v5h-1z" fill="#30b630"/><path d="M403 8h1v27h-1zM5 9h1v16H5z" fill="#30b730"/></g>"     "     "     <g stroke="#185c18"><path d="M85 9h1v15h-1z" fill="#30b830"/><path d="M141 9h1v12h-1zm78 0h1v12h-1z" fill="#30b930"/></g>"     "     "     <g stroke="#185d18"><path d="M307 9h1v4h-1z" fill="#30ba30"/><path d="M180 9h1v19h-1zm341 0h30v1h-30z" fill="#30bb30"/></g>"     "     "     <g stroke="#185e18"><path d="M45 10h1v12h-1z" fill="#30bc30"/><path d="M132 10h2v13h-2zm103 0h2v24h-2z" fill="#30bd30"/></g>"     "     "     <g stroke="#185f18"><path d="M387 10h2v13h-2z" fill="#30be30"/><path d="M479 10h2v21h-2zm-320 1h2v9h-2z" fill="#30bf30"/></g>"     "     "     <g stroke="#186018"><path d="M347 11h2v10h-2z" fill="#30c030"/><path d="M496 11h2v19h-2zm25 0h4v3h-4z" fill="#30c130"/></g>"     "     "     <g stroke="#186118"><path d="M526 11h27v2h-27z" fill="#30c230"/><path d="M183 12h2v18h-2zm64 0h2v19h-2z" fill="#30c330"/></g>"     "     "     <g stroke="#186218"><path d="M279 12h2v11h-2z" fill="#30c430"/><path d="M407 12h2v5h-2zm12 0h2v8h-2z" fill="#30c530"/></g>"     "     "     <g stroke="#186318"><path d="M487 12h2v13h-2z" fill="#30c630"/><path d="M207 12h2v25h-2zm18 1h2v30h-2z" fill="#30c730"/></g>"     "     "     <g stroke="#186418"><path d="M259 13h2v12h-2z" fill="#30c830"/><path d="M443 13h2v18h-2zm-332 1h2v21h-2z" fill="#30c930"/></g>"     "     "     <g stroke="#186518"><path d="M363 14h2v23h-2z" fill="#30ca30"/><path d="M435 14h2v6h-2zm91 0h18v2h-18z" fill="#30cb30"/></g>"     "     "     <g stroke="#186618"><path d="M303 14h2v16h-2z" fill="#30cc30"/><path d="M306 14h4v16h-4z" fill="#30cd30"/></g>"     "     <path d="M174 15h2v19h-2zm-36 0h2v5h-2z" fill="#30ce30" stroke="#186718"/>"     "     <path d="M153 15h2v15h-2z" fill="#30cf30" stroke="#186718"/>"     <path d="M251 15h2v24h-2zm64 0h2v20h-2z" fill="#30d030" stroke="#186818"/>"     "     <path d="M367 15h2v12h-2z" fill="#30d130" stroke="#186818"/>"     <path d="M395 15h2v26h-2zm-248 0h2v30h-2z" fill="#30d230" stroke="#186918"/>"     "     <path d="M213 15h2v14h-2z" fill="#30d330" stroke="#186918"/>"     <path d="M521 15h2v30h-2zm-419 1h2v28h-2z" fill="#30d430" stroke="#186a18"/>"     "     <path d="M156 16h2v5h-2z" fill="#30d530" stroke="#186a18"/>"     <path d="M343 16h2v18h-2zm108 0h2v9h-2z" fill="#30d630" stroke="#186b18"/>"     "     <path d="M526 17h4v26h-4z" fill="#30d730" stroke="#186b18"/>"     <path d="M95 17h2v19h-2zm31 0h2v26h-2z" fill="#30d830" stroke="#186c18"/>"     "     <path d="M162 17h2v6h-2z" fill="#30d930" stroke="#186c18"/>"     <path d="M327 17h2v19h-2zm84 0h2v7h-2z" fill="#30da30" stroke="#186d18"/>"     "     <path d="M383 17h2v29h-2z" fill="#30db30" stroke="#186d18"/>"     <path d="M531 17h21v2h-21zm-236 1h2v6h-2z" fill="#30dc30" stroke="#186e18"/>"     "     <path d="M407 18h2v17h-2z" fill="#30dd30" stroke="#186e18"/>"     <path d="M231 19h2v28h-2zm68 0h2v14h-2z" fill="#30de30" stroke="#186f18"/>"     "     <path d="M108 20h2v9h-2z" fill="#30df30" stroke="#186f18"/>"     <path d="M529 3h5v3h-5zM239 20h3v9h-3z" fill="#30e030" stroke="#187018"/>"     "     <path d="M243 20h3v9h-3z" fill="#30e130" stroke="#187018"/>"     <path d="M371 20h3v18h-3zm160 0h30v3h-30z" fill="#30e230" stroke="#187118"/>"     "     <path d="M531 24h4v9h-4z" fill="#30e330" stroke="#187118"/>"     <path d="M319 21h3v11h-3zm136 0h3v27h-3z" fill="#30e430" stroke="#187218"/>"     "     <path d="M459 21h3v27h-3z" fill="#30e530" stroke="#187218"/>"     <path d="M331 21h3v7h-3zm88 0h3v21h-3z" fill="#30e630" stroke="#187318"/>"     "     <path d="M435 21h3v12h-3z" fill="#30e730" stroke="#187318"/>"     <g stroke="#187418"><path d="M447 22h3v20h-3z" fill="#30e830"/><path d="M471 22h3v18h-3zm-124 0h3v6h-3z" fill="#30e930"/></g>"     "     "     <g stroke="#187518"><path d="M323 23h3v29h-3z" fill="#30ea30"/><path d="M162 24h3v11h-3zm237 0h3v12h-3z" fill="#30eb30"/></g>"     "     "     <g stroke="#187618"><path d="M423 24h3v17h-3z" fill="#30ec30"/><path d="M387 24h3v6h-3zm-108 0h3v13h-3z" fill="#30ed30"/></g>"     "     "     <g stroke="#187718"><path d="M536 24h29v3h-29z" fill="#30ee30"/><path d="M85 25h3v25h-3zm254 0h3v15h-3z" fill="#30ef30"/></g>"     "     "     <g stroke="#187818"><path d="M295 25h3v17h-3z" fill="#30f030"/><path d="M411 25h3v30h-3zm125 3h4v12h-4z" fill="#31f030"/></g>"     "     "     <g stroke="#197818"><path d="M189 26h3v8h-3z" fill="#32f030"/><path d="M287 26h3v25h-3zm68 0h3v14h-3z" fill="#33f030"/></g>"     "     "     <g stroke="#1a7818"><path d="M535 3h6v3h-6z" fill="#34f030"/><path d="M511 26h3v25h-3zm-24 0h3v23h-3z" fill="#35f030"/></g>"     "     "     <g stroke="#1b7818"><path d="M259 26h3v22h-3z" fill="#36f030"/><path d="M451 26h3v18h-3zm-176 1h3v7h-3z" fill="#37f030"/></g>"     "     "     <g stroke="#1c7818"><path d="M283 27h3v13h-3z" fill="#38f030"/><path d="M475 27h3v6h-3zm16 0h3v23h-3z" fill="#39f030"/></g>"     "     "     <g stroke="#1d7818"><path d="M263 28h3v28h-3z" fill="#3af030"/><path d="M291 28h3v30h-3zm60 0h3v13h-3z" fill="#3bf030"/></g>"     "     "     <g stroke="#1e7818"><path d="M379 28h3v20h-3z" fill="#3cf030"/><path d="M439 28h3v30h-3zm-72 0h3v20h-3z" fill="#3df030"/></g>"     "     "     <g stroke="#1f7818"><path d="M541 28h24v3h-24z" fill="#3ef030"/><path d="M501 29h4v30h-4zm40 3h4v18h-4z" fill="#3ff030"/></g>"     "     "     <g stroke="#207818"><path d="M105 30h4v10h-4z" fill="#40f030"/><path d="M239 30h4v11h-4z" fill="#41f030"/></g>"     "     <path d="M183 31h4v22h-4zm204 0h4v8h-4z" fill="#42f030" stroke="#217818"/>"     "     <path d="M303 31h7v4h-7z" fill="#43f030" stroke="#217818"/>"     <path d="M496 31h4v23h-4zm-17 1h4v11h-4z" fill="#44f030" stroke="#227818"/>"     "     <path d="M506 32h4v13h-4z" fill="#45f030" stroke="#227818"/>"     <path d="M546 32h15v4h-15zm-15 2h4v21h-4z" fill="#46f030" stroke="#237818"/>"     "     <path d="M546 37h4v7h-4z" fill="#47f030" stroke="#237818"/>"     <path d="M189 35h4v19h-4zm-27 1h4v22h-4z" fill="#48f030" stroke="#247818"/>"     "     <path d="M167 36h6v22h-6z" fill="#49f030" stroke="#247818"/>"     <path d="M516 36h4v29h-4zm-213 0h5v4h-5z" fill="#4af030" stroke="#257818"/>"     "     <path d="M403 36h6v4h-6z" fill="#4bf030" stroke="#257818"/>"     <path d="M551 37h29v4h-29zm0 5h4v17h-4z" fill="#4cf030" stroke="#267818"/>"     "     <path d="M387 40h4v30h-4z" fill="#4df030" stroke="#267818"/>"     <path d="M403 41h4v22h-4zm133 0h4v7h-4z" fill="#4ef030" stroke="#277818"/>"     "     <path d="M105 41h4v24h-4z" fill="#4ff030" stroke="#277818"/>"     <path d="M303 41h4v13h-4zm-64 1h4v22h-4z" fill="#50f030" stroke="#287818"/>"     "     <path d="M556 42h22v4h-22z" fill="#51f030" stroke="#287818"/>"     <path d="M526 44h4v22h-4zm-47 0h4v16h-4z" fill="#52f030" stroke="#297818"/>"     "     <path d="M556 47h4v11h-4z" fill="#53f030" stroke="#297818"/>"     <path d="M546 45h4v16h-4zm-40 1h4v9h-4z" fill="#54f030" stroke="#2a7818"/>"     "     <path d="M521 46h4v26h-4z" fill="#55f030" stroke="#2a7818"/>"     <path d="M561 47h9v4h-9zm-106 2h5v4h-5z" fill="#56f030" stroke="#2b7818"/>"     "     <path d="M536 49h4v15h-4z" fill="#57f030" stroke="#2b7818"/>"     <path d="M561 52h4v12h-4zm1-20h5v4h-5z" fill="#58f030" stroke="#2c7818"/>"     "     <path d="M85 51h4v14h-4z" fill="#59f030" stroke="#2c7818"/>"     <path d="M491 51h4v26h-4zm50 0h4v13h-4z" fill="#5af030" stroke="#2d7818"/>"     "     <path d="M511 52h4v19h-4z" fill="#5bf030" stroke="#2d7818"/>"     <g stroke="#2e7818"><path d="M566 52h26v5h-26z" fill="#5cf030"/><path d="M566 24h17v4h-17zm0 34h4v29h-4z" fill="#5df030"/></g>"     "     "     <g stroke="#2f7818"><path d="M183 54h5v22h-5z" fill="#5ef030"/><path d="M455 54h7v5h-7zm41 1h4v5h-4z" fill="#5ff030"/></g>"     "     "     <g stroke="#307818"><path d="M568 32h9v4h-9z" fill="#60f030"/><path d="M189 55h5v25h-5zm114 0h5v15h-5z" fill="#61f030"/></g>"     "     "     <g stroke="#317818"><path d="M263 57h5v30h-5z" fill="#62f030"/><path d="M506 56h4v7h-4zm65-9h23v4h-23z" fill="#63f030"/></g>"     "     "     <g stroke="#327818"><path d="M571 58h28v5h-28z" fill="#64f030"/><path d="M571 64h4v28h-4zm-409-5h5v22h-5z" fill="#65f030"/></g>"     "     "     <g stroke="#337818"><path d="M168 59h5v22h-5z" fill="#66f030"/><path d="M531 56h4v8h-4zm-76 4h5v29h-5z" fill="#67f030"/></g>"     "     "     <g stroke="#347818"><path d="M479 61h5v10h-5z" fill="#68f030"/><path d="M576 64h4v18h-4zm-173 0h5v11h-5z" fill="#69f030"/></g>"     "     "     <g stroke="#357818"><path d="M581 64h21v5h-21z" fill="#6af030"/><path d="M531 65h11v5h-11zm47-33h24v4h-24z" fill="#6bf030"/></g>"     "     "     <g stroke="#367818"><path d="M239 65h5v23h-5z" fill="#6cf030"/><path d="M85 66h5v23h-5zm20 0h5v19h-5z" fill="#6df030"/></g>"     "     "     <g stroke="#377818"><path d="M579 42h17v4h-17z" fill="#6ef030"/><path d="M556 59h4v13h-4zm25-22h14v4h-14z" fill="#6ff030"/></g>"     "     "     <g stroke="#387818"><path d="M581 70h4v27h-4z" fill="#70f030"/><path d="M586 70h29v5h-29zm-2-46h26v4h-26z" fill="#71f030"/></g>"     "     "     <g stroke="#397818"><path d="M387 71h5v8h-5z" fill="#72f030"/><path d="M303 71h5v15h-5zm228 0h5v5h-5z" fill="#73f030"/></g>"     "     "     <g stroke="#3a7818"><path d="M537 71h8v5h-8z" fill="#74f030"/><path d="M479 72h5v14h-5z" fill="#75f030"/></g>"     "     <path d="M586 76h4v25h-4zm-183 0h5v5h-5z" fill="#76f030" stroke="#3b7818"/>"     "     <path d="M591 76h28v5h-28z" fill="#77f030" stroke="#3b7818"/>"     <path d="M183 77h5v28h-5zm348 0h12v5h-12z" fill="#78f030" stroke="#3c7818"/>"     "     <path d="M591 82h5v23h-5z" fill="#79f030" stroke="#3c7818"/>"     <path d="M387 80h5v28h-5zm-198 1h5v7h-5z" fill="#7af030" stroke="#3d7818"/>"     "     <path d="M593 52h19v5h-19z" fill="#7bf030" stroke="#3d7818"/>"     <path d="M162 82h5v22h-5zm6 0h5v22h-5z" fill="#7cf030" stroke="#3e7818"/>"     "     <path d="M403 82h5v24h-5z" fill="#7df030" stroke="#3e7818"/>"     <path d="M597 82h21v5h-21zm-66 1h5v16h-5z" fill="#7ef030" stroke="#3f7818"/>"     "     <path d="M537 83h8v16h-8z" fill="#7ff030" stroke="#3f7818"/>"     <path d="M597 88h5v12h-5zm-492-2h5v9h-5z" fill="#80f030" stroke="#407818"/>"     "     <path d="M303 87h5v15h-5z" fill="#81f030" stroke="#407818"/>"     <path d="M479 87h5v12h-5zm121-29h16v5h-16z" fill="#82f030" stroke="#417818"/>"     "     <path d="M263 88h5v29h-5z" fill="#83f030" stroke="#417818"/>"     <path d="M603 88h20v5h-20zm-414 1h5v6h-5z" fill="#84f030" stroke="#427818"/>"     "     <path d="M239 89h6v11h-6z" fill="#85f030" stroke="#427818"/>"     <path d="M85 90h5v6h-5zm518-26h24v5h-24z" fill="#86f030" stroke="#437818"/>"     "     <path d="M455 90h6v27h-6z" fill="#87f030" stroke="#437818"/>"     <path d="M603 94h5v27h-5zm6 0h11v6h-11z" fill="#88f030" stroke="#447818"/>"     "     <path d="M609 101h5v25h-5z" fill="#89f030" stroke="#447818"/>"     <path d="M105 96h5v7h-5zm84 0h5v7h-5z" fill="#8af030" stroke="#457818"/>"     "     <path d="M611 24h28v5h-28z" fill="#8bf030" stroke="#457818"/>"     <path d="M85 97h5v7h-5zm528-45h16v5h-16z" fill="#8cf030" stroke="#467818"/>"     "     <path d="M479 100h6v17h-6z" fill="#8df030" stroke="#467818"/>"     <path d="M531 100h6v16h-6zm7 0h7v16h-7z" fill="#8ef030" stroke="#477818"/>"     "     <path d="M239 101h6v19h-6z" fill="#8ff030" stroke="#477818"/>"     <g stroke="#487818"><path d="M615 101h6v6h-6z" fill="#90f030"/><path d="M615 108h5v23h-5zm-312-5h6v13h-6z" fill="#91f030"/></g>"     "     "     <g stroke="#497818"><path d="M616 70h11v5h-11z" fill="#92f030"/><path d="M597 101h5v8h-5zm20-43h20v5h-20z" fill="#93f030"/></g>"     "     "     <g stroke="#4a7818"><path d="M162 105h6v27h-6z" fill="#94f030"/><path d="M619 82h14v5h-14zm-216 25h6v25h-6z" fill="#95f030"/></g>"     "     "     <g stroke="#4b7818"><path d="M620 76h15v5h-15z" fill="#96f030"/><path d="M621 94h13v5h-13zm0 14h26v6h-26z" fill="#97f030"/></g>"     "     "     <g stroke="#4c7818"><path d="M621 115h5v23h-5z" fill="#98f030"/><path d="M387 109h6v11h-6zm235-8h23v5h-23z" fill="#99f030"/></g>"     "     "     <g stroke="#4d7818"><path d="M105 104h5v13h-5z" fill="#9af030"/><path d="M624 88h30v5h-30zm-435 16h5v14h-5z" fill="#9bf030"/></g>"     "     "     <g stroke="#4e7818"><path d="M85 105h5v15h-5z" fill="#9cf030"/><path d="M627 115h5v18h-5zm-444-9h5v15h-5z" fill="#9df030"/></g>"     "     "     <g stroke="#4f7818"><path d="M628 64h30v5h-30z" fill="#9ef030"/><path d="M628 70h30v5h-30zm-37 36h5v15h-5z" fill="#9ff030"/></g>"     "     "     <g stroke="#507818"><path d="M633 115h25v6h-25z" fill="#a0f030"/><path d="M630 52h27v5h-27zm-327 65h6v20h-6z" fill="#a1f030"/></g>"     "     "     <g stroke="#517818"><path d="M531 117h6v16h-6z" fill="#a2f030"/><path d="M538 117h7v16h-7zm-275 1h6v26h-6z" fill="#a3f030"/></g>"     "     "     <g stroke="#527818"><path d="M455 118h6v30h-6z" fill="#a4f030"/><path d="M479 118h6v20h-6zm154 4h5v29h-5z" fill="#a5f030"/></g>"     "     "     <g stroke="#537818"><path d="M634 82h23v5h-23z" fill="#a6f030"/><path d="M239 121h6v30h-6zm148 0h6v11h-6z" fill="#a7f030"/></g>"     "     "     <g stroke="#547818"><path d="M635 94h27v5h-27z" fill="#a8f030"/><path d="M639 122h16v6h-16zm-3-46h22v5h-22z" fill="#a9f030"/></g>"     "     "     <g stroke="#557818"><path d="M597 110h5v19h-5z" fill="#aaf030"/><path d="M638 58h20v5h-20z" fill="#abf030"/></g>"     "     <path d="M639 129h5v21h-5zm1-105h30v5h-30z" fill="#acf030" stroke="#567818"/>"     "     <path d="M645 129h24v6h-24z" fill="#adf030" stroke="#567818"/>"     <path d="M645 136h5v23h-5zm1-35h24v5h-24z" fill="#aef030" stroke="#577818"/>"     "     <path d="M162 133h6v27h-6z" fill="#aff030" stroke="#577818"/>"     <path d="M403 133h6v26h-6zm-16 0h6v22h-6z" fill="#b0f030" stroke="#587818"/>"     "     <path d="M531 134h6v18h-6z" fill="#b1f030" stroke="#587818"/>"     <path d="M538 134h7v18h-7zm110-26h18v6h-18z" fill="#b2f030" stroke="#597818"/>"     "     <path d="M651 136h30v6h-30z" fill="#b3f030" stroke="#597818"/>"     <path d="M303 138h6v15h-6zm176 1h6v10h-6z" fill="#b4f030" stroke="#5a7818"/>"     "     <path d="M651 143h6v8h-6z" fill="#b5f030" stroke="#5a7818"/>"     <path d="M658 143h7v6h-7zm-2-21h18v6h-18z" fill="#b6f030" stroke="#5b7818"/>"     "     <path d="M263 145h6v29h-6z" fill="#b7f030" stroke="#5b7818"/>"     <path d="M658 150h6v26h-6zm1-92h6v14h-6z" fill="#b8f030" stroke="#5c7818"/>"     "     <path d="M659 73h6v8h-6z" fill="#b9f030" stroke="#5c7818"/>"     <path d="M659 115h9v6h-9zm-204 34h6v24h-6z" fill="#baf030" stroke="#5d7818"/>"     "     <path d="M479 150h6v13h-6z" fill="#bbf030" stroke="#5d7818"/>"     <path d="M665 150h24v6h-24zm-2-56h10v6h-10z" fill="#bcf030" stroke="#5e7818"/>"     "     <path d="M239 152h6v25h-6z" fill="#bdf030" stroke="#5e7818"/>"     <path d="M651 152h6v20h-6zm14 5h6v13h-6z" fill="#bef030" stroke="#5f7818"/>"     "     <path d="M666 58h6v10h-6z" fill="#bff030" stroke="#5f7818"/>"     <path d="M666 69h6v12h-6zm-135 84h7v23h-7z" fill="#c0f030" stroke="#607818"/>"     "     <path d="M539 153h6v23h-6z" fill="#c1f030" stroke="#607818"/>"     <path d="M666 143h19v6h-19zm-363 11h7v26h-7z" fill="#c2f030" stroke="#617818"/>"     "     <path d="M667 108h7v6h-7z" fill="#c3f030" stroke="#617818"/>"     <g stroke="#627818"><path d="M669 115h19v6h-19z" fill="#c4f030"/><path d="M387 156h7v24h-7zm283-27h27v6h-27z" fill="#c5f030"/></g>"     "     "     <g stroke="#637818"><path d="M672 157h26v7h-26z" fill="#c6f030"/><path d="M671 24h6v7h-6zm0 77h29v6h-29z" fill="#c7f030"/></g>"     "     "     <g stroke="#647818"><path d="M672 165h6v20h-6z" fill="#c8f030"/><path d="M673 58h6v13h-6zM403 160h7v19h-7z" fill="#c9f030"/></g>"     "     "     <g stroke="#657818"><path d="M674 94h14v6h-14z" fill="#caf030"/><path d="M162 161h7v29h-7zm513-53h29v6h-29z" fill="#cbf030"/></g>"     "     "     <g stroke="#667818"><path d="M675 122h14v6h-14z" fill="#ccf030"/><path d="M479 164h7v21h-7zM678 24h15v6h-15z" fill="#cdf030"/></g>"     "     "     <g stroke="#677818"><path d="M679 165h9v7h-9z" fill="#cef030"/><path d="M679 173h6v7h-6zm1-115h6v23h-6z" fill="#cff030"/></g>"     "     "     <g stroke="#687818"><path d="M682 136h27v6h-27z" fill="#d0f030"/><path d="M686 143h10v6h-10zm0 30h24v7h-24z" fill="#d1f030"/></g>"     "     "     <g stroke="#697818"><path d="M679 181h6v21h-6z" fill="#d2f030"/><path d="M686 181h6v21h-6zm1-123h6v18h-6z" fill="#d3f030"/></g>"     "     "     <g stroke="#6a7818"><path d="M455 174h7v12h-7z" fill="#d4f030"/><path d="M263 175h7v10h-7zm426-81h22v6h-22z" fill="#d5f030"/></g>"     "     "     <g stroke="#6b7818"><path d="M531 177h7v29h-7z" fill="#d6f030"/><path d="M689 165h28v7h-28zm-450 13h7v16h-7z" fill="#d7f030"/></g>"     "     "     <g stroke="#6c7818"><path d="M403 180h7v26h-7z" fill="#d8f030"/><path d="M303 181h7v15h-7zm84 0h7v19h-7z" fill="#d9f030"/></g>"     "     "     <g stroke="#6d7818"><path d="M693 181h7v30h-7z" fill="#daf030"/><path d="M701 181h26v7h-26zm-7-157h12v7h-12z" fill="#dbf030"/></g>"     "     "     <g stroke="#6e7818"><path d="M694 58h26v7h-26z" fill="#dcf030"/><path d="M694 66h26v15h-26zM479 186h7v22h-7z" fill="#ddf030"/></g>"     "     "     <g stroke="#6f7818"><path d="M263 186h7v24h-7z" fill="#def030"/><path d="M455 187h7v22h-7z" fill="#dff030"/></g>"     "     <path d="M699 157h30v7h-30zm2 32h7v17h-7z" fill="#e0f030" stroke="#707818"/>"     "     <path d="M709 189h30v7h-30z" fill="#e1f030" stroke="#707818"/>"     <path d="M162 191h7v23h-7zM707 24h29v7h-29z" fill="#e2f030" stroke="#717818"/>"     "     <path d="M239 195h7v27h-7z" fill="#e3f030" stroke="#717818"/>"     <path d="M303 197h7v20h-7zm406 0h7v24h-7z" fill="#e4f030" stroke="#727818"/>"     "     <path d="M717 197h7v7h-7z" fill="#e5f030" stroke="#727818"/>"     <path d="M711 173h25v7h-25zm-324 28h7v22h-7z" fill="#e6f030" stroke="#737818"/>"     "     <path d="M679 203h7v19h-7z" fill="#e7f030" stroke="#737818"/>"     <path d="M717 205h7v27h-7zm8-8h23v7h-23z" fill="#e8f030" stroke="#747818"/>"     "     <path d="M725 205h8v7h-8z" fill="#e9f030" stroke="#747818"/>"     <path d="M718 165h24v7h-24zm-315 42h7v25h-7z" fill="#eaf030" stroke="#757818"/>"     "     <path d="M531 207h14v7h-14z" fill="#ebf030" stroke="#757818"/>"     <path d="M701 207h7v25h-7zm20-149h7v10h-7z" fill="#ecf030" stroke="#767818"/>"     "     <path d="M721 69h7v12h-7z" fill="#edf030" stroke="#767818"/>"     <path d="M479 209h7v20h-7zm-24 1h7v28h-7z" fill="#eef030" stroke="#777818"/>"     "     <path d="M263 211h7v16h-7z" fill="#eff030" stroke="#777818"/>"     <path d="M693 212h7v28h-7zm32 1h7v18h-7z" fill="#f0f030" stroke="#787818"/>"     "     <path d="M733 213h8v7h-8z" fill="#f0f031" stroke="#787818"/>"     <path d="M162 215h7v25h-7zm369 0h7v25h-7z" fill="#f0f032" stroke="#787819"/>"     "     <path d="M728 181h29v7h-29z" fill="#f0f033" stroke="#787819"/>"     <path d="M729 58h7v18h-7zM303 218h7v12h-7z" fill="#f0f034" stroke="#78781a"/>"     "     <path d="M730 157h27v7h-27z" fill="#f0f035" stroke="#78781a"/>"     <path d="M733 221h7v23h-7zm8 0h26v7h-26z" fill="#f0f036" stroke="#78781b"/>"     "     <path d="M709 222h7v18h-7z" fill="#f0f037" stroke="#78781b"/>"     <g stroke="#78781c"><path d="M734 205h30v7h-30z" fill="#f0f038"/><path d="M239 223h7v17h-7zm440 0h7v25h-7z" fill="#f0f039"/></g>"     "     "     <g stroke="#78781d"><path d="M737 24h21v7h-21z" fill="#f0f03a"/><path d="M737 58h7v16h-7zM387 224h7v8h-7z" fill="#f0f03b"/></g>"     "     "     <g stroke="#78781e"><path d="M737 173h9v7h-9z" fill="#f0f03c"/><path d="M740 189h29v7h-29zm-477 39h7v8h-7z" fill="#f0f03d"/></g>"     "     "     <g stroke="#78781f"><path d="M741 229h7v26h-7z" fill="#f0f03e"/><path d="M742 213h22v7h-22zm7 16h23v8h-23z" fill="#f0f03f"/></g>"     "     "     <g stroke="#787820"><path d="M743 165h21v7h-21z" fill="#f0f040"/><path d="M745 58h7v11h-7zM479 230h7v12h-7z" fill="#f0f041"/></g>"     "     "     <g stroke="#787821"><path d="M747 173h28v7h-28z" fill="#f0f042"/><path d="M303 231h7v13h-7zm446-34h28v7h-28z" fill="#f0f043"/></g>"     "     "     <g stroke="#787822"><path d="M749 238h7v28h-7z" fill="#f0f044"/><path d="M725 232h7v14h-7zm32 6h22v8h-22z" fill="#f0f045"/></g>"     "     "     <g stroke="#787823"><path d="M403 233h7v14h-7z" fill="#f0f046"/><path d="M753 58h26v7h-26zm0 8h26v15h-26z" fill="#f0f047"/></g>"     "     "     <g stroke="#787824"><path d="M387 233h7v15h-7z" fill="#f0f048"/><path d="M162 241h8v22h-8zm369 0h13v8h-13z" fill="#f0f049"/></g>"     "     "     <g stroke="#787825"><path d="M701 233h7v18h-7z" fill="#f0f04a"/><path d="M717 233h7v19h-7zm40 14h7v27h-7z" fill="#f0f04b"/></g>"     "     "     <g stroke="#787826"><path d="M758 157h26v7h-26z" fill="#f0f04c"/><path d="M758 181h22v7h-22zm1-157h25v7h-25z" fill="#f0f04d"/></g>"     "     "     <g stroke="#787827"><path d="M765 247h11v8h-11z" fill="#f0f04e"/><path d="M679 249h8v28h-8zm-148 1h12v8h-12z" fill="#f0f04f"/></g>"     "     "     <g stroke="#787828"><path d="M765 165h30v7h-30z" fill="#f0f050"/><path d="M765 205h8v10h-8zm0 51h8v25h-8z" fill="#f0f051"/></g>"     "     "     <g stroke="#787829"><path d="M774 256h12v8h-12z" fill="#f0f052"/><path d="M531 259h8v24h-8z" fill="#f0f053"/></g>"     "     <path d="M773 229h29v8h-29zm1-24h25v8h-25z" fill="#f0f054" stroke="#78782a"/>"     "     <path d="M774 265h8v21h-8z" fill="#f0f055" stroke="#78782a"/>"     <path d="M162 264h8v28h-8zm615-17h9v8h-9z" fill="#f0f056" stroke="#78782b"/>"     "     <path d="M783 265h23v8h-23z" fill="#f0f057" stroke="#78782b"/>"     <path d="M780 58h29v8h-29zm0 9h29v14h-29z" fill="#f0f058" stroke="#78782c"/>"     "     <path d="M780 238h8v8h-8z" fill="#f0f059" stroke="#78782c"/>"     <path d="M783 274h8v9h-8zm9 0h24v8h-24z" fill="#f0f05a" stroke="#78782d"/>"     "     <path d="M787 247h27v8h-27z" fill="#f0f05b" stroke="#78782d"/>"     <path d="M787 256h27v8h-27zm2-18h23v8h-23z" fill="#f0f05c" stroke="#78782e"/>"     "     <path d="M679 278h8v28h-8z" fill="#f0f05d" stroke="#78782e"/>"     <path d="M792 283h8v23h-8zm-27-1h8v27h-8z" fill="#f0f05e" stroke="#78782f"/>"     "     <path d="M801 283h28v8h-28z" fill="#f0f05f" stroke="#78782f"/>"     <path d="M531 284h8v24h-8zm252 0h8v16h-8z" fill="#f0f060" stroke="#787830"/>"     "     <path d="M774 287h8v10h-8z" fill="#f0f061" stroke="#787830"/>"     <path d="M800 205h8v9h-8zm1 87h8v12h-8z" fill="#f0f062" stroke="#787831"/>"     "     <path d="M803 229h9v8h-9z" fill="#f0f063" stroke="#787831"/>"     <path d="M810 292h16v8h-16zm-648 1h8v17h-8z" fill="#f0f064" stroke="#787832"/>"     "     <path d="M807 265h20v8h-20z" fill="#f0f065" stroke="#787832"/>"     <path d="M809 205h24v8h-24zm1-147h8v18h-8z" fill="#f0f066" stroke="#787833"/>"     "     <path d="M774 298h8v17h-8z" fill="#f0f067" stroke="#787833"/>"     <path d="M810 301h8v17h-8zm3-72h18v8h-18z" fill="#f0f068" stroke="#787834"/>"     "     <path d="M783 301h8v27h-8z" fill="#f0f069" stroke="#787834"/>"     <path d="M819 301h16v8h-16zm-4-54h21v8h-21z" fill="#f0f06a" stroke="#787835"/>"     "     <path d="M815 256h21v8h-21z" fill="#f0f06b" stroke="#787835"/>"     <path d="M801 305h8v15h-8zm16-31h17v8h-17z" fill="#f0f06c" stroke="#787836"/>"     "     <path d="M819 58h8v17h-8z" fill="#f0f06d" stroke="#787836"/>"     <g stroke="#787837"><path d="M679 307h8v29h-8z" fill="#f0f06e"/><path d="M792 307h8v16h-8zm27 3h8v21h-8z" fill="#f0f06f"/></g>"     "     "     <g stroke="#787838"><path d="M531 309h8v20h-8z" fill="#f0f070"/><path d="M765 310h8v24h-8zm63 0h11v8h-11z" fill="#f0f071"/></g>"     "     "     <g stroke="#787839"><path d="M162 311h8v17h-8z" fill="#f0f072"/><path d="M827 292h20v8h-20zm1-234h26v8h-26z" fill="#f0f073"/></g>"     "     "     <g stroke="#78783a"><path d="M828 67h26v14h-26z" fill="#f0f074"/><path d="M774 316h8v13h-8zm54-51h17v8h-17z" fill="#f0f075"/></g>"     "     "     <g stroke="#78783b"><path d="M828 319h8v8h-8z" fill="#f0f076"/><path d="M830 283h19v8h-19zm-20 36h8v28h-8z" fill="#f0f077"/></g>"     "     "     <g stroke="#78783c"><path d="M837 319h23v8h-23z" fill="#f0f078"/><path d="M828 328h8v13h-8zm4-99h27v8h-27z" fill="#f0f079"/></g>"     "     "     <g stroke="#78783d"><path d="M801 321h8v16h-8z" fill="#f0f07a"/><path d="M834 205h26v8h-26zm1 69h28v8h-28z" fill="#f0f07b"/></g>"     "     "     <g stroke="#78783e"><path d="M792 324h8v11h-8z" fill="#f0f07c"/><path d="M836 301h30v8h-30zm1-54h21v8h-21z" fill="#f0f07d"/></g>"     "     "     <g stroke="#78783f"><path d="M837 328h8v17h-8z" fill="#f0f07e"/><path d="M840 310h12v8h-12zm6 18h14v8h-14z" fill="#f0f07f"/></g>"     "     "     <g stroke="#787840"><path d="M162 329h8v25h-8z" fill="#f0f080"/><path d="M783 329h8v16h-8zm-9 1h8v14h-8z" fill="#f0f081"/></g>"     "     "     <g stroke="#787841"><path d="M531 330h8v20h-8z" fill="#f0f082"/><path d="M819 332h8v17h-8zm27-67h15v8h-15z" fill="#f0f083"/></g>"     "     "     <g stroke="#787842"><path d="M765 335h8v29h-8z" fill="#f0f084"/><path d="M846 337h9v9h-9zm-54-1h8v23h-8z" fill="#f0f085"/></g>"     "     "     <g stroke="#787843"><path d="M679 337h8v24h-8z" fill="#f0f086"/><path d="M856 337h11v9h-11z" fill="#f0f087"/></g>"     "     <path d="M846 347h9v24h-9zm9-289h27v9h-27z" fill="#f0f088" stroke="#787844"/>"     "     <path d="M855 68h27v13h-27z" fill="#f0f089" stroke="#787844"/>"     <path d="M856 347h9v18h-9zm3-100h9v13h-9z" fill="#f0f08a" stroke="#787845"/>"     "     <path d="M866 347h16v9h-16z" fill="#f0f08b" stroke="#787845"/>"     <path d="M860 229h9v14h-9zm1-24h21v9h-21z" fill="#f0f08c" stroke="#787846"/>"     "     <path d="M861 319h9v15h-9z" fill="#f0f08d" stroke="#787846"/>"     <path d="M531 351h9v17h-9zm335 6h9v15h-9z" fill="#f0f08e" stroke="#787847"/>"     "     <path d="M162 355h9v29h-9z" fill="#f0f08f" stroke="#787847"/>"     <path d="M868 337h26v9h-26zm1-90h26v9h-26z" fill="#f0f090" stroke="#787848"/>"     "     <path d="M876 357h20v9h-20z" fill="#f0f091" stroke="#787848"/>"     <path d="M870 229h9v16h-9zm1 90h9v15h-9z" fill="#f0f092" stroke="#787849"/>"     "     <path d="M679 362h13v9h-13z" fill="#f0f093" stroke="#787849"/>"     <path d="M876 367h9v23h-9zm-20-1h9v21h-9z" fill="#f0f094" stroke="#78784a"/>"     "     <path d="M886 367h10v9h-10z" fill="#f0f095" stroke="#78784a"/>"     <path d="M880 229h9v17h-9zm1 90h27v9h-27z" fill="#f0f096" stroke="#78784b"/>"     "     <path d="M531 369h9v26h-9z" fill="#f0f097" stroke="#78784b"/>"     <path d="M883 58h9v15h-9zm0 147h9v11h-9z" fill="#f0f098" stroke="#78784c"/>"     "     <path d="M883 347h20v9h-20z" fill="#f0f099" stroke="#78784c"/>"     <path d="M679 372h9v21h-9zm167 0h9v24h-9z" fill="#f0f09a" stroke="#78784d"/>"     "     <path d="M866 373h9v28h-9z" fill="#f0f09b" stroke="#78784d"/>"     <path d="M886 377h9v25h-9zm10 0h10v9h-10z" fill="#f0f09c" stroke="#78784e"/>"     "     <path d="M890 229h9v15h-9z" fill="#f0f09d" stroke="#78784e"/>"     <path d="M893 58h9v10h-9zm0 11h9v12h-9z" fill="#f0f09e" stroke="#78784f"/>"     "     <path d="M893 205h9v13h-9z" fill="#f0f09f" stroke="#78784f"/>"     <path d="M895 337h26v9h-26zm1-90h26v9h-26z" fill="#f0f0a0" stroke="#787850"/>"     "     <path d="M896 387h9v20h-9z" fill="#f0f0a1" stroke="#787850"/>"     <g stroke="#787851"><path d="M897 357h24v9h-24z" fill="#f0f0a2"/><path d="M897 367h24v9h-24zm-735 18h9v25h-9z" fill="#f0f0a3"/></g>"     "     "     <g stroke="#787852"><path d="M906 387h10v9h-10z" fill="#f0f0a4"/><path d="M900 229h9v17h-9zm-44 159h9v13h-9z" fill="#f0f0a5"/></g>"     "     "     <g stroke="#787853"><path d="M903 58h9v13h-9z" fill="#f0f0a6"/><path d="M903 205h20v9h-20zm-27 186h9v22h-9z" fill="#f0f0a7"/></g>"     "     "     <g stroke="#787854"><path d="M904 347h23v9h-23z" fill="#f0f0a8"/><path d="M906 397h9v16h-9zm-227-3h9v20h-9z" fill="#f0f0a9"/></g>"     "     "     <g stroke="#787855"><path d="M907 377h17v9h-17z" fill="#f0f0aa"/><path d="M531 396h9v16h-9zm315 1h9v20h-9z" fill="#f0f0ab"/></g>"     "     "     <g stroke="#787856"><path d="M916 397h27v9h-27z" fill="#f0f0ac"/><path d="M909 319h28v10h-28zm1-90h10v10h-10z" fill="#f0f0ad"/></g>"     "     "     <g stroke="#787857"><path d="M913 58h10v12h-10z" fill="#f0f0ae"/><path d="M913 71h10v10h-10zm-57 331h9v30h-9z" fill="#f0f0af"/></g>"     "     "     <g stroke="#787858"><path d="M886 403h9v11h-9z" fill="#f0f0b0"/><path d="M916 407h10v26h-10zm1-20h11v9h-11z" fill="#f0f0b1"/></g>"     "     "     <g stroke="#787859"><path d="M927 407h20v9h-20z" fill="#f0f0b2"/><path d="M896 408h9v16h-9zm25-179h19v10h-19z" fill="#f0f0b3"/></g>"     "     "     <g stroke="#78785a"><path d="M922 357h10v15h-10z" fill="#f0f0b4"/><path d="M162 411h9v12h-9zm761-164h10v15h-10z" fill="#f0f0b5"/></g>"     "     "     <g stroke="#78785b"><path d="M924 58h28v10h-28z" fill="#f0f0b6"/><path d="M924 69h28v12h-28zm0 136h24v10h-24z" fill="#f0f0b7"/></g>"     "     "     <g stroke="#78785c"><path d="M922 337h12v9h-12z" fill="#f0f0b8"/><path d="M531 413h13v9h-13zm148 2h10v21h-10z" fill="#f0f0b9"/></g>"     "     "     <g stroke="#78785d"><path d="M927 417h10v21h-10z" fill="#f0f0ba"/><path d="M938 417h14v10h-14z" fill="#f0f0bb"/></g>"     "     <path d="M933 357h24v10h-24zm1-110h10v16h-10z" fill="#f0f0bc" stroke="#78785e"/>"     "     <path d="M531 423h13v10h-13z" fill="#f0f0bd" stroke="#78785e"/>"     <path d="M162 424h10v25h-10zm776-105h28v10h-28z" fill="#f0f0be" stroke="#78785f"/>"     "     <path d="M938 428h10v28h-10z" fill="#f0f0bf" stroke="#78785f"/>"     <path d="M949 428h23v10h-23zm-8-199h23v10h-23z" fill="#f0f0c0" stroke="#787860"/>"     "     <path d="M945 247h10v11h-10z" fill="#f0f0c1" stroke="#787860"/>"     <path d="M856 433h10v24h-10zm60 1h10v21h-10z" fill="#f0f0c2" stroke="#787861"/>"     "     <path d="M531 434h10v15h-10z" fill="#f0f0c3" stroke="#787861"/>"     <path d="M949 205h29v10h-29zM679 437h10v28h-10z" fill="#f0f0c4" stroke="#787862"/>"     "     <path d="M949 439h10v14h-10z" fill="#f0f0c5" stroke="#787862"/>"     <path d="M927 439h10v14h-10zm33 0h17v10h-17z" fill="#f0f0c6" stroke="#787863"/>"     "     <path d="M953 58h10v18h-10z" fill="#f0f0c7" stroke="#787863"/>"     <path d="M953 417h29v10h-29zm3-170h10v11h-10z" fill="#f0f0c8" stroke="#787864"/>"     "     <path d="M958 357h28v10h-28z" fill="#f0f0c9" stroke="#787864"/>"     <path d="M960 450h10v15h-10zm-798 0h11v10h-11z" fill="#f0f0ca" stroke="#787865"/>"     "     <path d="M531 450h10v26h-10z" fill="#f0f0cb" stroke="#787865"/>"     <path d="M971 450h30v10h-30zm31 0h22v10h-22z" fill="#f0f0cc" stroke="#787866"/>"     "     <path d="M964 58h10v18h-10z" fill="#f0f0cd" stroke="#787866"/>"     <path d="M965 229h28v10h-28zm29 0h30v17h-30z" fill="#f0f0ce" stroke="#787867"/>"     "     <path d="M927 454h10v19h-10z" fill="#f0f0cf" stroke="#787867"/>"     <path d="M949 454h10v29h-10zm18-207h10v12h-10z" fill="#f0f0d0" stroke="#787868"/>"     "     <path d="M967 319h10v16h-10z" fill="#f0f0d1" stroke="#787868"/>"     <path d="M916 456h10v13h-10zm22 1h10v16h-10z" fill="#f0f0d2" stroke="#787869"/>"     "     <path d="M856 458h10v27h-10z" fill="#f0f0d3" stroke="#787869"/>"     <path d="M856 486h19v26h-19zm115-25h10v11h-10z" fill="#f0f0d4" stroke="#78786a"/>"     "     <path d="M973 428h22v10h-22z" fill="#f0f0d5" stroke="#78786a"/>"     <g stroke="#78786b"><path d="M162 461h10v12h-10z" fill="#f0f0d6"/><path d="M982 461h24v10h-24zm-7-403h24v10h-24z" fill="#f0f0d7"/></g>"     "     "     <g stroke="#78786c"><path d="M1000 58h24v23h-24z" fill="#f0f0d8"/><path d="M975 69h24v12h-24zm-15 397h10v24h-10z" fill="#f0f0d9"/></g>"     "     "     <g stroke="#78786d"><path d="M960 491h10v21h-10z" fill="#f0f0da"/><path d="M978 247h10v14h-10zm0 72h20v10h-20z" fill="#f0f0db"/></g>"     "     "     <g stroke="#78786e"><path d="M999 319h25v17h-25z" fill="#f0f0dc"/><path d="M679 466h10v24h-10zm0 25h13v21h-13z" fill="#f0f0dd"/></g>"     "     "     <g stroke="#78786f"><path d="M978 439h23v10h-23z" fill="#f0f0de"/><path d="M979 205h16v10h-16zm3 267h10v20h-10z" fill="#f0f0df"/></g>"     "     "     <g stroke="#787870"><path d="M982 493h10v19h-10z" fill="#f0f0e0"/><path d="M916 470h10v27h-10zm0 28h10v14h-10z" fill="#f0f0e1"/></g>"     "     "     <g stroke="#787871"><path d="M983 417h30v10h-30z" fill="#f0f0e2"/><path d="M993 472h26v10h-26zm-22 1h10v24h-10z" fill="#f0f0e3"/></g>"     "     "     <g stroke="#787872"><path d="M971 498h10v14h-10z" fill="#f0f0e4"/><path d="M162 474h10v25h-10zm0 26h11v12h-11z" fill="#f0f0e5"/></g>"     "     "     <g stroke="#787873"><path d="M927 474h10v29h-10z" fill="#f0f0e6"/><path d="M938 474h10v16h-10zm49-117h10v18h-10z" fill="#f0f0e7"/></g>"     "     "     <g stroke="#787874"><path d="M998 357h26v19h-26z" fill="#f0f0e8"/><path d="M989 247h30v10h-30zM531 477h10v15h-10z" fill="#f0f0e9"/></g>"     "     "     <g stroke="#787875"><path d="M531 493h14v19h-14z" fill="#f0f0ea"/><path d="M993 483h11v18h-11zm12 0h19v29h-19z" fill="#f0f0eb"/></g>"     "     "     <g stroke="#787876"><path d="M993 502h11v10h-11z" fill="#f0f0ec"/><path d="M949 484h10v18h-10zm47-279h11v13h-11z" fill="#f0f0ed"/></g>"     "     "     <g stroke="#787877"><path d="M1008 205h16v15h-16z" fill="#f0f0ee"/><path d="M996 428h15v10h-15z" fill="#f0f0ef"/></g>"     "     <text y="526" font-size="12" fill="#000" x="0"> MaxRectsBin(size: 1024x512, choice: WorstLongSideFit, method: ShorterLeftoverAxis): inserted 853 of 1536 rectangles with w/h lengths between [2, 31], occupancy: 21.13% </text></svg>