<svg xmlns="http://www.w3.org/2000/svg" viewBox="0 0 1024 536" xmlns:v="https://vecta.io/nano"><path d="M0 0h1024v512H0z" fill="#fff" stroke="#000"/>"     <g stroke="#181818"><path d="M1 1h1v1H1z" fill="#303030"/><path d="M1 3h2v1H1z" fill="#303130"/></g>"     "     <path d="M1 5h2v1H1z" fill="#303330" stroke="#181918"/>"     <path d="M1 7h1v2H1z" fill="#303530" stroke="#181a18"/>"     <path d="M1 10h2v1H1z" fill="#303630" stroke="#181b18"/>"     <path d="M1 12h3v1H1z" fill="#303830" stroke="#181c18"/>"     <path d="M1 14h1v3H1z" fill="#303a30" stroke="#181d18"/>"     <g stroke="#181e18"><path d="M1 18h1v3H1z" fill="#303c30"/><path d="M1 22h3v1H1z" fill="#303d30"/></g>"     "     <path d="M1 24h1v3H1z" fill="#303f30" stroke="#181f18"/>"     <path d="M1 28h2v2H1z" fill="#304130" stroke="#182018"/>"     <path d="M1 31h2v2H1z" fill="#304230" stroke="#182118"/>"     <path d="M1 34h1v4H1z" fill="#304430" stroke="#182218"/>"     <path d="M1 39h1v4H1z" fill="#304630" stroke="#182318"/>"     <g stroke="#182418"><path d="M1 44h4v1H1z" fill="#304830"/><path d="M1 46h1v4H1z" fill="#304930"/></g>"     "     <path d="M1 51h5v1H1z" fill="#304b30" stroke="#182518"/>"     <path d="M1 53h3v2H1z" fill="#304d30" stroke="#182618"/>"     <path d="M1 56h5v1H1z" fill="#304f30" stroke="#182718"/>"     <path d="M1 58h3v2H1z" fill="#305030" stroke="#182818"/>"     <path d="M1 61h5v1H1z" fill="#305230" stroke="#182918"/>"     <g stroke="#182a18"><path d="M1 63h5v1H1z" fill="#305430"/><path d="M1 65h2v3H1z" fill="#305530"/></g>"     "     <path d="M1 69h6v1H1z" fill="#305730" stroke="#182b18"/>"     <path d="M1 71h6v1H1z" fill="#305930" stroke="#182c18"/>"     <path d="M1 73h1v6H1z" fill="#305b30" stroke="#182d18"/>"     <path d="M1 80h1v7H1z" fill="#305c30" stroke="#182e18"/>"     <path d="M1 88h1v7H1z" fill="#305e30" stroke="#182f18"/>"     <path d="M1 96h7v1H1z" fill="#306030" stroke="#183018"/>"     <g stroke="#183118"><path d="M1 98h1v7H1z" fill="#306230"/><path d="M1 106h5v2H1z" fill="#306330"/></g>"     "     <path d="M1 109h1v8H1z" fill="#306530" stroke="#183218"/>"     <path d="M1 118h5v2H1z" fill="#306730" stroke="#183318"/>"     <path d="M1 121h2v5H1z" fill="#306830" stroke="#183418"/>"     <path d="M1 127h2v5H1z" fill="#306a30" stroke="#183518"/>"     <path d="M1 133h2v5H1z" fill="#306c30" stroke="#183618"/>"     <g stroke="#183718"><path d="M1 139h5v2H1z" fill="#306e30"/><path d="M1 142h3v4H1z" fill="#306f30"/></g>"     "     <path d="M1 147h4v3H1z" fill="#307130" stroke="#183818"/>"     <path d="M1 151h2v6H1z" fill="#307330" stroke="#183918"/>"     <path d="M1 158h6v2H1z" fill="#307430" stroke="#183a18"/>"     <path d="M1 161h6v2H1z" fill="#307630" stroke="#183b18"/>"     <path d="M1 164h6v2H1z" fill="#307830" stroke="#183c18"/>"     <g stroke="#183d18"><path d="M1 167h2v6H1z" fill="#307a30"/><path d="M1 174h10v1H1z" fill="#307b30"/></g>"     "     <path d="M1 176h10v1H1z" fill="#307d30" stroke="#183e18"/>"     <path d="M1 178h11v1H1z" fill="#307f30" stroke="#183f18"/>"     <path d="M1 180h2v7H1z" fill="#308130" stroke="#184018"/>"     <path d="M1 188h1v11H1z" fill="#308230" stroke="#184118"/>"     <path d="M1 200h5v3H1z" fill="#308430" stroke="#184218"/>"     <g stroke="#184318"><path d="M1 204h7v2H1z" fill="#308630"/><path d="M1 207h3v5H1z" fill="#308730"/></g>"     "     <path d="M1 213h2v7H1z" fill="#308930" stroke="#184418"/>"     <path d="M1 221h11v1H1z" fill="#308b30" stroke="#184518"/>"     <path d="M1 223h1v12H1z" fill="#308d30" stroke="#184618"/>"     <path d="M1 236h12v1H1z" fill="#308e30" stroke="#184718"/>"     <path d="M1 238h1v12H1z" fill="#309030" stroke="#184818"/>"     <path d="M1 251h12v1H1z" fill="#309230" stroke="#184918"/>"     <g stroke="#184a18"><path d="M1 253h1v12H1z" fill="#309430"/><path d="M1 266h12v1H1z" fill="#309530"/></g>"     "     <path d="M1 268h12v1H1z" fill="#309730" stroke="#184b18"/>"     <path d="M1 270h12v1H1z" fill="#309930" stroke="#184c18"/>"     <path d="M1 272h12v1H1z" fill="#309a30" stroke="#184d18"/>"     <path d="M1 274h8v2H1z" fill="#309c30" stroke="#184e18"/>"     <path d="M1 277h2v8H1z" fill="#309e30" stroke="#184f18"/>"     <g stroke="#185018"><path d="M1 286h1v13H1z" fill="#30a030"/><path d="M1 300h13v1H1z" fill="#30a130"/></g>"     "     <path d="M1 302h6v3H1z" fill="#30a330" stroke="#185118"/>"     <path d="M1 306h3v6H1z" fill="#30a530" stroke="#185218"/>"     <path d="M1 313h6v3H1z" fill="#30a630" stroke="#185318"/>"     <path d="M1 317h6v3H1z" fill="#30a830" stroke="#185418"/>"     <path d="M1 321h3v6H1z" fill="#30aa30" stroke="#185518"/>"     <g stroke="#185618"><path d="M1 328h6v3H1z" fill="#30ac30"/><path d="M1 332h1v13H1z" fill="#30ad30"/></g>"     "     <path d="M1 346h9v2H1z" fill="#30af30" stroke="#185718"/>"     <path d="M1 349h5v4H1z" fill="#30b130" stroke="#185818"/>"     <path d="M1 354h4v5H1z" fill="#30b330" stroke="#185918"/>"     <path d="M1 360h1v14H1z" fill="#30b430" stroke="#185a18"/>"     <path d="M1 375h1v14H1z" fill="#30b630" stroke="#185b18"/>"     <g stroke="#185c18"><path d="M1 390h4v5H1z" fill="#30b830"/><path d="M1 396h14v1H1z" fill="#30b930"/></g>"     "     <path d="M1 398h9v2H1z" fill="#30bb30" stroke="#185d18"/>"     <path d="M1 401h2v9H1z" fill="#30bd30" stroke="#185e18"/>"     <path d="M1 411h1v14H1z" fill="#30bf30" stroke="#185f18"/>"     <path d="M1 426h4v5H1z" fill="#30c030" stroke="#186018"/>"     <path d="M1 432h9v2H1z" fill="#30c230" stroke="#186118"/>"     <path d="M1 435h1v14H1z" fill="#30c430" stroke="#186218"/>"     <g stroke="#186318"><path d="M1 450h5v4H1z" fill="#30c630"/><path d="M1 455h1v15H1z" fill="#30c730"/></g>"     "     <path d="M1 471h1v15H1z" fill="#30c930" stroke="#186418"/>"     <path d="M3 455h15v1H3z" fill="#30cb30" stroke="#186518"/>"     <path d="M3 360h7v3H3z" fill="#30cc30" stroke="#186618"/>"     <path d="M3 457h3v7H3z" fill="#30ce30" stroke="#186718"/>"     <path d="M1 487h15v1H1z" fill="#30d030" stroke="#186818"/>"     <g stroke="#186918"><path d="M3 364h1v15H3z" fill="#30d230"/><path d="M1 489h1v15H1z" fill="#30d330"/></g>"     "     <path d="M3 73h1v15H3z" fill="#30d530" stroke="#186a18"/>"     <path d="M3 465h7v3H3z" fill="#30d730" stroke="#186b18"/>"     <path d="M3 469h10v2H3z" fill="#30d930" stroke="#186c18"/>"     <path d="M4 121h2v10H4z" fill="#30da30" stroke="#186d18"/>"     <path d="M3 489h16v1H3z" fill="#30dc30" stroke="#186e18"/>"     <g stroke="#186f18"><path d="M5 73h16v1H5z" fill="#30de30"/><path d="M5 364h6v4H5z" fill="#30df30"/></g>"     "     <path d="M3 411h2v11H3z" fill="#30e130" stroke="#187018"/>"     <path d="M3 435h11v2H3z" fill="#30e330" stroke="#187118"/>"     <path d="M3 472h17v1H3z" fill="#30e530" stroke="#187218"/>"     <path d="M3 286h17v1H3z" fill="#30e630" stroke="#187318"/>"     <path d="M3 332h5v5H3z" fill="#30e830" stroke="#187418"/>"     <g stroke="#187518"><path d="M3 491h8v3H3z" fill="#30ea30"/><path d="M5 75h3v8H5z" fill="#30eb30"/></g>"     "     <path d="M7 118h3v8H7z" fill="#30ed30" stroke="#187618"/>"     <path d="M3 223h5v5H3z" fill="#30ef30" stroke="#187718"/>"     <path d="M3 238h3v8H3z" fill="#31f030" stroke="#187818"/>"     <path d="M3 253h17v1H3z" fill="#32f030" stroke="#197818"/>"     <path d="M3 474h18v1H3z" fill="#34f030" stroke="#1a7818"/>"     <path d="M3 188h12v2H3z" fill="#36f030" stroke="#1b7818"/>"     <g stroke="#1c7818"><path d="M3 438h12v2H3z" fill="#38f030"/><path d="M3 288h12v2H3z" fill="#39f030"/></g>"     "     <path d="M6 411h9v3H6z" fill="#3bf030" stroke="#1d7818"/>"     <path d="M3 255h19v1H3z" fill="#3df030" stroke="#1e7818"/>"     <path d="M3 476h19v1H3z" fill="#3ef030" stroke="#1f7818"/>"     <path d="M5 369h7v4H5z" fill="#40f030" stroke="#207818"/>"     <path d="M3 34h3v9H3z" fill="#42f030" stroke="#217818"/>"     <g stroke="#227818"><path d="M3 380h19v1H3z" fill="#44f030"/><path d="M3 495h19v1H3z" fill="#45f030"/></g>"     "     <path d="M4 401h4v7H4z" fill="#47f030" stroke="#237818"/>"     <path d="M7 34h19v1H7z" fill="#49f030" stroke="#247818"/>"     <path d="M3 109h9v3H3z" fill="#4bf030" stroke="#257818"/>"     <path d="M3 191h19v1H3z" fill="#4cf030" stroke="#267818"/>"     <path d="M3 441h19v1H3z" fill="#4ef030" stroke="#277818"/>"     <g stroke="#287818"><path d="M3 291h7v4H3z" fill="#50f030"/><path d="M3 257h4v7H3z" fill="#51f030"/></g>"     "     <path d="M3 478h13v2H3z" fill="#53f030" stroke="#297818"/>"     <path d="M4 277h13v2H4z" fill="#55f030" stroke="#2a7818"/>"     <path d="M7 238h5v6H7z" fill="#57f030" stroke="#2b7818"/>"     <path d="M8 158h13v2H8z" fill="#58f030" stroke="#2c7818"/>"     <path d="M9 75h20v1H9z" fill="#5af030" stroke="#2d7818"/>"     <g stroke="#2e7818"><path d="M11 118h20v1H11z" fill="#5cf030"/><path d="M1 505h13v2H1z" fill="#5df030"/></g>"     "     <path d="M3 14h5v6H3z" fill="#5ff030" stroke="#2f7818"/>"     <path d="M3 98h13v2H3z" fill="#61f030" stroke="#307818"/>"     <path d="M3 338h10v3H3z" fill="#63f030" stroke="#317818"/>"     <path d="M3 382h10v3H3z" fill="#64f030" stroke="#327818"/>"     <path d="M3 497h10v3H3z" fill="#66f030" stroke="#337818"/>"     <path d="M4 180h21v1H4z" fill="#68f030" stroke="#347818"/>"     <g stroke="#357818"><path d="M4 213h21v1H4z" fill="#6af030"/><path d="M6 415h21v1H6z" fill="#6bf030"/></g>"     "     <path d="M7 457h10v3H7z" fill="#6df030" stroke="#367818"/>"     <path d="M7 36h10v3H7z" fill="#6ff030" stroke="#377818"/>"     <path d="M8 313h21v1H8z" fill="#70f030" stroke="#387818"/>"     <path d="M8 257h14v2H8z" fill="#72f030" stroke="#397818"/>"     <path d="M9 401h8v4H9z" fill="#74f030" stroke="#3a7818"/>"     <g stroke="#3b7818"><path d="M14 266h14v2H14z" fill="#76f030"/><path d="M3 89h14v2H3z" fill="#77f030"/></g>"     "     <path d="M3 229h8v4H3z" fill="#79f030" stroke="#3c7818"/>"     <path d="M3 193h14v2H3z" fill="#7bf030" stroke="#3d7818"/>"     <path d="M3 443h22v1H3z" fill="#7df030" stroke="#3e7818"/>"     <path d="M4 132h22v1H4z" fill="#7ef030" stroke="#3f7818"/>"     <path d="M4 151h22v1H4z" fill="#80f030" stroke="#407818"/>"     <g stroke="#417818"><path d="M4 167h22v1H4z" fill="#82f030"/><path d="M5 306h23v1H5z" fill="#83f030"/></g>"     "     <path d="M5 321h11v3H5z" fill="#85f030" stroke="#427818"/>"     <path d="M9 14h7v5H9z" fill="#87f030" stroke="#437818"/>"     <path d="M9 77h7v5H9z" fill="#89f030" stroke="#447818"/>"     <path d="M11 120h23v1H11z" fill="#8af030" stroke="#457818"/>"     <path d="M13 238h23v1H13z" fill="#8cf030" stroke="#467818"/>"     <path d="M3 481h23v1H3z" fill="#8ef030" stroke="#477818"/>"     <g stroke="#487818"><path d="M4 28h11v3H4z" fill="#90f030"/><path d="M4 280h7v5H4z" fill="#91f030"/></g>"     "     <path d="M4 182h15v2H4z" fill="#93f030" stroke="#497818"/>"     <path d="M4 215h15v2H4z" fill="#95f030" stroke="#4a7818"/>"     <path d="M5 207h23v1H5z" fill="#96f030" stroke="#4b7818"/>"     <path d="M5 374h11v3H5z" fill="#98f030" stroke="#4c7818"/>"     <path d="M6 354h15v2H6z" fill="#9af030" stroke="#4d7818"/>"     <g stroke="#4e7818"><path d="M6 390h23v1H6z" fill="#9cf030"/><path d="M6 426h11v3H6z" fill="#9df030"/></g>"     "     <path d="M6 417h7v5H6z" fill="#9ff030" stroke="#4f7818"/>"     <path d="M8 161h7v5H8z" fill="#a1f030" stroke="#507818"/>"     <path d="M8 315h9v4H8z" fill="#a2f030" stroke="#517818"/>"     <path d="M9 223h9v4H9z" fill="#a4f030" stroke="#527818"/>"     <path d="M9 332h9v4H9z" fill="#a6f030" stroke="#537818"/>"     <g stroke="#547818"><path d="M12 280h9v4h-9z" fill="#a8f030"/><path d="M14 417h9v4h-9z" fill="#a9f030"/></g>"     "     <path d="M16 161h24v1H16z" fill="#abf030" stroke="#557818"/>"     <path d="M17 14h16v2H17z" fill="#adf030" stroke="#567818"/>"     <path d="M17 77h12v3H17z" fill="#aff030" stroke="#577818"/>"     <path d="M30 75h12v3H30z" fill="#b0f030" stroke="#587818"/>"     <path d="M1 508h12v3H1z" fill="#b2f030" stroke="#597818"/>"     <g stroke="#5a7818"><path d="M3 46h12v3H3z" fill="#b4f030"/><path d="M3 113h26v1H3z" fill="#b5f030"/></g>"     "     <path d="M3 101h26v1H3z" fill="#b7f030" stroke="#5b7818"/>"     <path d="M3 445h17v2H3z" fill="#b9f030" stroke="#5c7818"/>"     <path d="M4 134h26v1H4z" fill="#bbf030" stroke="#5d7818"/>"     <path d="M4 153h10v4H4z" fill="#bcf030" stroke="#5e7818"/>"     <path d="M4 169h13v3H4z" fill="#bef030" stroke="#5f7818"/>"     <path d="M5 142h27v1H5z" fill="#c0f030" stroke="#607818"/>"     <g stroke="#617818"><path d="M5 84h27v1H5z" fill="#c2f030"/><path d="M5 308h27v1H5z" fill="#c3f030"/></g>"     "     <path d="M7 349h13v3H7z" fill="#c5f030" stroke="#627818"/>"     <path d="M7 450h13v3H7z" fill="#c7f030" stroke="#637818"/>"     <path d="M7 127h13v3H7z" fill="#c8f030" stroke="#647818"/>"     <path d="M8 260h13v3H8z" fill="#caf030" stroke="#657818"/>"     <path d="M11 291h13v3H11z" fill="#ccf030" stroke="#667818"/>"     <g stroke="#677818"><path d="M11 122h13v3H11z" fill="#cef030"/><path d="M12 364h27v1H12z" fill="#cff030"/></g>"     "     <path d="M12 229h27v1H12z" fill="#d1f030" stroke="#687818"/>"     <path d="M13 369h18v2H13z" fill="#d3f030" stroke="#697818"/>"     <path d="M13 240h18v2H13z" fill="#d4f030" stroke="#6a7818"/>"     <path d="M14 269h18v2H14z" fill="#d6f030" stroke="#6b7818"/>"     <path d="M15 153h18v2H15z" fill="#d8f030" stroke="#6c7818"/>"     <g stroke="#6d7818"><path d="M18 401h18v2H18z" fill="#daf030"/><path d="M18 315h28v1H18z" fill="#dbf030"/></g>"     "     <path d="M19 223h28v1H19z" fill="#ddf030" stroke="#6e7818"/>"     <path d="M19 332h11v4H19z" fill="#dff030" stroke="#6f7818"/>"     <path d="M22 280h19v2H22z" fill="#e1f030" stroke="#707818"/>"     <path d="M23 255h11v4H23z" fill="#e2f030" stroke="#717818"/>"     <path d="M24 417h19v2H24z" fill="#e4f030" stroke="#727818"/>"     <g stroke="#737818"><path d="M31 332h11v4H31z" fill="#e6f030"/><path d="M35 255h19v2H35z" fill="#e7f030"/></g>"     "     <path d="M43 332h19v2H43z" fill="#e9f030" stroke="#747818"/>"     <path d="M3 24h14v3H3z" fill="#ebf030" stroke="#757818"/>"     <path d="M3 247h14v3H3z" fill="#edf030" stroke="#767818"/>"     <path d="M3 296h19v2H3z" fill="#eef030" stroke="#777818"/>"     <path d="M3 342h19v2H3z" fill="#f0f030" stroke="#787818"/>"     <path d="M3 386h14v3H3z" fill="#f0f032" stroke="#787819"/>"     <g stroke="#78781a"><path d="M3 501h30v1H3z" fill="#f0f034"/><path d="M3 92h30v1H3z" fill="#f0f035"/></g>"     "     <path d="M3 196h20v2H3z" fill="#f0f037" stroke="#78781b"/>"     <path d="M3 483h20v2H3z" fill="#f0f039" stroke="#78781c"/>"     <path d="M4 3h20v2H4z" fill="#f0f03a" stroke="#78781d"/>"     <path d="M4 65h15v3H4z" fill="#f0f03c" stroke="#78781e"/>"     <path d="M5 209h15v3H5z" fill="#f0f03e" stroke="#78781f"/>"     <g stroke="#787820"><path d="M6 147h15v3H6z" fill="#f0f040"/><path d="M6 392h21v2H6z" fill="#f0f041"/></g>"     "     <path d="M7 61h21v2H7z" fill="#f0f043" stroke="#787821"/>"     <path d="M7 200h21v2H7z" fill="#f0f045" stroke="#787822"/>"     <path d="M7 461h21v2H7z" fill="#f0f046" stroke="#787823"/>"     <path d="M7 40h21v2H7z" fill="#f0f048" stroke="#787824"/>"     <path d="M8 69h21v2H8z" fill="#f0f04a" stroke="#787825"/>"     <g stroke="#787826"><path d="M8 302h21v2H8z" fill="#f0f04c"/><path d="M8 328h16v3H8z" fill="#f0f04d"/></g>"     "     <path d="M11 360h22v2H11z" fill="#f0f04f" stroke="#787827"/>"     <path d="M11 465h22v2H11z" fill="#f0f051" stroke="#787828"/>"     <path d="M12 174h17v3H12z" fill="#f0f053" stroke="#787829"/>"     <path d="M12 491h17v3H12z" fill="#f0f054" stroke="#78782a"/>"     <path d="M13 109h23v2H13z" fill="#f0f056" stroke="#78782b"/>"     <g stroke="#78782c"><path d="M14 338h23v2H14z" fill="#f0f058"/><path d="M14 382h17v3H14z" fill="#f0f059"/></g>"     "     <path d="M14 497h17v3H14z" fill="#f0f05b" stroke="#78782d"/>"     <path d="M14 508h23v2H14z" fill="#f0f05d" stroke="#78782e"/>"     <path d="M16 28h23v2H16z" fill="#f0f05f" stroke="#78782f"/>"     <path d="M16 46h24v2H16z" fill="#f0f060" stroke="#787830"/>"     <path d="M16 411h24v2H16z" fill="#f0f062" stroke="#787831"/>"     <path d="M16 163h24v2H16z" fill="#f0f064" stroke="#787832"/>"     <g stroke="#787833"><path d="M41 161h12v4H41z" fill="#f0f066"/><path d="M54 161h12v4H54z" fill="#f0f067"/></g>"     "     <path d="M67 161h13v4H67z" fill="#f0f069" stroke="#787834"/>"     <path d="M81 161h13v4H81z" fill="#f0f06b" stroke="#787835"/>"     <path d="M95 161h13v4H95z" fill="#f0f06c" stroke="#787836"/>"     <path d="M109 161h13v4h-13z" fill="#f0f06e" stroke="#787837"/>"     <path d="M123 161h14v4h-14z" fill="#f0f070" stroke="#787838"/>"     <g stroke="#787839"><path d="M138 161h24v2h-24z" fill="#f0f072"/><path d="M17 321h24v2H17z" fill="#f0f073"/></g>"     "     <path d="M17 374h18v3H17z" fill="#f0f075" stroke="#78783a"/>"     <path d="M18 24h18v3H18z" fill="#f0f077" stroke="#78783b"/>"     <path d="M18 426h18v3H18z" fill="#f0f079" stroke="#78783c"/>"     <path d="M18 457h18v3H18z" fill="#f0f07a" stroke="#78783d"/>"     <path d="M18 247h18v3H18z" fill="#f0f07c" stroke="#78783e"/>"     <g stroke="#78783f"><path d="M18 36h18v3H18z" fill="#f0f07e"/><path d="M18 386h25v2H18z" fill="#f0f07f"/></g>"     "     <path d="M18 169h25v2H18z" fill="#f0f081" stroke="#787840"/>"     <path d="M20 65h19v3H20z" fill="#f0f083" stroke="#787841"/>"     <path d="M21 349h19v3H21z" fill="#f0f085" stroke="#787842"/>"     <path d="M21 450h26v2H21z" fill="#f0f086" stroke="#787843"/>"     <path d="M21 127h26v2H21z" fill="#f0f088" stroke="#787844"/>"     <g stroke="#787845"><path d="M21 209h20v3H21z" fill="#f0f08a"/><path d="M22 147h27v2H22z" fill="#f0f08b"/></g>"     "     <path d="M22 260h20v3H22z" fill="#f0f08d" stroke="#787846"/>"     <path d="M25 328h20v3H25z" fill="#f0f08f" stroke="#787847"/>"     <path d="M25 291h20v3H25z" fill="#f0f091" stroke="#787848"/>"     <path d="M25 122h20v3H25z" fill="#f0f092" stroke="#787849"/>"     <path d="M30 174h27v2H30z" fill="#f0f094" stroke="#78784a"/>"     <path d="M30 491h28v2H30z" fill="#f0f096" stroke="#78784b"/>"     <g stroke="#78784c"><path d="M32 382h28v2H32z" fill="#f0f098"/><path d="M32 497h28v2H32z" fill="#f0f099"/></g>"     "     <path d="M36 374h28v2H36z" fill="#f0f09b" stroke="#78784d"/>"     <path d="M37 24h21v3H37z" fill="#f0f09d" stroke="#78784e"/>"     <path d="M37 426h21v3H37z" fill="#f0f09e" stroke="#78784f"/>"     <path d="M37 457h29v2H37z" fill="#f0f0a0" stroke="#787850"/>"     <path d="M37 247h22v3H37z" fill="#f0f0a2" stroke="#787851"/>"     <g stroke="#787852"><path d="M37 36h22v3H37z" fill="#f0f0a4"/><path d="M40 65h22v3H40z" fill="#f0f0a5"/></g>"     "     <path d="M41 349h30v2H41z" fill="#f0f0a7" stroke="#787853"/>"     <path d="M42 209h30v2H42z" fill="#f0f0a9" stroke="#787854"/>"     <path d="M43 75h30v2H43z" fill="#f0f0ab" stroke="#787855"/>"     <path d="M43 260h30v2H43z" fill="#f0f0ac" stroke="#787856"/>"     <path d="M46 328h23v3H46z" fill="#f0f0ae" stroke="#787857"/>"     <g stroke="#787858"><path d="M46 291h23v3H46z" fill="#f0f0b0"/><path d="M46 122h23v3H46z" fill="#f0f0b1"/></g>"     "     <path d="M59 24h24v3H59z" fill="#f0f0b3" stroke="#787859"/>"     <path d="M59 426h24v3H59z" fill="#f0f0b5" stroke="#78785a"/>"     <path d="M60 247h24v3H60z" fill="#f0f0b7" stroke="#78785b"/>"     <path d="M60 36h25v3H60z" fill="#f0f0b8" stroke="#78785c"/>"     <path d="M63 65h25v3H63z" fill="#f0f0ba" stroke="#78785d"/>"     <g stroke="#78785e"><path d="M70 328h25v3H70z" fill="#f0f0bc"/><path d="M70 291h25v3H70z" fill="#f0f0bd"/></g>"     "     <path d="M70 122h25v3H70z" fill="#f0f0bf" stroke="#78785f"/>"     <path d="M84 24h26v3H84z" fill="#f0f0c1" stroke="#787860"/>"     <path d="M84 426h26v3H84z" fill="#f0f0c3" stroke="#787861"/>"     <path d="M85 247h26v3H85z" fill="#f0f0c4" stroke="#787862"/>"     <path d="M86 36h26v3H86z" fill="#f0f0c6" stroke="#787863"/>"     <path d="M89 65h26v3H89z" fill="#f0f0c8" stroke="#787864"/>"     <g stroke="#787865"><path d="M96 328h27v3H96z" fill="#f0f0ca"/><path d="M96 291h27v3H96z" fill="#f0f0cb"/></g>"     "     <path d="M96 122h27v3H96z" fill="#f0f0cd" stroke="#787866"/>"     <path d="M111 24h27v3h-27z" fill="#f0f0cf" stroke="#787867"/>"     <path d="M111 426h27v3h-27z" fill="#f0f0d0" stroke="#787868"/>"     <path d="M112 247h27v3h-27z" fill="#f0f0d2" stroke="#787869"/>"     <path d="M113 36h28v3h-28z" fill="#f0f0d4" stroke="#78786a"/>"     <g stroke="#78786b"><path d="M116 65h28v3h-28z" fill="#f0f0d6"/><path d="M124 328h28v3h-28z" fill="#f0f0d7"/></g>"     "     <path d="M124 291h28v3h-28z" fill="#f0f0d9" stroke="#78786c"/>"     <path d="M124 122h28v3h-28z" fill="#f0f0db" stroke="#78786d"/>"     <path d="M139 24h29v3h-29z" fill="#f0f0dd" stroke="#78786e"/>"     <path d="M139 426h29v3h-29z" fill="#f0f0de" stroke="#78786f"/>"     <path d="M140 247h29v3h-29z" fill="#f0f0e0" stroke="#787870"/>"     <g stroke="#787871"><path d="M142 36h29v3h-29z" fill="#f0f0e2"/><path d="M145 65h30v3h-30z" fill="#f0f0e3"/></g>"     "     <path d="M153 328h30v3h-30z" fill="#f0f0e5" stroke="#787872"/>"     <path d="M153 291h30v3h-30z" fill="#f0f0e7" stroke="#787873"/>"     <path d="M153 122h30v3h-30z" fill="#f0f0e9" stroke="#787874"/>"     <path d="M169 24h30v3h-30z" fill="#f0f0ea" stroke="#787875"/>"     <path d="M169 426h30v3h-30z" fill="#f0f0ec" stroke="#787876"/>"     <path d="M170 247h30v3h-30z" fill="#f0f0ee" stroke="#787877"/>"     <text y="526" font-size="12" fill="#000" x="0"> MaxRectsBin(size: 1024x512, choice: WorstAreaFit, method: LongerLeftoverAxis): inserted 334 of 1536 rectangles with w/h lengths between [2, 31], occupancy: 3.38% </text></svg>