<svg xmlns="http://www.w3.org/2000/svg" viewBox="0 0 1024 536" xmlns:v="https://vecta.io/nano"><path d="M0 0h1024v512H0z" fill="#fff" stroke="#000"/>"     <path d="M1 1h30v19H1zm31 0h30v14H32zm31 0h30v14H63z" fill="#303030" stroke="#181818"/>"     "     "     <path d="M94 1h30v2H94zm31 0h30v2h-30z" stroke="#181818" fill="#303130"/>"     "     <path d="M156 1h30v2h-30zm31 0h30v1h-30zm31 0h28v1h-28z" fill="#303230" stroke="#181918"/>"     "     "     <path d="M247 1h28v1h-28zm29 0h27v1h-27z" stroke="#181918" fill="#303330"/>"     "     <path d="M304 1h27v1h-27zm28 0h27v1h-27zm28 0h27v1h-27z" fill="#303430" stroke="#181a18"/>"     "     "     <path d="M388 1h23v1h-23zm24 0h23v1h-23z" stroke="#181a18" fill="#303530"/>"     "     <path d="M436 1h23v1h-23zm24 0h22v1h-22z" fill="#303630" stroke="#181b18"/>"     "     <path d="M483 1h22v1h-22zm23 0h21v1h-21zm22 0h20v1h-20z" stroke="#181b18" fill="#303730"/>"     "     "     <path d="M549 1h19v1h-19zm20 0h19v1h-19z" fill="#303830" stroke="#181c18"/>"     "     <path d="M589 1h19v1h-19zm20 0h19v1h-19zm20 0h18v1h-18z" stroke="#181c18" fill="#303930"/>"     "     "     <path d="M648 1h17v1h-17zm18 0h16v1h-16z" fill="#303a30" stroke="#181d18"/>"     "     <path d="M683 1h15v1h-15zm16 0h15v1h-15z" stroke="#181d18" fill="#303b30"/>"     "     <path d="M715 1h14v1h-14zm15 0h13v1h-13zm14 0h12v1h-12z" fill="#303c30" stroke="#181e18"/>"     "     "     <path d="M757 1h12v1h-12zm13 0h12v1h-12z" stroke="#181e18" fill="#303d30"/>"     "     <path d="M783 1h12v1h-12zm13 0h12v1h-12zm13 0h12v1h-12z" fill="#303e30" stroke="#181f18"/>"     "     "     <path d="M822 1h11v1h-11zm12 0h11v1h-11z" stroke="#181f18" fill="#303f30"/>"     "     <path d="M846 1h10v1h-10zm11 0h10v1h-10z" fill="#304030" stroke="#182018"/>"     "     <path d="M868 1h7v1h-7zm8 0h6v1h-6zm7 0h6v1h-6z" stroke="#182018" fill="#304130"/>"     "     "     <path d="M890 1h5v1h-5zm6 0h5v1h-5z" fill="#304230" stroke="#182118"/>"     "     <path d="M902 1h5v1h-5zm6 0h5v1h-5zm6 0h4v1h-4z" stroke="#182118" fill="#304330"/>"     "     "     <path d="M919 1h3v1h-3zm4 0h3v1h-3z" fill="#304430" stroke="#182218"/>"     "     <path d="M927 1h2v1h-2zm3 0h2v1h-2z" stroke="#182218" fill="#304530"/>"     "     <path d="M933 1h2v1h-2zm3 0h13v1h-13zm14 0h15v1h-15z" fill="#304630" stroke="#182318"/>"     "     "     <path d="M966 1h7v1h-7zm8 0h15v1h-15z" stroke="#182318" fill="#304730"/>"     "     <path d="M990 1h12v1h-12zm13 0h21v1h-21zM94 4h30v6H94z" fill="#304830" stroke="#182418"/>"     "     "     <path d="M125 4h30v4h-30zm31 0h30v3h-30z" stroke="#182418" fill="#304930"/>"     "     <path d="M187 3h30v3h-30zm31 0h30v3h-30z" fill="#304a30" stroke="#182518"/>"     "     <path d="M249 3h30v3h-30zm31 0h29v3h-29zm30 0h29v3h-29z" stroke="#182518" fill="#304b30"/>"     "     "     <path d="M340 3h29v2h-29zm30 0h28v2h-28z" fill="#304c30" stroke="#182618"/>"     "     <path d="M399 3h28v2h-28zm29 0h27v2h-27zm28 0h26v2h-26z" stroke="#182618" fill="#304d30"/>"     "     "     <path d="M483 3h26v2h-26zm27 0h25v2h-25z" fill="#304e30" stroke="#182718"/>"     "     <path d="M536 3h24v2h-24zm25 0h24v2h-24z" stroke="#182718" fill="#304f30"/>"     "     <path d="M586 3h23v2h-23zm24 0h21v2h-21zm22 0h21v2h-21z" fill="#305030" stroke="#182818"/>"     "     "     <path d="M654 3h21v2h-21zm22 0h21v2h-21z" stroke="#182818" fill="#305130"/>"     "     <path d="M698 3h20v2h-20zm21 0h19v2h-19zm20 0h19v2h-19z" fill="#305230" stroke="#182918"/>"     "     "     <path d="M759 3h19v2h-19zm20 0h19v2h-19z" stroke="#182918" fill="#305330"/>"     "     <path d="M799 3h19v2h-19zm20 0h18v2h-18z" fill="#305430" stroke="#182a18"/>"     "     <path d="M838 3h18v2h-18zm19 0h18v2h-18zm19 0h18v2h-18z" stroke="#182a18" fill="#305530"/>"     "     "     <path d="M895 3h17v2h-17zm18 0h16v2h-16z" fill="#305630" stroke="#182b18"/>"     "     <path d="M930 3h15v2h-15zm16 0h14v2h-14zm15 0h14v2h-14z" stroke="#182b18" fill="#305730"/>"     "     "     <path d="M976 3h13v2h-13zm14 0h13v2h-13z" fill="#305830" stroke="#182c18"/>"     "     <path d="M1004 3h20v2h-20zM125 9h23v1h-23z" stroke="#182c18" fill="#305930"/>"     "     <path d="M149 9h22v1h-22zm23 0h23v1h-23zm24 0h27v1h-27z" fill="#305a30" stroke="#182d18"/>"     "     "     <path d="M224 9h3v1h-3zm4 0h17v1h-17z" stroke="#182d18" fill="#305b30"/>"     "     <path d="M246 9h30v1h-30zm31 0h17v1h-17zm18 0h14v1h-14z" fill="#305c30" stroke="#182e18"/>"     "     "     <path d="M310 9h12v1h-12zm13 0h14v1h-14z" stroke="#182e18" fill="#305d30"/>"     "     <path d="M338 9h19v1h-19zm20 0h20v1h-20z" fill="#305e30" stroke="#182f18"/>"     "     <path d="M379 9h4v1h-4zm5 0h21v1h-21zm22 0h16v1h-16z" stroke="#182f18" fill="#305f30"/>"     "     "     <path d="M423 9h21v1h-21zm22 0h19v1h-19z" fill="#306030" stroke="#183018"/>"     "     <path d="M465 9h8v1h-8zm9 0h12v1h-12zm13 0h19v1h-19z" stroke="#183018" fill="#306130"/>"     "     "     <path d="M507 9h14v1h-14zm15 0h4v1h-4z" fill="#306230" stroke="#183118"/>"     "     <path d="M527 9h15v1h-15zm16 0h11v1h-11z" stroke="#183118" fill="#306330"/>"     "     <path d="M555 9h15v1h-15zm16 0h3v1h-3zm4 0h24v1h-24z" fill="#306430" stroke="#183218"/>"     "     "     <path d="M600 9h15v1h-15zm16 0h1v1h-1z" stroke="#183218" fill="#306530"/>"     "     <path d="M618 9h13v1h-13zm14 0h3v1h-3zm4 0h26v1h-26z" fill="#306630" stroke="#183318"/>"     "     "     <path d="M663 9h23v1h-23zm24 0h22v1h-22z" stroke="#183318" fill="#306730"/>"     "     <path d="M710 9h26v1h-26zm27 0h2v1h-2z" fill="#306830" stroke="#183418"/>"     "     <path d="M740 9h14v1h-14zm15 0h4v1h-4zm5 0h7v1h-7z" stroke="#183418" fill="#306930"/>"     "     "     <path d="M768 9h26v1h-26zm27 0h7v1h-7z" fill="#306a30" stroke="#183518"/>"     "     <path d="M803 9h6v1h-6zM94 11h30v4H94zm31 0h29v4h-29z" stroke="#183518" fill="#306b30"/>"     "     "     <path d="M155 11h29v4h-29zm30 0h28v3h-28z" fill="#306c30" stroke="#183618"/>"     "     <path d="M214 11h28v3h-28zm29 0h27v3h-27z" stroke="#183618" fill="#306d30"/>"     "     <path d="M271 11h27v3h-27zm28 0h25v3h-25zm26 0h25v3h-25z" fill="#306e30" stroke="#183718"/>"     "     "     <path d="M351 11h25v3h-25zm26 0h24v3h-24z" stroke="#183718" fill="#306f30"/>"     "     <path d="M402 11h23v3h-23zm24 0h23v3h-23zm24 0h22v3h-22z" fill="#307030" stroke="#183818"/>"     "     "     <path d="M473 11h21v3h-21zm22 0h20v3h-20z" stroke="#183818" fill="#307130"/>"     "     <path d="M516 11h20v3h-20zm21 0h20v3h-20z" fill="#307230" stroke="#183918"/>"     "     <path d="M558 11h18v3h-18zm19 0h18v3h-18zm19 0h18v3h-18z" stroke="#183918" fill="#307330"/>"     "     "     <path d="M615 11h17v3h-17zm18 0h17v3h-17z" fill="#307430" stroke="#183a18"/>"     "     <path d="M651 11h15v3h-15zm16 0h14v3h-14zm15 0h13v2h-13z" stroke="#183a18" fill="#307530"/>"     "     "     <path d="M696 11h12v2h-12zm13 0h12v2h-12z" fill="#307630" stroke="#183b18"/>"     "     <path d="M722 11h11v2h-11zm12 0h10v2h-10z" stroke="#183b18" fill="#307730"/>"     "     <path d="M745 11h9v2h-9zm10 0h9v2h-9zm10 0h9v2h-9z" fill="#307830" stroke="#183c18"/>"     "     "     <path d="M775 11h8v2h-8zm9 0h7v2h-7z" stroke="#183c18" fill="#307930"/>"     "     <path d="M792 11h6v2h-6zm7 0h6v2h-6zm7 0h6v2h-6z" fill="#307a30" stroke="#183d18"/>"     "     "     <path d="M813 11h5v2h-5zm6 0h5v2h-5z" stroke="#183d18" fill="#307b30"/>"     "     <path d="M825 11h5v2h-5zm6 0h3v2h-3zm4 0h3v2h-3z" fill="#307c30" stroke="#183e18"/>"     "     "     <path d="M839 11h28v2h-28zm29 0h14v2h-14z" stroke="#183e18" fill="#307d30"/>"     "     <path d="M883 11h28v2h-28zm29 0h18v2h-18z" fill="#307e30" stroke="#183f18"/>"     "     <path d="M931 11h12v2h-12zm13 0h21v2h-21zm22 0h6v2h-6z" stroke="#183f18" fill="#307f30"/>"     "     "     <path d="M973 11h6v2h-6zm7 0h24v2h-24z" fill="#308030" stroke="#184018"/>"     "     <path d="M1005 11h19v2h-19zM32 16h26v4H32zm27 0h26v4H59z" stroke="#184018" fill="#308130"/>"     "     "     <path d="M86 16h24v4H86zm25 0h23v4h-23z" fill="#308230" stroke="#184118"/>"     "     <path d="M135 16h22v4h-22zm23 0h22v4h-22z" stroke="#184118" fill="#308330"/>"     "     <path d="M181 16h22v4h-22zm23 0h22v4h-22zm23 0h22v4h-22z" fill="#308430" stroke="#184218"/>"     "     "     <path d="M250 16h22v4h-22zm23 0h21v4h-21z" stroke="#184218" fill="#308530"/>"     "     <path d="M295 16h19v4h-19zm20 0h19v4h-19zm20 0h16v4h-16z" fill="#308630" stroke="#184318"/>"     "     "     <path d="M352 16h16v4h-16zm17 0h16v4h-16z" stroke="#184318" fill="#308730"/>"     "     <path d="M386 16h15v4h-15zm16 0h15v4h-15z" fill="#308830" stroke="#184418"/>"     "     <path d="M418 16h14v4h-14zm15 0h13v4h-13zm14 0h13v3h-13z" stroke="#184418" fill="#308930"/>"     "     "     <path d="M461 16h13v3h-13zm14 0h13v3h-13z" fill="#308a30" stroke="#184518"/>"     "     <path d="M489 16h12v3h-12zm13 0h12v3h-12zm13 0h11v3h-11z" stroke="#184518" fill="#308b30"/>"     "     "     <path d="M527 16h11v3h-11zm12 0h9v3h-9z" fill="#308c30" stroke="#184618"/>"     "     <path d="M549 16h9v3h-9zm10 0h8v3h-8z" stroke="#184618" fill="#308d30"/>"     "     <path d="M568 16h7v3h-7zm8 0h7v3h-7zm8 0h6v3h-6z" fill="#308e30" stroke="#184718"/>"     "     "     <path d="M591 16h6v3h-6zm7 0h6v3h-6z" stroke="#184718" fill="#308f30"/>"     "     <path d="M605 16h6v3h-6zm7 0h5v3h-5zm6 0h4v3h-4z" fill="#309030" stroke="#184818"/>"     "     "     <path d="M623 16h17v3h-17zm18 0h18v3h-18z" stroke="#184818" fill="#309130"/>"     "     <path d="M660 16h18v3h-18zm19 0h10v3h-10z" fill="#309230" stroke="#184918"/>"     "     <path d="M690 16h13v3h-13zm14 0h28v3h-28zm29 0h8v3h-8z" stroke="#184918" fill="#309330"/>"     "     "     <path d="M742 16h26v3h-26zm27 0h30v3h-30z" fill="#309430" stroke="#184a18"/>"     "     <path d="M800 16h30v3h-30zm31 0h10v3h-10zm11 0h25v3h-25z" stroke="#184a18" fill="#309530"/>"     "     "     <path d="M868 16h25v3h-25zm26 0h24v3h-24z" fill="#309630" stroke="#184b18"/>"     "     <path d="M919 16h26v3h-26zm27 0h27v3h-27z" stroke="#184b18" fill="#309730"/>"     "     <path d="M974 16h16v3h-16zm17 0h17v3h-17zm18 0h15v3h-15z" fill="#309830" stroke="#184c18"/>"     "     "     <path d="M1 21h30v13H1zm0 14h7v30H1z" stroke="#184c18" fill="#309930"/>"     "     <path d="M1 66h7v30H1zm0 31h5v30H1zm0 31h4v30H1z" fill="#309a30" stroke="#184d18"/>"     "     "     <path d="M1 159h2v30H1zm0 31h2v27H1z" stroke="#184d18" fill="#309b30"/>"     "     <path d="M1 218h2v25H1zm0 26h2v24H1z" fill="#309c30" stroke="#184e18"/>"     "     <path d="M1 269h2v24H1zm0 25h2v23H1zm0 24h2v23H1z" stroke="#184e18" fill="#309d30"/>"     "     "     <path d="M1 342h2v23H1zm0 24h2v22H1z" fill="#309e30" stroke="#184f18"/>"     "     <path d="M1 389h2v22H1zm0 23h2v21H1zm0 22h2v21H1z" stroke="#184f18" fill="#309f30"/>"     "     "     <path d="M1 456h2v20H1zm0 21h2v15H1z" fill="#30a030" stroke="#185018"/>"     "     <path d="M1 493h2v15H1zm0 16h2v3H1z" stroke="#185018" fill="#30a130"/>"     "     <path d="M9 35h18v30H9zm0 31h16v30H9zM7 97h15v30H7z" fill="#30a230" stroke="#185118"/>"     "     "     <path d="M6 128h13v30H6zm-2 31h12v30H4z" stroke="#185118" fill="#30a330"/>"     "     <path d="M4 190h7v30H4zm0 31h5v30H4zm0 31h3v30H4z" fill="#30a430" stroke="#185218"/>"     "     "     <path d="M4 283h3v29H4zm0 30h3v29H4z" stroke="#185218" fill="#30a530"/>"     "     <path d="M4 343h3v28H4zm0 29h3v28H4z" fill="#30a630" stroke="#185318"/>"     "     <path d="M4 401h3v27H4zm0 28h3v27H4zm0 28h3v27H4z" stroke="#185318" fill="#30a730"/>"     "     "     <path d="M4 485h3v26H4zm8-295h4v29h-4z" fill="#30a830" stroke="#185418"/>"     "     <path d="M12 220h4v28h-4zm0 29h4v28h-4zm0 29h4v27h-4z" stroke="#185418" fill="#30a930"/>"     "     "     <path d="M12 306h4v26h-4zm0 27h3v26h-3z" fill="#30aa30" stroke="#185518"/>"     "     <path d="M12 360h3v26h-3zm0 27h3v24h-3z" stroke="#185518" fill="#30ab30"/>"     "     <path d="M12 412h3v23h-3zm0 24h3v22h-3zm0 23h3v22h-3z" fill="#30ac30" stroke="#185618"/>"     "     "     <path d="M12 482h3v21h-3zm0 22h3v8h-3z" stroke="#185618" fill="#30ad30"/>"     "     <path d="M17 159h2v14h-2zm0 15h2v13h-2zm0 14h2v13h-2z" fill="#30ae30" stroke="#185718"/>"     "     "     <path d="M17 202h2v11h-2zm0 12h2v10h-2z" stroke="#185718" fill="#30af30"/>"     "     <path d="M17 225h2v9h-2zm0 10h2v8h-2z" fill="#30b030" stroke="#185818"/>"     "     <path d="M17 244h2v7h-2zm0 8h2v7h-2zm0 8h2v5h-2z" stroke="#185818" fill="#30b130"/>"     "     "     <path d="M17 266h2v5h-2zm0 6h2v5h-2z" fill="#30b230" stroke="#185918"/>"     "     <path d="M17 278h2v2h-2zm0 3h2v2h-2zM28 35h3v20h-3z" stroke="#185918" fill="#30b330"/>"     "     "     <path d="M28 56h3v20h-3zm0 21h3v19h-3z" fill="#30b430" stroke="#185a18"/>"     "     <path d="M28 97h3v19h-3zm0 20h3v18h-3z" stroke="#185a18" fill="#30b530"/>"     "     <path d="M28 136h3v15h-3zm0 16h3v14h-3zm0 15h3v14h-3z" fill="#30b630" stroke="#185b18"/>"     "     "     <path d="M28 182h3v13h-3zm0 14h3v13h-3z" stroke="#185b18" fill="#30b730"/>"     "     <path d="M28 210h3v13h-3zm0 14h3v12h-3zm0 13h3v12h-3z" fill="#30b830" stroke="#185c18"/>"     "     "     <path d="M28 250h3v11h-3zm0 12h3v11h-3z" stroke="#185c18" fill="#30b930"/>"     "     <path d="M28 274h3v10h-3zm0 11h3v10h-3z" fill="#30ba30" stroke="#185d18"/>"     "     <path d="M28 296h3v10h-3zm0 11h3v9h-3zm0 10h3v8h-3z" stroke="#185d18" fill="#30bb30"/>"     "     "     <path d="M28 326h3v7h-3zm0 8h3v6h-3z" fill="#30bc30" stroke="#185e18"/>"     "     <path d="M28 341h3v6h-3zm0 7h3v5h-3zm0 6h3v4h-3z" stroke="#185e18" fill="#30bd30"/>"     "     "     <path d="M32 21h30v26H32zm31 0h30v13H63z" fill="#30be30" stroke="#185f18"/>"     "     <path d="M94 21h30v5H94zm31 0h29v5h-29z" stroke="#185f18" fill="#30bf30"/>"     "     <path d="M155 21h29v5h-29zm30 0h29v5h-29zm30 0h28v5h-28z" fill="#30c030" stroke="#186018"/>"     "     "     <path d="M244 21h28v5h-28zm29 0h28v5h-28z" stroke="#186018" fill="#30c130"/>"     "     <path d="M302 21h28v5h-28zm29 0h26v5h-26zm27 0h25v5h-25z" fill="#30c230" stroke="#186118"/>"     "     "     <path d="M384 21h24v5h-24zm25 0h23v5h-23z" stroke="#186118" fill="#30c330"/>"     "     <path d="M433 21h23v5h-23zm24 0h22v5h-22zm23 0h22v5h-22z" fill="#30c430" stroke="#186218"/>"     "     "     <path d="M503 21h22v5h-22zm23 0h21v5h-21z" stroke="#186218" fill="#30c530"/>"     "     <path d="M548 21h21v5h-21zm22 0h20v5h-20z" fill="#30c630" stroke="#186318"/>"     "     <path d="M591 21h19v5h-19zm20 0h16v5h-16zm17 0h15v5h-15z" stroke="#186318" fill="#30c730"/>"     "     "     <path d="M644 21h15v5h-15zm16 0h15v5h-15z" fill="#30c830" stroke="#186418"/>"     "     <path d="M676 21h14v5h-14zm15 0h13v4h-13zm14 0h13v4h-13z" stroke="#186418" fill="#30c930"/>"     "     "     <path d="M719 21h11v4h-11zm12 0h11v4h-11z" fill="#30ca30" stroke="#186518"/>"     "     <path d="M743 21h10v4h-10zm11 0h9v4h-9z" stroke="#186518" fill="#30cb30"/>"     "     <path d="M764 21h9v4h-9zm10 0h8v4h-8zm9 0h7v4h-7z" fill="#30cc30" stroke="#186618"/>"     "     "     <path d="M791 21h7v4h-7zm8 0h6v4h-6z" stroke="#186618" fill="#30cd30"/>"     "     <path d="M806 21h5v4h-5zm6 0h5v4h-5zm6 0h25v4h-25z" fill="#30ce30" stroke="#186718"/>"     "     "     <path d="M844 21h9v4h-9zm10 0h8v4h-8z" stroke="#186718" fill="#30cf30"/>"     "     <path d="M863 21h5v4h-5zm6 0h22v4h-22z" fill="#30d030" stroke="#186818"/>"     "     <path d="M892 21h9v4h-9zm10 0h12v4h-12zm13 0h18v4h-18z" stroke="#186818" fill="#30d130"/>"     "     "     <path d="M934 21h17v4h-17zm18 0h11v4h-11z" fill="#30d230" stroke="#186918"/>"     "     <path d="M964 21h12v4h-12zm13 0h5v4h-5zm6 0h18v4h-18z" stroke="#186918" fill="#30d330"/>"     "     "     <path d="M1002 21h9v4h-9zm10 0h7v4h-7z" fill="#30d430" stroke="#186a18"/>"     "     <path d="M94 27h30v6H94zm31 0h30v6h-30z" stroke="#186a18" fill="#30d530"/>"     "     <path d="M156 27h29v6h-29zm30 0h27v6h-27zm28 0h27v6h-27z" fill="#30d630" stroke="#186b18"/>"     "     "     <path d="M242 27h27v6h-27zm28 0h26v6h-26z" stroke="#186b18" fill="#30d730"/>"     "     <path d="M297 27h26v6h-26zm27 0h26v6h-26zm27 0h25v6h-25z" fill="#30d830" stroke="#186c18"/>"     "     "     <path d="M377 27h25v6h-25zm26 0h25v6h-25z" stroke="#186c18" fill="#30d930"/>"     "     <path d="M429 27h24v6h-24zm25 0h24v6h-24z" fill="#30da30" stroke="#186d18"/>"     "     <path d="M479 27h24v6h-24zm25 0h22v6h-22zm23 0h22v6h-22z" stroke="#186d18" fill="#30db30"/>"     "     "     <path d="M550 27h20v6h-20zm21 0h20v6h-20z" fill="#30dc30" stroke="#186e18"/>"     "     <path d="M592 27h20v6h-20zm21 0h19v6h-19zm20 0h18v6h-18z" stroke="#186e18" fill="#30dd30"/>"     "     "     <path d="M652 27h17v6h-17zm18 0h16v6h-16z" fill="#30de30" stroke="#186f18"/>"     "     <path d="M687 27h16v6h-16zm17 0h16v6h-16z" stroke="#186f18" fill="#30df30"/>"     "     <path d="M721 27h15v6h-15zm16 0h13v6h-13zm14 0h13v6h-13z" fill="#30e030" stroke="#187018"/>"     "     "     <path d="M765 27h12v5h-12zm13 0h12v5h-12z" stroke="#187018" fill="#30e130"/>"     "     <path d="M791 27h11v5h-11zm12 0h11v5h-11zm12 0h10v5h-10z" fill="#30e230" stroke="#187118"/>"     "     "     <path d="M826 27h9v5h-9zm10 0h8v5h-8z" stroke="#187118" fill="#30e330"/>"     "     <path d="M845 27h8v5h-8zm9 0h7v5h-7z" fill="#30e430" stroke="#187218"/>"     "     <path d="M862 27h7v5h-7zm8 0h23v5h-23zm24 0h23v5h-23z" stroke="#187218" fill="#30e530"/>"     "     "     <path d="M918 27h22v5h-22zm23 0h12v5h-12z" fill="#30e630" stroke="#187318"/>"     "     <path d="M954 27h24v5h-24zm25 0h27v5h-27zm28 0h7v5h-7z" stroke="#187318" fill="#30e730"/>"     "     "     <path d="M1015 27h5v5h-5zM63 35h30v11H63z" fill="#30e830" stroke="#187418"/>"     "     <path d="M94 34h30v12H94zm31 0h30v11h-30z" stroke="#187418" fill="#30e930"/>"     "     <path d="M156 34h30v9h-30zm31 0h30v7h-30zm31 0h29v7h-29z" fill="#30ea30" stroke="#187518"/>"     "     "     <path d="M248 34h29v7h-29zm30 0h28v7h-28z" stroke="#187518" fill="#30eb30"/>"     "     <path d="M307 34h28v7h-28zm29 0h27v7h-27zm28 0h26v7h-26z" fill="#30ec30" stroke="#187618"/>"     "     "     <path d="M391 34h26v7h-26zm27 0h26v7h-26z" stroke="#187618" fill="#30ed30"/>"     "     <path d="M445 34h26v7h-26zm27 0h26v7h-26z" fill="#30ee30" stroke="#187718"/>"     "     <path d="M499 34h25v7h-25zm26 0h25v7h-25zm26 0h25v7h-25z" stroke="#187718" fill="#30ef30"/>"     "     "     <path d="M577 34h25v7h-25zm26 0h25v7h-25z" fill="#30f030" stroke="#187818"/>"     "     <path d="M629 34h24v7h-24zm25 0h24v7h-24zm25 0h24v7h-24z" stroke="#187818" fill="#31f030"/>"     "     "     <path d="M704 34h23v7h-23zm24 0h23v7h-23z" fill="#32f030" stroke="#197818"/>"     "     <path d="M752 34h23v7h-23zm24 0h22v7h-22z" stroke="#197818" fill="#33f030"/>"     "     <path d="M799 34h22v7h-22zm23 0h22v7h-22zm23 0h21v7h-21z" fill="#34f030" stroke="#1a7818"/>"     "     "     <path d="M867 34h20v7h-20zm21 0h20v7h-20z" stroke="#1a7818" fill="#35f030"/>"     "     <path d="M909 34h19v7h-19zm20 0h19v7h-19zm20 0h19v7h-19z" fill="#36f030" stroke="#1b7818"/>"     "     "     <path d="M969 34h18v7h-18zm19 0h17v7h-17z" stroke="#1b7818" fill="#37f030"/>"     "     <path d="M1006 34h18v7h-18zM32 48h30v27H32z" fill="#38f030" stroke="#1c7818"/>"     "     <path d="M63 47h30v18H63zm31 0h30v15H94zm31-1h30v13h-30z" stroke="#1c7818" fill="#39f030"/>"     "     "     <path d="M156 44h30v14h-30zm31-2h30v10h-30z" fill="#3af030" stroke="#1d7818"/>"     "     <path d="M218 42h29v9h-29zm30 0h29v8h-29zm30 0h29v8h-29z" stroke="#1d7818" fill="#3bf030"/>"     "     "     <path d="M308 42h28v8h-28zm29 0h28v8h-28z" fill="#3cf030" stroke="#1e7818"/>"     "     <path d="M366 42h28v8h-28zm29 0h28v8h-28z" stroke="#1e7818" fill="#3df030"/>"     "     <path d="M424 42h28v8h-28zm29 0h27v8h-27zm28 0h27v8h-27z" fill="#3ef030" stroke="#1f7818"/>"     "     "     <path d="M509 42h27v8h-27zm28 0h25v8h-25z" stroke="#1f7818" fill="#3ff030"/>"     "     <path d="M563 42h24v8h-24zm25 0h24v8h-24zm25 0h24v8h-24z" fill="#40f030" stroke="#207818"/>"     "     "     <path d="M638 42h24v8h-24zm25 0h24v8h-24z" stroke="#207818" fill="#41f030"/>"     "     <path d="M688 42h23v8h-23zm24 0h23v8h-23z" fill="#42f030" stroke="#217818"/>"     "     <path d="M736 42h23v8h-23zm24 0h23v8h-23zm24 0h22v8h-22z" stroke="#217818" fill="#43f030"/>"     "     "     <path d="M807 42h22v8h-22zm23 0h20v8h-20z" fill="#44f030" stroke="#227818"/>"     "     <path d="M851 42h20v8h-20zm21 0h17v8h-17zm18 0h17v8h-17z" stroke="#227818" fill="#45f030"/>"     "     "     <path d="M908 42h17v8h-17zm18 0h17v8h-17z" fill="#46f030" stroke="#237818"/>"     "     <path d="M944 42h16v8h-16zm17 0h16v7h-16z" stroke="#237818" fill="#47f030"/>"     "     <path d="M978 42h16v7h-16zm17 0h29v7h-29zM187 53h15v5h-15z" fill="#48f030" stroke="#247818"/>"     "     "     <path d="M203 53h25v5h-25zm26 0h28v5h-28z" stroke="#247818" fill="#49f030"/>"     "     <path d="M258 53h16v5h-16zm17 0h15v5h-15zm16 0h22v5h-22z" fill="#4af030" stroke="#257818"/>"     "     "     <path d="M314 53h23v5h-23zm24 0h11v5h-11z" stroke="#257818" fill="#4bf030"/>"     "     <path d="M350 53h20v5h-20zm21 0h23v5h-23zm24 0h6v5h-6z" fill="#4cf030" stroke="#267818"/>"     "     "     <path d="M402 53h15v5h-15zm16 0h19v5h-19z" stroke="#267818" fill="#4df030"/>"     "     <path d="M438 53h7v5h-7zm8 0h13v5h-13z" fill="#4ef030" stroke="#277818"/>"     "     <path d="M460 53h24v5h-24zm25 0h5v5h-5zm6 0h7v5h-7z" stroke="#277818" fill="#4ff030"/>"     "     "     <path d="M499 53h23v5h-23zm24 0h29v5h-29z" fill="#50f030" stroke="#287818"/>"     "     <path d="M553 53h8v5h-8zm9 0h18v5h-18zm19 0h14v5h-14z" stroke="#287818" fill="#51f030"/>"     "     "     <path d="M596 53h19v5h-19zm20 0h6v5h-6z" fill="#52f030" stroke="#297818"/>"     "     <path d="M623 53h16v5h-16zm17 0h27v5h-27z" stroke="#297818" fill="#53f030"/>"     "     <path d="M668 53h30v5h-30zm31 0h30v5h-30zm31 0h13v5h-13z" fill="#54f030" stroke="#2a7818"/>"     "     "     <path d="M744 53h23v5h-23zm24 0h27v5h-27z" stroke="#2a7818" fill="#55f030"/>"     "     <path d="M796 53h22v5h-22zm23 0h15v5h-15zm16 0h20v5h-20z" fill="#56f030" stroke="#2b7818"/>"     "     "     <path d="M856 53h14v5h-14zm15 0h21v5h-21z" stroke="#2b7818" fill="#57f030"/>"     "     <path d="M893 53h7v4h-7zm8 0h25v4h-25z" fill="#58f030" stroke="#2c7818"/>"     "     <path d="M927 53h14v4h-14zm15 0h26v4h-26zm27 0h23v4h-23z" stroke="#2c7818" fill="#59f030"/>"     "     "     <path d="M993 53h13v4h-13zm14 0h17v4h-17z" fill="#5af030" stroke="#2d7818"/>"     "     <path d="M63 66h28v9H63zm29 0h27v9H92zm28 0h26v9h-26z" stroke="#2d7818" fill="#5bf030"/>"     "     "     <path d="M147 66h25v9h-25zm26 0h24v9h-24z" fill="#5cf030" stroke="#2e7818"/>"     "     <path d="M198 66h22v9h-22zm23 0h21v9h-21z" stroke="#2e7818" fill="#5df030"/>"     "     <path d="M243 66h21v9h-21zm22 0h20v9h-20zm21 0h20v9h-20z" fill="#5ef030" stroke="#2f7818"/>"     "     "     <path d="M307 66h20v9h-20zm21 0h20v9h-20z" stroke="#2f7818" fill="#5ff030"/>"     "     <path d="M349 66h17v9h-17zm18 0h16v8h-16zm17 0h16v8h-16z" fill="#60f030" stroke="#307818"/>"     "     "     <path d="M401 66h16v8h-16zm17 0h16v8h-16z" stroke="#307818" fill="#61f030"/>"     "     <path d="M435 66h16v7h-16zm17 0h15v7h-15z" fill="#62f030" stroke="#317818"/>"     "     <path d="M468 66h14v7h-14zm15 0h12v7h-12zm13 0h12v7h-12z" stroke="#317818" fill="#63f030"/>"     "     "     <path d="M509 66h11v6h-11zm12 0h11v6h-11z" fill="#64f030" stroke="#327818"/>"     "     <path d="M533 66h11v6h-11zm12 0h11v6h-11zm12 0h10v6h-10z" stroke="#327818" fill="#65f030"/>"     "     "     <path d="M568 66h7v6h-7zm8 0h18v6h-18z" fill="#66f030" stroke="#337818"/>"     "     <path d="M595 66h18v6h-18zm19 0h26v6h-26z" stroke="#337818" fill="#67f030"/>"     "     <path d="M641 66h14v6h-14zm15 0h19v6h-19zm20 0h9v6h-9z" fill="#68f030" stroke="#347818"/>"     "     "     <path d="M686 66h7v6h-7zm8 0h10v6h-10z" stroke="#347818" fill="#69f030"/>"     "     <path d="M705 66h6v6h-6zm7 0h13v6h-13zm14 0h10v6h-10z" fill="#6af030" stroke="#357818"/>"     "     "     <path d="M737 66h7v6h-7zm8 0h27v6h-27z" stroke="#357818" fill="#6bf030"/>"     "     <path d="M773 66h20v6h-20zm21 0h12v6h-12z" fill="#6cf030" stroke="#367818"/>"     "     <path d="M807 66h29v6h-29zm30 0h19v6h-19zm20 0h13v6h-13z" stroke="#367818" fill="#6df030"/>"     "     "     <path d="M871 66h14v6h-14zm15 0h18v6h-18z" fill="#6ef030" stroke="#377818"/>"     "     <path d="M905 66h29v6h-29zm30 0h8v6h-8zm9 0h14v6h-14z" stroke="#377818" fill="#6ff030"/>"     "     "     <path d="M959 66h10v6h-10zm11 0h15v6h-15z" fill="#70f030" stroke="#387818"/>"     "     <path d="M986 66h7v6h-7zm8 0h23v6h-23z" stroke="#387818" fill="#71f030"/>"     "     <path d="M1018 66h4v5h-4zM32 76h30v19H32zm31 0h30v18H63z" fill="#72f030" stroke="#397818"/>"     "     "     <path d="M94 76h30v18H94zm31 0h30v17h-30z" stroke="#397818" fill="#73f030"/>"     "     <path d="M156 76h30v17h-30zm31 0h29v16h-29zm30 0h29v11h-29z" fill="#74f030" stroke="#3a7818"/>"     "     "     <path d="M247 76h29v11h-29zm30 0h29v11h-29z" stroke="#3a7818" fill="#75f030"/>"     "     <path d="M307 76h29v10h-29zm30 0h29v10h-29z" fill="#76f030" stroke="#3b7818"/>"     "     <path d="M367 75h29v11h-29zm30 0h28v10h-28zm29 0h27v10h-27z" stroke="#3b7818" fill="#77f030"/>"     "     "     <path d="M454 75h27v10h-27zm28 0h26v10h-26z" fill="#78f030" stroke="#3c7818"/>"     "     <path d="M509 75h26v10h-26zm27 0h25v10h-25zm26 0h25v10h-25z" stroke="#3c7818" fill="#79f030"/>"     "     "     <path d="M588 75h24v10h-24zm25 0h24v10h-24z" fill="#7af030" stroke="#3d7818"/>"     "     <path d="M638 75h24v10h-24zm25 0h24v10h-24z" stroke="#3d7818" fill="#7bf030"/>"     "     <path d="M688 75h24v10h-24zm25 0h23v10h-23zm24 0h22v10h-22z" fill="#7cf030" stroke="#3e7818"/>"     "     "     <path d="M760 75h21v10h-21zm22 0h21v10h-21z" stroke="#3e7818" fill="#7df030"/>"     "     <path d="M804 75h19v10h-19zm20 0h19v10h-19zm20 0h18v10h-18z" fill="#7ef030" stroke="#3f7818"/>"     "     "     <path d="M863 75h17v10h-17zm18 0h16v10h-16z" stroke="#3f7818" fill="#7ff030"/>"     "     <path d="M898 75h16v9h-16zm17 0h16v9h-16z" fill="#80f030" stroke="#407818"/>"     "     <path d="M932 75h16v8h-16zm17 0h16v8h-16zm17 0h15v8h-15z" stroke="#407818" fill="#81f030"/>"     "     "     <path d="M982 75h14v8h-14zm15 0h27v8h-27z" fill="#82f030" stroke="#417818"/>"     "     <path d="M217 88h17v4h-17zm18 0h24v4h-24zM32 96h30v19H32z" stroke="#417818" fill="#83f030"/>"     "     "     <path d="M63 95h30v19H63zm31 0h29v16H94z" fill="#84f030" stroke="#427818"/>"     "     <path d="M124 95h29v16h-29zm30 0h29v14h-29z" stroke="#427818" fill="#85f030"/>"     "     <path d="M184 95h29v14h-29zm30 0h29v13h-29zm30 0h29v13h-29z" fill="#86f030" stroke="#437818"/>"     "     "     <path d="M274 95h29v12h-29zm30 0h28v12h-28z" stroke="#437818" fill="#87f030"/>"     "     <path d="M333 95h28v11h-28zm29 0h28v11h-28zm29 0h27v11h-27z" fill="#88f030" stroke="#447818"/>"     "     "     <path d="M419 95h27v11h-27zm28 0h27v11h-27z" stroke="#447818" fill="#89f030"/>"     "     <path d="M475 95h26v11h-26zm27 0h26v11h-26z" fill="#8af030" stroke="#457818"/>"     "     <path d="M529 95h23v11h-23zm24 0h23v11h-23zm24 0h22v11h-22z" stroke="#457818" fill="#8bf030"/>"     "     "     <path d="M600 95h22v11h-22zm23 0h22v11h-22z" fill="#8cf030" stroke="#467818"/>"     "     <path d="M646 95h21v11h-21zm22 0h21v11h-21zm22 0h20v11h-20z" stroke="#467818" fill="#8df030"/>"     "     "     <path d="M711 95h20v11h-20zm21 0h19v11h-19z" fill="#8ef030" stroke="#477818"/>"     "     <path d="M752 95h19v11h-19zm20 0h19v11h-19z" stroke="#477818" fill="#8ff030"/>"     "     <path d="M792 95h19v11h-19zm20 0h18v11h-18zm19 0h18v11h-18z" fill="#90f030" stroke="#487818"/>"     "     "     <path d="M850 95h17v11h-17zm18 0h17v11h-17z" stroke="#487818" fill="#91f030"/>"     "     <path d="M886 95h16v11h-16zm17 0h16v10h-16zm17 0h16v9h-16z" fill="#92f030" stroke="#497818"/>"     "     "     <path d="M937 95h14v8h-14zm15 0h13v8h-13z" stroke="#497818" fill="#93f030"/>"     "     <path d="M966 95h13v8h-13zm14 0h12v8h-12zm13 0h12v8h-12z" fill="#94f030" stroke="#4a7818"/>"     "     "     <path d="M1006 95h18v8h-18zM32 116h30v27H32z" stroke="#4a7818" fill="#95f030"/>"     "     <path d="M63 115h30v27H63zm31-3h30v22H94z" fill="#96f030" stroke="#4b7818"/>"     "     <path d="M125 112h30v21h-30zm31 0h30v20h-30zm31 0h29v20h-29z" stroke="#4b7818" fill="#97f030"/>"     "     "     <path d="M217 112h29v16h-29zm30 0h29v15h-29z" fill="#98f030" stroke="#4c7818"/>"     "     <path d="M277 112h29v15h-29zm30 0h29v15h-29zm30 0h28v13h-28z" stroke="#4c7818" fill="#99f030"/>"     "     "     <path d="M366 112h28v13h-28zm29 0h27v12h-27z" fill="#9af030" stroke="#4d7818"/>"     "     <path d="M423 112h27v12h-27zm28 0h26v12h-26z" stroke="#4d7818" fill="#9bf030"/>"     "     <path d="M478 112h26v12h-26zm27 0h25v12h-25zm26 0h25v12h-25z" fill="#9cf030" stroke="#4e7818"/>"     "     "     <path d="M557 112h24v12h-24zm25 0h24v12h-24z" stroke="#4e7818" fill="#9df030"/>"     "     <path d="M607 112h23v12h-23zm24 0h23v12h-23zm24 0h22v12h-22z" fill="#9ef030" stroke="#4f7818"/>"     "     "     <path d="M678 112h22v12h-22zm23 0h22v12h-22z" stroke="#4f7818" fill="#9ff030"/>"     "     <path d="M724 112h21v12h-21zm22 0h21v12h-21z" fill="#a0f030" stroke="#507818"/>"     "     <path d="M768 112h21v12h-21zm22 0h20v12h-20zm21 0h20v12h-20z" stroke="#507818" fill="#a1f030"/>"     "     "     <path d="M832 112h19v12h-19zm20 0h18v12h-18z" fill="#a2f030" stroke="#517818"/>"     "     <path d="M871 112h18v12h-18zm19 0h18v12h-18zm19 0h17v12h-17z" stroke="#517818" fill="#a3f030"/>"     "     "     <path d="M927 112h16v12h-16zm17 0h16v12h-16z" fill="#a4f030" stroke="#527818"/>"     "     <path d="M961 112h16v12h-16zm17 0h16v12h-16z" stroke="#527818" fill="#a5f030"/>"     "     <path d="M995 112h29v12h-29zM94 135h10v7H94zm11 0h9v7h-9z" fill="#a6f030" stroke="#537818"/>"     "     "     <path d="M115 135h8v7h-8zm9 0h8v7h-8z" stroke="#537818" fill="#a7f030"/>"     "     <path d="M133 135h28v7h-28zm29 0h19v7h-19zm20 0h21v7h-21z" fill="#a8f030" stroke="#547818"/>"     "     "     <path d="M204 135h29v7h-29zm30 0h12v7h-12z" stroke="#547818" fill="#a9f030"/>"     "     <path d="M247 135h27v7h-27zm28 0h25v7h-25z" fill="#aaf030" stroke="#557818"/>"     "     <path d="M301 135h8v7h-8zm9 0h24v7h-24zm25 0h26v7h-26z" stroke="#557818" fill="#abf030"/>"     "     "     <path d="M362 135h16v7h-16zm17 0h28v7h-28z" fill="#acf030" stroke="#567818"/>"     "     <path d="M408 135h10v7h-10zm11 0h18v7h-18zm19 0h15v7h-15z" stroke="#567818" fill="#adf030"/>"     "     "     <path d="M454 135h17v7h-17zm18 0h18v7h-18z" fill="#aef030" stroke="#577818"/>"     "     <path d="M491 135h30v7h-30zm31 0h14v7h-14z" stroke="#577818" fill="#aff030"/>"     "     <path d="M537 135h8v7h-8zm9 0h27v7h-27zm28 0h24v7h-24z" fill="#b0f030" stroke="#587818"/>"     "     "     <path d="M599 135h23v7h-23zm24 0h18v7h-18z" stroke="#587818" fill="#b1f030"/>"     "     <path d="M642 135h22v7h-22zm23 0h14v7h-14zm15 0h16v7h-16z" fill="#b2f030" stroke="#597818"/>"     "     "     <path d="M697 135h7v7h-7zm8 0h9v7h-9z" stroke="#597818" fill="#b3f030"/>"     "     <path d="M715 135h12v7h-12zm13 0h25v7h-25z" fill="#b4f030" stroke="#5a7818"/>"     "     <path d="M754 135h29v7h-29zm30 0h22v7h-22zm23 0h21v7h-21z" stroke="#5a7818" fill="#b5f030"/>"     "     "     <path d="M829 135h11v7h-11zm12 0h27v7h-27z" fill="#b6f030" stroke="#5b7818"/>"     "     <path d="M869 135h28v7h-28zm29 0h12v7h-12zm13 0h13v7h-13z" stroke="#5b7818" fill="#b7f030"/>"     "     "     <path d="M925 135h26v7h-26zm27 0h28v7h-28z" fill="#b8f030" stroke="#5c7818"/>"     "     <path d="M981 135h26v7h-26zm27 0h8v6h-8z" stroke="#5c7818" fill="#b9f030"/>"     "     <path d="M32 144h30v24H32zm31-1h30v25H63zm31 0h30v25H94z" fill="#baf030" stroke="#5d7818"/>"     "     "     <path d="M125 143h29v22h-29zm30 0h29v22h-29z" stroke="#5d7818" fill="#bbf030"/>"     "     <path d="M185 143h29v20h-29zm30 0h29v18h-29zm30 0h28v16h-28z" fill="#bcf030" stroke="#5e7818"/>"     "     "     <path d="M274 143h28v16h-28zm29 0h27v15h-27z" stroke="#5e7818" fill="#bdf030"/>"     "     <path d="M331 143h27v14h-27zm28 0h27v13h-27z" fill="#bef030" stroke="#5f7818"/>"     "     <path d="M387 143h27v13h-27zm28 0h26v13h-26zm27 0h26v13h-26z" stroke="#5f7818" fill="#bff030"/>"     "     "     <path d="M469 143h26v13h-26zm27 0h22v13h-22z" fill="#c0f030" stroke="#607818"/>"     "     <path d="M519 143h21v13h-21zm22 0h20v13h-20zm21 0h19v13h-19z" stroke="#607818" fill="#c1f030"/>"     "     "     <path d="M582 143h17v13h-17zm18 0h16v13h-16z" fill="#c2f030" stroke="#617818"/>"     "     <path d="M617 143h16v13h-16zm17 0h16v13h-16z" stroke="#617818" fill="#c3f030"/>"     "     <path d="M651 143h15v10h-15zm16 0h15v10h-15zm16 0h15v10h-15z" fill="#c4f030" stroke="#627818"/>"     "     "     <path d="M699 143h14v10h-14zm15 0h14v10h-14z" stroke="#627818" fill="#c5f030"/>"     "     <path d="M729 143h14v10h-14zm15 0h14v10h-14zm15 0h13v10h-13z" fill="#c6f030" stroke="#637818"/>"     "     "     <path d="M773 143h13v9h-13zm14 0h13v9h-13z" stroke="#637818" fill="#c7f030"/>"     "     <path d="M801 143h13v9h-13zm14 0h12v9h-12z" fill="#c8f030" stroke="#647818"/>"     "     <path d="M828 143h12v9h-12zm13 0h12v9h-12zm13 0h11v8h-11z" stroke="#647818" fill="#c9f030"/>"     "     "     <path d="M866 143h11v8h-11zm12 0h11v8h-11z" fill="#caf030" stroke="#657818"/>"     "     <path d="M890 143h10v8h-10zm11 0h25v8h-25zm26 0h20v8h-20z" stroke="#657818" fill="#cbf030"/>"     "     "     <path d="M948 143h10v8h-10zm11 0h17v8h-17z" fill="#ccf030" stroke="#667818"/>"     "     <path d="M977 143h21v8h-21zm22 0h25v8h-25z" stroke="#667818" fill="#cdf030"/>"     "     <path d="M32 169h30v27H32zm31 0h30v26H63zm31 0h29v24H94z" fill="#cef030" stroke="#677818"/>"     "     "     <path d="M124 169h29v23h-29zm30 0h29v23h-29z" stroke="#677818" fill="#cff030"/>"     "     <path d="M184 169h29v22h-29zm30 0h29v21h-29zm30 0h29v19h-29z" fill="#d0f030" stroke="#687818"/>"     "     "     <path d="M274 169h29v19h-29zm30 0h29v19h-29z" stroke="#687818" fill="#d1f030"/>"     "     <path d="M334 169h28v17h-28zm29 0h28v17h-28z" fill="#d2f030" stroke="#697818"/>"     "     <path d="M392 169h28v17h-28zm29 0h27v17h-27zm28 0h27v15h-27z" stroke="#697818" fill="#d3f030"/>"     "     "     <path d="M477 169h27v15h-27zm28 0h27v14h-27z" fill="#d4f030" stroke="#6a7818"/>"     "     <path d="M533 169h26v14h-26zm27 0h26v14h-26zm27 0h26v14h-26z" stroke="#6a7818" fill="#d5f030"/>"     "     "     <path d="M614 169h24v14h-24zm25 0h24v14h-24z" fill="#d6f030" stroke="#6b7818"/>"     "     <path d="M664 169h24v14h-24zm25 0h24v14h-24z" stroke="#6b7818" fill="#d7f030"/>"     "     <path d="M714 169h23v14h-23zm24 0h23v14h-23zm24 0h23v14h-23z" fill="#d8f030" stroke="#6c7818"/>"     "     "     <path d="M786 169h22v14h-22zm23 0h22v14h-22z" stroke="#6c7818" fill="#d9f030"/>"     "     <path d="M832 169h22v14h-22zm23 0h20v14h-20zm21 0h19v14h-19z" fill="#daf030" stroke="#6d7818"/>"     "     "     <path d="M896 169h16v14h-16zm17 0h16v14h-16z" stroke="#6d7818" fill="#dbf030"/>"     "     <path d="M930 169h15v11h-15zm16 0h15v11h-15zm16 0h14v11h-14z" fill="#dcf030" stroke="#6e7818"/>"     "     "     <path d="M977 169h14v11h-14zm15 0h13v11h-13z" stroke="#6e7818" fill="#ddf030"/>"     "     <path d="M1006 169h18v11h-18zM32 197h30v29H32z" fill="#def030" stroke="#6f7818"/>"     "     <path d="M63 196h29v25H63zm30 0h29v24H93zm30 0h29v24h-29z" stroke="#6f7818" fill="#dff030"/>"     "     "     <path d="M153 196h29v22h-29zm30 0h28v22h-28z" fill="#e0f030" stroke="#707818"/>"     "     <path d="M212 196h28v20h-28zm29 0h28v19h-28zm29 0h28v18h-28z" stroke="#707818" fill="#e1f030"/>"     "     "     <path d="M299 196h28v18h-28zm29 0h27v16h-27z" fill="#e2f030" stroke="#717818"/>"     "     <path d="M356 196h27v16h-27zm28 0h26v15h-26z" stroke="#717818" fill="#e3f030"/>"     "     <path d="M411 196h26v15h-26zm27 0h26v15h-26zm27 0h25v15h-25z" fill="#e4f030" stroke="#727818"/>"     "     "     <path d="M491 196h25v15h-25zm26 0h24v15h-24z" stroke="#727818" fill="#e5f030"/>"     "     <path d="M542 196h23v15h-23zm24 0h23v15h-23zm24 0h22v15h-22z" fill="#e6f030" stroke="#737818"/>"     "     "     <path d="M613 196h22v15h-22zm23 0h21v15h-21z" stroke="#737818" fill="#e7f030"/>"     "     <path d="M658 196h21v15h-21zm22 0h20v15h-20z" fill="#e8f030" stroke="#747818"/>"     "     <path d="M701 196h20v15h-20zm21 0h20v15h-20zm21 0h19v15h-19z" stroke="#747818" fill="#e9f030"/>"     "     "     <path d="M763 196h18v15h-18zm19 0h18v15h-18z" fill="#eaf030" stroke="#757818"/>"     "     <path d="M801 196h18v15h-18zm19 0h17v15h-17zm18 0h21v15h-21z" stroke="#757818" fill="#ebf030"/>"     "     "     <path d="M860 196h25v15h-25zm26 0h20v15h-20z" fill="#ecf030" stroke="#767818"/>"     "     <path d="M907 196h30v15h-30zm31 0h16v15h-16z" stroke="#767818" fill="#edf030"/>"     "     <path d="M955 196h27v15h-27zm28 0h30v15h-30zm31 0h10v15h-10z" fill="#eef030" stroke="#777818"/>"     "     "     <path d="M32 227h29v25H32zm30 0h29v25H62z" stroke="#777818" fill="#eff030"/>"     "     <path d="M92 227h28v21H92zm29 0h28v21h-28zm29 0h28v21h-28z" fill="#f0f030" stroke="#787818"/>"     "     "     <path d="M179 227h27v21h-27zm28 0h27v18h-27z" stroke="#787818" fill="#f0f031"/>"     "     <path d="M235 227h27v18h-27zm28 0h27v18h-27z" fill="#f0f032" stroke="#787819"/>"     "     <path d="M291 227h26v18h-26zm27 0h26v16h-26zm27 0h22v16h-22z" stroke="#787819" fill="#f0f033"/>"     "     "     <path d="M368 227h22v16h-22zm23 0h22v16h-22z" fill="#f0f034" stroke="#78781a"/>"     "     <path d="M414 227h21v16h-21zm22 0h20v16h-20zm21 0h19v16h-19z" stroke="#78781a" fill="#f0f035"/>"     "     "     <path d="M477 227h18v16h-18zm19 0h18v16h-18z" fill="#f0f036" stroke="#78781b"/>"     "     <path d="M515 227h17v16h-17zm18 0h21v16h-21z" stroke="#78781b" fill="#f0f037"/>"     "     <path d="M555 227h20v16h-20zm21 0h28v16h-28zm29 0h26v16h-26z" fill="#f0f038" stroke="#78781c"/>"     "     "     <path d="M632 227h21v16h-21zm22 0h28v16h-28z" stroke="#78781c" fill="#f0f039"/>"     "     <path d="M683 227h23v16h-23zm24 0h28v16h-28zm29 0h26v16h-26z" fill="#f0f03a" stroke="#78781d"/>"     "     "     <path d="M763 227h18v16h-18zm19 0h16v16h-16z" stroke="#78781d" fill="#f0f03b"/>"     "     <path d="M799 227h17v16h-17zm18 0h20v16h-20z" fill="#f0f03c" stroke="#78781e"/>"     "     <path d="M838 227h19v16h-19zm20 0h17v16h-17zm18 0h21v16h-21z" stroke="#78781e" fill="#f0f03d"/>"     "     "     <path d="M898 227h17v16h-17zm18 0h23v16h-23z" fill="#f0f03e" stroke="#78781f"/>"     "     <path d="M940 227h26v16h-26zm27 0h17v16h-17zm18 0h20v16h-20z" stroke="#78781f" fill="#f0f03f"/>"     "     "     <path d="M1006 227h17v15h-17zM32 253h29v29H32z" fill="#f0f040" stroke="#787820"/>"     "     <path d="M62 253h29v27H62zm30-4h29v30H92z" stroke="#787820" fill="#f0f041"/>"     "     <path d="M122 249h29v27h-29zm30 0h28v22h-28zm29 0h27v20h-27z" fill="#f0f042" stroke="#787821"/>"     "     "     <path d="M209 249h27v20h-27zm28 0h26v19h-26z" stroke="#787821" fill="#f0f043"/>"     "     <path d="M264 249h25v17h-25zm26 0h24v17h-24zm25 0h24v17h-24z" fill="#f0f044" stroke="#787822"/>"     "     "     <path d="M340 249h22v17h-22zm23 0h22v17h-22z" stroke="#787822" fill="#f0f045"/>"     "     <path d="M386 249h22v17h-22zm23 0h21v17h-21z" fill="#f0f046" stroke="#787823"/>"     "     <path d="M431 249h21v17h-21zm22 0h21v17h-21zm22 0h20v17h-20z" stroke="#787823" fill="#f0f047"/>"     "     "     <path d="M496 249h19v17h-19zm20 0h19v17h-19z" fill="#f0f048" stroke="#787824"/>"     "     <path d="M536 249h19v17h-19zm20 0h18v17h-18zm19 0h18v17h-18z" stroke="#787824" fill="#f0f049"/>"     "     "     <path d="M594 249h18v17h-18zm19 0h30v17h-30z" fill="#f0f04a" stroke="#787825"/>"     "     <path d="M644 249h29v17h-29zm30 0h27v17h-27z" stroke="#787825" fill="#f0f04b"/>"     "     <path d="M702 249h27v17h-27zm28 0h17v17h-17zm18 0h29v17h-29z" fill="#f0f04c" stroke="#787826"/>"     "     "     <path d="M778 249h29v17h-29zm30 0h18v17h-18z" stroke="#787826" fill="#f0f04d"/>"     "     <path d="M827 249h22v17h-22zm23 0h30v17h-30zm31 0h20v17h-20z" fill="#f0f04e" stroke="#787827"/>"     "     "     <path d="M902 249h29v17h-29zm30 0h25v17h-25z" stroke="#787827" fill="#f0f04f"/>"     "     <path d="M958 249h18v17h-18zm19 0h26v17h-26z" fill="#f0f050" stroke="#787828"/>"     "     <path d="M1004 249h17v17h-17zM32 283h29v30H32zm30-2h29v29H62z" stroke="#787828" fill="#f0f051"/>"     "     "     <path d="M92 280h29v29H92zm30-3h29v29h-29z" fill="#f0f052" stroke="#787829"/>"     "     <path d="M152 272h28v30h-28zm29-2h28v30h-28zm29 0h28v30h-28z" stroke="#787829" fill="#f0f053"/>"     "     "     <path d="M239 270h28v29h-28zm29 0h28v25h-28z" fill="#f0f054" stroke="#78782a"/>"     "     <path d="M297 270h28v23h-28zm29 0h27v21h-27z" stroke="#78782a" fill="#f0f055"/>"     "     <path d="M354 270h26v21h-26zm27 0h25v20h-25zm26 0h25v19h-25z" fill="#f0f056" stroke="#78782b"/>"     "     "     <path d="M433 270h25v19h-25zm26 0h24v19h-24z" stroke="#78782b" fill="#f0f057"/>"     "     <path d="M484 270h24v19h-24zm25 0h23v18h-23zm24 0h23v18h-23z" fill="#f0f058" stroke="#78782c"/>"     "     "     <path d="M557 270h23v18h-23zm24 0h22v18h-22z" stroke="#78782c" fill="#f0f059"/>"     "     <path d="M604 270h21v18h-21zm22 0h21v18h-21z" fill="#f0f05a" stroke="#78782d"/>"     "     <path d="M648 270h21v18h-21zm22 0h19v18h-19zm20 0h19v18h-19z" stroke="#78782d" fill="#f0f05b"/>"     "     "     <path d="M710 270h26v18h-26zm27 0h18v18h-18z" fill="#f0f05c" stroke="#78782e"/>"     "     <path d="M756 270h24v18h-24zm25 0h21v18h-21zm22 0h27v18h-27z" stroke="#78782e" fill="#f0f05d"/>"     "     "     <path d="M831 270h26v18h-26zm27 0h18v18h-18z" fill="#f0f05e" stroke="#78782f"/>"     "     <path d="M877 270h22v18h-22zm23 0h25v18h-25z" stroke="#78782f" fill="#f0f05f"/>"     "     <path d="M926 270h21v18h-21zm22 0h29v18h-29zm30 0h22v18h-22z" fill="#f0f060" stroke="#787830"/>"     "     "     <path d="M1001 270h20v18h-20zM32 314h28v28H32z" stroke="#787830" fill="#f0f061"/>"     "     <path d="M61 314h28v28H61zm29 0h28v27H90zm29 0h28v26h-28z" fill="#f0f062" stroke="#787831"/>"     "     "     <path d="M148 314h28v26h-28zm29 0h27v24h-27z" stroke="#787831" fill="#f0f063"/>"     "     <path d="M205 314h27v24h-27zm28 0h27v22h-27zm28 0h26v22h-26z" fill="#f0f064" stroke="#787832"/>"     "     "     <path d="M288 314h26v22h-26zm27 0h26v22h-26z" stroke="#787832" fill="#f0f065"/>"     "     <path d="M342 314h25v21h-25zm26 0h25v21h-25z" fill="#f0f066" stroke="#787833"/>"     "     <path d="M394 314h25v20h-25zm26 0h23v19h-23zm24 0h23v19h-23z" stroke="#787833" fill="#f0f067"/>"     "     "     <path d="M468 314h23v19h-23zm24 0h22v19h-22z" fill="#f0f068" stroke="#787834"/>"     "     <path d="M515 314h20v19h-20zm21 0h20v19h-20zm21 0h20v19h-20z" stroke="#787834" fill="#f0f069"/>"     "     "     <path d="M578 314h21v19h-21zm22 0h26v19h-26z" fill="#f0f06a" stroke="#787835"/>"     "     <path d="M627 314h27v19h-27zm28 0h27v19h-27z" stroke="#787835" fill="#f0f06b"/>"     "     <path d="M683 314h24v19h-24zm25 0h21v19h-21zm22 0h28v19h-28z" fill="#f0f06c" stroke="#787836"/>"     "     "     <path d="M759 314h19v19h-19zm20 0h26v19h-26z" stroke="#787836" fill="#f0f06d"/>"     "     <path d="M806 314h29v19h-29zm30 0h27v19h-27zm28 0h24v19h-24z" fill="#f0f06e" stroke="#787837"/>"     "     "     <path d="M889 314h27v19h-27zm28 0h20v19h-20z" stroke="#787837" fill="#f0f06f"/>"     "     <path d="M938 314h21v19h-21zm22 0h29v19h-29z" fill="#f0f070" stroke="#787838"/>"     "     <path d="M990 314h22v19h-22zm23 0h11v19h-11zM32 343h28v27H32z" stroke="#787838" fill="#f0f071"/>"     "     "     <path d="M61 343h27v27H61zm28 0h27v27H89z" fill="#f0f072" stroke="#787839"/>"     "     <path d="M117 343h30v27h-30zm31 0h29v27h-29zm30 0h30v27h-30z" stroke="#787839" fill="#f0f073"/>"     "     "     <path d="M209 343h27v26h-27zm28 0h27v26h-27z" fill="#f0f074" stroke="#78783a"/>"     "     <path d="M265 343h27v25h-27zm28 0h26v23h-26z" stroke="#78783a" fill="#f0f075"/>"     "     <path d="M320 343h25v22h-25zm26 0h25v22h-25zm26 0h25v22h-25z" fill="#f0f076" stroke="#78783b"/>"     "     "     <path d="M398 343h24v22h-24zm25 0h23v20h-23z" stroke="#78783b" fill="#f0f077"/>"     "     <path d="M447 343h22v20h-22zm23 0h21v20h-21zm22 0h21v20h-21z" fill="#f0f078" stroke="#78783c"/>"     "     "     <path d="M514 343h22v20h-22zm23 0h29v20h-29z" stroke="#78783c" fill="#f0f079"/>"     "     <path d="M567 343h21v20h-21zm22 0h29v20h-29z" fill="#f0f07a" stroke="#78783d"/>"     "     <path d="M619 343h24v20h-24zm25 0h25v20h-25zm26 0h25v20h-25z" stroke="#78783d" fill="#f0f07b"/>"     "     "     <path d="M696 343h20v20h-20zm21 0h30v20h-30z" fill="#f0f07c" stroke="#78783e"/>"     "     <path d="M748 343h29v20h-29zm30 0h30v20h-30zm31 0h21v20h-21z" stroke="#78783e" fill="#f0f07d"/>"     "     "     <path d="M831 343h22v20h-22zm23 0h20v20h-20z" fill="#f0f07e" stroke="#78783f"/>"     "     <path d="M875 343h29v20h-29zm30 0h23v20h-23z" stroke="#78783f" fill="#f0f07f"/>"     "     <path d="M929 343h23v20h-23zm24 0h24v20h-24zm25 0h24v20h-24z" fill="#f0f080" stroke="#787840"/>"     "     "     <path d="M1003 343h19v19h-19zM32 371h28v28H32z" stroke="#787840" fill="#f0f081"/>"     "     <path d="M61 371h30v28H61zm31 0h27v27H92zm28 0h28v26h-28z" fill="#f0f082" stroke="#787841"/>"     "     "     <path d="M149 371h27v26h-27zm28 0h26v26h-26z" stroke="#787841" fill="#f0f083"/>"     "     <path d="M204 371h29v26h-29zm30 0h29v26h-29z" fill="#f0f084" stroke="#787842"/>"     "     <path d="M264 371h26v26h-26zm27 0h26v25h-26zm27 0h26v25h-26z" stroke="#787842" fill="#f0f085"/>"     "     "     <path d="M345 371h27v25h-27zm28 0h25v24h-25z" fill="#f0f086" stroke="#787843"/>"     "     <path d="M399 371h25v24h-25zm26 0h24v23h-24zm25 0h24v23h-24z" stroke="#787843" fill="#f0f087"/>"     "     "     <path d="M475 371h27v23h-27zm28 0h28v23h-28z" fill="#f0f088" stroke="#787844"/>"     "     <path d="M532 371h28v23h-28zm29 0h23v21h-23z" stroke="#787844" fill="#f0f089"/>"     "     <path d="M585 371h23v21h-23zm24 0h22v21h-22zm23 0h22v21h-22z" fill="#f0f08a" stroke="#787845"/>"     "     "     <path d="M655 371h22v21h-22zm23 0h30v21h-30z" stroke="#787845" fill="#f0f08b"/>"     "     <path d="M709 371h26v21h-26zm27 0h25v21h-25zm26 0h23v21h-23z" fill="#f0f08c" stroke="#787846"/>"     "     "     <path d="M786 371h25v21h-25zm26 0h28v21h-28z" stroke="#787846" fill="#f0f08d"/>"     "     <path d="M841 371h23v21h-23zm24 0h27v21h-27z" fill="#f0f08e" stroke="#787847"/>"     "     <path d="M893 371h30v21h-30zm31 0h28v21h-28zm29 0h21v21h-21z" stroke="#787847" fill="#f0f08f"/>"     "     "     <path d="M975 371h30v21h-30zm31 0h18v21h-18z" fill="#f0f090" stroke="#787848"/>"     "     <path d="M32 400h26v28H32zm27 0h25v28H59zm26 0h25v26H85z" stroke="#787848" fill="#f0f091"/>"     "     "     <path d="M111 400h27v25h-27zm28 0h25v25h-25z" fill="#f0f092" stroke="#787849"/>"     "     <path d="M165 400h26v25h-26zm27 0h25v25h-25z" stroke="#787849" fill="#f0f093"/>"     "     <path d="M218 400h26v25h-26zm27 0h27v25h-27zm28 0h26v24h-26z" fill="#f0f094" stroke="#78784a"/>"     "     "     <path d="M300 400h27v24h-27zm28 0h24v24h-24z" stroke="#78784a" fill="#f0f095"/>"     "     <path d="M353 400h26v24h-26zm27 0h25v24h-25zm26 0h24v24h-24z" fill="#f0f096" stroke="#78784b"/>"     "     "     <path d="M431 400h25v24h-25zm26 0h24v24h-24z" stroke="#78784b" fill="#f0f097"/>"     "     <path d="M482 400h29v24h-29zm30 0h30v23h-30z" fill="#f0f098" stroke="#78784c"/>"     "     <path d="M543 400h23v22h-23zm24 0h23v22h-23zm24 0h26v22h-26z" stroke="#78784c" fill="#f0f099"/>"     "     "     <path d="M618 400h22v22h-22zm23 0h26v22h-26z" fill="#f0f09a" stroke="#78784d"/>"     "     <path d="M668 400h23v22h-23zm24 0h23v22h-23zm24 0h29v22h-29z" stroke="#78784d" fill="#f0f09b"/>"     "     "     <path d="M746 400h30v22h-30zm31 0h24v22h-24z" fill="#f0f09c" stroke="#78784e"/>"     "     <path d="M802 400h27v22h-27zm28 0h29v22h-29z" stroke="#78784e" fill="#f0f09d"/>"     "     <path d="M860 400h25v22h-25zm26 0h22v22h-22zm23 0h22v22h-22z" fill="#f0f09e" stroke="#78784f"/>"     "     "     <path d="M932 400h24v22h-24zm25 0h28v22h-28z" stroke="#78784f" fill="#f0f09f"/>"     "     <path d="M986 400h30v22h-30zm31 0h6v22h-6zM32 429h23v27H32z" fill="#f0f0a0" stroke="#787850"/>"     "     "     <path d="M56 429h23v26H56zm24 0h30v23H80z" stroke="#787850" fill="#f0f0a1"/>"     "     <path d="M111 429h30v23h-30zm31 0h22v22h-22z" fill="#f0f0a2" stroke="#787851"/>"     "     <path d="M165 429h22v22h-22zm23 0h27v22h-27zm28 0h30v22h-30z" stroke="#787851" fill="#f0f0a3"/>"     "     "     <path d="M247 429h25v21h-25zm26 0h29v21h-29z" fill="#f0f0a4" stroke="#787852"/>"     "     <path d="M303 429h21v21h-21zm22 0h25v21h-25zm26 0h30v20h-30z" stroke="#787852" fill="#f0f0a5"/>"     "     "     <path d="M382 429h22v20h-22zm23 0h27v20h-27z" fill="#f0f0a6" stroke="#787853"/>"     "     <path d="M433 429h22v20h-22zm23 0h23v20h-23z" stroke="#787853" fill="#f0f0a7"/>"     "     <path d="M480 429h22v20h-22zm23 0h27v20h-27zm28 0h24v20h-24z" fill="#f0f0a8" stroke="#787854"/>"     "     "     <path d="M556 429h25v20h-25zm26 0h22v19h-22z" stroke="#787854" fill="#f0f0a9"/>"     "     <path d="M605 429h26v19h-26zm27 0h27v19h-27zm28 0h27v19h-27z" fill="#f0f0aa" stroke="#787855"/>"     "     "     <path d="M688 429h26v19h-26zm27 0h24v19h-24z" stroke="#787855" fill="#f0f0ab"/>"     "     <path d="M740 429h29v19h-29zm30 0h25v19h-25zm26 0h28v18h-28z" fill="#f0f0ac" stroke="#787856"/>"     "     "     <path d="M825 429h28v18h-28zm29 0h26v18h-26z" stroke="#787856" fill="#f0f0ad"/>"     "     <path d="M881 429h28v18h-28zm29 0h24v18h-24z" fill="#f0f0ae" stroke="#787857"/>"     "     <path d="M935 429h19v18h-19zm20 0h27v18h-27zm28 0h30v18h-30z" stroke="#787857" fill="#f0f0af"/>"     "     "     <path d="M1014 429h10v18h-10zM32 457h18v25H32z" fill="#f0f0b0" stroke="#787858"/>"     "     <path d="M51 457h29v18H51zm30 0h25v17H81zm26 0h17v17h-17z" stroke="#787858" fill="#f0f0b1"/>"     "     "     <path d="M125 457h18v17h-18zm19 0h21v17h-21z" fill="#f0f0b2" stroke="#787859"/>"     "     <path d="M166 457h27v17h-27zm28 0h30v17h-30z" stroke="#787859" fill="#f0f0b3"/>"     "     <path d="M225 457h28v16h-28zm29 0h28v16h-28zm29 0h25v16h-25z" fill="#f0f0b4" stroke="#78785a"/>"     "     "     <path d="M309 457h23v16h-23zm24 0h15v14h-15z" stroke="#78785a" fill="#f0f0b5"/>"     "     <path d="M349 457h15v14h-15zm16 0h15v12h-15zm16 0h14v12h-14z" fill="#f0f0b6" stroke="#78785b"/>"     "     "     <path d="M396 457h14v12h-14zm15 0h13v11h-13z" stroke="#78785b" fill="#f0f0b7"/>"     "     <path d="M425 457h13v11h-13zm14 0h13v10h-13z" fill="#f0f0b8" stroke="#78785c"/>"     "     <path d="M453 457h12v10h-12zm13 0h11v10h-11zm12 0h11v9h-11z" stroke="#78785c" fill="#f0f0b9"/>"     "     "     <path d="M490 457h11v9h-11zm12 0h11v9h-11z" fill="#f0f0ba" stroke="#78785d"/>"     "     <path d="M514 457h10v9h-10zm11 0h10v9h-10zm11 0h10v9h-10z" stroke="#78785d" fill="#f0f0bb"/>"     "     "     <path d="M547 457h18v9h-18zm19 0h20v9h-20z" fill="#f0f0bc" stroke="#78785e"/>"     "     <path d="M587 457h14v9h-14zm15 0h9v9h-9z" stroke="#78785e" fill="#f0f0bd"/>"     "     <path d="M612 457h24v9h-24zm25 0h20v9h-20zm21 0h23v9h-23z" fill="#f0f0be" stroke="#78785f"/>"     "     "     <path d="M682 457h15v9h-15zm16 0h17v9h-17z" stroke="#78785f" fill="#f0f0bf"/>"     "     <path d="M716 457h27v9h-27zm28 0h13v9h-13zm14 0h13v9h-13z" fill="#f0f0c0" stroke="#787860"/>"     "     "     <path d="M772 457h24v9h-24zm25 0h23v9h-23z" stroke="#787860" fill="#f0f0c1"/>"     "     <path d="M821 457h10v9h-10zm11 0h26v9h-26z" fill="#f0f0c2" stroke="#787861"/>"     "     <path d="M859 457h24v9h-24zm25 0h27v9h-27zm28 0h13v9h-13z" stroke="#787861" fill="#f0f0c3"/>"     "     "     <path d="M926 457h21v9h-21zm22 0h17v9h-17z" fill="#f0f0c4" stroke="#787862"/>"     "     <path d="M966 457h20v9h-20zm21 0h16v9h-16zm17 0h15v9h-15z" stroke="#787862" fill="#f0f0c5"/>"     "     "     <path d="M51 476h27v6H51zm28 0h21v6H79z" fill="#f0f0c6" stroke="#787863"/>"     "     <path d="M101 476h21v6h-21zm22 0h23v6h-23z" stroke="#787863" fill="#f0f0c7"/>"     "     <path d="M32 483h15v16H32zm16 0h21v15H48zm22 0h23v15H70z" fill="#f0f0c8" stroke="#787864"/>"     "     "     <path d="M94 483h15v15H94zm16 0h29v15h-29z" stroke="#787864" fill="#f0f0c9"/>"     "     <path d="M140 483h27v15h-27zm28 0h26v15h-26zm27 0h16v15h-16z" fill="#f0f0ca" stroke="#787865"/>"     "     "     <path d="M212 483h25v15h-25zm26 0h27v15h-27z" stroke="#787865" fill="#f0f0cb"/>"     "     <path d="M266 483h26v15h-26zm27 0h21v15h-21z" fill="#f0f0cc" stroke="#787866"/>"     "     <path d="M315 483h22v15h-22zm23 0h15v15h-15zm16 0h24v15h-24z" stroke="#787866" fill="#f0f0cd"/>"     "     "     <path d="M379 483h24v15h-24zm25 0h19v15h-19z" fill="#f0f0ce" stroke="#787867"/>"     "     <path d="M424 483h24v15h-24zm25 0h19v15h-19zm20 0h25v15h-25z" stroke="#787867" fill="#f0f0cf"/>"     "     "     <path d="M495 483h24v15h-24zm25 0h25v14h-25z" fill="#f0f0d0" stroke="#787868"/>"     "     <path d="M546 483h27v14h-27zm28 0h21v14h-21z" stroke="#787868" fill="#f0f0d1"/>"     "     <path d="M596 483h20v14h-20zm21 0h25v14h-25zm26 0h26v14h-26z" fill="#f0f0d2" stroke="#787869"/>"     "     "     <path d="M670 483h18v14h-18zm19 0h25v14h-25z" stroke="#787869" fill="#f0f0d3"/>"     "     <path d="M715 483h16v14h-16zm17 0h16v14h-16zm17 0h25v14h-25z" fill="#f0f0d4" stroke="#78786a"/>"     "     "     <path d="M775 483h17v14h-17zm18 0h22v14h-22z" stroke="#78786a" fill="#f0f0d5"/>"     "     <path d="M816 483h17v14h-17zm18 0h14v14h-14z" fill="#f0f0d6" stroke="#78786b"/>"     "     <path d="M849 483h17v14h-17zm18 0h23v14h-23zm24 0h23v14h-23z" stroke="#78786b" fill="#f0f0d7"/>"     "     "     <path d="M915 483h22v14h-22zm23 0h18v14h-18z" fill="#f0f0d8" stroke="#78786c"/>"     "     <path d="M957 483h17v14h-17zm18 0h17v14h-17zm18 0h21v14h-21z" stroke="#78786c" fill="#f0f0d9"/>"     "     "     <path d="M1015 483h8v13h-8zM32 500h13v11H32z" fill="#f0f0da" stroke="#78786d"/>"     "     <path d="M46 500h12v11H46zm13 0h18v11H59z" stroke="#78786d" fill="#f0f0db"/>"     "     <path d="M78 500h13v11H78zm14 0h23v11H92zm24 0h15v11h-15z" fill="#f0f0dc" stroke="#78786e"/>"     "     "     <path d="M132 500h18v11h-18zm19 0h15v11h-15z" stroke="#78786e" fill="#f0f0dd"/>"     "     <path d="M167 500h23v11h-23zm24 0h16v11h-16zm17 0h11v11h-11z" fill="#f0f0de" stroke="#78786f"/>"     "     "     <path d="M220 500h23v11h-23zm24 0h13v11h-13z" stroke="#78786f" fill="#f0f0df"/>"     "     <path d="M258 500h20v11h-20zm21 0h11v11h-11z" fill="#f0f0e0" stroke="#787870"/>"     "     <path d="M291 500h24v11h-24zm25 0h13v11h-13zm14 0h18v11h-18z" stroke="#787870" fill="#f0f0e1"/>"     "     "     <path d="M349 500h21v11h-21zm22 0h16v11h-16z" fill="#f0f0e2" stroke="#787871"/>"     "     <path d="M388 500h29v11h-29zm30 0h15v11h-15zm16 0h14v11h-14z" stroke="#787871" fill="#f0f0e3"/>"     "     "     <path d="M449 500h16v11h-16zm17 0h13v11h-13z" fill="#f0f0e4" stroke="#787872"/>"     "     <path d="M480 500h23v11h-23zm24 0h14v11h-14z" stroke="#787872" fill="#f0f0e5"/>"     "     <path d="M519 500h17v11h-17zm18 0h11v10h-11zm12 0h10v10h-10z" fill="#f0f0e6" stroke="#787873"/>"     "     "     <path d="M560 500h16v10h-16zm17 0h16v10h-16z" stroke="#787873" fill="#f0f0e7"/>"     "     <path d="M594 500h24v10h-24zm25 0h28v10h-28zm29 0h30v10h-30z" fill="#f0f0e8" stroke="#787874"/>"     "     "     <path d="M679 500h28v10h-28zm29 0h28v10h-28z" stroke="#787874" fill="#f0f0e9"/>"     "     <path d="M737 500h18v10h-18zm19 0h15v10h-15z" fill="#f0f0ea" stroke="#787875"/>"     "     <path d="M772 500h20v10h-20zm21 0h29v10h-29zm30 0h23v10h-23z" stroke="#787875" fill="#f0f0eb"/>"     "     "     <path d="M847 500h12v10h-12zm13 0h14v10h-14z" fill="#f0f0ec" stroke="#787876"/>"     "     <path d="M875 500h12v10h-12zm13 0h24v10h-24zm25 0h21v10h-21z" stroke="#787876" fill="#f0f0ed"/>"     "     "     <path d="M935 500h11v10h-11zm12 0h28v10h-28z" fill="#f0f0ee" stroke="#787877"/>"     "     <path d="M976 500h23v10h-23zm24 0h24v10h-24z" stroke="#787877" fill="#f0f0ef"/>"     "     <text y="526" font-size="12" fill="#000" x="0"> MaxRectsBin(size: 1024x512, choice: BestLongSideFit, method: MaximizeArea): inserted 1384 of 1536 rectangles with w/h lengths between [2, 31], occupancy: 72.74% </text></svg>