<svg xmlns="http://www.w3.org/2000/svg" viewBox="0 0 1024 536" xmlns:v="https://vecta.io/nano"><path d="M0 0h1024v512H0z" fill="#fff" stroke="#000"/>"     <path d="M1 1h1v13H1zm0 14h1v15H1z" fill="#303030" stroke="#181818"/>"     "     <path d="M1 31h1v7H1z" fill="#303130" stroke="#181818"/>"     <g stroke="#181918"><path d="M1 39h1v15H1z" fill="#303230"/><path d="M1 55h1v12H1zm0 13h1v22H1z" fill="#303330"/></g>"     "     "     <g stroke="#181a18"><path d="M1 91h1v23H1z" fill="#303430"/><path d="M1 115h1v27H1z" fill="#303530"/></g>"     "     <path d="M1 143h1v17H1zm0 18h1v30H1z" fill="#303630" stroke="#181b18"/>"     "     <path d="M1 192h1v17H1z" fill="#303730" stroke="#181b18"/>"     <g stroke="#181c18"><path d="M1 210h1v14H1z" fill="#303830"/><path d="M1 225h1v12H1zm0 13h1v14H1z" fill="#303930"/></g>"     "     "     <g stroke="#181d18"><path d="M1 253h1v19H1z" fill="#303a30"/><path d="M1 273h1v20H1z" fill="#303b30"/></g>"     "     <path d="M1 294h1v21H1zm0 22h1v4H1z" fill="#303c30" stroke="#181e18"/>"     "     <path d="M1 321h1v21H1z" fill="#303d30" stroke="#181e18"/>"     <g stroke="#181f18"><path d="M1 343h1v16H1z" fill="#303e30"/><path d="M1 360h1v21H1zm0 22h1v19H1z" fill="#303f30"/></g>"     "     "     <g stroke="#182018"><path d="M1 402h1v8H1z" fill="#304030"/><path d="M1 411h1v12H1z" fill="#304130"/></g>"     "     <g stroke="#182118"><path d="M1 424h1v19H1z" fill="#304230"/><path d="M1 444h1v14H1zm0 15h1v4H1z" fill="#304330"/></g>"     "     "     <g stroke="#182218"><path d="M1 464h1v15H1z" fill="#304430"/><path d="M1 480h1v11H1z" fill="#304530"/></g>"     "     <path d="M1 492h1v15H1zm0 16h1v3H1z" fill="#304630" stroke="#182318"/>"     "     <path d="M3 1h1v23H3z" fill="#304730" stroke="#182318"/>"     <g stroke="#182418"><path d="M3 25h1v24H3z" fill="#304830"/><path d="M3 50h1v1H3zm0 2h1v13H3z" fill="#304930"/></g>"     "     "     <g stroke="#182518"><path d="M3 66h1v3H3z" fill="#304a30"/><path d="M3 70h1v22H3z" fill="#304b30"/></g>"     "     <path d="M3 93h1v26H3zm0 27h1v2H3z" fill="#304c30" stroke="#182618"/>"     "     <path d="M3 123h1v14H3z" fill="#304d30" stroke="#182618"/>"     <g stroke="#182718"><path d="M3 138h1v4H3z" fill="#304e30"/><path d="M3 143h1v26H3zm0 27h1v7H3z" fill="#304f30"/></g>"     "     "     <g stroke="#182818"><path d="M3 178h1v7H3z" fill="#305030"/><path d="M3 186h1v23H3z" fill="#305130"/></g>"     "     <g stroke="#182918"><path d="M3 210h1v26H3z" fill="#305230"/><path d="M3 237h1v6H3zm0 7h1v3H3z" fill="#305330"/></g>"     "     "     <g stroke="#182a18"><path d="M3 248h1v15H3z" fill="#305430"/><path d="M3 264h2v28H3z" fill="#305530"/></g>"     "     <path d="M3 293h2v14H3zm0 15h2v28H3z" fill="#305630" stroke="#182b18"/>"     "     <path d="M3 337h2v18H3z" fill="#305730" stroke="#182b18"/>"     <g stroke="#182c18"><path d="M3 356h2v12H3z" fill="#305830"/><path d="M3 369h2v21H3zm0 22h2v6H3z" fill="#305930"/></g>"     "     "     <g stroke="#182d18"><path d="M3 398h2v23H3z" fill="#305a30"/><path d="M3 422h2v21H3z" fill="#305b30"/></g>"     "     <path d="M3 444h2v15H3zm0 16h2v19H3z" fill="#305c30" stroke="#182e18"/>"     "     <path d="M3 480h2v8H3z" fill="#305d30" stroke="#182e18"/>"     <g stroke="#182f18"><path d="M3 489h2v20H3z" fill="#305e30"/><path d="M3 510h2v1H3zM5 1h2v13H5z" fill="#305f30"/></g>"     "     "     <g stroke="#183018"><path d="M5 15h2v7H5z" fill="#306030"/><path d="M5 23h2v1H5z" fill="#306130"/></g>"     "     <path d="M5 25h2v22H5zm0 23h2v23H5z" fill="#306230" stroke="#183118"/>"     "     <path d="M5 72h2v13H5z" fill="#306330" stroke="#183118"/>"     <g stroke="#183218"><path d="M5 86h2v14H5z" fill="#306430"/><path d="M5 101h2v9H5z" fill="#306530"/></g>"     "     <path d="M5 111h2v15H5zm0 16h2v22H5z" fill="#306630" stroke="#183318"/>"     "     <path d="M5 150h2v5H5z" fill="#306730" stroke="#183318"/>"     <g stroke="#183418"><path d="M5 156h2v5H5z" fill="#306830"/><path d="M5 162h2v2H5zm0 3h2v21H5z" fill="#306930"/></g>"     "     "     <g stroke="#183518"><path d="M5 187h2v10H5z" fill="#306a30"/><path d="M5 198h2v1H5z" fill="#306b30"/></g>"     "     <path d="M5 200h2v24H5zm0 25h2v24H5z" fill="#306c30" stroke="#183618"/>"     "     <path d="M5 250h23v2H5z" fill="#306d30" stroke="#183618"/>"     <g stroke="#183718"><path d="M5 253h2v2H5z" fill="#306e30"/><path d="M5 256h27v2H5zm0 3h20v2H5z" fill="#306f30"/></g>"     "     "     <g stroke="#183818"><path d="M6 264h2v3H6z" fill="#307030"/><path d="M5 262h3v1H5z" fill="#307130"/></g>"     "     <path d="M6 268h2v25H6zm0 26h2v5H6z" fill="#307230" stroke="#183918"/>"     "     <path d="M6 300h2v24H6z" fill="#307330" stroke="#183918"/>"     <g stroke="#183a18"><path d="M6 325h2v7H6z" fill="#307430"/><path d="M6 333h2v11H6z" fill="#307530"/></g>"     "     <path d="M6 345h2v30H6zm0 31h2v6H6z" fill="#307630" stroke="#183b18"/>"     "     <path d="M6 383h3v17H6z" fill="#307730" stroke="#183b18"/>"     <g stroke="#183c18"><path d="M6 401h3v8H6z" fill="#307830"/><path d="M6 410h3v18H6zm0 19h3v18H6z" fill="#307930"/></g>"     "     "     <g stroke="#183d18"><path d="M6 448h3v10H6z" fill="#307a30"/><path d="M6 459h3v13H6z" fill="#307b30"/></g>"     "     <path d="M6 473h3v28H6zm0 29h11v3H6z" fill="#307c30" stroke="#183e18"/>"     "     <path d="M6 506h26v3H6z" fill="#307d30" stroke="#183e18"/>"     <g stroke="#183f18"><path d="M6 510h3v1H6z" fill="#307e30"/><path d="M8 1h3v2H8zm0 252h3v2H8z" fill="#307f30"/></g>"     "     "     <g stroke="#184018"><path d="M8 4h3v30H8z" fill="#308030"/><path d="M8 35h3v10H8z" fill="#308130"/></g>"     "     <path d="M8 46h3v25H8zm0 26h3v24H8z" fill="#308230" stroke="#184118"/>"     "     <path d="M8 97h3v26H8z" fill="#308330" stroke="#184118"/>"     <g stroke="#184218"><path d="M8 124h3v16H8z" fill="#308430"/><path d="M8 141h3v17H8zm0 18h3v6H8z" fill="#308530"/></g>"     "     "     <g stroke="#184318"><path d="M8 166h3v7H8z" fill="#308630"/><path d="M8 174h3v27H8z" fill="#308730"/></g>"     "     <g stroke="#184418"><path d="M8 202h3v13H8z" fill="#308830"/><path d="M8 216h3v19H8zm0 20h21v3H8z" fill="#308930"/></g>"     "     "     <g stroke="#184518"><path d="M8 240h15v3H8z" fill="#308a30"/><path d="M8 244h3v4H8z" fill="#308b30"/></g>"     "     <path d="M9 262h3v28H9zm0 29h3v23H9z" fill="#308c30" stroke="#184618"/>"     "     <path d="M9 315h3v14H9z" fill="#308d30" stroke="#184618"/>"     <g stroke="#184718"><path d="M9 330h3v9H9z" fill="#308e30"/><path d="M9 340h3v26H9zm0 27h24v3H9z" fill="#308f30"/></g>"     "     "     <g stroke="#184818"><path d="M9 371h30v3H9z" fill="#309030"/><path d="M9 375h12v3H9z" fill="#309130"/></g>"     "     <path d="M9 379h13v3H9zm1 4h3v18h-3z" fill="#309230" stroke="#184918"/>"     "     <path d="M10 402h3v28h-3z" fill="#309330" stroke="#184918"/>"     <g stroke="#184a18"><path d="M10 431h3v26h-3z" fill="#309430"/><path d="M10 458h3v8h-3zm0 9h3v29h-3z" fill="#309530"/></g>"     "     "     <g stroke="#184b18"><path d="M10 497h13v3H10z" fill="#309630"/><path d="M10 510h4v1h-4z" fill="#309730"/></g>"     "     <g stroke="#184c18"><path d="M12 1h3v22h-3z" fill="#309830"/><path d="M12 244h6v3h-6zm0-220h3v10h-3z" fill="#309930"/></g>"     "     "     <g stroke="#184d18"><path d="M12 35h3v10h-3z" fill="#309a30"/><path d="M12 46h3v15h-3z" fill="#309b30"/></g>"     "     <path d="M12 62h3v27h-3zm0 28h3v22h-3z" fill="#309c30" stroke="#184e18"/>"     "     <path d="M12 113h3v27h-3z" fill="#309d30" stroke="#184e18"/>"     <g stroke="#184f18"><path d="M12 141h3v12h-3z" fill="#309e30"/><path d="M12 154h3v26h-3zm0 27h3v11h-3z" fill="#309f30"/></g>"     "     "     <g stroke="#185018"><path d="M12 193h3v20h-3z" fill="#30a030"/><path d="M12 214h3v14h-3z" fill="#30a130"/></g>"     "     <path d="M12 229h25v3H12zm1 33h3v19h-3z" fill="#30a230" stroke="#185118"/>"     "     <path d="M13 282h3v29h-3z" fill="#30a330" stroke="#185118"/>"     <g stroke="#185218"><path d="M13 312h3v27h-3z" fill="#30a430"/><path d="M13 340h3v20h-3zm0 21h3v5h-3z" fill="#30a530"/></g>"     "     "     <g stroke="#185318"><path d="M12 253h5v1h-5z" fill="#30a630"/><path d="M14 383h3v8h-3z" fill="#30a730"/></g>"     "     <path d="M12 233h5v2h-5zm2 159h3v10h-3z" fill="#30a830" stroke="#185418"/>"     "     <path d="M14 403h3v30h-3z" fill="#30a930" stroke="#185418"/>"     <g stroke="#185518"><path d="M14 434h4v25h-4z" fill="#30aa30"/><path d="M14 460h4v9h-4z" fill="#30ab30"/></g>"     "     <path d="M14 470h4v22h-4zm0 23h4v3h-4z" fill="#30ac30" stroke="#185618"/>"     "     <path d="M16 1h4v5h-4z" fill="#30ad30" stroke="#185618"/>"     <g stroke="#185718"><path d="M15 510h5v1h-5z" fill="#30ae30"/><path d="M16 7h4v30h-4zm0 31h4v28h-4z" fill="#30af30"/></g>"     "     "     <g stroke="#185818"><path d="M16 67h4v26h-4z" fill="#30b030"/><path d="M16 94h4v9h-4z" fill="#30b130"/></g>"     "     <path d="M16 104h4v12h-4zm0 13h4v18h-4z" fill="#30b230" stroke="#185918"/>"     "     <path d="M16 136h4v17h-4z" fill="#30b330" stroke="#185918"/>"     <g stroke="#185a18"><path d="M16 154h4v11h-4z" fill="#30b430"/><path d="M16 166h4v12h-4zm0 13h4v18h-4z" fill="#30b530"/></g>"     "     "     <g stroke="#185b18"><path d="M16 198h4v5h-4z" fill="#30b630"/><path d="M16 204h29v4H16z" fill="#30b730"/></g>"     "     <path d="M16 209h4v9h-4zm0 10h23v4H16z" fill="#30b830" stroke="#185c18"/>"     "     <path d="M16 224h28v4H16z" fill="#30b930" stroke="#185c18"/>"     <g stroke="#185d18"><path d="M17 262h4v24h-4z" fill="#30ba30"/><path d="M17 287h4v17h-4z" fill="#30bb30"/></g>"     "     <path d="M17 305h4v7h-4zm0 8h4v14h-4z" fill="#30bc30" stroke="#185e18"/>"     "     <path d="M17 328h4v27h-4z" fill="#30bd30" stroke="#185e18"/>"     <g stroke="#185f18"><path d="M17 356h25v4H17z" fill="#30be30"/><path d="M17 361h4v5h-4zm1 22h4v8h-4z" fill="#30bf30"/></g>"     "     "     <g stroke="#186018"><path d="M18 392h4v13h-4z" fill="#30c030"/><path d="M18 406h4v26h-4z" fill="#30c130"/></g>"     "     <path d="M18 253h5v1h-5zm0 249h5v2h-5z" fill="#30c230" stroke="#186118"/>"     "     <path d="M18 233h5v2h-5z" fill="#30c330" stroke="#186118"/>"     <g stroke="#186218"><path d="M19 434h4v17h-4z" fill="#30c430"/><path d="M19 452h4v7h-4zm0-208h5v3h-5z" fill="#30c530"/></g>"     "     "     <g stroke="#186318"><path d="M19 460h5v23h-5z" fill="#30c630"/><path d="M19 484h22v5H19z" fill="#30c730"/></g>"     "     <path d="M19 490h24v5H19zM21 1h5v12h-5z" fill="#30c830" stroke="#186418"/>"     "     <path d="M21 510h5v1h-5z" fill="#30c930" stroke="#186418"/>"     <g stroke="#186518"><path d="M21 209h27v5H21z" fill="#30ca30"/><path d="M21 14h5v25h-5zm0 26h5v28h-5z" fill="#30cb30"/></g>"     "     "     <g stroke="#186618"><path d="M21 69h5v7h-5z" fill="#30cc30"/><path d="M21 77h5v30h-5z" fill="#30cd30"/></g>"     "     <g stroke="#186718"><path d="M21 108h5v16h-5z" fill="#30ce30"/><path d="M21 125h5v22h-5zm0 23h5v23h-5z" fill="#30cf30"/></g>"     "     "     <g stroke="#186818"><path d="M21 172h5v11h-5z" fill="#30d030"/><path d="M21 184h20v5H21z" fill="#30d130"/></g>"     "     <path d="M21 190h5v6h-5zm0 7h15v5H21z" fill="#30d230" stroke="#186918"/>"     "     <path d="M22 262h5v13h-5z" fill="#30d330" stroke="#186918"/>"     <g stroke="#186a18"><path d="M22 361h5v5h-5z" fill="#30d430"/><path d="M21 215h6v3h-6zm1 61h5v7h-5z" fill="#30d530"/></g>"     "     "     <g stroke="#186b18"><path d="M22 284h5v23h-5z" fill="#30d630"/><path d="M22 308h5v30h-5z" fill="#30d730"/></g>"     "     <path d="M22 339h5v8h-5zm0 9h18v5H22z" fill="#30d830" stroke="#186c18"/>"     "     <path d="M23 379h5v23h-5z" fill="#30d930" stroke="#186c18"/>"     <g stroke="#186d18"><path d="M22 375h6v3h-6z" fill="#30da30"/><path d="M23 403h5v6h-5zm0 7h27v5H23z" fill="#30db30"/></g>"     "     "     <g stroke="#186e18"><path d="M22 354h6v1h-6z" fill="#30dc30"/><path d="M23 416h30v5H23z" fill="#30dd30"/></g>"     "     <g stroke="#186f18"><path d="M23 422h29v5H23z" fill="#30de30"/><path d="M23 428h5v4h-5zm1 6h5v23h-5z" fill="#30df30"/></g>"     "     "     <g stroke="#187018"><path d="M24 253h6v1h-6z" fill="#30e030"/><path d="M24 502h6v2h-6z" fill="#30e130"/></g>"     "     <path d="M24 240h6v3h-6zm0 257h6v3h-6z" fill="#30e230" stroke="#187118"/>"     "     <path d="M24 233h6v2h-6z" fill="#30e330" stroke="#187118"/>"     <g stroke="#187218"><path d="M25 460h27v5H25z" fill="#30e430"/><path d="M25 466h22v5H25zm0 6h15v5H25z" fill="#30e530"/></g>"     "     "     <g stroke="#187318"><path d="M25 478h20v5H25z" fill="#30e630"/><path d="M25 244h6v2h-6z" fill="#30e730"/></g>"     "     <path d="M24 458h7v1h-7zM27 1h5v14h-5z" fill="#30e830" stroke="#187418"/>"     "     <path d="M27 190h21v5H27z" fill="#30e930" stroke="#187418"/>"     <g stroke="#187518"><path d="M27 16h5v30h-5z" fill="#30ea30"/><path d="M27 47h5v15h-5zm0 16h5v15h-5z" fill="#30eb30"/></g>"     "     "     <g stroke="#187618"><path d="M27 79h5v24h-5z" fill="#30ec30"/><path d="M27 104h5v19h-5z" fill="#30ed30"/></g>"     "     <path d="M27 124h5v19h-5zm0 20h5v16h-5z" fill="#30ee30" stroke="#187718"/>"     "     <path d="M27 161h5v5h-5z" fill="#30ef30" stroke="#187718"/>"     <g stroke="#187818"><path d="M27 167h5v4h-5z" fill="#30f030"/><path d="M27 172h23v5H27z" fill="#31f030"/></g>"     "     <path d="M27 178h13v5H27zm1 84h5v14h-5z" fill="#32f030" stroke="#197818"/>"     "     <path d="M26 259h7v2h-7z" fill="#33f030" stroke="#197818"/>"     <g stroke="#1a7818"><path d="M28 277h5v7h-5z" fill="#34f030"/><path d="M28 285h6v8h-6zm0 76h6v4h-6z" fill="#35f030"/></g>"     "     "     <g stroke="#1b7818"><path d="M28 294h6v18h-6z" fill="#36f030"/><path d="M28 313h6v26h-6z" fill="#37f030"/></g>"     "     <path d="M28 340h14v6H28zm1 35h6v9h-6z" fill="#38f030" stroke="#1c7818"/>"     "     <path d="M28 215h7v3h-7z" fill="#39f030" stroke="#1c7818"/>"     <g stroke="#1d7818"><path d="M29 385h6v10h-6z" fill="#3af030"/><path d="M29 396h6v6h-6zm0 7h13v6H29z" fill="#3bf030"/></g>"     "     "     <g stroke="#1e7818"><path d="M30 434h6v10h-6z" fill="#3cf030"/><path d="M29 428h7v4h-7z" fill="#3df030"/></g>"     "     <path d="M30 445h19v6H30zm-1-195h8v2h-8z" fill="#3ef030" stroke="#1f7818"/>"     "     <path d="M27 510h10v1H27z" fill="#3ff030" stroke="#1f7818"/>"     <g stroke="#207818"><path d="M30 236h7v3h-7z" fill="#40f030"/><path d="M30 452h7v5h-7z" fill="#41f030"/></g>"     "     <path d="M33 1h6v7h-6zm-2 239h8v3h-8z" fill="#42f030" stroke="#217818"/>"     "     <path d="M29 354h10v1H29z" fill="#43f030" stroke="#217818"/>"     <g stroke="#227818"><path d="M33 9h6v27h-6z" fill="#44f030"/><path d="M33 37h6v23h-6zm0 24h6v29h-6z" fill="#45f030"/></g>"     "     "     <g stroke="#237818"><path d="M33 91h6v14h-6z" fill="#46f030"/><path d="M33 106h6v29h-6z" fill="#47f030"/></g>"     "     <path d="M33 136h6v14h-6zm0 15h6v20h-6z" fill="#48f030" stroke="#247818"/>"     "     <path d="M34 259h6v15h-6z" fill="#49f030" stroke="#247818"/>"     <g stroke="#257818"><path d="M31 502h9v2h-9z" fill="#4af030"/><path d="M31 497h9v3h-9zm0-264h9v2h-9z" fill="#4bf030"/></g>"     "     "     <g stroke="#267818"><path d="M34 275h6v7h-6z" fill="#4cf030"/><path d="M35 285h6v23h-6z" fill="#4df030"/></g>"     "     <path d="M32 244h9v2h-9zm3 65h6v27h-6z" fill="#4ef030" stroke="#277818"/>"     "     <path d="M31 253h11v1H31z" fill="#4ff030" stroke="#277818"/>"     <g stroke="#287818"><path d="M36 375h6v21h-6z" fill="#50f030"/><path d="M33 506h9v3h-9zm2-145h7v4h-7z" fill="#51f030"/></g>"     "     "     <g stroke="#297818"><path d="M33 256h10v2H33z" fill="#52f030"/><path d="M37 434h21v6H37z" fill="#53f030"/></g>"     "     <g stroke="#2a7818"><path d="M36 397h7v5h-7z" fill="#54f030"/><path d="M32 458h11v1H32zm2-91h11v3H34z" fill="#55f030"/></g>"     "     "     <g stroke="#2b7818"><path d="M37 197h8v4h-8z" fill="#56f030"/><path d="M40 1h6v18h-6z" fill="#57f030"/></g>"     "     <path d="M37 428h9v4h-9zm1 24h8v5h-8z" fill="#58f030" stroke="#2c7818"/>"     "     <path d="M34 283h12v1H34z" fill="#59f030" stroke="#2c7818"/>"     <g stroke="#2d7818"><path d="M35 337h11v2H35z" fill="#5af030"/><path d="M40 20h6v22h-6zm0 23h6v13h-6z" fill="#5bf030"/></g>"     "     "     <g stroke="#2e7818"><path d="M40 57h6v18h-6z" fill="#5cf030"/><path d="M40 76h6v7h-6z" fill="#5df030"/></g>"     "     <path d="M40 84h6v19h-6zm0 20h6v10h-6z" fill="#5ef030" stroke="#2f7818"/>"     "     <path d="M40 115h6v12h-6z" fill="#5ff030" stroke="#2f7818"/>"     <g stroke="#307818"><path d="M40 128h6v8h-6z" fill="#60f030"/><path d="M36 215h11v3H36zm4-78h7v28h-7z" fill="#61f030"/></g>"     "     "     <g stroke="#317818"><path d="M41 259h30v7H41z" fill="#62f030"/><path d="M40 166h8v5h-8z" fill="#63f030"/></g>"     "     <g stroke="#327818"><path d="M41 267h7v12h-7z" fill="#64f030"/><path d="M42 285h7v26h-7zm-2-66h9v4h-9z" fill="#65f030"/></g>"     "     "     <g stroke="#337818"><path d="M37 441h12v3H37z" fill="#66f030"/><path d="M42 312h30v7H42z" fill="#67f030"/></g>"     "     <path d="M42 320h17v7H42zm0 8h29v7H42z" fill="#68f030" stroke="#347818"/>"     "     <path d="M38 250h12v1H38z" fill="#69f030" stroke="#347818"/>"     <g stroke="#357818"><path d="M43 375h24v7H43z" fill="#6af030"/><path d="M38 510h12v1H38zm0-274h12v2H38z" fill="#6bf030"/></g>"     "     "     <g stroke="#367818"><path d="M38 229h12v1H38z" fill="#6cf030"/><path d="M43 356h18v7H43z" fill="#6df030"/></g>"     "     <path d="M41 348h9v5h-9zm2-8h7v6h-7z" fill="#6ef030" stroke="#377818"/>"     "     <path d="M43 383h7v10h-7z" fill="#6ff030" stroke="#377818"/>"     <g stroke="#387818"><path d="M38 231h12v1H38z" fill="#70f030"/><path d="M41 472h10v4H41zm0-294h10v5H41z" fill="#71f030"/></g>"     "     "     <g stroke="#397818"><path d="M40 240h12v2H40z" fill="#72f030"/><path d="M40 371h12v3H40z" fill="#73f030"/></g>"     "     <path d="M40 354h12v1H40zm2 130h11v4H42z" fill="#74f030" stroke="#3a7818"/>"     "     <path d="M42 184h11v4H42z" fill="#75f030" stroke="#3a7818"/>"     <g stroke="#3b7818"><path d="M43 403h10v6H43z" fill="#76f030"/><path d="M47 1h7v18h-7z" fill="#77f030"/></g>"     "     <path d="M41 502h13v2H41zm0-5h13v2H41z" fill="#78f030" stroke="#3c7818"/>"     "     <path d="M41 233h13v1H41z" fill="#79f030" stroke="#3c7818"/>"     <g stroke="#3d7818"><path d="M41 280h13v2H41z" fill="#7af030"/><path d="M47 20h7v18h-7zm0 19h7v29h-7z" fill="#7bf030"/></g>"     "     "     <g stroke="#3e7818"><path d="M47 69h7v27h-7z" fill="#7cf030"/><path d="M47 97h7v21h-7z" fill="#7df030"/></g>"     "     <path d="M47 119h30v7H47zm0 8h23v7H47z" fill="#7ef030" stroke="#3f7818"/>"     "     <path d="M44 397h11v5H44z" fill="#7ff030" stroke="#3f7818"/>"     <g stroke="#407818"><path d="M44 490h11v5H44z" fill="#80f030"/><path d="M48 137h30v7H48zm0 8h7v12h-7z" fill="#81f030"/></g>"     "     "     <g stroke="#417818"><path d="M48 158h16v7H48z" fill="#82f030"/><path d="M43 506h13v3H43z" fill="#83f030"/></g>"     "     <path d="M42 244h14v1H42zm7 23h7v7h-7z" fill="#84f030" stroke="#427818"/>"     "     <path d="M50 285h7v9h-7z" fill="#85f030" stroke="#427818"/>"     <g stroke="#437818"><path d="M50 441h29v7H50z" fill="#86f030"/><path d="M43 394h14v2H43z" fill="#87f030"/></g>"     "     <path d="M50 295h22v7H50zm0 8h21v7H50z" fill="#88f030" stroke="#447818"/>"     "     <path d="M43 253h15v1H43z" fill="#89f030" stroke="#447818"/>"     <g stroke="#457818"><path d="M44 256h14v2H44z" fill="#8af030"/><path d="M45 224h13v4H45zm1 254h12v5H46z" fill="#8bf030"/></g>"     "     "     <g stroke="#467818"><path d="M51 383h11v7H51z" fill="#8cf030"/><path d="M43 364h15v1H43z" fill="#8df030"/></g>"     "     <path d="M46 367h13v3H46zm0-163h13v4H46z" fill="#8ef030" stroke="#477818"/>"     "     <path d="M46 197h13v3H46z" fill="#8ff030" stroke="#477818"/>"     <g stroke="#487818"><path d="M47 452h12v5H47z" fill="#90f030"/><path d="M47 428h13v4H47zm-3 30h16v1H44z" fill="#91f030"/></g>"     "     "     <g stroke="#497818"><path d="M55 1h7v28h-7z" fill="#92f030"/><path d="M48 215h14v3H48z" fill="#93f030"/></g>"     "     <path d="M48 466h14v5H48zm3-126h11v6H51z" fill="#94f030" stroke="#4a7818"/>"     "     <path d="M47 337h15v2H47z" fill="#95f030" stroke="#4a7818"/>"     <g stroke="#4b7818"><path d="M55 30h7v13h-7z" fill="#96f030"/><path d="M55 44h7v28h-7zm0 29h7v26h-7z" fill="#97f030"/></g>"     "     "     <g stroke="#4c7818"><path d="M55 100h7v8h-7z" fill="#98f030"/><path d="M55 109h27v7H55z" fill="#99f030"/></g>"     "     <g stroke="#4d7818"><path d="M49 209h14v4H49z" fill="#9af030"/><path d="M56 145h14v7H56zm-7 45h15v5H49z" fill="#9bf030"/></g>"     "     "     <g stroke="#4e7818"><path d="M47 283h17v1H47z" fill="#9cf030"/><path d="M49 166h15v4H49z" fill="#9df030"/></g>"     "     <path d="M57 267h8v7h-8zm-8 8h15v3H49z" fill="#9ef030" stroke="#4f7818"/>"     "     <path d="M58 285h18v7H58z" fill="#9ff030" stroke="#4f7818"/>"     <g stroke="#507818"><path d="M50 219h15v4H50z" fill="#a0f030"/><path d="M54 403h11v6H54zm-7-268h18v1H47z" fill="#a1f030"/></g>"     "     "     <g stroke="#517818"><path d="M51 410h15v5H51z" fill="#a2f030"/><path d="M51 348h15v5H51z" fill="#a3f030"/></g>"     "     <path d="M50 449h16v2H50zm1-277h16v4H51z" fill="#a4f030" stroke="#527818"/>"     "     <path d="M60 320h26v7H60z" fill="#a5f030" stroke="#527818"/>"     <g stroke="#537818"><path d="M51 236h17v2H51z" fill="#a6f030"/><path d="M51 229h17v3H51zm1 243h16v4H52z" fill="#a7f030"/></g>"     "     "     <g stroke="#547818"><path d="M52 178h16v4H52z" fill="#a8f030"/><path d="M62 356h14v7H62z" fill="#a9f030"/></g>"     "     <g stroke="#557818"><path d="M53 460h16v5H53z" fill="#aaf030"/><path d="M51 391h18v2H51zM63 1h7v22h-7z" fill="#abf030"/></g>"     "     "     <g stroke="#567818"><path d="M51 250h19v1H51z" fill="#acf030"/><path d="M51 510h19v1H51z" fill="#adf030"/></g>"     "     <path d="M53 371h17v3H53zm6 63h11v6H59z" fill="#aef030" stroke="#577818"/>"     "     <path d="M63 337h16v7H63z" fill="#aff030" stroke="#577818"/>"     <g stroke="#587818"><path d="M63 383h19v7H63z" fill="#b0f030"/><path d="M63 24h7v28h-7zm0 29h7v27h-7z" fill="#b1f030"/></g>"     "     "     <g stroke="#597818"><path d="M63 81h7v25h-7z" fill="#b2f030"/><path d="M53 240h18v2H53z" fill="#b3f030"/></g>"     "     <path d="M53 422h18v3H53zm1 62h18v3H54z" fill="#b4f030" stroke="#5a7818"/>"     "     <path d="M54 184h18v2H54z" fill="#b5f030" stroke="#5a7818"/>"     <g stroke="#5b7818"><path d="M53 354h19v1H53z" fill="#b6f030"/><path d="M54 416h18v3H54zm11-258h26v7H65z" fill="#b7f030"/></g>"     "     "     <g stroke="#5c7818"><path d="M53 426h19v1H53z" fill="#b8f030"/><path d="M55 502h18v2H55z" fill="#b9f030"/></g>"     "     <path d="M66 267h24v7H66zM55 497h19v2H55z" fill="#baf030" stroke="#5d7818"/>"     "     <path d="M55 280h19v2H55z" fill="#bbf030" stroke="#5d7818"/>"     <g stroke="#5e7818"><path d="M54 187h20v1H54z" fill="#bcf030"/><path d="M68 375h15v7H68z" fill="#bdf030"/></g>"     "     <path d="M56 397h19v4H56zm0 93h19v4H56z" fill="#bef030" stroke="#5f7818"/>"     "     <path d="M56 153h19v2H56z" fill="#bff030" stroke="#5f7818"/>"     <g stroke="#607818"><path d="M54 420h21v1H54z" fill="#c0f030"/><path d="M57 506h19v2H57zm-2-273h22v1H55z" fill="#c1f030"/></g>"     "     "     <g stroke="#617818"><path d="M66 403h11v6H66z" fill="#c2f030"/><path d="M58 394h19v2H58z" fill="#c3f030"/></g>"     "     <path d="M55 117h22v1H55zM71 1h7v25h-7z" fill="#c4f030" stroke="#627818"/>"     "     <path d="M59 478h19v5H59z" fill="#c5f030" stroke="#627818"/>"     <g stroke="#637818"><path d="M71 127h12v7H71z" fill="#c6f030"/><path d="M59 256h20v2H59zm0-32h20v3H59z" fill="#c7f030"/></g>"     "     "     <g stroke="#647818"><path d="M71 145h8v7h-8z" fill="#c8f030"/><path d="M56 156h23v1H56z" fill="#c9f030"/></g>"     "     <path d="M71 27h8v30h-8zm0 31h8v10h-8z" fill="#caf030" stroke="#657818"/>"     "     <path d="M71 69h8v29h-8z" fill="#cbf030" stroke="#657818"/>"     <g stroke="#667818"><path d="M71 99h8v7h-8z" fill="#ccf030"/><path d="M57 244h23v1H57z" fill="#cdf030"/></g>"     "     <path d="M60 367h20v3H60zm0-163h20v3H60z" fill="#cef030" stroke="#677818"/>"     "     <path d="M60 452h20v5H60z" fill="#cff030" stroke="#677818"/>"     <g stroke="#687818"><path d="M72 259h9v7h-9z" fill="#d0f030"/><path d="M60 197h21v2H60zm-2 96h23v1H58z" fill="#d1f030"/></g>"     "     "     <g stroke="#697818"><path d="M61 428h21v2H61z" fill="#d2f030"/><path d="M72 328h10v7H72z" fill="#d3f030"/></g>"     "     <path d="M71 434h13v6H71zm-8-219h21v3H63z" fill="#d4f030" stroke="#6a7818"/>"     "     <path d="M63 466h21v4H63z" fill="#d5f030" stroke="#6a7818"/>"     <g stroke="#6b7818"><path d="M72 303h12v7H72z" fill="#d6f030"/><path d="M64 209h21v2H64zm9 103h12v7H73z" fill="#d7f030"/></g>"     "     "     <g stroke="#6c7818"><path d="M59 253h27v1H59z" fill="#d8f030"/><path d="M65 190h21v5H65z" fill="#d9f030"/></g>"     "     <path d="M59 364h27v1H59zm19-247h25v8H78z" fill="#daf030" stroke="#6d7818"/>"     "     <path d="M65 275h21v2H65z" fill="#dbf030" stroke="#6d7818"/>"     <g stroke="#6e7818"><path d="M73 295h13v6H73z" fill="#dcf030"/><path d="M79 1h8v17h-8zM65 166h22v4H65z" fill="#ddf030"/></g>"     "     "     <g stroke="#6f7818"><path d="M67 410h21v5H67z" fill="#def030"/><path d="M66 219h22v4H66z" fill="#dff030"/></g>"     "     <g stroke="#707818"><path d="M61 458h27v1H61z" fill="#e0f030"/><path d="M80 27h8v9h-8zM61 431h27v1H61z" fill="#e1f030"/></g>"     "     "     <g stroke="#717818"><path d="M80 37h8v9h-8z" fill="#e2f030"/><path d="M80 47h8v25h-8z" fill="#e3f030"/></g>"     "     <path d="M80 73h8v27h-8zM67 348h22v5H67z" fill="#e4f030" stroke="#727818"/>"     "     <path d="M68 172h22v4H68z" fill="#e5f030" stroke="#727818"/>"     <g stroke="#737818"><path d="M67 449h23v2H67z" fill="#e6f030"/><path d="M77 285h14v7H77zm-8-56h22v3H69z" fill="#e7f030"/></g>"     "     "     <g stroke="#747818"><path d="M69 472h22v4H69z" fill="#e8f030"/><path d="M69 178h22v4H69z" fill="#e9f030"/></g>"     "     <path d="M63 107h28v1H63zm0 238h28v1H63z" fill="#eaf030" stroke="#757818"/>"     "     <path d="M77 356h15v6H77z" fill="#ebf030" stroke="#757818"/>"     <g stroke="#767818"><path d="M70 460h22v5H70z" fill="#ecf030"/><path d="M69 236h24v2H69zm2 135h23v3H71z" fill="#edf030"/></g>"     "     "     <g stroke="#777818"><path d="M78 403h16v6H78z" fill="#eef030"/><path d="M79 137h15v7H79z" fill="#eff030"/></g>"     "     <g stroke="#787818"><path d="M70 391h24v2H70z" fill="#f0f030"/><path d="M64 212h30v1H64zm8 210h23v3H72z" fill="#f0f031"/></g>"     "     "     <g stroke="#787819"><path d="M79 19h16v7H79z" fill="#f0f032"/><path d="M88 1h18v8H88z" fill="#f0f033"/></g>"     "     <path d="M80 337h16v7H80zm0 104h16v7H80z" fill="#f0f034" stroke="#78781a"/>"     "     <path d="M80 145h16v6H80z" fill="#f0f035" stroke="#78781a"/>"     <g stroke="#78781b"><path d="M88 10h23v8H88z" fill="#f0f036"/><path d="M72 240h25v2H72zm1 244h24v3H73z" fill="#f0f037"/></g>"     "     "     <g stroke="#78781c"><path d="M89 27h8v21h-8z" fill="#f0f038"/><path d="M89 49h8v23h-8z" fill="#f0f039"/></g>"     "     <path d="M89 73h8v9h-8zm0 10h24v8H89z" fill="#f0f03a" stroke="#78781d"/>"     "     <path d="M89 92h8v8h-8z" fill="#f0f03b" stroke="#78781d"/>"     <g stroke="#78781e"><path d="M82 259h16v6H82z" fill="#f0f03c"/><path d="M76 397h22v4H76zm-3 19h25v3H73z" fill="#f0f03d"/></g>"     "     "     <g stroke="#78781f"><path d="M76 490h23v4H76z" fill="#f0f03e"/><path d="M73 184h26v2H73z" fill="#f0f03f"/></g>"     "     <path d="M74 502h26v2H74zm9-393h17v6H83z" fill="#f0f040" stroke="#787820"/>"     "     <path d="M83 328h17v7H83z" fill="#f0f041" stroke="#787820"/>"     <g stroke="#787821"><path d="M79 478h22v5H79z" fill="#f0f042"/><path d="M83 383h18v7H83z" fill="#f0f043"/></g>"     "     <path d="M84 375h18v6H84zm-9 122h27v2H75z" fill="#f0f044" stroke="#787822"/>"     "     <path d="M75 280h28v2H75z" fill="#f0f045" stroke="#787822"/>"     <g stroke="#787823"><path d="M84 127h19v7H84z" fill="#f0f046"/><path d="M80 101h23v5H80zm5 333h19v6H85z" fill="#f0f047"/></g>"     "     "     <g stroke="#787824"><path d="M81 452h23v5H81z" fill="#f0f048"/><path d="M85 303h19v7H85z" fill="#f0f049"/></g>"     "     <path d="M76 153h28v2H76zm4 71h25v3H80z" fill="#f0f04a" stroke="#787825"/>"     "     <path d="M86 312h19v7H86z" fill="#f0f04b" stroke="#787825"/>"     <g stroke="#787826"><path d="M77 506h29v2H77z" fill="#f0f04c"/><path d="M81 367h25v3H81zM98 27h8v18h-8z" fill="#f0f04d"/></g>"     "     "     <g stroke="#787827"><path d="M98 92h17v8H98z" fill="#f0f04e"/><path d="M98 46h8v28h-8z" fill="#f0f04f"/></g>"     "     <path d="M87 320h20v7H87zm0-25h20v6H87z" fill="#f0f050" stroke="#787828"/>"     "     <path d="M81 204h27v3H81z" fill="#f0f051" stroke="#787828"/>"     <g stroke="#787829"><path d="M78 394h30v2H78z" fill="#f0f052"/><path d="M85 466h24v4H85z" fill="#f0f053"/></g>"     "     <path d="M80 256h30v2H80zm7-66h24v5H87z" fill="#f0f054" stroke="#78782a"/>"     "     <path d="M91 267h20v6H91z" fill="#f0f055" stroke="#78782a"/>"     <g stroke="#78782b"><path d="M92 285h20v7H92z" fill="#f0f056"/><path d="M85 215h27v3H85zm-3-18h30v2H82z" fill="#f0f057"/></g>"     "     "     <g stroke="#78782c"><path d="M92 158h20v6H92z" fill="#f0f058"/><path d="M104 117h17v8h-17z" fill="#f0f059"/></g>"     "     <path d="M89 410h25v5H89zm-1-244h26v4H88z" fill="#f0f05a" stroke="#78782d"/>"     "     <path d="M107 1h21v8h-21z" fill="#f0f05b" stroke="#78782d"/>"     <g stroke="#78782e"><path d="M89 219h26v4H89z" fill="#f0f05c"/><path d="M93 356h22v6H93zm14-329h8v12h-8z" fill="#f0f05d"/></g>"     "     "     <g stroke="#78782f"><path d="M107 40h8v17h-8z" fill="#f0f05e"/><path d="M107 58h17v8h-17z" fill="#f0f05f"/></g>"     "     <path d="M90 348h26v5H90zm5-211h21v7H95z" fill="#f0f060" stroke="#787830"/>"     "     <path d="M95 403h22v6H95z" fill="#f0f061" stroke="#787830"/>"     <g stroke="#787831"><path d="M96 19h22v7H96z" fill="#f0f062"/><path d="M91 172h28v3H91zm6 165h22v7H97z" fill="#f0f063"/></g>"     "     "     <g stroke="#787832"><path d="M97 441h22v7H97z" fill="#f0f064"/><path d="M92 229h28v3H92z" fill="#f0f065"/></g>"     "     <g stroke="#787833"><path d="M112 10h21v8h-21z" fill="#f0f066"/><path d="M93 460h28v5H93zm-1 12h29v3H92z" fill="#f0f067"/></g>"     "     "     <g stroke="#787834"><path d="M92 178h29v4H92z" fill="#f0f068"/><path d="M97 145h24v6H97z" fill="#f0f069"/></g>"     "     <path d="M98 75h23v7H98zm16 8h27v8h-27z" fill="#f0f06a" stroke="#787835"/>"     "     <path d="M99 259h24v6H99z" fill="#f0f06b" stroke="#787835"/>"     <g stroke="#787836"><path d="M95 371h29v3H95z" fill="#f0f06c"/><path d="M101 328h23v7h-23zm15-301h8v8h-8z" fill="#f0f06d"/></g>"     "     "     <g stroke="#787837"><path d="M116 92h9v8h-9z" fill="#f0f06e"/><path d="M116 36h26v8h-26z" fill="#f0f06f"/></g>"     "     <path d="M116 45h13v8h-13zm-15 64h24v6h-24z" fill="#f0f070" stroke="#787838"/>"     "     <path d="M102 383h23v7h-23z" fill="#f0f071" stroke="#787838"/>"     <g stroke="#787839"><path d="M96 422h30v3H96z" fill="#f0f072"/><path d="M103 375h25v6h-25zm-4 22h29v4H99z" fill="#f0f073"/></g>"     "     "     <g stroke="#78783a"><path d="M98 484h30v3H98z" fill="#f0f074"/><path d="M104 127h24v7h-24z" fill="#f0f075"/></g>"     "     <g stroke="#78783b"><path d="M99 416h30v3H99z" fill="#f0f076"/><path d="M105 303h24v7h-24zm0 131h25v6h-25z" fill="#f0f077"/></g>"     "     "     <g stroke="#78783c"><path d="M100 490h30v4h-30z" fill="#f0f078"/><path d="M102 478h28v5h-28z" fill="#f0f079"/></g>"     "     <path d="M106 312h24v7h-24zm16-195h20v8h-20z" fill="#f0f07a" stroke="#78783d"/>"     "     <path d="M104 101h28v5h-28z" fill="#f0f07b" stroke="#78783d"/>"     <g stroke="#78783e"><path d="M107 67h25v7h-25z" fill="#f0f07c"/><path d="M105 452h28v5h-28zm3-132h25v7h-25z" fill="#f0f07d"/></g>"     "     "     <g stroke="#78783f"><path d="M108 295h25v6h-25z" fill="#f0f07e"/><path d="M125 27h26v8h-26z" fill="#f0f07f"/></g>"     "     <path d="M125 58h20v8h-20zm1 34h21v8h-21z" fill="#f0f080" stroke="#787840"/>"     "     <path d="M106 224h30v3h-30z" fill="#f0f081" stroke="#787840"/>"     <g stroke="#787841"><path d="M129 1h15v8h-15z" fill="#f0f082"/><path d="M113 285h25v7h-25zm-1-18h26v6h-26z" fill="#f0f083"/></g>"     "     "     <g stroke="#787842"><path d="M130 45h12v8h-12z" fill="#f0f084"/><path d="M113 158h26v6h-26z" fill="#f0f085"/></g>"     "     <path d="M110 466h30v4h-30zm2-276h29v5h-29z" fill="#f0f086" stroke="#787843"/>"     "     <path d="M116 356h26v6h-26z" fill="#f0f087" stroke="#787843"/>"     <g stroke="#787844"><path d="M117 137h25v7h-25z" fill="#f0f088"/><path d="M134 10h21v8h-21z" fill="#f0f089"/></g>"     "     <path d="M115 410h29v5h-29zm4-391h25v7h-25z" fill="#f0f08a" stroke="#787845"/>"     "     <path d="M118 403h27v6h-27z" fill="#f0f08b" stroke="#787845"/>"     <g stroke="#787846"><path d="M117 348h29v5h-29z" fill="#f0f08c"/><path d="M120 337h26v7h-26zm0 104h26v7h-26z" fill="#f0f08d"/></g>"     "     "     <g stroke="#787847"><path d="M122 75h26v7h-26z" fill="#f0f08e"/><path d="M122 145h27v6h-27z" fill="#f0f08f"/></g>"     "     <path d="M142 83h19v8h-19zm-18 176h27v6h-27z" fill="#f0f090" stroke="#787848"/>"     "     <path d="M125 328h26v7h-26z" fill="#f0f091" stroke="#787848"/>"     <g stroke="#787849"><path d="M143 117h29v8h-29z" fill="#f0f092"/><path d="M122 460h30v5h-30zm4-77h26v7h-26z" fill="#f0f093"/></g>"     "     "     <g stroke="#78784a"><path d="M143 36h9v9h-9z" fill="#f0f094"/><path d="M145 1h10v8h-10z" fill="#f0f095"/></g>"     "     <path d="M126 109h29v6h-29zm3 18h27v7h-27z" fill="#f0f096" stroke="#78784b"/>"     "     <path d="M146 58h11v8h-11z" fill="#f0f097" stroke="#78784b"/>"     <g stroke="#78784c"><path d="M130 303h28v7h-28z" fill="#f0f098"/><path d="M129 375h30v6h-30z" fill="#f0f099"/></g>"     "     <path d="M131 312h28v7h-28zm17-220h11v8h-11z" fill="#f0f09a" stroke="#78784d"/>"     "     <path d="M131 434h30v6h-30z" fill="#f0f09b" stroke="#78784d"/>"     <g stroke="#78784e"><path d="M133 67h29v7h-29z" fill="#f0f09c"/><path d="M153 36h24v9h-24zm-19 284h29v7h-29z" fill="#f0f09d"/></g>"     "     "     <g stroke="#78784f"><path d="M152 27h11v8h-11z" fill="#f0f09e"/><path d="M134 295h30v6h-30z" fill="#f0f09f"/></g>"     "     <path d="M156 1h9v17h-9zm-17 284h30v7h-30z" fill="#f0f0a0" stroke="#787850"/>"     "     <path d="M158 58h12v8h-12z" fill="#f0f0a1" stroke="#787850"/>"     <g stroke="#787851"><path d="M160 92h12v8h-12z" fill="#f0f0a2"/><path d="M166 1h27v9h-27zm-4 82h13v8h-13z" fill="#f0f0a3"/></g>"     "     "     <g stroke="#787852"><path d="M164 27h13v8h-13z" fill="#f0f0a4"/><path d="M171 58h14v8h-14z" fill="#f0f0a5"/></g>"     "     <path d="M173 117h14v8h-14zm5-90h9v17h-9z" fill="#f0f0a6" stroke="#787853"/>"     "     <path d="M173 92h15v8h-15z" fill="#f0f0a7" stroke="#787853"/>"     <g stroke="#787854"><path d="M176 83h16v8h-16z" fill="#f0f0a8"/><path d="M188 27h9v13h-9zm-2 31h16v8h-16z" fill="#f0f0a9"/></g>"     "     "     <g stroke="#787855"><path d="M194 1h21v9h-21z" fill="#f0f0aa"/><path d="M188 117h16v8h-16z" fill="#f0f0ab"/></g>"     "     <g stroke="#787856"><path d="M189 92h16v8h-16z" fill="#f0f0ac"/><path d="M198 27h9v13h-9zm-5 56h16v8h-16z" fill="#f0f0ad"/></g>"     "     "     <g stroke="#787857"><path d="M208 27h9v10h-9z" fill="#f0f0ae"/><path d="M203 58h16v8h-16z" fill="#f0f0af"/></g>"     "     <path d="M205 117h16v8h-16zm1-25h17v8h-17z" fill="#f0f0b0" stroke="#787858"/>"     "     <path d="M216 1h15v9h-15z" fill="#f0f0b1" stroke="#787858"/>"     <g stroke="#787859"><path d="M218 27h18v9h-18z" fill="#f0f0b2"/><path d="M210 83h17v8h-17zm10-25h17v8h-17z" fill="#f0f0b3"/></g>"     "     "     <g stroke="#78785a"><path d="M222 117h17v8h-17z" fill="#f0f0b4"/><path d="M232 1h15v9h-15z" fill="#f0f0b5"/></g>"     "     <path d="M224 92h20v8h-20zm13-65h15v9h-15z" fill="#f0f0b6" stroke="#78785b"/>"     "     <path d="M228 83h20v8h-20z" fill="#f0f0b7" stroke="#78785b"/>"     <g stroke="#78785c"><path d="M248 1h15v9h-15z" fill="#f0f0b8"/><path d="M238 58h22v8h-22zm2 59h22v8h-22z" fill="#f0f0b9"/></g>"     "     "     <g stroke="#78785d"><path d="M253 27h14v9h-14z" fill="#f0f0ba"/><path d="M245 92h23v8h-23z" fill="#f0f0bb"/></g>"     "     <g stroke="#78785e"><path d="M249 83h23v8h-23z" fill="#f0f0bc"/><path d="M264 1h16v9h-16zm4 26h26v9h-26z" fill="#f0f0bd"/></g>"     "     "     <g stroke="#78785f"><path d="M261 58h23v8h-23z" fill="#f0f0be"/><path d="M263 117h23v8h-23z" fill="#f0f0bf"/></g>"     "     <path d="M281 1h11v9h-11zm-12 91h24v8h-24z" fill="#f0f0c0" stroke="#787860"/>"     "     <path d="M273 83h24v8h-24z" fill="#f0f0c1" stroke="#787860"/>"     <g stroke="#787861"><path d="M293 1h20v9h-20z" fill="#f0f0c2"/><path d="M295 27h15v9h-15zm-10 31h24v8h-24z" fill="#f0f0c3"/></g>"     "     "     <g stroke="#787862"><path d="M287 117h24v8h-24z" fill="#f0f0c4"/><path d="M294 92h24v8h-24z" fill="#f0f0c5"/></g>"     "     <path d="M311 27h26v9h-26zm3-26h27v9h-27z" fill="#f0f0c6" stroke="#787863"/>"     "     <path d="M298 83h25v8h-25z" fill="#f0f0c7" stroke="#787863"/>"     <g stroke="#787864"><path d="M310 58h27v8h-27z" fill="#f0f0c8"/><path d="M312 117h27v8h-27zm7-25h27v8h-27z" fill="#f0f0c9"/></g>"     "     "     <g stroke="#787865"><path d="M338 27h26v9h-26z" fill="#f0f0ca"/><path d="M342 1h20v9h-20z" fill="#f0f0cb"/></g>"     "     <path d="M324 83h28v8h-28zm14-25h28v8h-28z" fill="#f0f0cc" stroke="#787866"/>"     "     <path d="M340 117h28v8h-28z" fill="#f0f0cd" stroke="#787866"/>"     <g stroke="#787867"><path d="M363 1h26v9h-26z" fill="#f0f0ce"/><path d="M365 27h17v9h-17z" fill="#f0f0cf"/></g>"     "     <path d="M347 92h28v8h-28zm6-9h28v8h-28z" fill="#f0f0d0" stroke="#787868"/>"     "     <path d="M383 27h23v9h-23z" fill="#f0f0d1" stroke="#787868"/>"     <g stroke="#787869"><path d="M367 58h29v8h-29z" fill="#f0f0d2"/><path d="M369 117h29v8h-29zM390 1h16v9h-16z" fill="#f0f0d3"/></g>"     "     "     <g stroke="#78786a"><path d="M407 1h13v9h-13z" fill="#f0f0d4"/><path d="M407 27h20v9h-20z" fill="#f0f0d5"/></g>"     "     <path d="M421 1h23v9h-23zm7 26h24v9h-24z" fill="#f0f0d6" stroke="#78786b"/>"     "     <path d="M445 1h24v9h-24z" fill="#f0f0d7" stroke="#78786b"/>"     <g stroke="#78786c"><path d="M453 27h25v9h-25z" fill="#f0f0d8"/><path d="M470 1h10v9h-10zm9 26h10v9h-10z" fill="#f0f0d9"/></g>"     "     "     <g stroke="#78786d"><path d="M481 1h10v9h-10z" fill="#f0f0da"/><path d="M490 27h11v9h-11z" fill="#f0f0db"/></g>"     "     <path d="M492 1h11v9h-11zm10 26h11v9h-11z" fill="#f0f0dc" stroke="#78786e"/>"     "     <path d="M504 1h12v9h-12z" fill="#f0f0dd" stroke="#78786e"/>"     <g stroke="#78786f"><path d="M514 27h12v9h-12z" fill="#f0f0de"/><path d="M517 1h12v9h-12z" fill="#f0f0df"/></g>"     "     <path d="M527 27h13v9h-13zm3-26h13v9h-13z" fill="#f0f0e0" stroke="#787870"/>"     "     <path d="M541 27h13v9h-13z" fill="#f0f0e1" stroke="#787870"/>"     <g stroke="#787871"><path d="M544 1h16v9h-16z" fill="#f0f0e2"/><path d="M555 27h16v9h-16zm6-26h16v9h-16z" fill="#f0f0e3"/></g>"     "     "     <g stroke="#787872"><path d="M572 27h17v9h-17z" fill="#f0f0e4"/><path d="M578 1h20v9h-20z" fill="#f0f0e5"/></g>"     "     <path d="M590 27h20v9h-20zm9-26h20v9h-20z" fill="#f0f0e6" stroke="#787873"/>"     "     <path d="M611 27h20v9h-20z" fill="#f0f0e7" stroke="#787873"/>"     <g stroke="#787874"><path d="M620 1h21v9h-21z" fill="#f0f0e8"/><path d="M632 27h21v9h-21zm10-26h22v9h-22z" fill="#f0f0e9"/></g>"     "     "     <g stroke="#787875"><path d="M654 27h24v9h-24z" fill="#f0f0ea"/><path d="M665 1h25v9h-25z" fill="#f0f0eb"/></g>"     "     <path d="M679 27h26v9h-26zm12-26h27v9h-27z" fill="#f0f0ec" stroke="#787876"/>"     "     <path d="M706 27h28v9h-28z" fill="#f0f0ed" stroke="#787876"/>"     <g stroke="#787877"><path d="M719 1h29v9h-29z" fill="#f0f0ee"/><path d="M735 27h30v9h-30z" fill="#f0f0ef"/></g>"     "     <text y="526" font-size="12" fill="#000" x="0"> MaxRectsBin(size: 1024x512, choice: WorstLongSideFit, method: MaximizeArea): inserted 757 of 1536 rectangles with w/h lengths between [2, 31], occupancy: 16.27% </text></svg>