<svg xmlns="http://www.w3.org/2000/svg" viewBox="0 0 1024 536" xmlns:v="https://vecta.io/nano"><path d="M0 0h1024v512H0z" fill="#fff" stroke="#000"/>"     <path d="M1 1h29v30H1zm0 31h29v30H1zm0 31h29v30H1z" fill="#303030" stroke="#181818"/>"     "     "     <path d="M1 94h29v29H1zm0 30h29v29H1zm0 30h29v29H1z" stroke="#181818" fill="#303130"/>"     "     "     <path d="M1 184h29v29H1zm0 30h28v30H1z" fill="#303230" stroke="#181918"/>"     "     <path d="M1 245h28v30H1zm0 31h28v30H1zm0 31h28v30H1z" stroke="#181918" fill="#303330"/>"     "     "     <path d="M1 338h28v29H1zm0 30h27v30H1zm28 0h1v30h-1z" fill="#303430" stroke="#181a18"/>"     "     "     <path d="M1 399h27v30H1zm28 0h1v30h-1z" stroke="#181a18" fill="#303530"/>"     "     <path d="M1 430h27v30H1zm28 0h1v28h-1zm0 29h1v1h-1z" fill="#303630" stroke="#181b18"/>"     "     "     <path d="M1 461h27v30H1zm0 31h29v20H1zm28-31h1v28h-1z" stroke="#181b18" fill="#303730"/>"     "     "     <path d="M31 1h27v30H31zm0 31h27v30H31z" fill="#303830" stroke="#181c18"/>"     "     <path d="M31 63h27v29H31zm0 30h27v29H31zm0 30h27v29H31z" stroke="#181c18" fill="#303930"/>"     "     "     <path d="M31 153h26v30H31zm0 31h26v30H31zm0 31h27v28H31z" fill="#303a30" stroke="#181d18"/>"     "     "     <path d="M31 244h27v28H31zm0 29h26v29H31z" stroke="#181d18" fill="#303b30"/>"     "     <path d="M31 303h26v29H31zm0 30h25v30H31zm26 0h1v27h-1z" fill="#303c30" stroke="#181e18"/>"     "     "     <path d="M57 361h1v2h-1zm-26 3h25v30H31zm26 0h1v27h-1z" stroke="#181e18" fill="#303d30"/>"     "     "     <path d="M57 392h1v2h-1zm-26 3h27v27H31z" fill="#303e30" stroke="#181f18"/>"     "     <path d="M31 423h27v27H31zm0 28h27v27H31zm0 28h26v28H31z" stroke="#181f18" fill="#303f30"/>"     "     "     <path d="M31 508h27v4H31zM59 1h28v28H59zm0 29h28v28H59z" fill="#304030" stroke="#182018"/>"     "     "     <path d="M59 59h28v28H59zm0 29h26v28H59z" stroke="#182018" fill="#304130"/>"     "     <path d="M86 88h1v27h-1zm-27 29h28v26H59zm0 27h28v26H59z" fill="#304230" stroke="#182118"/>"     "     "     <path d="M59 171h25v29H59zm26 0h2v29h-2zm-26 30h25v29H59z" stroke="#182118" fill="#304330"/>"     "     "     <path d="M85 201h2v28h-2zm-26 30h25v29H59z" fill="#304430" stroke="#182218"/>"     "     <path d="M85 230h2v30h-2zm-26 31h24v30H59zm25 0h3v30h-3z" stroke="#182218" fill="#304530"/>"     "     "     <path d="M59 292h27v26H59zm0 27h27v26H59zm0 27h26v27H59z" fill="#304630" stroke="#182318"/>"     "     "     <path d="M86 346h1v27h-1zm-27 28h28v25H59z" stroke="#182318" fill="#304730"/>"     "     <path d="M59 400h25v28H59zm26 0h2v28h-2zm-26 29h24v29H59z" fill="#304830" stroke="#182418"/>"     "     "     <path d="M84 429h3v29h-3zm-25 30h24v29H59zm25 0h3v29h-3z" stroke="#182418" fill="#304930"/>"     "     "     <path d="M59 489h28v23H59zM88 1h29v24H88z" fill="#304a30" stroke="#182518"/>"     "     <path d="M88 26h29v24H88zm0 25h23v30H88zm24 0h5v30h-5z" stroke="#182518" fill="#304b30"/>"     "     "     <path d="M88 82h23v30H88zm24 0h5v30h-5zm-24 31h23v30H88z" fill="#304c30" stroke="#182618"/>"     "     "     <path d="M112 113h5v30h-5zm-24 31h26v26H88z" stroke="#182618" fill="#304d30"/>"     "     <path d="M115 144h2v26h-2zm-27 27h26v26H88zm27 0h2v26h-2z" fill="#304e30" stroke="#182718"/>"     "     "     <path d="M88 198h25v27H88zm26 0h3v27h-3zm-26 28h27v25H88z" stroke="#182718" fill="#304f30"/>"     "     "     <path d="M116 226h1v24h-1zm-28 26h25v27H88z" fill="#305030" stroke="#182818"/>"     "     <path d="M114 252h3v27h-3zm-26 28h25v27H88zm26 0h3v27h-3z" stroke="#182818" fill="#305130"/>"     "     "     <path d="M88 308h29v23H88zm0 24h29v23H88zm0 24h22v30H88z" fill="#305230" stroke="#182918"/>"     "     "     <path d="M111 356h6v30h-6zm-23 31h22v30H88z" stroke="#182918" fill="#305330"/>"     "     <path d="M111 387h6v30h-6zm-23 31h22v30H88zm23 0h6v30h-6z" fill="#305430" stroke="#182a18"/>"     "     "     <path d="M88 449h22v30H88zm23 0h6v29h-6zm-23 31h25v26H88z" stroke="#182a18" fill="#305530"/>"     "     "     <path d="M114 480h3v26h-3zm-26 27h29v5H88z" fill="#305630" stroke="#182b18"/>"     "     <path d="M118 1h26v25h-26zm0 26h26v25h-26zm0 26h25v26h-25z" stroke="#182b18" fill="#305730"/>"     "     "     <path d="M118 80h25v26h-25zm0 27h24v27h-24zm25 0h1v27h-1z" fill="#305830" stroke="#182c18"/>"     "     "     <path d="M118 135h24v27h-24zm25 0h1v26h-1z" stroke="#182c18" fill="#305930"/>"     "     <path d="M118 163h24v27h-24zm25-1h1v26h-1zm-25 29h23v28h-23z" fill="#305a30" stroke="#182d18"/>"     "     "     <path d="M142 191h2v28h-2zm-24 29h23v28h-23zm24 0h2v28h-2z" stroke="#182d18" fill="#305b30"/>"     "     "     <path d="M118 249h22v29h-22zm23 0h3v29h-3z" fill="#305c30" stroke="#182e18"/>"     "     <path d="M118 279h22v29h-22zm23 0h3v29h-3zm-23 30h22v29h-22z" stroke="#182e18" fill="#305d30"/>"     "     "     <path d="M141 309h3v28h-3zm-23 30h22v29h-22zm23-1h3v30h-3z" fill="#305e30" stroke="#182f18"/>"     "     "     <path d="M118 369h22v29h-22zm23 0h3v28h-3z" stroke="#182f18" fill="#305f30"/>"     "     <path d="M118 399h22v29h-22zm23-1h3v30h-3zm-23 31h21v30h-21z" fill="#306030" stroke="#183018"/>"     "     "     <path d="M140 429h4v30h-4zm-22 31h21v30h-21zm22 0h4v30h-4z" stroke="#183018" fill="#306130"/>"     "     "     <path d="M118 491h26v21h-26zM145 1h30v21h-30z" fill="#306230" stroke="#183118"/>"     "     <path d="M145 23h21v30h-21zm22 0h8v30h-8zm-22 31h25v25h-25z" stroke="#183118" fill="#306330"/>"     "     "     <path d="M171 54h4v25h-4zm-26 26h25v25h-25zm26 0h4v25h-4z" fill="#306430" stroke="#183218"/>"     "     "     <path d="M145 106h24v26h-24zm25 0h5v26h-5z" stroke="#183218" fill="#306530"/>"     "     <path d="M145 133h24v26h-24zm25 0h5v25h-5zm-25 27h23v27h-23z" fill="#306630" stroke="#183318"/>"     "     "     <path d="M169 160h6v27h-6zm-24 28h23v27h-23zm24 0h6v27h-6z" stroke="#183318" fill="#306730"/>"     "     "     <path d="M145 216h28v22h-28zm29 0h1v22h-1z" fill="#306830" stroke="#183418"/>"     "     <path d="M145 239h22v28h-22zm23 0h7v28h-7zm-23 29h28v22h-28z" stroke="#183418" fill="#306930"/>"     "     "     <path d="M174 268h1v22h-1zm-29 23h21v29h-21zm22 0h8v29h-8z" fill="#306a30" stroke="#183518"/>"     "     "     <path d="M145 321h29v21h-29zm0 22h20v30h-20z" stroke="#183518" fill="#306b30"/>"     "     <path d="M166 343h9v30h-9zm-21 31h20v30h-20zm21 0h9v29h-9z" fill="#306c30" stroke="#183618"/>"     "     "     <path d="M145 405h20v30h-20zm21-1h9v28h-9zm0 29h9v2h-9z" stroke="#183618" fill="#306d30"/>"     "     "     <path d="M145 436h30v20h-30zm0 21h24v25h-24z" fill="#306e30" stroke="#183718"/>"     "     <path d="M170 457h5v25h-5zm-25 26h25v24h-25zm26 0h4v24h-4z" stroke="#183718" fill="#306f30"/>"     "     "     <path d="M145 508h30v4h-30zM176 1h24v25h-24zm0 26h24v25h-24z" fill="#307030" stroke="#183818"/>"     "     "     <path d="M176 53h23v26h-23zm0 27h23v26h-23z" stroke="#183818" fill="#307130"/>"     "     <path d="M176 107h22v27h-22zm23 0h1v26h-1zm-23 28h22v27h-22z" fill="#307230" stroke="#183918"/>"     "     "     <path d="M199 134h1v23h-1zm0 24h1v4h-1zm-23 5h22v27h-22z" stroke="#183918" fill="#307330"/>"     "     "     <path d="M199 163h1v23h-1zm0 24h1v3h-1z" fill="#307430" stroke="#183a18"/>"     "     <path d="M176 191h21v28h-21zm22 0h2v27h-2zm-22 29h21v28h-21z" stroke="#183a18" fill="#307530"/>"     "     "     <path d="M198 219h2v27h-2zm0 28h2v1h-2zm-22 2h21v28h-21z" fill="#307630" stroke="#183b18"/>"     "     "     <path d="M198 249h2v25h-2zm0 26h2v2h-2z" stroke="#183b18" fill="#307730"/>"     "     <path d="M176 278h21v28h-21zm22 0h2v25h-2zm0 26h2v2h-2z" fill="#307830" stroke="#183c18"/>"     "     "     <path d="M176 307h21v28h-21zm22 0h2v24h-2zm0 25h2v3h-2z" stroke="#183c18" fill="#307930"/>"     "     "     <path d="M176 336h20v29h-20zm21 0h3v28h-3z" fill="#307a30" stroke="#183d18"/>"     "     <path d="M176 366h20v29h-20zm21-1h3v30h-3zm-21 31h20v29h-20z" stroke="#183d18" fill="#307b30"/>"     "     "     <path d="M197 396h3v28h-3zm-21 30h20v29h-20zm21-1h3v30h-3z" fill="#307c30" stroke="#183e18"/>"     "     "     <path d="M176 456h20v29h-20zm21 0h3v28h-3z" stroke="#183e18" fill="#307d30"/>"     "     <path d="M176 486h24v24h-24zm0 25h23v1h-23zM201 1h24v24h-24z" fill="#307e30" stroke="#183f18"/>"     "     "     <path d="M201 26h24v24h-24zm0 25h22v26h-22zm23 0h1v23h-1z" stroke="#183f18" fill="#307f30"/>"     "     "     <path d="M224 75h1v2h-1zm-23 3h22v26h-22z" fill="#308030" stroke="#184018"/>"     "     <path d="M224 78h1v23h-1zm-23 27h22v26h-22zm23-3h1v23h-1z" stroke="#184018" fill="#308130"/>"     "     "     <path d="M224 126h1v5h-1zm-23 6h22v26h-22zm23 0h1v22h-1z" fill="#308230" stroke="#184118"/>"     "     "     <path d="M224 155h1v3h-1zm-23 4h22v26h-22z" stroke="#184118" fill="#308330"/>"     "     <path d="M224 159h1v22h-1zm0 23h1v3h-1zm-23 4h19v30h-19z" fill="#308430" stroke="#184218"/>"     "     "     <path d="M221 186h4v29h-4zm-20 31h19v30h-19zm20-1h4v29h-4z" stroke="#184218" fill="#308530"/>"     "     "     <path d="M221 246h4v1h-4zm-20 2h19v30h-19z" fill="#308630" stroke="#184318"/>"     "     <path d="M221 248h4v29h-4zm-20 31h19v30h-19zm20-1h4v28h-4z" stroke="#184318" fill="#308730"/>"     "     "     <path d="M221 307h3v2h-3zm-20 3h21v27h-21zm22 0h2v24h-2z" fill="#308830" stroke="#184418"/>"     "     "     <path d="M201 338h21v27h-21zm22-3h2v30h-2z" stroke="#184418" fill="#308930"/>"     "     <path d="M201 366h21v27h-21zm22 0h2v24h-2zm-22 28h20v28h-20z" fill="#308a30" stroke="#184518"/>"     "     "     <path d="M222 394h3v27h-3zm-21 29h19v29h-19zm20 0h4v28h-4z" stroke="#184518" fill="#308b30"/>"     "     "     <path d="M201 453h19v29h-19zm20-1h4v26h-4z" fill="#308c30" stroke="#184618"/>"     "     <path d="M221 479h4v3h-4zm-20 4h24v23h-24zm0 24h24v5h-24z" stroke="#184618" fill="#308d30"/>"     "     "     <path d="M226 1h29v19h-29zm0 20h29v19h-29zm0 20h29v19h-29z" fill="#308e30" stroke="#184718"/>"     "     "     <path d="M226 61h24v23h-24zm25 0h4v23h-4z" stroke="#184718" fill="#308f30"/>"     "     <path d="M226 85h19v29h-19zm20 0h9v27h-9zm0 28h8v1h-8z" fill="#309030" stroke="#184818"/>"     "     "     <path d="M226 115h22v25h-22zm23 0h6v25h-6zm-23 26h25v22h-25z" stroke="#184818" fill="#309130"/>"     "     "     <path d="M252 141h3v22h-3zm-26 23h25v22h-25z" fill="#309230" stroke="#184918"/>"     "     <path d="M252 164h3v22h-3zm-26 23h25v22h-25zm26 0h3v22h-3z" stroke="#184918" fill="#309330"/>"     "     "     <path d="M226 210h26v21h-26zm27 0h2v21h-2zm-27 22h18v30h-18z" fill="#309430" stroke="#184a18"/>"     "     "     <path d="M245 232h10v30h-10zm-19 31h18v30h-18z" stroke="#184a18" fill="#309530"/>"     "     <path d="M245 263h10v30h-10zm-19 31h18v30h-18zm19 0h10v30h-10z" fill="#309630" stroke="#184b18"/>"     "     "     <path d="M226 325h18v30h-18zm19 0h10v29h-10zm-19 31h18v30h-18z" stroke="#184b18" fill="#309730"/>"     "     "     <path d="M245 355h10v29h-10zm0 30h10v1h-10z" fill="#309830" stroke="#184c18"/>"     "     <path d="M226 387h27v20h-27zm28 0h1v20h-1zm-28 21h20v27h-20z" stroke="#184c18" fill="#309930"/>"     "     "     <path d="M247 408h8v27h-8zm-21 28h20v27h-20zm21 0h8v27h-8z" fill="#309a30" stroke="#184d18"/>"     "     "     <path d="M226 464h27v20h-27zm28 0h1v20h-1z" stroke="#184d18" fill="#309b30"/>"     "     <path d="M226 485h28v19h-28zm0 20h29v7h-29zM256 1h28v19h-28z" fill="#309c30" stroke="#184e18"/>"     "     "     <path d="M256 21h22v24h-22zm23 0h5v24h-5zm-23 25h24v22h-24z" stroke="#184e18" fill="#309d30"/>"     "     "     <path d="M281 46h3v21h-3zm-25 23h22v24h-22z" fill="#309e30" stroke="#184f18"/>"     "     <path d="M279 69h5v24h-5zm-23 25h21v25h-21zm22 0h6v25h-6z" stroke="#184f18" fill="#309f30"/>"     "     "     <path d="M256 120h21v25h-21zm22 0h6v25h-6zm-22 26h25v21h-25z" fill="#30a030" stroke="#185018"/>"     "     "     <path d="M282 146h2v21h-2zm-26 22h25v21h-25z" stroke="#185018" fill="#30a130"/>"     "     <path d="M282 168h2v21h-2zm-26 22h21v25h-21zm22 0h6v24h-6z" fill="#30a230" stroke="#185118"/>"     "     "     <path d="M256 216h21v25h-21zm22-1h6v26h-6zm-22 27h18v29h-18z" stroke="#185118" fill="#30a330"/>"     "     "     <path d="M275 242h9v27h-9zm0 28h7v1h-7z" fill="#30a430" stroke="#185218"/>"     "     <path d="M256 272h18v29h-18zm19 0h9v27h-9zm0 28h7v1h-7z" stroke="#185218" fill="#30a530"/>"     "     "     <path d="M256 302h18v29h-18zm19 0h9v26h-9zm0 27h9v2h-9z" fill="#30a630" stroke="#185318"/>"     "     "     <path d="M256 332h19v27h-19zm20 0h8v27h-8z" stroke="#185318" fill="#30a730"/>"     "     <path d="M256 360h19v27h-19zm20 0h8v27h-8zm-20 28h19v27h-19z" fill="#30a830" stroke="#185418"/>"     "     "     <path d="M276 388h8v27h-8zm-20 28h19v27h-19zm20 0h8v26h-8z" stroke="#185418" fill="#30a930"/>"     "     "     <path d="M256 444h19v27h-19zm20-1h8v28h-8z" fill="#30aa30" stroke="#185518"/>"     "     <path d="M256 472h19v27h-19zm0 28h28v12h-28zm20-28h8v26h-8z" stroke="#185518" fill="#30ab30"/>"     "     "     <path d="M285 1h30v17h-30zm31 0h30v17h-30zm31 0h30v17h-30z" fill="#30ac30" stroke="#185618"/>"     "     "     <path d="M378 1h30v17h-30zm31 0h30v17h-30z" stroke="#185618" fill="#30ad30"/>"     "     <path d="M440 1h29v17h-29zm30 0h29v17h-29zm30 0h29v17h-29z" fill="#30ae30" stroke="#185718"/>"     "     "     <path d="M530 1h29v17h-29zm30 0h30v16h-30zm31 0h28v17h-28z" stroke="#185718" fill="#30af30"/>"     "     "     <path d="M620 1h28v17h-28zm29 0h28v17h-28z" fill="#30b030" stroke="#185818"/>"     "     <path d="M678 1h29v16h-29zm30 0h29v16h-29zm30 0h29v16h-29z" stroke="#185818" fill="#30b130"/>"     "     "     <path d="M768 1h29v16h-29zm30 0h27v17h-27zm28 0h27v17h-27z" fill="#30b230" stroke="#185918"/>"     "     "     <path d="M854 1h27v17h-27zm28 0h27v17h-27z" stroke="#185918" fill="#30b330"/>"     "     <path d="M910 1h30v15h-30zm0 16h21v1h-21zm22 0h7v1h-7z" fill="#30b430" stroke="#185a18"/>"     "     "     <path d="M941 1h30v15h-30zm-1 16h21v1h-21zm22 0h7v1h-7z" stroke="#185a18" fill="#30b530"/>"     "     "     <path d="M972 1h30v15h-30zm31 0h21v17h-21z" fill="#30b630" stroke="#185b18"/>"     "     <path d="M970 17h21v1h-21zm22 0h10v1h-10zm-707 2h23v22h-23z" stroke="#185b18" fill="#30b730"/>"     "     "     <path d="M285 42h22v23h-22zm0 24h23v22h-23zm0 23h22v23h-22z" fill="#30b830" stroke="#185c18"/>"     "     "     <path d="M285 113h18v28h-18zm19 0h4v26h-4z" stroke="#185c18" fill="#30b930"/>"     "     <path d="M304 140h4v1h-4zm-19 2h18v28h-18zm19 0h4v26h-4z" fill="#30ba30" stroke="#185d18"/>"     "     "     <path d="M304 169h4v1h-4zm-19 2h18v28h-18zm19 0h4v26h-4z" stroke="#185d18" fill="#30bb30"/>"     "     "     <path d="M304 198h3v1h-3zm-19 2h18v28h-18z" fill="#30bc30" stroke="#185e18"/>"     "     <path d="M304 200h4v24h-4zm0 25h4v3h-4zm-19 4h18v28h-18z" stroke="#185e18" fill="#30bd30"/>"     "     "     <path d="M304 229h4v23h-4zm0 24h2v3h-2zm3 0h1v3h-1z" fill="#30be30" stroke="#185f18"/>"     "     "     <path d="M285 258h20v25h-20zm21 0h2v24h-2z" stroke="#185f18" fill="#30bf30"/>"     "     <path d="M285 284h20v25h-20zm21-1h2v24h-2zm-21 27h20v25h-20z" fill="#30c030" stroke="#186018"/>"     "     "     <path d="M306 308h2v23h-2zm-21 28h20v25h-20zm21-4h2v23h-2z" stroke="#186018" fill="#30c130"/>"     "     "     <path d="M306 356h2v5h-2zm-21 6h20v25h-20z" fill="#30c230" stroke="#186118"/>"     "     <path d="M306 362h2v23h-2zm-21 26h19v26h-19zm20 0h3v26h-3z" stroke="#186118" fill="#30c330"/>"     "     "     <path d="M285 415h19v26h-19zm20 0h3v26h-3zm-20 27h19v26h-19z" fill="#30c430" stroke="#186218"/>"     "     "     <path d="M305 442h3v26h-3zm-20 27h19v26h-19z" stroke="#186218" fill="#30c530"/>"     "     <path d="M305 469h3v26h-3zm-20 27h23v16h-23zm24-477h26v19h-26z" fill="#30c630" stroke="#186318"/>"     "     "     <path d="M309 39h18v27h-18zm19 0h7v27h-7zm-19 28h18v27h-18z" stroke="#186318" fill="#30c730"/>"     "     "     <path d="M328 67h7v27h-7zm-19 28h18v27h-18z" fill="#30c830" stroke="#186418"/>"     "     <path d="M328 95h7v27h-7zm-19 28h18v27h-18zm19 0h7v27h-7z" stroke="#186418" fill="#30c930"/>"     "     "     <path d="M309 151h18v27h-18zm19 0h7v26h-7zm-19 28h22v22h-22z" fill="#30ca30" stroke="#186518"/>"     "     "     <path d="M332 179h3v21h-3zm-23 23h22v22h-22z" stroke="#186518" fill="#30cb30"/>"     "     <path d="M332 201h3v23h-3zm-23 24h22v22h-22zm23 0h3v20h-3z" fill="#30cc30" stroke="#186618"/>"     "     "     <path d="M309 248h22v22h-22zm23-2h3v24h-3zm-23 25h22v22h-22z" stroke="#186618" fill="#30cd30"/>"     "     "     <path d="M332 271h3v20h-3zm-23 23h21v23h-21z" fill="#30ce30" stroke="#186718"/>"     "     <path d="M331 294h4v22h-4zm-22 24h23v21h-23zm24 0h2v21h-2z" stroke="#186718" fill="#30cf30"/>"     "     "     <path d="M309 340h21v23h-21zm22 0h4v22h-4zm-22 24h23v21h-23z" fill="#30d030" stroke="#186818"/>"     "     "     <path d="M333 364h2v21h-2zm-24 22h20v24h-20z" stroke="#186818" fill="#30d130"/>"     "     <path d="M330 386h5v23h-5zm-21 25h20v24h-20zm21-1h5v23h-5z" fill="#30d230" stroke="#186918"/>"     "     "     <path d="M330 434h5v1h-5zm-21 2h20v24h-20zm21 0h5v23h-5z" stroke="#186918" fill="#30d330"/>"     "     "     <path d="M309 461h20v24h-20zm21-1h5v23h-5z" fill="#30d430" stroke="#186a18"/>"     "     <path d="M330 484h5v1h-5zm-21 2h19v25h-19zm20 0h6v26h-6z" stroke="#186a18" fill="#30d530"/>"     "     "     <path d="M336 19h25v19h-25zm0 20h25v19h-25zm0 20h18v26h-18z" fill="#30d630" stroke="#186b18"/>"     "     "     <path d="M355 59h6v26h-6zm-19 27h18v26h-18z" stroke="#186b18" fill="#30d730"/>"     "     <path d="M355 86h6v26h-6zm-19 27h18v26h-18zm19 0h6v24h-6z" fill="#30d830" stroke="#186c18"/>"     "     "     <path d="M355 138h6v1h-6zm-19 2h18v26h-18zm19 0h6v24h-6z" stroke="#186c18" fill="#30d930"/>"     "     "     <path d="M355 165h6v1h-6zm-19 2h21v22h-21z" fill="#30da30" stroke="#186d18"/>"     "     <path d="M358 167h3v20h-3zm-22 23h22v21h-22zm23 0h2v21h-2z" stroke="#186d18" fill="#30db30"/>"     "     "     <path d="M336 212h22v21h-22zm23 0h2v21h-2zm-23 22h20v23h-20z" fill="#30dc30" stroke="#186e18"/>"     "     "     <path d="M357 234h4v22h-4zm-21 24h20v23h-20z" stroke="#186e18" fill="#30dd30"/>"     "     <path d="M357 257h4v22h-4zm-21 25h20v23h-20zm21-2h4v22h-4z" fill="#30de30" stroke="#186f18"/>"     "     "     <path d="M336 306h23v20h-23zm24 0h1v19h-1zm-24 21h19v24h-19z" stroke="#186f18" fill="#30df30"/>"     "     "     <path d="M356 327h5v23h-5zm-20 25h19v24h-19z" fill="#30e030" stroke="#187018"/>"     "     <path d="M356 351h5v23h-5zm0 24h5v1h-5zm-20 2h24v19h-24z" stroke="#187018" fill="#30e130"/>"     "     "     <path d="M336 397h19v24h-19zm20 0h5v23h-5zm-20 25h24v19h-24z" fill="#30e230" stroke="#187118"/>"     "     "     <path d="M336 442h15v30h-15zm16 0h9v26h-9z" stroke="#187118" fill="#30e330"/>"     "     <path d="M352 469h9v3h-9zm-16 4h18v25h-18zm0 26h25v13h-25z" fill="#30e430" stroke="#187218"/>"     "     "     <path d="M355 473h6v23h-6zm0 24h6v1h-6zm7-478h18v25h-18z" stroke="#187218" fill="#30e530"/>"     "     "     <path d="M362 45h16v28h-16zm17 0h1v21h-1z" fill="#30e630" stroke="#187318"/>"     "     <path d="M362 74h16v28h-16zm17-7h1v19h-1zm0 20h1v15h-1z" stroke="#187318" fill="#30e730"/>"     "     "     <path d="M362 103h16v28h-16zm17 0h1v19h-1zm-17 29h16v28h-16z" fill="#30e830" stroke="#187418"/>"     "     "     <path d="M379 123h1v19h-1zm0 20h1v17h-1z" stroke="#187418" fill="#30e930"/>"     "     <path d="M362 161h16v28h-16zm17 0h1v19h-1zm-17 29h16v28h-16z" fill="#30ea30" stroke="#187518"/>"     "     "     <path d="M379 181h1v19h-1zm0 20h1v17h-1zm-17 18h16v28h-16z" stroke="#187518" fill="#30eb30"/>"     "     "     <path d="M379 219h1v19h-1zm-17 29h17v26h-17z" fill="#30ec30" stroke="#187618"/>"     "     <path d="M362 275h15v29h-15zm16 0h2v23h-2zm0 24h2v5h-2z" stroke="#187618" fill="#30ed30"/>"     "     "     <path d="M362 305h15v29h-15zm16 0h2v22h-2zm0 23h2v6h-2z" fill="#30ee30" stroke="#187718"/>"     "     "     <path d="M362 335h15v29h-15zm16 0h2v22h-2z" stroke="#187718" fill="#30ef30"/>"     "     <path d="M378 358h2v6h-2zm-16 7h15v29h-15zm16 0h2v20h-2z" fill="#30f030" stroke="#187818"/>"     "     "     <path d="M378 386h2v8h-2zm-16 9h16v27h-16zm17 0h1v18h-1z" stroke="#187818" fill="#31f030"/>"     "     "     <path d="M362 423h16v27h-16zm17-9h1v17h-1z" fill="#32f030" stroke="#197818"/>"     "     <path d="M379 432h1v16h-1zm-17 19h18v24h-18zm0 25h18v24h-18z" stroke="#197818" fill="#33f030"/>"     "     "     <path d="M362 501h18v11h-18zm19-482h21v21h-21zm0 22h21v21h-21z" fill="#34f030" stroke="#1a7818"/>"     "     "     <path d="M381 63h20v22h-20zm0 23h20v22h-20z" stroke="#1a7818" fill="#35f030"/>"     "     <path d="M381 109h20v22h-20zm0 23h20v22h-20zm0 23h20v22h-20z" fill="#36f030" stroke="#1b7818"/>"     "     "     <path d="M381 178h20v22h-20zm0 23h19v23h-19zm20 0h1v16h-1z" stroke="#1b7818" fill="#37f030"/>"     "     "     <path d="M381 225h19v23h-19zm20-7h1v15h-1z" fill="#38f030" stroke="#1c7818"/>"     "     <path d="M401 234h1v14h-1zm-20 15h19v23h-19zm20 0h1v15h-1z" stroke="#1c7818" fill="#39f030"/>"     "     "     <path d="M381 273h17v25h-17zm18 0h3v25h-3zm-18 26h17v25h-17z" fill="#3af030" stroke="#1d7818"/>"     "     "     <path d="M399 299h3v25h-3zm-18 26h17v25h-17z" stroke="#1d7818" fill="#3bf030"/>"     "     <path d="M399 325h3v25h-3zm-18 26h14v30h-14zm15 0h6v29h-6z" fill="#3cf030" stroke="#1e7818"/>"     "     "     <path d="M381 382h14v30h-14zm15-1h6v29h-6zm-15 32h14v30h-14z" stroke="#1e7818" fill="#3df030"/>"     "     "     <path d="M396 411h6v27h-6zm0 28h6v4h-6z" fill="#3ef030" stroke="#1f7818"/>"     "     <path d="M381 444h21v20h-21zm0 21h20v21h-20zm0 22h20v21h-20z" stroke="#1f7818" fill="#3ff030"/>"     "     "     <path d="M381 509h20v3h-20zm22-490h21v20h-21zm0 21h19v22h-19z" fill="#40f030" stroke="#207818"/>"     "     "     <path d="M423 40h1v15h-1zm-20 23h19v22h-19z" stroke="#207818" fill="#41f030"/>"     "     <path d="M423 56h1v15h-1zm0 16h1v13h-1zm-20 14h19v22h-19z" fill="#42f030" stroke="#217818"/>"     "     "     <path d="M423 86h1v15h-1zm-20 23h16v26h-16zm17 0h4v22h-4z" stroke="#217818" fill="#43f030"/>"     "     "     <path d="M403 136h16v26h-16zm17-4h3v30h-3z" fill="#44f030" stroke="#227818"/>"     "     <path d="M403 163h16v26h-16zm17 0h4v22h-4zm-17 27h16v26h-16z" stroke="#227818" fill="#45f030"/>"     "     "     <path d="M420 186h3v30h-3zm-17 31h18v23h-18zm19 0h2v20h-2z" fill="#46f030" stroke="#237818"/>"     "     "     <path d="M403 241h18v23h-18zm19-3h2v20h-2z" stroke="#237818" fill="#47f030"/>"     "     <path d="M422 259h2v5h-2zm-19 6h18v23h-18zm19 0h2v19h-2z" fill="#48f030" stroke="#247818"/>"     "     "     <path d="M403 289h14v29h-14zm15 0h6v27h-6zm-15 30h17v24h-17z" stroke="#247818" fill="#49f030"/>"     "     "     <path d="M421 319h3v24h-3zm-18 25h14v29h-14z" fill="#4af030" stroke="#257818"/>"     "     <path d="M418 344h6v27h-6zm-15 30h17v24h-17zm18 0h3v24h-3z" stroke="#257818" fill="#4bf030"/>"     "     "     <path d="M403 399h15v27h-15zm16 0h5v27h-5zm-16 28h15v27h-15z" fill="#4cf030" stroke="#267818"/>"     "     "     <path d="M419 427h5v27h-5zm-16 28h15v27h-15z" stroke="#267818" fill="#4df030"/>"     "     <path d="M419 455h5v27h-5zm-16 28h15v27h-15zm16 0h5v29h-5z" fill="#4ef030" stroke="#277818"/>"     "     "     <path d="M403 511h15v1h-15zm22-492h15v27h-15zm0 28h15v27h-15z" stroke="#277818" fill="#4ff030"/>"     "     "     <path d="M425 75h14v28h-14zm0 29h13v30h-13z" fill="#50f030" stroke="#287818"/>"     "     <path d="M439 104h1v14h-1zm0 15h1v14h-1zm-14 16h13v30h-13z" stroke="#287818" fill="#51f030"/>"     "     "     <path d="M439 134h1v14h-1zm0 15h1v14h-1zm-14 17h13v30h-13z" fill="#52f030" stroke="#297818"/>"     "     "     <path d="M439 164h1v13h-1zm0 14h1v13h-1z" stroke="#297818" fill="#53f030"/>"     "     <path d="M425 197h13v30h-13zm14-5h1v12h-1zm0 13h1v12h-1z" fill="#54f030" stroke="#2a7818"/>"     "     "     <path d="M425 228h13v30h-13zm14-10h1v12h-1zm0 13h1v12h-1z" stroke="#2a7818" fill="#55f030"/>"     "     "     <path d="M439 244h1v12h-1zm-14 15h15v26h-15z" fill="#56f030" stroke="#2b7818"/>"     "     <path d="M425 286h15v26h-15zm0 27h15v26h-15zm0 27h15v26h-15z" stroke="#2b7818" fill="#57f030"/>"     "     "     <path d="M425 367h15v26h-15zm0 27h14v27h-14zm0 28h14v27h-14z" fill="#58f030" stroke="#2c7818"/>"     "     "     <path d="M425 450h13v29h-13zm14 0h1v12h-1z" stroke="#2c7818" fill="#59f030"/>"     "     <path d="M439 463h1v12h-1zm-14 17h14v27h-14zm0 28h15v4h-15z" fill="#5af030" stroke="#2d7818"/>"     "     "     <path d="M441 19h16v25h-16zm0 26h14v27h-14zm15 0h1v12h-1z" stroke="#2d7818" fill="#5bf030"/>"     "     "     <path d="M456 58h1v12h-1zm-15 15h13v29h-13z" fill="#5cf030" stroke="#2e7818"/>"     "     <path d="M455 73h2v19h-2zm0 20h2v9h-2zm-14 10h13v29h-13z" stroke="#2e7818" fill="#5df030"/>"     "     "     <path d="M455 103h2v19h-2zm0 20h2v9h-2zm-14 10h13v29h-13z" fill="#5ef030" stroke="#2f7818"/>"     "     "     <path d="M455 133h2v19h-2zm0 20h2v8h-2z" stroke="#2f7818" fill="#5ff030"/>"     "     <path d="M441 163h15v25h-15zm0 26h15v25h-15zm0 26h15v25h-15z" fill="#60f030" stroke="#307818"/>"     "     "     <path d="M441 241h15v25h-15zm0 26h15v25h-15zm0 26h16v23h-16z" stroke="#307818" fill="#61f030"/>"     "     "     <path d="M441 317h16v23h-16zm0 24h13v28h-13z" fill="#62f030" stroke="#317818"/>"     "     <path d="M455 341h2v19h-2zm0 20h2v7h-2zm-14 9h13v28h-13z" stroke="#317818" fill="#63f030"/>"     "     "     <path d="M455 369h2v19h-2zm0 20h2v7h-2zm-14 10h13v28h-13z" fill="#64f030" stroke="#327818"/>"     "     "     <path d="M455 397h2v30h-2zm-14 31h13v28h-13z" stroke="#327818" fill="#65f030"/>"     "     <path d="M455 428h2v18h-2zm0 19h2v7h-2zm-14 10h14v26h-14z" fill="#66f030" stroke="#337818"/>"     "     "     <path d="M456 457h1v11h-1zm0 12h1v11h-1zm-15 15h14v26h-14z" stroke="#337818" fill="#67f030"/>"     "     "     <path d="M441 511h11v1h-11zm17-492h20v20h-20z" fill="#68f030" stroke="#347818"/>"     "     <path d="M458 40h20v20h-20zm0 21h19v21h-19zm0 22h19v21h-19z" stroke="#347818" fill="#69f030"/>"     "     "     <path d="M458 105h19v21h-19zm0 22h18v22h-18zm0 23h18v22h-18z" fill="#6af030" stroke="#357818"/>"     "     "     <path d="M458 173h18v22h-18zm0 23h20v19h-20z" stroke="#357818" fill="#6bf030"/>"     "     <path d="M458 216h19v20h-19zm0 21h20v19h-20zm0 20h20v19h-20z" fill="#6cf030" stroke="#367818"/>"     "     "     <path d="M458 277h18v21h-18zm0 22h18v21h-18zm0 22h18v21h-18z" stroke="#367818" fill="#6df030"/>"     "     "     <path d="M458 343h18v21h-18zm0 22h18v21h-18z" fill="#6ef030" stroke="#377818"/>"     "     <path d="M458 387h18v21h-18zm0 22h17v22h-17zm18 0h2v18h-2z" stroke="#377818" fill="#6ff030"/>"     "     "     <path d="M458 432h17v22h-17zm18-4h2v18h-2zm0 19h2v6h-2z" fill="#70f030" stroke="#387818"/>"     "     "     <path d="M458 455h17v22h-17zm18-1h2v18h-2z" stroke="#387818" fill="#71f030"/>"     "     <path d="M458 478h17v22h-17zm0 23h20v11h-20zm18-28h2v18h-2z" fill="#72f030" stroke="#397818"/>"     "     "     <path d="M476 492h2v6h-2zm3-473h14v26h-14zm0 27h14v26h-14z" stroke="#397818" fill="#73f030"/>"     "     "     <path d="M479 73h14v26h-14zm0 27h12v30h-12z" fill="#74f030" stroke="#3a7818"/>"     "     <path d="M479 131h12v30h-12zm0 31h12v30h-12zm0 31h13v27h-13z" stroke="#3a7818" fill="#75f030"/>"     "     "     <path d="M479 221h13v27h-13zm0 28h13v27h-13zm0 28h14v25h-14z" fill="#76f030" stroke="#3b7818"/>"     "     "     <path d="M479 303h14v25h-14zm0 26h12v29h-12z" stroke="#3b7818" fill="#77f030"/>"     "     <path d="M479 359h14v25h-14zm0 26h14v25h-14zm0 26h12v29h-12z" fill="#78f030" stroke="#3c7818"/>"     "     "     <path d="M479 441h13v26h-13zm0 27h13v26h-13zm0 27h14v17h-14z" stroke="#3c7818" fill="#79f030"/>"     "     "     <path d="M494 19h19v19h-19zm0 20h15v24h-15z" fill="#7af030" stroke="#3d7818"/>"     "     <path d="M510 39h3v23h-3zm-16 25h15v24h-15zm16-1h3v25h-3z" stroke="#3d7818" fill="#7bf030"/>"     "     "     <path d="M494 89h15v24h-15zm16 0h3v23h-3zm-16 25h15v24h-15z" fill="#7cf030" stroke="#3e7818"/>"     "     "     <path d="M510 113h3v25h-3zm-16 26h19v19h-19z" stroke="#3e7818" fill="#7df030"/>"     "     <path d="M494 159h15v24h-15zm16 0h3v20h-3zm-16 25h18v20h-18z" fill="#7ef030" stroke="#3f7818"/>"     "     "     <path d="M494 205h17v21h-17zm0 22h17v21h-17zm0 22h17v21h-17z" stroke="#3f7818" fill="#7ff030"/>"     "     "     <path d="M494 271h16v22h-16zm17 0h2v17h-2z" fill="#80f030" stroke="#407818"/>"     "     <path d="M494 294h16v22h-16zm17-5h2v16h-2zm0 17h2v10h-2z" stroke="#407818" fill="#81f030"/>"     "     "     <path d="M494 317h16v22h-16zm17 0h2v15h-2zm0 16h2v6h-2z" fill="#82f030" stroke="#417818"/>"     "     "     <path d="M494 340h15v23h-15zm16 0h3v19h-3z" stroke="#417818" fill="#83f030"/>"     "     <path d="M494 364h15v23h-15zm16-4h3v27h-3zm-16 28h15v23h-15z" fill="#84f030" stroke="#427818"/>"     "     "     <path d="M510 388h3v19h-3zm-16 24h19v18h-19zm0 19h18v19h-18z" stroke="#427818" fill="#85f030"/>"     "     "     <path d="M494 451h19v18h-19zm0 19h13v26h-13z" fill="#86f030" stroke="#437818"/>"     "     <path d="M494 497h19v15h-19zm14-27h5v23h-5zm0 24h5v2h-5z" stroke="#437818" fill="#87f030"/>"     "     "     <path d="M514 19h20v17h-20zm21 0h26v13h-26zm0 14h18v3h-18z" fill="#88f030" stroke="#447818"/>"     "     "     <path d="M554 33h7v3h-7zm8-14h26v13h-26z" stroke="#447818" fill="#89f030"/>"     "     <path d="M562 33h18v3h-18zm19 0h7v3h-7zm8-14h20v17h-20z" fill="#8af030" stroke="#457818"/>"     "     "     <path d="M610 19h28v12h-28zm0 13h27v3h-27zm29-13h28v12h-28z" stroke="#457818" fill="#8bf030"/>"     "     "     <path d="M639 32h21v4h-21zm22 0h5v4h-5z" fill="#8cf030" stroke="#467818"/>"     "     <path d="M668 19h24v14h-24zm0 15h15v2h-15zm16 0h5v2h-5z" stroke="#467818" fill="#8df030"/>"     "     "     <path d="M693 19h24v14h-24zm-3 15h15v2h-15zm16 0h11v2h-11z" fill="#8ef030" stroke="#477818"/>"     "     "     <path d="M718 19h24v14h-24zm0 15h14v2h-14z" stroke="#477818" fill="#8ff030"/>"     "     <path d="M733 34h5v2h-5zm10-15h24v14h-24zm-4 15h14v2h-14z" fill="#90f030" stroke="#487818"/>"     "     "     <path d="M754 34h13v2h-13zm14-15h24v14h-24zm0 15h14v2h-14z" stroke="#487818" fill="#91f030"/>"     "     "     <path d="M793 19h21v16h-21zm22 0h21v16h-21z" fill="#92f030" stroke="#497818"/>"     "     <path d="M837 19h21v16h-21zm22 0h21v16h-21zm22 0h30v11h-30z" stroke="#497818" fill="#93f030"/>"     "     "     <path d="M881 31h30v5h-30zm31-12h30v11h-30zm0 12h30v5h-30z" fill="#94f030" stroke="#4a7818"/>"     "     "     <path d="M943 19h22v15h-22zm23 0h22v15h-22z" stroke="#4a7818" fill="#95f030"/>"     "     <path d="M989 19h22v15h-22zm23 0h12v17h-12zM514 37h13v25h-13z" fill="#96f030" stroke="#4b7818"/>"     "     "     <path d="M514 63h12v27h-12zm0 28h13v25h-13zm0 26h13v25h-13z" stroke="#4b7818" fill="#97f030"/>"     "     "     <path d="M514 143h12v27h-12zm0 28h11v29h-11z" fill="#98f030" stroke="#4c7818"/>"     "     <path d="M514 201h11v29h-11zm0 30h11v29h-11zm0 30h11v29h-11z" stroke="#4c7818" fill="#99f030"/>"     "     "     <path d="M514 291h11v29h-11zm0 30h11v29h-11zm0 30h11v29h-11z" fill="#9af030" stroke="#4d7818"/>"     "     "     <path d="M514 381h11v29h-11zm0 30h12v26h-12z" stroke="#4d7818" fill="#9bf030"/>"     "     <path d="M514 438h12v26h-12zm0 27h12v26h-12zm0 27h13v20h-13z" fill="#9cf030" stroke="#4e7818"/>"     "     "     <path d="M528 37h18v18h-18zm0 19h18v18h-18zm0 19h14v23h-14z" stroke="#4e7818" fill="#9df030"/>"     "     "     <path d="M543 75h3v18h-3zm-15 24h17v19h-17z" fill="#9ef030" stroke="#4f7818"/>"     "     <path d="M528 119h14v23h-14zm15 0h3v18h-3zm-15 24h14v23h-14z" stroke="#4f7818" fill="#9ff030"/>"     "     "     <path d="M543 138h3v18h-3zm0 19h3v9h-3zm-15 10h14v23h-14z" fill="#a0f030" stroke="#507818"/>"     "     "     <path d="M543 167h3v18h-3zm-15 24h14v23h-14z" stroke="#507818" fill="#a1f030"/>"     "     <path d="M543 186h3v17h-3zm0 18h3v10h-3zm-15 11h17v19h-17z" fill="#a2f030" stroke="#517818"/>"     "     "     <path d="M528 235h14v23h-14zm15 0h3v17h-3zm0 18h3v5h-3z" stroke="#517818" fill="#a3f030"/>"     "     "     <path d="M528 259h17v19h-17zm0 20h14v23h-14z" fill="#a4f030" stroke="#527818"/>"     "     <path d="M543 279h3v17h-3zm0 18h3v5h-3zm-15 6h16v20h-16z" stroke="#527818" fill="#a5f030"/>"     "     "     <path d="M528 324h16v20h-16zm0 21h16v20h-16zm0 21h16v20h-16z" fill="#a6f030" stroke="#537818"/>"     "     "     <path d="M528 387h15v21h-15zm16 0h2v14h-2z" stroke="#537818" fill="#a7f030"/>"     "     <path d="M528 409h15v21h-15zm16-7h2v13h-2zm0 14h2v13h-2z" fill="#a8f030" stroke="#547818"/>"     "     "     <path d="M528 431h15v21h-15zm16-1h2v13h-2zm-16 23h15v21h-15z" stroke="#547818" fill="#a9f030"/>"     "     "     <path d="M544 444h2v30h-2zm-16 31h15v21h-15z" fill="#aaf030" stroke="#557818"/>"     "     <path d="M528 497h18v15h-18zm16-22h2v13h-2zm3-438h13v24h-13z" stroke="#557818" fill="#abf030"/>"     "     "     <path d="M547 62h13v24h-13zm0 25h13v24h-13zm0 25h13v24h-13z" fill="#acf030" stroke="#567818"/>"     "     "     <path d="M547 137h11v28h-11zm0 29h11v28h-11z" stroke="#567818" fill="#adf030"/>"     "     <path d="M547 195h12v25h-12zm0 26h12v25h-12zm0 26h12v25h-12z" fill="#aef030" stroke="#577818"/>"     "     "     <path d="M547 273h12v25h-12zm0 26h12v25h-12zm0 26h11v27h-11z" stroke="#577818" fill="#aff030"/>"     "     "     <path d="M547 353h11v27h-11zm0 28h11v27h-11z" fill="#b0f030" stroke="#587818"/>"     "     <path d="M547 409h13v23h-13zm0 24h10v29h-10zm11 0h2v12h-2z" stroke="#587818" fill="#b1f030"/>"     "     "     <path d="M558 446h2v12h-2zm-11 17h10v29h-10zm0 30h13v19h-13z" fill="#b2f030" stroke="#597818"/>"     "     "     <path d="M558 459h2v12h-2zm0 13h2v11h-2z" stroke="#597818" fill="#b3f030"/>"     "     <path d="M561 37h22v14h-22zm23 0h22v14h-22zm23 0h22v14h-22z" fill="#b4f030" stroke="#5a7818"/>"     "     "     <path d="M630 37h22v14h-22zm23 0h22v14h-22zm23 0h22v14h-22z" stroke="#5a7818" fill="#b5f030"/>"     "     "     <path d="M699 37h21v14h-21zm22 0h21v14h-21z" fill="#b6f030" stroke="#5b7818"/>"     "     <path d="M743 37h21v14h-21zm22 0h24v12h-24zm25 0h24v12h-24z" stroke="#5b7818" fill="#b7f030"/>"     "     "     <path d="M815 37h24v12h-24zm25 0h24v12h-24zm25 0h24v12h-24z" fill="#b8f030" stroke="#5c7818"/>"     "     "     <path d="M890 37h26v11h-26zm0 12h10v2h-10z" stroke="#5c7818" fill="#b9f030"/>"     "     <path d="M917 37h26v11h-26zm27 0h22v13h-22zm23 0h22v13h-22z" fill="#baf030" stroke="#5d7818"/>"     "     "     <path d="M990 37h28v10h-28zm29 0h5v10h-5zm-29 11h17v3h-17z" stroke="#5d7818" fill="#bbf030"/>"     "     "     <path d="M1008 48h16v3h-16zm-447 4h18v17h-18z" fill="#bcf030" stroke="#5e7818"/>"     "     <path d="M580 52h18v17h-18zm19 0h18v17h-18zm19 0h18v17h-18z" stroke="#5e7818" fill="#bdf030"/>"     "     "     <path d="M637 52h18v17h-18zm19 0h18v17h-18zm19 0h19v16h-19z" fill="#bef030" stroke="#5f7818"/>"     "     "     <path d="M695 52h19v16h-19zm20 0h20v15h-20z" stroke="#5f7818" fill="#bff030"/>"     "     <path d="M736 52h20v15h-20zm21 0h20v15h-20zm21 0h20v15h-20z" fill="#c0f030" stroke="#607818"/>"     "     "     <path d="M799 52h17v17h-17zm18 0h17v17h-17zm18 0h17v17h-17z" stroke="#607818" fill="#c1f030"/>"     "     "     <path d="M853 52h18v16h-18zm19 0h18v16h-18z" fill="#c2f030" stroke="#617818"/>"     "     <path d="M891 52h18v16h-18zm19 0h19v15h-19zm20 0h19v15h-19z" stroke="#617818" fill="#c3f030"/>"     "     "     <path d="M950 52h28v10h-28zm0 11h28v5h-28zm29-11h28v10h-28z" fill="#c4f030" stroke="#627818"/>"     "     "     <path d="M1008 52h16v10h-16zm-29 11h29v5h-29z" stroke="#627818" fill="#c5f030"/>"     "     <path d="M1009 63h15v6h-15zm-448 7h10v28h-10zm0 29h10v28h-10z" fill="#c6f030" stroke="#637818"/>"     "     "     <path d="M561 128h10v28h-10zm0 29h10v28h-10zm0 29h10v27h-10z" stroke="#637818" fill="#c7f030"/>"     "     "     <path d="M561 214h10v27h-10zm0 28h10v26h-10z" fill="#c8f030" stroke="#647818"/>"     "     <path d="M561 269h10v26h-10zm0 27h10v26h-10zm0 27h10v25h-10z" stroke="#647818" fill="#c9f030"/>"     "     "     <path d="M561 349h10v25h-10zm0 26h10v24h-10zm0 25h10v24h-10z" fill="#caf030" stroke="#657818"/>"     "     "     <path d="M561 425h10v24h-10zm0 25h10v24h-10z" stroke="#657818" fill="#cbf030"/>"     "     <path d="M561 475h10v24h-10zm0 25h10v12h-10zm11-430h20v14h-20z" fill="#ccf030" stroke="#667818"/>"     "     "     <path d="M593 70h20v14h-20zm21 0h23v12h-23zm24 0h25v11h-25z" stroke="#667818" fill="#cdf030"/>"     "     "     <path d="M664 70h23v12h-23zm24 0h21v13h-21z" fill="#cef030" stroke="#677818"/>"     "     <path d="M710 70h21v13h-21zm22 0h24v11h-24zm25 0h24v11h-24z" stroke="#677818" fill="#cff030"/>"     "     "     <path d="M782 70h19v14h-19zm20 0h22v12h-22zm23 0h22v12h-22z" fill="#d0f030" stroke="#687818"/>"     "     "     <path d="M848 70h22v12h-22zm23 0h22v12h-22z" stroke="#687818" fill="#d1f030"/>"     "     <path d="M894 70h20v13h-20zm21 0h23v11h-23zm24 0h23v11h-23z" fill="#d2f030" stroke="#697818"/>"     "     "     <path d="M963 70h23v11h-23zm24 0h23v11h-23zm24 0h13v14h-13z" stroke="#697818" fill="#d3f030"/>"     "     "     <path d="M572 85h17v16h-17zm18 0h17v16h-17z" fill="#d4f030" stroke="#6a7818"/>"     "     <path d="M608 85h17v16h-17zm18 0h17v16h-17zm18 0h17v16h-17z" stroke="#6a7818" fill="#d5f030"/>"     "     "     <path d="M662 85h18v15h-18zm19 0h18v15h-18zm19 0h16v16h-16z" fill="#d6f030" stroke="#6b7818"/>"     "     "     <path d="M717 85h17v15h-17zm18 0h23v11h-23z" stroke="#6b7818" fill="#d7f030"/>"     "     <path d="M735 97h19v4h-19zm24-12h23v11h-23zm-4 12h19v4h-19z" fill="#d8f030" stroke="#6c7818"/>"     "     "     <path d="M775 97h7v4h-7zm8-12h17v15h-17zm18 0h21v12h-21z" stroke="#6c7818" fill="#d9f030"/>"     "     "     <path d="M801 98h15v3h-15zm22-13h21v12h-21z" fill="#daf030" stroke="#6d7818"/>"     "     <path d="M817 98h15v3h-15zm16 0h11v3h-11zm12-13h21v12h-21z" stroke="#6d7818" fill="#dbf030"/>"     "     "     <path d="M845 98h15v3h-15zm22-13h21v12h-21zm-6 13h14v3h-14z" fill="#dcf030" stroke="#6e7818"/>"     "     "     <path d="M876 98h12v3h-12zm13-13h18v14h-18z" stroke="#6e7818" fill="#ddf030"/>"     "     <path d="M908 85h18v14h-18zm19 0h18v14h-18zm19 0h19v13h-19z" fill="#def030" stroke="#6f7818"/>"     "     "     <path d="M966 85h19v13h-19zm20 0h19v13h-19zm20 0h15v16h-15z" stroke="#6f7818" fill="#dff030"/>"     "     "     <path d="M572 102h13v19h-13zm0 20h11v22h-11z" fill="#e0f030" stroke="#707818"/>"     "     <path d="M572 145h11v22h-11zm0 23h11v22h-11zm0 23h10v24h-10z" stroke="#707818" fill="#e1f030"/>"     "     "     <path d="M572 216h10v24h-10zm0 25h10v24h-10zm0 25h12v20h-12z" fill="#e2f030" stroke="#717818"/>"     "     "     <path d="M572 287h12v20h-12zm0 21h12v20h-12z" stroke="#717818" fill="#e3f030"/>"     "     <path d="M572 329h12v20h-12zm0 21h9v26h-9zm10 0h3v14h-3z" fill="#e4f030" stroke="#727818"/>"     "     "     <path d="M582 365h3v11h-3zm-10 12h9v26h-9zm10 0h3v14h-3z" stroke="#727818" fill="#e5f030"/>"     "     "     <path d="M582 392h3v11h-3zm-10 12h8v29h-8z" fill="#e6f030" stroke="#737818"/>"     "     <path d="M581 404h4v18h-4zm0 19h4v10h-4zm-9 11h8v29h-8z" stroke="#737818" fill="#e7f030"/>"     "     "     <path d="M581 434h4v18h-4zm0 19h4v9h-4zm-9 11h9v26h-9z" fill="#e8f030" stroke="#747818"/>"     "     "     <path d="M572 491h13v18h-13zm10-27h3v13h-3z" stroke="#747818" fill="#e9f030"/>"     "     <path d="M582 478h3v12h-3zm4-376h15v16h-15zm0 17h15v16h-15z" fill="#eaf030" stroke="#757818"/>"     "     "     <path d="M586 136h14v17h-14zm0 18h14v17h-14zm0 18h14v17h-14z" stroke="#757818" fill="#ebf030"/>"     "     "     <path d="M586 190h14v17h-14zm0 18h14v17h-14z" fill="#ecf030" stroke="#767818"/>"     "     <path d="M586 226h8v29h-8zm9 0h5v29h-5zm-9 30h13v18h-13z" stroke="#767818" fill="#edf030"/>"     "     "     <path d="M586 275h13v18h-13zm0 19h10v23h-10zm11 0h4v17h-4z" fill="#eef030" stroke="#777818"/>"     "     "     <path d="M597 312h4v5h-4zm-11 6h10v23h-10z" stroke="#777818" fill="#eff030"/>"     "     <path d="M597 318h4v17h-4zm0 18h4v5h-4zm-11 6h10v23h-10z" fill="#f0f030" stroke="#787818"/>"     "     "     <path d="M597 342h4v17h-4zm0 18h4v5h-4zm-11 6h11v21h-11z" stroke="#787818" fill="#f0f031"/>"     "     "     <path d="M598 366h3v13h-3zm0 14h3v7h-3z" fill="#f0f032" stroke="#787819"/>"     "     <path d="M586 388h11v21h-11zm12 0h3v13h-3zm0 14h3v6h-3z" stroke="#787819" fill="#f0f033"/>"     "     "     <path d="M586 410h11v21h-11zm12-1h3v13h-3zm0 14h3v8h-3z" fill="#f0f034" stroke="#78781a"/>"     "     "     <path d="M586 432h11v21h-11zm12 0h3v13h-3z" stroke="#78781a" fill="#f0f035"/>"     "     <path d="M598 446h3v6h-3zm-12 8h11v21h-11zm12-1h3v13h-3z" fill="#f0f036" stroke="#78781b"/>"     "     "     <path d="M598 467h3v8h-3zm-12 9h11v21h-11zm0 22h15v14h-15z" stroke="#78781b" fill="#f0f037"/>"     "     "     <path d="M598 476h3v13h-3zm0 14h3v6h-3z" fill="#f0f038" stroke="#78781c"/>"     "     <path d="M602 102h21v11h-21zm22 0h28v8h-28zm29 0h28v8h-28z" stroke="#78781c" fill="#f0f039"/>"     "     "     <path d="M682 102h28v8h-28zm29 0h28v8h-28zm29 0h28v8h-28z" fill="#f0f03a" stroke="#78781d"/>"     "     "     <path d="M769 102h25v9h-25zm26 0h25v9h-25z" stroke="#78781d" fill="#f0f03b"/>"     "     <path d="M821 102h22v10h-22zm23 0h22v10h-22zm23 0h20v11h-20z" fill="#f0f03c" stroke="#78781e"/>"     "     "     <path d="M888 102h20v11h-20zm21 0h20v11h-20zm21 0h24v9h-24z" stroke="#78781e" fill="#f0f03d"/>"     "     "     <path d="M955 102h24v9h-24zm25 0h24v9h-24z" fill="#f0f03e" stroke="#78781f"/>"     "     <path d="M1005 102h19v11h-19zm-403 12h19v12h-19zm20 0h24v9h-24z" stroke="#78781f" fill="#f0f03f"/>"     "     "     <path d="M647 114h30v7h-30zm0 8h16v4h-16zm17 0h13v4h-13z" fill="#f0f040" stroke="#787820"/>"     "     "     <path d="M678 114h30v7h-30zm0 8h16v4h-16z" stroke="#787820" fill="#f0f041"/>"     "     <path d="M695 122h13v4h-13zm14-8h30v7h-30zm0 8h16v4h-16z" fill="#f0f042" stroke="#787821"/>"     "     "     <path d="M726 122h13v4h-13zm14-8h30v7h-30zm0 8h15v4h-15z" stroke="#787821" fill="#f0f043"/>"     "     "     <path d="M756 122h14v4h-14zm15-8h30v7h-30z" fill="#f0f044" stroke="#787822"/>"     "     <path d="M771 122h14v4h-14zm15 0h13v4h-13zm16-8h18v12h-18z" stroke="#787822" fill="#f0f045"/>"     "     "     <path d="M821 114h18v12h-18zm19 0h18v12h-18zm19 0h18v12h-18z" fill="#f0f046" stroke="#787823"/>"     "     "     <path d="M878 114h21v10h-21zm22 0h21v10h-21z" stroke="#787823" fill="#f0f047"/>"     "     <path d="M922 114h21v10h-21zm22 0h21v10h-21zm22 0h19v11h-19z" fill="#f0f048" stroke="#787824"/>"     "     "     <path d="M986 114h19v11h-19zm20 0h17v12h-17zm-404 13h15v15h-15z" stroke="#787824" fill="#f0f049"/>"     "     "     <path d="M602 143h15v15h-15zm0 16h14v16h-14z" fill="#f0f04a" stroke="#787825"/>"     "     <path d="M602 176h14v16h-14zm0 17h14v16h-14zm0 17h14v16h-14z" stroke="#787825" fill="#f0f04b"/>"     "     "     <path d="M602 227h13v17h-13zm0 18h13v17h-13zm0 18h13v17h-13z" fill="#f0f04c" stroke="#787826"/>"     "     "     <path d="M602 281h7v29h-7zm8 0h7v29h-7z" stroke="#787826" fill="#f0f04d"/>"     "     <path d="M602 311h14v15h-14zm0 16h9v23h-9zm10 0h5v22h-5z" fill="#f0f04e" stroke="#787827"/>"     "     "     <path d="M602 351h11v19h-11zm12 0h3v12h-3zm0 13h3v6h-3z" stroke="#787827" fill="#f0f04f"/>"     "     "     <path d="M602 371h14v15h-14zm0 16h7v29h-7z" fill="#f0f050" stroke="#787828"/>"     "     <path d="M610 387h7v29h-7zm-8 30h14v15h-14zm0 16h9v23h-9z" stroke="#787828" fill="#f0f051"/>"     "     "     <path d="M612 433h5v22h-5zm-10 24h14v15h-14zm0 16h11v19h-11z" fill="#f0f052" stroke="#787829"/>"     "     "     <path d="M614 473h3v12h-3zm0 13h3v6h-3z" stroke="#787829" fill="#f0f053"/>"     "     <path d="M602 493h11v19h-11zm12 0h3v11h-3zm0 12h3v6h-3z" fill="#f0f054" stroke="#78782a"/>"     "     "     <path d="M618 127h15v14h-15zm16 0h16v13h-16zm17 0h16v13h-16z" stroke="#78782a" fill="#f0f055"/>"     "     "     <path d="M668 127h16v13h-16zm17 0h16v13h-16z" fill="#f0f056" stroke="#78782b"/>"     "     <path d="M702 127h16v13h-16zm17 0h16v13h-16zm17 0h25v8h-25z" stroke="#78782b" fill="#f0f057"/>"     "     "     <path d="M736 136h22v5h-22zm26-9h25v8h-25zm-3 9h28v5h-28z" fill="#f0f058" stroke="#78782c"/>"     "     "     <path d="M788 127h17v12h-17zm18 0h25v8h-25z" stroke="#78782c" fill="#f0f059"/>"     "     <path d="M806 136h22v5h-22zm26-9h17v12h-17zm18 0h17v12h-17z" fill="#f0f05a" stroke="#78782d"/>"     "     "     <path d="M868 127h17v12h-17zm18 0h28v7h-28zm0 8h28v5h-28z" stroke="#78782d" fill="#f0f05b"/>"     "     "     <path d="M915 127h28v7h-28zm0 8h28v5h-28z" fill="#f0f05c" stroke="#78782e"/>"     "     <path d="M944 127h28v7h-28zm0 8h28v5h-28zm29-8h28v7h-28z" stroke="#78782e" fill="#f0f05d"/>"     "     "     <path d="M1002 127h22v7h-22zm-29 8h23v6h-23zm24 0h22v6h-22z" fill="#f0f05e" stroke="#78782f"/>"     "     "     <path d="M1020 135h4v5h-4zm-402 7h7v28h-7z" stroke="#78782f" fill="#f0f05f"/>"     "     <path d="M618 171h7v26h-7zm0 27h7v26h-7zm0 27h7v26h-7z" fill="#f0f060" stroke="#787830"/>"     "     "     <path d="M618 252h7v26h-7zm0 27h7v26h-7zm0 27h7v26h-7z" stroke="#787830" fill="#f0f061"/>"     "     "     <path d="M618 333h7v26h-7zm0 27h7v26h-7z" fill="#f0f062" stroke="#787831"/>"     "     <path d="M618 387h7v25h-7zm0 26h7v25h-7zm0 26h7v25h-7z" stroke="#787831" fill="#f0f063"/>"     "     "     <path d="M618 465h7v25h-7zm0 26h7v21h-7zm8-349h10v20h-10z" fill="#f0f064" stroke="#787832"/>"     "     "     <path d="M626 163h10v20h-10zm0 21h9v22h-9z" stroke="#787832" fill="#f0f065"/>"     "     <path d="M626 207h8v24h-8zm0 25h8v24h-8zm0 25h8v24h-8z" fill="#f0f066" stroke="#787833"/>"     "     "     <path d="M626 282h8v24h-8zm0 25h8v24h-8zm0 25h8v24h-8z" stroke="#787833" fill="#f0f067"/>"     "     "     <path d="M626 357h10v19h-10zm0 20h10v19h-10z" fill="#f0f068" stroke="#787834"/>"     "     <path d="M626 397h9v21h-9zm0 22h9v21h-9zm0 22h10v19h-10z" stroke="#787834" fill="#f0f069"/>"     "     "     <path d="M626 461h9v21h-9zm0 22h8v23h-8zm0 24h9v5h-9z" fill="#f0f06a" stroke="#787835"/>"     "     "     <path d="M637 142h11v18h-11zm0 19h11v18h-11z" stroke="#787835" fill="#f0f06b"/>"     "     <path d="M637 180h11v18h-11zm0 19h11v18h-11zm0 19h11v18h-11z" fill="#f0f06c" stroke="#787836"/>"     "     "     <path d="M637 237h11v17h-11zm0 18h8v23h-8zm0 24h8v23h-8z" stroke="#787836" fill="#f0f06d"/>"     "     "     <path d="M637 303h11v17h-11zm0 18h8v23h-8z" fill="#f0f06e" stroke="#787837"/>"     "     <path d="M637 345h11v17h-11zm0 18h8v23h-8zm0 24h8v23h-8z" stroke="#787837" fill="#f0f06f"/>"     "     "     <path d="M637 411h9v20h-9zm0 21h9v20h-9zm0 21h9v20h-9z" fill="#f0f070" stroke="#787838"/>"     "     "     <path d="M637 474h9v20h-9zm0 21h11v16h-11z" stroke="#787838" fill="#f0f071"/>"     "     <path d="M649 142h14v14h-14zm0 15h14v14h-14zm0 15h14v14h-14z" fill="#f0f072" stroke="#787839"/>"     "     "     <path d="M649 187h13v15h-13zm0 16h12v16h-12zm0 17h12v16h-12z" stroke="#787839" fill="#f0f073"/>"     "     "     <path d="M649 237h12v16h-12zm0 17h12v16h-12z" fill="#f0f074" stroke="#78783a"/>"     "     <path d="M649 271h12v16h-12zm0 17h12v16h-12zm0 17h9v20h-9z" stroke="#78783a" fill="#f0f075"/>"     "     "     <path d="M659 305h4v12h-4zm0 13h4v7h-4zm-10 8h14v13h-14z" fill="#f0f076" stroke="#78783b"/>"     "     "     <path d="M649 340h13v14h-13zm0 15h9v20h-9z" stroke="#78783b" fill="#f0f077"/>"     "     <path d="M659 355h4v12h-4zm0 13h4v7h-4zm-10 8h13v14h-13z" fill="#f0f078" stroke="#78783c"/>"     "     "     <path d="M649 391h9v20h-9zm10 0h4v11h-4zm0 12h4v8h-4z" stroke="#78783c" fill="#f0f079"/>"     "     "     <path d="M649 412h10v18h-10zm11 0h3v10h-3z" fill="#f0f07a" stroke="#78783d"/>"     "     <path d="M649 431h10v18h-10zm11-8h3v10h-3zm0 11h3v10h-3z" stroke="#78783d" fill="#f0f07b"/>"     "     "     <path d="M649 450h10v18h-10zm11-5h3v10h-3zm0 11h3v9h-3z" fill="#f0f07c" stroke="#78783e"/>"     "     "     <path d="M649 469h10v18h-10zm11-3h3v8h-3z" stroke="#78783e" fill="#f0f07d"/>"     "     <path d="M660 475h3v8h-3zm-11 13h12v15h-12zm0 16h14v8h-14z" fill="#f0f07e" stroke="#78783f"/>"     "     "     <path d="M664 142h25v7h-25zm26 0h25v7h-25zm26 0h25v7h-25z" stroke="#78783f" fill="#f0f07f"/>"     "     "     <path d="M742 142h24v7h-24zm25 0h24v7h-24z" fill="#f0f080" stroke="#787840"/>"     "     <path d="M792 142h24v7h-24zm25 0h24v7h-24zm25 0h24v7h-24z" stroke="#787840" fill="#f0f081"/>"     "     "     <path d="M867 142h23v7h-23zm24 0h23v7h-23zm24 0h23v7h-23z" fill="#f0f082" stroke="#787841"/>"     "     "     <path d="M939 142h23v7h-23zm24 0h22v7h-22z" stroke="#787841" fill="#f0f083"/>"     "     <path d="M986 142h22v7h-22zm23 0h15v7h-15zm-345 8h12v15h-12z" fill="#f0f084" stroke="#787842"/>"     "     "     <path d="M664 166h8v22h-8zm0 23h8v22h-8zm0 23h11v16h-11z" stroke="#787842" fill="#f0f085"/>"     "     "     <path d="M664 229h11v16h-11zm0 17h11v16h-11z" fill="#f0f086" stroke="#787843"/>"     "     <path d="M664 263h11v16h-11zm0 17h8v21h-8zm0 22h8v21h-8z" stroke="#787843" fill="#f0f087"/>"     "     "     <path d="M664 324h10v17h-10zm0 18h8v21h-8zm0 22h8v21h-8z" fill="#f0f088" stroke="#787844"/>"     "     "     <path d="M664 386h8v21h-8zm0 22h12v14h-12z" stroke="#787844" fill="#f0f089"/>"     "     <path d="M664 423h12v14h-12zm0 15h12v14h-12zm0 15h11v15h-11z" fill="#f0f08a" stroke="#787845"/>"     "     "     <path d="M664 469h11v15h-11zm0 16h11v15h-11zm0 16h12v11h-12z" stroke="#787845" fill="#f0f08b"/>"     "     "     <path d="M677 150h13v13h-13zm14 0h15v11h-15z" fill="#f0f08c" stroke="#787846"/>"     "     <path d="M707 150h15v11h-15zm16 0h18v9h-18zm19 0h20v8h-20z" stroke="#787846" fill="#f0f08d"/>"     "     "     <path d="M742 159h11v4h-11zm12 0h8v4h-8zm9-9h20v8h-20z" fill="#f0f08e" stroke="#787847"/>"     "     "     <path d="M763 159h11v4h-11zm12 0h7v4h-7z" stroke="#787847" fill="#f0f08f"/>"     "     <path d="M784 150h20v8h-20zm-1 9h9v4h-9zm10 0h9v4h-9z" fill="#f0f090" stroke="#787848"/>"     "     "     <path d="M805 150h20v8h-20zm-2 9h9v4h-9zm10 0h9v4h-9z" stroke="#787848" fill="#f0f091"/>"     "     "     <path d="M826 150h16v10h-16zm17 0h16v10h-16z" fill="#f0f092" stroke="#787849"/>"     "     <path d="M860 150h16v10h-16zm17 0h16v10h-16zm17 0h22v7h-22z" stroke="#787849" fill="#f0f093"/>"     "     "     <path d="M894 158h22v5h-22zm23-8h22v7h-22zm0 8h22v5h-22z" fill="#f0f094" stroke="#78784a"/>"     "     "     <path d="M940 150h12v13h-12zm13 0h17v9h-17z" stroke="#78784a" fill="#f0f095"/>"     "     <path d="M971 150h17v9h-17zm18 0h14v11h-14zm15 0h17v9h-17z" fill="#f0f096" stroke="#78784b"/>"     "     "     <path d="M677 164h14v11h-14zm15 0h19v8h-19zm20 0h17v9h-17z" stroke="#78784b" fill="#f0f097"/>"     "     "     <path d="M730 164h14v11h-14zm15 0h14v11h-14z" fill="#f0f098" stroke="#78784c"/>"     "     <path d="M760 164h15v10h-15zm16 0h15v10h-15zm16 0h21v7h-21z" stroke="#78784c" fill="#f0f099"/>"     "     "     <path d="M814 164h15v10h-15zm16 0h15v10h-15zm16 0h15v10h-15z" fill="#f0f09a" stroke="#78784d"/>"     "     "     <path d="M862 164h21v7h-21zm22 0h15v10h-15z" stroke="#78784d" fill="#f0f09b"/>"     "     <path d="M900 164h18v8h-18zm19 0h18v8h-18zm19 0h16v9h-16z" fill="#f0f09c" stroke="#78784e"/>"     "     "     <path d="M955 164h16v9h-16zm17 0h16v9h-16zm17 0h16v9h-16z" stroke="#78784e" fill="#f0f09d"/>"     "     "     <path d="M1006 164h16v9h-16zm-329 12h12v12h-12z" fill="#f0f09e" stroke="#78784f"/>"     "     <path d="M677 189h12v12h-12zm0 13h12v12h-12zm0 13h11v13h-11z" stroke="#78784f" fill="#f0f09f"/>"     "     "     <path d="M677 229h11v13h-11zm0 14h11v13h-11zm0 14h11v13h-11z" fill="#f0f0a0" stroke="#787850"/>"     "     "     <path d="M677 271h11v13h-11zm0 14h11v13h-11z" stroke="#787850" fill="#f0f0a1"/>"     "     <path d="M677 299h7v20h-7zm0 21h11v13h-11zm0 14h11v13h-11z" fill="#f0f0a2" stroke="#787851"/>"     "     "     <path d="M677 348h7v20h-7zm0 21h10v14h-10zm0 15h10v14h-10z" stroke="#787851" fill="#f0f0a3"/>"     "     "     <path d="M677 399h10v14h-10zm0 15h10v14h-10z" fill="#f0f0a4" stroke="#787852"/>"     "     <path d="M677 429h10v14h-10zm0 15h10v14h-10zm0 15h8v17h-8z" stroke="#787852" fill="#f0f0a5"/>"     "     "     <path d="M677 477h8v17h-8zm0 18h8v17h-8zm13-319h8v17h-8z" fill="#f0f0a6" stroke="#787853"/>"     "     "     <path d="M690 194h8v17h-8zm0 18h8v17h-8z" stroke="#787853" fill="#f0f0a7"/>"     "     <path d="M690 230h8v17h-8zm0 18h8v17h-8zm0 18h8v17h-8z" fill="#f0f0a8" stroke="#787854"/>"     "     "     <path d="M690 284h6v22h-6zm0 23h6v22h-6zm0 23h7v19h-7z" stroke="#787854" fill="#f0f0a9"/>"     "     "     <path d="M690 350h7v19h-7zm0 20h7v19h-7z" fill="#f0f0aa" stroke="#787855"/>"     "     <path d="M690 390h7v19h-7zm0 20h6v21h-6zm0 22h6v21h-6z" stroke="#787855" fill="#f0f0ab"/>"     "     "     <path d="M690 454h8v16h-8zm0 17h8v16h-8zm0 17h8v16h-8z" fill="#f0f0ac" stroke="#787856"/>"     "     "     <path d="M690 505h8v7h-8zm9-329h9v15h-9z" stroke="#787856" fill="#f0f0ad"/>"     "     <path d="M699 192h9v15h-9zm0 16h9v15h-9zm0 16h9v15h-9z" fill="#f0f0ae" stroke="#787857"/>"     "     "     <path d="M699 240h9v15h-9zm0 16h8v16h-8zm0 17h8v16h-8z" stroke="#787857" fill="#f0f0af"/>"     "     "     <path d="M699 290h8v16h-8zm0 17h8v16h-8z" fill="#f0f0b0" stroke="#787858"/>"     "     <path d="M699 324h7v18h-7zm0 19h7v18h-7zm0 19h7v18h-7z" stroke="#787858" fill="#f0f0b1"/>"     "     "     <path d="M699 381h7v18h-7zm0 19h7v18h-7zm0 19h9v14h-9z" fill="#f0f0b2" stroke="#787859"/>"     "     "     <path d="M699 434h6v20h-6zm0 21h6v20h-6z" stroke="#787859" fill="#f0f0b3"/>"     "     <path d="M699 476h6v20h-6zm0 21h8v15h-8zm10-321h12v11h-12z" fill="#f0f0b4" stroke="#78785a"/>"     "     "     <path d="M722 176h13v10h-13zm14 0h13v10h-13zm14 0h20v6h-20z" stroke="#78785a" fill="#f0f0b5"/>"     "     "     <path d="M771 176h15v8h-15zm16 0h17v7h-17z" fill="#f0f0b6" stroke="#78785b"/>"     "     <path d="M805 176h11v11h-11zm12 0h17v7h-17zm18 0h11v11h-11z" stroke="#78785b" fill="#f0f0b7"/>"     "     "     <path d="M847 176h12v10h-12zm13 0h12v10h-12zm13 0h19v6h-19z" fill="#f0f0b8" stroke="#78785c"/>"     "     "     <path d="M893 176h13v9h-13zm14 0h13v9h-13z" stroke="#78785c" fill="#f0f0b9"/>"     "     <path d="M921 176h19v6h-19zm20 0h13v9h-13zm14 0h13v9h-13z" fill="#f0f0ba" stroke="#78785d"/>"     "     "     <path d="M969 176h13v9h-13zm14 0h19v6h-19zm20 0h13v9h-13z" stroke="#78785d" fill="#f0f0bb"/>"     "     "     <path d="M1017 176h7v11h-7zm-308 12h7v16h-7z" fill="#f0f0bc" stroke="#78785e"/>"     "     <path d="M709 205h7v16h-7zm0 17h7v16h-7zm0 17h7v16h-7z" stroke="#78785e" fill="#f0f0bd"/>"     "     "     <path d="M709 256h7v16h-7zm0 17h6v18h-6zm0 19h6v18h-6z" fill="#f0f0be" stroke="#78785f"/>"     "     "     <path d="M709 311h6v18h-6zm0 19h6v18h-6z" stroke="#78785f" fill="#f0f0bf"/>"     "     <path d="M709 349h5v21h-5zm0 22h5v21h-5zm0 22h5v21h-5z" fill="#f0f0c0" stroke="#787860"/>"     "     "     <path d="M709 415h7v15h-7zm0 16h5v20h-5zm0 21h6v17h-6z" stroke="#787860" fill="#f0f0c1"/>"     "     "     <path d="M709 470h5v20h-5zm0 21h5v20h-5z" fill="#f0f0c2" stroke="#787861"/>"     "     <path d="M717 188h14v8h-14zm15 0h13v8h-13zm14 0h13v8h-13z" stroke="#787861" fill="#f0f0c3"/>"     "     "     <path d="M760 188h13v8h-13zm14 0h14v7h-14zm15 0h19v5h-19z" fill="#f0f0c4" stroke="#787862"/>"     "     "     <path d="M809 188h19v5h-19zm20 0h19v5h-19z" stroke="#787862" fill="#f0f0c5"/>"     "     <path d="M849 188h14v7h-14zm15 0h14v7h-14zm15 0h16v6h-16z" fill="#f0f0c6" stroke="#787863"/>"     "     "     <path d="M896 188h16v6h-16zm17 0h16v6h-16zm17 0h12v8h-12z" stroke="#787863" fill="#f0f0c7"/>"     "     "     <path d="M943 188h12v8h-12zm13 0h12v8h-12z" fill="#f0f0c8" stroke="#787864"/>"     "     <path d="M969 188h12v8h-12zm13 0h18v5h-18zm19 0h15v6h-15z" stroke="#787864" fill="#f0f0c9"/>"     "     "     <path d="M1017 188h7v8h-7zm-300 9h11v10h-11zm12 0h11v10h-11z" fill="#f0f0ca" stroke="#787865"/>"     "     "     <path d="M741 197h11v10h-11zm12 0h11v10h-11z" stroke="#787865" fill="#f0f0cb"/>"     "     <path d="M765 197h11v10h-11zm12 0h12v9h-12zm13 0h12v9h-12z" fill="#f0f0cc" stroke="#787866"/>"     "     "     <path d="M803 197h12v9h-12zm13 0h10v10h-10zm11 0h10v10h-10z" stroke="#787866" fill="#f0f0cd"/>"     "     "     <path d="M838 197h11v9h-11zm12 0h11v9h-11z" fill="#f0f0ce" stroke="#787867"/>"     "     <path d="M862 197h11v9h-11zm12 0h11v9h-11zm12 0h13v7h-13z" stroke="#787867" fill="#f0f0cf"/>"     "     "     <path d="M900 197h9v10h-9zm10 0h10v9h-10zm11 0h10v9h-10z" fill="#f0f0d0" stroke="#787868"/>"     "     "     <path d="M932 197h10v9h-10zm11 0h11v8h-11z" stroke="#787868" fill="#f0f0d1"/>"     "     <path d="M955 197h11v8h-11zm12 0h11v8h-11zm12 0h14v6h-14z" fill="#f0f0d2" stroke="#787869"/>"     "     "     <path d="M994 197h14v6h-14zm15 0h14v6h-14zm-292 11h12v7h-12z" stroke="#787869" fill="#f0f0d3"/>"     "     "     <path d="M730 208h12v7h-12zm13 0h12v7h-12z" fill="#f0f0d4" stroke="#78786a"/>"     "     <path d="M756 208h12v7h-12zm13 0h12v7h-12zm13 0h16v5h-16z" stroke="#78786a" fill="#f0f0d5"/>"     "     "     <path d="M799 208h16v5h-16zm17 0h16v5h-16zm17 0h13v6h-13z" fill="#f0f0d6" stroke="#78786b"/>"     "     "     <path d="M847 208h13v6h-13zm14 0h13v6h-13z" stroke="#78786b" fill="#f0f0d7"/>"     "     <path d="M875 208h13v6h-13zm14 0h15v5h-15zm16 0h15v5h-15z" fill="#f0f0d8" stroke="#78786c"/>"     "     "     <path d="M921 208h15v5h-15zm16 0h15v5h-15zm16 0h15v5h-15z" stroke="#78786c" fill="#f0f0d9"/>"     "     "     <path d="M969 208h15v5h-15zm16 0h15v5h-15z" fill="#f0f0da" stroke="#78786d"/>"     "     <path d="M1001 208h12v6h-12zm13 0h10v7h-10zm-297 8h9v9h-9z" stroke="#78786d" fill="#f0f0db"/>"     "     "     <path d="M717 226h8v10h-8zm0 11h8v10h-8zm0 11h8v9h-8z" fill="#f0f0dc" stroke="#78786e"/>"     "     "     <path d="M717 258h5v14h-5zm0 15h8v9h-8z" stroke="#78786e" fill="#f0f0dd"/>"     "     <path d="M717 283h5v14h-5zm0 15h8v9h-8zm0 10h5v14h-5z" fill="#f0f0de" stroke="#78786f"/>"     "     "     <path d="M717 323h8v9h-8zm0 10h7v10h-7zm0 11h5v13h-5z" stroke="#78786f" fill="#f0f0df"/>"     "     "     <path d="M717 358h6v11h-6zm0 12h6v11h-6z" fill="#f0f0e0" stroke="#787870"/>"     "     <path d="M717 382h6v11h-6zm0 12h6v11h-6zm0 12h5v13h-5z" stroke="#787870" fill="#f0f0e1"/>"     "     "     <path d="M717 420h8v8h-8zm0 9h8v8h-8zm0 9h9v7h-9z" fill="#f0f0e2" stroke="#787871"/>"     "     "     <path d="M717 446h7v9h-7zm0 10h5v12h-5z" stroke="#787871" fill="#f0f0e3"/>"     "     <path d="M717 469h5v12h-5zm0 13h5v12h-5zm0 13h6v10h-6z" fill="#f0f0e4" stroke="#787872"/>"     "     "     <path d="M717 506h9v6h-9zm10-290h6v10h-6zm0 11h6v10h-6z" stroke="#787872" fill="#f0f0e5"/>"     "     "     <path d="M727 238h6v10h-6zm0 11h5v11h-5z" fill="#f0f0e6" stroke="#787873"/>"     "     <path d="M727 261h5v11h-5zm0 12h5v11h-5zm0 12h6v8h-6z" stroke="#787873" fill="#f0f0e7"/>"     "     "     <path d="M727 294h6v8h-6zm0 9h6v7h-6zm0 8h6v7h-6z" fill="#f0f0e8" stroke="#787874"/>"     "     "     <path d="M727 319h6v7h-6zm0 8h6v7h-6z" stroke="#787874" fill="#f0f0e9"/>"     "     <path d="M727 335h5v8h-5zm0 9h5v8h-5zm0 9h5v8h-5z" fill="#f0f0ea" stroke="#787875"/>"     "     "     <path d="M727 362h6v6h-6zm0 7h5v7h-5zm0 8h5v7h-5z" stroke="#787875" fill="#f0f0eb"/>"     "     "     <path d="M727 385h5v7h-5zm0 8h5v7h-5z" fill="#f0f0ec" stroke="#787876"/>"     "     <path d="M727 401h5v7h-5zm0 8h5v6h-5zm0 7h5v6h-5z" stroke="#787876" fill="#f0f0ed"/>"     "     "     <path d="M727 423h5v5h-5zm0 6h5v5h-5zm7-213h8v7h-8z" fill="#f0f0ee" stroke="#787877"/>"     "     "     <path d="M743 216h8v7h-8zm9 0h7v7h-7z" stroke="#787877" fill="#f0f0ef"/>"     "     <text y="526" font-size="12" fill="#000" x="0"> MaxRectsBin(size: 1024x512, choice: BestAreaFit, method: MinimizeArea): inserted 1536 of 1536 rectangles with w/h lengths between [2, 31], occupancy: 80.22% </text></svg>