<svg xmlns="http://www.w3.org/2000/svg" viewBox="0 0 1024 536" xmlns:v="https://vecta.io/nano"><path d="M0 0h1024v512H0z" fill="#fff" stroke="#000"/>"     <path d="M1 1h29v30H1zm30 0h29v30H31zm30 0h30v29H61z" fill="#303030" stroke="#181818"/>"     "     "     <path d="M92 1h29v29H92zm30 0h29v29h-29z" stroke="#181818" fill="#303130"/>"     "     <path d="M152 1h29v29h-29zm30 0h29v29h-29z" fill="#303230" stroke="#181918"/>"     "     <path d="M212 1h30v28h-30zm31 0h30v28h-30zm31 0h30v28h-30z" stroke="#181918" fill="#303330"/>"     "     "     <path d="M305 1h30v28h-30zm31 0h29v28h-29z" fill="#303430" stroke="#181a18"/>"     "     <path d="M366 1h30v27h-30zm31 0h30v27h-30z" stroke="#181a18" fill="#303530"/>"     "     <path d="M428 1h30v27h-30zm31 0h30v27h-30zm31 0h30v27h-30z" fill="#303630" stroke="#181b18"/>"     "     "     <path d="M521 1h30v27h-30zm31 0h29v27h-29z" stroke="#181b18" fill="#303730"/>"     "     <path d="M582 1h29v27h-29zm30 0h29v27h-29z" fill="#303830" stroke="#181c18"/>"     "     <path d="M642 1h30v26h-30zm31 0h30v26h-30z" stroke="#181c18" fill="#303930"/>"     "     <path d="M704 1h29v26h-29zm30 0h29v26h-29zm30 0h30v25h-30z" fill="#303a30" stroke="#181d18"/>"     "     "     <path d="M795 1h30v25h-30zm31 0h29v25h-29z" stroke="#181d18" fill="#303b30"/>"     "     <path d="M856 1h29v25h-29zm30 0h29v25h-29z" fill="#303c30" stroke="#181e18"/>"     "     <path d="M916 1h30v24h-30zm31 0h29v24h-29zm30 0h29v24h-29z" stroke="#181e18" fill="#303d30"/>"     "     "     <path d="M1007 1h17v24h-17zM1 32h28v28H1z" fill="#303e30" stroke="#181f18"/>"     "     <path d="M30 32h28v28H30zm29 0h28v28H59z" stroke="#181f18" fill="#303f30"/>"     "     <path d="M88 32h28v27H88zm29 0h28v27h-28z" fill="#304030" stroke="#182018"/>"     "     <path d="M146 32h27v27h-27zm28 0h27v27h-27zm28 0h27v27h-27z" stroke="#182018" fill="#304130"/>"     "     "     <path d="M230 32h28v26h-28zm29 0h28v26h-28z" fill="#304230" stroke="#182118"/>"     "     <path d="M288 32h28v26h-28zm29 0h28v26h-28z" stroke="#182118" fill="#304330"/>"     "     <path d="M346 32h27v26h-27zm28 0h27v26h-27zm28 0h27v26h-27z" fill="#304430" stroke="#182218"/>"     "     "     <path d="M430 32h28v25h-28zm29 0h28v25h-28z" stroke="#182218" fill="#304530"/>"     "     <path d="M488 32h29v24h-29zm30 0h29v24h-29z" fill="#304630" stroke="#182318"/>"     "     <path d="M548 32h30v23h-30zm31 0h30v23h-30z" stroke="#182318" fill="#304730"/>"     "     <path d="M610 32h30v23h-30zm31 0h29v23h-29zm30 0h29v23h-29z" fill="#304830" stroke="#182418"/>"     "     "     <path d="M701 32h30v22h-30zm31 0h30v22h-30z" stroke="#182418" fill="#304930"/>"     "     <path d="M763 32h30v22h-30zm31 0h30v22h-30z" fill="#304a30" stroke="#182518"/>"     "     <path d="M825 32h29v22h-29zm30 0h29v22h-29zm30 0h29v22h-29z" stroke="#182518" fill="#304b30"/>"     "     "     <path d="M915 32h29v22h-29zm30 0h29v22h-29z" fill="#304c30" stroke="#182618"/>"     "     <path d="M975 32h29v22h-29zm30 0h19v22h-19z" stroke="#182618" fill="#304d30"/>"     "     <path d="M1 61h26v26H1zm27 0h26v26H28z" fill="#304e30" stroke="#182718"/>"     "     <path d="M55 61h27v25H55zm28 0h27v25H83zm28 0h27v25h-27z" stroke="#182718" fill="#304f30"/>"     "     "     <path d="M139 61h27v25h-27zm28 0h26v25h-26z" fill="#305030" stroke="#182818"/>"     "     <path d="M194 61h26v25h-26zm27 0h26v25h-26z" stroke="#182818" fill="#305130"/>"     "     <path d="M248 61h26v25h-26zm27 0h26v25h-26zm27 0h27v24h-27z" fill="#305230" stroke="#182918"/>"     "     "     <path d="M330 61h27v24h-27zm28 0h27v24h-27z" stroke="#182918" fill="#305330"/>"     "     <path d="M386 61h28v23h-28zm29 0h28v23h-28z" fill="#305430" stroke="#182a18"/>"     "     <path d="M444 61h28v23h-28zm29 0h30v21h-30z" stroke="#182a18" fill="#305530"/>"     "     <path d="M473 83h30v1h-30zm31-22h30v21h-30zm0 22h30v1h-30z" fill="#305630" stroke="#182b18"/>"     "     "     <path d="M535 61h30v21h-30zm0 22h28v1h-28z" stroke="#182b18" fill="#305730"/>"     "     <path d="M564 83h28v1h-28zm29 0h27v1h-27z" fill="#305830" stroke="#182c18"/>"     "     <path d="M621 83h27v1h-27zm28 0h27v1h-27zm28 0h27v1h-27z" stroke="#182c18" fill="#305930"/>"     "     "     <path d="M705 83h27v1h-27zm28 0h26v1h-26z" fill="#305a30" stroke="#182d18"/>"     "     <path d="M760 83h26v1h-26zm27 0h26v1h-26z" stroke="#182d18" fill="#305b30"/>"     "     <path d="M814 83h24v1h-24zm25 0h23v1h-23z" fill="#305c30" stroke="#182e18"/>"     "     <path d="M863 83h23v1h-23zm24 0h23v1h-23zm24 0h23v1h-23z" stroke="#182e18" fill="#305d30"/>"     "     "     <path d="M935 83h23v1h-23zm24 0h23v1h-23z" fill="#305e30" stroke="#182f18"/>"     "     <path d="M983 83h22v1h-22zm23 0h18v1h-18z" stroke="#182f18" fill="#305f30"/>"     "     <path d="M566 61h30v21h-30zm31 0h29v21h-29zm30 0h29v21h-29z" fill="#306030" stroke="#183018"/>"     "     "     <path d="M657 61h30v20h-30zm31 0h30v20h-30z" stroke="#183018" fill="#306130"/>"     "     <path d="M719 61h30v20h-30zm31 0h30v20h-30z" fill="#306230" stroke="#183118"/>"     "     <path d="M781 61h29v20h-29zm30 0h29v20h-29z" stroke="#183118" fill="#306330"/>"     "     <path d="M841 61h29v20h-29zm30 0h29v20h-29zm30 0h29v20h-29z" fill="#306430" stroke="#183218"/>"     "     "     <path d="M931 61h29v20h-29zm30 0h30v19h-30z" stroke="#183218" fill="#306530"/>"     "     <path d="M992 61h30v19h-30zm31 0h1v19h-1z" fill="#306630" stroke="#183318"/>"     "     <path d="M1 88h25v25H1zm26 0h25v25H27zm26 0h26v24H53z" stroke="#183318" fill="#306730"/>"     "     "     <path d="M80 88h26v24H80zm27 0h27v23h-27z" fill="#306830" stroke="#183418"/>"     "     <path d="M135 88h27v23h-27zm28 0h28v22h-28z" stroke="#183418" fill="#306930"/>"     "     <path d="M192 88h28v22h-28zm29 0h28v22h-28z" fill="#306a30" stroke="#183518"/>"     "     <path d="M250 88h27v22h-27zm28 0h27v22h-27zm28 0h27v22h-27z" stroke="#183518" fill="#306b30"/>"     "     "     <path d="M334 88h28v21h-28zm29 0h28v21h-28z" fill="#306c30" stroke="#183618"/>"     "     <path d="M392 88h28v21h-28zm29 0h28v21h-28z" stroke="#183618" fill="#306d30"/>"     "     <path d="M450 88h28v21h-28zm29 0h30v19h-30zm0 20h22v1h-22z" fill="#306e30" stroke="#183718"/>"     "     "     <path d="M502 108h22v1h-22zm23 0h22v1h-22z" stroke="#183718" fill="#306f30"/>"     "     <path d="M548 108h21v1h-21zm22 0h21v1h-21z" fill="#307030" stroke="#183818"/>"     "     <path d="M592 108h21v1h-21zm22 0h21v1h-21z" stroke="#183818" fill="#307130"/>"     "     <path d="M636 108h20v1h-20zm21 0h20v1h-20zm21 0h19v1h-19z" fill="#307230" stroke="#183918"/>"     "     "     <path d="M698 108h19v1h-19zm20 0h19v1h-19z" stroke="#183918" fill="#307330"/>"     "     <path d="M738 108h19v1h-19zm20 0h19v1h-19z" fill="#307430" stroke="#183a18"/>"     "     <path d="M778 108h19v1h-19zm20 0h17v1h-17zm18 0h17v1h-17z" stroke="#183a18" fill="#307530"/>"     "     "     <path d="M834 108h17v1h-17zm18 0h16v1h-16z" fill="#307630" stroke="#183b18"/>"     "     <path d="M869 108h16v1h-16zm17 0h15v1h-15z" stroke="#183b18" fill="#307730"/>"     "     <path d="M902 108h15v1h-15zm16 0h15v1h-15z" fill="#307830" stroke="#183c18"/>"     "     <path d="M934 108h15v1h-15zm16 0h15v1h-15zm16 0h15v1h-15z" stroke="#183c18" fill="#307930"/>"     "     "     <path d="M982 108h15v1h-15zm16 0h14v1h-14z" fill="#307a30" stroke="#183d18"/>"     "     <path d="M1013 108h11v1h-11zM510 88h30v19h-30z" stroke="#183d18" fill="#307b30"/>"     "     <path d="M541 88h29v19h-29zm30 0h29v19h-29zm30 0h29v19h-29z" fill="#307c30" stroke="#183e18"/>"     "     "     <path d="M631 88h29v19h-29zm30 0h29v19h-29z" stroke="#183e18" fill="#307d30"/>"     "     <path d="M691 88h29v19h-29zm30 0h30v18h-30z" fill="#307e30" stroke="#183f18"/>"     "     <path d="M752 88h30v18h-30zm31 0h30v18h-30z" stroke="#183f18" fill="#307f30"/>"     "     <path d="M814 88h30v18h-30zm31 0h30v18h-30zm31 0h29v18h-29z" fill="#308030" stroke="#184018"/>"     "     "     <path d="M906 88h29v18h-29zm30 0h29v18h-29z" stroke="#184018" fill="#308130"/>"     "     <path d="M966 88h30v17h-30zm31 0h27v17h-27z" fill="#308230" stroke="#184118"/>"     "     <path d="M1 114h24v25H1zm25 0h25v24H26zm26 0h25v24H52z" stroke="#184118" fill="#308330"/>"     "     "     <path d="M78 114h25v24H78zm26 0h26v23h-26z" fill="#308430" stroke="#184218"/>"     "     <path d="M131 114h26v23h-26zm27 0h26v22h-26z" stroke="#184218" fill="#308530"/>"     "     <path d="M185 114h26v22h-26zm27 0h26v22h-26z" fill="#308630" stroke="#184318"/>"     "     <path d="M239 114h26v22h-26zm27 0h26v22h-26zm27 0h27v21h-27z" stroke="#184318" fill="#308730"/>"     "     "     <path d="M321 114h27v21h-27zm28 0h27v21h-27z" fill="#308830" stroke="#184418"/>"     "     <path d="M377 114h28v20h-28zm29 0h27v20h-27z" stroke="#184418" fill="#308930"/>"     "     <path d="M434 114h27v20h-27zm28 0h27v20h-27zm28 0h27v20h-27z" fill="#308a30" stroke="#184518"/>"     "     "     <path d="M518 114h28v19h-28zm29 0h28v19h-28z" stroke="#184518" fill="#308b30"/>"     "     <path d="M576 114h27v19h-27zm28 0h27v19h-27z" fill="#308c30" stroke="#184618"/>"     "     <path d="M632 114h27v19h-27zm28 0h27v19h-27z" stroke="#184618" fill="#308d30"/>"     "     <path d="M688 114h27v19h-27zm28 0h27v19h-27zm28 0h30v17h-30z" fill="#308e30" stroke="#184718"/>"     "     "     <path d="M744 132h14v1h-14zm15 0h14v1h-14z" stroke="#184718" fill="#308f30"/>"     "     <path d="M774 132h14v1h-14zm15 0h14v1h-14z" fill="#309030" stroke="#184818"/>"     "     <path d="M804 132h13v1h-13zm14 0h13v1h-13zm14 0h13v1h-13z" stroke="#184818" fill="#309130"/>"     "     "     <path d="M846 132h12v1h-12zm13 0h12v1h-12z" fill="#309230" stroke="#184918"/>"     "     <path d="M872 132h12v1h-12zm13 0h12v1h-12z" stroke="#184918" fill="#309330"/>"     "     <path d="M898 132h12v1h-12zm13 0h12v1h-12z" fill="#309430" stroke="#184a18"/>"     "     <path d="M924 132h12v1h-12zm13 0h12v1h-12zm13 0h12v1h-12z" stroke="#184a18" fill="#309530"/>"     "     "     <path d="M963 132h11v1h-11zm12 0h11v1h-11z" fill="#309630" stroke="#184b18"/>"     "     <path d="M987 132h10v1h-10zm11 0h10v1h-10z" stroke="#184b18" fill="#309730"/>"     "     <path d="M1009 132h8v1h-8zm9 0h6v1h-6zm-243-18h30v17h-30z" fill="#309830" stroke="#184c18"/>"     "     "     <path d="M806 114h30v17h-30zm31 0h30v17h-30z" stroke="#184c18" fill="#309930"/>"     "     <path d="M868 114h29v17h-29zm30 0h29v17h-29z" fill="#309a30" stroke="#184d18"/>"     "     <path d="M928 114h29v17h-29zm30 0h29v17h-29z" stroke="#184d18" fill="#309b30"/>"     "     <path d="M988 114h30v16h-30zm31 0h5v16h-5zM1 140h24v24H1z" fill="#309c30" stroke="#184e18"/>"     "     "     <path d="M26 139h24v24H26zm25 0h24v24H51z" stroke="#184e18" fill="#309d30"/>"     "     <path d="M76 139h24v23H76zm25 0h24v23h-24z" fill="#309e30" stroke="#184f18"/>"     "     <path d="M126 139h25v22h-25zm26 0h25v22h-25zm26 0h25v22h-25z" stroke="#184f18" fill="#309f30"/>"     "     "     <path d="M204 139h25v22h-25zm26 0h26v21h-26z" fill="#30a030" stroke="#185018"/>"     "     <path d="M257 139h26v21h-26zm27 0h25v21h-25z" stroke="#185018" fill="#30a130"/>"     "     <path d="M310 139h25v21h-25zm26 0h25v21h-25z" fill="#30a230" stroke="#185118"/>"     "     <path d="M362 139h25v21h-25zm26 0h25v21h-25zm26 0h25v21h-25z" stroke="#185118" fill="#30a330"/>"     "     "     <path d="M440 139h28v18h-28zm0 19h30v2h-30z" fill="#30a430" stroke="#185218"/>"     "     <path d="M471 158h30v2h-30zm31 0h30v2h-30z" stroke="#185218" fill="#30a530"/>"     "     <path d="M533 158h30v2h-30zm31 0h29v2h-29zm30 0h28v2h-28z" fill="#30a630" stroke="#185318"/>"     "     "     <path d="M623 158h28v2h-28zm29 0h28v2h-28z" stroke="#185318" fill="#30a730"/>"     "     <path d="M681 158h28v2h-28zm29 0h27v2h-27z" fill="#30a830" stroke="#185418"/>"     "     <path d="M738 158h27v2h-27zm28 0h26v2h-26z" stroke="#185418" fill="#30a930"/>"     "     <path d="M793 158h26v2h-26zm27 0h25v2h-25zm26 0h25v2h-25z" fill="#30aa30" stroke="#185518"/>"     "     "     <path d="M872 158h24v2h-24zm25 0h24v2h-24z" stroke="#185518" fill="#30ab30"/>"     "     <path d="M922 158h24v2h-24zm25 0h24v2h-24z" fill="#30ac30" stroke="#185618"/>"     "     <path d="M972 158h24v2h-24zm25 0h23v2h-23zm24 0h3v2h-3z" stroke="#185618" fill="#30ad30"/>"     "     "     <path d="M469 139h28v18h-28zm29 0h28v18h-28z" fill="#30ae30" stroke="#185718"/>"     "     <path d="M527 139h28v18h-28zm29 0h28v18h-28z" stroke="#185718" fill="#30af30"/>"     "     <path d="M585 139h27v18h-27zm28 0h27v18h-27z" fill="#30b030" stroke="#185818"/>"     "     <path d="M641 139h27v18h-27zm28 0h27v18h-27zm28 0h27v18h-27z" stroke="#185818" fill="#30b130"/>"     "     "     <path d="M725 139h28v17h-28zm29 0h28v17h-28z" fill="#30b230" stroke="#185918"/>"     "     <path d="M783 139h28v17h-28zm29 0h29v16h-29z" stroke="#185918" fill="#30b330"/>"     "     <path d="M842 139h29v16h-29zm30 0h29v16h-29zm30 0h29v16h-29z" fill="#30b430" stroke="#185a18"/>"     "     "     <path d="M932 139h30v15h-30zm31 0h30v15h-30z" stroke="#185a18" fill="#30b530"/>"     "     <path d="M994 139h30v15h-30zM1 165h22v24H1z" fill="#30b630" stroke="#185b18"/>"     "     <path d="M24 165h24v22H24zm0 23h7v1h-7z" stroke="#185b18" fill="#30b730"/>"     "     <path d="M32 188h7v1h-7zm8 0h7v1h-7zm8 0h7v1h-7z" fill="#30b830" stroke="#185c18"/>"     "     "     <path d="M56 188h6v1h-6zm7 0h6v1h-6z" stroke="#185c18" fill="#30b930"/>"     "     <path d="M70 188h5v1h-5zm6 0h5v1h-5z" fill="#30ba30" stroke="#185d18"/>"     "     <path d="M82 188h5v1h-5zm6 0h5v1h-5zm6 0h4v1h-4z" stroke="#185d18" fill="#30bb30"/>"     "     "     <path d="M99 188h4v1h-4zm5 0h4v1h-4z" fill="#30bc30" stroke="#185e18"/>"     "     <path d="M109 188h4v1h-4zm5 0h3v1h-3z" stroke="#185e18" fill="#30bd30"/>"     "     <path d="M118 188h3v1h-3zm4 0h3v1h-3z" fill="#30be30" stroke="#185f18"/>"     "     <path d="M126 188h3v1h-3zm4 0h3v1h-3zm4 0h2v1h-2z" stroke="#185f18" fill="#30bf30"/>"     "     "     <path d="M137 188h2v1h-2zm3 0h2v1h-2z" fill="#30c030" stroke="#186018"/>"     "     <path d="M143 188h2v1h-2zm3 0h1v1h-1z" stroke="#186018" fill="#30c130"/>"     "     <path d="M49 165h24v22H49zm25 0h23v22H74zm24 0h23v22H98z" fill="#30c230" stroke="#186118"/>"     "     "     <path d="M122 165h23v22h-23zm24 0h23v22h-23z" stroke="#186118" fill="#30c330"/>"     "     <path d="M170 165h25v20h-25zm26 0h25v20h-25z" fill="#30c430" stroke="#186218"/>"     "     <path d="M222 165h25v20h-25zm26 0h25v20h-25z" stroke="#186218" fill="#30c530"/>"     "     <path d="M274 165h25v20h-25zm26 0h26v19h-26zm27 0h26v19h-26z" fill="#30c630" stroke="#186318"/>"     "     "     <path d="M354 165h26v19h-26zm27 0h26v19h-26z" stroke="#186318" fill="#30c730"/>"     "     <path d="M408 165h26v19h-26zm27 0h25v19h-25z" fill="#30c830" stroke="#186418"/>"     "     <path d="M461 165h25v19h-25zm26 0h25v19h-25zm26 0h26v18h-26z" stroke="#186418" fill="#30c930"/>"     "     "     <path d="M540 165h26v18h-26zm27 0h26v18h-26z" fill="#30ca30" stroke="#186518"/>"     "     <path d="M594 165h26v18h-26zm27 0h27v17h-27z" stroke="#186518" fill="#30cb30"/>"     "     <path d="M649 165h27v17h-27zm28 0h27v17h-27z" fill="#30cc30" stroke="#186618"/>"     "     <path d="M705 165h30v15h-30zm31 0h29v15h-29zm30 0h29v15h-29z" stroke="#186618" fill="#30cd30"/>"     "     "     <path d="M796 165h29v15h-29zm30 0h29v15h-29z" fill="#30ce30" stroke="#186718"/>"     "     <path d="M856 165h30v14h-30zm31 0h30v14h-30z" stroke="#186718" fill="#30cf30"/>"     "     <path d="M918 165h30v14h-30zm31 0h29v14h-29zm30 0h29v14h-29z" fill="#30d030" stroke="#186818"/>"     "     "     <path d="M1009 165h15v14h-15zM1 190h22v22H1z" stroke="#186818" fill="#30d130"/>"     "     <path d="M24 190h22v22H24zm23 0h22v22H47z" fill="#30d230" stroke="#186918"/>"     "     <path d="M70 190h22v22H70zm23 0h22v22H93z" stroke="#186918" fill="#30d330"/>"     "     <path d="M116 190h23v21h-23zm24 0h23v21h-23zm24 0h23v21h-23z" fill="#30d430" stroke="#186a18"/>"     "     "     <path d="M188 190h23v21h-23zm24 0h24v20h-24z" stroke="#186a18" fill="#30d530"/>"     "     <path d="M237 190h24v20h-24zm25 0h24v20h-24z" fill="#30d630" stroke="#186b18"/>"     "     <path d="M287 190h24v20h-24zm25 0h23v20h-23zm24 0h23v20h-23z" stroke="#186b18" fill="#30d730"/>"     "     "     <path d="M360 190h23v20h-23zm24 0h23v20h-23z" fill="#30d830" stroke="#186c18"/>"     "     <path d="M408 190h24v19h-24zm25 0h24v19h-24z" stroke="#186c18" fill="#30d930"/>"     "     <path d="M458 190h24v19h-24zm25 0h24v19h-24z" fill="#30da30" stroke="#186d18"/>"     "     <path d="M508 190h24v19h-24zm25 0h25v18h-25zm26 0h25v18h-25z" stroke="#186d18" fill="#30db30"/>"     "     "     <path d="M585 190h28v16h-28zm29 0h28v16h-28z" fill="#30dc30" stroke="#186e18"/>"     "     <path d="M643 190h28v16h-28zm29 0h28v16h-28z" stroke="#186e18" fill="#30dd30"/>"     "     <path d="M701 190h28v16h-28zm29 0h28v16h-28zm29 0h28v16h-28z" fill="#30de30" stroke="#186f18"/>"     "     "     <path d="M788 190h27v16h-27zm28 0h27v16h-27z" stroke="#186f18" fill="#30df30"/>"     "     <path d="M844 190h26v16h-26zm27 0h26v16h-26z" fill="#30e030" stroke="#187018"/>"     "     <path d="M898 190h26v16h-26zm27 0h26v16h-26z" stroke="#187018" fill="#30e130"/>"     "     <path d="M952 190h27v15h-27zm28 0h27v15h-27zm28 0h16v15h-16z" fill="#30e230" stroke="#187118"/>"     "     "     <path d="M1 213h21v22H1zm22 0h22v21H23z" stroke="#187118" fill="#30e330"/>"     "     <path d="M46 213h22v21H46zm23 0h26v17H69z" fill="#30e430" stroke="#187218"/>"     "     <path d="M69 231h30v3H69zm31 0h30v3h-30zm31 0h30v3h-30z" stroke="#187218" fill="#30e530"/>"     "     "     <path d="M162 231h30v3h-30zm31 0h30v3h-30z" fill="#30e630" stroke="#187318"/>"     "     <path d="M224 231h30v3h-30zm31 0h30v3h-30z" stroke="#187318" fill="#30e730"/>"     "     <path d="M286 231h29v3h-29zm30 0h29v3h-29z" fill="#30e830" stroke="#187418"/>"     "     <path d="M346 231h29v3h-29zm30 0h29v3h-29zm30 0h28v3h-28z" stroke="#187418" fill="#30e930"/>"     "     "     <path d="M435 231h28v3h-28zm29 0h28v3h-28z" fill="#30ea30" stroke="#187518"/>"     "     <path d="M493 231h28v3h-28zm29 0h28v3h-28z" stroke="#187518" fill="#30eb30"/>"     "     <path d="M551 231h27v3h-27zm28 0h27v3h-27zm28 0h27v3h-27z" fill="#30ec30" stroke="#187618"/>"     "     "     <path d="M635 231h27v3h-27zm28 0h27v3h-27z" stroke="#187618" fill="#30ed30"/>"     "     <path d="M691 231h27v3h-27zm28 0h26v3h-26z" fill="#30ee30" stroke="#187718"/>"     "     <path d="M746 231h26v3h-26zm27 0h26v3h-26z" stroke="#187718" fill="#30ef30"/>"     "     <path d="M800 231h26v3h-26zm27 0h26v3h-26zm27 0h25v3h-25z" fill="#30f030" stroke="#187818"/>"     "     "     <path d="M880 231h25v3h-25zm26 0h25v3h-25z" stroke="#187818" fill="#31f030"/>"     "     <path d="M932 231h25v3h-25zm26 0h25v3h-25z" fill="#32f030" stroke="#197818"/>"     "     <path d="M984 231h24v3h-24zm25 0h15v3h-15zM96 213h25v17H96z" stroke="#197818" fill="#33f030"/>"     "     "     <path d="M122 213h25v17h-25zm26 0h25v17h-25z" fill="#34f030" stroke="#1a7818"/>"     "     <path d="M174 213h24v17h-24zm25 0h27v15h-27z" stroke="#1a7818" fill="#35f030"/>"     "     <path d="M227 213h27v15h-27zm28 0h27v15h-27zm28 0h27v15h-27z" fill="#36f030" stroke="#1b7818"/>"     "     "     <path d="M311 213h28v14h-28zm29 0h30v13h-30z" stroke="#1b7818" fill="#37f030"/>"     "     <path d="M371 213h30v13h-30zm31 0h30v13h-30z" fill="#38f030" stroke="#1c7818"/>"     "     <path d="M433 213h30v13h-30zm31 0h30v13h-30z" stroke="#1c7818" fill="#39f030"/>"     "     <path d="M495 213h29v13h-29zm30 0h29v13h-29zm30 0h29v13h-29z" fill="#3af030" stroke="#1d7818"/>"     "     "     <path d="M585 213h29v13h-29zm30 0h28v13h-28z" stroke="#1d7818" fill="#3bf030"/>"     "     <path d="M644 213h28v13h-28zm29 0h28v13h-28z" fill="#3cf030" stroke="#1e7818"/>"     "     <path d="M702 213h28v13h-28zm29 0h30v12h-30zm31 0h30v12h-30z" stroke="#1e7818" fill="#3df030"/>"     "     "     <path d="M793 213h30v12h-30zm31 0h29v12h-29z" fill="#3ef030" stroke="#1f7818"/>"     "     <path d="M854 213h29v12h-29zm30 0h28v12h-28z" stroke="#1f7818" fill="#3ff030"/>"     "     <path d="M913 213h28v12h-28zm29 0h28v12h-28z" fill="#40f030" stroke="#207818"/>"     "     <path d="M971 213h30v11h-30zm31 0h22v11h-22zM1 236h21v21H1z" stroke="#207818" fill="#41f030"/>"     "     "     <path d="M23 235h21v21H23zm22 0h22v20H45z" fill="#42f030" stroke="#217818"/>"     "     <path d="M68 235h22v20H68zm23 0h22v20H91z" stroke="#217818" fill="#43f030"/>"     "     <path d="M114 235h22v20h-22zm23 0h22v20h-22zm23 0h22v20h-22z" fill="#44f030" stroke="#227818"/>"     "     "     <path d="M183 235h23v19h-23zm24 0h23v19h-23z" stroke="#227818" fill="#45f030"/>"     "     <path d="M231 235h23v19h-23zm24 0h24v18h-24z" fill="#46f030" stroke="#237818"/>"     "     <path d="M280 235h24v18h-24zm25 0h23v18h-23z" stroke="#237818" fill="#47f030"/>"     "     <path d="M329 235h23v18h-23zm24 0h23v18h-23zm24 0h25v16h-25z" fill="#48f030" stroke="#247818"/>"     "     "     <path d="M403 235h26v15h-26zm27 0h26v15h-26z" stroke="#247818" fill="#49f030"/>"     "     <path d="M457 235h26v15h-26zm27 0h26v15h-26z" fill="#4af030" stroke="#257818"/>"     "     <path d="M511 235h26v15h-26zm27 0h27v14h-27zm28 0h27v14h-27z" stroke="#257818" fill="#4bf030"/>"     "     "     <path d="M594 235h27v14h-27zm28 0h27v14h-27z" fill="#4cf030" stroke="#267818"/>"     "     <path d="M650 235h26v14h-26zm27 0h26v14h-26z" stroke="#267818" fill="#4df030"/>"     "     <path d="M704 235h26v14h-26zm27 0h26v14h-26z" fill="#4ef030" stroke="#277818"/>"     "     <path d="M758 235h26v14h-26zm27 0h27v13h-27zm28 0h27v13h-27z" stroke="#277818" fill="#4ff030"/>"     "     "     <path d="M841 235h27v13h-27zm28 0h26v13h-26z" fill="#50f030" stroke="#287818"/>"     "     <path d="M896 235h26v13h-26zm27 0h26v13h-26z" stroke="#287818" fill="#51f030"/>"     "     <path d="M950 235h26v13h-26zm27 0h26v13h-26zm27 0h20v13h-20z" fill="#52f030" stroke="#297818"/>"     "     "     <path d="M1 258h21v20H1zm22-1h21v20H23z" stroke="#297818" fill="#53f030"/>"     "     <path d="M45 256h20v21H45zm21 0h20v21H66z" fill="#54f030" stroke="#2a7818"/>"     "     <path d="M87 256h22v19H87zm23 0h22v19h-22z" stroke="#2a7818" fill="#55f030"/>"     "     <path d="M133 256h21v19h-21zm22 0h21v19h-21zm22 0h21v19h-21z" fill="#56f030" stroke="#2b7818"/>"     "     "     <path d="M199 256h22v18h-22zm23 0h22v18h-22z" stroke="#2b7818" fill="#57f030"/>"     "     <path d="M245 256h22v18h-22zm23 0h21v18h-21z" fill="#58f030" stroke="#2c7818"/>"     "     <path d="M290 256h21v18h-21zm22 0h21v18h-21zm22 0h21v18h-21z" stroke="#2c7818" fill="#59f030"/>"     "     "     <path d="M356 256h21v18h-21zm22 0h21v18h-21z" fill="#5af030" stroke="#2d7818"/>"     "     <path d="M400 256h25v15h-25zm0 16h23v2h-23z" stroke="#2d7818" fill="#5bf030"/>"     "     <path d="M424 272h23v2h-23zm24 0h23v2h-23z" fill="#5cf030" stroke="#2e7818"/>"     "     <path d="M472 272h22v2h-22zm23 0h22v2h-22zm23 0h21v2h-21z" stroke="#2e7818" fill="#5df030"/>"     "     "     <path d="M540 272h21v2h-21zm22 0h21v2h-21z" fill="#5ef030" stroke="#2f7818"/>"     "     <path d="M584 272h21v2h-21zm22 0h21v2h-21z" stroke="#2f7818" fill="#5ff030"/>"     "     <path d="M628 272h21v2h-21zm22 0h21v2h-21zm22 0h20v2h-20z" fill="#60f030" stroke="#307818"/>"     "     "     <path d="M693 272h20v2h-20zm21 0h20v2h-20z" stroke="#307818" fill="#61f030"/>"     "     <path d="M735 272h19v2h-19zm20 0h19v2h-19z" fill="#62f030" stroke="#317818"/>"     "     <path d="M775 272h19v2h-19zm20 0h19v2h-19z" stroke="#317818" fill="#63f030"/>"     "     <path d="M815 272h19v2h-19zm20 0h19v2h-19zm20 0h18v2h-18z" fill="#64f030" stroke="#327818"/>"     "     "     <path d="M874 272h18v2h-18zm19 0h18v2h-18z" stroke="#327818" fill="#65f030"/>"     "     <path d="M912 272h18v2h-18zm19 0h18v2h-18z" fill="#66f030" stroke="#337818"/>"     "     <path d="M950 272h17v2h-17zm18 0h16v2h-16zm17 0h15v2h-15z" stroke="#337818" fill="#67f030"/>"     "     "     <path d="M1001 272h15v2h-15zm16 0h7v2h-7z" fill="#68f030" stroke="#347818"/>"     "     <path d="M426 256h25v15h-25zm26 0h25v15h-25z" stroke="#347818" fill="#69f030"/>"     "     <path d="M478 256h25v15h-25zm26 0h25v15h-25z" fill="#6af030" stroke="#357818"/>"     "     <path d="M530 256h24v15h-24zm25 0h24v15h-24zm25 0h24v15h-24z" stroke="#357818" fill="#6bf030"/>"     "     "     <path d="M605 256h24v15h-24zm25 0h24v15h-24z" fill="#6cf030" stroke="#367818"/>"     "     <path d="M655 256h25v14h-25zm26 0h25v14h-25z" stroke="#367818" fill="#6df030"/>"     "     <path d="M707 256h25v14h-25zm26 0h25v14h-25zm26 0h24v14h-24z" fill="#6ef030" stroke="#377818"/>"     "     "     <path d="M784 256h24v14h-24zm25 0h24v14h-24z" stroke="#377818" fill="#6ff030"/>"     "     <path d="M834 256h24v14h-24zm25 0h24v14h-24z" fill="#70f030" stroke="#387818"/>"     "     <path d="M884 256h30v11h-30zm0 12h15v2h-15z" stroke="#387818" fill="#71f030"/>"     "     <path d="M900 268h14v2h-14zm15-12h27v12h-27zm28 0h27v12h-27z" fill="#72f030" stroke="#397818"/>"     "     "     <path d="M971 256h29v11h-29zm30 0h23v11h-23z" stroke="#397818" fill="#73f030"/>"     "     <path d="M1 279h20v20H1zm21 0h20v20H22z" fill="#74f030" stroke="#3a7818"/>"     "     <path d="M43 279h19v20H43zm20 0h20v19H63zm21 0h20v19H84z" stroke="#3a7818" fill="#75f030"/>"     "     "     <path d="M105 279h20v19h-20zm21 0h22v17h-22z" fill="#76f030" stroke="#3b7818"/>"     "     <path d="M149 279h22v17h-22zm23 0h22v17h-22z" stroke="#3b7818" fill="#77f030"/>"     "     <path d="M195 279h22v17h-22zm23 0h23v16h-23z" fill="#78f030" stroke="#3c7818"/>"     "     <path d="M242 279h23v16h-23zm24 0h23v16h-23zm24 0h22v16h-22z" stroke="#3c7818" fill="#79f030"/>"     "     "     <path d="M313 279h22v16h-22zm23 0h22v16h-22z" fill="#7af030" stroke="#3d7818"/>"     "     <path d="M359 279h23v15h-23zm24 0h23v15h-23z" stroke="#3d7818" fill="#7bf030"/>"     "     <path d="M407 279h23v15h-23zm24 0h22v15h-22zm23 0h22v15h-22z" fill="#7cf030" stroke="#3e7818"/>"     "     "     <path d="M477 279h22v15h-22zm23 0h25v13h-25z" stroke="#3e7818" fill="#7df030"/>"     "     <path d="M526 279h25v13h-25zm26 0h25v13h-25z" fill="#7ef030" stroke="#3f7818"/>"     "     <path d="M578 279h25v13h-25zm26 0h29v11h-29z" stroke="#3f7818" fill="#7ff030"/>"     "     <path d="M634 279h29v11h-29zm30 0h29v11h-29zm30 0h29v11h-29z" fill="#80f030" stroke="#407818"/>"     "     "     <path d="M724 279h29v11h-29zm30 0h29v11h-29z" stroke="#407818" fill="#81f030"/>"     "     <path d="M784 279h29v11h-29zm30 0h28v11h-28z" fill="#82f030" stroke="#417818"/>"     "     <path d="M843 279h28v11h-28zm29 0h30v10h-30zm31 0h30v10h-30z" stroke="#417818" fill="#83f030"/>"     "     "     <path d="M934 279h30v10h-30zm31 0h29v10h-29z" fill="#84f030" stroke="#427818"/>"     "     <path d="M995 279h29v10h-29zM1 300h19v19H1z" stroke="#427818" fill="#85f030"/>"     "     <path d="M21 300h19v19H21zm20 0h20v18H41z" fill="#86f030" stroke="#437818"/>"     "     <path d="M62 300h21v17H62zm22 0h21v17H84zm22 0h21v17h-21z" stroke="#437818" fill="#87f030"/>"     "     "     <path d="M128 300h21v17h-21zm22 0h20v17h-20z" fill="#88f030" stroke="#447818"/>"     "     <path d="M171 300h20v17h-20zm21 0h21v16h-21z" stroke="#447818" fill="#89f030"/>"     "     <path d="M214 300h21v16h-21zm22 0h21v16h-21zm22 0h21v16h-21z" fill="#8af030" stroke="#457818"/>"     "     "     <path d="M280 300h23v14h-23zm24 0h23v14h-23z" stroke="#457818" fill="#8bf030"/>"     "     <path d="M328 300h23v14h-23zm24 0h23v14h-23z" fill="#8cf030" stroke="#467818"/>"     "     <path d="M376 300h23v14h-23zm24 0h23v14h-23z" stroke="#467818" fill="#8df030"/>"     "     <path d="M424 300h23v14h-23zm24 0h26v12h-26zm27 0h26v12h-26z" fill="#8ef030" stroke="#477818"/>"     "     "     <path d="M502 300h26v12h-26zm27 0h25v12h-25z" stroke="#477818" fill="#8ff030"/>"     "     <path d="M555 300h25v12h-25zm26 0h25v12h-25z" fill="#90f030" stroke="#487818"/>"     "     <path d="M607 300h25v12h-25zm26 0h25v12h-25zm26 0h27v11h-27z" stroke="#487818" fill="#91f030"/>"     "     "     <path d="M687 300h27v11h-27zm28 0h27v11h-27z" fill="#92f030" stroke="#497818"/>"     "     <path d="M743 300h29v10h-29zm30 0h29v10h-29z" stroke="#497818" fill="#93f030"/>"     "     <path d="M803 300h28v10h-28zm29 0h28v10h-28z" fill="#94f030" stroke="#4a7818"/>"     "     <path d="M861 300h28v10h-28zm29 0h28v10h-28zm29 0h28v10h-28z" stroke="#4a7818" fill="#95f030"/>"     "     "     <path d="M948 300h28v10h-28zm29 0h28v10h-28z" fill="#96f030" stroke="#4b7818"/>"     "     <path d="M1006 300h18v10h-18zM1 320h19v18H1z" stroke="#4b7818" fill="#97f030"/>"     "     <path d="M21 320h19v18H21zm20-1h18v19H41zm19 0h18v18H60z" fill="#98f030" stroke="#4c7818"/>"     "     "     <path d="M79 319h18v18H79zm19 0h19v17H98z" stroke="#4c7818" fill="#99f030"/>"     "     <path d="M118 319h19v17h-19zm20 0h19v17h-19z" fill="#9af030" stroke="#4d7818"/>"     "     <path d="M158 319h20v16h-20zm21 0h20v16h-20z" stroke="#4d7818" fill="#9bf030"/>"     "     <path d="M200 319h20v16h-20zm21 0h20v16h-20zm21 0h21v15h-21z" fill="#9cf030" stroke="#4e7818"/>"     "     "     <path d="M264 319h21v15h-21zm22 0h21v15h-21z" stroke="#4e7818" fill="#9df030"/>"     "     <path d="M308 319h21v15h-21zm22 0h21v15h-21z" fill="#9ef030" stroke="#4f7818"/>"     "     <path d="M352 319h24v13h-24zm25 0h24v13h-24zm25 0h24v13h-24z" stroke="#4f7818" fill="#9ff030"/>"     "     "     <path d="M427 319h24v13h-24zm25 0h23v13h-23z" fill="#a0f030" stroke="#507818"/>"     "     <path d="M476 319h24v12h-24zm25 0h24v12h-24z" stroke="#507818" fill="#a1f030"/>"     "     <path d="M526 319h24v12h-24zm25 0h24v12h-24z" fill="#a2f030" stroke="#517818"/>"     "     <path d="M576 319h24v12h-24zm25 0h26v11h-26zm27 0h26v11h-26z" stroke="#517818" fill="#a3f030"/>"     "     "     <path d="M655 319h25v11h-25zm26 0h30v9h-30z" fill="#a4f030" stroke="#527818"/>"     "     <path d="M712 319h29v9h-29zm30 0h28v9h-28z" stroke="#527818" fill="#a5f030"/>"     "     <path d="M771 319h27v9h-27zm28 0h27v9h-27zm28 0h27v9h-27z" fill="#a6f030" stroke="#537818"/>"     "     "     <path d="M855 319h30v8h-30zm31 0h29v8h-29z" stroke="#537818" fill="#a7f030"/>"     "     <path d="M916 319h29v8h-29zm30 0h29v8h-29z" fill="#a8f030" stroke="#547818"/>"     "     <path d="M976 319h29v8h-29zm30 0h18v8h-18z" stroke="#547818" fill="#a9f030"/>"     "     <path d="M1 339h22v14H1zm23 0h22v14H24zm23 0h22v14H47z" fill="#aaf030" stroke="#557818"/>"     "     "     <path d="M70 339h22v14H70zm23 0h22v14H93z" stroke="#557818" fill="#abf030"/>"     "     <path d="M116 339h22v14h-22zm23 0h21v14h-21z" fill="#acf030" stroke="#567818"/>"     "     <path d="M161 339h21v14h-21zm22 0h21v14h-21zm22 0h22v13h-22z" stroke="#567818" fill="#adf030"/>"     "     "     <path d="M228 339h22v13h-22zm23 0h23v12h-23z" fill="#aef030" stroke="#577818"/>"     "     <path d="M275 339h23v12h-23zm24 0h27v10h-27z" stroke="#577818" fill="#aff030"/>"     "     <path d="M327 339h27v10h-27zm28 0h26v10h-26z" fill="#b0f030" stroke="#587818"/>"     "     <path d="M382 339h26v10h-26zm27 0h26v10h-26zm27 0h25v10h-25z" stroke="#587818" fill="#b1f030"/>"     "     "     <path d="M462 339h25v10h-25zm26 0h24v10h-24z" fill="#b2f030" stroke="#597818"/>"     "     <path d="M513 339h24v10h-24zm25 0h24v10h-24z" stroke="#597818" fill="#b3f030"/>"     "     <path d="M563 339h24v10h-24zm25 0h24v10h-24zm25 0h24v10h-24z" fill="#b4f030" stroke="#5a7818"/>"     "     "     <path d="M638 339h24v10h-24zm25 0h24v10h-24z" stroke="#5a7818" fill="#b5f030"/>"     "     <path d="M688 339h26v9h-26zm27 0h26v9h-26z" fill="#b6f030" stroke="#5b7818"/>"     "     <path d="M742 339h26v9h-26zm27 0h26v9h-26z" stroke="#5b7818" fill="#b7f030"/>"     "     <path d="M796 339h26v9h-26zm27 0h28v8h-28zm29 0h28v8h-28z" fill="#b8f030" stroke="#5c7818"/>"     "     "     <path d="M881 339h28v8h-28zm29 0h28v8h-28z" stroke="#5c7818" fill="#b9f030"/>"     "     <path d="M939 339h28v8h-28zm29 0h28v8h-28z" fill="#baf030" stroke="#5d7818"/>"     "     <path d="M997 339h27v8h-27zM1 354h18v17H1zm19 0h18v17H20z" stroke="#5d7818" fill="#bbf030"/>"     "     "     <path d="M39 354h18v17H39zm19 0h18v17H58z" fill="#bcf030" stroke="#5e7818"/>"     "     <path d="M77 354h18v17H77zm19 0h18v17H96z" stroke="#5e7818" fill="#bdf030"/>"     "     <path d="M115 354h19v16h-19zm20 0h19v16h-19z" fill="#bef030" stroke="#5f7818"/>"     "     <path d="M155 354h20v15h-20zm21 0h20v15h-20zm21 0h20v15h-20z" stroke="#5f7818" fill="#bff030"/>"     "     "     <path d="M218 354h20v15h-20zm21 0h19v15h-19z" fill="#c0f030" stroke="#607818"/>"     "     <path d="M259 354h19v15h-19zm20 0h19v15h-19z" stroke="#607818" fill="#c1f030"/>"     "     <path d="M299 354h20v14h-20zm21 0h20v14h-20zm21 0h21v13h-21z" fill="#c2f030" stroke="#617818"/>"     "     "     <path d="M363 354h21v13h-21zm22 0h24v11h-24z" stroke="#617818" fill="#c3f030"/>"     "     <path d="M410 354h24v11h-24zm25 0h23v11h-23z" fill="#c4f030" stroke="#627818"/>"     "     <path d="M459 354h23v11h-23zm24 0h23v11h-23z" stroke="#627818" fill="#c5f030"/>"     "     <path d="M507 354h23v11h-23zm24 0h23v11h-23zm24 0h22v11h-22z" fill="#c6f030" stroke="#637818"/>"     "     "     <path d="M578 354h22v11h-22zm23 0h21v11h-21z" stroke="#637818" fill="#c7f030"/>"     "     <path d="M623 354h23v10h-23zm24 0h23v10h-23z" fill="#c8f030" stroke="#647818"/>"     "     <path d="M671 354h23v10h-23zm24 0h25v9h-25zm26 0h25v9h-25z" stroke="#647818" fill="#c9f030"/>"     "     "     <path d="M747 354h27v8h-27zm28 0h27v8h-27z" fill="#caf030" stroke="#657818"/>"     "     <path d="M803 354h27v8h-27zm28 0h27v8h-27z" stroke="#657818" fill="#cbf030"/>"     "     <path d="M859 354h30v7h-30zm31 0h30v7h-30z" fill="#ccf030" stroke="#667818"/>"     "     <path d="M921 354h30v7h-30zm31 0h30v7h-30zm31 0h30v7h-30z" stroke="#667818" fill="#cdf030"/>"     "     "     <path d="M1014 354h10v7h-10zM1 372h17v17H1z" fill="#cef030" stroke="#677818"/>"     "     <path d="M19 372h17v17H19zm18 0h17v17H37z" stroke="#677818" fill="#cff030"/>"     "     <path d="M55 372h18v16H55zm19 0h18v16H74zm19 0h18v16H93z" fill="#d0f030" stroke="#687818"/>"     "     "     <path d="M112 372h17v16h-17zm18 0h17v16h-17z" stroke="#687818" fill="#d1f030"/>"     "     <path d="M148 372h17v16h-17zm18 0h17v16h-17z" fill="#d2f030" stroke="#697818"/>"     "     <path d="M184 372h17v16h-17zm18 0h18v15h-18z" stroke="#697818" fill="#d3f030"/>"     "     <path d="M221 372h18v15h-18zm19 0h18v15h-18zm19 0h19v14h-19z" fill="#d4f030" stroke="#6a7818"/>"     "     "     <path d="M279 372h22v12h-22zm23 0h22v12h-22z" stroke="#6a7818" fill="#d5f030"/>"     "     <path d="M325 372h22v12h-22zm23 0h22v12h-22z" fill="#d6f030" stroke="#6b7818"/>"     "     <path d="M371 372h21v12h-21zm22 0h21v12h-21zm22 0h21v12h-21z" stroke="#6b7818" fill="#d7f030"/>"     "     "     <path d="M437 372h21v12h-21zm22 0h20v12h-20z" fill="#d8f030" stroke="#6c7818"/>"     "     <path d="M480 372h20v12h-20zm21 0h20v12h-20z" stroke="#6c7818" fill="#d9f030"/>"     "     <path d="M522 372h20v12h-20zm21 0h21v11h-21z" fill="#daf030" stroke="#6d7818"/>"     "     <path d="M565 372h21v11h-21zm22 0h21v11h-21zm22 0h21v11h-21z" stroke="#6d7818" fill="#dbf030"/>"     "     "     <path d="M631 372h21v11h-21zm22 0h21v11h-21z" fill="#dcf030" stroke="#6e7818"/>"     "     <path d="M675 372h22v10h-22zm23 0h22v10h-22z" stroke="#6e7818" fill="#ddf030"/>"     "     <path d="M721 372h24v9h-24zm25 0h24v9h-24zm25 0h24v9h-24z" fill="#def030" stroke="#6f7818"/>"     "     "     <path d="M796 372h24v9h-24zm25 0h26v8h-26z" stroke="#6f7818" fill="#dff030"/>"     "     <path d="M848 372h26v8h-26zm27 0h29v7h-29z" fill="#e0f030" stroke="#707818"/>"     "     <path d="M905 372h29v7h-29zm30 0h29v7h-29z" stroke="#707818" fill="#e1f030"/>"     "     <path d="M965 372h29v7h-29zm30 0h29v7h-29zM1 390h13v20H1z" fill="#e2f030" stroke="#717818"/>"     "     "     <path d="M15 390h16v16H15zm0 17h24v3H15z" stroke="#717818" fill="#e3f030"/>"     "     <path d="M40 407h24v3H40zm25 0h23v3H65z" fill="#e4f030" stroke="#727818"/>"     "     <path d="M89 407h23v3H89zm24 0h23v3h-23zm24 0h22v3h-22z" stroke="#727818" fill="#e5f030"/>"     "     "     <path d="M160 407h22v3h-22zm23 0h22v3h-22z" fill="#e6f030" stroke="#737818"/>"     "     <path d="M206 407h21v3h-21zm22 0h21v3h-21z" stroke="#737818" fill="#e7f030"/>"     "     <path d="M250 407h20v3h-20zm21 0h20v3h-20z" fill="#e8f030" stroke="#747818"/>"     "     <path d="M292 407h20v3h-20zm21 0h20v3h-20zm21 0h20v3h-20z" stroke="#747818" fill="#e9f030"/>"     "     "     <path d="M355 407h19v3h-19zm20 0h19v3h-19z" fill="#eaf030" stroke="#757818"/>"     "     <path d="M395 407h18v3h-18zm19 0h18v3h-18z" stroke="#757818" fill="#ebf030"/>"     "     <path d="M433 407h18v3h-18zm19 0h18v3h-18zm19 0h18v3h-18z" fill="#ecf030" stroke="#767818"/>"     "     "     <path d="M490 407h18v3h-18zm19 0h17v3h-17z" stroke="#767818" fill="#edf030"/>"     "     <path d="M527 407h17v3h-17zm18 0h17v3h-17z" fill="#eef030" stroke="#777818"/>"     "     <path d="M563 407h17v3h-17zm18 0h16v3h-16z" stroke="#777818" fill="#eff030"/>"     "     <path d="M598 407h15v3h-15zm16 0h15v3h-15zm16 0h14v3h-14z" fill="#f0f030" stroke="#787818"/>"     "     "     <path d="M645 407h14v3h-14zm15 0h14v3h-14z" stroke="#787818" fill="#f0f031"/>"     "     <path d="M675 407h13v3h-13zm14 0h13v3h-13z" fill="#f0f032" stroke="#787819"/>"     "     <path d="M703 407h13v3h-13zm14 0h13v3h-13zm14 0h13v3h-13z" stroke="#787819" fill="#f0f033"/>"     "     "     <path d="M745 407h13v3h-13zm14 0h13v3h-13z" fill="#f0f034" stroke="#78781a"/>"     "     <path d="M773 407h12v3h-12zm13 0h12v3h-12z" stroke="#78781a" fill="#f0f035"/>"     "     <path d="M799 407h12v3h-12zm13 0h12v3h-12zm13 0h11v3h-11z" fill="#f0f036" stroke="#78781b"/>"     "     "     <path d="M837 407h11v3h-11zm12 0h11v3h-11z" stroke="#78781b" fill="#f0f037"/>"     "     <path d="M861 407h11v3h-11zm12 0h14v2h-14z" fill="#f0f038" stroke="#78781c"/>"     "     <path d="M888 407h14v2h-14zm15 0h14v2h-14z" stroke="#78781c" fill="#f0f039"/>"     "     <path d="M918 407h13v2h-13zm14 0h13v2h-13zm14 0h13v2h-13z" fill="#f0f03a" stroke="#78781d"/>"     "     "     <path d="M960 407h13v2h-13zm14 0h13v2h-13z" stroke="#78781d" fill="#f0f03b"/>"     "     <path d="M988 407h12v2h-12zm13 0h12v2h-12z" fill="#f0f03c" stroke="#78781e"/>"     "     <path d="M1014 407h10v2h-10zM32 390h17v15H32zm18 0h17v15H50z" stroke="#78781e" fill="#f0f03d"/>"     "     "     <path d="M68 390h18v14H68zm19 0h18v14H87z" fill="#f0f03e" stroke="#78781f"/>"     "     <path d="M106 390h18v14h-18zm19 0h19v13h-19z" stroke="#78781f" fill="#f0f03f"/>"     "     <path d="M145 390h19v13h-19zm20 0h19v13h-19z" fill="#f0f040" stroke="#787820"/>"     "     <path d="M185 390h19v13h-19zm20 0h19v13h-19zm20 0h18v13h-18z" stroke="#787820" fill="#f0f041"/>"     "     "     <path d="M244 390h18v13h-18zm19 0h18v13h-18z" fill="#f0f042" stroke="#787821"/>"     "     <path d="M282 390h19v12h-19zm20 0h20v11h-20z" stroke="#787821" fill="#f0f043"/>"     "     <path d="M323 390h20v11h-20zm21 0h20v11h-20zm21 0h20v11h-20z" fill="#f0f044" stroke="#787822"/>"     "     "     <path d="M386 390h21v10h-21zm22 0h21v10h-21z" stroke="#787822" fill="#f0f045"/>"     "     <path d="M430 390h21v10h-21zm22 0h21v10h-21z" fill="#f0f046" stroke="#787823"/>"     "     <path d="M474 390h23v9h-23zm24 0h23v9h-23z" stroke="#787823" fill="#f0f047"/>"     "     <path d="M522 390h25v8h-25zm26 0h25v8h-25zm26 0h25v8h-25z" fill="#f0f048" stroke="#787824"/>"     "     "     <path d="M600 390h28v7h-28zm29 0h28v7h-28z" stroke="#787824" fill="#f0f049"/>"     "     <path d="M658 390h28v7h-28zm29 0h28v7h-28z" fill="#f0f04a" stroke="#787825"/>"     "     <path d="M716 390h28v7h-28zm29 0h28v7h-28zm29 0h27v7h-27z" stroke="#787825" fill="#f0f04b"/>"     "     "     <path d="M802 390h27v7h-27zm28 0h27v7h-27z" fill="#f0f04c" stroke="#787826"/>"     "     <path d="M858 390h27v7h-27zm28 0h30v6h-30z" stroke="#787826" fill="#f0f04d"/>"     "     <path d="M917 390h30v6h-30zm31 0h30v6h-30z" fill="#f0f04e" stroke="#787827"/>"     "     <path d="M979 390h29v6h-29zm30 0h15v6h-15zM1 411h15v16H1z" stroke="#787827" fill="#f0f04f"/>"     "     "     <path d="M17 411h15v16H17zm16 0h17v14H33z" fill="#f0f050" stroke="#787828"/>"     "     <path d="M51 411h17v14H51zm18 0h17v14H69z" stroke="#787828" fill="#f0f051"/>"     "     <path d="M87 411h17v14H87zm18 0h17v14h-17zm18 0h17v14h-17z" fill="#f0f052" stroke="#787829"/>"     "     "     <path d="M141 411h16v14h-16zm17 0h16v14h-16z" stroke="#787829" fill="#f0f053"/>"     "     <path d="M175 411h16v14h-16zm17 0h16v14h-16z" fill="#f0f054" stroke="#78782a"/>"     "     <path d="M209 411h17v13h-17zm18 0h17v13h-17z" stroke="#78782a" fill="#f0f055"/>"     "     <path d="M245 411h17v13h-17zm18 0h18v12h-18zm19 0h18v12h-18z" fill="#f0f056" stroke="#78782b"/>"     "     "     <path d="M301 411h18v12h-18zm19 0h18v12h-18z" stroke="#78782b" fill="#f0f057"/>"     "     <path d="M339 411h19v11h-19zm20 0h19v11h-19z" fill="#f0f058" stroke="#78782c"/>"     "     <path d="M379 411h19v11h-19zm20 0h19v11h-19zm20 0h19v11h-19z" stroke="#78782c" fill="#f0f059"/>"     "     "     <path d="M439 411h19v11h-19zm20 0h20v10h-20z" fill="#f0f05a" stroke="#78782d"/>"     "     <path d="M480 411h20v10h-20zm21 0h22v9h-22z" stroke="#78782d" fill="#f0f05b"/>"     "     <path d="M524 411h24v8h-24zm25 0h24v8h-24z" fill="#f0f05c" stroke="#78782e"/>"     "     <path d="M574 411h24v8h-24zm25 0h24v8h-24zm25 0h24v8h-24z" stroke="#78782e" fill="#f0f05d"/>"     "     "     <path d="M649 411h24v8h-24zm25 0h26v7h-26z" fill="#f0f05e" stroke="#78782f"/>"     "     <path d="M701 411h26v7h-26zm27 0h26v7h-26z" stroke="#78782f" fill="#f0f05f"/>"     "     <path d="M755 411h26v7h-26zm27 0h26v7h-26zm27 0h26v7h-26z" fill="#f0f060" stroke="#787830"/>"     "     "     <path d="M836 411h26v7h-26zm27 0h26v7h-26z" stroke="#787830" fill="#f0f061"/>"     "     <path d="M890 411h26v7h-26zm27 0h29v6h-29z" fill="#f0f062" stroke="#787831"/>"     "     <path d="M947 411h29v6h-29zm30 0h27v6h-27z" stroke="#787831" fill="#f0f063"/>"     "     <path d="M1005 411h19v6h-19zM1 428h15v15H1zm16 0h15v15H17z" fill="#f0f064" stroke="#787832"/>"     "     "     <path d="M33 426h15v14H33zm0 15h12v2H33z" stroke="#787832" fill="#f0f065"/>"     "     <path d="M46 441h11v2H46zm12 0h11v2H58z" fill="#f0f066" stroke="#787833"/>"     "     <path d="M70 441h10v2H70zm11 0h9v2h-9zm10 0h9v2h-9z" stroke="#787833" fill="#f0f067"/>"     "     "     <path d="M101 441h9v2h-9zm10 0h9v2h-9z" fill="#f0f068" stroke="#787834"/>"     "     <path d="M121 441h8v2h-8zm9 0h8v2h-8z" stroke="#787834" fill="#f0f069"/>"     "     <path d="M139 441h7v2h-7zm8 0h7v2h-7z" fill="#f0f06a" stroke="#787835"/>"     "     <path d="M155 441h6v2h-6zm7 0h6v2h-6zm7 0h6v2h-6z" stroke="#787835" fill="#f0f06b"/>"     "     "     <path d="M176 441h6v2h-6zm7 0h6v2h-6z" fill="#f0f06c" stroke="#787836"/>"     "     <path d="M190 441h5v2h-5zm6 0h5v2h-5z" stroke="#787836" fill="#f0f06d"/>"     "     <path d="M202 441h5v2h-5zm6 0h5v2h-5zm6 0h5v2h-5z" fill="#f0f06e" stroke="#787837"/>"     "     "     <path d="M220 441h5v2h-5zm6 0h3v2h-3z" stroke="#787837" fill="#f0f06f"/>"     "     <path d="M230 441h3v2h-3zm4 0h2v2h-2z" fill="#f0f070" stroke="#787838"/>"     "     <path d="M237 441h2v2h-2zM49 426h15v14H49z" stroke="#787838" fill="#f0f071"/>"     "     <path d="M65 426h15v14H65zm16 0h15v14H81zm16 0h15v14H97z" fill="#f0f072" stroke="#787839"/>"     "     "     <path d="M113 426h16v13h-16zm17 0h16v13h-16z" stroke="#787839" fill="#f0f073"/>"     "     <path d="M147 426h16v13h-16zm17 0h16v13h-16z" fill="#f0f074" stroke="#78783a"/>"     "     <path d="M181 426h16v13h-16zm17 0h16v13h-16zm17 0h17v12h-17z" stroke="#78783a" fill="#f0f075"/>"     "     "     <path d="M233 426h17v12h-17zm18 0h17v12h-17z" fill="#f0f076" stroke="#78783b"/>"     "     <path d="M269 426h17v12h-17zm18 0h17v12h-17z" stroke="#78783b" fill="#f0f077"/>"     "     <path d="M305 426h17v12h-17zm18 0h18v11h-18z" fill="#f0f078" stroke="#78783c"/>"     "     <path d="M342 426h18v11h-18zm19 0h18v11h-18zm19 0h18v11h-18z" stroke="#78783c" fill="#f0f079"/>"     "     "     <path d="M399 426h18v11h-18zm19 0h18v11h-18z" fill="#f0f07a" stroke="#78783d"/>"     "     <path d="M437 426h21v9h-21zm22 0h21v9h-21z" stroke="#78783d" fill="#f0f07b"/>"     "     <path d="M481 426h21v9h-21zm22 0h23v8h-23zm24 0h23v8h-23z" fill="#f0f07c" stroke="#78783e"/>"     "     "     <path d="M551 426h23v8h-23zm24 0h23v8h-23z" stroke="#78783e" fill="#f0f07d"/>"     "     <path d="M599 426h23v8h-23zm24 0h23v8h-23z" fill="#f0f07e" stroke="#78783f"/>"     "     <path d="M647 426h25v7h-25zm26 0h25v7h-25z" stroke="#78783f" fill="#f0f07f"/>"     "     <path d="M699 426h25v7h-25zm26 0h25v7h-25zm26 0h25v7h-25z" fill="#f0f080" stroke="#787840"/>"     "     "     <path d="M777 426h25v7h-25zm26 0h25v7h-25z" stroke="#787840" fill="#f0f081"/>"     "     <path d="M829 426h24v7h-24zm25 0h24v7h-24z" fill="#f0f082" stroke="#787841"/>"     "     <path d="M879 426h24v7h-24zm25 0h24v7h-24zm25 0h24v7h-24z" stroke="#787841" fill="#f0f083"/>"     "     "     <path d="M954 426h27v6h-27zm28 0h27v6h-27z" fill="#f0f084" stroke="#787842"/>"     "     <path d="M1010 426h14v6h-14zM1 444h14v14H1z" stroke="#787842" fill="#f0f085"/>"     "     <path d="M16 444h14v14H16zm15 0h14v14H31z" fill="#f0f086" stroke="#787843"/>"     "     <path d="M46 444h15v13H46zm16 0h16v12H62zm17 0h16v12H79z" stroke="#787843" fill="#f0f087"/>"     "     "     <path d="M96 444h16v12H96zm17 0h16v12h-16z" fill="#f0f088" stroke="#787844"/>"     "     <path d="M130 444h16v12h-16zm17 0h16v12h-16z" stroke="#787844" fill="#f0f089"/>"     "     <path d="M164 444h19v10h-19zm20 0h19v10h-19zm20 0h19v10h-19z" fill="#f0f08a" stroke="#787845"/>"     "     "     <path d="M224 444h20v9h-20zm21 0h20v9h-20z" stroke="#787845" fill="#f0f08b"/>"     "     <path d="M266 444h20v9h-20zm21 0h20v9h-20z" fill="#f0f08c" stroke="#787846"/>"     "     <path d="M308 444h20v9h-20zm21 0h20v9h-20z" stroke="#787846" fill="#f0f08d"/>"     "     <path d="M350 444h20v9h-20zm21 0h22v8h-22zm23 0h22v8h-22z" fill="#f0f08e" stroke="#787847"/>"     "     "     <path d="M417 444h21v8h-21zm22 0h21v8h-21z" stroke="#787847" fill="#f0f08f"/>"     "     <path d="M461 444h21v8h-21zm22 0h21v8h-21z" fill="#f0f090" stroke="#787848"/>"     "     <path d="M505 444h21v8h-21zm22 0h27v6h-27zm28 0h27v6h-27z" stroke="#787848" fill="#f0f091"/>"     "     "     <path d="M583 444h26v6h-26zm27 0h26v6h-26z" fill="#f0f092" stroke="#787849"/>"     "     <path d="M637 444h26v6h-26zm27 0h26v6h-26z" stroke="#787849" fill="#f0f093"/>"     "     <path d="M691 444h30v5h-30zm31 0h30v5h-30z" fill="#f0f094" stroke="#78784a"/>"     "     <path d="M753 444h30v5h-30zm31 0h30v5h-30zm31 0h30v5h-30z" stroke="#78784a" fill="#f0f095"/>"     "     "     <path d="M846 444h29v5h-29zm30 0h29v5h-29z" fill="#f0f096" stroke="#78784b"/>"     "     <path d="M906 444h29v5h-29zm30 0h29v5h-29z" stroke="#78784b" fill="#f0f097"/>"     "     <path d="M966 444h28v5h-28zm29 0h28v5h-28zM1 459h17v11H1z" fill="#f0f098" stroke="#78784c"/>"     "     "     <path d="M19 459h17v11H19zm18 0h17v11H37z" stroke="#78784c" fill="#f0f099"/>"     "     <path d="M55 459h18v10H55zm19 0h18v10H74z" fill="#f0f09a" stroke="#78784d"/>"     "     <path d="M93 459h18v10H93zm19 0h17v10h-17z" stroke="#78784d" fill="#f0f09b"/>"     "     <path d="M130 459h23v7h-23zm24 0h23v7h-23zm24 0h23v7h-23z" fill="#f0f09c" stroke="#78784e"/>"     "     "     <path d="M202 459h23v7h-23zm24 0h22v7h-22z" stroke="#78784e" fill="#f0f09d"/>"     "     <path d="M249 459h22v7h-22zm23 0h22v7h-22z" fill="#f0f09e" stroke="#78784f"/>"     "     <path d="M295 459h22v7h-22zm23 0h22v7h-22zm23 0h25v6h-25z" stroke="#78784f" fill="#f0f09f"/>"     "     "     <path d="M367 459h25v6h-25zm26 0h25v6h-25z" fill="#f0f0a0" stroke="#787850"/>"     "     <path d="M419 459h24v6h-24zm25 0h24v6h-24z" stroke="#787850" fill="#f0f0a1"/>"     "     <path d="M469 459h24v6h-24zm25 0h28v5h-28z" fill="#f0f0a2" stroke="#787851"/>"     "     <path d="M523 459h28v5h-28zm29 0h28v5h-28zm29 0h27v5h-27z" stroke="#787851" fill="#f0f0a3"/>"     "     "     <path d="M609 459h27v5h-27zm28 0h27v5h-27z" fill="#f0f0a4" stroke="#787852"/>"     "     <path d="M665 459h26v5h-26zm27 0h25v5h-25z" stroke="#787852" fill="#f0f0a5"/>"     "     <path d="M718 459h25v5h-25zm26 0h30v4h-30zm31 0h30v4h-30z" fill="#f0f0a6" stroke="#787853"/>"     "     "     <path d="M806 459h30v4h-30zm31 0h29v4h-29z" stroke="#787853" fill="#f0f0a7"/>"     "     <path d="M867 459h29v4h-29zm30 0h29v4h-29z" fill="#f0f0a8" stroke="#787854"/>"     "     <path d="M927 459h28v4h-28zm29 0h28v4h-28z" stroke="#787854" fill="#f0f0a9"/>"     "     <path d="M985 459h27v4h-27zm28 0h11v4h-11zM1 471h14v13H1z" fill="#f0f0aa" stroke="#787855"/>"     "     "     <path d="M16 471h14v13H16zm15 0h14v13H31z" stroke="#787855" fill="#f0f0ab"/>"     "     <path d="M46 471h14v13H46zm15 0h15v12H61z" fill="#f0f0ac" stroke="#787856"/>"     "     <path d="M77 471h15v12H77zm16 0h16v11H93zm17 0h16v11h-16z" stroke="#787856" fill="#f0f0ad"/>"     "     "     <path d="M127 471h16v11h-16zm17 0h16v11h-16z" fill="#f0f0ae" stroke="#787857"/>"     "     <path d="M161 471h16v11h-16zm17 0h15v11h-15z" stroke="#787857" fill="#f0f0af"/>"     "     <path d="M194 471h15v11h-15zm16 0h15v11h-15z" fill="#f0f0b0" stroke="#787858"/>"     "     <path d="M226 471h15v11h-15zm16 0h15v11h-15zm16 0h18v9h-18z" stroke="#787858" fill="#f0f0b1"/>"     "     "     <path d="M277 471h20v8h-20zm21 0h20v8h-20z" fill="#f0f0b2" stroke="#787859"/>"     "     <path d="M319 471h20v8h-20zm21 0h20v8h-20z" stroke="#787859" fill="#f0f0b3"/>"     "     <path d="M361 471h19v8h-19zm20 0h21v7h-21zm22 0h21v7h-21z" fill="#f0f0b4" stroke="#78785a"/>"     "     "     <path d="M425 471h21v7h-21zm22 0h23v6h-23z" stroke="#78785a" fill="#f0f0b5"/>"     "     <path d="M471 471h23v6h-23zm24 0h22v6h-22z" fill="#f0f0b6" stroke="#78785b"/>"     "     <path d="M518 471h22v6h-22zm23 0h22v6h-22z" stroke="#78785b" fill="#f0f0b7"/>"     "     <path d="M564 471h21v6h-21zm22 0h21v6h-21zm22 0h24v5h-24z" fill="#f0f0b8" stroke="#78785c"/>"     "     "     <path d="M633 471h24v5h-24zm25 0h24v5h-24z" stroke="#78785c" fill="#f0f0b9"/>"     "     <path d="M683 471h23v5h-23zm24 0h23v5h-23z" fill="#f0f0ba" stroke="#78785d"/>"     "     <path d="M731 471h23v5h-23zm24 0h23v5h-23zm24 0h23v5h-23z" stroke="#78785d" fill="#f0f0bb"/>"     "     "     <path d="M803 471h23v5h-23zm24 0h23v5h-23z" fill="#f0f0bc" stroke="#78785e"/>"     "     <path d="M851 471h23v5h-23zm24 0h22v5h-22z" stroke="#78785e" fill="#f0f0bd"/>"     "     <path d="M898 471h22v5h-22zm23 0h22v5h-22z" fill="#f0f0be" stroke="#78785f"/>"     "     <path d="M944 471h22v5h-22zm23 0h22v5h-22zm23 0h22v5h-22z" stroke="#78785f" fill="#f0f0bf"/>"     "     "     <path d="M1013 471h11v5h-11zM1 485h13v13H1z" fill="#f0f0c0" stroke="#787860"/>"     "     <path d="M15 485h14v12H15zm15 0h14v12H30z" stroke="#787860" fill="#f0f0c1"/>"     "     <path d="M45 485h14v12H45zm15 0h16v10H60zm17 0h16v10H77z" fill="#f0f0c2" stroke="#787861"/>"     "     "     <path d="M94 485h16v10H94zm17 0h16v10h-16z" stroke="#787861" fill="#f0f0c3"/>"     "     <path d="M128 485h16v10h-16zm17 0h17v9h-17z" fill="#f0f0c4" stroke="#787862"/>"     "     <path d="M163 485h17v9h-17zm18 0h17v9h-17z" stroke="#787862" fill="#f0f0c5"/>"     "     <path d="M199 485h17v9h-17zm18 0h18v8h-18zm19 0h20v7h-20z" fill="#f0f0c6" stroke="#787863"/>"     "     "     <path d="M257 485h20v7h-20zm21 0h19v7h-19z" stroke="#787863" fill="#f0f0c7"/>"     "     <path d="M298 485h19v7h-19zm20 0h19v7h-19z" fill="#f0f0c8" stroke="#787864"/>"     "     <path d="M338 485h19v7h-19zm20 0h18v7h-18zm19 0h18v7h-18z" stroke="#787864" fill="#f0f0c9"/>"     "     "     <path d="M396 485h18v7h-18zm19 0h18v7h-18z" fill="#f0f0ca" stroke="#787865"/>"     "     <path d="M434 485h18v7h-18zm19 0h20v6h-20z" stroke="#787865" fill="#f0f0cb"/>"     "     <path d="M474 485h20v6h-20zm21 0h20v6h-20z" fill="#f0f0cc" stroke="#787866"/>"     "     <path d="M516 485h20v6h-20zm21 0h19v6h-19zm20 0h19v6h-19z" stroke="#787866" fill="#f0f0cd"/>"     "     "     <path d="M577 485h26v4h-26zm27 0h26v4h-26z" fill="#f0f0ce" stroke="#787867"/>"     "     <path d="M631 485h26v4h-26zm27 0h26v4h-26z" stroke="#787867" fill="#f0f0cf"/>"     "     <path d="M685 485h25v4h-25zm26 0h25v4h-25zm26 0h24v4h-24z" fill="#f0f0d0" stroke="#787868"/>"     "     "     <path d="M762 485h24v4h-24zm25 0h23v4h-23z" stroke="#787868" fill="#f0f0d1"/>"     "     <path d="M811 485h23v4h-23zm24 0h22v4h-22z" fill="#f0f0d2" stroke="#787869"/>"     "     <path d="M858 485h22v4h-22zm23 0h22v4h-22z" stroke="#787869" fill="#f0f0d3"/>"     "     <path d="M904 485h22v4h-22zm23 0h22v4h-22zm23 0h22v4h-22z" fill="#f0f0d4" stroke="#78786a"/>"     "     "     <path d="M973 485h22v4h-22zm23 0h21v4h-21z" stroke="#78786a" fill="#f0f0d5"/>"     "     <path d="M1018 485h6v4h-6zM1 499h12v13H1z" fill="#f0f0d6" stroke="#78786b"/>"     "     <path d="M14 499h14v11H14zm15 0h14v11H29zm15 0h14v11H44z" stroke="#78786b" fill="#f0f0d7"/>"     "     "     <path d="M59 499h14v11H59zm15 0h15v10H74z" fill="#f0f0d8" stroke="#78786c"/>"     "     <path d="M90 499h15v10H90zm16 0h15v10h-15z" stroke="#78786c" fill="#f0f0d9"/>"     "     <path d="M122 499h15v10h-15zm16 0h15v10h-15z" fill="#f0f0da" stroke="#78786d"/>"     "     <path d="M154 499h15v10h-15zm16 0h16v9h-16zm17 0h16v9h-16z" stroke="#78786d" fill="#f0f0db"/>"     "     "     <path d="M204 499h16v9h-16zm17 0h16v9h-16z" fill="#f0f0dc" stroke="#78786e"/>"     "     <path d="M238 499h16v9h-16zm17 0h17v8h-17z" stroke="#78786e" fill="#f0f0dd"/>"     "     <path d="M273 499h17v8h-17zm18 0h17v8h-17zm18 0h17v8h-17z" fill="#f0f0de" stroke="#78786f"/>"     "     "     <path d="M327 499h17v8h-17zm18 0h17v8h-17z" stroke="#78786f" fill="#f0f0df"/>"     "     <path d="M363 499h17v8h-17zm18 0h17v8h-17z" fill="#f0f0e0" stroke="#787870"/>"     "     <path d="M399 499h17v8h-17zm18 0h16v8h-16z" stroke="#787870" fill="#f0f0e1"/>"     "     <path d="M434 499h16v8h-16zm17 0h16v8h-16zm17 0h16v8h-16z" fill="#f0f0e2" stroke="#787871"/>"     "     "     <path d="M485 499h16v8h-16zm17 0h16v8h-16z" stroke="#787871" fill="#f0f0e3"/>"     "     <path d="M519 499h16v8h-16zm17 0h15v8h-15z" fill="#f0f0e4" stroke="#787872"/>"     "     <path d="M552 499h15v8h-15zm16 0h17v7h-17zm18 0h17v7h-17z" stroke="#787872" fill="#f0f0e5"/>"     "     "     <path d="M604 499h16v7h-16zm17 0h16v7h-16z" fill="#f0f0e6" stroke="#787873"/>"     "     <path d="M638 499h16v7h-16zm17 0h16v7h-16z" stroke="#787873" fill="#f0f0e7"/>"     "     <path d="M672 499h16v7h-16zm17 0h18v6h-18z" fill="#f0f0e8" stroke="#787874"/>"     "     <path d="M708 499h18v6h-18zm19 0h18v6h-18zm19 0h18v6h-18z" stroke="#787874" fill="#f0f0e9"/>"     "     "     <path d="M765 499h21v5h-21zm22 0h21v5h-21z" fill="#f0f0ea" stroke="#787875"/>"     "     <path d="M809 499h21v5h-21zm22 0h20v5h-20z" stroke="#787875" fill="#f0f0eb"/>"     "     <path d="M852 499h20v5h-20zm21 0h20v5h-20zm21 0h19v5h-19z" fill="#f0f0ec" stroke="#787876"/>"     "     "     <path d="M914 499h19v5h-19zm20 0h19v5h-19z" stroke="#787876" fill="#f0f0ed"/>"     "     <path d="M954 499h18v5h-18zm19 0h16v5h-16z" fill="#f0f0ee" stroke="#787877"/>"     "     <path d="M990 499h16v5h-16zm17 0h15v5h-15z" stroke="#787877" fill="#f0f0ef"/>"     "     <text y="526" font-size="12" fill="#000" x="0"> MaxRectsBin(size: 1024x512, choice: BestAreaFit, method: LongerLeftoverAxis): inserted 1317 of 1536 rectangles with w/h lengths between [2, 31], occupancy: 76.37% </text></svg>