<svg xmlns="http://www.w3.org/2000/svg" viewBox="0 0 1024 536" xmlns:v="https://vecta.io/nano"><path d="M0 0h1024v512H0z" fill="#fff" stroke="#000"/>"     <path d="M1 1h1v13H1zm2 0h1v15H3z" fill="#303030" stroke="#181818"/>"     "     <path d="M5 1h1v7H5z" fill="#303130" stroke="#181818"/>"     <path d="M7 1h1v15H7zm2 0h1v12H9z" fill="#303230" stroke="#181918"/>"     "     <path d="M11 1h1v22h-1z" fill="#303330" stroke="#181918"/>"     <path d="M13 1h1v23h-1zm2 0h1v27h-1z" fill="#303430" stroke="#181a18"/>"     "     <path d="M17 1h1v17h-1z" fill="#303530" stroke="#181a18"/>"     <path d="M19 1h1v30h-1zm2 0h1v17h-1z" fill="#303630" stroke="#181b18"/>"     "     <path d="M23 1h1v14h-1z" fill="#303730" stroke="#181b18"/>"     <path d="M25 1h1v12h-1zm2 0h1v14h-1z" fill="#303830" stroke="#181c18"/>"     "     <path d="M29 1h1v19h-1z" fill="#303930" stroke="#181c18"/>"     <path d="M31 1h1v20h-1zm2 0h1v21h-1z" fill="#303a30" stroke="#181d18"/>"     "     <path d="M35 1h1v4h-1z" fill="#303b30" stroke="#181d18"/>"     <g stroke="#181e18"><path d="M37 1h1v21h-1z" fill="#303c30"/><path d="M39 1h1v16h-1zm2 0h1v21h-1z" fill="#303d30"/></g>"     "     "     <g stroke="#181f18"><path d="M43 1h1v19h-1z" fill="#303e30"/><path d="M45 1h1v8h-1zm2 0h1v12h-1z" fill="#303f30"/></g>"     "     "     <g stroke="#182018"><path d="M49 1h1v19h-1z" fill="#304030"/><path d="M51 1h1v14h-1zm2 0h1v4h-1z" fill="#304130"/></g>"     "     "     <g stroke="#182118"><path d="M55 1h1v15h-1z" fill="#304230"/><path d="M57 1h1v11h-1zm2 0h1v15h-1z" fill="#304330"/></g>"     "     "     <g stroke="#182218"><path d="M61 1h1v3h-1z" fill="#304430"/><path d="M63 1h1v23h-1zm2 0h1v24h-1z" fill="#304530"/></g>"     "     "     <g stroke="#182318"><path d="M67 1h1v1h-1z" fill="#304630"/><path d="M69 1h1v13h-1z" fill="#304730"/></g>"     "     <path d="M71 1h1v3h-1zm2 0h1v22h-1z" fill="#304830" stroke="#182418"/>"     "     <path d="M75 1h1v26h-1z" fill="#304930" stroke="#182418"/>"     <path d="M77 1h1v2h-1zm2 0h1v14h-1z" fill="#304a30" stroke="#182518"/>"     "     <path d="M81 1h1v4h-1z" fill="#304b30" stroke="#182518"/>"     <path d="M83 1h1v26h-1zm2 0h1v7h-1z" fill="#304c30" stroke="#182618"/>"     "     <path d="M87 1h1v7h-1z" fill="#304d30" stroke="#182618"/>"     <path d="M89 1h1v23h-1zm2 0h1v26h-1z" fill="#304e30" stroke="#182718"/>"     "     <path d="M93 1h1v6h-1z" fill="#304f30" stroke="#182718"/>"     <path d="M95 1h1v3h-1zm2 0h1v15h-1z" fill="#305030" stroke="#182818"/>"     "     <path d="M99 1h2v28h-2z" fill="#305130" stroke="#182818"/>"     <g stroke="#182918"><path d="M102 1h2v14h-2z" fill="#305230"/><path d="M105 1h2v28h-2zm3 0h2v18h-2z" fill="#305330"/></g>"     "     "     <g stroke="#182a18"><path d="M111 1h2v12h-2z" fill="#305430"/><path d="M114 1h2v21h-2zm3 0h2v6h-2z" fill="#305530"/></g>"     "     "     <g stroke="#182b18"><path d="M120 1h2v23h-2z" fill="#305630"/><path d="M123 1h2v21h-2zm3 0h2v15h-2z" fill="#305730"/></g>"     "     "     <g stroke="#182c18"><path d="M129 1h2v19h-2z" fill="#305830"/><path d="M132 1h2v8h-2zm3 0h2v20h-2z" fill="#305930"/></g>"     "     "     <g stroke="#182d18"><path d="M138 1h2v13h-2z" fill="#305a30"/><path d="M141 1h2v7h-2zm3 0h2v22h-2z" fill="#305b30"/></g>"     "     "     <g stroke="#182e18"><path d="M147 1h2v1h-2z" fill="#305c30"/><path d="M150 1h2v23h-2zm3 0h2v13h-2z" fill="#305d30"/></g>"     "     "     <g stroke="#182f18"><path d="M156 1h2v14h-2z" fill="#305e30"/><path d="M159 1h2v9h-2z" fill="#305f30"/></g>"     "     <path d="M162 1h2v15h-2zm3 0h2v22h-2z" fill="#306030" stroke="#183018"/>"     "     <path d="M168 1h2v5h-2z" fill="#306130" stroke="#183018"/>"     <path d="M171 1h2v5h-2zm3 0h2v2h-2z" fill="#306230" stroke="#183118"/>"     "     <path d="M177 1h2v21h-2z" fill="#306330" stroke="#183118"/>"     <path d="M180 1h2v1h-2zm3 0h2v10h-2z" fill="#306430" stroke="#183218"/>"     "     <path d="M186 1h2v1h-2z" fill="#306530" stroke="#183218"/>"     <path d="M189 1h2v24h-2zm3 0h2v24h-2z" fill="#306630" stroke="#183318"/>"     "     <path d="M195 1h2v23h-2z" fill="#306730" stroke="#183318"/>"     <path d="M198 1h2v2h-2zm3 0h2v27h-2z" fill="#306830" stroke="#183418"/>"     "     <path d="M204 1h2v20h-2z" fill="#306930" stroke="#183418"/>"     <g stroke="#183518"><path d="M207 1h2v3h-2z" fill="#306a30"/><path d="M210 1h2v25h-2zm3 0h2v5h-2z" fill="#306b30"/></g>"     "     "     <g stroke="#183618"><path d="M216 1h2v24h-2z" fill="#306c30"/><path d="M219 1h2v7h-2zm3 0h2v30h-2z" fill="#306d30"/></g>"     "     "     <g stroke="#183718"><path d="M225 1h2v11h-2z" fill="#306e30"/><path d="M228 1h2v6h-2zm3 0h3v17h-3z" fill="#306f30"/></g>"     "     "     <g stroke="#183818"><path d="M235 1h3v8h-3z" fill="#307030"/><path d="M239 1h3v18h-3zm4 0h3v18h-3z" fill="#307130"/></g>"     "     "     <g stroke="#183918"><path d="M247 1h3v10h-3z" fill="#307230"/><path d="M251 1h3v13h-3zm4 0h3v28h-3z" fill="#307330"/></g>"     "     "     <g stroke="#183a18"><path d="M259 1h3v11h-3z" fill="#307430"/><path d="M263 1h3v26h-3z" fill="#307530"/></g>"     "     <path d="M267 1h3v2h-3zm4 0h3v30h-3z" fill="#307630" stroke="#183b18"/>"     "     <path d="M275 1h3v25h-3z" fill="#307730" stroke="#183b18"/>"     <path d="M279 1h3v10h-3zm4 0h3v25h-3z" fill="#307830" stroke="#183c18"/>"     "     <path d="M287 1h3v24h-3z" fill="#307930" stroke="#183c18"/>"     <path d="M291 1h3v26h-3zm4 0h3v16h-3z" fill="#307a30" stroke="#183d18"/>"     "     <path d="M299 1h3v17h-3z" fill="#307b30" stroke="#183d18"/>"     <path d="M303 1h3v6h-3zm4 0h3v7h-3z" fill="#307c30" stroke="#183e18"/>"     "     <path d="M311 1h3v27h-3z" fill="#307d30" stroke="#183e18"/>"     <path d="M315 1h3v13h-3zm4 0h3v19h-3z" fill="#307e30" stroke="#183f18"/>"     "     <path d="M323 1h3v21h-3z" fill="#307f30" stroke="#183f18"/>"     <g stroke="#184018"><path d="M327 1h3v15h-3z" fill="#308030"/><path d="M331 1h3v4h-3zm4 0h3v28h-3z" fill="#308130"/></g>"     "     "     <g stroke="#184118"><path d="M339 1h3v23h-3z" fill="#308230"/><path d="M343 1h3v14h-3zm4 0h3v9h-3z" fill="#308330"/></g>"     "     "     <g stroke="#184218"><path d="M351 1h3v26h-3z" fill="#308430"/><path d="M355 1h3v24h-3zm4 0h3v30h-3z" fill="#308530"/></g>"     "     "     <g stroke="#184318"><path d="M363 1h3v12h-3z" fill="#308630"/><path d="M367 1h3v13h-3zm4 0h3v18h-3z" fill="#308730"/></g>"     "     "     <g stroke="#184418"><path d="M375 1h3v28h-3z" fill="#308830"/><path d="M379 1h3v26h-3zm4 0h3v1h-3z" fill="#308930"/></g>"     "     "     <g stroke="#184518"><path d="M387 1h3v8h-3z" fill="#308a30"/><path d="M391 1h3v29h-3zm4 0h3v13h-3z" fill="#308b30"/></g>"     "     "     <g stroke="#184618"><path d="M399 1h3v22h-3z" fill="#308c30"/><path d="M403 1h3v6h-3z" fill="#308d30"/></g>"     "     <path d="M407 1h3v10h-3zm4 0h3v15h-3z" fill="#308e30" stroke="#184718"/>"     "     <path d="M415 1h3v27h-3z" fill="#308f30" stroke="#184718"/>"     <path d="M419 1h3v10h-3zm4 0h3v22h-3z" fill="#309030" stroke="#184818"/>"     "     <path d="M427 1h3v2h-3z" fill="#309130" stroke="#184818"/>"     <path d="M431 1h3v27h-3zm4 0h3v12h-3z" fill="#309230" stroke="#184918"/>"     "     <path d="M439 1h3v26h-3z" fill="#309330" stroke="#184918"/>"     <path d="M443 1h3v11h-3zm4 0h3v20h-3z" fill="#309430" stroke="#184a18"/>"     "     <path d="M451 1h3v14h-3z" fill="#309530" stroke="#184a18"/>"     <path d="M455 1h3v1h-3zm4 0h3v19h-3z" fill="#309630" stroke="#184b18"/>"     "     <path d="M463 1h3v29h-3z" fill="#309730" stroke="#184b18"/>"     <g stroke="#184c18"><path d="M467 1h3v27h-3z" fill="#309830"/><path d="M471 1h3v20h-3zm4 0h3v5h-3z" fill="#309930"/></g>"     "     "     <g stroke="#184d18"><path d="M479 1h3v8h-3z" fill="#309a30"/><path d="M483 1h3v30h-3zm4 0h3v10h-3z" fill="#309b30"/></g>"     "     "     <g stroke="#184e18"><path d="M491 1h4v25h-4z" fill="#309c30"/><path d="M496 1h4v9h-4zm5 0h4v5h-4z" fill="#309d30"/></g>"     "     "     <g stroke="#184f18"><path d="M506 1h4v30h-4z" fill="#309e30"/><path d="M511 1h22v1h-22zm23 0h15v1h-15z" fill="#309f30"/></g>"     "     "     <g stroke="#185018"><path d="M511 3h4v22h-4z" fill="#30a030"/><path d="M67 3h1v11h-1zm80 0h1v5h-1z" fill="#30a130"/></g>"     "     "     <g stroke="#185118"><path d="M180 3h1v27h-1z" fill="#30a230"/><path d="M186 3h1v13h-1z" fill="#30a330"/></g>"     "     <path d="M383 3h1v17h-1zm72 0h1v12h-1z" fill="#30a430" stroke="#185218"/>"     "     <path d="M457 3h1v12h-1z" fill="#30a530" stroke="#185218"/>"     <path d="M516 3h19v1h-19zM77 4h1v10h-1z" fill="#30a630" stroke="#185318"/>"     "     <path d="M174 4h1v28h-1z" fill="#30a730" stroke="#185318"/>"     <path d="M198 4h1v23h-1zm69 0h1v27h-1z" fill="#30a830" stroke="#185418"/>"     "     <path d="M269 4h1v27h-1z" fill="#30a930" stroke="#185418"/>"     <path d="M427 4h1v20h-1zM61 5h1v22h-1z" fill="#30aa30" stroke="#185518"/>"     "     <path d="M71 5h1v11h-1z" fill="#30ab30" stroke="#185518"/>"     <path d="M95 5h1v6h-1zm112 0h1v5h-1z" fill="#30ac30" stroke="#185618"/>"     "     <path d="M516 5h6v1h-6z" fill="#30ad30" stroke="#185618"/>"     <g stroke="#185718"><path d="M523 5h18v1h-18z" fill="#30ae30"/><path d="M35 6h1v23h-1zm18 0h1v14h-1z" fill="#30af30"/></g>"     "     "     <g stroke="#185818"><path d="M81 6h1v28h-1z" fill="#30b030"/><path d="M331 6h1v7h-1zM168 7h1v19h-1z" fill="#30b130"/></g>"     "     "     <g stroke="#185918"><path d="M213 7h1v21h-1z" fill="#30b230"/><path d="M475 7h1v5h-1zm2 0h1v5h-1z" fill="#30b330"/></g>"     "     "     <g stroke="#185a18"><path d="M501 7h1v10h-1z" fill="#30b430"/><path d="M503 7h2v10h-2zm13 0h4v18h-4z" fill="#30b530"/></g>"     "     "     <g stroke="#185b18"><path d="M521 7h12v1h-12z" fill="#30b630"/><path d="M93 8h1v23h-1zm24 0h1v27h-1z" fill="#30b730"/></g>"     "     "     <g stroke="#185c18"><path d="M228 8h1v16h-1z" fill="#30b830"/><path d="M303 8h1v15h-1zm100 0h1v12h-1z" fill="#30b930"/></g>"     "     "     <g stroke="#185d18"><path d="M405 8h1v12h-1z" fill="#30ba30"/><path d="M5 9h1v19H5z" fill="#30bb30"/></g>"     "     <path d="M85 9h1v4h-1zm56 0h1v19h-1z" fill="#30bc30" stroke="#185e18"/>"     "     <path d="M219 9h1v30h-1z" fill="#30bd30" stroke="#185e18"/>"     <path d="M307 9h1v12h-1zM147 9h2v13h-2z" fill="#30be30" stroke="#185f18"/>"     "     <path d="M521 9h24v2h-24z" fill="#30bf30" stroke="#185f18"/>"     <path d="M132 10h2v13h-2zm103 0h2v9h-2z" fill="#30c030" stroke="#186018"/>"     "     <path d="M387 10h2v21h-2z" fill="#30c130" stroke="#186018"/>"     <path d="M479 10h2v19h-2zm-320 1h2v21h-2z" fill="#30c230" stroke="#186118"/>"     "     <path d="M347 11h2v27h-2z" fill="#30c330" stroke="#186118"/>"     <path d="M496 11h2v18h-2zm-289 0h2v19h-2z" fill="#30c430" stroke="#186218"/>"     "     <path d="M521 12h4v3h-4z" fill="#30c530" stroke="#186218"/>"     <g stroke="#186318"><path d="M183 12h2v11h-2z" fill="#30c630"/><path d="M247 12h2v5h-2zm32 0h2v8h-2z" fill="#30c730"/></g>"     "     "     <g stroke="#186418"><path d="M407 12h2v13h-2z" fill="#30c830"/><path d="M419 12h2v25h-2zm68 0h2v30h-2z" fill="#30c930"/></g>"     "     "     <g stroke="#186518"><path d="M526 12h12v2h-12z" fill="#30ca30"/><path d="M225 13h2v18h-2zm34 0h2v21h-2z" fill="#30cb30"/></g>"     "     "     <g stroke="#186618"><path d="M443 13h2v23h-2z" fill="#30cc30"/><path d="M475 13h2v6h-2zm-364 1h2v18h-2z" fill="#30cd30"/></g>"     "     "     <g stroke="#186718"><path d="M363 14h2v19h-2z" fill="#30ce30"/><path d="M435 14h2v16h-2zm-104 0h2v5h-2z" fill="#30cf30"/></g>"     "     "     <g stroke="#186818"><path d="M85 14h2v15h-2z" fill="#30d030"/><path d="M67 15h2v24h-2z" fill="#30d130"/></g>"     "     <path d="M138 15h2v20h-2zm15 0h2v12h-2z" fill="#30d230" stroke="#186918"/>"     "     <path d="M526 15h26v2h-26z" fill="#30d330" stroke="#186918"/>"     <path d="M553 15h30v2h-30zm-302 0h2v14h-2z" fill="#30d430" stroke="#186a18"/>"     "     <path d="M315 15h2v30h-2z" fill="#30d530" stroke="#186a18"/>"     <path d="M367 15h2v28h-2zm28 0h2v5h-2z" fill="#30d630" stroke="#186b18"/>"     "     <path d="M102 16h2v18h-2z" fill="#30d730" stroke="#186b18"/>"     <path d="M156 16h2v9h-2zm187 0h2v19h-2z" fill="#30d830" stroke="#186c18"/>"     "     <path d="M451 16h2v26h-2z" fill="#30d930" stroke="#186c18"/>"     <path d="M454 16h4v26h-4zm67 0h2v6h-2z" fill="#30da30" stroke="#186d18"/>"     "     <path d="M526 18h4v28h-4z" fill="#30db30" stroke="#186d18"/>"     <g stroke="#186e18"><path d="M126 17h2v19h-2z" fill="#30dc30"/><path d="M162 17h2v7h-2zm165 0h2v29h-2z" fill="#30dd30"/></g>"     "     "     <g stroke="#186f18"><path d="M411 17h2v21h-2z" fill="#30de30"/><path d="M186 17h2v6h-2zm109 1h2v17h-2z" fill="#30df30"/></g>"     "     "     <g stroke="#187018"><path d="M501 18h2v28h-2z" fill="#30e030"/><path d="M247 18h2v14h-2zm284 0h9v2h-9z" fill="#30e130"/></g>"     "     "     <g stroke="#187118"><path d="M231 19h3v9h-3z" fill="#30e230"/><path d="M299 19h3v18h-3zm-64 1h11v3h-11z" fill="#30e330"/></g>"     "     "     <g stroke="#187218"><path d="M371 20h3v30h-3z" fill="#30e430"/><path d="M475 20h3v27h-3zm-144 0h3v7h-3z" fill="#30e530"/></g>"     "     "     <g stroke="#187318"><path d="M531 21h4v26h-4z" fill="#30e630"/><path d="M319 21h3v28h-3zm84 0h3v21h-3z" fill="#30e730"/></g>"     "     "     <g stroke="#187418"><path d="M383 21h3v20h-3z" fill="#30e830"/><path d="M459 21h3v18h-3z" fill="#30e930"/></g>"     "     <path d="M279 21h3v6h-3zm116 0h3v12h-3z" fill="#30ea30" stroke="#187518"/>"     "     <path d="M536 21h29v3h-29z" fill="#30eb30" stroke="#187518"/>"     <path d="M447 22h3v11h-3zm24 0h3v27h-3z" fill="#30ec30" stroke="#187618"/>"     "     <path d="M307 22h3v12h-3z" fill="#30ed30" stroke="#187618"/>"     <path d="M323 23h3v17h-3zm198 0h3v6h-3z" fill="#30ee30" stroke="#187718"/>"     "     <path d="M183 24h3v13h-3z" fill="#30ef30" stroke="#187718"/>"     <path d="M235 24h3v29h-3zm4 0h7v29h-7z" fill="#30f030" stroke="#187818"/>"     "     <path d="M399 24h3v25h-3z" fill="#31f030" stroke="#187818"/>"     <path d="M423 24h3v15h-3zm-120 0h3v17h-3z" fill="#32f030" stroke="#197818"/>"     "     <path d="M339 25h3v30h-3z" fill="#33f030" stroke="#197818"/>"     <g stroke="#1a7818"><path d="M427 25h3v8h-3z" fill="#34f030"/><path d="M536 25h4v7h-4zm5 0h25v3h-25z" fill="#35f030"/></g>"     "     "     <g stroke="#1b7818"><path d="M511 26h3v14h-3z" fill="#36f030"/><path d="M515 26h5v14h-5zm-326 0h3v25h-3z" fill="#37f030"/></g>"     "     "     <g stroke="#1c7818"><path d="M287 26h3v23h-3z" fill="#38f030"/><path d="M355 26h3v22h-3zm52 0h3v18h-3z" fill="#39f030"/></g>"     "     "     <g stroke="#1d7818"><path d="M275 27h3v6h-3z" fill="#3af030"/><path d="M283 27h3v7h-3zm208 0h3v9h-3z" fill="#3bf030"/></g>"     "     "     <g stroke="#1e7818"><path d="M168 27h3v13h-3z" fill="#3cf030"/><path d="M263 28h3v6h-3zm28 0h3v23h-3z" fill="#3df030"/></g>"     "     "     <g stroke="#1f7818"><path d="M351 28h3v28h-3z" fill="#3ef030"/><path d="M379 28h3v30h-3z" fill="#3ff030"/></g>"     "     <path d="M439 28h3v13h-3zm-160 0h3v5h-3z" fill="#40f030" stroke="#207818"/>"     "     <path d="M331 28h3v20h-3z" fill="#41f030" stroke="#207818"/>"     <path d="M231 29h3v30h-3zm80 0h3v20h-3z" fill="#42f030" stroke="#217818"/>"     "     <path d="M415 29h3v24h-3z" fill="#43f030" stroke="#217818"/>"     <path d="M541 29h16v4h-16zm0 5h4v9h-4z" fill="#44f030" stroke="#227818"/>"     "     <path d="M251 30h4v10h-4z" fill="#45f030" stroke="#227818"/>"     <path d="M496 30h4v30h-4zm25 0h4v11h-4z" fill="#46f030" stroke="#237818"/>"     "     <path d="M222 32h4v22h-4z" fill="#47f030" stroke="#237818"/>"     <path d="M267 32h4v8h-4zm239 0h4v7h-4z" fill="#48f030" stroke="#247818"/>"     "     <path d="M536 33h4v23h-4z" fill="#49f030" stroke="#247818"/>"     <g stroke="#257818"><path d="M275 34h4v11h-4z" fill="#4af030"/><path d="M546 34h13v4h-13zm0 5h4v12h-4z" fill="#4bf030"/></g>"     "     "     <g stroke="#267818"><path d="M259 35h4v15h-4z" fill="#4cf030"/><path d="M491 37h4v21h-4zm-308 1h4v19h-4z" fill="#4df030"/></g>"     "     "     <g stroke="#277818"><path d="M551 39h5v4h-5z" fill="#4ef030"/><path d="M551 44h4v18h-4zm-45-4h4v22h-4z" fill="#4ff030"/></g>"     "     "     <g stroke="#287818"><path d="M511 41h4v29h-4z" fill="#50f030"/><path d="M516 41h4v29h-4zm-348 0h4v6h-4z" fill="#51f030"/></g>"     "     "     <g stroke="#297818"><path d="M251 41h4v30h-4z" fill="#52f030"/><path d="M267 41h4v22h-4zm254 1h4v7h-4z" fill="#53f030"/></g>"     "     "     <g stroke="#2a7818"><path d="M451 43h4v16h-4z" fill="#54f030"/><path d="M541 44h4v24h-4zm15 0h4v17h-4z" fill="#55f030"/></g>"     "     "     <g stroke="#2b7818"><path d="M556 62h4v11h-4z" fill="#56f030"/><path d="M561 44h13v4h-13z" fill="#57f030"/></g>"     "     <path d="M557 39h12v4h-12zm1-10h5v4h-5z" fill="#58f030" stroke="#2c7818"/>"     "     <path d="M275 46h4v22h-4z" fill="#59f030" stroke="#2c7818"/>"     <path d="M526 47h4v22h-4zm-25 0h4v22h-4z" fill="#5af030" stroke="#2d7818"/>"     "     <path d="M531 48h4v16h-4z" fill="#5bf030" stroke="#2d7818"/>"     <path d="M560 34h17v4h-17zM168 48h4v9h-4z" fill="#5cf030" stroke="#2e7818"/>"     "     <path d="M561 49h4v29h-4z" fill="#5df030" stroke="#2e7818"/>"     <path d="M561 79h4v9h-4zm5-30h26v4h-26z" fill="#5ef030" stroke="#2f7818"/>"     "     <path d="M521 50h4v9h-4z" fill="#5ff030" stroke="#2f7818"/>"     <path d="M259 51h5v4h-5zm305-22h23v4h-23z" fill="#60f030" stroke="#307818"/>"     "     <path d="M189 52h4v15h-4z" fill="#61f030" stroke="#307818"/>"     <g stroke="#317818"><path d="M546 52h4v14h-4z" fill="#62f030"/><path d="M235 54h4v26h-4zm5 0h6v26h-6z" fill="#63f030"/></g>"     "     "     <g stroke="#327818"><path d="M566 54h4v28h-4z" fill="#64f030"/><path d="M566 83h4v24h-4zm5-29h13v4h-13z" fill="#65f030"/></g>"     "     "     <g stroke="#337818"><path d="M222 55h4v19h-4z" fill="#66f030"/><path d="M259 56h5v26h-5zm277 1h4v5h-4z" fill="#67f030"/></g>"     "     "     <g stroke="#347818"><path d="M570 39h17v4h-17z" fill="#68f030"/><path d="M183 58h5v22h-5zm-15 0h5v7h-5z" fill="#69f030"/></g>"     "     "     <g stroke="#357818"><path d="M571 59h4v7h-4z" fill="#6af030"/><path d="M571 67h4v14h-4zm5-8h25v5h-25z" fill="#6bf030"/></g>"     "     "     <g stroke="#367818"><path d="M451 60h5v15h-5z" fill="#6cf030"/><path d="M491 59h4v8h-4z" fill="#6df030"/></g>"     "     <path d="M575 44h27v4h-27zm1 21h4v25h-4z" fill="#6ef030" stroke="#377818"/>"     "     <path d="M267 64h5v30h-5z" fill="#6ff030" stroke="#377818"/>"     <path d="M578 34h13v4h-13zm3 31h21v5h-21z" fill="#70f030" stroke="#387818"/>"     "     <path d="M168 66h5v28h-5z" fill="#71f030" stroke="#387818"/>"     <path d="M189 68h5v19h-5zm86 1h5v11h-5z" fill="#72f030" stroke="#397818"/>"     "     <path d="M581 71h5v12h-5z" fill="#73f030" stroke="#397818"/>"     <path d="M511 71h5v22h-5zm76 0h29v5h-29z" fill="#74f030" stroke="#3a7818"/>"     "     <path d="M251 72h5v10h-5z" fill="#75f030" stroke="#3a7818"/>"     <path d="M222 75h5v11h-5zm365 2h5v23h-5z" fill="#76f030" stroke="#3b7818"/>"     "     <path d="M451 76h5v23h-5z" fill="#77f030" stroke="#3b7818"/>"     <g stroke="#3c7818"><path d="M593 77h23v5h-23z" fill="#78f030"/><path d="M235 81h5v29h-5zm6 0h5v29h-5z" fill="#79f030"/></g>"     "     "     <g stroke="#3d7818"><path d="M183 81h5v8h-5z" fill="#7af030"/><path d="M275 81h5v15h-5zm318 2h5v22h-5z" fill="#7bf030"/></g>"     "     "     <g stroke="#3e7818"><path d="M251 83h5v5h-5z" fill="#7cf030"/><path d="M257 83h9v5h-9zm342 0h8v5h-8z" fill="#7df030"/></g>"     "     "     <g stroke="#3f7818"><path d="M581 84h5v14h-5z" fill="#7ef030"/><path d="M222 87h5v7h-5zm377 2h5v16h-5z" fill="#7ff030"/></g>"     "     "     <g stroke="#407818"><path d="M189 88h5v28h-5z" fill="#80f030"/><path d="M251 89h5v5h-5zm354 0h28v5h-28z" fill="#81f030"/></g>"     "     "     <g stroke="#417818"><path d="M183 90h5v12h-5z" fill="#82f030"/><path d="M602 59h24v5h-24zm1 6h27v5h-27z" fill="#83f030"/></g>"     "     "     <g stroke="#427818"><path d="M605 95h5v25h-5z" fill="#84f030"/><path d="M511 94h5v28h-5z" fill="#85f030"/></g>"     "     <path d="M222 95h5v22h-5zm-54 0h5v12h-5z" fill="#86f030" stroke="#437818"/>"     "     <path d="M251 95h5v24h-5z" fill="#87f030" stroke="#437818"/>"     <path d="M257 95h17v24h-17zm354 0h21v5h-21z" fill="#88f030" stroke="#447818"/>"     "     <path d="M608 83h28v5h-28z" fill="#89f030" stroke="#447818"/>"     <path d="M275 97h5v16h-5zm306 2h5v15h-5z" fill="#8af030" stroke="#457818"/>"     "     <path d="M611 101h5v7h-5z" fill="#8bf030" stroke="#457818"/>"     <path d="M451 100h5v29h-5zm136 1h5v20h-5z" fill="#8cf030" stroke="#467818"/>"     "     <path d="M617 101h11v6h-11z" fill="#8df030" stroke="#467818"/>"     <path d="M183 103h5v6h-5zm434-32h16v5h-16z" fill="#8ef030" stroke="#477818"/>"     "     <path d="M617 108h5v22h-5z" fill="#8ff030" stroke="#477818"/>"     <g stroke="#487818"><path d="M593 106h6v27h-6z" fill="#90f030"/><path d="M168 108h5v6h-5zm455 0h11v6h-11z" fill="#91f030"/></g>"     "     "     <g stroke="#497818"><path d="M611 109h5v7h-5z" fill="#92f030"/><path d="M623 115h5v23h-5zm-388-4h6v17h-6z" fill="#93f030"/></g>"     "     "     <g stroke="#4a7818"><path d="M183 110h5v7h-5z" fill="#94f030"/><path d="M627 59h11v5h-11zm-352 55h6v15h-6z" fill="#95f030"/></g>"     "     "     <g stroke="#4b7818"><path d="M629 115h19v6h-19z" fill="#96f030"/><path d="M629 101h20v5h-20zm0 21h5v15h-5z" fill="#97f030"/></g>"     "     "     <g stroke="#4c7818"><path d="M168 115h5v8h-5z" fill="#98f030"/><path d="M631 65h13v5h-13zm-380 55h16v6h-16z" fill="#99f030"/></g>"     "     "     <g stroke="#4d7818"><path d="M268 120h6v6h-6z" fill="#9af030"/><path d="M633 95h23v5h-23z" fill="#9bf030"/></g>"     "     <path d="M634 71h23v5h-23zm0 18h19v5h-19z" fill="#9cf030" stroke="#4e7818"/>"     "     <path d="M581 115h5v13h-5z" fill="#9df030" stroke="#4e7818"/>"     <path d="M635 108h30v5h-30zm0 14h24v6h-24z" fill="#9ef030" stroke="#4f7818"/>"     "     <path d="M635 129h5v18h-5z" fill="#9ff030" stroke="#4f7818"/>"     <path d="M511 123h6v22h-6zm126-40h30v5h-30z" fill="#a0f030" stroke="#507818"/>"     "     <path d="M189 117h5v14h-5z" fill="#a1f030" stroke="#507818"/>"     <path d="M639 59h27v5h-27zm-28 58h5v15h-5z" fill="#a2f030" stroke="#517818"/>"     "     <path d="M222 118h5v15h-5z" fill="#a3f030" stroke="#517818"/>"     <path d="M183 118h5v15h-5zm68 9h13v6h-13z" fill="#a4f030" stroke="#527818"/>"     "     <path d="M265 127h9v6h-9z" fill="#a5f030" stroke="#527818"/>"     <path d="M641 129h5v30h-5zm0 31h5v23h-5z" fill="#a6f030" stroke="#537818"/>"     "     <path d="M235 129h6v13h-6z" fill="#a7f030" stroke="#537818"/>"     <g stroke="#547818"><path d="M647 129h27v6h-27z" fill="#a8f030"/><path d="M451 130h6v25h-6zm-176 0h6v11h-6z" fill="#a9f030"/></g>"     "     "     <g stroke="#557818"><path d="M645 65h27v5h-27z" fill="#aaf030"/><path d="M251 134h6v30h-6zm7 0h16v30h-16z" fill="#abf030"/></g>"     "     "     <g stroke="#567818"><path d="M605 121h5v19h-5z" fill="#acf030"/><path d="M593 134h6v25h-6zm54 2h5v22h-5z" fill="#adf030"/></g>"     "     "     <g stroke="#577818"><path d="M587 122h5v20h-5z" fill="#aef030"/><path d="M649 115h21v5h-21zm4 21h26v6h-26z" fill="#aff030"/></g>"     "     "     <g stroke="#587818"><path d="M650 101h30v5h-30z" fill="#b0f030"/><path d="M653 143h5v24h-5zm-485-19h5v23h-5z" fill="#b1f030"/></g>"     "     "     <g stroke="#597818"><path d="M275 142h6v20h-6z" fill="#b2f030"/><path d="M235 143h6v16h-6z" fill="#b3f030"/></g>"     "     <path d="M659 143h26v6h-26zm-1-72h18v6h-18z" fill="#b4f030" stroke="#5a7818"/>"     "     <path d="M511 146h6v20h-6z" fill="#b5f030" stroke="#5a7818"/>"     <path d="M659 150h6v8h-6zm1-28h14v6h-14z" fill="#b6f030" stroke="#5b7818"/>"     "     <path d="M666 150h20v6h-20z" fill="#b7f030" stroke="#5b7818"/>"     <path d="M666 108h10v6h-10zm0 49h6v23h-6z" fill="#b8f030" stroke="#5c7818"/>"     "     <path d="M451 156h6v30h-6z" fill="#b9f030" stroke="#5c7818"/>"     <path d="M673 157h11v6h-11zm-2-42h19v6h-19z" fill="#baf030" stroke="#5d7818"/>"     "     <path d="M659 159h6v30h-6z" fill="#bbf030" stroke="#5d7818"/>"     <path d="M593 160h6v16h-6zm-358 0h6v24h-6z" fill="#bcf030" stroke="#5e7818"/>"     "     <path d="M673 164h6v13h-6z" fill="#bdf030" stroke="#5e7818"/>"     <g stroke="#5f7818"><path d="M275 163h6v27h-6z" fill="#bef030"/><path d="M675 122h6v10h-6zm5 42h26v6h-26z" fill="#bff030"/></g>"     "     "     <g stroke="#607818"><path d="M251 165h22v6h-22z" fill="#c0f030"/><path d="M677 71h19v6h-19zm0 37h8v6h-8z" fill="#c1f030"/></g>"     "     "     <g stroke="#617818"><path d="M511 167h6v18h-6z" fill="#c2f030"/><path d="M680 136h7v6h-7zm0 35h6v27h-6z" fill="#c3f030"/></g>"     "     "     <g stroke="#627818"><path d="M681 101h29v6h-29z" fill="#c4f030"/><path d="M682 122h6v7h-6zm5 49h10v6h-10z" fill="#c5f030"/></g>"     "     "     <g stroke="#637818"><path d="M251 172h7v6h-7z" fill="#c6f030"/><path d="M259 172h15v6h-15zm426-15h10v6h-10z" fill="#c7f030"/></g>"     "     "     <g stroke="#647818"><path d="M686 108h14v6h-14z" fill="#c8f030"/><path d="M686 143h20v6h-20z" fill="#c9f030"/></g>"     "     <path d="M687 150h29v6h-29zm0 28h6v14h-6z" fill="#caf030" stroke="#657818"/>"     "     <path d="M688 136h7v6h-7z" fill="#cbf030" stroke="#657818"/>"     <path d="M593 177h6v29h-6zm96-55h23v6h-23z" fill="#ccf030" stroke="#667818"/>"     "     <path d="M673 178h6v24h-6z" fill="#cdf030" stroke="#667818"/>"     <path d="M694 178h25v6h-25zm-3-63h27v6h-27z" fill="#cef030" stroke="#677818"/>"     "     <path d="M251 179h7v26h-7z" fill="#cff030" stroke="#677818"/>"     <path d="M259 179h15v26h-15zm435 6h6v12h-6z" fill="#d0f030" stroke="#687818"/>"     "     <path d="M696 136h21v6h-21z" fill="#d1f030" stroke="#687818"/>"     <path d="M696 157h21v6h-21zm1-86h18v6h-18z" fill="#d2f030" stroke="#697818"/>"     "     <path d="M235 185h7v24h-7z" fill="#d3f030" stroke="#697818"/>"     <path d="M698 171h18v6h-18zm3 14h19v7h-19z" fill="#d4f030" stroke="#6a7818"/>"     "     <path d="M511 186h7v21h-7z" fill="#d5f030" stroke="#6a7818"/>"     <g stroke="#6b7818"><path d="M451 187h7v19h-7z" fill="#d6f030"/><path d="M666 181h6v13h-6zm35-73h22v6h-22z" fill="#d7f030"/></g>"     "     "     <g stroke="#6c7818"><path d="M701 193h7v28h-7z" fill="#d8f030"/><path d="M275 191h7v9h-7zm434 2h12v7h-12z" fill="#d9f030"/></g>"     "     "     <g stroke="#6d7818"><path d="M709 201h7v30h-7z" fill="#daf030"/><path d="M275 201h7v10h-7zm438-79h21v7h-21z" fill="#dbf030"/></g>"     "     "     <g stroke="#6e7818"><path d="M717 201h29v7h-29z" fill="#dcf030"/><path d="M716 71h12v7h-12zm1 138h7v30h-7z" fill="#ddf030"/></g>"     "     "     <g stroke="#6f7818"><path d="M251 206h7v26h-7z" fill="#def030"/><path d="M259 206h15v26h-15zm334 1h7v16h-7z" fill="#dff030"/></g>"     "     "     <g stroke="#707818"><path d="M451 207h7v15h-7z" fill="#e0f030"/><path d="M511 208h7v19h-7z" fill="#e1f030"/></g>"     "     <path d="M721 185h17v7h-17zm4 24h26v7h-26z" fill="#e2f030" stroke="#717818"/>"     "     <path d="M235 210h7v26h-7z" fill="#e3f030" stroke="#717818"/>"     <path d="M722 193h24v7h-24zm-447 19h7v22h-7z" fill="#e4f030" stroke="#727818"/>"     "     <path d="M725 217h7v18h-7z" fill="#e5f030" stroke="#727818"/>"     <path d="M729 71h7v10h-7zm4 146h23v7h-23z" fill="#e6f030" stroke="#737818"/>"     "     <path d="M733 225h7v18h-7z" fill="#e7f030" stroke="#737818"/>"     <path d="M701 222h7v30h-7zm34-100h15v7h-15z" fill="#e8f030" stroke="#747818"/>"     "     <path d="M451 223h7v24h-7z" fill="#e9f030" stroke="#747818"/>"     <path d="M593 224h7v23h-7zM737 71h18v7h-18z" fill="#eaf030" stroke="#757818"/>"     "     <path d="M741 225h27v7h-27z" fill="#ebf030" stroke="#757818"/>"     <g stroke="#767818"><path d="M739 185h26v7h-26z" fill="#ecf030"/><path d="M511 228h7v20h-7zm230 5h7v27h-7z" fill="#edf030"/></g>"     "     "     <g stroke="#777818"><path d="M709 232h7v7h-7z" fill="#eef030"/><path d="M251 233h22v7h-22zm498 0h23v7h-23z" fill="#eff030"/></g>"     "     "     <g stroke="#787818"><path d="M275 235h7v25h-7z" fill="#f0f030"/><path d="M747 193h27v7h-27zm0 8h27v7h-27z" fill="#f0f031"/></g>"     "     "     <g stroke="#787819"><path d="M725 236h7v22h-7z" fill="#f0f032"/><path d="M235 237h8v7h-8zm514 4h7v26h-7z" fill="#f0f033"/></g>"     "     "     <g stroke="#78781a"><path d="M751 122h16v7h-16z" fill="#f0f034"/><path d="M709 240h7v29h-7zm8 0h7v29h-7z" fill="#f0f035"/></g>"     "     "     <g stroke="#78781b"><path d="M752 209h23v7h-23z" fill="#f0f036"/><path d="M251 241h14v7h-14z" fill="#f0f037"/></g>"     "     <path d="M266 241h8v7h-8zm491 0h25v7h-25z" fill="#f0f038" stroke="#78781c"/>"     "     <path d="M756 71h25v7h-25z" fill="#f0f039" stroke="#78781c"/>"     <path d="M733 244h7v20h-7zm24-27h30v7h-30z" fill="#f0f03a" stroke="#78781d"/>"     "     <path d="M235 245h7v28h-7z" fill="#f0f03b" stroke="#78781d"/>"     <path d="M757 249h7v16h-7zm-306-1h7v24h-7z" fill="#f0f03c" stroke="#78781e"/>"     "     <path d="M593 248h7v16h-7z" fill="#f0f03d" stroke="#78781e"/>"     <path d="M511 249h7v28h-7zm-260 0h7v25h-7z" fill="#f0f03e" stroke="#78781f"/>"     "     <path d="M259 249h15v25h-15z" fill="#f0f03f" stroke="#78781f"/>"     <path d="M765 249h25v7h-25zm-64 4h7v12h-7z" fill="#f0f040" stroke="#787820"/>"     "     <path d="M765 257h7v9h-7z" fill="#f0f041" stroke="#787820"/>"     <path d="M766 185h25v7h-25zm2-63h30v7h-30z" fill="#f0f042" stroke="#787821"/>"     "     <path d="M769 225h29v7h-29z" fill="#f0f043" stroke="#787821"/>"     <g stroke="#787822"><path d="M773 257h26v7h-26z" fill="#f0f044"/><path d="M725 259h7v17h-7zm-450 2h7v18h-7z" fill="#f0f045"/></g>"     "     "     <g stroke="#787823"><path d="M741 261h7v25h-7z" fill="#f0f046"/><path d="M773 233h22v7h-22zm0 32h7v21h-7z" fill="#f0f047"/></g>"     "     "     <g stroke="#787824"><path d="M775 193h28v7h-28z" fill="#f0f048"/><path d="M775 201h28v7h-28zm1 8h12v7h-12z" fill="#f0f049"/></g>"     "     "     <g stroke="#787825"><path d="M593 265h7v16h-7z" fill="#f0f04a"/><path d="M733 265h7v8h-7zm48 0h23v8h-23z" fill="#f0f04b"/></g>"     "     "     <g stroke="#787826"><path d="M701 266h7v8h-7z" fill="#f0f04c"/><path d="M781 274h7v11h-7zm1-203h24v7h-24z" fill="#f0f04d"/></g>"     "     "     <g stroke="#787827"><path d="M709 270h11v8h-11z" fill="#f0f04e"/><path d="M783 241h13v7h-13z" fill="#f0f04f"/></g>"     "     <path d="M757 266h7v12h-7zm8 1h7v14h-7z" fill="#f0f050" stroke="#787828"/>"     "     <path d="M749 268h7v14h-7z" fill="#f0f051" stroke="#787828"/>"     <path d="M235 274h8v22h-8zm554 0h8v8h-8z" fill="#f0f052" stroke="#787829"/>"     "     <path d="M788 217h28v7h-28z" fill="#f0f053" stroke="#787829"/>"     <path d="M251 275h11v8h-11zm12 0h11v8h-11z" fill="#f0f054" stroke="#78782a"/>"     "     <path d="M789 209h26v7h-26z" fill="#f0f055" stroke="#78782a"/>"     <path d="M789 283h7v18h-7zm-278-5h8v28h-8z" fill="#f0f056" stroke="#78782b"/>"     "     <path d="M791 249h26v7h-26z" fill="#f0f057" stroke="#78782b"/>"     <path d="M792 185h22v7h-22zm-83 94h8v16h-8z" fill="#f0f058" stroke="#78782c"/>"     "     <path d="M593 282h8v12h-8z" fill="#f0f059" stroke="#78782c"/>"     <g stroke="#78782d"><path d="M796 233h19v7h-19z" fill="#f0f05a"/><path d="M797 283h12v8h-12zm-546 1h8v24h-8z" fill="#f0f05b"/></g>"     "     "     <g stroke="#78782e"><path d="M260 284h14v24h-14z" fill="#f0f05c"/><path d="M797 292h8v28h-8zm1-18h10v8h-10z" fill="#f0f05d"/></g>"     "     "     <g stroke="#78782f"><path d="M799 122h8v12h-8z" fill="#f0f05e"/><path d="M804 193h29v8h-29zm2 99h23v8h-23z" fill="#f0f05f"/></g>"     "     "     <g stroke="#787830"><path d="M805 265h25v8h-25z" fill="#f0f060"/><path d="M806 301h8v25h-8zm1-230h17v8h-17z" fill="#f0f061"/></g>"     "     "     <g stroke="#787831"><path d="M593 295h8v28h-8z" fill="#f0f062"/><path d="M808 122h8v9h-8zm-99 174h8v24h-8z" fill="#f0f063"/></g>"     "     "     <g stroke="#787832"><path d="M809 274h9v8h-9z" fill="#f0f064"/><path d="M235 297h8v27h-8z" fill="#f0f065"/></g>"     "     <path d="M810 283h27v8h-27zm5 18h22v8h-22z" fill="#f0f066" stroke="#787833"/>"     "     <path d="M815 310h8v17h-8z" fill="#f0f067" stroke="#787833"/>"     <path d="M817 122h23v8h-23zm2 152h9v8h-9z" fill="#f0f068" stroke="#787834"/>"     "     <path d="M511 307h8v28h-8z" fill="#f0f069" stroke="#787834"/>"     <path d="M251 309h17v8h-17zm573 1h28v8h-28z" fill="#f0f06a" stroke="#787835"/>"     "     <path d="M824 319h8v23h-8z" fill="#f0f06b" stroke="#787835"/>"     <path d="M825 71h21v8h-21zm4 203h9v8h-9z" fill="#f0f06c" stroke="#787836"/>"     "     <path d="M830 292h24v8h-24z" fill="#f0f06d" stroke="#787836"/>"     <path d="M251 318h8v27h-8zm9 0h14v27h-14z" fill="#f0f06e" stroke="#787837"/>"     "     <path d="M831 265h18v8h-18z" fill="#f0f06f" stroke="#787837"/>"     <path d="M833 319h27v8h-27zm-124 2h8v24h-8z" fill="#f0f070" stroke="#787838"/>"     "     <path d="M797 321h8v16h-8z" fill="#f0f071" stroke="#787838"/>"     <g stroke="#787839"><path d="M833 328h8v21h-8z" fill="#f0f072"/><path d="M834 193h17v8h-17zM593 324h10v8h-10z" fill="#f0f073"/></g>"     "     "     <g stroke="#78783a"><path d="M235 325h8v17h-8z" fill="#f0f074"/><path d="M838 283h18v8h-18zm0 18h17v8h-17z" fill="#f0f075"/></g>"     "     "     <g stroke="#78783b"><path d="M839 274h21v8h-21z" fill="#f0f076"/><path d="M806 327h8v17h-8zm9 1h8v16h-8z" fill="#f0f077"/></g>"     "     "     <g stroke="#78783c"><path d="M842 328h25v8h-25z" fill="#f0f078"/><path d="M841 122h15v8h-15zm1 215h8v12h-8z" fill="#f0f079"/></g>"     "     "     <g stroke="#78783d"><path d="M593 333h8v15h-8z" fill="#f0f07a"/><path d="M847 71h27v8h-27zM511 336h8v29h-8z" fill="#f0f07b"/></g>"     "     "     <g stroke="#78783e"><path d="M851 337h16v8h-16z" fill="#f0f07c"/><path d="M850 265h17v8h-17z" fill="#f0f07d"/></g>"     "     <path d="M797 338h8v24h-8zm54 8h8v26h-8z" fill="#f0f07e" stroke="#78783f"/>"     "     <path d="M852 193h8v8h-8z" fill="#f0f07f" stroke="#78783f"/>"     <path d="M853 310h30v8h-30zm-618 33h8v20h-8z" fill="#f0f080" stroke="#787840"/>"     "     <path d="M855 292h13v8h-13z" fill="#f0f081" stroke="#787840"/>"     <path d="M824 343h8v13h-8zm32-42h26v8h-26z" fill="#f0f082" stroke="#787841"/>"     "     <path d="M857 122h20v8h-20z" fill="#f0f083" stroke="#787841"/>"     <path d="M857 283h19v8h-19zm-51 62h8v23h-8z" fill="#f0f084" stroke="#787842"/>"     "     <path d="M815 345h8v23h-8z" fill="#f0f085" stroke="#787842"/>"     <path d="M709 346h8v16h-8zm-458 0h16v8h-16z" fill="#f0f086" stroke="#787843"/>"     "     <path d="M860 346h14v8h-14z" fill="#f0f087" stroke="#787843"/>"     <g stroke="#787844"><path d="M860 355h8v21h-8z" fill="#f0f088"/><path d="M861 193h20v8h-20zm0 81h21v8h-21z" fill="#f0f089"/></g>"     "     "     <g stroke="#787845"><path d="M861 319h29v8h-29z" fill="#f0f08a"/><path d="M593 349h8v16h-8zm240 1h14v8h-14z" fill="#f0f08b"/></g>"     "     "     <g stroke="#787846"><path d="M251 355h17v8h-17z" fill="#f0f08c"/><path d="M869 355h13v8h-13zm-45 2h8v24h-8z" fill="#f0f08d"/></g>"     "     "     <g stroke="#787847"><path d="M868 328h9v9h-9z" fill="#f0f08e"/><path d="M869 364h9v24h-9zm-36-5h8v29h-8z" fill="#f0f08f"/></g>"     "     "     <g stroke="#787848"><path d="M709 363h8v20h-8z" fill="#f0f090"/><path d="M797 363h8v28h-8zm78-292h14v9h-14z" fill="#f0f091"/></g>"     "     "     <g stroke="#787849"><path d="M235 364h9v16h-9z" fill="#f0f092"/><path d="M251 364h17v9h-17z" fill="#f0f093"/></g>"     "     <path d="M879 364h29v9h-29zm-1-242h27v9h-27z" fill="#f0f094" stroke="#78784a"/>"     "     <path d="M511 366h9v13h-9z" fill="#f0f095" stroke="#78784a"/>"     <path d="M878 328h9v13h-9zm-285 38h10v9h-10z" fill="#f0f096" stroke="#78784b"/>"     "     <path d="M879 374h9v27h-9z" fill="#f0f097" stroke="#78784b"/>"     <path d="M806 369h9v21h-9zm76-176h26v9h-26z" fill="#f0f098" stroke="#78784c"/>"     "     <path d="M251 374h9v24h-9z" fill="#f0f099" stroke="#78784c"/>"     <path d="M261 374h13v24h-13zm628 0h28v9h-28z" fill="#f0f09a" stroke="#78784d"/>"     "     <path d="M888 328h23v9h-23z" fill="#f0f09b" stroke="#78784d"/>"     <path d="M593 376h9v12h-9zm296 8h9v16h-9z" fill="#f0f09c" stroke="#78784e"/>"     "     <path d="M890 71h24v9h-24z" fill="#f0f09d" stroke="#78784e"/>"     <path d="M511 380h9v21h-9zm-276 1h9v20h-9z" fill="#f0f09e" stroke="#78784f"/>"     "     <path d="M709 384h9v16h-9z" fill="#f0f09f" stroke="#78784f"/>"     <g stroke="#787850"><path d="M899 384h25v9h-25z" fill="#f0f0a0"/><path d="M899 394h9v21h-9zm-30-5h9v10h-9z" fill="#f0f0a1"/></g>"     "     "     <g stroke="#787851"><path d="M833 389h9v27h-9z" fill="#f0f0a2"/><path d="M593 389h9v13h-9zm213 2h9v22h-9z" fill="#f0f0a3"/></g>"     "     "     <g stroke="#787852"><path d="M906 122h15v9h-15z" fill="#f0f0a4"/><path d="M909 394h11v9h-11zm0-201h9v15h-9z" fill="#f0f0a5"/></g>"     "     "     <g stroke="#787853"><path d="M909 364h15v9h-15z" fill="#f0f0a6"/><path d="M909 404h9v18h-9zm-658-5h20v9h-20z" fill="#f0f0a7"/></g>"     "     "     <g stroke="#787854"><path d="M912 328h9v15h-9z" fill="#f0f0a8"/><path d="M869 400h9v30h-9zm20 1h9v11h-9z" fill="#f0f0a9"/></g>"     "     "     <g stroke="#787855"><path d="M709 401h10v9h-10z" fill="#f0f0aa"/><path d="M511 402h9v20h-9z" fill="#f0f0ab"/></g>"     "     <path d="M235 402h9v12h-9zm644 0h9v16h-9z" fill="#f0f0ac" stroke="#787856"/>"     "     <path d="M915 71h26v9h-26z" fill="#f0f0ad" stroke="#787856"/>"     <path d="M593 403h11v9h-11zm326 1h12v9h-12z" fill="#f0f0ae" stroke="#787857"/>"     "     <path d="M918 374h26v9h-26z" fill="#f0f0af" stroke="#787857"/>"     <path d="M919 193h9v11h-9zm0 221h9v17h-9z" fill="#f0f0b0" stroke="#787858"/>"     "     <path d="M921 394h20v9h-20z" fill="#f0f0b1" stroke="#787858"/>"     <path d="M251 409h9v26h-9zm10 0h13v26h-13z" fill="#f0f0b2" stroke="#787859"/>"     "     <path d="M922 122h16v9h-16z" fill="#f0f0b3" stroke="#787859"/>"     <path d="M922 328h25v9h-25zm-213 83h13v9h-13z" fill="#f0f0b4" stroke="#78785a"/>"     "     <path d="M925 364h15v9h-15z" fill="#f0f0b5" stroke="#78785a"/>"     <g stroke="#78785b"><path d="M925 384h10v9h-10z" fill="#f0f0b6"/><path d="M593 413h9v20h-9zm213 1h10v10h-10z" fill="#f0f0b7"/></g>"     "     "     <g stroke="#78785c"><path d="M929 414h12v10h-12z" fill="#f0f0b8"/><path d="M235 415h10v24h-10zm694-222h9v13h-9z" fill="#f0f0b9"/></g>"     "     "     <g stroke="#78785d"><path d="M889 413h9v13h-9z" fill="#f0f0ba"/><path d="M929 425h9v26h-9zm-96-8h14v10h-14z" fill="#f0f0bb"/></g>"     "     "     <g stroke="#78785e"><path d="M932 404h20v9h-20z" fill="#f0f0bc"/><path d="M709 421h13v10h-13zm227-37h17v9h-17z" fill="#f0f0bd"/></g>"     "     "     <g stroke="#78785f"><path d="M899 416h9v17h-9z" fill="#f0f0be"/><path d="M806 425h10v25h-10zm133 0h23v10h-23z" fill="#f0f0bf"/></g>"     "     "     <g stroke="#787860"><path d="M939 122h20v9h-20z" fill="#f0f0c0"/><path d="M939 193h23v9h-23z" fill="#f0f0c1"/></g>"     "     <path d="M939 436h9v24h-9zm-106-8h13v10h-13z" fill="#f0f0c2" stroke="#787861"/>"     "     <path d="M942 71h19v10h-19z" fill="#f0f0c3" stroke="#787861"/>"     <path d="M942 414h28v10h-28zm-233 18h10v21h-10z" fill="#f0f0c4" stroke="#787862"/>"     "     <path d="M593 434h10v15h-10z" fill="#f0f0c5" stroke="#787862"/>"     <path d="M948 328h23v10h-23zM251 436h10v28h-10z" fill="#f0f0c6" stroke="#787863"/>"     "     <path d="M262 436h12v28h-12z" fill="#f0f0c7" stroke="#787863"/>"     <path d="M949 436h17v10h-17zm0 11h10v12h-10z" fill="#f0f0c8" stroke="#787864"/>"     "     <path d="M833 439h10v24h-10z" fill="#f0f0c9" stroke="#787864"/>"     <path d="M235 440h10v26h-10zm725 7h30v10h-30z" fill="#f0f0ca" stroke="#787865"/>"     "     <path d="M960 122h16v10h-16z" fill="#f0f0cb" stroke="#787865"/>"     <path d="M960 458h10v26h-10zm0 27h10v27h-10z" fill="#f0f0cc" stroke="#787866"/>"     "     <path d="M962 71h15v10h-15z" fill="#f0f0cd" stroke="#787866"/>"     <g stroke="#787867"><path d="M593 450h10v14h-10z" fill="#f0f0ce"/><path d="M963 193h10v15h-10zM806 451h10v22h-10z" fill="#f0f0cf"/></g>"     "     "     <g stroke="#787868"><path d="M963 425h28v10h-28z" fill="#f0f0d0"/><path d="M709 454h10v27h-10zm0 28h15v30h-15z" fill="#f0f0d1"/></g>"     "     "     <g stroke="#787869"><path d="M967 436h24v10h-24z" fill="#f0f0d2"/><path d="M971 458h19v10h-19zm0-44h21v10h-21z" fill="#f0f0d3"/></g>"     "     "     <g stroke="#78786a"><path d="M971 469h10v12h-10z" fill="#f0f0d4"/><path d="M971 482h10v30h-10zm1-154h18v10h-18z" fill="#f0f0d5"/></g>"     "     "     <g stroke="#78786b"><path d="M949 460h10v25h-10z" fill="#f0f0d6"/><path d="M949 486h10v26h-10zm25-293h10v11h-10z" fill="#f0f0d7"/></g>"     "     "     <g stroke="#78786c"><path d="M833 464h10v29h-10z" fill="#f0f0d8"/><path d="M833 494h17v18h-17z" fill="#f0f0d9"/></g>"     "     <path d="M977 122h28v10h-28zm29 0h18v13h-18z" fill="#f0f0da" stroke="#78786d"/>"     "     <path d="M251 465h16v10h-16z" fill="#f0f0db" stroke="#78786d"/>"     <path d="M593 465h10v10h-10zM978 71h10v11h-10z" fill="#f0f0dc" stroke="#78786e"/>"     "     <path d="M235 467h10v24h-10z" fill="#f0f0dd" stroke="#78786e"/>"     <path d="M235 492h11v20h-11zm747-23h24v10h-24z" fill="#f0f0de" stroke="#78786f"/>"     "     <path d="M982 480h10v29h-10z" fill="#f0f0df" stroke="#78786f"/>"     <path d="M985 193h28v10h-28zm29 0h10v15h-10z" fill="#f0f0e0" stroke="#787870"/>"     "     <path d="M806 474h10v19h-10z" fill="#f0f0e1" stroke="#787870"/>"     <path d="M806 494h17v18h-17zm-555-18h15v10h-15z" fill="#f0f0e2" stroke="#787871"/>"     "     <path d="M593 476h10v24h-10z" fill="#f0f0e3" stroke="#787871"/>"     <g stroke="#787872"><path d="M593 501h11v11h-11z" fill="#f0f0e4"/><path d="M989 71h14v10h-14zm15 0h20v11h-20z" fill="#f0f0e5"/></g>"     "     "     <g stroke="#787873"><path d="M991 328h28v10h-28z" fill="#f0f0e6"/><path d="M991 447h24v10h-24zm0 11h24v10h-24z" fill="#f0f0e7"/></g>"     "     "     <g stroke="#787874"><path d="M992 425h10v18h-10z" fill="#f0f0e8"/><path d="M1003 425h21v21h-21zm-10 55h14v10h-14z" fill="#f0f0e9"/></g>"     "     "     <g stroke="#787875"><path d="M1008 480h16v10h-16z" fill="#f0f0ea"/><path d="M993 414h11v10h-11zm0 77h22v10h-22z" fill="#f0f0eb"/></g>"     "     "     <g stroke="#787876"><path d="M251 487h16v10h-16z" fill="#f0f0ec"/><path d="M251 498h23v14h-23zm742 4h20v10h-20z" fill="#f0f0ed"/></g>"     "     "     <g stroke="#787877"><path d="M1005 414h14v10h-14z" fill="#f0f0ee"/><path d="M1007 469h16v10h-16z" fill="#f0f0ef"/></g>"     "     <text y="526" font-size="12" fill="#000" x="0"> MaxRectsBin(size: 1024x512, choice: WorstLongSideFit, method: ShorterAxis): inserted 839 of 1536 rectangles with w/h lengths between [2, 31], occupancy: 20.40% </text></svg>