<svg xmlns="http://www.w3.org/2000/svg" viewBox="0 0 1024 536" xmlns:v="https://vecta.io/nano"><path d="M0 0h1024v512H0z" fill="#fff" stroke="#000"/>"     <path d="M1 1h30v19H1zm0 20h7v30H1zm8 0h22v30H9z" fill="#303030" stroke="#181818"/>"     "     "     <path d="M1 52h18v30H1zm19 0h11v30H20zM1 83h7v30H1z" stroke="#181818" fill="#303130"/>"     "     "     <path d="M9 83h22v30H9zm-8 31h16v30H1z" fill="#303230" stroke="#181918"/>"     "     <path d="M18 114h13v30H18zM1 145h20v30H1zm21 0h9v30h-9z" stroke="#181918" fill="#303330"/>"     "     "     <path d="M1 176h15v30H1zm16 0h14v30H17zM1 207h15v30H1z" fill="#303430" stroke="#181a18"/>"     "     "     <path d="M17 207h14v30H17zM1 238h3v30H1z" stroke="#181a18" fill="#303530"/>"     "     <path d="M5 238h26v30H5zm-4 31h17v30H1zm18 0h12v30H19z" fill="#303630" stroke="#181b18"/>"     "     "     <path d="M1 300h21v30H1zm22 0h8v30h-8zM1 331h29v30H1z" stroke="#181b18" fill="#303730"/>"     "     "     <path d="M1 362h13v30H1zm14 0h15v29H15z" fill="#303830" stroke="#181c18"/>"     "     <path d="M1 393h7v30H1zm8 0h22v30H9zm-8 31h1v30H1z" stroke="#181c18" fill="#303930"/>"     "     "     <path d="M3 424h28v30H3zm-2 31h29v30H1zm0 31h30v26H1z" fill="#303a30" stroke="#181d18"/>"     "     "     <path d="M32 1h30v17H32zm0 18h5v30h-5z" stroke="#181d18" fill="#303b30"/>"     "     <path d="M38 19h24v30H38zm-6 31h28v30H32zm29 0h1v30h-1z" fill="#303c30" stroke="#181e18"/>"     "     "     <path d="M32 81h21v30H32zm22 0h7v29h-7zm-22 31h15v30H32z" stroke="#181e18" fill="#303d30"/>"     "     "     <path d="M48 112h14v30H48zm-16 31h28v30H32z" fill="#303e30" stroke="#181f18"/>"     "     <path d="M61 143h1v27h-1zm0 28h1v2h-1zm-29 3h20v30H32z" stroke="#181f18" fill="#303f30"/>"     "     "     <path d="M53 174h8v29h-8zm-21 31h20v30H32zm21-1h7v29h-7z" fill="#304030" stroke="#182018"/>"     "     "     <path d="M53 234h7v1h-7zm8-30h1v26h-1z" stroke="#182018" fill="#304130"/>"     "     <path d="M61 231h1v4h-1zm-29 5h23v30H32zm24 0h6v30h-6z" fill="#304230" stroke="#182118"/>"     "     "     <path d="M32 267h28v30H32zm29 0h1v26h-1zm0 27h1v3h-1z" stroke="#182118" fill="#304330"/>"     "     "     <path d="M32 298h3v30h-3zm4 0h26v29H36z" fill="#304430" stroke="#182218"/>"     "     <path d="M32 329h27v30H32zm28 0h2v30h-2zm-28 31h5v30h-5z" stroke="#182218" fill="#304530"/>"     "     "     <path d="M38 360h24v29H38zm-6 31h5v30h-5zm6-1h23v30H38z" fill="#304630" stroke="#182318"/>"     "     "     <path d="M32 422h23v30H32zm24 0h6v30h-6z" stroke="#182318" fill="#304730"/>"     "     <path d="M32 453h17v30H32zm18 0h12v30H50zm-18 31h29v27H32z" fill="#304830" stroke="#182418"/>"     "     "     <path d="M63 1h30v27H63zm0 28h7v30h-7zm8 0h22v30H71z" stroke="#182418" fill="#304930"/>"     "     "     <path d="M63 60h10v30H63zm11 0h19v30H74z" fill="#304a30" stroke="#182518"/>"     "     <path d="M63 91h10v30H63zm11 0h19v30H74zm-11 31h21v30H63z" stroke="#182518" fill="#304b30"/>"     "     "     <path d="M85 122h8v29h-8zm-22 31h5v30h-5zm6 0h23v28H69z" fill="#304c30" stroke="#182618"/>"     "     "     <path d="M69 182h24v1H69zm-6 2h3v30h-3z" stroke="#182618" fill="#304d30"/>"     "     <path d="M67 184h26v29H67zm-4 31h2v30h-2zm3 0h27v30H66z" fill="#304e30" stroke="#182718"/>"     "     "     <path d="M63 246h27v30H63zm28 0h2v30h-2zm-28 31h12v30H63z" stroke="#182718" fill="#304f30"/>"     "     "     <path d="M76 277h17v30H76zm-13 31h17v30H63z" fill="#305030" stroke="#182818"/>"     "     <path d="M81 308h11v29H81zm-18 31h18v30H63zm19 0h11v30H82z" stroke="#182818" fill="#305130"/>"     "     "     <path d="M63 370h4v30h-4zm5 0h25v30H68zm-5 31h19v29H63z" fill="#305230" stroke="#182918"/>"     "     "     <path d="M83 401h10v29H83zm-20 30h17v29H63z" stroke="#182918" fill="#305330"/>"     "     <path d="M81 431h12v29H81zm-18 30h27v29H63zm28 0h2v29h-2z" fill="#305430" stroke="#182a18"/>"     "     "     <path d="M63 491h30v21H63zM94 1h30v4H94zm0 5h29v29H94z" stroke="#182a18" fill="#305530"/>"     "     "     <path d="M94 36h19v29H94zm20 0h10v29h-10z" fill="#305630" stroke="#182b18"/>"     "     <path d="M94 66h29v29H94zm0 30h20v29H94zm21 0h9v29h-9z" stroke="#182b18" fill="#305730"/>"     "     "     <path d="M94 126h11v29H94zm12 0h18v29h-18zm-12 30h6v29h-6z" fill="#305830" stroke="#182c18"/>"     "     "     <path d="M101 156h23v29h-23zm-7 30h29v29H94z" stroke="#182c18" fill="#305930"/>"     "     <path d="M94 216h6v29h-6zm7 0h23v29h-23zm-7 30h4v29h-4z" fill="#305a30" stroke="#182d18"/>"     "     "     <path d="M99 246h25v29H99zm-5 30h22v29H94zm23 0h7v29h-7z" stroke="#182d18" fill="#305b30"/>"     "     "     <path d="M94 306h30v29H94zm0 30h20v29H94z" fill="#305c30" stroke="#182e18"/>"     "     <path d="M115 336h8v28h-8zm-21 30h29v29H94zm0 30h17v29H94z" stroke="#182e18" fill="#305d30"/>"     "     "     <path d="M112 396h12v29h-12zm-18 30h10v29H94zm11 0h19v29h-19z" fill="#305e30" stroke="#182f18"/>"     "     "     <path d="M94 456h17v29H94zm18 0h12v28h-12z" stroke="#182f18" fill="#305f30"/>"     "     <path d="M94 486h29v25H94zM125 1h30v18h-30zm0 19h28v29h-28z" fill="#306030" stroke="#183018"/>"     "     "     <path d="M154 20h1v26h-1zm0 27h1v2h-1zm-29 3h20v29h-20z" stroke="#183018" fill="#306130"/>"     "     "     <path d="M146 50h7v28h-7zm8 0h1v28h-1z" fill="#306230" stroke="#183118"/>"     "     <path d="M125 80h20v29h-20zm21-1h7v28h-7zm8 0h1v28h-1z" stroke="#183118" fill="#306330"/>"     "     "     <path d="M146 108h6v1h-6zm7 0h2v1h-2zm-28 2h21v29h-21z" fill="#306430" stroke="#183218"/>"     "     "     <path d="M147 110h8v29h-8zm-22 30h3v29h-3z" stroke="#183218" fill="#306530"/>"     "     <path d="M129 140h26v28h-26zm-4 30h22v29h-22zm23 0h7v29h-7z" fill="#306630" stroke="#183318"/>"     "     "     <path d="M125 200h11v29h-11zm12 0h18v29h-18zm-12 30h13v29h-13z" stroke="#183318" fill="#306730"/>"     "     "     <path d="M139 230h16v29h-16zm-14 30h13v29h-13z" fill="#306830" stroke="#183418"/>"     "     <path d="M139 260h16v29h-16zm-14 30h11v29h-11zm12 0h18v29h-18z" stroke="#183418" fill="#306930"/>"     "     "     <path d="M125 320h17v29h-17zm18 0h12v28h-12zm-18 30h5v29h-5z" fill="#306a30" stroke="#183518"/>"     "     "     <path d="M131 350h24v29h-24zm-6 30h7v29h-7z" stroke="#183518" fill="#306b30"/>"     "     <path d="M133 380h22v29h-22zm-8 30h3v29h-3zm4 0h26v28h-26z" fill="#306c30" stroke="#183618"/>"     "     "     <path d="M125 440h19v29h-19zm20 0h10v29h-10zm-20 30h19v28h-19z" stroke="#183618" fill="#306d30"/>"     "     "     <path d="M145 470h10v28h-10zm-20 29h30v13h-30z" fill="#306e30" stroke="#183718"/>"     "     <path d="M156 1h30v3h-30zm0 4h2v28h-2zm3 0h27v28h-27z" stroke="#183718" fill="#306f30"/>"     "     "     <path d="M156 34h2v28h-2zm3 0h27v28h-27zm-3 29h16v28h-16z" fill="#307030" stroke="#183818"/>"     "     "     <path d="M173 63h13v28h-13zm-17 29h3v28h-3z" stroke="#183818" fill="#307130"/>"     "     <path d="M160 92h26v28h-26zm-4 29h14v28h-14zm15 0h15v27h-15z" fill="#307230" stroke="#183918"/>"     "     "     <path d="M156 150h10v28h-10zm11 0h19v28h-19zm-11 29h5v28h-5z" stroke="#183918" fill="#307330"/>"     "     "     <path d="M162 179h24v27h-24zm-6 29h3v28h-3z" fill="#307430" stroke="#183a18"/>"     "     <path d="M160 208h26v28h-26zm-4 29h10v28h-10zm11 0h19v27h-19z" stroke="#183a18" fill="#307530"/>"     "     "     <path d="M156 266h4v28h-4zm5 0h25v28h-25zm-5 29h21v28h-21z" fill="#307630" stroke="#183b18"/>"     "     "     <path d="M178 295h8v28h-8zm-22 29h10v28h-10z" stroke="#183b18" fill="#307730"/>"     "     <path d="M167 324h18v28h-18zm-11 29h16v28h-16zm17 0h13v28h-13z" fill="#307830" stroke="#183c18"/>"     "     "     <path d="M156 382h7v28h-7zm8 0h22v28h-22zm-8 29h18v28h-18z" stroke="#183c18" fill="#307930"/>"     "     "     <path d="M175 411h11v28h-11zm-19 29h4v28h-4z" fill="#307a30" stroke="#183d18"/>"     "     <path d="M161 440h25v28h-25zm-5 29h28v28h-28zm0 29h29v14h-29z" stroke="#183d18" fill="#307b30"/>"     "     "     <path d="M185 469h1v23h-1zm0 24h1v4h-1zm2-492h30v2h-30z" fill="#307c30" stroke="#183e18"/>"     "     "     <path d="M187 4h18v28h-18zm19 0h11v28h-11z" stroke="#183e18" fill="#307d30"/>"     "     <path d="M187 33h3v28h-3zm4 0h26v27h-26zm-4 29h16v28h-16z" fill="#307e30" stroke="#183f18"/>"     "     "     <path d="M204 62h13v28h-13zm-17 29h28v28h-28zm29 0h1v23h-1z" stroke="#183f18" fill="#307f30"/>"     "     "     <path d="M216 115h1v4h-1zm-29 5h7v28h-7z" fill="#308030" stroke="#184018"/>"     "     <path d="M195 120h22v28h-22zm-8 29h21v28h-21zm22 0h8v28h-8z" stroke="#184018" fill="#308130"/>"     "     "     <path d="M187 178h10v28h-10zm11 0h19v27h-19zm-11 29h10v28h-10z" fill="#308230" stroke="#184118"/>"     "     "     <path d="M198 206h19v29h-19zm-11 30h10v28h-10z" stroke="#184118" fill="#308330"/>"     "     <path d="M198 236h19v27h-19zm-11 29h13v28h-13zm14 0h16v28h-16z" fill="#308430" stroke="#184218"/>"     "     "     <path d="M187 294h23v28h-23zm24 0h5v27h-5zm-24 29h16v28h-16z" stroke="#184218" fill="#308530"/>"     "     "     <path d="M204 323h13v27h-13zm-17 29h16v28h-16z" fill="#308630" stroke="#184318"/>"     "     <path d="M204 351h13v29h-13zm-17 30h28v28h-28zm29 0h1v23h-1z" stroke="#184318" fill="#308730"/>"     "     "     <path d="M216 405h1v4h-1zm-29 5h9v27h-9zm10 0h20v27h-20z" fill="#308830" stroke="#184418"/>"     "     "     <path d="M187 438h17v27h-17zm18 0h12v27h-12z" stroke="#184418" fill="#308930"/>"     "     <path d="M187 466h22v27h-22zm23 0h7v27h-7zm-23 28h30v18h-30z" fill="#308a30" stroke="#184518"/>"     "     "     <path d="M218 1h30v13h-30zm0 14h14v27h-14zm15 0h15v27h-15z" stroke="#184518" fill="#308b30"/>"     "     "     <path d="M218 43h8v27h-8zm9 0h21v27h-21z" fill="#308c30" stroke="#184618"/>"     "     <path d="M218 71h25v27h-25zm26 0h4v27h-4zm-26 28h3v27h-3z" stroke="#184618" fill="#308d30"/>"     "     "     <path d="M222 99h26v27h-26zm-4 28h7v27h-7zm8 0h22v27h-22z" fill="#308e30" stroke="#184718"/>"     "     "     <path d="M218 155h20v27h-20zm21 0h9v27h-9z" stroke="#184718" fill="#308f30"/>"     "     <path d="M218 183h20v27h-20zm21 0h9v27h-9zm-21 28h6v27h-6z" fill="#309030" stroke="#184818"/>"     "     "     <path d="M225 211h23v27h-23zm-7 28h21v27h-21zm22 0h8v27h-8z" stroke="#184818" fill="#309130"/>"     "     "     <path d="M218 267h3v27h-3zm4 0h26v27h-26z" fill="#309230" stroke="#184918"/>"     "     <path d="M218 295h27v27h-27zm28 0h2v27h-2zm-28 28h14v27h-14z" stroke="#184918" fill="#309330"/>"     "     "     <path d="M233 323h15v27h-15zm-15 28h17v27h-17zm18 0h12v27h-12z" fill="#309430" stroke="#184a18"/>"     "     "     <path d="M218 379h27v27h-27zm28 0h2v27h-2z" stroke="#184a18" fill="#309530"/>"     "     <path d="M218 407h25v27h-25zm26 0h4v26h-4zm-26 28h30v27h-30z" fill="#309630" stroke="#184b18"/>"     "     "     <path d="M218 463h15v27h-15zm16 0h14v27h-14zm-16 28h29v20h-29z" stroke="#184b18" fill="#309730"/>"     "     "     <path d="M249 1h30v4h-30zm0 5h3v27h-3z" fill="#309830" stroke="#184c18"/>"     "     <path d="M253 6h25v26h-25zm-4 28h6v27h-6zm7 0h23v27h-23z" stroke="#184c18" fill="#309930"/>"     "     "     <path d="M249 62h25v27h-25zm26 0h3v26h-3zm-26 28h15v27h-15z" fill="#309a30" stroke="#184d18"/>"     "     "     <path d="M265 90h14v27h-14zm-16 28h5v27h-5z" stroke="#184d18" fill="#309b30"/>"     "     <path d="M255 118h24v27h-24zm-6 28h18v27h-18zm19 0h11v27h-11z" fill="#309c30" stroke="#184e18"/>"     "     "     <path d="M249 174h19v27h-19zm20 0h10v27h-10zm-20 28h29v27h-29z" stroke="#184e18" fill="#309d30"/>"     "     "     <path d="M249 230h5v27h-5zm6 0h24v27h-24z" fill="#309e30" stroke="#184f18"/>"     "     <path d="M249 258h19v27h-19zm20 0h10v27h-10zm-20 28h8v27h-8z" stroke="#184f18" fill="#309f30"/>"     "     "     <path d="M258 286h21v27h-21zm-9 28h3v27h-3zm4 0h26v26h-26z" fill="#30a030" stroke="#185018"/>"     "     "     <path d="M249 342h7v27h-7zm8 0h22v27h-22z" stroke="#185018" fill="#30a130"/>"     "     <path d="M249 370h19v27h-19zm20 0h10v26h-10zm-20 28h18v27h-18z" fill="#30a230" stroke="#185118"/>"     "     "     <path d="M268 398h11v27h-11zm-19 28h30v27h-30zm0 28h27v27h-27z" stroke="#185118" fill="#30a330"/>"     "     "     <path d="M277 454h2v25h-2zm0 26h2v1h-2z" fill="#30a430" stroke="#185218"/>"     "     <path d="M249 482h26v26h-26zm27 0h3v26h-3zm-27 27h30v3h-30z" stroke="#185218" fill="#30a530"/>"     "     "     <path d="M280 1h30v15h-30zm0 16h17v27h-17zm18 0h12v26h-12z" fill="#30a630" stroke="#185318"/>"     "     "     <path d="M280 45h19v26h-19zm20 0h10v26h-10z" stroke="#185318" fill="#30a730"/>"     "     <path d="M280 72h14v26h-14zm15 0h15v26h-15zm-15 27h18v26h-18z" fill="#30a830" stroke="#185418"/>"     "     "     <path d="M299 99h11v26h-11zm-19 27h17v26h-17zm18 0h12v26h-12z" stroke="#185418" fill="#30a930"/>"     "     "     <path d="M280 153h24v26h-24zm25 0h5v26h-5z" fill="#30aa30" stroke="#185518"/>"     "     <path d="M280 180h18v26h-18zm19 0h11v26h-11zm-19 27h24v26h-24z" stroke="#185518" fill="#30ab30"/>"     "     "     <path d="M305 207h4v25h-4zm-25 27h19v26h-19zm20 0h10v26h-10z" fill="#30ac30" stroke="#185618"/>"     "     "     <path d="M280 261h6v26h-6zm7 0h23v26h-23z" stroke="#185618" fill="#30ad30"/>"     "     <path d="M280 288h14v26h-14zm15 0h15v26h-15zm-15 27h22v26h-22z" fill="#30ae30" stroke="#185718"/>"     "     "     <path d="M303 315h7v26h-7zm-23 27h18v26h-18zm19 0h11v25h-11z" stroke="#185718" fill="#30af30"/>"     "     "     <path d="M280 369h19v26h-19zm20 0h9v26h-9z" fill="#30b030" stroke="#185818"/>"     "     <path d="M280 396h21v26h-21zm22 0h8v26h-8zm-22 27h4v26h-4z" stroke="#185818" fill="#30b130"/>"     "     "     <path d="M285 423h25v26h-25zm-5 27h15v26h-15zm16 0h14v26h-14z" fill="#30b230" stroke="#185918"/>"     "     "     <path d="M280 477h25v26h-25zm26 0h4v26h-4z" stroke="#185918" fill="#30b330"/>"     "     <path d="M280 504h29v8h-29zM311 1h30v6h-30zm0 7h13v26h-13z" fill="#30b430" stroke="#185a18"/>"     "     "     <path d="M325 8h16v26h-16zm-14 27h16v26h-16zm17 0h13v26h-13z" stroke="#185a18" fill="#30b530"/>"     "     "     <path d="M311 62h16v26h-16zm17 0h13v26h-13z" fill="#30b630" stroke="#185b18"/>"     "     <path d="M311 89h7v26h-7zm8 0h22v26h-22zm-8 27h3v26h-3z" stroke="#185b18" fill="#30b730"/>"     "     "     <path d="M315 116h26v25h-26zm-4 27h7v26h-7zm8 0h22v26h-22z" fill="#30b830" stroke="#185c18"/>"     "     "     <path d="M311 170h8v26h-8zm9 0h21v26h-21z" stroke="#185c18" fill="#30b930"/>"     "     <path d="M311 197h7v26h-7zm8 0h22v26h-22zm-8 27h9v26h-9z" fill="#30ba30" stroke="#185d18"/>"     "     "     <path d="M321 224h19v25h-19zm-10 27h3v26h-3zm4 0h25v25h-25z" stroke="#185d18" fill="#30bb30"/>"     "     "     <path d="M311 278h25v26h-25zm26 0h4v26h-4z" fill="#30bc30" stroke="#185e18"/>"     "     <path d="M311 305h9v26h-9zm10 0h20v25h-20zm-10 27h13v26h-13z" stroke="#185e18" fill="#30bd30"/>"     "     "     <path d="M325 332h16v26h-16zm-14 27h3v26h-3zm4 0h25v25h-25z" fill="#30be30" stroke="#185f18"/>"     "     "     <path d="M311 386h7v26h-7zm8 0h22v26h-22z" stroke="#185f18" fill="#30bf30"/>"     "     <path d="M311 413h9v26h-9zm10 0h20v25h-20zm-10 27h19v26h-19z" fill="#30c030" stroke="#186018"/>"     "     "     <path d="M331 440h9v25h-9zm-20 27h24v25h-24zm25 0h5v25h-5z" stroke="#186018" fill="#30c130"/>"     "     "     <path d="M311 493h30v19h-30zM342 1h30v18h-30z" fill="#30c230" stroke="#186118"/>"     "     <path d="M342 20h15v25h-15zm16 0h14v25h-14zm-16 26h14v25h-14z" stroke="#186118" fill="#30c330"/>"     "     "     <path d="M357 46h15v25h-15zm-15 26h21v25h-21zm22 0h8v25h-8z" fill="#30c430" stroke="#186218"/>"     "     "     <path d="M342 98h21v25h-21zm22 0h8v25h-8z" stroke="#186218" fill="#30c530"/>"     "     <path d="M342 124h29v25h-29zm0 26h24v25h-24zm25 0h5v25h-5z" fill="#30c630" stroke="#186318"/>"     "     "     <path d="M342 176h12v25h-12zm13 0h17v25h-17zm-13 26h15v25h-15z" stroke="#186318" fill="#30c730"/>"     "     "     <path d="M358 202h14v25h-14zm-16 26h3v25h-3z" fill="#30c830" stroke="#186418"/>"     "     <path d="M346 228h25v24h-25zm-4 26h18v25h-18zm19 0h11v24h-11z" stroke="#186418" fill="#30c930"/>"     "     "     <path d="M342 280h12v25h-12zm13 0h17v25h-17zm-13 26h3v25h-3z" fill="#30ca30" stroke="#186518"/>"     "     "     <path d="M346 306h25v24h-25zm-4 26h27v25h-27z" stroke="#186518" fill="#30cb30"/>"     "     <path d="M370 332h2v25h-2zm-28 26h13v25h-13zm14 0h16v25h-16z" fill="#30cc30" stroke="#186618"/>"     "     "     <path d="M342 384h22v25h-22zm23 0h7v25h-7zm-23 26h7v25h-7z" stroke="#186618" fill="#30cd30"/>"     "     "     <path d="M350 410h22v25h-22zm-8 26h12v25h-12z" fill="#30ce30" stroke="#186718"/>"     "     <path d="M355 436h17v25h-17zm-13 26h14v25h-14zm15 0h15v25h-15z" stroke="#186718" fill="#30cf30"/>"     "     "     <path d="M342 488h29v24h-29zM373 1h30v20h-30zm0 21h13v25h-13z" fill="#30d030" stroke="#186818"/>"     "     "     <path d="M387 22h15v24h-15zm-14 26h13v25h-13z" stroke="#186818" fill="#30d130"/>"     "     <path d="M387 47h15v24h-15zm0 25h16v1h-16zm-14 2h21v25h-21z" fill="#30d230" stroke="#186918"/>"     "     "     <path d="M395 74h8v25h-8zm-22 26h13v25h-13zm14 0h15v24h-15z" stroke="#186918" fill="#30d330"/>"     "     "     <path d="M373 126h18v25h-18zm19 0h10v24h-10z" fill="#30d430" stroke="#186a18"/>"     "     <path d="M373 152h21v25h-21zm22 0h7v24h-7zm-22 26h20v25h-20z" stroke="#186a18" fill="#30d530"/>"     "     "     <path d="M394 178h9v25h-9zm-21 26h30v25h-30zm0 26h4v25h-4z" fill="#30d630" stroke="#186b18"/>"     "     "     <path d="M378 230h24v24h-24zm-5 26h7v25h-7z" stroke="#186b18" fill="#30d730"/>"     "     <path d="M381 256h22v25h-22zm-8 26h9v24h-9zm10 0h20v24h-20z" fill="#30d830" stroke="#186c18"/>"     "     "     <path d="M373 307h2v24h-2zm3 0h26v23h-26zm-3 25h12v24h-12z" stroke="#186c18" fill="#30d930"/>"     "     "     <path d="M386 332h17v24h-17zm-13 25h9v24h-9z" fill="#30da30" stroke="#186d18"/>"     "     <path d="M383 357h20v24h-20zm-10 25h22v24h-22zm23 0h7v24h-7z" stroke="#186d18" fill="#30db30"/>"     "     "     <path d="M373 407h13v24h-13zm14 0h15v23h-15zm-14 25h2v24h-2z" fill="#30dc30" stroke="#186e18"/>"     "     "     <path d="M376 432h25v22h-25zm26 0h1v22h-1z" stroke="#186e18" fill="#30dd30"/>"     "     <path d="M376 455h27v1h-27zm-3 2h5v24h-5zm6 0h24v24h-24z" fill="#30de30" stroke="#186f18"/>"     "     "     <path d="M373 482h24v24h-24zm25 0h5v24h-5zm-25 25h30v5h-30z" stroke="#186f18" fill="#30df30"/>"     "     "     <path d="M404 1h30v13h-30zm0 14h22v24h-22z" fill="#30e030" stroke="#187018"/>"     "     <path d="M427 15h7v24h-7zm-23 25h9v24h-9zm10 0h20v24h-20z" stroke="#187018" fill="#30e130"/>"     "     "     <path d="M404 65h3v24h-3zm4 0h24v23h-24zm25 0h1v22h-1z" fill="#30e230" stroke="#187118"/>"     "     "     <path d="M433 88h1v1h-1zm-29 2h13v24h-13z" stroke="#187118" fill="#30e330"/>"     "     <path d="M418 90h16v23h-16zm-14 25h13v24h-13zm14-1h15v24h-15z" fill="#30e430" stroke="#187218"/>"     "     "     <path d="M404 140h8v24h-8zm9 0h21v23h-21zm-9 25h10v24h-10z" stroke="#187218" fill="#30e530"/>"     "     "     <path d="M415 165h19v24h-19zm-11 25h2v24h-2z" fill="#30e630" stroke="#187318"/>"     "     <path d="M407 190h25v21h-25zm0 22h24v2h-24zm26-22h1v21h-1z" stroke="#187318" fill="#30e730"/>"     "     "     <path d="M432 212h2v2h-2zm-28 3h14v24h-14zm15 0h15v24h-15z" fill="#30e830" stroke="#187418"/>"     "     "     <path d="M404 240h3v24h-3zm4 0h24v22h-24z" stroke="#187418" fill="#30e930"/>"     "     <path d="M408 263h23v1h-23zm25-23h1v21h-1zm-29 25h7v24h-7z" fill="#30ea30" stroke="#187518"/>"     "     "     <path d="M412 265h22v23h-22zm-8 25h19v24h-19zm20 0h10v24h-10z" stroke="#187518" fill="#30eb30"/>"     "     "     <path d="M404 315h4v24h-4zm5 0h24v23h-24z" fill="#30ec30" stroke="#187618"/>"     "     <path d="M404 340h5v24h-5zm6 0h22v22h-22zm23 0h1v22h-1z" stroke="#187618" fill="#30ed30"/>"     "     "     <path d="M410 363h23v1h-23zm-6 2h10v24h-10zm11 0h19v24h-19z" fill="#30ee30" stroke="#187718"/>"     "     "     <path d="M404 390h11v24h-11zm12 0h18v24h-18z" stroke="#187718" fill="#30ef30"/>"     "     <path d="M404 415h12v24h-12zm13 0h17v24h-17zm-13 25h29v24h-29z" fill="#30f030" stroke="#187818"/>"     "     "     <path d="M404 465h13v24h-13zm14 0h16v23h-16zm-14 25h29v22h-29z" stroke="#187818" fill="#31f030"/>"     "     "     <path d="M435 1h30v3h-30zm0 4h18v24h-18z" fill="#32f030" stroke="#197818"/>"     "     <path d="M454 5h10v23h-10zm-19 25h19v24h-19zm20 0h10v24h-10z" stroke="#197818" fill="#33f030"/>"     "     "     <path d="M435 55h20v24h-20zm21 0h9v24h-9zm-21 25h12v24h-12z" fill="#34f030" stroke="#1a7818"/>"     "     "     <path d="M448 80h16v23h-16zm-13 25h2v23h-2z" stroke="#1a7818" fill="#35f030"/>"     "     <path d="M438 105h25v21h-25zm26 0h1v23h-1zm-26 22h22v1h-22z" fill="#36f030" stroke="#1b7818"/>"     "     "     <path d="M435 129h13v23h-13zm14 0h15v22h-15zm-14 24h5v23h-5z" stroke="#1b7818" fill="#37f030"/>"     "     "     <path d="M441 153h23v22h-23zm-6 24h14v23h-14z" fill="#38f030" stroke="#1c7818"/>"     "     <path d="M450 177h15v23h-15zm-15 24h5v23h-5zm6 0h23v22h-23z" stroke="#1c7818" fill="#39f030"/>"     "     "     <path d="M435 225h14v23h-14zm15 0h15v23h-15zm-15 24h11v23h-11z" fill="#3af030" stroke="#1d7818"/>"     "     "     <path d="M447 249h18v23h-18zm-12 24h8v23h-8z" stroke="#1d7818" fill="#3bf030"/>"     "     <path d="M444 273h21v23h-21zm-9 24h7v23h-7zm8 0h22v23h-22z" fill="#3cf030" stroke="#1e7818"/>"     "     "     <path d="M435 321h5v23h-5zm6 0h22v21h-22zm0 22h21v1h-21z" stroke="#1e7818" fill="#3df030"/>"     "     "     <path d="M464 321h1v21h-1zm-29 24h20v23h-20z" fill="#3ef030" stroke="#1f7818"/>"     "     <path d="M456 345h9v23h-9zm-21 24h8v23h-8zm9 0h21v23h-21z" stroke="#1f7818" fill="#3ff030"/>"     "     "     <path d="M435 393h5v23h-5zm6 0h22v22h-22zm23 0h1v20h-1z" fill="#40f030" stroke="#207818"/>"     "     "     <path d="M435 417h11v23h-11zm12 0h18v23h-18z" stroke="#207818" fill="#41f030"/>"     "     <path d="M435 441h14v23h-14zm15 0h14v23h-14zm-15 24h20v23h-20z" fill="#42f030" stroke="#217818"/>"     "     "     <path d="M456 465h9v23h-9zm-21 24h29v22h-29zM466 1h30v10h-30z" stroke="#217818" fill="#43f030"/>"     "     "     <path d="M466 12h11v23h-11zm12 0h18v23h-18z" fill="#44f030" stroke="#227818"/>"     "     <path d="M466 36h2v23h-2zm3 0h25v20h-25zm0 21h24v2h-24z" stroke="#227818" fill="#45f030"/>"     "     "     <path d="M495 36h1v19h-1zm0 20h1v3h-1zm-29 4h28v23h-28z" fill="#46f030" stroke="#237818"/>"     "     "     <path d="M495 60h1v19h-1zm0 20h1v3h-1z" stroke="#237818" fill="#47f030"/>"     "     <path d="M466 84h5v23h-5zm6 0h22v22h-22zm23 0h1v19h-1z" fill="#48f030" stroke="#247818"/>"     "     "     <path d="M495 104h1v3h-1zm-29 4h6v23h-6zm7 0h22v22h-22z" stroke="#247818" fill="#49f030"/>"     "     "     <path d="M466 132h4v23h-4zm5 0h23v21h-23z" fill="#4af030" stroke="#257818"/>"     "     <path d="M471 154h20v1h-20zm24-22h1v17h-1zm0 18h1v5h-1z" stroke="#257818" fill="#4bf030"/>"     "     "     <path d="M466 156h11v23h-11zm12 0h18v22h-18zm-12 24h3v23h-3z" fill="#4cf030" stroke="#267818"/>"     "     "     <path d="M470 180h25v20h-25zm0 21h23v2h-23z" stroke="#267818" fill="#4df030"/>"     "     <path d="M466 204h6v23h-6zm7 0h22v22h-22zm-7 24h2v23h-2z" fill="#4ef030" stroke="#277818"/>"     "     "     <path d="M469 228h27v20h-27zm0 21h27v1h-27zm-3 3h10v23h-10z" stroke="#277818" fill="#4ff030"/>"     "     "     <path d="M477 252h19v23h-19zm-11 24h20v23h-20z" fill="#50f030" stroke="#287818"/>"     "     <path d="M487 276h9v21h-9zm0 22h6v1h-6zm-21 2h5v23h-5z" stroke="#287818" fill="#51f030"/>"     "     "     <path d="M472 300h22v21h-22zm0 22h19v1h-19zm23-22h1v17h-1z" fill="#52f030" stroke="#297818"/>"     "     "     <path d="M495 318h1v5h-1zm-29 6h21v22h-21z" stroke="#297818" fill="#53f030"/>"     "     <path d="M488 324h8v22h-8zm-22 23h5v22h-5zm6 0h22v20h-22z" fill="#54f030" stroke="#2a7818"/>"     "     "     <path d="M472 368h19v1h-19zm23-21h1v16h-1zm0 17h1v5h-1z" stroke="#2a7818" fill="#55f030"/>"     "     "     <path d="M466 370h5v22h-5zm6 0h23v20h-23z" fill="#56f030" stroke="#2b7818"/>"     "     <path d="M472 391h19v1h-19zm20 0h3v1h-3zm-26 2h20v22h-20z" stroke="#2b7818" fill="#57f030"/>"     "     "     <path d="M487 393h9v22h-9zm-21 23h5v22h-5zm6 0h21v20h-21z" fill="#58f030" stroke="#2c7818"/>"     "     "     <path d="M494 416h2v22h-2zm-22 21h19v1h-19z" stroke="#2c7818" fill="#59f030"/>"     "     <path d="M466 439h14v22h-14zm15 0h15v22h-15zm-15 23h17v22h-17z" fill="#5af030" stroke="#2d7818"/>"     "     "     <path d="M484 462h12v22h-12zm-18 23h29v22h-29zm0 23h29v4h-29z" stroke="#2d7818" fill="#5bf030"/>"     "     "     <path d="M497 1h29v13h-29zm0 14h18v22h-18z" fill="#5cf030" stroke="#2e7818"/>"     "     <path d="M516 15h10v22h-10zm-19 23h3v22h-3zm4 0h25v19h-25z" stroke="#2e7818" fill="#5df030"/>"     "     "     <path d="M501 58h21v2h-21zm22 0h3v2h-3zm-26 3h19v22h-19z" fill="#5ef030" stroke="#2f7818"/>"     "     "     <path d="M517 61h8v21h-8zm-20 23h12v22h-12z" stroke="#2f7818" fill="#5ff030"/>"     "     <path d="M510 84h16v22h-16zm-13 23h13v22h-13zm14 0h15v22h-15z" fill="#60f030" stroke="#307818"/>"     "     "     <path d="M497 130h19v22h-19zm20 0h8v21h-8zm-20 23h3v22h-3z" stroke="#307818" fill="#61f030"/>"     "     "     <path d="M501 153h23v19h-23zm0 20h21v2h-21z" fill="#62f030" stroke="#317818"/>"     "     <path d="M525 153h1v15h-1zm0 16h1v6h-1zm-28 7h14v22h-14z" stroke="#317818" fill="#63f030"/>"     "     "     <path d="M512 176h14v22h-14zm-15 23h10v22h-10zm11 0h18v22h-18z" fill="#64f030" stroke="#327818"/>"     "     "     <path d="M497 222h7v22h-7zm8 0h20v21h-20z" stroke="#327818" fill="#65f030"/>"     "     <path d="M497 245h14v22h-14zm15 0h14v22h-14zm-15 23h6v22h-6z" fill="#66f030" stroke="#337818"/>"     "     "     <path d="M504 268h21v21h-21zm-7 23h4v22h-4zm5 0h21v20h-21z" stroke="#337818" fill="#67f030"/>"     "     "     <path d="M524 291h2v22h-2zm-22 21h18v1h-18z" fill="#68f030" stroke="#347818"/>"     "     <path d="M497 314h20v22h-20zm21 0h8v22h-8zm-21 23h28v22h-28z" stroke="#347818" fill="#69f030"/>"     "     "     <path d="M497 360h20v22h-20zm21 0h8v21h-8zm-21 23h7v22h-7z" fill="#6af030" stroke="#357818"/>"     "     "     <path d="M505 383h21v21h-21zm-8 23h20v22h-20z" stroke="#357818" fill="#6bf030"/>"     "     <path d="M518 406h7v21h-7zm-21 23h20v22h-20zm21-1h8v23h-8z" fill="#6cf030" stroke="#367818"/>"     "     "     <path d="M497 452h16v21h-16zm17 0h12v21h-12zm-17 22h19v21h-19z" stroke="#367818" fill="#6df030"/>"     "     "     <path d="M517 474h9v21h-9zm-20 22h29v16h-29z" fill="#6ef030" stroke="#377818"/>"     "     <path d="M527 1h15v21h-15zm16 0h30v3h-30zm0 4h29v16h-29z" stroke="#377818" fill="#6ff030"/>"     "     "     <path d="M574 1h30v7h-30zm0 8h29v11h-29zm0 12h27v1h-27z" fill="#70f030" stroke="#387818"/>"     "     "     <path d="M605 1h29v5h-29zm0 6h29v15h-29z" stroke="#387818" fill="#71f030"/>"     "     <path d="M635 1h29v11h-29zm0 12h28v9h-28zm30-12h29v21h-29z" fill="#72f030" stroke="#397818"/>"     "     "     <path d="M695 1h29v5h-29zm0 6h29v15h-29zm30-6h29v19h-29z" stroke="#397818" fill="#73f030"/>"     "     "     <path d="M725 21h27v1h-27zm30-20h29v3h-29z" fill="#74f030" stroke="#3a7818"/>"     "     <path d="M755 5h28v17h-28zm30-4h29v5h-29zm0 6h29v15h-29z" stroke="#3a7818" fill="#75f030"/>"     "     "     <path d="M815 1h29v11h-29zm0 12h28v8h-28zm30-12h29v11h-29z" fill="#76f030" stroke="#3b7818"/>"     "     "     <path d="M844 13h28v8h-28zm29 0h1v8h-1z" stroke="#3b7818" fill="#77f030"/>"     "     <path d="M875 1h29v4h-29zm0 5h28v16h-28zm30-5h29v6h-29z" fill="#78f030" stroke="#3c7818"/>"     "     "     <path d="M905 8h29v14h-29zm30-7h29v3h-29zm0 4h28v17h-28z" stroke="#3c7818" fill="#79f030"/>"     "     "     <path d="M965 1h29v20h-29zm30 0h28v21h-28z" fill="#7af030" stroke="#3d7818"/>"     "     <path d="M527 23h28v21h-28zm0 22h19v21h-19zm20 0h8v21h-8z" stroke="#3d7818" fill="#7bf030"/>"     "     "     <path d="M527 67h18v21h-18zm19 0h9v21h-9zm-19 22h16v21h-16z" fill="#7cf030" stroke="#3e7818"/>"     "     "     <path d="M544 89h11v21h-11zm-17 22h11v21h-11z" stroke="#3e7818" fill="#7df030"/>"     "     <path d="M539 111h16v21h-16zm-12 22h6v21h-6zm7 0h20v20h-20z" fill="#7ef030" stroke="#3f7818"/>"     "     "     <path d="M527 155h18v21h-18zm19 0h8v20h-8zm-19 22h2v21h-2z" stroke="#3f7818" fill="#7ff030"/>"     "     "     <path d="M530 177h25v19h-25zm0 20h17v1h-17z" fill="#80f030" stroke="#407818"/>"     "     <path d="M548 197h7v1h-7zm-21 2h14v21h-14zm15 0h13v21h-13z" stroke="#407818" fill="#81f030"/>"     "     "     <path d="M527 221h10v21h-10zm11 0h17v21h-17zm-11 22h6v21h-6z" fill="#82f030" stroke="#417818"/>"     "     "     <path d="M534 243h20v21h-20zm-7 22h2v21h-2z" stroke="#417818" fill="#83f030"/>"     "     <path d="M530 265h24v19h-24zm0 20h15v1h-15zm16 0h5v1h-5z" fill="#84f030" stroke="#427818"/>"     "     "     <path d="M527 287h18v21h-18zm19 0h9v20h-9zm-19 22h11v21h-11z" stroke="#427818" fill="#85f030"/>"     "     "     <path d="M539 309h16v21h-16zm-12 22h19v21h-19z" fill="#86f030" stroke="#437818"/>"     "     <path d="M547 331h8v21h-8zm-20 22h14v21h-14zm15 0h13v21h-13z" stroke="#437818" fill="#87f030"/>"     "     "     <path d="M527 375h14v21h-14zm15 0h12v20h-12zm-15 22h2v21h-2z" fill="#88f030" stroke="#447818"/>"     "     "     <path d="M530 397h23v19h-23zm24 0h1v15h-1z" stroke="#447818" fill="#89f030"/>"     "     <path d="M530 417h15v1h-15zm16 0h7v1h-7zm-19 2h15v21h-15z" fill="#8af030" stroke="#457818"/>"     "     "     <path d="M543 419h12v21h-12zm-16 22h11v21h-11zm12 0h15v20h-15z" stroke="#457818" fill="#8bf030"/>"     "     "     <path d="M527 463h10v21h-10zm11 0h17v21h-17z" fill="#8cf030" stroke="#467818"/>"     "     <path d="M527 485h28v21h-28zm0 22h28v5h-28zm29-484h7v21h-7z" stroke="#467818" fill="#8df030"/>"     "     "     <path d="M564 23h28v12h-28zm0 13h28v8h-28zm29-13h28v3h-28z" fill="#8ef030" stroke="#477818"/>"     "     "     <path d="M593 27h28v17h-28zm29-4h28v3h-28z" stroke="#477818" fill="#8ff030"/>"     "     <path d="M622 27h27v16h-27zm29-4h28v18h-28zm0 19h28v2h-28z" fill="#90f030" stroke="#487818"/>"     "     "     <path d="M680 23h28v5h-28zm0 6h27v15h-27zm29-6h28v20h-28z" stroke="#487818" fill="#91f030"/>"     "     "     <path d="M738 23h28v18h-28zm0 19h28v2h-28z" fill="#92f030" stroke="#497818"/>"     "     <path d="M767 23h28v7h-28zm0 8h27v13h-27zm29-8h28v7h-28z" stroke="#497818" fill="#93f030"/>"     "     "     <path d="M795 31h27v11h-27zm28 0h1v13h-1zm-28 12h14v1h-14z" fill="#94f030" stroke="#4a7818"/>"     "     "     <path d="M810 43h12v1h-12zm15-20h28v5h-28z" stroke="#4a7818" fill="#95f030"/>"     "     <path d="M825 29h26v15h-26zm27 0h1v15h-1zm2-6h28v5h-28z" fill="#96f030" stroke="#4b7818"/>"     "     "     <path d="M854 29h26v14h-26zm27 0h1v15h-1zm2-6h27v6h-27z" stroke="#4b7818" fill="#97f030"/>"     "     "     <path d="M883 30h27v13h-27zm28-7h27v18h-27z" fill="#98f030" stroke="#4c7818"/>"     "     <path d="M911 42h26v2h-26zm28-19h27v17h-27zm0 18h27v3h-27z" stroke="#4c7818" fill="#99f030"/>"     "     "     <path d="M967 23h27v8h-27zm0 9h26v12h-26zm28-9h26v18h-26z" fill="#9af030" stroke="#4d7818"/>"     "     "     <path d="M1022 23h2v21h-2zm-27 19h26v2h-26z" stroke="#4d7818" fill="#9bf030"/>"     "     <path d="M556 45h20v20h-20zm0 21h17v21h-17zm18 0h2v21h-2z" fill="#9cf030" stroke="#4e7818"/>"     "     "     <path d="M556 88h5v21h-5zm6 0h14v20h-14zm-6 22h3v21h-3z" stroke="#4e7818" fill="#9df030"/>"     "     "     <path d="M560 110h16v20h-16zm-4 22h15v21h-15z" fill="#9ef030" stroke="#4f7818"/>"     "     <path d="M572 132h4v21h-4zm-16 22h11v21h-11zm12 0h8v20h-8z" stroke="#4f7818" fill="#9ff030"/>"     "     "     <path d="M556 176h2v20h-2zm3 0h17v20h-17zm-3 21h12v20h-12z" fill="#a0f030" stroke="#507818"/>"     "     "     <path d="M569 197h7v20h-7zm-13 21h5v20h-5z" stroke="#507818" fill="#a1f030"/>"     "     <path d="M562 218h14v20h-14zm-6 21h6v20h-6zm7 0h13v20h-13z" fill="#a2f030" stroke="#517818"/>"     "     "     <path d="M556 260h5v20h-5zm6 0h13v19h-13zm-6 21h3v20h-3z" stroke="#517818" fill="#a3f030"/>"     "     "     <path d="M560 281h16v20h-16zm-4 21h13v20h-13z" fill="#a4f030" stroke="#527818"/>"     "     <path d="M570 302h6v20h-6zm-14 21h11v20h-11zm12 0h8v20h-8z" stroke="#527818" fill="#a5f030"/>"     "     "     <path d="M556 344h18v20h-18zm19 0h1v15h-1zm-19 21h10v20h-10z" fill="#a6f030" stroke="#537818"/>"     "     "     <path d="M567 365h9v20h-9zm-11 21h10v20h-10z" stroke="#537818" fill="#a7f030"/>"     "     <path d="M567 386h9v20h-9zm-11 21h9v20h-9zm10 0h10v19h-10z" fill="#a8f030" stroke="#547818"/>"     "     "     <path d="M556 428h19v20h-19zm0 21h11v20h-11zm12 0h8v20h-8z" stroke="#547818" fill="#a9f030"/>"     "     "     <path d="M556 470h16v20h-16zm17 0h3v20h-3z" fill="#aaf030" stroke="#557818"/>"     "     <path d="M556 491h20v19h-20zm0 20h13v1h-13zm21-466h3v20h-3z" stroke="#557818" fill="#abf030"/>"     "     "     <path d="M581 45h27v6h-27zm0 7h26v13h-26zm28-7h27v7h-27z" fill="#acf030" stroke="#567818"/>"     "     "     <path d="M609 53h25v12h-25zm26 0h1v12h-1z" stroke="#567818" fill="#adf030"/>"     "     <path d="M637 45h27v6h-27zm0 7h25v12h-25zm26 0h1v13h-1z" fill="#aef030" stroke="#577818"/>"     "     "     <path d="M665 45h27v18h-27zm0 19h12v1h-12zm13 0h14v1h-14z" stroke="#577818" fill="#aff030"/>"     "     "     <path d="M693 45h27v8h-27zm0 9h25v10h-25z" fill="#b0f030" stroke="#587818"/>"     "     <path d="M719 54h1v11h-1zm2-9h27v16h-27zm0 17h27v3h-27z" stroke="#587818" fill="#b1f030"/>"     "     "     <path d="M749 45h27v18h-27zm0 19h12v1h-12zm13 0h14v1h-14z" fill="#b2f030" stroke="#597818"/>"     "     "     <path d="M777 45h26v6h-26zm0 7h24v12h-24z" stroke="#597818" fill="#b3f030"/>"     "     <path d="M802 52h1v12h-1zm2-7h26v7h-26zm0 8h24v12h-24z" fill="#b4f030" stroke="#5a7818"/>"     "     "     <path d="M829 53h1v12h-1zm2-8h26v7h-26zm0 8h25v10h-25z" stroke="#5a7818" fill="#b5f030"/>"     "     "     <path d="M831 64h12v1h-12zm13 0h12v1h-12z" fill="#b6f030" stroke="#5b7818"/>"     "     <path d="M858 45h26v7h-26zm-1 8h26v9h-26zm0 10h20v2h-20z" stroke="#5b7818" fill="#b7f030"/>"     "     "     <path d="M878 63h5v2h-5zm7-18h26v15h-26zm0 16h25v3h-25z" fill="#b8f030" stroke="#5c7818"/>"     "     "     <path d="M912 45h26v19h-26zm27 0h26v7h-26z" stroke="#5c7818" fill="#b9f030"/>"     "     <path d="M939 53h24v10h-24zm25 0h1v12h-1zm-25 11h11v1h-11z" fill="#baf030" stroke="#5d7818"/>"     "     "     <path d="M951 64h10v1h-10zm15-19h26v6h-26zm0 7h23v10h-23z" stroke="#5d7818" fill="#bbf030"/>"     "     "     <path d="M990 52h2v13h-2zm-24 11h19v2h-19z" fill="#bcf030" stroke="#5e7818"/>"     "     <path d="M986 63h3v2h-3zm7-18h25v15h-25zm26 0h5v20h-5z" stroke="#5e7818" fill="#bdf030"/>"     "     "     <path d="M993 61h24v4h-24zm-416 5h20v19h-20zm0 20h2v20h-2z" fill="#bef030" stroke="#5f7818"/>"     "     "     <path d="M580 86h17v20h-17zm-3 21h9v20h-9z" stroke="#5f7818" fill="#bff030"/>"     "     <path d="M587 107h8v19h-8zm9 0h1v14h-1zm-19 21h5v19h-5z" fill="#c0f030" stroke="#607818"/>"     "     "     <path d="M583 128h14v19h-14zm-6 20h6v19h-6zm7 0h13v19h-13z" stroke="#607818" fill="#c1f030"/>"     "     "     <path d="M577 168h15v19h-15zm16 0h4v19h-4z" fill="#c2f030" stroke="#617818"/>"     "     <path d="M577 188h11v19h-11zm12 0h7v18h-7zm-12 20h7v19h-7z" stroke="#617818" fill="#c3f030"/>"     "     "     <path d="M585 208h12v19h-12zm-8 20h15v19h-15zm16 0h4v19h-4z" fill="#c4f030" stroke="#627818"/>"     "     "     <path d="M577 248h16v19h-16zm17 0h3v19h-3z" stroke="#627818" fill="#c5f030"/>"     "     <path d="M577 268h13v19h-13zm14 0h6v19h-6zm-14 20h19v22h-19z" fill="#c6f030" stroke="#637818"/>"     "     "     <path d="M577 311h20v19h-20zm0 20h19v19h-19zm0 20h18v19h-18z" stroke="#637818" fill="#c7f030"/>"     "     "     <path d="M596 351h1v14h-1zm-19 20h6v19h-6z" fill="#c8f030" stroke="#647818"/>"     "     <path d="M584 371h13v19h-13zm-7 20h11v19h-11zm12 0h7v18h-7z" stroke="#647818" fill="#c9f030"/>"     "     "     <path d="M577 411h3v19h-3zm4 0h16v19h-16zm-4 20h19v19h-19z" fill="#caf030" stroke="#657818"/>"     "     "     <path d="M577 451h5v19h-5zm6 0h13v18h-13z" stroke="#657818" fill="#cbf030"/>"     "     <path d="M577 471h2v19h-2zm3 0h17v19h-17zm-3 20h18v21h-18z" fill="#ccf030" stroke="#667818"/>"     "     "     <path d="M596 491h1v11h-1zm0 12h1v7h-1zm2-437h13v19h-13z" stroke="#667818" fill="#cdf030"/>"     "     "     <path d="M612 66h26v6h-26zm0 7h24v10h-24z" fill="#cef030" stroke="#677818"/>"     "     <path d="M637 73h1v10h-1zm2-7h26v14h-26zm0 15h25v3h-25z" stroke="#677818" fill="#cff030"/>"     "     "     <path d="M666 66h25v6h-25zm0 7h23v11h-23zm26-7h25v7h-25z" fill="#d0f030" stroke="#687818"/>"     "     "     <path d="M692 74h24v10h-24zm26-8h25v7h-25z" stroke="#687818" fill="#d1f030"/>"     "     <path d="M717 74h23v8h-23zm24 0h2v11h-2zm-24 9h19v2h-19z" fill="#d2f030" stroke="#697818"/>"     "     "     <path d="M737 83h3v2h-3zm7-17h25v7h-25zm0 8h23v11h-23z" stroke="#697818" fill="#d3f030"/>"     "     "     <path d="M770 66h25v7h-25zm-2 8h24v8h-24z" fill="#d4f030" stroke="#6a7818"/>"     "     <path d="M793 74h2v11h-2zm-25 9h19v2h-19zm20 0h2v2h-2z" stroke="#6a7818" fill="#d5f030"/>"     "     "     <path d="M796 66h25v3h-25zm0 4h24v14h-24zm26-4h25v6h-25z" fill="#d6f030" stroke="#6b7818"/>"     "     "     <path d="M822 73h23v12h-23zm26-7h25v6h-25z" stroke="#6b7818" fill="#d7f030"/>"     "     <path d="M846 73h24v8h-24zm25 0h2v12h-2zm-25 9h24v3h-24z" fill="#d8f030" stroke="#6c7818"/>"     "     "     <path d="M874 66h24v6h-24zm0 7h23v12h-23zm25-7h24v14h-24z" stroke="#6c7818" fill="#d9f030"/>"     "     "     <path d="M899 81h23v3h-23zm25-15h24v6h-24z" fill="#daf030" stroke="#6d7818"/>"     "     <path d="M924 73h22v12h-22zm25-7h24v6h-24zm-2 7h22v11h-22z" stroke="#6d7818" fill="#dbf030"/>"     "     "     <path d="M970 73h3v12h-3zm4-7h24v8h-24zm0 9h23v8h-23z" fill="#dcf030" stroke="#6e7818"/>"     "     "     <path d="M999 66h22v17h-22zm23 0h2v19h-2z" stroke="#6e7818" fill="#ddf030"/>"     "     <path d="M598 86h21v18h-21zm22 0h24v14h-24zm0 15h23v3h-23z" fill="#def030" stroke="#6f7818"/>"     "     "     <path d="M645 86h24v7h-24zm0 8h23v8h-23zm25-8h24v14h-24z" stroke="#6f7818" fill="#dff030"/>"     "     "     <path d="M670 101h22v3h-22zm25-15h24v8h-24z" fill="#e0f030" stroke="#707818"/>"     "     <path d="M695 95h24v8h-24zm25-9h23v14h-23zm0 15h21v3h-21z" stroke="#707818" fill="#e1f030"/>"     "     "     <path d="M744 86h23v14h-23zm-2 15h20v3h-20zm21 0h4v3h-4z" fill="#e2f030" stroke="#717818"/>"     "     "     <path d="M768 86h23v14h-23zm0 15h20v3h-20z" stroke="#717818" fill="#e3f030"/>"     "     <path d="M792 86h23v7h-23zm0 8h21v10h-21zm24-8h23v4h-23z" fill="#e4f030" stroke="#727818"/>"     "     "     <path d="M816 91h22v13h-22zm24-5h23v5h-23zm0 6h22v11h-22z" stroke="#727818" fill="#e5f030"/>"     "     "     <path d="M864 86h23v7h-23zm0 8h21v10h-21z" fill="#e6f030" stroke="#737818"/>"     "     <path d="M888 86h23v5h-23zm0 6h22v11h-22zm24-6h23v7h-23z" stroke="#737818" fill="#e7f030"/>"     "     "     <path d="M912 94h20v9h-20zm21 0h2v10h-2zm3-8h22v4h-22z" fill="#e8f030" stroke="#747818"/>"     "     "     <path d="M936 91h21v12h-21zm23-5h22v5h-22z" stroke="#747818" fill="#e9f030"/>"     "     <path d="M959 92h22v12h-22zm23-6h22v16h-22zm23 0h19v18h-19z" fill="#eaf030" stroke="#757818"/>"     "     "     <path d="M598 105h22v17h-22zm0 18h11v18h-11zm12 0h10v18h-10z" stroke="#757818" fill="#ebf030"/>"     "     "     <path d="M598 142h11v18h-11zm12 0h10v18h-10z" fill="#ecf030" stroke="#767818"/>"     "     <path d="M598 161h3v18h-3zm4 0h18v18h-18zm-4 19h3v18h-3z" stroke="#767818" fill="#edf030"/>"     "     "     <path d="M602 180h18v18h-18zm-4 19h2v18h-2zm3 0h19v18h-19z" fill="#eef030" stroke="#777818"/>"     "     "     <path d="M598 218h11v18h-11zm12 0h10v18h-10z" stroke="#777818" fill="#eff030"/>"     "     <path d="M598 237h6v18h-6zm7 0h15v18h-15zm-7 19h6v18h-6z" fill="#f0f030" stroke="#787818"/>"     "     "     <path d="M605 256h15v18h-15zm-7 19h4v18h-4zm5 0h17v18h-17z" stroke="#787818" fill="#f0f031"/>"     "     "     <path d="M598 294h7v18h-7zm8 0h14v18h-14z" fill="#f0f032" stroke="#787819"/>"     "     <path d="M598 313h7v18h-7zm8 0h14v18h-14zm-8 19h16v18h-16z" stroke="#787819" fill="#f0f033"/>"     "     "     <path d="M615 332h5v18h-5zm-17 19h17v18h-17zm18 0h4v18h-4z" fill="#f0f034" stroke="#78781a"/>"     "     "     <path d="M598 370h17v18h-17zm18 0h3v17h-3z" stroke="#78781a" fill="#f0f035"/>"     "     <path d="M598 389h3v18h-3zm4 0h17v17h-17zm-4 19h8v18h-8z" fill="#f0f036" stroke="#78781b"/>"     "     "     <path d="M607 408h13v18h-13zm-9 19h21v18h-21zm0 19h12v18h-12z" stroke="#78781b" fill="#f0f037"/>"     "     "     <path d="M611 446h9v18h-9zm-13 19h17v18h-17z" fill="#f0f038" stroke="#78781c"/>"     "     <path d="M616 465h4v17h-4zm-18 19h14v18h-14zm15 0h7v18h-7z" stroke="#78781c" fill="#f0f039"/>"     "     "     <path d="M598 503h21v7h-21zm23-398h19v17h-19zm20 0h22v4h-22z" fill="#f0f03a" stroke="#78781d"/>"     "     "     <path d="M641 110h21v11h-21zm23-5h22v6h-22z" stroke="#78781d" fill="#f0f03b"/>"     "     <path d="M664 112h20v9h-20zm23-7h22v7h-22zm0 8h20v7h-20z" fill="#f0f03c" stroke="#78781e"/>"     "     "     <path d="M710 105h22v14h-22zm0 15h19v2h-19zm23-15h22v5h-22z" stroke="#78781e" fill="#f0f03d"/>"     "     "     <path d="M733 111h21v11h-21zm23-6h22v4h-22z" fill="#f0f03e" stroke="#78781f"/>"     "     <path d="M756 110h21v12h-21zm23-5h22v7h-22zm0 8h22v7h-22z" stroke="#78781f" fill="#f0f03f"/>"     "     "     <path d="M802 105h22v6h-22zm0 7h19v7h-19zm20 0h2v10h-2z" fill="#f0f040" stroke="#787820"/>"     "     "     <path d="M802 120h18v2h-18zm23-15h22v17h-22z" stroke="#787820" fill="#f0f041"/>"     "     <path d="M848 105h22v4h-22zm0 5h20v12h-20zm23-5h22v16h-22z" fill="#f0f042" stroke="#787821"/>"     "     "     <path d="M894 105h22v5h-22zm0 6h20v11h-20zm23-6h22v4h-22z" stroke="#787821" fill="#f0f043"/>"     "     "     <path d="M917 110h20v12h-20zm23-5h22v4h-22z" fill="#f0f044" stroke="#787822"/>"     "     <path d="M938 110h20v11h-20zm21 0h3v12h-3zm4-5h21v5h-21z" stroke="#787822" fill="#f0f045"/>"     "     "     <path d="M963 111h19v11h-19zm22-6h21v15h-21zm22 0h17v17h-17z" fill="#f0f046" stroke="#787823"/>"     "     "     <path d="M621 123h21v17h-21zm0 18h8v18h-8z" stroke="#787823" fill="#f0f047"/>"     "     <path d="M630 141h12v18h-12zm-9 19h13v18h-13zm14 0h7v17h-7z" fill="#f0f048" stroke="#787824"/>"     "     "     <path d="M621 179h6v18h-6zm7 0h14v17h-14zm-7 19h10v18h-10z" stroke="#787824" fill="#f0f049"/>"     "     "     <path d="M632 198h9v17h-9zm-11 19h11v18h-11z" fill="#f0f04a" stroke="#787825"/>"     "     <path d="M633 217h9v17h-9zm-12 19h4v17h-4zm5 0h16v17h-16z" stroke="#787825" fill="#f0f04b"/>"     "     "     <path d="M621 254h15v17h-15zm16 0h4v17h-4zm-16 18h18v17h-18z" fill="#f0f04c" stroke="#787826"/>"     "     "     <path d="M640 272h2v17h-2zm-19 18h18v17h-18z" stroke="#787826" fill="#f0f04d"/>"     "     <path d="M640 290h2v15h-2zm-19 18h16v17h-16zm17 0h3v16h-3z" fill="#f0f04e" stroke="#787827"/>"     "     "     <path d="M621 326h11v17h-11zm12 0h9v17h-9zm-12 18h13v17h-13z" stroke="#787827" fill="#f0f04f"/>"     "     "     <path d="M635 344h7v17h-7zm-14 18h12v17h-12z" fill="#f0f050" stroke="#787828"/>"     "     <path d="M634 362h8v17h-8zm-13 18h14v17h-14zm15 0h6v17h-6z" stroke="#787828" fill="#f0f051"/>"     "     "     <path d="M621 398h12v17h-12zm13 0h8v17h-8zm-13 18h12v17h-12z" fill="#f0f052" stroke="#787829"/>"     "     "     <path d="M634 416h8v17h-8zm-13 18h8v17h-8z" stroke="#787829" fill="#f0f053"/>"     "     <path d="M630 434h12v17h-12zm-9 18h14v17h-14zm15 0h5v16h-5z" fill="#f0f054" stroke="#78782a"/>"     "     "     <path d="M621 470h14v17h-14zm15-1h6v18h-6zm-15 19h19v17h-19z" stroke="#78782a" fill="#f0f055"/>"     "     "     <path d="M621 506h20v6h-20zm22-383h13v17h-13z" fill="#f0f056" stroke="#78782b"/>"     "     <path d="M657 123h21v5h-21zm0 6h19v11h-19zm22-6h21v15h-21z" stroke="#78782b" fill="#f0f057"/>"     "     "     <path d="M701 123h20v6h-20zm0 7h19v10h-19zm21-7h20v15h-20z" fill="#f0f058" stroke="#78782c"/>"     "     "     <path d="M743 123h20v15h-20zm21 0h20v16h-20z" stroke="#78782c" fill="#f0f059"/>"     "     <path d="M785 123h20v15h-20zm21 0h19v15h-19zm20 0h19v7h-19z" fill="#f0f05a" stroke="#78782d"/>"     "     "     <path d="M826 131h19v7h-19zm20-8h19v5h-19zm0 6h19v11h-19z" stroke="#78782d" fill="#f0f05b"/>"     "     "     <path d="M866 123h19v10h-19zm0 11h16v4h-16z" fill="#f0f05c" stroke="#78782e"/>"     "     <path d="M883 134h2v6h-2zm3-11h19v11h-19zm0 12h18v3h-18z" stroke="#78782e" fill="#f0f05d"/>"     "     "     <path d="M906 123h18v15h-18zm19 0h18v3h-18zm0 4h17v13h-17z" fill="#f0f05e" stroke="#78782f"/>"     "     "     <path d="M944 123h18v16h-18zm19 0h18v16h-18z" stroke="#78782f" fill="#f0f05f"/>"     "     <path d="M982 123h18v11h-18zm0 12h16v4h-16zm19-12h18v12h-18z" fill="#f0f060" stroke="#787830"/>"     "     "     <path d="M1020 123h3v17h-3zm-19 13h17v3h-17zm-358 5h18v12h-18z" stroke="#787830" fill="#f0f061"/>"     "     "     <path d="M643 154h12v17h-12zm13 0h5v16h-5z" fill="#f0f062" stroke="#787831"/>"     "     <path d="M643 172h12v17h-12zm13-1h3v15h-3zm0 16h5v2h-5z" stroke="#787831" fill="#f0f063"/>"     "     "     <path d="M643 190h8v17h-8zm9 0h9v17h-9zm-9 18h8v17h-8z" fill="#f0f064" stroke="#787832"/>"     "     "     <path d="M652 208h9v16h-9zm-9 18h14v17h-14z" stroke="#787832" fill="#f0f065"/>"     "     <path d="M658 226h3v17h-3zm-15 18h8v17h-8zm9 0h9v16h-9z" fill="#f0f066" stroke="#787833"/>"     "     "     <path d="M643 262h16v17h-16zm0 18h14v17h-14zm15 0h2v15h-2z" stroke="#787833" fill="#f0f067"/>"     "     "     <path d="M643 298h17v17h-17zm0 18h16v17h-16z" fill="#f0f068" stroke="#787834"/>"     "     <path d="M643 334h10v16h-10zm11 0h7v16h-7zm-11 17h10v16h-10z" stroke="#787834" fill="#f0f069"/>"     "     "     <path d="M654 351h7v16h-7zm-11 17h15v16h-15zm16 0h2v16h-2z" fill="#f0f06a" stroke="#787835"/>"     "     "     <path d="M643 385h14v16h-14zm15 0h3v15h-3z" stroke="#787835" fill="#f0f06b"/>"     "     <path d="M643 402h13v16h-13zm14 0h4v16h-4zm-14 17h11v16h-11z" fill="#f0f06c" stroke="#787836"/>"     "     "     <path d="M655 419h6v16h-6zm-12 17h16v16h-16zm0 17h13v16h-13z" stroke="#787836" fill="#f0f06d"/>"     "     "     <path d="M657 453h3v14h-3zm-14 17h15v16h-15z" fill="#f0f06e" stroke="#787837"/>"     "     <path d="M659 470h2v14h-2zm-16 17h17v16h-17zm0 17h17v8h-17z" stroke="#787837" fill="#f0f06f"/>"     "     "     <path d="M662 141h7v16h-7zm8 0h18v3h-18zm0 4h17v11h-17z" fill="#f0f070" stroke="#787838"/>"     "     "     <path d="M689 141h18v11h-18zm0 12h18v2h-18z" stroke="#787838" fill="#f0f071"/>"     "     <path d="M708 141h18v2h-18zm0 3h16v12h-16zm19-3h18v2h-18z" fill="#f0f072" stroke="#787839"/>"     "     "     <path d="M725 144h17v10h-17zm18 0h2v13h-2zm-18 11h15v2h-15z" stroke="#787839" fill="#f0f073"/>"     "     "     <path d="M746 141h17v15h-17zm18 0h17v11h-17z" fill="#f0f074" stroke="#78783a"/>"     "     <path d="M764 153h15v4h-15zm18-12h17v8h-17zm0 9h16v7h-16z" stroke="#78783a" fill="#f0f075"/>"     "     "     <path d="M800 141h16v8h-16zm-1 9h16v7h-16zm18-9h16v13h-16z" fill="#f0f076" stroke="#78783b"/>"     "     "     <path d="M817 155h14v2h-14zm17-14h16v12h-16z" stroke="#78783b" fill="#f0f077"/>"     "     <path d="M834 154h15v3h-15zm17-13h16v10h-16zm0 11h16v5h-16z" fill="#f0f078" stroke="#78783c"/>"     "     "     <path d="M868 141h16v8h-16zm0 9h15v6h-15zm17-9h16v8h-16z" stroke="#78783c" fill="#f0f079"/>"     "     "     <path d="M884 150h16v6h-16zm18-9h16v8h-16z" fill="#f0f07a" stroke="#78783d"/>"     "     <path d="M901 150h16v6h-16zm18-9h16v13h-16zm0 14h14v2h-14z" stroke="#78783d" fill="#f0f07b"/>"     "     "     <path d="M936 141h16v9h-16zm0 10h15v5h-15zm17-10h16v14h-16z" fill="#f0f07c" stroke="#78783e"/>"     "     "     <path d="M970 141h16v13h-16zm0 14h13v2h-13z" stroke="#78783e" fill="#f0f07d"/>"     "     <path d="M987 141h16v8h-16zm0 9h15v7h-15zm17-9h16v14h-16z" fill="#f0f07e" stroke="#78783f"/>"     "     "     <path d="M1021 141h3v14h-3zm-359 17h16v8h-16zm0 9h13v16h-13z" stroke="#78783f" fill="#f0f07f"/>"     "     "     <path d="M676 167h2v14h-2zm-14 17h12v16h-12z" fill="#f0f080" stroke="#787840"/>"     "     <path d="M675 184h3v13h-3zm-13 17h10v16h-10zm11 0h5v15h-5z" stroke="#787840" fill="#f0f081"/>"     "     "     <path d="M662 218h11v16h-11zm12 0h4v14h-4zm-12 17h14v16h-14z" fill="#f0f082" stroke="#787841"/>"     "     "     <path d="M662 252h11v16h-11zm12 0h3v13h-3z" stroke="#787841" fill="#f0f083"/>"     "     <path d="M662 269h11v16h-11zm12-3h3v13h-3zm0 14h4v5h-4z" fill="#f0f084" stroke="#787842"/>"     "     "     <path d="M662 286h12v16h-12zm13 0h2v13h-2zm-13 17h15v16h-15z" stroke="#787842" fill="#f0f085"/>"     "     "     <path d="M662 320h7v15h-7zm8 0h8v15h-8z" fill="#f0f086" stroke="#787843"/>"     "     <path d="M662 336h9v15h-9zm10 0h6v15h-6zm-10 16h10v15h-10z" stroke="#787843" fill="#f0f087"/>"     "     "     <path d="M673 352h5v15h-5zm-11 16h15v15h-15zm0 16h14v15h-14z" fill="#f0f088" stroke="#787844"/>"     "     "     <path d="M662 400h13v15h-13zm14 0h2v13h-2z" stroke="#787844" fill="#f0f089"/>"     "     <path d="M662 416h9v15h-9zm10 0h6v14h-6zm-10 16h14v15h-14z" fill="#f0f08a" stroke="#787845"/>"     "     "     <path d="M662 448h10v15h-10zm11 0h5v15h-5zm-11 16h10v15h-10z" stroke="#787845" fill="#f0f08b"/>"     "     "     <path d="M673 464h5v15h-5zm-11 16h14v15h-14z" fill="#f0f08c" stroke="#787846"/>"     "     <path d="M662 496h15v15h-15zm17-338h14v15h-14zm15 0h16v12h-16z" stroke="#787846" fill="#f0f08d"/>"     "     "     <path d="M694 171h12v2h-12zm17-13h16v8h-16zm0 9h14v4h-14z" fill="#f0f08e" stroke="#787847"/>"     "     "     <path d="M728 158h16v11h-16zm0 12h14v3h-14z" stroke="#787847" fill="#f0f08f"/>"     "     <path d="M745 158h16v12h-16zm0 13h9v2h-9zm10 0h6v2h-6z" fill="#f0f090" stroke="#787848"/>"     "     "     <path d="M762 158h16v9h-16zm0 10h15v4h-15zm17-10h16v10h-16z" stroke="#787848" fill="#f0f091"/>"     "     "     <path d="M779 169h13v3h-13zm17-11h16v9h-16z" fill="#f0f092" stroke="#787849"/>"     "     <path d="M796 168h14v5h-14zm17-10h15v10h-15zm0 11h13v3h-13z" stroke="#787849" fill="#f0f093"/>"     "     "     <path d="M829 158h15v11h-15zm0 12h13v3h-13zm16-12h15v14h-15z" fill="#f0f094" stroke="#78784a"/>"     "     "     <path d="M861 158h15v10h-15zm0 11h13v4h-13z" stroke="#78784a" fill="#f0f095"/>"     "     <path d="M877 158h15v8h-15zm0 9h13v6h-13zm16-9h15v11h-15z" fill="#f0f096" stroke="#78784b"/>"     "     "     <path d="M893 170h12v3h-12zm16-12h15v12h-15zm0 13h9v2h-9z" stroke="#78784b" fill="#f0f097"/>"     "     "     <path d="M919 171h5v2h-5zm6-13h15v14h-15z" fill="#f0f098" stroke="#78784c"/>"     "     <path d="M941 158h15v10h-15zm0 11h13v4h-13zm16-11h14v10h-14z" stroke="#78784c" fill="#f0f099"/>"     "     "     <path d="M955 169h13v4h-13zm17-11h14v10h-14zm-3 11h12v3h-12z" fill="#f0f09a" stroke="#78784d"/>"     "     "     <path d="M982 169h3v4h-3zm5-11h14v12h-14z" stroke="#78784d" fill="#f0f09b"/>"     "     <path d="M987 171h9v2h-9zm15-13h14v7h-14zm0 8h14v7h-14z" fill="#f0f09c" stroke="#78784e"/>"     "     "     <path d="M1017 158h6v14h-6zm-338 16h14v14h-14zm0 15h11v15h-11z" stroke="#78784e" fill="#f0f09d"/>"     "     "     <path d="M691 189h2v12h-2zm-12 16h9v15h-9z" fill="#f0f09e" stroke="#78784f"/>"     "     <path d="M689 205h4v13h-4zm-10 16h5v15h-5zm6 0h7v14h-7z" stroke="#78784f" fill="#f0f09f"/>"     "     "     <path d="M679 237h12v15h-12zm0 16h9v15h-9zm10 0h3v13h-3z" fill="#f0f0a0" stroke="#787850"/>"     "     "     <path d="M679 269h5v15h-5zm6 0h7v13h-7z" stroke="#787850" fill="#f0f0a1"/>"     "     <path d="M679 285h9v15h-9zm10 0h4v12h-4zm-10 16h11v15h-11z" fill="#f0f0a2" stroke="#787851"/>"     "     "     <path d="M691 301h2v9h-2zm0 10h2v5h-2zm-12 6h11v15h-11z" stroke="#787851" fill="#f0f0a3"/>"     "     "     <path d="M691 317h2v8h-2zm0 9h2v6h-2z" fill="#f0f0a4" stroke="#787852"/>"     "     <path d="M679 333h5v14h-5zm6 0h8v14h-8zm-6 15h13v14h-13z" stroke="#787852" fill="#f0f0a5"/>"     "     "     <path d="M679 363h14v14h-14zm0 15h5v14h-5zm6 0h8v14h-8z" fill="#f0f0a6" stroke="#787853"/>"     "     "     <path d="M679 393h11v14h-11zm12 0h2v7h-2z" stroke="#787853" fill="#f0f0a7"/>"     "     <path d="M691 401h2v6h-2zm-12 7h13v14h-13zm0 15h12v14h-12z" fill="#f0f0a8" stroke="#787854"/>"     "     "     <path d="M679 438h10v14h-10zm11 0h3v11h-3zm-11 15h10v14h-10z" stroke="#787854" fill="#f0f0a9"/>"     "     "     <path d="M690 450h3v11h-3zm0 12h3v5h-3z" fill="#f0f0aa" stroke="#787855"/>"     "     <path d="M679 468h11v14h-11zm12 0h2v7h-2zm0 8h2v6h-2z" stroke="#787855" fill="#f0f0ab"/>"     "     "     <path d="M679 483h14v14h-14zm0 15h14v13h-14zm15-324h9v14h-9z" fill="#f0f0ac" stroke="#787856"/>"     "     "     <path d="M704 174h14v10h-14zm0 11h11v3h-11z" stroke="#787856" fill="#f0f0ad"/>"     "     <path d="M719 174h14v13h-14zm15 0h14v11h-14zm0 12h8v2h-8z" fill="#f0f0ae" stroke="#787857"/>"     "     "     <path d="M743 186h5v2h-5zm6-12h14v11h-14zm0 12h7v2h-7z" stroke="#787857" fill="#f0f0af"/>"     "     "     <path d="M757 186h5v2h-5zm7-12h14v12h-14z" fill="#f0f0b0" stroke="#787858"/>"     "     <path d="M779 174h14v10h-14zm0 11h11v3h-11zm15-11h13v10h-13z" stroke="#787858" fill="#f0f0b1"/>"     "     "     <path d="M791 185h9v3h-9zm10 0h6v3h-6zm7-11h13v8h-13z" fill="#f0f0b2" stroke="#787859"/>"     "     "     <path d="M808 183h13v5h-13zm14-9h13v10h-13z" stroke="#787859" fill="#f0f0b3"/>"     "     <path d="M822 185h9v3h-9zm14-11h13v9h-13zm0 10h11v4h-11z" fill="#f0f0b4" stroke="#78785a"/>"     "     "     <path d="M850 174h13v11h-13zm14 0h13v9h-13zm0 10h11v4h-11z" stroke="#78785a" fill="#f0f0b5"/>"     "     "     <path d="M878 174h13v13h-13zm14 0h13v11h-13z" fill="#f0f0b6" stroke="#78785b"/>"     "     <path d="M906 174h13v11h-13zm14 0h13v9h-13zm0 10h10v4h-10z" stroke="#78785b" fill="#f0f0b7"/>"     "     "     <path d="M934 174h13v11h-13zm14 0h13v6h-13zm0 7h12v7h-12z" fill="#f0f0b8" stroke="#78785c"/>"     "     "     <path d="M962 174h13v8h-13zm0 9h13v5h-13z" stroke="#78785c" fill="#f0f0b9"/>"     "     <path d="M976 174h12v5h-12zm0 6h12v8h-12zm13-6h12v12h-12z" fill="#f0f0ba" stroke="#78785d"/>"     "     "     <path d="M1002 174h12v11h-12zm13 0h8v13h-8zm-321 15h12v5h-12z" stroke="#78785d" fill="#f0f0bb"/>"     "     "     <path d="M694 195h6v14h-6zm7 0h5v12h-5z" fill="#f0f0bc" stroke="#78785e"/>"     "     <path d="M694 210h11v13h-11zm0 14h12v13h-12zm0 14h9v13h-9z" stroke="#78785e" fill="#f0f0bd"/>"     "     "     <path d="M694 252h6v13h-6zm7 0h4v12h-4zm-7 14h6v13h-6z" fill="#f0f0be" stroke="#78785f"/>"     "     "     <path d="M701 265h5v11h-5zm-7 15h9v13h-9z" stroke="#78785f" fill="#f0f0bf"/>"     "     <path d="M694 294h9v13h-9zm0 14h11v13h-11zm0 14h11v13h-11z" fill="#f0f0c0" stroke="#787860"/>"     "     "     <path d="M694 336h11v13h-11zm0 14h6v12h-6zm7 0h4v11h-4z" stroke="#787860" fill="#f0f0c1"/>"     "     "     <path d="M694 363h10v12h-10zm0 13h7v12h-7z" fill="#f0f0c2" stroke="#787861"/>"     "     <path d="M702 376h3v10h-3zm-8 13h12v12h-12zm0 13h8v12h-8z" stroke="#787861" fill="#f0f0c3"/>"     "     "     <path d="M703 402h3v10h-3zm-9 13h7v12h-7zm8 0h3v10h-3z" fill="#f0f0c4" stroke="#787862"/>"     "     "     <path d="M694 428h7v12h-7zm8-2h3v10h-3z" stroke="#787862" fill="#f0f0c5"/>"     "     <path d="M694 441h10v12h-10zm0 13h12v12h-12zm0 13h11v12h-11z" fill="#f0f0c6" stroke="#787863"/>"     "     "     <path d="M694 480h8v12h-8zm9 0h3v10h-3zm-9 13h7v11h-7z" stroke="#787863" fill="#f0f0c7"/>"     "     "     <path d="M694 505h12v7h-12zm8-12h4v9h-4z" fill="#f0f0c8" stroke="#787864"/>"     "     <path d="M707 189h10v11h-10zm11 0h12v8h-12zm13 0h12v10h-12z" stroke="#787864" fill="#f0f0c9"/>"     "     "     <path d="M744 189h12v9h-12zm13 0h12v9h-12zm13 0h12v9h-12z" fill="#f0f0ca" stroke="#787865"/>"     "     "     <path d="M783 189h11v8h-11zm12 0h11v5h-11z" stroke="#787865" fill="#f0f0cb"/>"     "     <path d="M795 195h11v5h-11zm12-6h11v6h-11zm0 7h9v4h-9z" fill="#f0f0cc" stroke="#787866"/>"     "     "     <path d="M819 189h11v6h-11zm-2 7h9v4h-9zm14-7h11v6h-11z" stroke="#787866" fill="#f0f0cd"/>"     "     "     <path d="M827 196h8v4h-8zm9 0h6v4h-6z" fill="#f0f0ce" stroke="#787867"/>"     "     <path d="M843 189h11v9h-11zm12 0h11v8h-11zm12 0h11v11h-11z" stroke="#787867" fill="#f0f0cf"/>"     "     "     <path d="M879 189h11v9h-11zm12 0h11v11h-11zm12 0h11v10h-11z" fill="#f0f0d0" stroke="#787868"/>"     "     "     <path d="M915 189h11v9h-11zm12 0h11v6h-11z" stroke="#787868" fill="#f0f0d1"/>"     "     <path d="M927 196h8v3h-8zm12-7h11v10h-11zm12 0h11v8h-11z" fill="#f0f0d2" stroke="#787869"/>"     "     "     <path d="M963 189h10v7h-10zm0 8h7v3h-7zm11-8h10v10h-10z" stroke="#787869" fill="#f0f0d3"/>"     "     "     <path d="M985 189h10v5h-10zm0 6h9v5h-9z" fill="#f0f0d4" stroke="#78786a"/>"     "     <path d="M996 189h10v6h-10zm0 7h7v4h-7zm11-7h10v9h-10z" stroke="#78786a" fill="#f0f0d5"/>"     "     "     <path d="M1018 189h6v10h-6zm-311 12h10v8h-10zm0 9h9v11h-9z" fill="#f0f0d6" stroke="#78786b"/>"     "     "     <path d="M707 222h10v11h-10zm0 12h10v11h-10z" stroke="#78786b" fill="#f0f0d7"/>"     "     <path d="M707 246h7v10h-7zm0 11h8v10h-8zm0 11h6v10h-6z" fill="#f0f0d8" stroke="#78786c"/>"     "     "     <path d="M714 268h3v9h-3zm-7 11h6v10h-6zm7-1h3v8h-3z" stroke="#78786c" fill="#f0f0d9"/>"     "     "     <path d="M707 290h9v10h-9zm0 11h10v10h-10z" fill="#f0f0da" stroke="#78786d"/>"     "     <path d="M707 312h7v9h-7zm0 10h8v9h-8zm0 10h9v9h-9z" stroke="#78786d" fill="#f0f0db"/>"     "     "     <path d="M707 342h6v9h-6zm7 0h3v8h-3zm-7 10h8v9h-8z" fill="#f0f0dc" stroke="#78786e"/>"     "     "     <path d="M707 362h8v9h-8zm0 10h4v9h-4z" stroke="#78786e" fill="#f0f0dd"/>"     "     <path d="M712 372h5v8h-5zm-5 10h8v9h-8zm0 10h4v9h-4z" fill="#f0f0de" stroke="#78786f"/>"     "     "     <path d="M712 392h4v8h-4zm-5 10h10v9h-10zm0 10h10v9h-10z" stroke="#78786f" fill="#f0f0df"/>"     "     "     <path d="M707 422h7v8h-7zm0 9h6v8h-6z" fill="#f0f0e0" stroke="#787870"/>"     "     <path d="M714 431h3v8h-3zm-7 9h8v8h-8zm0 9h6v8h-6z" stroke="#787870" fill="#f0f0e1"/>"     "     "     <path d="M714 449h3v7h-3zm-7 9h8v8h-8zm0 9h7v8h-7z" fill="#f0f0e2" stroke="#787871"/>"     "     "     <path d="M707 476h9v7h-9zm0 8h8v7h-8z" stroke="#787871" fill="#f0f0e3"/>"     "     <path d="M707 492h7v7h-7zm0 8h6v7h-6zm7 0h3v7h-3z" fill="#f0f0e4" stroke="#787872"/>"     "     "     <path d="M707 508h7v4h-7zm11-307h5v7h-5zm6 0h8v5h-8z" stroke="#787872" fill="#f0f0e5"/>"     "     "     <path d="M733 201h8v7h-8zm9 0h8v5h-8z" fill="#f0f0e6" stroke="#787873"/>"     "     <path d="M751 201h7v5h-7zm8 0h7v5h-7zm8 0h7v6h-7z" stroke="#787873" fill="#f0f0e7"/>"     "     "     <path d="M775 201h6v3h-6zm0 4h6v3h-6zm7-4h6v7h-6z" fill="#f0f0e8" stroke="#787874"/>"     "     "     <path d="M789 201h6v3h-6zm0 4h6v3h-6z" stroke="#787874" fill="#f0f0e9"/>"     "     <path d="M796 201h6v3h-6zm0 4h5v3h-5zm7-4h6v7h-6z" fill="#f0f0ea" stroke="#787875"/>"     "     "     <path d="M810 201h6v6h-6zm7 0h5v6h-5zm6 0h5v7h-5z" stroke="#787875" fill="#f0f0eb"/>"     "     "     <path d="M829 201h5v7h-5zm6 0h5v5h-5z" fill="#f0f0ec" stroke="#787876"/>"     "     <path d="M841 201h5v6h-5zm6 0h5v4h-5zm6 0h5v5h-5z" stroke="#787876" fill="#f0f0ed"/>"     "     "     <path d="M859 201h4v7h-4zm5 0h4v5h-4zm5 0h4v5h-4z" fill="#f0f0ee" stroke="#787877"/>"     "     "     <path d="M874 201h4v5h-4zm5 0h4v7h-4z" stroke="#787877" fill="#f0f0ef"/>"     "     <text y="526" font-size="12" fill="#000" x="0"> MaxRectsBin(size: 1024x512, choice: BestLongSideFit, method: ShorterAxis): inserted 1536 of 1536 rectangles with w/h lengths between [2, 31], occupancy: 80.22% </text></svg>