<svg xmlns="http://www.w3.org/2000/svg" viewBox="0 0 1024 536" xmlns:v="https://vecta.io/nano"><path d="M0 0h1024v512H0z" fill="#fff" stroke="#000"/>"     <path d="M1 1h30v19H1zm31 0h30v14H32zm31 0h30v14H63z" fill="#303030" stroke="#181818"/>"     "     "     <path d="M94 1h30v2H94zm31 0h30v2h-30zm31 0h30v2h-30z" stroke="#181818" fill="#303130"/>"     "     "     <path d="M187 1h30v1h-30zm31 0h28v1h-28z" fill="#303230" stroke="#181918"/>"     "     <path d="M247 1h28v1h-28zm29 0h27v1h-27zm28 0h27v1h-27z" stroke="#181918" fill="#303330"/>"     "     "     <path d="M332 1h27v1h-27zm28 0h27v1h-27z" fill="#303430" stroke="#181a18"/>"     "     <path d="M388 1h23v1h-23zm24 0h23v1h-23zm24 0h23v1h-23z" stroke="#181a18" fill="#303530"/>"     "     "     <path d="M460 1h22v1h-22zm23 0h22v1h-22z" fill="#303630" stroke="#181b18"/>"     "     <path d="M506 1h21v1h-21zm22 0h20v1h-20zm21 0h19v1h-19z" stroke="#181b18" fill="#303730"/>"     "     "     <path d="M569 1h19v1h-19zm20 0h19v1h-19z" fill="#303830" stroke="#181c18"/>"     "     <path d="M609 1h19v1h-19zm20 0h18v1h-18zm19 0h17v1h-17z" stroke="#181c18" fill="#303930"/>"     "     "     <path d="M666 1h16v1h-16zm17 0h15v1h-15z" fill="#303a30" stroke="#181d18"/>"     "     <path d="M699 1h15v1h-15zm16 0h14v1h-14zm15 0h13v1h-13z" stroke="#181d18" fill="#303b30"/>"     "     "     <path d="M744 1h12v1h-12zm13 0h12v1h-12z" fill="#303c30" stroke="#181e18"/>"     "     <path d="M770 1h12v1h-12zm13 0h12v1h-12zm13 0h12v1h-12z" stroke="#181e18" fill="#303d30"/>"     "     "     <path d="M809 1h12v1h-12zm13 0h11v1h-11z" fill="#303e30" stroke="#181f18"/>"     "     <path d="M834 1h11v1h-11zm12 0h10v1h-10zm11 0h10v1h-10z" stroke="#181f18" fill="#303f30"/>"     "     "     <path d="M868 1h7v1h-7zm8 0h6v1h-6z" fill="#304030" stroke="#182018"/>"     "     <path d="M883 1h6v1h-6zm7 0h5v1h-5zm6 0h5v1h-5z" stroke="#182018" fill="#304130"/>"     "     "     <path d="M902 1h5v1h-5zm6 0h5v1h-5z" fill="#304230" stroke="#182118"/>"     "     <path d="M914 1h4v1h-4zm5 0h3v1h-3zm4 0h3v1h-3z" stroke="#182118" fill="#304330"/>"     "     "     <path d="M927 1h2v1h-2zm3 0h2v1h-2z" fill="#304430" stroke="#182218"/>"     "     <path d="M933 1h2v1h-2zm3 0h13v1h-13zm14 0h15v1h-15z" stroke="#182218" fill="#304530"/>"     "     "     <path d="M966 1h7v1h-7zm8 0h15v1h-15z" fill="#304630" stroke="#182318"/>"     "     <path d="M990 1h12v1h-12zm13 0h21v1h-21zM94 4h30v6H94z" stroke="#182318" fill="#304730"/>"     "     "     <path d="M125 4h30v4h-30zm31 0h30v3h-30z" fill="#304830" stroke="#182418"/>"     "     <path d="M187 3h30v3h-30zm31 0h30v3h-30zm31 0h30v3h-30z" stroke="#182418" fill="#304930"/>"     "     "     <path d="M280 3h29v3h-29zm30 0h29v3h-29z" fill="#304a30" stroke="#182518"/>"     "     <path d="M340 3h29v2h-29zm30 0h28v2h-28zm29 0h28v2h-28z" stroke="#182518" fill="#304b30"/>"     "     "     <path d="M428 3h27v2h-27zm28 0h26v2h-26z" fill="#304c30" stroke="#182618"/>"     "     <path d="M483 3h26v2h-26zm27 0h25v2h-25zm26 0h24v2h-24z" stroke="#182618" fill="#304d30"/>"     "     "     <path d="M561 3h24v2h-24zm25 0h23v2h-23z" fill="#304e30" stroke="#182718"/>"     "     <path d="M610 3h21v2h-21zm22 0h21v2h-21zm22 0h21v2h-21z" stroke="#182718" fill="#304f30"/>"     "     "     <path d="M676 3h21v2h-21zm22 0h20v2h-20zm21 0h19v2h-19z" fill="#305030" stroke="#182818"/>"     "     "     <path d="M739 3h19v2h-19zm20 0h19v2h-19z" stroke="#182818" fill="#305130"/>"     "     <path d="M779 3h19v2h-19zm20 0h19v2h-19zm20 0h18v2h-18z" fill="#305230" stroke="#182918"/>"     "     "     <path d="M838 3h18v2h-18zm19 0h18v2h-18z" stroke="#182918" fill="#305330"/>"     "     <path d="M876 3h18v2h-18zm19 0h17v2h-17zm18 0h16v2h-16z" fill="#305430" stroke="#182a18"/>"     "     "     <path d="M930 3h15v2h-15zm16 0h14v2h-14z" stroke="#182a18" fill="#305530"/>"     "     <path d="M961 3h14v2h-14zm15 0h13v2h-13zm14 0h13v2h-13z" fill="#305630" stroke="#182b18"/>"     "     "     <path d="M1004 3h20v2h-20zM125 9h23v1h-23z" stroke="#182b18" fill="#305730"/>"     "     <path d="M149 9h22v1h-22zm23 0h23v1h-23zm24 0h27v1h-27z" fill="#305830" stroke="#182c18"/>"     "     "     <path d="M224 9h3v1h-3zm4 0h17v1h-17z" stroke="#182c18" fill="#305930"/>"     "     <path d="M246 9h30v1h-30zm31 0h17v1h-17zm18 0h14v1h-14z" fill="#305a30" stroke="#182d18"/>"     "     "     <path d="M310 9h12v1h-12zm13 0h14v1h-14z" stroke="#182d18" fill="#305b30"/>"     "     <path d="M338 9h19v1h-19zm20 0h20v1h-20zm21 0h4v1h-4z" fill="#305c30" stroke="#182e18"/>"     "     "     <path d="M384 9h21v1h-21zm22 0h16v1h-16z" stroke="#182e18" fill="#305d30"/>"     "     <path d="M423 9h21v1h-21zm22 0h19v1h-19zm20 0h8v1h-8z" fill="#305e30" stroke="#182f18"/>"     "     "     <path d="M474 9h12v1h-12zm13 0h19v1h-19z" stroke="#182f18" fill="#305f30"/>"     "     <path d="M507 9h14v1h-14zm15 0h4v1h-4zm5 0h15v1h-15z" fill="#306030" stroke="#183018"/>"     "     "     <path d="M543 9h11v1h-11zm12 0h15v1h-15z" stroke="#183018" fill="#306130"/>"     "     <path d="M571 9h3v1h-3zm4 0h24v1h-24zm25 0h15v1h-15z" fill="#306230" stroke="#183118"/>"     "     "     <path d="M616 9h1v1h-1zm2 0h13v1h-13z" stroke="#183118" fill="#306330"/>"     "     <path d="M632 9h3v1h-3zm4 0h26v1h-26zm27 0h23v1h-23z" fill="#306430" stroke="#183218"/>"     "     "     <path d="M687 9h22v1h-22zm23 0h26v1h-26z" stroke="#183218" fill="#306530"/>"     "     <path d="M737 9h2v1h-2zm3 0h14v1h-14zm15 0h4v1h-4z" fill="#306630" stroke="#183318"/>"     "     "     <path d="M760 9h7v1h-7zm8 0h26v1h-26z" stroke="#183318" fill="#306730"/>"     "     <path d="M795 9h7v1h-7zm8 0h6v1h-6zM94 11h30v4H94z" fill="#306830" stroke="#183418"/>"     "     "     <path d="M125 11h29v4h-29zm30 0h29v4h-29z" stroke="#183418" fill="#306930"/>"     "     <path d="M185 11h28v3h-28zm29 0h28v3h-28zm29 0h27v3h-27z" fill="#306a30" stroke="#183518"/>"     "     "     <path d="M271 11h27v3h-27zm28 0h25v3h-25z" stroke="#183518" fill="#306b30"/>"     "     <path d="M325 11h25v3h-25zm26 0h25v3h-25zm26 0h24v3h-24z" fill="#306c30" stroke="#183618"/>"     "     "     <path d="M402 11h23v3h-23zm24 0h23v3h-23z" stroke="#183618" fill="#306d30"/>"     "     <path d="M450 11h22v3h-22zm23 0h21v3h-21zm22 0h20v3h-20z" fill="#306e30" stroke="#183718"/>"     "     "     <path d="M516 11h20v3h-20zm21 0h20v3h-20z" stroke="#183718" fill="#306f30"/>"     "     <path d="M558 11h18v3h-18zm19 0h18v3h-18zm19 0h18v3h-18z" fill="#307030" stroke="#183818"/>"     "     "     <path d="M615 11h17v3h-17zm18 0h17v3h-17zm18 0h15v3h-15z" stroke="#183818" fill="#307130"/>"     "     "     <path d="M667 11h14v3h-14zm15 0h13v2h-13z" fill="#307230" stroke="#183918"/>"     "     <path d="M696 11h12v2h-12zm13 0h12v2h-12zm13 0h11v2h-11z" stroke="#183918" fill="#307330"/>"     "     "     <path d="M734 11h10v2h-10zm11 0h9v2h-9z" fill="#307430" stroke="#183a18"/>"     "     <path d="M755 11h9v2h-9zm10 0h9v2h-9zm10 0h8v2h-8z" stroke="#183a18" fill="#307530"/>"     "     "     <path d="M784 11h7v2h-7zm8 0h6v2h-6z" fill="#307630" stroke="#183b18"/>"     "     <path d="M799 11h6v2h-6zm7 0h6v2h-6zm7 0h5v2h-5z" stroke="#183b18" fill="#307730"/>"     "     "     <path d="M819 11h5v2h-5zm6 0h5v2h-5z" fill="#307830" stroke="#183c18"/>"     "     <path d="M831 11h3v2h-3zm4 0h3v2h-3zm4 0h28v2h-28z" stroke="#183c18" fill="#307930"/>"     "     "     <path d="M868 11h14v2h-14zm15 0h28v2h-28z" fill="#307a30" stroke="#183d18"/>"     "     <path d="M912 11h18v2h-18zm19 0h12v2h-12zm13 0h21v2h-21z" stroke="#183d18" fill="#307b30"/>"     "     "     <path d="M966 11h6v2h-6zm7 0h6v2h-6z" fill="#307c30" stroke="#183e18"/>"     "     <path d="M980 11h24v2h-24zm25 0h19v2h-19zM32 16h26v4H32z" stroke="#183e18" fill="#307d30"/>"     "     "     <path d="M59 16h26v4H59zm27 0h24v4H86z" fill="#307e30" stroke="#183f18"/>"     "     <path d="M111 16h23v4h-23zm24 0h22v4h-22zm23 0h22v4h-22z" stroke="#183f18" fill="#307f30"/>"     "     "     <path d="M181 16h22v4h-22zm23 0h22v4h-22z" fill="#308030" stroke="#184018"/>"     "     <path d="M227 16h22v4h-22zm23 0h22v4h-22zm23 0h21v4h-21z" stroke="#184018" fill="#308130"/>"     "     "     <path d="M295 16h19v4h-19zm20 0h19v4h-19z" fill="#308230" stroke="#184118"/>"     "     <path d="M335 16h16v4h-16zm17 0h16v4h-16zm17 0h16v4h-16z" stroke="#184118" fill="#308330"/>"     "     "     <path d="M386 16h15v4h-15zm16 0h15v4h-15z" fill="#308430" stroke="#184218"/>"     "     <path d="M418 16h14v4h-14zm15 0h13v4h-13zm14 0h13v3h-13z" stroke="#184218" fill="#308530"/>"     "     "     <path d="M461 16h13v3h-13zm14 0h13v3h-13z" fill="#308630" stroke="#184318"/>"     "     <path d="M489 16h12v3h-12zm13 0h12v3h-12zm13 0h11v3h-11z" stroke="#184318" fill="#308730"/>"     "     "     <path d="M527 16h11v3h-11zm12 0h9v3h-9z" fill="#308830" stroke="#184418"/>"     "     <path d="M549 16h9v3h-9zm10 0h8v3h-8zm9 0h7v3h-7z" stroke="#184418" fill="#308930"/>"     "     "     <path d="M576 16h7v3h-7zm8 0h6v3h-6z" fill="#308a30" stroke="#184518"/>"     "     <path d="M591 16h6v3h-6zm7 0h6v3h-6zm7 0h6v3h-6z" stroke="#184518" fill="#308b30"/>"     "     "     <path d="M612 16h5v3h-5zm6 0h4v3h-4z" fill="#308c30" stroke="#184618"/>"     "     <path d="M623 16h17v3h-17zm18 0h18v3h-18zm19 0h18v3h-18z" stroke="#184618" fill="#308d30"/>"     "     "     <path d="M679 16h10v3h-10zm11 0h13v3h-13z" fill="#308e30" stroke="#184718"/>"     "     <path d="M704 16h28v3h-28zm29 0h8v3h-8zm9 0h26v3h-26z" stroke="#184718" fill="#308f30"/>"     "     "     <path d="M769 16h30v3h-30zm31 0h30v3h-30zm31 0h10v3h-10z" fill="#309030" stroke="#184818"/>"     "     "     <path d="M842 16h25v3h-25zm26 0h25v3h-25z" stroke="#184818" fill="#309130"/>"     "     <path d="M894 16h24v3h-24zm25 0h26v3h-26zm27 0h27v3h-27z" fill="#309230" stroke="#184918"/>"     "     "     <path d="M974 16h16v3h-16zm17 0h17v3h-17z" stroke="#184918" fill="#309330"/>"     "     <path d="M1009 16h15v3h-15zM1 21h30v13H1zm31 0h30v13H32z" fill="#309430" stroke="#184a18"/>"     "     "     <path d="M63 21h30v5H63zm31 0h29v5H94z" stroke="#184a18" fill="#309530"/>"     "     <path d="M124 21h29v5h-29zm30 0h29v5h-29zm30 0h28v5h-28z" fill="#309630" stroke="#184b18"/>"     "     "     <path d="M213 21h28v5h-28zm29 0h28v5h-28z" stroke="#184b18" fill="#309730"/>"     "     <path d="M271 21h28v5h-28zm29 0h26v5h-26zm27 0h25v5h-25z" fill="#309830" stroke="#184c18"/>"     "     "     <path d="M353 21h24v5h-24zm25 0h23v5h-23z" stroke="#184c18" fill="#309930"/>"     "     <path d="M402 21h23v5h-23zm24 0h22v5h-22zm23 0h22v5h-22z" fill="#309a30" stroke="#184d18"/>"     "     "     <path d="M472 21h22v5h-22zm23 0h21v5h-21z" stroke="#184d18" fill="#309b30"/>"     "     <path d="M517 21h21v5h-21zm22 0h20v5h-20zm21 0h19v5h-19z" fill="#309c30" stroke="#184e18"/>"     "     "     <path d="M580 21h16v5h-16zm17 0h15v5h-15z" stroke="#184e18" fill="#309d30"/>"     "     <path d="M613 21h15v5h-15zm16 0h15v5h-15zm16 0h14v5h-14z" fill="#309e30" stroke="#184f18"/>"     "     "     <path d="M660 21h13v4h-13zm14 0h13v4h-13z" stroke="#184f18" fill="#309f30"/>"     "     <path d="M688 21h11v4h-11zm12 0h11v4h-11zm12 0h10v4h-10z" fill="#30a030" stroke="#185018"/>"     "     "     <path d="M723 21h9v4h-9zm10 0h9v4h-9z" stroke="#185018" fill="#30a130"/>"     "     <path d="M743 21h8v4h-8zm9 0h7v4h-7zm8 0h7v4h-7z" fill="#30a230" stroke="#185118"/>"     "     "     <path d="M768 21h6v4h-6zm7 0h5v4h-5z" stroke="#185118" fill="#30a330"/>"     "     <path d="M781 21h5v4h-5zm6 0h25v4h-25zm26 0h9v4h-9z" fill="#30a430" stroke="#185218"/>"     "     "     <path d="M823 21h5v4h-5zm6 0h22v4h-22z" stroke="#185218" fill="#30a530"/>"     "     <path d="M852 21h28v4h-28zm29 0h30v4h-30zm31 0h26v4h-26z" fill="#30a630" stroke="#185318"/>"     "     "     <path d="M939 21h9v4h-9zm10 0h12v4h-12z" stroke="#185318" fill="#30a730"/>"     "     <path d="M962 21h18v4h-18zm19 0h17v4h-17zm18 0h25v4h-25z" fill="#30a830" stroke="#185418"/>"     "     "     <path d="M63 27h30v6H63zm31 0h30v6H94z" stroke="#185418" fill="#30a930"/>"     "     <path d="M125 27h29v6h-29zm30 0h27v6h-27zm28 0h27v6h-27z" fill="#30aa30" stroke="#185518"/>"     "     "     <path d="M211 27h27v6h-27zm28 0h26v6h-26z" stroke="#185518" fill="#30ab30"/>"     "     <path d="M266 27h26v6h-26zm27 0h26v6h-26zm27 0h25v6h-25z" fill="#30ac30" stroke="#185618"/>"     "     "     <path d="M346 27h25v6h-25zm26 0h25v6h-25z" stroke="#185618" fill="#30ad30"/>"     "     <path d="M398 27h24v6h-24zm25 0h24v6h-24zm25 0h24v6h-24z" fill="#30ae30" stroke="#185718"/>"     "     "     <path d="M473 27h22v6h-22zm23 0h22v6h-22z" stroke="#185718" fill="#30af30"/>"     "     <path d="M519 27h20v6h-20zm21 0h20v6h-20zm21 0h20v6h-20z" fill="#30b030" stroke="#185818"/>"     "     "     <path d="M582 27h19v6h-19zm20 0h18v6h-18zm19 0h17v6h-17z" stroke="#185818" fill="#30b130"/>"     "     "     <path d="M639 27h16v6h-16zm17 0h16v6h-16z" fill="#30b230" stroke="#185918"/>"     "     <path d="M673 27h16v6h-16zm17 0h15v6h-15zm16 0h13v6h-13z" stroke="#185918" fill="#30b330"/>"     "     "     <path d="M720 27h13v6h-13zm14 0h12v5h-12z" fill="#30b430" stroke="#185a18"/>"     "     <path d="M747 27h12v5h-12zm13 0h11v5h-11zm12 0h11v5h-11z" stroke="#185a18" fill="#30b530"/>"     "     "     <path d="M784 27h10v5h-10zm11 0h9v5h-9z" fill="#30b630" stroke="#185b18"/>"     "     <path d="M805 27h8v5h-8zm9 0h8v5h-8zm9 0h7v5h-7z" stroke="#185b18" fill="#30b730"/>"     "     "     <path d="M831 27h7v5h-7zm8 0h23v5h-23z" fill="#30b830" stroke="#185c18"/>"     "     <path d="M863 27h23v5h-23zm24 0h22v5h-22zm23 0h12v5h-12z" stroke="#185c18" fill="#30b930"/>"     "     "     <path d="M923 27h24v5h-24zm25 0h14v5h-14z" fill="#30ba30" stroke="#185d18"/>"     "     <path d="M963 27h27v5h-27zm28 0h25v5h-25zm26 0h7v5h-7z" stroke="#185d18" fill="#30bb30"/>"     "     "     <path d="M1 35h30v26H1zm31 0h30v19H32z" fill="#30bc30" stroke="#185e18"/>"     "     <path d="M63 34h30v15H63zm31 0h30v12H94zm31 0h30v11h-30z" stroke="#185e18" fill="#30bd30"/>"     "     "     <path d="M156 34h30v9h-30zm31 0h30v7h-30z" fill="#30be30" stroke="#185f18"/>"     "     <path d="M218 34h29v7h-29zm30 0h29v7h-29zm30 0h28v7h-28z" stroke="#185f18" fill="#30bf30"/>"     "     "     <path d="M307 34h28v7h-28zm29 0h27v7h-27z" fill="#30c030" stroke="#186018"/>"     "     <path d="M364 34h26v7h-26zm27 0h26v7h-26zm27 0h26v7h-26z" stroke="#186018" fill="#30c130"/>"     "     "     <path d="M445 34h26v7h-26zm27 0h26v7h-26z" fill="#30c230" stroke="#186118"/>"     "     <path d="M499 34h25v7h-25zm26 0h25v7h-25zm26 0h25v7h-25z" stroke="#186118" fill="#30c330"/>"     "     "     <path d="M577 34h25v7h-25zm26 0h25v7h-25z" fill="#30c430" stroke="#186218"/>"     "     <path d="M629 34h24v7h-24zm25 0h24v7h-24zm25 0h24v7h-24z" stroke="#186218" fill="#30c530"/>"     "     "     <path d="M704 34h23v7h-23zm24 0h23v7h-23z" fill="#30c630" stroke="#186318"/>"     "     <path d="M752 34h23v7h-23zm24 0h22v7h-22zm23 0h22v7h-22z" stroke="#186318" fill="#30c730"/>"     "     "     <path d="M822 34h22v7h-22zm23 0h21v7h-21z" fill="#30c830" stroke="#186418"/>"     "     <path d="M867 34h20v7h-20zm21 0h20v7h-20zm21 0h19v7h-19z" stroke="#186418" fill="#30c930"/>"     "     "     <path d="M929 34h19v7h-19zm20 0h19v7h-19z" fill="#30ca30" stroke="#186518"/>"     "     <path d="M969 34h18v7h-18zm19 0h17v7h-17zm18 0h18v7h-18z" stroke="#186518" fill="#30cb30"/>"     "     "     <path d="M94 47h27v2H94zm28 0h23v2h-23z" fill="#30cc30" stroke="#186618"/>"     "     <path d="M146 47h5v2h-5zm6 0h2v2h-2zm3 0h23v2h-23z" stroke="#186618" fill="#30cd30"/>"     "     "     <path d="M179 47h21v2h-21zm22 0h24v2h-24z" fill="#30ce30" stroke="#186718"/>"     "     <path d="M226 47h15v2h-15zm16 0h7v2h-7zm8 0h8v2h-8z" stroke="#186718" fill="#30cf30"/>"     "     "     <path d="M259 47h3v2h-3zm4 0h13v2h-13zm14 0h7v2h-7z" fill="#30d030" stroke="#186818"/>"     "     "     <path d="M285 47h22v2h-22zm23 0h30v2h-30z" stroke="#186818" fill="#30d130"/>"     "     <path d="M339 47h25v2h-25zm26 0h23v2h-23zm24 0h11v2h-11z" fill="#30d230" stroke="#186918"/>"     "     "     <path d="M401 47h13v2h-13zm14 0h14v2h-14z" stroke="#186918" fill="#30d330"/>"     "     <path d="M430 47h9v2h-9zm10 0h15v2h-15zm16 0h22v2h-22z" fill="#30d430" stroke="#186a18"/>"     "     "     <path d="M479 47h5v2h-5zm6 0h5v2h-5z" stroke="#186a18" fill="#30d530"/>"     "     <path d="M491 47h2v2h-2zm3 0h21v2h-21zm22 0h20v2h-20z" fill="#30d630" stroke="#186b18"/>"     "     "     <path d="M537 47h10v2h-10zm11 0h24v2h-24z" stroke="#186b18" fill="#30d730"/>"     "     <path d="M63 50h13v4H63zm14 0h18v4H77zm19 0h11v4H96z" fill="#30d830" stroke="#186c18"/>"     "     "     <path d="M108 50h12v4h-12zm13 0h5v4h-5z" stroke="#186c18" fill="#30d930"/>"     "     <path d="M127 50h29v4h-29zm30 0h9v4h-9zm10 0h23v4h-23z" fill="#30da30" stroke="#186d18"/>"     "     "     <path d="M191 50h28v4h-28zm29 0h26v4h-26z" stroke="#186d18" fill="#30db30"/>"     "     <path d="M247 50h24v4h-24zm25 0h17v4h-17zm18 0h17v4h-17z" fill="#30dc30" stroke="#186e18"/>"     "     "     <path d="M308 50h7v4h-7zm8 0h7v4h-7z" stroke="#186e18" fill="#30dd30"/>"     "     <path d="M324 50h14v4h-14zm15 0h27v4h-27zm28 0h8v4h-8z" fill="#30de30" stroke="#186f18"/>"     "     "     <path d="M376 50h5v4h-5zm6 0h20v3h-20z" stroke="#186f18" fill="#30df30"/>"     "     <path d="M403 50h19v3h-19zm20 0h11v3h-11zm12 0h26v3h-26z" fill="#30e030" stroke="#187018"/>"     "     "     <path d="M462 50h29v3h-29zm30 0h6v3h-6z" stroke="#187018" fill="#30e130"/>"     "     <path d="M499 50h7v3h-7zm8 0h27v3h-27zm28 0h28v3h-28z" fill="#30e230" stroke="#187118"/>"     "     "     <path d="M564 50h12v3h-12zm13 0h5v3h-5z" stroke="#187118" fill="#30e330"/>"     "     <path d="M583 50h13v3h-13zm14 0h10v3h-10zm11 0h19v3h-19z" fill="#30e430" stroke="#187218"/>"     "     "     <path d="M628 50h21v3h-21zm22 0h8v3h-8z" stroke="#187218" fill="#30e530"/>"     "     <path d="M659 50h14v3h-14zm15 0h4v3h-4zm5 0h27v3h-27z" fill="#30e630" stroke="#187318"/>"     "     "     <path d="M707 50h23v3h-23zm24 0h14v3h-14z" stroke="#187318" fill="#30e730"/>"     "     <path d="M746 50h9v3h-9zm10 0h26v3h-26zm27 0h24v3h-24z" fill="#30e830" stroke="#187418"/>"     "     "     <path d="M808 50h30v3h-30zm31 0h10v3h-10z" stroke="#187418" fill="#30e930"/>"     "     <path d="M850 50h11v3h-11zm12 0h12v3h-12zm13 0h13v3h-13z" fill="#30ea30" stroke="#187518"/>"     "     "     <path d="M889 50h18v3h-18zm19 0h28v3h-28z" stroke="#187518" fill="#30eb30"/>"     "     <path d="M937 50h26v3h-26zm27 0h8v3h-8zm9 0h29v3h-29z" fill="#30ec30" stroke="#187618"/>"     "     "     <path d="M1003 50h13v3h-13zm14 0h6v3h-6z" stroke="#187618" fill="#30ed30"/>"     "     <path d="M32 55h11v6H32zm12 0h11v6H44zm12 0h11v6H56z" fill="#30ee30" stroke="#187718"/>"     "     "     <path d="M68 55h11v6H68zm12 0h10v6H80z" stroke="#187718" fill="#30ef30"/>"     "     <path d="M91 55h7v6h-7zm8 0h18v6H99zm19 0h18v6h-18z" fill="#30f030" stroke="#187818"/>"     "     "     <path d="M137 55h10v6h-10zm11 0h26v6h-26zm27 0h14v6h-14z" stroke="#187818" fill="#31f030"/>"     "     "     <path d="M190 55h19v6h-19zm20 0h9v6h-9z" fill="#32f030" stroke="#197818"/>"     "     <path d="M220 55h10v6h-10zm11 0h6v6h-6zm7 0h13v6h-13z" stroke="#197818" fill="#33f030"/>"     "     "     <path d="M252 55h10v6h-10zm11 0h7v6h-7z" fill="#34f030" stroke="#1a7818"/>"     "     <path d="M271 55h12v6h-12zm13 0h27v6h-27zm28 0h7v6h-7z" stroke="#1a7818" fill="#35f030"/>"     "     "     <path d="M320 55h29v6h-29zm30 0h14v6h-14z" fill="#36f030" stroke="#1b7818"/>"     "     <path d="M365 55h29v6h-29zm30 0h8v6h-8zm9 0h14v6h-14z" stroke="#1b7818" fill="#37f030"/>"     "     "     <path d="M419 55h15v6h-15zm16 0h7v6h-7z" fill="#38f030" stroke="#1c7818"/>"     "     <path d="M443 55h8v6h-8zm9 0h23v6h-23zm24 0h27v6h-27z" stroke="#1c7818" fill="#39f030"/>"     "     "     <path d="M504 55h20v6h-20zm21 0h23v6h-23z" fill="#3af030" stroke="#1d7818"/>"     "     <path d="M549 55h13v6h-13zm14 0h21v6h-21zm22 0h19v6h-19z" stroke="#1d7818" fill="#3bf030"/>"     "     "     <path d="M605 55h21v6h-21zm22 0h18v6h-18z" fill="#3cf030" stroke="#1e7818"/>"     "     <path d="M646 55h22v6h-22zm23 0h19v5h-19zm20 0h28v5h-28z" stroke="#1e7818" fill="#3df030"/>"     "     "     <path d="M718 55h13v5h-13zm14 0h16v5h-16z" fill="#3ef030" stroke="#1f7818"/>"     "     <path d="M749 55h15v5h-15zm16 0h22v5h-22zm23 0h23v5h-23z" stroke="#1f7818" fill="#3ff030"/>"     "     "     <path d="M812 55h11v5h-11zm12 0h20v5h-20z" fill="#40f030" stroke="#207818"/>"     "     <path d="M845 55h30v5h-30zm31 0h6v5h-6zm7 0h29v5h-29z" stroke="#207818" fill="#41f030"/>"     "     "     <path d="M913 55h15v5h-15zm16 0h23v5h-23z" fill="#42f030" stroke="#217818"/>"     "     <path d="M953 55h13v5h-13zm14 0h5v5h-5zm6 0h7v5h-7z" stroke="#217818" fill="#43f030"/>"     "     "     <path d="M981 55h23v5h-23zm24 0h19v5h-19z" fill="#44f030" stroke="#227818"/>"     "     <path d="M1 62h30v27H1zm31 0h30v27H32zm31 0h30v18H63z" stroke="#227818" fill="#45f030"/>"     "     "     <path d="M94 62h30v18H94zm31 0h30v17h-30z" fill="#46f030" stroke="#237818"/>"     "     <path d="M156 62h30v11h-30zm31 0h30v10h-30zm31 0h29v9h-29z" stroke="#237818" fill="#47f030"/>"     "     "     <path d="M248 62h29v8h-29zm30 0h29v8h-29z" fill="#48f030" stroke="#247818"/>"     "     <path d="M308 62h28v8h-28zm29 0h28v8h-28zm29 0h28v8h-28z" stroke="#247818" fill="#49f030"/>"     "     "     <path d="M395 62h28v8h-28zm29 0h28v8h-28z" fill="#4af030" stroke="#257818"/>"     "     <path d="M453 62h27v8h-27zm28 0h27v8h-27zm28 0h27v8h-27z" stroke="#257818" fill="#4bf030"/>"     "     "     <path d="M537 62h25v8h-25zm26 0h24v8h-24z" fill="#4cf030" stroke="#267818"/>"     "     <path d="M588 62h24v8h-24zm25 0h24v8h-24zm25 0h24v8h-24z" stroke="#267818" fill="#4df030"/>"     "     "     <path d="M663 62h24v8h-24zm25 0h23v8h-23z" fill="#4ef030" stroke="#277818"/>"     "     <path d="M712 62h23v8h-23zm24 0h23v8h-23zm24 0h23v8h-23z" stroke="#277818" fill="#4ff030"/>"     "     "     <path d="M784 62h22v8h-22zm23 0h22v8h-22zm23 0h20v8h-20z" fill="#50f030" stroke="#287818"/>"     "     "     <path d="M851 62h20v8h-20zm21 0h17v8h-17z" stroke="#287818" fill="#51f030"/>"     "     <path d="M890 62h17v8h-17zm18 0h17v8h-17zm18 0h17v8h-17z" fill="#52f030" stroke="#297818"/>"     "     "     <path d="M944 62h16v8h-16zm17 0h16v8h-16z" stroke="#297818" fill="#53f030"/>"     "     <path d="M978 62h16v8h-16zm17 0h29v8h-29zM156 74h14v5h-14z" fill="#54f030" stroke="#2a7818"/>"     "     "     <path d="M171 74h16v5h-16zm17 0h15v5h-15z" stroke="#2a7818" fill="#55f030"/>"     "     <path d="M204 74h30v5h-30zm31 0h20v5h-20zm21 0h5v5h-5z" fill="#56f030" stroke="#2b7818"/>"     "     "     <path d="M262 74h30v5h-30zm31 0h8v5h-8z" stroke="#2b7818" fill="#57f030"/>"     "     <path d="M302 74h18v5h-18zm19 0h24v5h-24zm25 0h15v5h-15z" fill="#58f030" stroke="#2c7818"/>"     "     "     <path d="M362 74h21v5h-21zm22 0h6v5h-6z" stroke="#2c7818" fill="#59f030"/>"     "     <path d="M391 74h27v5h-27zm28 0h30v5h-30zm31 0h22v5h-22z" fill="#5af030" stroke="#2d7818"/>"     "     "     <path d="M473 74h23v5h-23zm24 0h27v5h-27z" stroke="#2d7818" fill="#5bf030"/>"     "     <path d="M525 74h7v5h-7zm8 0h20v3h-20zm21 0h22v3h-22z" fill="#5cf030" stroke="#2e7818"/>"     "     "     <path d="M577 74h27v3h-27zm28 0h10v3h-10z" stroke="#2e7818" fill="#5df030"/>"     "     <path d="M616 74h22v3h-22zm23 0h15v3h-15zM63 81h16v7H63z" fill="#5ef030" stroke="#2f7818"/>"     "     "     <path d="M80 81h16v7H80zm17 0h16v7H97z" stroke="#2f7818" fill="#5ff030"/>"     "     <path d="M114 81h15v7h-15zm16 0h14v7h-14zm15 0h12v7h-12z" fill="#60f030" stroke="#307818"/>"     "     "     <path d="M158 81h12v7h-12zm13 0h10v7h-10z" stroke="#307818" fill="#61f030"/>"     "     <path d="M182 81h9v7h-9zm10 0h8v7h-8zm9 0h8v7h-8z" fill="#62f030" stroke="#317818"/>"     "     "     <path d="M210 81h28v7h-28zm29 0h30v7h-30z" stroke="#317818" fill="#63f030"/>"     "     <path d="M270 81h12v7h-12zm13 0h16v7h-16zm17 0h29v7h-29z" fill="#64f030" stroke="#327818"/>"     "     "     <path d="M330 81h24v7h-24zm25 0h21v7h-21z" stroke="#327818" fill="#65f030"/>"     "     <path d="M377 81h10v7h-10zm11 0h18v7h-18zm19 0h18v7h-18z" fill="#66f030" stroke="#337818"/>"     "     "     <path d="M426 81h27v7h-27zm28 0h23v7h-23z" stroke="#337818" fill="#67f030"/>"     "     <path d="M478 81h26v7h-26zm27 0h30v7h-30zm31 0h16v7h-16z" fill="#68f030" stroke="#347818"/>"     "     "     <path d="M553 81h28v7h-28zm29 0h7v7h-7z" stroke="#347818" fill="#69f030"/>"     "     <path d="M590 81h9v7h-9zm10 0h24v7h-24zm25 0h30v7h-30z" fill="#6af030" stroke="#357818"/>"     "     "     <path d="M656 81h25v7h-25zm26 0h29v7h-29z" stroke="#357818" fill="#6bf030"/>"     "     <path d="M712 81h12v7h-12zm13 0h29v7h-29zm30 0h22v7h-22z" fill="#6cf030" stroke="#367818"/>"     "     "     <path d="M778 81h21v7h-21zm22 0h12v7h-12z" stroke="#367818" fill="#6df030"/>"     "     <path d="M813 81h11v7h-11zm12 0h28v7h-28zm29 0h13v7h-13z" fill="#6ef030" stroke="#377818"/>"     "     "     <path d="M868 81h25v7h-25zm26 0h26v7h-26z" stroke="#377818" fill="#6ff030"/>"     "     <path d="M921 81h28v7h-28zm29 0h27v7h-27zm28 0h26v7h-26z" fill="#70f030" stroke="#387818"/>"     "     "     <path d="M1005 81h19v7h-19zM1 90h30v26H1zm31 0h30v22H32z" stroke="#387818" fill="#71f030"/>"     "     "     <path d="M63 89h30v14H63zm31 0h30v13H94z" fill="#72f030" stroke="#397818"/>"     "     <path d="M125 89h29v11h-29zm30 0h29v11h-29zm30 0h29v10h-29z" stroke="#397818" fill="#73f030"/>"     "     "     <path d="M215 89h29v10h-29zm30 0h28v10h-28z" fill="#74f030" stroke="#3a7818"/>"     "     <path d="M274 89h28v9h-28zm29 0h27v9h-27zm28 0h26v9h-26z" stroke="#3a7818" fill="#75f030"/>"     "     "     <path d="M358 89h25v9h-25zm26 0h24v9h-24z" fill="#76f030" stroke="#3b7818"/>"     "     <path d="M409 89h22v9h-22zm23 0h21v9h-21zm22 0h21v9h-21z" stroke="#3b7818" fill="#77f030"/>"     "     "     <path d="M476 89h20v9h-20zm21 0h20v9h-20z" fill="#78f030" stroke="#3c7818"/>"     "     <path d="M518 89h20v9h-20zm21 0h20v9h-20zm21 0h17v9h-17z" stroke="#3c7818" fill="#79f030"/>"     "     "     <path d="M578 89h16v8h-16zm17 0h16v8h-16z" fill="#7af030" stroke="#3d7818"/>"     "     <path d="M612 89h16v8h-16zm17 0h16v8h-16zm17 0h15v8h-15z" stroke="#3d7818" fill="#7bf030"/>"     "     "     <path d="M662 89h14v8h-14zm15 0h14v8h-14z" fill="#7cf030" stroke="#3e7818"/>"     "     <path d="M692 89h13v8h-13zm14 0h13v8h-13zm14 0h12v8h-12z" stroke="#3e7818" fill="#7df030"/>"     "     "     <path d="M733 89h12v8h-12zm13 0h11v8h-11z" fill="#7ef030" stroke="#3f7818"/>"     "     <path d="M758 89h11v8h-11zm12 0h11v8h-11zm12 0h10v8h-10z" stroke="#3f7818" fill="#7ff030"/>"     "     "     <path d="M793 89h27v8h-27zm28 0h25v8h-25z" fill="#80f030" stroke="#407818"/>"     "     <path d="M847 89h10v8h-10zm11 0h17v8h-17zm18 0h21v8h-21z" stroke="#407818" fill="#81f030"/>"     "     "     <path d="M898 89h19v8h-19zm20 0h25v8h-25z" fill="#82f030" stroke="#417818"/>"     "     <path d="M944 89h30v8h-30zm31 0h9v8h-9zm10 0h18v8h-18z" stroke="#417818" fill="#83f030"/>"     "     "     <path d="M1004 89h20v8h-20zM63 104h9v8h-9z" fill="#84f030" stroke="#427818"/>"     "     <path d="M73 104h21v8H73zm22 0h12v8H95zm13 0h9v8h-9z" stroke="#427818" fill="#85f030"/>"     "     "     <path d="M118 104h27v8h-27zm28 0h29v8h-29z" fill="#86f030" stroke="#437818"/>"     "     <path d="M176 104h23v8h-23zm24 0h17v8h-17zm18 0h15v8h-15z" stroke="#437818" fill="#87f030"/>"     "     "     <path d="M234 104h23v8h-23zm24 0h9v8h-9z" fill="#88f030" stroke="#447818"/>"     "     <path d="M268 104h24v8h-24zm25 0h18v8h-18zm19 0h12v8h-12z" stroke="#447818" fill="#89f030"/>"     "     "     <path d="M325 104h17v8h-17zm18 0h21v8h-21z" fill="#8af030" stroke="#457818"/>"     "     <path d="M365 104h21v8h-21zm22 0h8v8h-8zm9 0h17v8h-17z" stroke="#457818" fill="#8bf030"/>"     "     "     <path d="M414 104h8v8h-8zm9 0h26v8h-26z" fill="#8cf030" stroke="#467818"/>"     "     <path d="M450 104h28v8h-28zm29 0h13v8h-13zm14 0h26v8h-26z" stroke="#467818" fill="#8df030"/>"     "     "     <path d="M520 104h20v8h-20zm21 0h21v8h-21z" fill="#8ef030" stroke="#477818"/>"     "     <path d="M563 104h17v8h-17zm18 0h27v7h-27zm28 0h22v7h-22z" stroke="#477818" fill="#8ff030"/>"     "     "     <path d="M632 104h30v7h-30zm31 0h17v7h-17zm18 0h15v7h-15z" fill="#90f030" stroke="#487818"/>"     "     "     <path d="M697 104h14v7h-14zm15 0h14v7h-14z" stroke="#487818" fill="#91f030"/>"     "     <path d="M727 104h8v7h-8zm9 0h26v7h-26zm27 0h18v7h-18z" fill="#92f030" stroke="#497818"/>"     "     "     <path d="M782 104h8v7h-8zM1 117h30v20H1z" stroke="#497818" fill="#93f030"/>"     "     <path d="M32 113h30v19H32zm31 0h30v18H63zm31 0h30v17H94z" fill="#94f030" stroke="#4a7818"/>"     "     "     <path d="M125 113h29v16h-29zm30 0h29v12h-29z" stroke="#4a7818" fill="#95f030"/>"     "     <path d="M185 113h29v11h-29zm30 0h29v11h-29zm30 0h28v11h-28z" fill="#96f030" stroke="#4b7818"/>"     "     "     <path d="M274 113h28v11h-28zm29 0h27v11h-27z" stroke="#4b7818" fill="#97f030"/>"     "     <path d="M331 113h27v11h-27zm28 0h27v10h-27zm28 0h27v10h-27z" fill="#98f030" stroke="#4c7818"/>"     "     "     <path d="M415 113h26v10h-26zm27 0h26v10h-26z" stroke="#4c7818" fill="#99f030"/>"     "     <path d="M469 113h25v10h-25zm26 0h25v10h-25zm26 0h24v10h-24z" fill="#9af030" stroke="#4d7818"/>"     "     "     <path d="M546 113h24v10h-24zm25 0h24v10h-24z" stroke="#4d7818" fill="#9bf030"/>"     "     <path d="M596 113h24v10h-24zm25 0h24v10h-24zm25 0h23v10h-23z" fill="#9cf030" stroke="#4e7818"/>"     "     "     <path d="M670 113h22v10h-22zm23 0h21v10h-21z" stroke="#4e7818" fill="#9df030"/>"     "     <path d="M715 113h21v10h-21zm22 0h19v10h-19zm20 0h19v10h-19z" fill="#9ef030" stroke="#4f7818"/>"     "     "     <path d="M777 113h18v10h-18zm19 0h17v10h-17z" stroke="#4f7818" fill="#9ff030"/>"     "     <path d="M814 113h16v10h-16zm17 0h16v9h-16zm17 0h16v9h-16z" fill="#a0f030" stroke="#507818"/>"     "     "     <path d="M865 113h16v9h-16zm17 0h13v9h-13z" stroke="#507818" fill="#a1f030"/>"     "     <path d="M896 113h13v9h-13zm14 0h13v9h-13zm14 0h12v9h-12z" fill="#a2f030" stroke="#517818"/>"     "     "     <path d="M937 113h12v9h-12zm13 0h12v9h-12z" stroke="#517818" fill="#a3f030"/>"     "     <path d="M963 113h11v9h-11zm12 0h11v9h-11zm12 0h11v9h-11z" fill="#a4f030" stroke="#527818"/>"     "     "     <path d="M999 113h25v9h-25zM1 138h30v27H1z" stroke="#527818" fill="#a5f030"/>"     "     <path d="M32 133h30v25H32zm31-1h30v24H63zm31-1h30v19H94z" fill="#a6f030" stroke="#537818"/>"     "     "     <path d="M125 130h29v20h-29zm30-4h30v21h-30z" stroke="#537818" fill="#a7f030"/>"     "     <path d="M186 126h29v15h-29zm30 0h29v14h-29zm30 0h29v13h-29z" fill="#a8f030" stroke="#547818"/>"     "     "     <path d="M276 126h29v13h-29zm30 0h28v12h-28z" stroke="#547818" fill="#a9f030"/>"     "     <path d="M335 126h27v12h-27zm28 0h27v11h-27zm28 0h26v11h-26z" fill="#aaf030" stroke="#557818"/>"     "     "     <path d="M418 126h26v11h-26zm27 0h23v11h-23z" stroke="#557818" fill="#abf030"/>"     "     <path d="M469 126h23v11h-23zm24 0h22v11h-22zm23 0h22v11h-22z" fill="#acf030" stroke="#567818"/>"     "     "     <path d="M539 126h22v11h-22zm23 0h21v11h-21z" stroke="#567818" fill="#adf030"/>"     "     <path d="M584 126h21v11h-21zm22 0h20v11h-20zm21 0h20v11h-20z" fill="#aef030" stroke="#577818"/>"     "     "     <path d="M648 126h19v11h-19zm20 0h19v11h-19z" stroke="#577818" fill="#aff030"/>"     "     <path d="M688 126h19v11h-19zm20 0h19v11h-19zm20 0h18v11h-18z" fill="#b0f030" stroke="#587818"/>"     "     "     <path d="M747 126h18v11h-18zm19 0h17v11h-17zm18 0h17v11h-17z" stroke="#587818" fill="#b1f030"/>"     "     "     <path d="M802 126h16v11h-16zm17 0h16v10h-16z" fill="#b2f030" stroke="#597818"/>"     "     <path d="M836 126h15v10h-15zm16 0h15v10h-15zm16 0h15v10h-15z" stroke="#597818" fill="#b3f030"/>"     "     "     <path d="M884 126h14v10h-14zm15 0h14v10h-14z" fill="#b4f030" stroke="#5a7818"/>"     "     <path d="M914 126h14v10h-14zm15 0h14v10h-14zm15 0h13v10h-13z" stroke="#5a7818" fill="#b5f030"/>"     "     "     <path d="M958 126h13v10h-13zm14 0h12v10h-12z" fill="#b6f030" stroke="#5b7818"/>"     "     <path d="M985 126h11v10h-11zm12 0h11v10h-11zm12 0h15v10h-15z" stroke="#5b7818" fill="#b7f030"/>"     "     "     <path d="M1 166h30v27H1zm31-7h30v25H32z" fill="#b8f030" stroke="#5c7818"/>"     "     <path d="M63 157h29v22H63zm30 0h29v22H93zm30 0h29v16h-29z" stroke="#5c7818" fill="#b9f030"/>"     "     "     <path d="M153 157h29v16h-29zm30 0h29v16h-29z" fill="#baf030" stroke="#5d7818"/>"     "     <path d="M213 157h29v14h-29zm30 0h28v13h-28zm29 0h28v13h-28z" stroke="#5d7818" fill="#bbf030"/>"     "     "     <path d="M301 157h27v13h-27zm28 0h27v12h-27z" fill="#bcf030" stroke="#5e7818"/>"     "     <path d="M357 157h26v12h-26zm27 0h26v12h-26zm27 0h25v12h-25z" stroke="#5e7818" fill="#bdf030"/>"     "     "     <path d="M437 157h25v12h-25zm26 0h24v12h-24z" fill="#bef030" stroke="#5f7818"/>"     "     <path d="M488 157h24v12h-24zm25 0h23v12h-23zm24 0h23v12h-23z" stroke="#5f7818" fill="#bff030"/>"     "     "     <path d="M561 157h22v12h-22zm23 0h22v12h-22z" fill="#c0f030" stroke="#607818"/>"     "     <path d="M607 157h22v12h-22zm23 0h21v12h-21zm22 0h21v12h-21z" stroke="#607818" fill="#c1f030"/>"     "     "     <path d="M674 157h21v12h-21zm22 0h20v12h-20z" fill="#c2f030" stroke="#617818"/>"     "     <path d="M717 157h20v12h-20zm21 0h19v12h-19zm20 0h18v12h-18z" stroke="#617818" fill="#c3f030"/>"     "     "     <path d="M777 157h18v12h-18zm19 0h18v12h-18z" fill="#c4f030" stroke="#627818"/>"     "     <path d="M815 157h17v12h-17zm18 0h16v12h-16zm17 0h16v12h-16z" stroke="#627818" fill="#c5f030"/>"     "     "     <path d="M867 157h16v12h-16zm17 0h16v12h-16z" fill="#c6f030" stroke="#637818"/>"     "     <path d="M901 157h15v11h-15zm16 0h15v11h-15zm16 0h14v11h-14z" stroke="#637818" fill="#c7f030"/>"     "     "     <path d="M948 157h14v11h-14zm15 0h13v11h-13z" fill="#c8f030" stroke="#647818"/>"     "     <path d="M977 157h13v11h-13zm14 0h13v11h-13zm14 0h19v11h-19z" stroke="#647818" fill="#c9f030"/>"     "     "     <path d="M1 194h30v29H1zm31-9h29v24H32z" fill="#caf030" stroke="#657818"/>"     "     <path d="M62 185h29v22H62zm30 0h29v20H92zm30 0h29v19h-29z" stroke="#657818" fill="#cbf030"/>"     "     "     <path d="M152 185h29v19h-29zm30 0h29v15h-29z" fill="#ccf030" stroke="#667818"/>"     "     <path d="M212 185h29v15h-29zm30 0h27v15h-27zm28 0h27v14h-27z" stroke="#667818" fill="#cdf030"/>"     "     "     <path d="M298 185h27v14h-27zm28 0h27v13h-27z" fill="#cef030" stroke="#677818"/>"     "     <path d="M354 185h26v13h-26zm27 0h26v13h-26zm27 0h26v13h-26z" stroke="#677818" fill="#cff030"/>"     "     "     <path d="M435 185h22v13h-22zm23 0h21v13h-21zm22 0h20v13h-20z" fill="#d0f030" stroke="#687818"/>"     "     "     <path d="M501 185h19v13h-19zm20 0h17v13h-17z" stroke="#687818" fill="#d1f030"/>"     "     <path d="M539 185h16v13h-16zm17 0h16v13h-16zm17 0h16v13h-16z" fill="#d2f030" stroke="#697818"/>"     "     "     <path d="M590 185h15v12h-15zm16 0h14v12h-14z" stroke="#697818" fill="#d3f030"/>"     "     <path d="M621 185h14v12h-14zm15 0h13v11h-13zm14 0h12v11h-12z" fill="#d4f030" stroke="#6a7818"/>"     "     "     <path d="M663 185h18v11h-18zm19 0h23v11h-23z" stroke="#6a7818" fill="#d5f030"/>"     "     <path d="M706 185h15v11h-15zm16 0h24v11h-24zm25 0h23v11h-23z" fill="#d6f030" stroke="#6b7818"/>"     "     "     <path d="M771 185h13v11h-13zm14 0h14v11h-14z" stroke="#6b7818" fill="#d7f030"/>"     "     <path d="M800 185h16v11h-16zm17 0h29v11h-29zm30 0h18v11h-18z" fill="#d8f030" stroke="#6c7818"/>"     "     "     <path d="M866 185h21v11h-21zm22 0h29v11h-29z" stroke="#6c7818" fill="#d9f030"/>"     "     <path d="M918 185h13v11h-13zm14 0h29v11h-29zm30 0h15v11h-15z" fill="#daf030" stroke="#6d7818"/>"     "     "     <path d="M978 185h21v11h-21zm22 0h24v11h-24z" stroke="#6d7818" fill="#dbf030"/>"     "     <path d="M32 210h14v13H32zm15 0h14v13H47zm15-2h27v15H62z" fill="#dcf030" stroke="#6e7818"/>"     "     "     <path d="M90 208h27v15H90zm28 0h26v15h-26z" stroke="#6e7818" fill="#ddf030"/>"     "     <path d="M145 208h26v15h-26zm27 0h26v15h-26zm27 0h26v14h-26z" fill="#def030" stroke="#6f7818"/>"     "     "     <path d="M226 208h26v14h-26zm27 0h26v14h-26z" stroke="#6f7818" fill="#dff030"/>"     "     <path d="M280 208h24v14h-24zm25 0h24v14h-24zm25 0h24v14h-24z" fill="#e0f030" stroke="#707818"/>"     "     "     <path d="M355 208h24v14h-24zm25 0h23v14h-23z" stroke="#707818" fill="#e1f030"/>"     "     <path d="M404 208h23v14h-23zm24 0h23v14h-23zm24 0h22v14h-22z" fill="#e2f030" stroke="#717818"/>"     "     "     <path d="M475 208h22v14h-22zm23 0h22v14h-22z" stroke="#717818" fill="#e3f030"/>"     "     <path d="M521 208h20v14h-20zm21 0h19v14h-19zm20 0h16v14h-16z" fill="#e4f030" stroke="#727818"/>"     "     "     <path d="M579 208h16v14h-16zm17 0h15v14h-15z" stroke="#727818" fill="#e5f030"/>"     "     <path d="M612 208h15v14h-15zm16 0h25v14h-25zm26 0h23v14h-23z" fill="#e6f030" stroke="#737818"/>"     "     "     <path d="M678 208h26v14h-26zm27 0h21v14h-21z" stroke="#737818" fill="#e7f030"/>"     "     <path d="M727 208h25v14h-25zm26 0h15v14h-15zm16 0h25v14h-25z" fill="#e8f030" stroke="#747818"/>"     "     "     <path d="M795 208h17v14h-17zm18 0h23v14h-23z" stroke="#747818" fill="#e9f030"/>"     "     <path d="M837 208h14v14h-14zm15 0h22v14h-22zm23 0h21v14h-21z" fill="#eaf030" stroke="#757818"/>"     "     "     <path d="M897 208h28v14h-28zm29 0h17v14h-17z" stroke="#757818" fill="#ebf030"/>"     "     <path d="M944 208h22v14h-22zm23 0h15v14h-15zm16 0h23v14h-23z" fill="#ecf030" stroke="#767818"/>"     "     "     <path d="M1007 208h17v14h-17zM1 224h29v25H1z" stroke="#767818" fill="#edf030"/>"     "     <path d="M31 224h29v23H31zm30 0h29v21H61zm30 0h29v18H91z" fill="#eef030" stroke="#777818"/>"     "     "     <path d="M121 224h28v16h-28zm29 0h28v16h-28z" stroke="#777818" fill="#eff030"/>"     "     <path d="M179 224h27v16h-27zm28 0h27v16h-27zm28 0h26v16h-26z" fill="#f0f030" stroke="#787818"/>"     "     "     <path d="M262 224h25v15h-25zm26 0h25v15h-25zm26 0h24v15h-24z" stroke="#787818" fill="#f0f031"/>"     "     "     <path d="M339 224h23v15h-23zm24 0h23v15h-23z" fill="#f0f032" stroke="#787819"/>"     "     <path d="M387 224h22v15h-22zm23 0h22v15h-22zm23 0h21v15h-21z" stroke="#787819" fill="#f0f033"/>"     "     "     <path d="M455 224h21v15h-21zm22 0h20v15h-20z" fill="#f0f034" stroke="#78781a"/>"     "     <path d="M498 224h20v15h-20zm21 0h20v15h-20zm21 0h19v15h-19z" stroke="#78781a" fill="#f0f035"/>"     "     "     <path d="M560 224h18v15h-18zm19 0h18v15h-18z" fill="#f0f036" stroke="#78781b"/>"     "     <path d="M598 224h18v15h-18zm19 0h17v15h-17zm18 0h25v15h-25z" stroke="#78781b" fill="#f0f037"/>"     "     "     <path d="M661 224h26v15h-26zm27 0h20v15h-20z" fill="#f0f038" stroke="#78781c"/>"     "     <path d="M709 224h24v15h-24zm25 0h27v15h-27zm28 0h17v15h-17z" stroke="#78781c" fill="#f0f039"/>"     "     "     <path d="M780 224h27v15h-27zm28 0h16v15h-16z" fill="#f0f03a" stroke="#78781d"/>"     "     <path d="M825 224h21v15h-21zm22 0h15v15h-15zm16 0h27v15h-27z" stroke="#78781d" fill="#f0f03b"/>"     "     "     <path d="M891 224h16v15h-16zm17 0h22v15h-22z" fill="#f0f03c" stroke="#78781e"/>"     "     <path d="M931 224h19v15h-19zm20 0h29v15h-29zm30 0h30v15h-30z" stroke="#78781e" fill="#f0f03d"/>"     "     "     <path d="M1012 224h12v15h-12zM1 250h29v29H1z" fill="#f0f03e" stroke="#78781f"/>"     "     <path d="M31 248h29v25H31zm30-2h29v27H61zm30-3h29v29H91z" stroke="#78781f" fill="#f0f03f"/>"     "     "     <path d="M121 241h29v30h-29zm30 0h29v30h-29z" fill="#f0f040" stroke="#787820"/>"     "     <path d="M181 241h29v27h-29zm30 0h29v19h-29zm30 0h28v18h-28z" stroke="#787820" fill="#f0f041"/>"     "     "     <path d="M270 241h28v17h-28zm29 0h28v17h-28z" fill="#f0f042" stroke="#787821"/>"     "     <path d="M328 241h28v17h-28zm29 0h27v17h-27zm28 0h25v17h-25z" stroke="#787821" fill="#f0f043"/>"     "     "     <path d="M411 241h24v17h-24zm25 0h24v17h-24z" fill="#f0f044" stroke="#787822"/>"     "     <path d="M461 241h22v16h-22zm23 0h22v16h-22zm23 0h22v16h-22z" stroke="#787822" fill="#f0f045"/>"     "     "     <path d="M530 241h21v16h-21zm22 0h20v16h-20z" fill="#f0f046" stroke="#787823"/>"     "     <path d="M573 241h19v16h-19zm20 0h18v16h-18zm19 0h18v16h-18z" stroke="#787823" fill="#f0f047"/>"     "     "     <path d="M631 241h17v16h-17zm18 0h21v16h-21z" fill="#f0f048" stroke="#787824"/>"     "     <path d="M671 241h30v16h-30zm31 0h25v16h-25zm26 0h28v16h-28z" stroke="#787824" fill="#f0f049"/>"     "     "     <path d="M757 241h21v16h-21zm22 0h26v16h-26z" fill="#f0f04a" stroke="#787825"/>"     "     <path d="M806 241h28v16h-28zm29 0h23v16h-23zm24 0h28v16h-28z" stroke="#787825" fill="#f0f04b"/>"     "     "     <path d="M888 241h23v16h-23zm24 0h16v16h-16z" fill="#f0f04c" stroke="#787826"/>"     "     <path d="M929 241h21v16h-21zm22 0h17v16h-17zm18 0h20v16h-20z" stroke="#787826" fill="#f0f04d"/>"     "     "     <path d="M990 241h18v16h-18zm19 0h15v16h-15z" fill="#f0f04e" stroke="#787827"/>"     "     <path d="M1 280h29v29H1zm30-6h29v29H31zm30 0h29v23H61z" stroke="#787827" fill="#f0f04f"/>"     "     "     <path d="M91 273h29v24H91zm30-1h29v25h-29zm30 0h29v24h-29z" fill="#f0f050" stroke="#787828"/>"     "     "     <path d="M181 269h29v22h-29zm30-8h28v30h-28z" stroke="#787828" fill="#f0f051"/>"     "     <path d="M240 261h28v20h-28zm29 0h28v18h-28zm29 0h27v18h-27z" fill="#f0f052" stroke="#787829"/>"     "     "     <path d="M326 261h27v18h-27zm28 0h27v18h-27z" stroke="#787829" fill="#f0f053"/>"     "     <path d="M382 261h26v18h-26zm27 0h23v18h-23zm24 0h23v18h-23z" fill="#f0f054" stroke="#78782a"/>"     "     "     <path d="M457 261h23v18h-23zm24 0h22v17h-22z" stroke="#78782a" fill="#f0f055"/>"     "     <path d="M504 261h22v17h-22zm23 0h22v17h-22zm23 0h21v17h-21z" fill="#f0f056" stroke="#78782b"/>"     "     "     <path d="M572 261h21v17h-21zm22 0h21v17h-21z" stroke="#78782b" fill="#f0f057"/>"     "     <path d="M616 261h20v17h-20zm21 0h19v17h-19zm20 0h19v17h-19z" fill="#f0f058" stroke="#78782c"/>"     "     "     <path d="M677 261h19v17h-19zm20 0h18v17h-18z" stroke="#78782c" fill="#f0f059"/>"     "     <path d="M716 261h18v17h-18zm19 0h18v17h-18zm19 0h27v17h-27z" fill="#f0f05a" stroke="#78782d"/>"     "     "     <path d="M782 261h30v17h-30zm31 0h20v17h-20z" stroke="#78782d" fill="#f0f05b"/>"     "     <path d="M834 261h29v17h-29zm30 0h17v17h-17zm18 0h30v17h-30z" fill="#f0f05c" stroke="#78782e"/>"     "     "     <path d="M913 261h18v17h-18zm19 0h25v17h-25z" stroke="#78782e" fill="#f0f05d"/>"     "     <path d="M958 261h21v17h-21zm22 0h26v17h-26zm27 0h17v17h-17z" fill="#f0f05e" stroke="#78782f"/>"     "     "     <path d="M240 282h10v9h-10zm11 0h10v9h-10z" stroke="#78782f" fill="#f0f05f"/>"     "     <path d="M262 282h10v9h-10zm11 0h9v9h-9zm10 0h24v9h-24z" fill="#f0f060" stroke="#787830"/>"     "     "     <path d="M308 282h10v9h-10zm11 0h26v9h-26z" stroke="#787830" fill="#f0f061"/>"     "     <path d="M346 282h15v9h-15zm16 0h27v9h-27zm28 0h18v9h-18z" fill="#f0f062" stroke="#787831"/>"     "     "     <path d="M409 282h27v9h-27zm28 0h20v9h-20z" stroke="#787831" fill="#f0f063"/>"     "     <path d="M458 282h26v9h-26zm27 0h23v9h-23zm24 0h26v9h-26z" fill="#f0f064" stroke="#787832"/>"     "     "     <path d="M536 282h26v9h-26zm27 0h13v9h-13z" stroke="#787832" fill="#f0f065"/>"     "     <path d="M577 282h15v9h-15zm16 0h13v9h-13zm14 0h16v9h-16z" fill="#f0f066" stroke="#787833"/>"     "     "     <path d="M624 282h21v9h-21zm22 0h15v9h-15z" stroke="#787833" fill="#f0f067"/>"     "     <path d="M662 282h20v9h-20zm21 0h23v9h-23zm24 0h15v9h-15z" fill="#f0f068" stroke="#787834"/>"     "     "     <path d="M723 282h16v9h-16zm17 0h24v9h-24z" stroke="#787834" fill="#f0f069"/>"     "     <path d="M765 282h17v9h-17zm18 0h11v9h-11zm12 0h14v9h-14z" fill="#f0f06a" stroke="#787835"/>"     "     "     <path d="M810 282h17v9h-17zm18 0h24v9h-24z" stroke="#787835" fill="#f0f06b"/>"     "     <path d="M853 282h15v9h-15zm16 0h13v9h-13zm14 0h20v9h-20z" fill="#f0f06c" stroke="#787836"/>"     "     "     <path d="M904 282h17v9h-17zM1 310h28v26H1z" stroke="#787836" fill="#f0f06d"/>"     "     <path d="M30 310h28v23H30zm29 0h28v21H59zm29 0h28v19H88z" fill="#f0f06e" stroke="#787837"/>"     "     "     <path d="M117 310h26v19h-26zm27 0h25v19h-25z" stroke="#787837" fill="#f0f06f"/>"     "     <path d="M170 310h25v19h-25zm26 0h24v19h-24zm25 0h24v19h-24z" fill="#f0f070" stroke="#787838"/>"     "     "     <path d="M246 310h23v19h-23zm24 0h23v19h-23zm24 0h23v19h-23z" stroke="#787838" fill="#f0f071"/>"     "     "     <path d="M318 310h22v18h-22zm23 0h21v18h-21z" fill="#f0f072" stroke="#787839"/>"     "     <path d="M363 310h21v18h-21zm22 0h21v18h-21zm22 0h19v18h-19z" stroke="#787839" fill="#f0f073"/>"     "     "     <path d="M427 310h19v18h-19zm20 0h26v18h-26z" fill="#f0f074" stroke="#78783a"/>"     "     <path d="M474 310h24v18h-24zm25 0h30v18h-30zm31 0h28v18h-28z" stroke="#78783a" fill="#f0f075"/>"     "     "     <path d="M559 310h18v18h-18zm19 0h30v18h-30z" fill="#f0f076" stroke="#78783b"/>"     "     <path d="M609 310h21v18h-21zm22 0h27v18h-27zm28 0h26v18h-26z" stroke="#78783b" fill="#f0f077"/>"     "     "     <path d="M686 310h19v18h-19zm20 0h22v18h-22z" fill="#f0f078" stroke="#78783c"/>"     "     <path d="M729 310h27v18h-27zm28 0h29v18h-29zm30 0h28v18h-28z" stroke="#78783c" fill="#f0f079"/>"     "     "     <path d="M816 310h21v18h-21zm22 0h25v18h-25z" fill="#f0f07a" stroke="#78783d"/>"     "     <path d="M864 310h22v18h-22zm23 0h24v18h-24zm25 0h28v18h-28z" stroke="#78783d" fill="#f0f07b"/>"     "     "     <path d="M941 310h25v18h-25zm26 0h20v18h-20z" fill="#f0f07c" stroke="#78783e"/>"     "     <path d="M988 310h26v18h-26zM1 337h28v30H1zm29-3h28v27H30z" stroke="#78783e" fill="#f0f07d"/>"     "     "     <path d="M59 332h28v22H59zm29-2h28v22H88z" fill="#f0f07e" stroke="#78783f"/>"     "     <path d="M117 330h28v21h-28zm29 0h28v21h-28zm29 0h27v21h-27z" stroke="#78783f" fill="#f0f07f"/>"     "     "     <path d="M203 330h27v21h-27zm28 0h27v20h-27z" fill="#f0f080" stroke="#787840"/>"     "     <path d="M259 330h27v20h-27zm28 0h25v20h-25zm26 0h25v20h-25z" stroke="#787840" fill="#f0f081"/>"     "     "     <path d="M339 330h23v20h-23zm24 0h22v19h-22z" fill="#f0f082" stroke="#787841"/>"     "     <path d="M386 330h20v19h-20zm21 0h20v19h-20zm21 0h20v19h-20z" stroke="#787841" fill="#f0f083"/>"     "     "     <path d="M449 330h21v19h-21zm22 0h27v19h-27z" fill="#f0f084" stroke="#787842"/>"     "     <path d="M499 330h26v19h-26zm27 0h27v19h-27zm28 0h20v19h-20z" stroke="#787842" fill="#f0f085"/>"     "     "     <path d="M575 330h26v19h-26zm27 0h21v19h-21z" fill="#f0f086" stroke="#787843"/>"     "     <path d="M624 330h27v19h-27zm28 0h24v19h-24zm25 0h28v19h-28z" stroke="#787843" fill="#f0f087"/>"     "     "     <path d="M706 330h22v19h-22zm23 0h21v19h-21z" fill="#f0f088" stroke="#787844"/>"     "     <path d="M751 330h26v19h-26zm27 0h29v19h-29zm30 0h27v19h-27z" stroke="#787844" fill="#f0f089"/>"     "     "     <path d="M836 330h19v19h-19zm20 0h24v19h-24z" fill="#f0f08a" stroke="#787845"/>"     "     <path d="M881 330h29v19h-29zm30 0h29v19h-29zm30 0h22v19h-22z" stroke="#787845" fill="#f0f08b"/>"     "     "     <path d="M964 330h27v19h-27zm28 0h27v19h-27z" fill="#f0f08c" stroke="#787846"/>"     "     <path d="M1 368h28v26H1zm29-6h28v25H30zm29-7h28v30H59z" stroke="#787846" fill="#f0f08d"/>"     "     "     <path d="M88 353h28v29H88zm29-1h28v27h-28z" fill="#f0f08e" stroke="#787847"/>"     "     <path d="M146 352h27v24h-27zm28 0h27v22h-27zm28 0h26v22h-26z" stroke="#787847" fill="#f0f08f"/>"     "     "     <path d="M229 352h26v21h-26zm27 0h25v21h-25zm26 0h25v21h-25z" fill="#f0f090" stroke="#787848"/>"     "     "     <path d="M308 352h23v21h-23zm24 0h23v21h-23z" stroke="#787848" fill="#f0f091"/>"     "     <path d="M356 352h22v20h-22zm23 0h21v20h-21zm22 0h21v20h-21z" fill="#f0f092" stroke="#787849"/>"     "     "     <path d="M423 352h29v20h-29zm30 0h23v20h-23z" stroke="#787849" fill="#f0f093"/>"     "     <path d="M477 352h24v20h-24zm25 0h22v20h-22zm23 0h23v20h-23z" fill="#f0f094" stroke="#78784a"/>"     "     "     <path d="M549 352h24v20h-24zm25 0h22v20h-22z" stroke="#78784a" fill="#f0f095"/>"     "     <path d="M597 352h24v20h-24zm25 0h21v20h-21zm22 0h25v20h-25z" fill="#f0f096" stroke="#78784b"/>"     "     "     <path d="M670 352h21v20h-21zm22 0h29v20h-29z" stroke="#78784b" fill="#f0f097"/>"     "     <path d="M722 352h30v20h-30zm31 0h24v20h-24zm25 0h22v20h-22z" fill="#f0f098" stroke="#78784c"/>"     "     "     <path d="M801 352h29v20h-29zm30 0h30v20h-30z" stroke="#78784c" fill="#f0f099"/>"     "     <path d="M862 352h27v20h-27zm28 0h20v20h-20zm21 0h22v20h-22z" fill="#f0f09a" stroke="#78784d"/>"     "     "     <path d="M934 352h20v20h-20zm21 0h23v20h-23z" stroke="#78784d" fill="#f0f09b"/>"     "     <path d="M979 352h29v20h-29zm30 0h14v20h-14zM1 395h28v30H1z" fill="#f0f09c" stroke="#78784e"/>"     "     "     <path d="M30 388h28v28H30zm29-2h28v28H59z" stroke="#78784e" fill="#f0f09d"/>"     "     <path d="M88 383h28v28H88zm29-3h27v25h-27zm28 0h27v24h-27z" fill="#f0f09e" stroke="#78784f"/>"     "     "     <path d="M173 380h26v23h-26zm27 0h26v22h-26z" stroke="#78784f" fill="#f0f09f"/>"     "     <path d="M227 380h26v22h-26zm27 0h25v22h-25zm26 0h25v22h-25z" fill="#f0f0a0" stroke="#787850"/>"     "     "     <path d="M306 380h25v22h-25zm26 0h24v22h-24z" stroke="#787850" fill="#f0f0a1"/>"     "     <path d="M357 380h23v22h-23zm24 0h23v22h-23zm24 0h22v22h-22z" fill="#f0f0a2" stroke="#787851"/>"     "     "     <path d="M428 380h23v22h-23zm24 0h28v22h-28z" stroke="#787851" fill="#f0f0a3"/>"     "     <path d="M481 380h30v22h-30zm31 0h30v22h-30zm31 0h25v22h-25z" fill="#f0f0a4" stroke="#787852"/>"     "     "     <path d="M569 380h24v22h-24zm25 0h22v22h-22z" stroke="#787852" fill="#f0f0a5"/>"     "     <path d="M617 380h22v22h-22zm23 0h22v22h-22zm23 0h22v22h-22z" fill="#f0f0a6" stroke="#787853"/>"     "     "     <path d="M686 380h26v22h-26zm27 0h29v22h-29z" stroke="#787853" fill="#f0f0a7"/>"     "     <path d="M743 380h29v22h-29zm30 0h27v22h-27zm28 0h26v22h-26z" fill="#f0f0a8" stroke="#787854"/>"     "     "     <path d="M828 380h22v21h-22zm23 0h22v21h-22z" stroke="#787854" fill="#f0f0a9"/>"     "     <path d="M874 380h22v21h-22zm23 0h29v21h-29zm30 0h30v21h-30z" fill="#f0f0aa" stroke="#787855"/>"     "     "     <path d="M958 380h30v21h-30zm31 0h25v21h-25z" stroke="#787855" fill="#f0f0ab"/>"     "     <path d="M1 426h27v27H1zm28 0h27v27H29zm28 0h30v27H57z" fill="#f0f0ac" stroke="#787856"/>"     "     "     <path d="M88 426h29v27H88zm30 0h27v26h-27z" stroke="#787856" fill="#f0f0ad"/>"     "     <path d="M146 426h27v26h-27zm28 0h29v26h-29zm30 0h28v26h-28z" fill="#f0f0ae" stroke="#787857"/>"     "     "     <path d="M233 426h29v26h-29zm30 0h26v25h-26z" stroke="#787857" fill="#f0f0af"/>"     "     <path d="M290 426h26v25h-26zm27 0h25v25h-25zm26 0h26v25h-26z" fill="#f0f0b0" stroke="#787858"/>"     "     "     <path d="M370 426h28v25h-28zm29 0h26v25h-26zm27 0h25v25h-25z" stroke="#787858" fill="#f0f0b1"/>"     "     "     <path d="M452 426h26v25h-26zm27 0h25v24h-25z" fill="#f0f0b2" stroke="#787859"/>"     "     <path d="M505 426h25v24h-25zm26 0h25v24h-25zm26 0h24v23h-24z" stroke="#787859" fill="#f0f0b3"/>"     "     "     <path d="M582 426h24v23h-24zm25 0h27v23h-27z" fill="#f0f0b4" stroke="#78785a"/>"     "     <path d="M635 426h28v23h-28zm29 0h30v23h-30zm31 0h26v23h-26z" stroke="#78785a" fill="#f0f0b5"/>"     "     "     <path d="M722 426h27v23h-27zm28 0h30v23h-30z" fill="#f0f0b6" stroke="#78785b"/>"     "     <path d="M781 426h30v23h-30zm31 0h28v23h-28zm29 0h27v22h-27z" stroke="#78785b" fill="#f0f0b7"/>"     "     "     <path d="M869 426h23v22h-23zm24 0h30v22h-30z" fill="#f0f0b8" stroke="#78785c"/>"     "     <path d="M924 426h24v22h-24zm25 0h23v21h-23zm24 0h25v21h-25z" stroke="#78785c" fill="#f0f0b9"/>"     "     "     <path d="M999 426h25v21h-25zM1 454h27v27H1z" fill="#f0f0ba" stroke="#78785d"/>"     "     <path d="M29 454h30v27H29zm31 0h26v26H60zm27 0h26v26H87z" stroke="#78785d" fill="#f0f0bb"/>"     "     "     <path d="M114 454h27v26h-27zm28 0h28v26h-28z" fill="#f0f0bc" stroke="#78785e"/>"     "     <path d="M171 454h27v25h-27zm28 0h27v25h-27zm28 0h27v25h-27z" stroke="#78785e" fill="#f0f0bd"/>"     "     "     <path d="M255 454h26v24h-26zm27 0h27v24h-27z" fill="#f0f0be" stroke="#78785f"/>"     "     <path d="M310 454h24v24h-24zm25 0h26v24h-26zm27 0h25v24h-25z" stroke="#78785f" fill="#f0f0bf"/>"     "     "     <path d="M388 454h24v24h-24zm25 0h29v24h-29z" fill="#f0f0c0" stroke="#787860"/>"     "     <path d="M443 454h24v24h-24zm25 0h26v21h-26zm27 0h25v21h-25z" stroke="#787860" fill="#f0f0c1"/>"     "     "     <path d="M521 454h30v21h-30zm31 0h28v21h-28z" fill="#f0f0c2" stroke="#787861"/>"     "     <path d="M581 454h23v21h-23zm24 0h28v21h-28zm29 0h21v21h-21z" stroke="#787861" fill="#f0f0c3"/>"     "     "     <path d="M656 454h27v21h-27zm28 0h21v21h-21z" fill="#f0f0c4" stroke="#787862"/>"     "     <path d="M706 454h25v20h-25zm26 0h27v20h-27zm28 0h30v20h-30z" stroke="#787862" fill="#f0f0c5"/>"     "     "     <path d="M791 454h25v20h-25zm26 0h22v20h-22z" fill="#f0f0c6" stroke="#787863"/>"     "     <path d="M840 454h26v19h-26zm27 0h24v19h-24zm25 0h25v19h-25z" stroke="#787863" fill="#f0f0c7"/>"     "     "     <path d="M918 454h19v19h-19zm20 0h29v18h-29z" fill="#f0f0c8" stroke="#787864"/>"     "     <path d="M968 454h21v18h-21zm22 0h18v18h-18zm19 0h14v18h-14z" stroke="#787864" fill="#f0f0c9"/>"     "     "     <path d="M1 482h17v18H1zm18 0h27v17H19z" fill="#f0f0ca" stroke="#787865"/>"     "     <path d="M47 482h18v17H47zm19 0h29v17H66zm30 0h25v17H96z" stroke="#787865" fill="#f0f0cb"/>"     "     "     <path d="M122 482h30v17h-30zm31 0h29v17h-29z" fill="#f0f0cc" stroke="#787866"/>"     "     <path d="M183 482h27v17h-27zm28 0h22v17h-22zm23 0h29v17h-29z" stroke="#787866" fill="#f0f0cd"/>"     "     "     <path d="M264 482h17v17h-17zm18 0h16v17h-16z" fill="#f0f0ce" stroke="#787867"/>"     "     <path d="M299 482h20v16h-20zm21 0h20v16h-20zm21 0h23v16h-23z" stroke="#787867" fill="#f0f0cf"/>"     "     "     <path d="M365 482h28v16h-28zm29 0h28v16h-28zm29 0h19v16h-19z" fill="#f0f0d0" stroke="#787868"/>"     "     "     <path d="M443 482h17v16h-17zm18 0h17v16h-17z" stroke="#787868" fill="#f0f0d1"/>"     "     <path d="M479 482h26v16h-26zm27 0h26v16h-26zm27 0h26v15h-26z" fill="#f0f0d2" stroke="#787869"/>"     "     "     <path d="M560 482h15v15h-15zm16 0h24v15h-24z" stroke="#787869" fill="#f0f0d3"/>"     "     <path d="M601 482h24v15h-24zm25 0h23v15h-23zm24 0h21v15h-21z" fill="#f0f0d4" stroke="#78786a"/>"     "     "     <path d="M672 482h24v15h-24zm25 0h21v15h-21z" stroke="#78786a" fill="#f0f0d5"/>"     "     <path d="M719 482h30v15h-30zm31 0h19v15h-19zm20 0h25v15h-25z" fill="#f0f0d6" stroke="#78786b"/>"     "     "     <path d="M796 482h30v15h-30zm31 0h25v15h-25z" stroke="#78786b" fill="#f0f0d7"/>"     "     <path d="M853 482h23v14h-23zm24 0h27v14h-27zm28 0h17v14h-17z" fill="#f0f0d8" stroke="#78786c"/>"     "     "     <path d="M923 482h25v14h-25zm26 0h14v14h-14z" stroke="#78786c" fill="#f0f0d9"/>"     "     <path d="M964 482h16v14h-16zm17 0h14v14h-14zm15 0h16v14h-16z" fill="#f0f0da" stroke="#78786d"/>"     "     "     <path d="M1013 482h11v14h-11zM1 501h13v11H1z" stroke="#78786d" fill="#f0f0db"/>"     "     <path d="M15 501h20v11H15zm21 0h15v11H36zm16 0h21v11H52z" fill="#f0f0dc" stroke="#78786e"/>"     "     "     <path d="M74 501h29v11H74zm30 0h20v11h-20z" stroke="#78786e" fill="#f0f0dd"/>"     "     <path d="M125 501h17v11h-17zm18 0h23v11h-23zm24 0h21v11h-21z" fill="#f0f0de" stroke="#78786f"/>"     "     "     <path d="M189 501h11v11h-11zm12 0h16v11h-16z" stroke="#78786f" fill="#f0f0df"/>"     "     <path d="M218 501h19v11h-19zm20 0h16v11h-16zm17 0h13v11h-13z" fill="#f0f0e0" stroke="#787870"/>"     "     "     <path d="M269 501h18v11h-18zm19 0h25v11h-25z" stroke="#787870" fill="#f0f0e1"/>"     "     <path d="M314 501h12v11h-12zm13 0h11v11h-11zm12 0h16v11h-16z" fill="#f0f0e2" stroke="#787871"/>"     "     "     <path d="M356 501h21v11h-21zm22 0h23v11h-23z" stroke="#787871" fill="#f0f0e3"/>"     "     <path d="M402 501h18v11h-18zm19 0h12v10h-12zm13 0h24v10h-24z" fill="#f0f0e4" stroke="#787872"/>"     "     "     <path d="M459 501h21v10h-21zm22 0h11v10h-11z" stroke="#787872" fill="#f0f0e5"/>"     "     <path d="M493 501h10v10h-10zm11 0h28v10h-28zm29 0h24v10h-24z" fill="#f0f0e6" stroke="#787873"/>"     "     "     <path d="M558 501h28v10h-28zm29 0h28v10h-28z" stroke="#787873" fill="#f0f0e7"/>"     "     <path d="M616 501h29v10h-29zm30 0h16v10h-16zm17 0h14v10h-14z" fill="#f0f0e8" stroke="#787874"/>"     "     "     <path d="M678 501h18v10h-18zm19 0h18v10h-18z" stroke="#787874" fill="#f0f0e9"/>"     "     <path d="M716 501h16v10h-16zm17 0h23v10h-23zm24 0h16v10h-16z" fill="#f0f0ea" stroke="#787875"/>"     "     "     <path d="M774 501h10v10h-10zm11 0h15v10h-15z" stroke="#787875" fill="#f0f0eb"/>"     "     <path d="M801 501h28v10h-28zm29 0h18v10h-18zm19 0h22v10h-22z" fill="#f0f0ec" stroke="#787876"/>"     "     "     <path d="M872 501h29v10h-29zm30 0h26v10h-26z" stroke="#787876" fill="#f0f0ed"/>"     "     <path d="M929 501h12v10h-12zm13 0h15v10h-15zm16 0h30v10h-30z" fill="#f0f0ee" stroke="#787877"/>"     "     "     <path d="M989 501h21v10h-21zm22 0h11v10h-11z" stroke="#787877" fill="#f0f0ef"/>"     "     <text y="526" font-size="12" fill="#000" x="0"> MaxRectsBin(size: 1024x512, choice: BestLongSideFit, method: LongerLeftoverAxis): inserted 1449 of 1536 rectangles with w/h lengths between [2, 31], occupancy: 75.28% </text></svg>