<svg xmlns="http://www.w3.org/2000/svg" viewBox="0 0 1024 536" xmlns:v="https://vecta.io/nano"><path d="M0 0h1024v512H0z" fill="#fff" stroke="#000"/>"     <path d="M1 1h7v30H1zm0 31h7v28H1zm0 29h7v12H1z" fill="#303030" stroke="#181818"/>"     "     "     <path d="M1 74h7v5H1zm0 6h7v30H1zm0 31h7v29H1z" stroke="#181818" fill="#303130"/>"     "     "     <path d="M1 141h7v24H1zm0 25h7v3H1z" fill="#303230" stroke="#181918"/>"     "     <path d="M1 170h7v18H1zm0 19h7v10H1zm0 11h7v18H1z" stroke="#181918" fill="#303330"/>"     "     "     <path d="M1 219h7v18H1zm0 19h7v27H1zm0 28h7v23H1z" fill="#303430" stroke="#181a18"/>"     "     "     <path d="M1 290h7v30H1zm0 31h7v16H1z" stroke="#181a18" fill="#303530"/>"     "     <path d="M1 338h7v7H1zm0 8h7v9H1zm0 10h7v29H1z" fill="#303630" stroke="#181b18"/>"     "     "     <path d="M1 386h7v22H1zm0 23h7v21H1zm0 22h7v11H1z" stroke="#181b18" fill="#303730"/>"     "     "     <path d="M1 443h7v28H1zm0 29h7v14H1z" fill="#303830" stroke="#181c18"/>"     "     <path d="M1 487h7v25H1zM9 1h18v30H9zm0 31h18v26H9z" stroke="#181c18" fill="#303930"/>"     "     "     <path d="M9 59h18v3H9zm0 4h18v21H9zm0 22h18v12H9z" fill="#303a30" stroke="#181d18"/>"     "     "     <path d="M9 98h18v26H9zm0 27h18v11H9z" stroke="#181d18" fill="#303b30"/>"     "     <path d="M9 137h18v17H9zm0 18h18v21H9zm0 22h18v11H9z" fill="#303c30" stroke="#181e18"/>"     "     "     <path d="M9 189h18v27H9zm0 28h18v22H9zm0 23h18v25H9z" stroke="#181e18" fill="#303d30"/>"     "     "     <path d="M9 266h18v2H9zm0 3h18v26H9z" fill="#303e30" stroke="#181f18"/>"     "     <path d="M9 296h18v15H9zm0 16h18v21H9zm0 22h18v12H9z" stroke="#181f18" fill="#303f30"/>"     "     "     <path d="M9 347h18v15H9zm0 16h18v28H9zm0 29h18v2H9z" fill="#304030" stroke="#182018"/>"     "     "     <path d="M9 395h18v16H9zm0 17h18v30H9z" stroke="#182018" fill="#304130"/>"     "     <path d="M9 443h18v17H9zm0 18h18v10H9zm0 11h18v28H9z" fill="#304230" stroke="#182118"/>"     "     "     <path d="M9 501h18v11H9zM28 1h16v30H28zm0 31h16v21H28z" stroke="#182118" fill="#304330"/>"     "     "     <path d="M28 54h16v4H28zm0 5h16v21H28z" fill="#304430" stroke="#182218"/>"     "     <path d="M28 81h16v14H28zm0 15h16v28H28zm0 29h16v26H28z" stroke="#182218" fill="#304530"/>"     "     "     <path d="M28 152h16v8H28zm0 9h16v16H28zm0 17h16v17H28z" fill="#304630" stroke="#182318"/>"     "     "     <path d="M28 196h16v20H28zm0 21h16v19H28z" stroke="#182318" fill="#304730"/>"     "     <path d="M28 237h16v7H28zm0 8h16v12H28zm0 13h16v8H28z" fill="#304830" stroke="#182418"/>"     "     "     <path d="M28 267h16v17H28zm0 18h16v23H28zm0 24h16v10H28z" stroke="#182418" fill="#304930"/>"     "     "     <path d="M28 320h16v8H28zm0 9h16v12H28z" fill="#304a30" stroke="#182518"/>"     "     <path d="M28 342h16v17H28zm0 18h16v13H28zm0 14h16v28H28z" stroke="#182518" fill="#304b30"/>"     "     "     <path d="M28 403h16v8H28zm0 9h16v6H28zm0 7h16v8H28z" fill="#304c30" stroke="#182618"/>"     "     "     <path d="M28 428h16v21H28zm0 22h16v9H28z" stroke="#182618" fill="#304d30"/>"     "     <path d="M28 460h16v26H28zm0 27h16v25H28zM45 1h15v30H45z" fill="#304e30" stroke="#182718"/>"     "     "     <path d="M45 32h15v20H45zm0 21h15v1H45zm0 2h15v17H45z" stroke="#182718" fill="#304f30"/>"     "     "     <path d="M45 73h15v5H45zm0 6h15v27H45z" fill="#305030" stroke="#182818"/>"     "     <path d="M45 107h15v10H45zm0 11h15v11H45zm0 12h15v19H45z" stroke="#182818" fill="#305130"/>"     "     "     <path d="M45 150h15v30H45zm0 31h15v12H45zm0 13h15v16H45z" fill="#305230" stroke="#182918"/>"     "     "     <path d="M45 211h15v15H45zm0 16h15v26H45z" stroke="#182918" fill="#305330"/>"     "     <path d="M45 254h15v1H45zm0 2h15v7H45zm0 8h15v24H45z" fill="#305430" stroke="#182a18"/>"     "     "     <path d="M45 289h15v22H45zm0 23h15v4H45zm0 5h15v11H45z" stroke="#182a18" fill="#305530"/>"     "     "     <path d="M45 329h15v14H45zm0 15h15v24H45z" fill="#305630" stroke="#182b18"/>"     "     <path d="M45 369h15v5H45zm0 6h15v8H45zm0 9h15v24H45z" stroke="#182b18" fill="#305730"/>"     "     "     <path d="M45 409h15v25H45zm0 26h15v21H45zm0 22h15v29H45z" fill="#305830" stroke="#182c18"/>"     "     "     <path d="M45 487h15v25H45zM61 1h20v30H61z" stroke="#182c18" fill="#305930"/>"     "     <path d="M61 32h20v7H61zm0 8h20v15H61zm0 16h20v12H61z" fill="#305a30" stroke="#182d18"/>"     "     "     <path d="M61 69h20v3H61zm0 4h20v13H61zm0 14h20v14H61z" stroke="#182d18" fill="#305b30"/>"     "     "     <path d="M61 102h20v27H61zm0 28h20v23H61z" fill="#305c30" stroke="#182e18"/>"     "     <path d="M61 154h20v27H61zm0 28h20v19H61zm0 20h20v29H61z" stroke="#182e18" fill="#305d30"/>"     "     "     <path d="M61 232h20v23H61zm0 24h20v24H61zm0 25h20v1H61z" fill="#305e30" stroke="#182f18"/>"     "     "     <path d="M61 283h20v15H61zm0 16h20v16H61z" stroke="#182f18" fill="#305f30"/>"     "     <path d="M61 316h20v6H61zm0 7h20v7H61zm0 8h20v6H61z" fill="#306030" stroke="#183018"/>"     "     "     <path d="M61 338h20v30H61zm0 31h20v25H61zm0 26h20v30H61z" stroke="#183018" fill="#306130"/>"     "     "     <path d="M61 426h20v2H61zm0 3h20v29H61z" fill="#306230" stroke="#183118"/>"     "     <path d="M61 459h20v22H61zm0 23h20v30H61zM82 1h13v30H82z" stroke="#183118" fill="#306330"/>"     "     "     <path d="M82 32h13v2H82zm0 3h13v10H82zm0 11h13v9H82z" fill="#306430" stroke="#183218"/>"     "     "     <path d="M82 56h13v16H82zm0 17h13v2H82z" stroke="#183218" fill="#306530"/>"     "     <path d="M82 76h13v11H82zm0 12h13v24H82zm0 25h13v1H82z" fill="#306630" stroke="#183318"/>"     "     "     <path d="M82 115h13v17H82zm0 18h13v14H82zm0 15h13v18H82z" stroke="#183318" fill="#306730"/>"     "     "     <path d="M82 167h13v16H82zm0 17h13v27H82z" fill="#306830" stroke="#183418"/>"     "     <path d="M82 212h13v11H82zm0 12h13v17H82zm0 18h13v19H82z" stroke="#183418" fill="#306930"/>"     "     "     <path d="M82 262h13v4H82zm0 5h13v14H82zm0 15h13v19H82z" fill="#306a30" stroke="#183518"/>"     "     "     <path d="M82 302h13v25H82zm0 26h13v30H82z" stroke="#183518" fill="#306b30"/>"     "     <path d="M82 359h13v6H82zm0 7h13v24H82zm0 25h13v25H82z" fill="#306c30" stroke="#183618"/>"     "     "     <path d="M82 417h13v20H82zm0 21h13v2H82zm0 3h13v9H82z" stroke="#183618" fill="#306d30"/>"     "     "     <path d="M82 451h13v9H82zm0 10h13v8H82z" fill="#306e30" stroke="#183718"/>"     "     <path d="M82 470h13v11H82zm0 12h13v30H82zM96 1h17v30H96z" stroke="#183718" fill="#306f30"/>"     "     "     <path d="M96 32h17v9H96zm0 10h17v27H96zm0 28h17v12H96z" fill="#307030" stroke="#183818"/>"     "     "     <path d="M96 83h17v8H96zm0 9h17v29H96z" stroke="#183818" fill="#307130"/>"     "     <path d="M96 122h17v10H96zm0 11h17v22H96zm0 23h17v2H96z" fill="#307230" stroke="#183918"/>"     "     "     <path d="M96 159h17v30H96zm0 31h17v18H96zm0 19h17v25H96z" stroke="#183918" fill="#307330"/>"     "     "     <path d="M96 235h17v26H96zm0 27h17v11H96z" fill="#307430" stroke="#183a18"/>"     "     <path d="M96 274h17v8H96zm0 9h17v18H96zm0 19h17v8H96z" stroke="#183a18" fill="#307530"/>"     "     "     <path d="M96 311h17v11H96zm0 12h17v15H96zm0 16h17v3H96z" fill="#307630" stroke="#183b18"/>"     "     "     <path d="M96 343h17v25H96zm0 26h17v1H96z" stroke="#183b18" fill="#307730"/>"     "     <path d="M96 371h17v21H96zm0 22h17v3H96zm0 4h17v8H96z" fill="#307830" stroke="#183c18"/>"     "     "     <path d="M96 406h17v27H96zm0 28h17v6H96zm0 7h17v29H96z" stroke="#183c18" fill="#307930"/>"     "     "     <path d="M96 471h17v13H96zm0 14h17v27H96z" fill="#307a30" stroke="#183d18"/>"     "     <path d="M114 1h3v30h-3zm0 31h3v10h-3zm0 11h3v8h-3z" stroke="#183d18" fill="#307b30"/>"     "     "     <path d="M114 52h3v17h-3zm0 18h3v8h-3zm0 9h3v18h-3z" fill="#307c30" stroke="#183e18"/>"     "     "     <path d="M114 98h3v18h-3zm0 19h3v11h-3z" stroke="#183e18" fill="#307d30"/>"     "     <path d="M114 129h3v10h-3zm0 11h3v13h-3zm0 14h3v28h-3z" fill="#307e30" stroke="#183f18"/>"     "     "     <path d="M114 183h3v10h-3zm0 11h3v26h-3zm0 27h3v2h-3z" stroke="#183f18" fill="#307f30"/>"     "     "     <path d="M114 224h3v10h-3zm0 11h3v25h-3z" fill="#308030" stroke="#184018"/>"     "     <path d="M114 261h3v24h-3zm0 25h3v26h-3zm0 27h3v16h-3z" stroke="#184018" fill="#308130"/>"     "     "     <path d="M114 330h3v25h-3zm0 26h3v17h-3zm0 18h3v6h-3z" fill="#308230" stroke="#184118"/>"     "     "     <path d="M114 381h3v28h-3zm0 29h3v7h-3z" stroke="#184118" fill="#308330"/>"     "     <path d="M114 418h3v27h-3zm0 28h3v13h-3zm0 14h3v19h-3z" fill="#308430" stroke="#184218"/>"     "     "     <path d="M114 480h3v27h-3zm0 28h3v4h-3zm4-507h5v30h-5z" stroke="#184218" fill="#308530"/>"     "     "     <path d="M118 32h5v23h-5zm0 24h5v22h-5z" fill="#308630" stroke="#184318"/>"     "     <path d="M118 79h5v19h-5zm0 20h5v22h-5zm0 23h5v1h-5z" stroke="#184318" fill="#308730"/>"     "     "     <path d="M118 124h5v24h-5zm0 25h5v2h-5zm0 3h5v27h-5z" fill="#308830" stroke="#184418"/>"     "     "     <path d="M118 180h5v25h-5zm0 26h5v28h-5z" stroke="#184418" fill="#308930"/>"     "     <path d="M118 235h5v12h-5zm0 13h5v7h-5zm0 8h5v23h-5z" fill="#308a30" stroke="#184518"/>"     "     "     <path d="M118 280h5v16h-5zm0 17h5v23h-5zm0 24h5v29h-5z" stroke="#184518" fill="#308b30"/>"     "     "     <path d="M118 351h5v11h-5zm0 12h5v15h-5z" fill="#308c30" stroke="#184618"/>"     "     <path d="M118 379h5v20h-5zm0 21h5v2h-5zm0 3h5v6h-5z" stroke="#184618" fill="#308d30"/>"     "     "     <path d="M118 410h5v15h-5zm0 16h5v13h-5zm0 14h5v4h-5z" fill="#308e30" stroke="#184718"/>"     "     "     <path d="M118 445h5v23h-5zm0 24h5v5h-5z" stroke="#184718" fill="#308f30"/>"     "     <path d="M118 475h5v7h-5zm0 8h5v29h-5zm6-482h21v30h-21z" fill="#309030" stroke="#184818"/>"     "     "     <path d="M124 32h21v13h-21zm0 14h21v22h-21zm0 23h21v25h-21z" stroke="#184818" fill="#309130"/>"     "     "     <path d="M124 95h21v23h-21zm0 24h21v25h-21z" fill="#309230" stroke="#184918"/>"     "     <path d="M124 145h21v3h-21zm0 4h21v21h-21zm0 22h21v10h-21z" stroke="#184918" fill="#309330"/>"     "     "     <path d="M124 182h21v10h-21zm0 11h21v18h-21zm0 19h21v15h-21z" fill="#309430" stroke="#184a18"/>"     "     "     <path d="M124 228h21v15h-21zm0 16h21v11h-21z" stroke="#184a18" fill="#309530"/>"     "     <path d="M124 256h21v2h-21zm0 3h21v9h-21zm0 10h21v7h-21z" fill="#309630" stroke="#184b18"/>"     "     "     <path d="M124 277h21v20h-21zm0 21h21v30h-21zm0 31h21v2h-21z" stroke="#184b18" fill="#309730"/>"     "     "     <path d="M124 332h21v18h-21zm0 19h21v5h-21z" fill="#309830" stroke="#184c18"/>"     "     <path d="M124 357h21v18h-21zm0 19h21v4h-21zm0 5h21v28h-21z" stroke="#184c18" fill="#309930"/>"     "     "     <path d="M124 410h21v12h-21zm0 13h21v26h-21zm0 27h21v17h-21z" fill="#309a30" stroke="#184d18"/>"     "     "     <path d="M124 468h21v11h-21zm0 12h21v2h-21z" stroke="#184d18" fill="#309b30"/>"     "     <path d="M124 483h21v29h-21zM146 1h10v30h-10zm0 31h10v1h-10z" fill="#309c30" stroke="#184e18"/>"     "     "     <path d="M146 34h10v30h-10zm0 31h10v26h-10zm0 27h10v11h-10z" stroke="#184e18" fill="#309d30"/>"     "     "     <path d="M146 104h10v9h-10zm0 10h10v15h-10z" fill="#309e30" stroke="#184f18"/>"     "     <path d="M146 130h10v15h-10zm0 16h10v28h-10zm0 29h10v12h-10z" stroke="#184f18" fill="#309f30"/>"     "     "     <path d="M146 188h10v12h-10zm0 13h10v7h-10zm0 8h10v21h-10z" fill="#30a030" stroke="#185018"/>"     "     "     <path d="M146 231h10v2h-10zm0 3h10v1h-10z" stroke="#185018" fill="#30a130"/>"     "     <path d="M146 236h10v4h-10zm0 5h10v5h-10zm0 6h10v28h-10z" fill="#30a230" stroke="#185118"/>"     "     "     <path d="M146 276h10v11h-10zm0 12h10v29h-10zm0 30h10v24h-10z" stroke="#185118" fill="#30a330"/>"     "     "     <path d="M146 343h10v14h-10zm0 15h10v8h-10z" fill="#30a430" stroke="#185218"/>"     "     <path d="M146 367h10v9h-10zm0 10h10v10h-10zm0 11h10v28h-10z" stroke="#185218" fill="#30a530"/>"     "     "     <path d="M146 417h10v15h-10zm0 16h10v18h-10zm0 19h10v16h-10z" fill="#30a630" stroke="#185318"/>"     "     "     <path d="M146 469h10v11h-10zm0 12h10v22h-10z" stroke="#185318" fill="#30a730"/>"     "     <path d="M146 504h10v8h-10zM157 1h12v30h-12zm0 31h12v8h-12z" fill="#30a830" stroke="#185418"/>"     "     "     <path d="M157 41h12v24h-12zm0 25h12v20h-12zm0 21h12v25h-12z" stroke="#185418" fill="#30a930"/>"     "     "     <path d="M157 113h12v3h-12zm0 4h12v8h-12z" fill="#30aa30" stroke="#185518"/>"     "     <path d="M157 126h12v16h-12zm0 17h12v1h-12zm0 2h12v3h-12z" stroke="#185518" fill="#30ab30"/>"     "     "     <path d="M157 149h12v7h-12zm0 8h12v1h-12zm0 2h12v15h-12z" fill="#30ac30" stroke="#185618"/>"     "     "     <path d="M157 175h12v30h-12zm0 31h12v11h-12z" stroke="#185618" fill="#30ad30"/>"     "     <path d="M157 218h12v17h-12zm0 18h12v28h-12zm0 29h12v12h-12z" fill="#30ae30" stroke="#185718"/>"     "     "     <path d="M157 278h12v12h-12zm0 13h12v21h-12zm0 22h12v17h-12z" stroke="#185718" fill="#30af30"/>"     "     "     <path d="M157 331h12v24h-12zm0 25h12v28h-12z" fill="#30b030" stroke="#185818"/>"     "     <path d="M157 385h12v1h-12zm0 2h12v26h-12zm0 27h12v2h-12z" stroke="#185818" fill="#30b130"/>"     "     "     <path d="M157 417h12v1h-12zm0 2h12v25h-12zm0 26h12v7h-12z" fill="#30b230" stroke="#185918"/>"     "     "     <path d="M157 453h12v14h-12zm0 15h12v1h-12z" stroke="#185918" fill="#30b330"/>"     "     <path d="M157 470h12v24h-12zm0 25h12v17h-12zM170 1h29v30h-29z" fill="#30b430" stroke="#185a18"/>"     "     "     <path d="M170 32h29v16h-29zm0 17h29v20h-29zm0 21h29v22h-29z" stroke="#185a18" fill="#30b530"/>"     "     "     <path d="M170 93h29v24h-29zm0 25h29v9h-29z" fill="#30b630" stroke="#185b18"/>"     "     <path d="M170 128h29v29h-29zm0 30h29v11h-29zm0 12h29v16h-29z" stroke="#185b18" fill="#30b730"/>"     "     "     <path d="M170 187h29v22h-29zm0 23h29v25h-29zm0 26h29v16h-29z" fill="#30b830" stroke="#185c18"/>"     "     "     <path d="M170 253h29v29h-29zm0 30h29v11h-29z" stroke="#185c18" fill="#30b930"/>"     "     <path d="M170 295h29v25h-29zm0 26h29v16h-29zm0 17h29v20h-29z" fill="#30ba30" stroke="#185d18"/>"     "     "     <path d="M170 359h29v15h-29zm0 16h29v7h-29zm0 8h29v27h-29z" stroke="#185d18" fill="#30bb30"/>"     "     "     <path d="M170 411h29v23h-29zm0 24h29v14h-29z" fill="#30bc30" stroke="#185e18"/>"     "     <path d="M170 450h29v3h-29zm0 4h29v10h-29zm0 11h29v24h-29z" stroke="#185e18" fill="#30bd30"/>"     "     "     <path d="M170 490h29v22h-29zM200 1h27v30h-27zm0 31h27v6h-27z" fill="#30be30" stroke="#185f18"/>"     "     "     <path d="M200 39h27v16h-27zm0 17h27v15h-27z" stroke="#185f18" fill="#30bf30"/>"     "     <path d="M200 72h27v24h-27zm0 25h27v26h-27zm0 27h27v9h-27z" fill="#30c030" stroke="#186018"/>"     "     "     <path d="M200 134h27v20h-27zm0 21h27v11h-27zm0 12h27v12h-27z" stroke="#186018" fill="#30c130"/>"     "     "     <path d="M200 180h27v3h-27zm0 4h27v11h-27z" fill="#30c230" stroke="#186118"/>"     "     <path d="M200 196h27v29h-27zm0 30h27v1h-27zm0 2h27v26h-27z" stroke="#186118" fill="#30c330"/>"     "     "     <path d="M200 255h27v11h-27zm0 12h27v14h-27zm0 15h27v1h-27z" fill="#30c430" stroke="#186218"/>"     "     "     <path d="M200 284h27v8h-27zm0 9h27v8h-27z" stroke="#186218" fill="#30c530"/>"     "     <path d="M200 302h27v2h-27zm0 3h27v13h-27zm0 14h27v20h-27z" fill="#30c630" stroke="#186318"/>"     "     "     <path d="M200 340h27v27h-27zm0 28h27v7h-27zm0 8h27v6h-27z" stroke="#186318" fill="#30c730"/>"     "     "     <path d="M200 383h27v25h-27zm0 26h27v3h-27z" fill="#30c830" stroke="#186418"/>"     "     <path d="M200 413h27v1h-27zm0 2h27v21h-27zm0 22h27v22h-27z" stroke="#186418" fill="#30c930"/>"     "     "     <path d="M200 460h27v10h-27zm0 11h27v14h-27zm0 15h27v26h-27z" fill="#30ca30" stroke="#186518"/>"     "     "     <path d="M228 1h22v30h-22zm0 31h22v27h-22z" stroke="#186518" fill="#30cb30"/>"     "     <path d="M228 60h22v4h-22zm0 5h22v22h-22zm0 23h22v22h-22z" fill="#30cc30" stroke="#186618"/>"     "     "     <path d="M228 111h22v12h-22zm0 13h22v5h-22zm0 6h22v12h-22z" stroke="#186618" fill="#30cd30"/>"     "     "     <path d="M228 143h22v8h-22zm0 9h22v1h-22z" fill="#30ce30" stroke="#186718"/>"     "     <path d="M228 154h22v17h-22zm0 18h22v24h-22zm0 25h22v26h-22z" stroke="#186718" fill="#30cf30"/>"     "     "     <path d="M228 224h22v27h-22zm0 28h22v17h-22zm0 18h22v14h-22z" fill="#30d030" stroke="#186818"/>"     "     "     <path d="M228 285h22v14h-22zm0 15h22v4h-22z" stroke="#186818" fill="#30d130"/>"     "     <path d="M228 305h22v23h-22zm0 24h22v28h-22zm0 29h22v22h-22z" fill="#30d230" stroke="#186918"/>"     "     "     <path d="M228 381h22v24h-22zm0 25h22v15h-22zm0 16h22v14h-22z" stroke="#186918" fill="#30d330"/>"     "     "     <path d="M228 437h22v10h-22zm0 11h22v5h-22z" fill="#30d430" stroke="#186a18"/>"     "     <path d="M228 454h22v7h-22zm0 8h22v7h-22zm0 8h22v13h-22z" stroke="#186a18" fill="#30d530"/>"     "     "     <path d="M228 484h22v28h-22zM251 1h17v30h-17zm0 31h17v18h-17z" fill="#30d630" stroke="#186b18"/>"     "     "     <path d="M251 51h17v7h-17zm0 8h17v27h-17z" stroke="#186b18" fill="#30d730"/>"     "     <path d="M251 87h17v17h-17zm0 18h17v16h-17zm0 17h17v29h-17z" fill="#30d830" stroke="#186c18"/>"     "     "     <path d="M251 152h17v17h-17zm0 18h17v17h-17zm0 18h17v20h-17z" stroke="#186c18" fill="#30d930"/>"     "     "     <path d="M251 209h17v29h-17zm0 30h16v4h-16z" fill="#30da30" stroke="#186d18"/>"     "     <path d="M251 244h16v18h-16zm0 19h16v23h-16zm0 24h16v28h-16z" stroke="#186d18" fill="#30db30"/>"     "     "     <path d="M251 316h7v18h-7zm8 0h9v18h-9zm-8 19h16v9h-16z" fill="#30dc30" stroke="#186e18"/>"     "     "     <path d="M251 345h16v28h-16zm0 29h16v26h-16z" stroke="#186e18" fill="#30dd30"/>"     "     <path d="M251 401h16v20h-16zm0 21h16v6h-16zm0 7h16v7h-16z" fill="#30de30" stroke="#186f18"/>"     "     "     <path d="M251 437h16v13h-16zm0 14h16v6h-16zm0 7h2v18h-2z" stroke="#186f18" fill="#30df30"/>"     "     "     <path d="M254 458h14v18h-14zm-3 19h16v7h-16z" fill="#30e030" stroke="#187018"/>"     "     <path d="M251 485h9v27h-9zm10 0h7v27h-7zm8-484h23v30h-23z" stroke="#187018" fill="#30e130"/>"     "     "     <path d="M269 32h23v14h-23zm0 15h23v14h-23zm0 15h23v19h-23z" fill="#30e230" stroke="#187118"/>"     "     "     <path d="M269 82h23v8h-23zm0 9h23v28h-23z" stroke="#187118" fill="#30e330"/>"     "     <path d="M269 120h23v10h-23zm0 11h23v28h-23zm0 29h23v30h-23z" fill="#30e430" stroke="#187218"/>"     "     "     <path d="M269 191h23v12h-23zm0 13h23v18h-23zm0 19h23v21h-23z" stroke="#187218" fill="#30e530"/>"     "     "     <path d="M269 245h23v21h-23zm0 22h23v11h-23z" fill="#30e630" stroke="#187318"/>"     "     <path d="M269 279h23v4h-23zm0 5h23v15h-23zm0 16h23v27h-23z" stroke="#187318" fill="#30e730"/>"     "     "     <path d="M269 328h23v5h-23zm0 6h23v11h-23zm0 12h23v7h-23z" fill="#30e830" stroke="#187418"/>"     "     "     <path d="M269 354h23v18h-23zm0 19h23v15h-23z" stroke="#187418" fill="#30e930"/>"     "     <path d="M269 389h23v5h-23zm0 6h23v1h-23zm0 2h23v19h-23z" fill="#30ea30" stroke="#187518"/>"     "     "     <path d="M269 417h23v26h-23zm0 27h23v2h-23zm0 3h23v19h-23z" stroke="#187518" fill="#30eb30"/>"     "     "     <path d="M269 467h23v7h-23zm0 8h23v27h-23z" fill="#30ec30" stroke="#187618"/>"     "     <path d="M269 503h23v9h-23zM293 1h22v30h-22zm0 31h22v8h-22z" stroke="#187618" fill="#30ed30"/>"     "     "     <path d="M293 41h22v16h-22zm0 17h22v23h-22zm0 24h22v6h-22z" fill="#30ee30" stroke="#187718"/>"     "     "     <path d="M293 89h22v30h-22zm0 31h22v7h-22z" stroke="#187718" fill="#30ef30"/>"     "     <path d="M293 128h22v11h-22zm0 12h22v26h-22zm0 27h22v12h-22z" fill="#30f030" stroke="#187818"/>"     "     "     <path d="M293 180h22v9h-22zm0 10h22v16h-22zm0 17h22v25h-22z" stroke="#187818" fill="#31f030"/>"     "     "     <path d="M293 233h22v20h-22zm0 21h22v1h-22z" fill="#32f030" stroke="#197818"/>"     "     <path d="M293 256h22v22h-22zm0 23h22v15h-22zm0 16h22v17h-22z" stroke="#197818" fill="#33f030"/>"     "     "     <path d="M293 313h22v4h-22zm0 5h22v4h-22zm0 5h22v29h-22z" fill="#34f030" stroke="#1a7818"/>"     "     "     <path d="M293 353h22v19h-22zm0 20h22v16h-22z" stroke="#1a7818" fill="#35f030"/>"     "     <path d="M293 390h22v22h-22zm0 23h22v6h-22zm0 7h22v3h-22z" fill="#36f030" stroke="#1b7818"/>"     "     "     <path d="M293 424h22v11h-22zm0 12h22v21h-22zm0 22h22v4h-22z" stroke="#1b7818" fill="#37f030"/>"     "     "     <path d="M293 463h22v5h-22zm0 6h22v21h-22z" fill="#38f030" stroke="#1c7818"/>"     "     <path d="M293 491h19v21h-19zm20 0h2v21h-2zm3-490h2v30h-2z" stroke="#1c7818" fill="#39f030"/>"     "     "     <path d="M316 32h2v28h-2zm0 29h2v14h-2zm0 15h2v28h-2z" fill="#3af030" stroke="#1d7818"/>"     "     "     <path d="M316 105h2v18h-2zm0 19h2v2h-2z" stroke="#1d7818" fill="#3bf030"/>"     "     <path d="M316 127h2v2h-2zm0 3h2v23h-2zm0 24h2v27h-2z" fill="#3cf030" stroke="#1e7818"/>"     "     "     <path d="M316 182h2v11h-2zm0 12h2v12h-2zm0 13h2v3h-2z" stroke="#1e7818" fill="#3df030"/>"     "     "     <path d="M316 211h2v21h-2zm0 22h2v24h-2z" fill="#3ef030" stroke="#1f7818"/>"     "     <path d="M316 258h2v20h-2zm0 21h2v6h-2zm0 7h2v5h-2z" stroke="#1f7818" fill="#3ff030"/>"     "     "     <path d="M316 292h2v1h-2zm0 2h2v5h-2zm0 6h2v24h-2z" fill="#40f030" stroke="#207818"/>"     "     "     <path d="M316 325h2v7h-2zm0 8h2v1h-2z" stroke="#207818" fill="#41f030"/>"     "     <path d="M316 335h2v25h-2zm0 26h2v23h-2zm0 24h2v10h-2z" fill="#42f030" stroke="#217818"/>"     "     "     <path d="M316 396h2v1h-2zm0 2h2v21h-2zm0 22h2v6h-2z" stroke="#217818" fill="#43f030"/>"     "     "     <path d="M316 427h2v15h-2zm0 16h2v19h-2z" fill="#44f030" stroke="#227818"/>"     "     <path d="M316 463h2v8h-2zm0 9h2v24h-2zm0 25h2v15h-2z" stroke="#227818" fill="#45f030"/>"     "     "     <path d="M319 1h5v30h-5zm0 31h5v5h-5zm0 6h5v4h-5z" fill="#46f030" stroke="#237818"/>"     "     "     <path d="M319 43h5v16h-5zm0 17h5v20h-5z" stroke="#237818" fill="#47f030"/>"     "     <path d="M319 81h5v1h-5zm0 2h5v13h-5zm0 14h5v15h-5z" fill="#48f030" stroke="#247818"/>"     "     "     <path d="M319 113h5v15h-5zm0 16h5v19h-5zm0 20h5v3h-5z" stroke="#247818" fill="#49f030"/>"     "     "     <path d="M319 153h5v21h-5zm0 22h5v7h-5z" fill="#4af030" stroke="#257818"/>"     "     <path d="M319 183h5v14h-5zm0 15h5v24h-5zm0 25h5v23h-5z" stroke="#257818" fill="#4bf030"/>"     "     "     <path d="M319 247h5v14h-5zm0 15h5v30h-5zm0 31h5v8h-5z" fill="#4cf030" stroke="#267818"/>"     "     "     <path d="M319 302h5v18h-5zm0 19h5v22h-5z" stroke="#267818" fill="#4df030"/>"     "     <path d="M319 344h5v1h-5zm0 2h5v6h-5zm0 7h5v1h-5z" fill="#4ef030" stroke="#277818"/>"     "     "     <path d="M319 355h5v27h-5zm0 28h5v2h-5zm0 3h5v30h-5z" stroke="#277818" fill="#4ff030"/>"     "     "     <path d="M319 417h5v23h-5zm0 24h5v27h-5z" fill="#50f030" stroke="#287818"/>"     "     <path d="M319 469h4v13h-4zm0 14h5v29h-5zm6-482h7v30h-7z" stroke="#287818" fill="#51f030"/>"     "     "     <path d="M325 32h7v16h-7zm0 17h7v15h-7zm0 16h7v24h-7z" fill="#52f030" stroke="#297818"/>"     "     "     <path d="M325 90h7v17h-7zm0 18h7v1h-7z" stroke="#297818" fill="#53f030"/>"     "     <path d="M325 110h7v21h-7zm0 22h7v25h-7zm0 26h7v25h-7z" fill="#54f030" stroke="#2a7818"/>"     "     "     <path d="M325 184h7v5h-7zm0 6h7v27h-7zm0 28h7v29h-7z" stroke="#2a7818" fill="#55f030"/>"     "     "     <path d="M325 248h7v12h-7zm0 13h7v19h-7z" fill="#56f030" stroke="#2b7818"/>"     "     <path d="M325 281h7v2h-7zm0 3h7v4h-7zm0 5h7v3h-7z" stroke="#2b7818" fill="#57f030"/>"     "     "     <path d="M325 293h7v8h-7zm0 9h7v26h-7zm0 27h7v13h-7z" fill="#58f030" stroke="#2c7818"/>"     "     "     <path d="M325 343h7v4h-7zm0 5h7v28h-7z" stroke="#2c7818" fill="#59f030"/>"     "     <path d="M325 377h7v26h-7zm0 27h7v28h-7zm0 29h7v26h-7z" fill="#5af030" stroke="#2d7818"/>"     "     "     <path d="M325 460h7v8h-7zm0 9h7v18h-7zm0 19h7v24h-7z" stroke="#2d7818" fill="#5bf030"/>"     "     "     <path d="M333 1h1v30h-1zm0 31h1v24h-1z" fill="#5cf030" stroke="#2e7818"/>"     "     <path d="M333 57h1v2h-1zm0 3h1v13h-1zm0 14h1v15h-1z" stroke="#2e7818" fill="#5df030"/>"     "     "     <path d="M333 90h1v15h-1zm0 16h1v7h-1zm0 8h1v4h-1z" fill="#5ef030" stroke="#2f7818"/>"     "     "     <path d="M333 119h1v15h-1zm0 16h1v12h-1z" stroke="#2f7818" fill="#5ff030"/>"     "     <path d="M333 148h1v26h-1zm0 27h1v4h-1zm0 5h1v23h-1z" fill="#60f030" stroke="#307818"/>"     "     "     <path d="M333 204h1v14h-1zm0 15h1v22h-1zm0 23h1v14h-1z" stroke="#307818" fill="#61f030"/>"     "     "     <path d="M333 257h1v3h-1zm0 4h1v6h-1z" fill="#62f030" stroke="#317818"/>"     "     <path d="M333 268h1v22h-1zm0 23h1v7h-1zm0 8h1v1h-1z" stroke="#317818" fill="#63f030"/>"     "     "     <path d="M333 301h1v23h-1zm0 24h1v26h-1zm0 27h1v27h-1z" fill="#64f030" stroke="#327818"/>"     "     "     <path d="M333 380h1v3h-1zm0 4h1v13h-1z" stroke="#327818" fill="#65f030"/>"     "     <path d="M333 398h1v17h-1zm0 18h1v17h-1zm0 18h1v14h-1z" fill="#66f030" stroke="#337818"/>"     "     "     <path d="M333 449h1v12h-1zm0 13h1v14h-1zm0 15h1v7h-1z" stroke="#337818" fill="#67f030"/>"     "     "     <path d="M333 485h1v27h-1zm2-484h8v30h-8z" fill="#68f030" stroke="#347818"/>"     "     <path d="M335 32h8v28h-8zm0 29h8v20h-8zm0 21h8v20h-8z" stroke="#347818" fill="#69f030"/>"     "     "     <path d="M335 103h8v15h-8zm0 16h8v29h-8zm0 30h8v27h-8z" fill="#6af030" stroke="#357818"/>"     "     "     <path d="M335 177h8v25h-8zm0 26h8v17h-8z" stroke="#357818" fill="#6bf030"/>"     "     <path d="M335 221h8v9h-8zm0 10h8v12h-8zm0 13h8v17h-8z" fill="#6cf030" stroke="#367818"/>"     "     "     <path d="M335 262h8v4h-8zm0 5h8v18h-8zm0 19h8v19h-8z" stroke="#367818" fill="#6df030"/>"     "     "     <path d="M335 306h8v9h-8zm0 10h8v9h-8z" fill="#6ef030" stroke="#377818"/>"     "     <path d="M335 326h8v27h-8zm0 28h8v25h-8zm0 26h8v21h-8z" stroke="#377818" fill="#6ff030"/>"     "     "     <path d="M335 402h8v23h-8zm0 24h8v21h-8zm0 22h8v2h-8z" fill="#70f030" stroke="#387818"/>"     "     "     <path d="M335 451h8v7h-8zm0 8h8v23h-8z" stroke="#387818" fill="#71f030"/>"     "     <path d="M335 483h8v29h-8zm9-482h28v30h-28zm0 31h28v3h-28z" fill="#72f030" stroke="#397818"/>"     "     "     <path d="M344 36h28v16h-28zm0 17h28v18h-28zm0 19h28v8h-28z" stroke="#397818" fill="#73f030"/>"     "     "     <path d="M344 81h28v21h-28zm0 22h28v12h-28z" fill="#74f030" stroke="#3a7818"/>"     "     <path d="M344 116h28v16h-28zm0 17h28v3h-28zm0 4h28v10h-28z" stroke="#3a7818" fill="#75f030"/>"     "     "     <path d="M344 148h28v17h-28zm0 18h28v8h-28zm0 9h28v28h-28z" fill="#76f030" stroke="#3b7818"/>"     "     "     <path d="M344 204h28v5h-28zm0 6h28v20h-28z" stroke="#3b7818" fill="#77f030"/>"     "     <path d="M344 231h28v19h-28zm0 20h28v27h-28zm0 28h28v8h-28z" fill="#78f030" stroke="#3c7818"/>"     "     "     <path d="M344 288h28v9h-28zm0 10h28v11h-28zm0 12h28v28h-28z" stroke="#3c7818" fill="#79f030"/>"     "     "     <path d="M344 339h28v1h-28zm0 2h28v8h-28z" fill="#7af030" stroke="#3d7818"/>"     "     <path d="M344 350h28v17h-28zm0 18h28v28h-28zm0 29h28v22h-28z" stroke="#3d7818" fill="#7bf030"/>"     "     "     <path d="M344 420h28v21h-28zm0 22h28v17h-28zm0 18h28v26h-28z" fill="#7cf030" stroke="#3e7818"/>"     "     "     <path d="M344 487h28v25h-28zM373 1h4v30h-4z" stroke="#3e7818" fill="#7df030"/>"     "     <path d="M373 32h4v14h-4zm0 15h4v7h-4zm0 8h4v17h-4z" fill="#7ef030" stroke="#3f7818"/>"     "     "     <path d="M373 73h4v26h-4zm0 27h4v8h-4zm0 9h4v7h-4z" stroke="#3f7818" fill="#7ff030"/>"     "     "     <path d="M373 117h4v18h-4zm0 19h4v25h-4z" fill="#80f030" stroke="#407818"/>"     "     <path d="M373 162h4v1h-4zm0 2h4v9h-4zm0 10h4v17h-4z" stroke="#407818" fill="#81f030"/>"     "     "     <path d="M373 192h4v5h-4zm0 6h4v5h-4zm0 6h4v25h-4z" fill="#82f030" stroke="#417818"/>"     "     "     <path d="M373 230h4v28h-4zm0 29h4v22h-4z" stroke="#417818" fill="#83f030"/>"     "     <path d="M373 282h4v26h-4zm0 27h4v9h-4zm0 10h4v12h-4z" fill="#84f030" stroke="#427818"/>"     "     "     <path d="M373 332h4v24h-4zm0 25h4v18h-4zm0 19h4v17h-4z" stroke="#427818" fill="#85f030"/>"     "     "     <path d="M373 394h4v11h-4zm0 12h4v27h-4z" fill="#86f030" stroke="#437818"/>"     "     <path d="M373 434h4v12h-4zm0 13h4v5h-4zm0 6h4v29h-4z" stroke="#437818" fill="#87f030"/>"     "     "     <path d="M373 483h4v29h-4zm5-482h27v30h-27zm0 31h27v18h-27z" fill="#88f030" stroke="#447818"/>"     "     "     <path d="M378 51h27v15h-27zm0 16h27v8h-27z" stroke="#447818" fill="#89f030"/>"     "     <path d="M378 76h27v24h-27zm0 25h27v13h-27zm0 14h27v16h-27z" fill="#8af030" stroke="#457818"/>"     "     "     <path d="M378 132h27v27h-27zm0 28h27v27h-27zm0 28h27v6h-27z" stroke="#457818" fill="#8bf030"/>"     "     "     <path d="M378 195h27v12h-27zm0 13h27v18h-27z" fill="#8cf030" stroke="#467818"/>"     "     <path d="M378 227h27v10h-27zm0 11h27v18h-27zm0 19h27v15h-27z" stroke="#467818" fill="#8df030"/>"     "     "     <path d="M378 273h27v21h-27zm0 22h26v10h-26zm0 11h26v5h-26z" fill="#8ef030" stroke="#477818"/>"     "     "     <path d="M378 312h26v2h-26zm0 3h5v28h-5z" stroke="#477818" fill="#8ff030"/>"     "     <path d="M384 315h21v28h-21zm-6 29h26v22h-26zm0 23h26v15h-26z" fill="#90f030" stroke="#487818"/>"     "     "     <path d="M378 383h11v28h-11zm12 0h13v28h-13zm14 0h1v28h-1z" stroke="#487818" fill="#91f030"/>"     "     "     <path d="M378 412h26v15h-26zm0 16h26v22h-26z" fill="#92f030" stroke="#497818"/>"     "     <path d="M378 451h26v7h-26zm0 8h26v7h-26zm0 8h26v7h-26z" stroke="#497818" fill="#93f030"/>"     "     "     <path d="M378 475h26v13h-26zm0 14h6v23h-6zm7 0h20v23h-20z" fill="#94f030" stroke="#4a7818"/>"     "     "     <path d="M406 1h29v30h-29zm0 31h29v12h-29z" stroke="#4a7818" fill="#95f030"/>"     "     <path d="M406 45h29v19h-29zm0 20h29v14h-29zm0 15h29v19h-29z" fill="#96f030" stroke="#4b7818"/>"     "     "     <path d="M406 100h29v6h-29zm0 7h29v24h-29zm0 25h29v27h-29z" stroke="#4b7818" fill="#97f030"/>"     "     "     <path d="M406 160h29v7h-29zm0 8h29v19h-29z" fill="#98f030" stroke="#4c7818"/>"     "     <path d="M406 188h29v2h-29zm0 3h29v23h-29zm0 24h29v29h-29z" stroke="#4c7818" fill="#99f030"/>"     "     "     <path d="M406 245h29v8h-29zm0 9h29v18h-29zm0 19h29v11h-29z" fill="#9af030" stroke="#4d7818"/>"     "     "     <path d="M406 285h29v22h-29zm0 23h29v13h-29z" stroke="#4d7818" fill="#9bf030"/>"     "     <path d="M406 322h29v11h-29zm0 12h29v4h-29zm0 5h29v8h-29z" fill="#9cf030" stroke="#4e7818"/>"     "     "     <path d="M406 348h29v10h-29zm0 11h29v3h-29zm0 4h29v29h-29z" stroke="#4e7818" fill="#9df030"/>"     "     "     <path d="M406 393h29v25h-29zm0 26h29v15h-29z" fill="#9ef030" stroke="#4f7818"/>"     "     <path d="M406 435h29v13h-29zm0 14h29v15h-29zm0 16h29v5h-29z" stroke="#4f7818" fill="#9ff030"/>"     "     "     <path d="M406 471h26v30h-26zm27 0h2v30h-2zm-27 31h29v10h-29z" fill="#a0f030" stroke="#507818"/>"     "     "     <path d="M436 1h23v30h-23zm0 31h23v8h-23z" stroke="#507818" fill="#a1f030"/>"     "     <path d="M436 41h23v1h-23zm0 2h23v14h-23zm0 15h23v1h-23z" fill="#a2f030" stroke="#517818"/>"     "     "     <path d="M436 60h23v8h-23zm0 9h23v22h-23zm0 23h23v8h-23z" stroke="#517818" fill="#a3f030"/>"     "     "     <path d="M436 101h23v7h-23zm0 8h23v18h-23z" fill="#a4f030" stroke="#527818"/>"     "     <path d="M436 128h23v3h-23zm0 4h23v3h-23zm0 4h23v22h-23z" stroke="#527818" fill="#a5f030"/>"     "     "     <path d="M436 159h23v12h-23zm0 13h6v24h-6zm7 0h16v18h-16z" fill="#a6f030" stroke="#537818"/>"     "     "     <path d="M443 191h16v5h-16zm-7 6h19v24h-19z" stroke="#537818" fill="#a7f030"/>"     "     <path d="M456 197h3v24h-3zm-20 25h2v24h-2zm3 0h20v24h-20z" fill="#a8f030" stroke="#547818"/>"     "     "     <path d="M436 247h8v24h-8zm9 0h14v24h-14zm-9 25h7v24h-7z" stroke="#547818" fill="#a9f030"/>"     "     "     <path d="M444 272h15v24h-15zm-8 25h2v24h-2z" fill="#aaf030" stroke="#557818"/>"     "     <path d="M439 297h20v24h-20zm-3 25h22v29h-22zm0 30h10v24h-10z" stroke="#557818" fill="#abf030"/>"     "     "     <path d="M447 352h12v24h-12zm-11 25h10v24h-10zm11 0h12v24h-12z" fill="#acf030" stroke="#567818"/>"     "     "     <path d="M436 402h8v24h-8zm9 0h14v24h-14z" stroke="#567818" fill="#adf030"/>"     "     <path d="M436 427h9v24h-9zm10 0h13v24h-13zm-10 25h8v24h-8z" fill="#aef030" stroke="#577818"/>"     "     "     <path d="M445 452h14v24h-14zm-9 25h19v24h-19zm20 0h3v24h-3z" stroke="#577818" fill="#aff030"/>"     "     "     <path d="M436 502h23v10h-23zM460 1h28v30h-28z" fill="#b0f030" stroke="#587818"/>"     "     <path d="M460 32h28v26h-28zm0 27h28v5h-28zm0 6h28v5h-28z" stroke="#587818" fill="#b1f030"/>"     "     "     <path d="M460 71h28v29h-28zm0 30h28v2h-28zm0 3h28v27h-28z" fill="#b2f030" stroke="#597818"/>"     "     "     <path d="M460 132h28v2h-28zm0 3h28v13h-28z" stroke="#597818" fill="#b3f030"/>"     "     <path d="M460 149h28v23h-28zm0 24h28v18h-28zm0 19h28v8h-28z" fill="#b4f030" stroke="#5a7818"/>"     "     "     <path d="M460 201h28v30h-28zm0 31h28v7h-28zm0 8h28v25h-28z" stroke="#5a7818" fill="#b5f030"/>"     "     "     <path d="M460 266h28v13h-28zm0 14h28v7h-28z" fill="#b6f030" stroke="#5b7818"/>"     "     <path d="M460 288h28v30h-28zm0 31h28v21h-28zm0 22h21v30h-21z" stroke="#5b7818" fill="#b7f030"/>"     "     "     <path d="M482 341h6v30h-6zm-22 31h19v30h-19zm20 0h8v21h-8z" fill="#b8f030" stroke="#5c7818"/>"     "     "     <path d="M480 394h8v8h-8zm-20 9h3v30h-3z" stroke="#5c7818" fill="#b9f030"/>"     "     <path d="M464 403h24v30h-24zm-4 31h19v30h-19zm20 0h8v26h-8z" fill="#baf030" stroke="#5d7818"/>"     "     "     <path d="M480 461h8v3h-8zm-20 4h19v30h-19zm0 31h28v16h-28z" stroke="#5d7818" fill="#bbf030"/>"     "     "     <path d="M480 465h8v13h-8zm0 14h8v16h-8z" fill="#bcf030" stroke="#5e7818"/>"     "     <path d="M489 1h3v30h-3zm0 31h3v22h-3zm0 23h3v9h-3z" stroke="#5e7818" fill="#bdf030"/>"     "     "     <path d="M489 65h3v6h-3zm0 7h3v26h-3zm0 27h3v12h-3z" fill="#bef030" stroke="#5f7818"/>"     "     "     <path d="M489 112h3v23h-3zm0 24h3v4h-3z" stroke="#5f7818" fill="#bff030"/>"     "     <path d="M489 141h3v5h-3zm0 6h3v11h-3zm0 12h3v20h-3z" fill="#c0f030" stroke="#607818"/>"     "     "     <path d="M489 180h3v29h-3zm0 30h3v14h-3zm0 15h3v19h-3z" stroke="#607818" fill="#c1f030"/>"     "     "     <path d="M489 245h3v1h-3zm0 2h3v26h-3z" fill="#c2f030" stroke="#617818"/>"     "     <path d="M489 274h3v20h-3zm0 21h3v12h-3zm0 13h3v28h-3z" stroke="#617818" fill="#c3f030"/>"     "     "     <path d="M489 337h3v27h-3zm0 28h3v13h-3zm0 14h3v26h-3z" fill="#c4f030" stroke="#627818"/>"     "     "     <path d="M489 406h3v15h-3zm0 16h3v14h-3z" stroke="#627818" fill="#c5f030"/>"     "     <path d="M489 437h3v1h-3zm0 2h3v18h-3zm0 19h3v2h-3z" fill="#c6f030" stroke="#637818"/>"     "     "     <path d="M489 461h3v29h-3zm0 30h3v21h-3zm4-490h15v30h-15z" stroke="#637818" fill="#c7f030"/>"     "     "     <path d="M493 32h15v5h-15zm0 6h15v10h-15z" fill="#c8f030" stroke="#647818"/>"     "     <path d="M493 49h15v16h-15zm0 17h15v24h-15zm0 25h15v16h-15z" stroke="#647818" fill="#c9f030"/>"     "     "     <path d="M493 108h15v25h-15zm0 26h15v27h-15zm0 28h15v19h-15z" fill="#caf030" stroke="#657818"/>"     "     "     <path d="M493 182h15v21h-15zm0 22h15v14h-15z" stroke="#657818" fill="#cbf030"/>"     "     <path d="M493 219h15v6h-15zm0 7h15v10h-15zm0 11h15v25h-15z" fill="#ccf030" stroke="#667818"/>"     "     "     <path d="M493 263h15v23h-15zm0 24h15v15h-15zm0 16h15v27h-15z" stroke="#667818" fill="#cdf030"/>"     "     "     <path d="M493 331h15v21h-15zm0 22h15v4h-15z" fill="#cef030" stroke="#677818"/>"     "     <path d="M493 358h15v26h-15zm0 27h15v3h-15zm0 4h14v26h-14z" stroke="#677818" fill="#cff030"/>"     "     "     <path d="M493 416h14v10h-14zm0 11h14v22h-14zm0 23h14v25h-14z" fill="#d0f030" stroke="#687818"/>"     "     "     <path d="M493 476h14v10h-14zm0 11h15v25h-15z" stroke="#687818" fill="#d1f030"/>"     "     <path d="M509 1h21v30h-21zm0 31h21v20h-21zm0 21h21v25h-21z" fill="#d2f030" stroke="#697818"/>"     "     "     <path d="M509 79h21v21h-21zm0 22h21v12h-21zm0 13h21v16h-21z" stroke="#697818" fill="#d3f030"/>"     "     "     <path d="M509 131h21v25h-21zm0 26h21v17h-21z" fill="#d4f030" stroke="#6a7818"/>"     "     <path d="M509 175h21v17h-21zm0 18h21v2h-21zm0 3h21v29h-21z" stroke="#6a7818" fill="#d5f030"/>"     "     "     <path d="M509 226h21v12h-21zm0 13h21v5h-21zm0 6h21v9h-21z" fill="#d6f030" stroke="#6b7818"/>"     "     "     <path d="M509 255h21v27h-21zm0 28h21v1h-21z" stroke="#6b7818" fill="#d7f030"/>"     "     <path d="M509 285h21v23h-21zm0 24h20v15h-20zm0 16h20v22h-20z" fill="#d8f030" stroke="#6c7818"/>"     "     "     <path d="M509 348h20v9h-20zm0 10h20v22h-20zm0 23h20v21h-20z" stroke="#6c7818" fill="#d9f030"/>"     "     "     <path d="M509 403h20v6h-20zm0 7h20v21h-20z" fill="#daf030" stroke="#6d7818"/>"     "     <path d="M509 432h20v11h-20zm0 12h20v9h-20zm0 10h20v19h-20z" stroke="#6d7818" fill="#dbf030"/>"     "     "     <path d="M509 474h20v11h-20zm0 12h21v26h-21zM531 1h30v13h-30z" fill="#dcf030" stroke="#6e7818"/>"     "     "     <path d="M562 1h11v13h-11zm12 0h9v13h-9z" stroke="#6e7818" fill="#ddf030"/>"     "     <path d="M584 1h11v13h-11zm12 0h9v13h-9zm10 0h11v13h-11z" fill="#def030" stroke="#6f7818"/>"     "     "     <path d="M618 1h14v13h-14zm15 0h9v13h-9zm10 0h30v13h-30z" stroke="#6f7818" fill="#dff030"/>"     "     "     <path d="M674 1h19v13h-19zm20 0h12v13h-12z" fill="#e0f030" stroke="#707818"/>"     "     <path d="M707 1h11v13h-11zm12 0h26v13h-26zm27 0h6v13h-6z" stroke="#707818" fill="#e1f030"/>"     "     "     <path d="M753 1h16v13h-16zm17 0h26v13h-26zm27 0h2v13h-2z" fill="#e2f030" stroke="#717818"/>"     "     "     <path d="M800 1h6v13h-6zm7 0h14v13h-14z" stroke="#717818" fill="#e3f030"/>"     "     <path d="M822 1h2v13h-2zm3 0h3v13h-3zm4 0h13v13h-13z" fill="#e4f030" stroke="#727818"/>"     "     "     <path d="M843 1h25v12h-25zm26 0h12v12h-12zm13 0h30v12h-30z" stroke="#727818" fill="#e5f030"/>"     "     "     <path d="M913 1h14v11h-14zm0 12h14v1h-14z" fill="#e6f030" stroke="#737818"/>"     "     <path d="M928 1h7v12h-7zm8 0h14v6h-14zm0 7h14v6h-14z" stroke="#737818" fill="#e7f030"/>"     "     "     <path d="M951 1h1v12h-1zm2 0h14v9h-14zm0 10h14v3h-14z" fill="#e8f030" stroke="#747818"/>"     "     "     <path d="M968 1h14v10h-14zm0 11h14v2h-14z" stroke="#747818" fill="#e9f030"/>"     "     <path d="M983 1h18v12h-18zm19 0h22v13h-22zM531 15h30v6h-30z" fill="#eaf030" stroke="#757818"/>"     "     "     <path d="M562 15h11v6h-11zm12 0h11v6h-11zm12 0h26v6h-26z" stroke="#757818" fill="#ebf030"/>"     "     "     <path d="M613 15h11v6h-11zm12 0h19v6h-19z" fill="#ecf030" stroke="#767818"/>"     "     <path d="M645 15h26v6h-26zm27 0h10v6h-10zm11 0h26v6h-26z" stroke="#767818" fill="#edf030"/>"     "     "     <path d="M710 15h6v6h-6zm7 0h30v6h-30zm31 0h7v6h-7z" fill="#eef030" stroke="#777818"/>"     "     "     <path d="M756 15h11v6h-11zm12 0h13v6h-13z" stroke="#777818" fill="#eff030"/>"     "     <path d="M782 15h18v6h-18zm19 0h25v6h-25zm26 0h24v6h-24z" fill="#f0f030" stroke="#787818"/>"     "     "     <path d="M852 15h24v6h-24zm25 0h25v6h-25zm26 0h25v6h-25z" stroke="#787818" fill="#f0f031"/>"     "     "     <path d="M929 15h7v2h-7zm0 3h6v3h-6z" fill="#f0f032" stroke="#787819"/>"     "     <path d="M937 15h11v5h-11zm12 0h25v5h-25zm26 0h9v5h-9z" stroke="#787819" fill="#f0f033"/>"     "     "     <path d="M985 15h19v5h-19zm20 0h19v6h-19zm-474 7h3v30h-3z" fill="#f0f034" stroke="#78781a"/>"     "     "     <path d="M531 53h3v27h-3zm0 28h3v15h-3z" stroke="#78781a" fill="#f0f035"/>"     "     <path d="M531 97h3v22h-3zm0 23h3v10h-3zm0 11h2v15h-2z" fill="#f0f036" stroke="#78781b"/>"     "     "     <path d="M531 147h2v9h-2zm0 10h2v5h-2zm0 6h2v22h-2z" stroke="#78781b" fill="#f0f037"/>"     "     "     <path d="M531 186h2v22h-2zm0 23h2v23h-2z" fill="#f0f038" stroke="#78781c"/>"     "     <path d="M531 233h2v20h-2zm0 21h1v21h-1zm2 0h1v21h-1z" stroke="#78781c" fill="#f0f039"/>"     "     "     <path d="M531 276h1v19h-1zm2 0h1v19h-1zm-2 20h1v4h-1z" fill="#f0f03a" stroke="#78781d"/>"     "     "     <path d="M533 296h1v3h-1zm-2 5h1v15h-1z" stroke="#78781d" fill="#f0f03b"/>"     "     <path d="M533 300h1v16h-1zm-2 17h1v19h-1zm2 0h1v19h-1z" fill="#f0f03c" stroke="#78781e"/>"     "     "     <path d="M531 337h1v19h-1zm2 0h1v19h-1zm-2 20h1v26h-1z" stroke="#78781e" fill="#f0f03d"/>"     "     "     <path d="M533 357h1v20h-1zm-2 27h1v8h-1z" fill="#f0f03e" stroke="#78781f"/>"     "     <path d="M533 378h1v11h-1zm-2 15h1v23h-1zm2-3h1v21h-1z" stroke="#78781f" fill="#f0f03f"/>"     "     "     <path d="M531 417h1v15h-1zm0 16h2v6h-2zm0 7h1v6h-1z" fill="#f0f040" stroke="#787820"/>"     "     "     <path d="M533 440h1v6h-1zm-2 7h3v6h-3z" stroke="#787820" fill="#f0f041"/>"     "     <path d="M531 454h3v6h-3zm0 7h2v6h-2zm0 7h3v6h-3z" fill="#f0f042" stroke="#787821"/>"     "     "     <path d="M531 475h2v6h-2zm0 7h3v30h-3zm2-70h1v11h-1z" stroke="#787821" fill="#f0f043"/>"     "     "     <path d="M535 22h30v18h-30zm31 0h8v18h-8z" fill="#f0f044" stroke="#787822"/>"     "     <path d="M575 22h30v18h-30zm31 0h10v18h-10zm11 0h6v18h-6z" stroke="#787822" fill="#f0f045"/>"     "     "     <path d="M624 22h26v18h-26zm27 0h19v18h-19zm20 0h14v18h-14z" fill="#f0f046" stroke="#787823"/>"     "     "     <path d="M686 22h18v18h-18zm19 0h6v18h-6z" stroke="#787823" fill="#f0f047"/>"     "     <path d="M712 22h11v18h-11zm12 0h10v18h-10zm11 0h11v18h-11z" fill="#f0f048" stroke="#787824"/>"     "     "     <path d="M747 22h6v18h-6zm7 0h13v18h-13zm14 0h19v18h-19z" stroke="#787824" fill="#f0f049"/>"     "     "     <path d="M788 22h30v18h-30zm31 0h11v18h-11z" fill="#f0f04a" stroke="#787825"/>"     "     <path d="M831 22h14v18h-14zm15 0h13v18h-13zm14 0h22v18h-22z" stroke="#787825" fill="#f0f04b"/>"     "     "     <path d="M883 22h18v18h-18zm19 0h12v18h-12zm13 0h9v17h-9z" fill="#f0f04c" stroke="#787826"/>"     "     "     <path d="M925 22h19v17h-19zm20 0h16v17h-16z" stroke="#787826" fill="#f0f04d"/>"     "     <path d="M962 22h19v17h-19zm20 0h19v10h-19zm20 0h22v18h-22z" fill="#f0f04e" stroke="#787827"/>"     "     "     <path d="M982 33h19v7h-19zm-447 8h26v29h-26zm0 30h26v11h-26z" stroke="#787827" fill="#f0f04f"/>"     "     "     <path d="M535 83h26v25h-26zm0 26h26v4h-26z" fill="#f0f050" stroke="#787828"/>"     "     <path d="M535 114h26v11h-26zm0 12h26v26h-26zm0 27h26v28h-26z" stroke="#787828" fill="#f0f051"/>"     "     "     <path d="M535 182h26v15h-26zm0 16h26v9h-26zm0 10h26v26h-26z" fill="#f0f052" stroke="#787829"/>"     "     "     <path d="M535 235h26v19h-26zm0 20h26v4h-26z" stroke="#787829" fill="#f0f053"/>"     "     <path d="M535 260h26v10h-26zm0 11h26v28h-26zm0 29h26v7h-26z" fill="#f0f054" stroke="#78782a"/>"     "     "     <path d="M535 308h26v22h-26zm0 23h26v29h-26zm0 30h26v2h-26z" stroke="#78782a" fill="#f0f055"/>"     "     "     <path d="M535 364h26v12h-26zm0 13h26v14h-26z" fill="#f0f056" stroke="#78782b"/>"     "     <path d="M535 392h26v16h-26zm0 17h26v25h-26zm0 26h26v7h-26z" stroke="#78782b" fill="#f0f057"/>"     "     "     <path d="M535 443h26v14h-26zm0 15h26v14h-26zm0 15h26v23h-26z" fill="#f0f058" stroke="#78782c"/>"     "     "     <path d="M535 497h19v15h-19zm20 0h6v15h-6z" stroke="#78782c" fill="#f0f059"/>"     "     <path d="M562 41h30v15h-30zm31 0h14v15h-14zm15 0h13v15h-13z" fill="#f0f05a" stroke="#78782d"/>"     "     "     <path d="M622 41h9v15h-9zm10 0h11v15h-11zm12 0h14v15h-14z" stroke="#78782d" fill="#f0f05b"/>"     "     "     <path d="M659 41h14v15h-14zm15 0h14v15h-14z" fill="#f0f05c" stroke="#78782e"/>"     "     <path d="M689 41h9v15h-9zm10 0h9v15h-9zm10 0h9v15h-9z" stroke="#78782e" fill="#f0f05d"/>"     "     "     <path d="M719 41h9v15h-9zm10 0h18v15h-18zm19 0h11v15h-11z" fill="#f0f05e" stroke="#78782f"/>"     "     "     <path d="M760 41h11v15h-11zm12 0h16v11h-16z" stroke="#78782f" fill="#f0f05f"/>"     "     <path d="M772 53h9v3h-9zm17-12h7v14h-7zm8 0h16v10h-16z" fill="#f0f060" stroke="#787830"/>"     "     "     <path d="M797 52h16v4h-16zm17-11h16v9h-16zm0 10h16v1h-16z" stroke="#787830" fill="#f0f061"/>"     "     "     <path d="M814 53h8v3h-8zm17-12h16v11h-16z" fill="#f0f062" stroke="#787831"/>"     "     <path d="M823 53h11v3h-11zm12 0h12v2h-12zm13-12h16v10h-16z" stroke="#787831" fill="#f0f063"/>"     "     "     <path d="M848 52h13v4h-13zm17-11h30v14h-30zm31 0h19v14h-19z" fill="#f0f064" stroke="#787832"/>"     "     "     <path d="M916 41h24v14h-24zm25 0h14v14h-14z" stroke="#787832" fill="#f0f065"/>"     "     <path d="M956 41h16v14h-16zm17 0h16v11h-16zm0 12h13v3h-13z" fill="#f0f066" stroke="#787833"/>"     "     "     <path d="M990 41h24v14h-24zm25 0h9v9h-9zm0 10h9v2h-9z" stroke="#787833" fill="#f0f067"/>"     "     "     <path d="M1015 54h9v2h-9zm-453 3h13v29h-13z" fill="#f0f068" stroke="#787834"/>"     "     <path d="M562 87h13v24h-13zm0 25h13v25h-13zm0 26h13v26h-13z" stroke="#787834" fill="#f0f069"/>"     "     "     <path d="M562 165h13v29h-13zm0 30h13v4h-13zm0 5h13v16h-13z" fill="#f0f06a" stroke="#787835"/>"     "     "     <path d="M562 217h13v19h-13zm0 20h13v3h-13z" stroke="#787835" fill="#f0f06b"/>"     "     <path d="M562 241h13v10h-13zm0 11h13v8h-13zm0 9h13v21h-13z" fill="#f0f06c" stroke="#787836"/>"     "     "     <path d="M562 283h13v19h-13zm0 20h13v25h-13zm0 26h13v23h-13z" stroke="#787836" fill="#f0f06d"/>"     "     "     <path d="M562 353h13v26h-13zm0 27h13v28h-13z" fill="#f0f06e" stroke="#787837"/>"     "     <path d="M562 409h13v11h-13zm0 12h13v3h-13zm0 4h12v29h-12z" stroke="#787837" fill="#f0f06f"/>"     "     "     <path d="M562 455h8v14h-8zm9 0h4v14h-4zm-9 15h12v5h-12z" fill="#f0f070" stroke="#787838"/>"     "     "     <path d="M562 476h12v10h-12zm0 11h12v25h-12z" stroke="#787838" fill="#f0f071"/>"     "     <path d="M576 57h30v9h-30zm31 0h11v9h-11zm12 0h8v9h-8z" fill="#f0f072" stroke="#787839"/>"     "     "     <path d="M628 57h12v9h-12zm13 0h11v9h-11zm12 0h11v9h-11z" stroke="#787839" fill="#f0f073"/>"     "     "     <path d="M665 57h12v9h-12zm13 0h10v9h-10z" fill="#f0f074" stroke="#78783a"/>"     "     <path d="M689 57h6v9h-6zm7 0h4v9h-4zm5 0h25v9h-25z" stroke="#78783a" fill="#f0f075"/>"     "     "     <path d="M727 57h16v9h-16zm17 0h20v9h-20zm21 0h20v9h-20z" fill="#f0f076" stroke="#78783b"/>"     "     "     <path d="M786 57h12v9h-12zm13 0h16v8h-16z" stroke="#78783b" fill="#f0f077"/>"     "     <path d="M816 57h10v9h-10zm11 0h11v8h-11zm12 0h6v8h-6z" fill="#f0f078" stroke="#78783c"/>"     "     "     <path d="M846 57h10v6h-10zm0 7h9v2h-9zm11-7h11v8h-11z" stroke="#78783c" fill="#f0f079"/>"     "     "     <path d="M869 57h11v8h-11zm12 0h24v8h-24z" fill="#f0f07a" stroke="#78783d"/>"     "     <path d="M906 57h25v8h-25zm26 0h14v8h-14zm15 0h20v8h-20z" stroke="#78783d" fill="#f0f07b"/>"     "     "     <path d="M968 57h10v6h-10zm11 0h10v6h-10zm-11 7h14v2h-14z" fill="#f0f07c" stroke="#78783e"/>"     "     "     <path d="M990 57h24v8h-24zm25 0h9v4h-9z" stroke="#78783e" fill="#f0f07d"/>"     "     <path d="M1015 62h9v4h-9zm-439 5h18v29h-18zm0 30h18v2h-18z" fill="#f0f07e" stroke="#78783f"/>"     "     "     <path d="M576 100h18v24h-18zm0 25h18v25h-18zm0 26h18v29h-18z" stroke="#78783f" fill="#f0f07f"/>"     "     "     <path d="M576 181h18v3h-18zm0 4h18v24h-18z" fill="#f0f080" stroke="#787840"/>"     "     <path d="M576 210h18v28h-18zm0 29h18v20h-18zm0 21h18v3h-18z" stroke="#787840" fill="#f0f081"/>"     "     "     <path d="M576 264h18v27h-18zm0 28h18v19h-18zm0 20h18v17h-18z" fill="#f0f082" stroke="#787841"/>"     "     "     <path d="M576 330h18v1h-18zm0 2h11v19h-11z" stroke="#787841" fill="#f0f083"/>"     "     <path d="M588 332h6v19h-6zm-12 20h11v19h-11zm12 0h6v14h-6z" fill="#f0f084" stroke="#787842"/>"     "     "     <path d="M588 367h6v4h-6zm-12 5h2v19h-2zm3 0h11v19h-11z" stroke="#787842" fill="#f0f085"/>"     "     "     <path d="M576 392h16v19h-16zm17 0h1v19h-1z" fill="#f0f086" stroke="#787843"/>"     "     <path d="M576 412h2v19h-2zm3 0h11v19h-11zm-3 20h2v19h-2z" stroke="#787843" fill="#f0f087"/>"     "     "     <path d="M579 432h12v16h-12zm13 0h2v16h-2zm-13 17h11v2h-11z" fill="#f0f088" stroke="#787844"/>"     "     "     <path d="M576 452h4v19h-4zm5 0h12v1h-12z" stroke="#787844" fill="#f0f089"/>"     "     <path d="M581 454h8v17h-8zm-5 18h17v19h-17zm0 20h11v20h-11z" fill="#f0f08a" stroke="#787845"/>"     "     "     <path d="M588 492h6v20h-6zm2-38h3v9h-3zm1-82h1v11h-1z" stroke="#787845" fill="#f0f08b"/>"     "     "     <path d="M591 412h3v11h-3zm4-345h30v3h-30z" fill="#f0f08c" stroke="#787846"/>"     "     <path d="M626 67h25v3h-25zm26 0h25v3h-25zm26 0h25v3h-25z" stroke="#787846" fill="#f0f08d"/>"     "     "     <path d="M704 67h30v3h-30zm31 0h20v3h-20zm21 0h20v3h-20z" fill="#f0f08e" stroke="#787847"/>"     "     "     <path d="M777 67h19v2h-19zm20 0h30v2h-30z" stroke="#787847" fill="#f0f08f"/>"     "     <path d="M828 67h19v2h-19zm20 0h14v2h-14zm15 0h25v2h-25z" fill="#f0f090" stroke="#787848"/>"     "     "     <path d="M889 67h30v2h-30zm31 0h30v1h-30zm-325 4h30v17h-30z" stroke="#787848" fill="#f0f091"/>"     "     "     <path d="M626 71h14v17h-14zm15 0h8v17h-8z" fill="#f0f092" stroke="#787849"/>"     "     <path d="M650 71h8v17h-8zm9 0h9v17h-9zm10 0h20v17h-20z" stroke="#787849" fill="#f0f093"/>"     "     "     <path d="M690 71h24v17h-24zm25 0h14v17h-14zm15 0h24v17h-24z" fill="#f0f094" stroke="#78784a"/>"     "     "     <path d="M755 71h14v17h-14zm15 0h11v17h-11z" stroke="#78784a" fill="#f0f095"/>"     "     <path d="M782 71h14v17h-14zm15 0h12v17h-12zm13 0h25v17h-25z" fill="#f0f096" stroke="#78784b"/>"     "     "     <path d="M836 71h14v17h-14zm15 0h30v17h-30zm31 0h14v17h-14z" stroke="#78784b" fill="#f0f097"/>"     "     "     <path d="M897 71h9v17h-9zm10 0h12v17h-12z" fill="#f0f098" stroke="#78784c"/>"     "     <path d="M920 71h14v16h-14zm15 0h14v16h-14zm15 0h12v16h-12z" stroke="#78784c" fill="#f0f099"/>"     "     "     <path d="M963 71h9v16h-9zm10 0h11v16h-11zm12 0h14v14h-14z" fill="#f0f09a" stroke="#78784d"/>"     "     "     <path d="M1000 71h24v10h-24zm0 11h24v5h-24z" stroke="#78784d" fill="#f0f09b"/>"     "     <path d="M595 89h6v29h-6zm0 30h6v21h-6zm0 22h6v21h-6z" fill="#f0f09c" stroke="#78784e"/>"     "     "     <path d="M595 163h6v27h-6zm0 28h6v12h-6zm0 13h6v27h-6z" stroke="#78784e" fill="#f0f09d"/>"     "     "     <path d="M595 232h6v23h-6zm0 24h6v7h-6z" fill="#f0f09e" stroke="#78784f"/>"     "     <path d="M595 264h6v26h-6zm0 27h6v29h-6zm0 30h6v7h-6z" stroke="#78784f" fill="#f0f09f"/>"     "     "     <path d="M595 329h6v8h-6zm0 9h6v7h-6zm0 8h6v22h-6z" fill="#f0f0a0" stroke="#787850"/>"     "     "     <path d="M595 369h4v28h-4zm0 29h5v8h-5z" stroke="#787850" fill="#f0f0a1"/>"     "     <path d="M595 407h5v8h-5zm0 9h4v23h-4zm0 24h4v11h-4z" fill="#f0f0a2" stroke="#787851"/>"     "     "     <path d="M595 452h5v11h-5zm0 12h4v11h-4zm0 12h5v12h-5z" stroke="#787851" fill="#f0f0a3"/>"     "     "     <path d="M595 489h5v14h-5zm7-400h30v22h-30z" fill="#f0f0a4" stroke="#787852"/>"     "     <path d="M633 89h7v22h-7zm8 0h19v22h-19zm20 0h25v22h-25z" stroke="#787852" fill="#f0f0a5"/>"     "     "     <path d="M687 89h19v22h-19zm20 0h24v22h-24zm25 0h14v22h-14z" fill="#f0f0a6" stroke="#787853"/>"     "     "     <path d="M747 89h14v22h-14zm15 0h12v22h-12z" stroke="#787853" fill="#f0f0a7"/>"     "     <path d="M775 89h20v22h-20zm21 0h25v22h-25zm26 0h20v22h-20z" fill="#f0f0a8" stroke="#787854"/>"     "     "     <path d="M843 89h25v22h-25zm26 0h11v21h-11zm12 0h19v21h-19z" stroke="#787854" fill="#f0f0a9"/>"     "     "     <path d="M901 89h11v21h-11zm12 0h11v21h-11z" fill="#f0f0aa" stroke="#787855"/>"     "     <path d="M925 89h23v11h-23zm0 12h23v10h-23zm24-12h23v20h-23z" stroke="#787855" fill="#f0f0ab"/>"     "     "     <path d="M973 89h23v9h-23zm0 10h20v12h-20zm24-10h26v12h-26z" fill="#f0f0ac" stroke="#787856"/>"     "     "     <path d="M997 102h26v9h-26zm-395 10h19v29h-19z" stroke="#787856" fill="#f0f0ad"/>"     "     <path d="M602 142h19v26h-19zm0 27h19v27h-19zm0 28h19v27h-19z" fill="#f0f0ae" stroke="#787857"/>"     "     "     <path d="M602 225h19v27h-19zm0 28h19v26h-19zm0 27h19v24h-19z" stroke="#787857" fill="#f0f0af"/>"     "     "     <path d="M602 305h19v19h-19zm0 20h19v19h-19z" fill="#f0f0b0" stroke="#787858"/>"     "     <path d="M602 345h19v24h-19zm0 25h19v4h-19zm0 5h19v24h-19z" stroke="#787858" fill="#f0f0b1"/>"     "     "     <path d="M602 400h19v25h-19zm0 26h19v27h-19zm0 28h19v7h-19z" fill="#f0f0b2" stroke="#787859"/>"     "     "     <path d="M602 462h19v21h-19zm0 22h19v28h-19z" stroke="#787859" fill="#f0f0b3"/>"     "     <path d="M622 112h11v29h-11zm0 30h11v11h-11zm0 12h11v20h-11z" fill="#f0f0b4" stroke="#78785a"/>"     "     "     <path d="M622 175h11v10h-11zm0 11h11v25h-11zm0 26h11v24h-11z" stroke="#78785a" fill="#f0f0b5"/>"     "     "     <path d="M622 237h11v14h-11zm0 15h11v21h-11z" fill="#f0f0b6" stroke="#78785b"/>"     "     <path d="M622 274h11v23h-11zm0 24h11v12h-11zm0 13h11v24h-11z" stroke="#78785b" fill="#f0f0b7"/>"     "     "     <path d="M622 336h11v29h-11zm0 30h11v11h-11zm0 12h11v29h-11z" fill="#f0f0b8" stroke="#78785c"/>"     "     "     <path d="M622 408h11v10h-11zm0 11h11v23h-11z" stroke="#78785c" fill="#f0f0b9"/>"     "     <path d="M622 443h11v21h-11zm0 22h11v29h-11zm0 30h10v10h-10z" fill="#f0f0ba" stroke="#78785d"/>"     "     "     <path d="M634 112h30v11h-30zm31 0h9v11h-9zm10 0h16v11h-16z" stroke="#78785d" fill="#f0f0bb"/>"     "     "     <path d="M692 112h14v11h-14zm15 0h22v11h-22z" fill="#f0f0bc" stroke="#78785e"/>"     "     <path d="M730 112h30v11h-30zm31 0h19v11h-19zm20 0h14v11h-14z" stroke="#78785e" fill="#f0f0bd"/>"     "     "     <path d="M796 112h19v11h-19zm20 0h19v10h-19zm20 0h25v10h-25z" fill="#f0f0be" stroke="#78785f"/>"     "     "     <path d="M862 112h24v10h-24zm25 0h24v10h-24z" stroke="#78785f" fill="#f0f0bf"/>"     "     <path d="M912 112h30v10h-30zm31 0h16v10h-16zm17 0h25v10h-25z" fill="#f0f0c0" stroke="#787860"/>"     "     "     <path d="M986 112h14v10h-14zm15 0h23v11h-23zm-367 12h19v29h-19z" stroke="#787860" fill="#f0f0c1"/>"     "     "     <path d="M634 154h19v27h-19zm0 28h19v20h-19z" fill="#f0f0c2" stroke="#787861"/>"     "     <path d="M634 203h19v27h-19zm0 28h19v29h-19zm0 30h19v26h-19z" stroke="#787861" fill="#f0f0c3"/>"     "     "     <path d="M634 288h19v12h-19zm0 13h19v7h-19zm0 8h19v26h-19z" fill="#f0f0c4" stroke="#787862"/>"     "     "     <path d="M634 336h19v10h-19zm0 11h8v20h-8z" stroke="#787862" fill="#f0f0c5"/>"     "     <path d="M643 347h10v20h-10zm-9 21h19v20h-19zm0 21h5v20h-5z" fill="#f0f0c6" stroke="#787863"/>"     "     "     <path d="M640 389h12v20h-12zm-6 21h4v22h-4zm5 0h14v20h-14z" stroke="#787863" fill="#f0f0c7"/>"     "     "     <path d="M634 433h16v20h-16zm0 21h16v23h-16z" fill="#f0f0c8" stroke="#787864"/>"     "     <path d="M634 478h16v12h-16zm0 13h10v21h-10zm11 0h8v21h-8z" stroke="#787864" fill="#f0f0c9"/>"     "     "     <path d="M654 124h30v27h-30zm31 0h25v27h-25zm26 0h14v27h-14z" fill="#f0f0ca" stroke="#787865"/>"     "     "     <path d="M726 124h24v27h-24zm25 0h14v27h-14z" stroke="#787865" fill="#f0f0cb"/>"     "     <path d="M766 124h30v27h-30zm31 0h30v27h-30zm31 0h25v27h-25z" fill="#f0f0cc" stroke="#787866"/>"     "     "     <path d="M854 124h25v27h-25zm26 0h30v27h-30zm31 0h9v27h-9z" stroke="#787866" fill="#f0f0cd"/>"     "     "     <path d="M921 124h25v26h-25zm26 0h28v14h-28z" fill="#f0f0ce" stroke="#787867"/>"     "     <path d="M947 139h25v12h-25zm29-15h30v26h-30zm31 0h7v26h-7z" stroke="#787867" fill="#f0f0cf"/>"     "     "     <path d="M1015 124h9v26h-9zm-361 28h20v29h-20zm0 30h20v24h-20z" fill="#f0f0d0" stroke="#787868"/>"     "     "     <path d="M654 207h20v29h-20zm0 30h20v20h-20z" stroke="#787868" fill="#f0f0d1"/>"     "     <path d="M654 258h20v25h-20zm0 26h20v25h-20zm0 26h20v20h-20z" fill="#f0f0d2" stroke="#787869"/>"     "     "     <path d="M654 331h7v24h-7zm8 0h9v24h-9zm-8 25h4v24h-4z" stroke="#787869" fill="#f0f0d3"/>"     "     "     <path d="M659 356h10v24h-10zm-5 25h7v25h-7z" fill="#f0f0d4" stroke="#78786a"/>"     "     <path d="M662 381h9v25h-9zm-8 26h7v25h-7zm8 0h9v24h-9z" stroke="#78786a" fill="#f0f0d5"/>"     "     "     <path d="M654 433h20v25h-20zm0 26h7v25h-7zm8 0h10v24h-10z" fill="#f0f0d6" stroke="#78786b"/>"     "     "     <path d="M654 485h9v26h-9zm10 0h9v26h-9z" stroke="#78786b" fill="#f0f0d7"/>"     "     <path d="M675 152h30v4h-30zm31 0h30v4h-30zm-31 5h30v14h-30z" fill="#f0f0d8" stroke="#78786c"/>"     "     "     <path d="M706 157h14v14h-14zm15 0h30v14h-30zm31 0h14v12h-14z" stroke="#78786c" fill="#f0f0d9"/>"     "     "     <path d="M767 157h14v12h-14zm15 0h8v12h-8z" fill="#f0f0da" stroke="#78786d"/>"     "     <path d="M791 157h14v10h-14zm15 0h20v9h-20zm21 0h8v8h-8z" stroke="#78786d" fill="#f0f0db"/>"     "     "     <path d="M836 157h20v10h-20zm21 0h20v9h-20zm21 0h20v9h-20z" fill="#f0f0dc" stroke="#78786e"/>"     "     "     <path d="M899 157h8v7h-8zm9 0h21v14h-21z" stroke="#78786e" fill="#f0f0dd"/>"     "     <path d="M930 157h25v7h-25zm26 0h9v7h-9zm-26 8h30v5h-30z" fill="#f0f0de" stroke="#78786f"/>"     "     "     <path d="M966 157h14v7h-14zm15 0h21v14h-21zm22 0h21v14h-21z" stroke="#78786f" fill="#f0f0df"/>"     "     "     <path d="M675 172h30v29h-30zm0 30h30v19h-30z" fill="#f0f0e0" stroke="#787870"/>"     "     <path d="M675 222h30v25h-30zm0 26h30v25h-30zm0 26h30v7h-30z" stroke="#787870" fill="#f0f0e1"/>"     "     "     <path d="M675 282h25v25h-25zm0 26h25v24h-25zm0 25h25v25h-25z" fill="#f0f0e2" stroke="#787871"/>"     "     "     <path d="M675 359h25v19h-25zm0 20h25v21h-25z" stroke="#787871" fill="#f0f0e3"/>"     "     <path d="M675 401h25v19h-25zm0 20h25v24h-25zm0 25h25v26h-25z" fill="#f0f0e4" stroke="#787872"/>"     "     "     <path d="M675 473h25v20h-25zm0 21h21v9h-21zm0 10h21v8h-21z" stroke="#787872" fill="#f0f0e5"/>"     "     "     <path d="M706 172h25v21h-25zm26 0h23v14h-23z" fill="#f0f0e6" stroke="#787873"/>"     "     <path d="M756 172h23v14h-23zm24 0h23v14h-23zm24 0h23v14h-23z" stroke="#787873" fill="#f0f0e7"/>"     "     "     <path d="M828 172h24v9h-24zm25 0h24v8h-24zm25 0h25v14h-25z" fill="#f0f0e8" stroke="#787874"/>"     "     "     <path d="M904 172h25v14h-25zm26 0h25v14h-25z" stroke="#787874" fill="#f0f0e9"/>"     "     <path d="M956 172h26v14h-26zm27 0h26v8h-26zm-277 22h24v29h-24z" fill="#f0f0ea" stroke="#787875"/>"     "     "     <path d="M731 194h10v28h-10zm11 0h10v28h-10zm11 0h10v28h-10z" stroke="#787875" fill="#f0f0eb"/>"     "     "     <path d="M764 194h24v26h-24zm25 0h24v26h-24z" fill="#f0f0ec" stroke="#787876"/>"     "     <path d="M814 194h25v26h-25zm26 0h24v25h-24zm25 0h24v25h-24z" stroke="#787876" fill="#f0f0ed"/>"     "     "     <path d="M890 194h24v24h-24zm25 0h24v24h-24zm25 0h24v24h-24z" fill="#f0f0ee" stroke="#787877"/>"     "     "     <path d="M965 194h24v23h-24zm25 0h24v23h-24z" stroke="#787877" fill="#f0f0ef"/>"     "     <text y="526" font-size="12" fill="#000" x="0"> MaxRectsBin(size: 1024x512, choice: BestShortSideFit, method: ShorterAxis): inserted 1536 of 1536 rectangles with w/h lengths between [2, 31], occupancy: 80.22% </text></svg>