<svg xmlns="http://www.w3.org/2000/svg" viewBox="0 0 1024 536" xmlns:v="https://vecta.io/nano"><path d="M0 0h1024v512H0z" fill="#fff" stroke="#000"/>"     <path d="M1 1h22v1H1zm23 0h15v1H24zm16 0h5v1h-5z" fill="#303030" stroke="#181818"/>"     "     "     <path d="M46 1h27v1H46zm28 0h13v1H74zm14 0h12v1H88z" stroke="#181818" fill="#303130"/>"     "     "     <path d="M101 1h19v1h-19zm20 0h10v1h-10z" fill="#303230" stroke="#181918"/>"     "     <path d="M132 1h28v1h-28zm29 0h23v1h-23zm24 0h27v1h-27z" stroke="#181918" fill="#303330"/>"     "     "     <path d="M213 1h20v1h-20zm21 0h22v1h-22zm23 0h11v1h-11z" fill="#303430" stroke="#181a18"/>"     "     "     <path d="M269 1h6v1h-6zm7 0h12v1h-12z" stroke="#181a18" fill="#303530"/>"     "     <path d="M289 1h5v1h-5zm6 0h6v1h-6zm7 0h18v1h-18z" fill="#303630" stroke="#181b18"/>"     "     "     <path d="M321 1h23v1h-23zm24 0h14v1h-14zm15 0h28v1h-28z" stroke="#181b18" fill="#303730"/>"     "     "     <path d="M389 1h3v1h-3zm4 0h19v1h-19z" fill="#303830" stroke="#181c18"/>"     "     <path d="M413 1h21v1h-21zm22 0h5v1h-5zm6 0h2v1h-2z" stroke="#181c18" fill="#303930"/>"     "     "     <path d="M444 1h12v1h-12zm13 0h23v1h-23zm24 0h2v1h-2z" fill="#303a30" stroke="#181d18"/>"     "     "     <path d="M484 1h27v1h-27zm28 0h5v1h-5z" stroke="#181d18" fill="#303b30"/>"     "     <path d="M518 1h1v1h-1zm2 0h27v1h-27zm28 0h16v1h-16z" fill="#303c30" stroke="#181e18"/>"     "     "     <path d="M565 1h3v1h-3zm4 0h12v1h-12zm13 0h19v1h-19z" stroke="#181e18" fill="#303d30"/>"     "     "     <path d="M602 1h15v1h-15zm16 0h12v1h-12z" fill="#303e30" stroke="#181f18"/>"     "     <path d="M631 1h4v1h-4zm5 0h19v1h-19zm20 0h30v1h-30z" stroke="#181f18" fill="#303f30"/>"     "     "     <path d="M687 1h12v1h-12zm13 0h17v1h-17zm18 0h10v1h-10z" fill="#304030" stroke="#182018"/>"     "     "     <path d="M729 1h7v1h-7zm8 0h11v1h-11z" stroke="#182018" fill="#304130"/>"     "     <path d="M749 1h2v1h-2zm3 0h13v2h-13zm14 0h24v2h-24z" fill="#304230" stroke="#182118"/>"     "     "     <path d="M791 1h13v2h-13zm14 0h9v2h-9zm10 0h3v2h-3z" stroke="#182118" fill="#304330"/>"     "     "     <path d="M819 1h10v2h-10zm11 0h19v2h-19z" fill="#304430" stroke="#182218"/>"     "     <path d="M850 1h21v2h-21zm22 0h27v2h-27zm28 0h18v2h-18z" stroke="#182218" fill="#304530"/>"     "     "     <path d="M919 1h19v2h-19zm20 0h11v2h-11zm12 0h5v2h-5z" fill="#304630" stroke="#182318"/>"     "     "     <path d="M957 1h8v2h-8zm9 0h5v2h-5z" stroke="#182318" fill="#304730"/>"     "     <path d="M972 1h13v2h-13zm14 0h25v2h-25zm26 0h12v2h-12z" fill="#304830" stroke="#182418"/>"     "     "     <path d="M1 3h30v2H1zm31 0h21v2H32zm22 0h23v2H54z" stroke="#182418" fill="#304930"/>"     "     "     <path d="M78 3h6v2h-6zm7 0h18v2H85z" fill="#304a30" stroke="#182518"/>"     "     <path d="M104 3h19v2h-19zm20 0h15v2h-15zm16 0h24v2h-24z" stroke="#182518" fill="#304b30"/>"     "     "     <path d="M165 3h20v2h-20zm21 0h12v2h-12zm13 0h26v2h-26z" fill="#304c30" stroke="#182618"/>"     "     "     <path d="M226 3h30v2h-30zm31 0h14v2h-14z" stroke="#182618" fill="#304d30"/>"     "     <path d="M272 3h30v2h-30zm31 0h28v2h-28zm29 0h2v2h-2z" fill="#304e30" stroke="#182718"/>"     "     "     <path d="M335 3h5v2h-5zm6 0h18v2h-18zm19 0h9v2h-9z" stroke="#182718" fill="#304f30"/>"     "     "     <path d="M370 3h19v2h-19zm20 0h3v2h-3z" fill="#305030" stroke="#182818"/>"     "     <path d="M394 3h2v2h-2zm3 0h6v2h-6zm7 0h19v2h-19z" stroke="#182818" fill="#305130"/>"     "     "     <path d="M424 3h7v2h-7zm8 0h26v2h-26zm27 0h29v2h-29z" fill="#305230" stroke="#182918"/>"     "     "     <path d="M489 3h21v2h-21zm22 0h6v2h-6z" stroke="#182918" fill="#305330"/>"     "     <path d="M518 3h1v2h-1zm2 0h28v2h-28zm29 0h14v2h-14z" fill="#305430" stroke="#182a18"/>"     "     "     <path d="M564 3h9v2h-9zm10 0h17v2h-17zm18 0h21v2h-21z" stroke="#182a18" fill="#305530"/>"     "     "     <path d="M614 3h18v2h-18zm19 0h16v2h-16z" fill="#305630" stroke="#182b18"/>"     "     <path d="M650 3h9v3h-9zm10 0h18v3h-18zm19 0h18v3h-18z" stroke="#182b18" fill="#305730"/>"     "     "     <path d="M698 3h11v3h-11zm12 0h7v3h-7zm8 0h28v3h-28z" fill="#305830" stroke="#182c18"/>"     "     "     <path d="M747 3h1v3h-1zm2 0h1v3h-1z" stroke="#182c18" fill="#305930"/>"     "     <path d="M751 4h20v3h-20zm21 0h27v3h-27zm28 0h6v3h-6z" fill="#305a30" stroke="#182d18"/>"     "     "     <path d="M807 4h29v3h-29zm30 0h11v3h-11zm12 0h17v3h-17z" stroke="#182d18" fill="#305b30"/>"     "     "     <path d="M867 4h6v3h-6zm7 0h13v3h-13z" fill="#305c30" stroke="#182e18"/>"     "     <path d="M888 4h29v3h-29zm30 0h25v3h-25zm26 0h15v3h-15z" stroke="#182e18" fill="#305d30"/>"     "     "     <path d="M960 4h17v3h-17zm18 0h30v3h-30zm31 0h8v3h-8z" fill="#305e30" stroke="#182f18"/>"     "     "     <path d="M1018 4h6v3h-6zM1 6h25v3H1z" stroke="#182f18" fill="#305f30"/>"     "     <path d="M27 6h14v3H27zm15 0h25v3H42zm26 0h23v3H68z" fill="#306030" stroke="#183018"/>"     "     "     <path d="M92 6h22v3H92zm23 0h18v3h-18zm19 0h9v3h-9z" stroke="#183018" fill="#306130"/>"     "     "     <path d="M144 6h13v3h-13zm14 0h6v3h-6z" fill="#306230" stroke="#183118"/>"     "     <path d="M165 6h23v3h-23zm24 0h28v3h-28zm29 0h30v3h-30z" stroke="#183118" fill="#306330"/>"     "     "     <path d="M249 6h13v3h-13zm14 0h5v3h-5zm6 0h20v3h-20z" fill="#306430" stroke="#183218"/>"     "     "     <path d="M290 6h30v3h-30zm31 0h20v3h-20z" stroke="#183218" fill="#306530"/>"     "     <path d="M342 6h1v3h-1zm2 0h24v3h-24zm25 0h2v3h-2z" fill="#306630" stroke="#183318"/>"     "     "     <path d="M372 6h12v3h-12zm13 0h12v3h-12zm13 0h4v3h-4z" stroke="#183318" fill="#306730"/>"     "     "     <path d="M403 6h30v3h-30zm31 0h7v3h-7z" fill="#306830" stroke="#183418"/>"     "     <path d="M442 6h21v3h-21zm22 0h27v3h-27zm28 0h16v4h-16z" stroke="#183418" fill="#306930"/>"     "     "     <path d="M509 6h11v4h-11zm12 0h22v4h-22zm23 0h8v4h-8z" fill="#306a30" stroke="#183518"/>"     "     "     <path d="M553 6h23v4h-23zm24 0h11v4h-11z" stroke="#183518" fill="#306b30"/>"     "     <path d="M589 6h13v4h-13zm14 0h15v4h-15zm16 0h21v4h-21z" fill="#306c30" stroke="#183618"/>"     "     "     <path d="M641 6h3v4h-3zm4 0h1v4h-1zm2 0h1v4h-1z" stroke="#183618" fill="#306d30"/>"     "     "     <path d="M649 7h19v4h-19zm20 0h29v4h-29z" fill="#306e30" stroke="#183718"/>"     "     <path d="M699 7h29v4h-29zm30 0h7v4h-7zm8 0h5v4h-5z" stroke="#183718" fill="#306f30"/>"     "     "     <path d="M743 7h5v4h-5zm6 0h1v4h-1zm2 1h30v4h-30z" fill="#307030" stroke="#183818"/>"     "     "     <path d="M782 8h22v4h-22zm23 0h24v4h-24z" stroke="#183818" fill="#307130"/>"     "     <path d="M830 8h22v4h-22zm23 0h13v4h-13zm14 0h22v4h-22z" fill="#307230" stroke="#183918"/>"     "     "     <path d="M890 8h7v4h-7zm8 0h22v4h-22zm23 0h16v4h-16z" stroke="#183918" fill="#307330"/>"     "     "     <path d="M938 8h9v4h-9zm10 0h26v4h-26z" fill="#307430" stroke="#183a18"/>"     "     <path d="M975 8h15v4h-15zm16 0h14v4h-14zm15 0h10v4h-10z" stroke="#183a18" fill="#307530"/>"     "     "     <path d="M1017 8h6v4h-6zM1 10h26v4H1zm27 0h13v4H28z" fill="#307630" stroke="#183b18"/>"     "     "     <path d="M42 10h19v4H42zm20 0h22v4H62z" stroke="#183b18" fill="#307730"/>"     "     <path d="M85 10h30v4H85zm31 0h16v4h-16zm17 0h9v4h-9z" fill="#307830" stroke="#183c18"/>"     "     "     <path d="M143 10h26v5h-26zm27 0h22v5h-22zm23 0h7v5h-7z" stroke="#183c18" fill="#307930"/>"     "     "     <path d="M201 10h25v5h-25zm26 0h15v5h-15z" fill="#307a30" stroke="#183d18"/>"     "     <path d="M243 10h28v5h-28zm29 0h4v5h-4zm5 0h22v5h-22z" stroke="#183d18" fill="#307b30"/>"     "     "     <path d="M300 10h29v5h-29zm30 0h10v5h-10zm11 0h11v5h-11z" fill="#307c30" stroke="#183e18"/>"     "     "     <path d="M353 10h23v5h-23zm24 0h23v5h-23z" stroke="#183e18" fill="#307d30"/>"     "     <path d="M401 10h29v5h-29zm30 0h8v5h-8zm9 0h15v5h-15z" fill="#307e30" stroke="#183f18"/>"     "     "     <path d="M456 10h5v5h-5zm6 0h4v5h-4zm5 0h8v5h-8z" stroke="#183f18" fill="#307f30"/>"     "     "     <path d="M476 10h11v5h-11zm12 0h2v5h-2z" fill="#308030" stroke="#184018"/>"     "     <path d="M491 11h14v5h-14zm15 0h28v5h-28zm29 0h28v5h-28z" stroke="#184018" fill="#308130"/>"     "     "     <path d="M564 11h21v5h-21zm22 0h12v5h-12zm13 0h28v5h-28z" fill="#308230" stroke="#184118"/>"     "     "     <path d="M628 11h9v5h-9zm10 0h2v5h-2z" stroke="#184118" fill="#308330"/>"     "     <path d="M641 11h4v5h-4zm5 0h2v5h-2zm3 1h22v5h-22z" fill="#308430" stroke="#184218"/>"     "     "     <path d="M672 12h24v5h-24zm25 0h21v5h-21zm22 0h19v5h-19z" stroke="#184218" fill="#308530"/>"     "     "     <path d="M739 12h3v5h-3zm4 0h7v5h-7z" fill="#308630" stroke="#184318"/>"     "     <path d="M751 13h15v5h-15zm16 0h29v5h-29zm30 0h20v5h-20z" stroke="#184318" fill="#308730"/>"     "     "     <path d="M818 13h12v5h-12zm13 0h5v5h-5zm6 0h30v5h-30z" fill="#308830" stroke="#184418"/>"     "     "     <path d="M868 13h16v5h-16zm17 0h11v6h-11z" stroke="#184418" fill="#308930"/>"     "     <path d="M897 13h27v6h-27zm28 0h11v6h-11zm12 0h17v6h-17z" fill="#308a30" stroke="#184518"/>"     "     "     <path d="M955 13h2v6h-2zm3 0h19v6h-19zm20 0h2v6h-2z" stroke="#184518" fill="#308b30"/>"     "     "     <path d="M981 13h24v6h-24zm25 0h6v6h-6z" fill="#308c30" stroke="#184618"/>"     "     <path d="M1013 13h5v6h-5zm6 0h3v6h-3zm4 0h1v6h-1z" stroke="#184618" fill="#308d30"/>"     "     "     <path d="M1 15h22v6H1zm23 0h13v6H24zm14 0h27v6H38z" fill="#308e30" stroke="#184718"/>"     "     "     <path d="M66 15h25v6H66zm26 0h25v6H92z" stroke="#184718" fill="#308f30"/>"     "     <path d="M118 15h16v6h-16zm17 0h5v6h-5zm6 0h1v7h-1z" fill="#309030" stroke="#184818"/>"     "     "     <path d="M143 16h20v6h-20zm21 0h16v6h-16zm17 0h26v6h-26z" stroke="#184818" fill="#309130"/>"     "     "     <path d="M208 16h20v6h-20zm21 0h30v6h-30z" fill="#309230" stroke="#184918"/>"     "     <path d="M260 16h11v6h-11zm12 0h24v6h-24zm25 0h27v6h-27z" stroke="#184918" fill="#309330"/>"     "     "     <path d="M325 16h26v6h-26zm27 0h22v6h-22zm23 0h18v6h-18z" fill="#309430" stroke="#184a18"/>"     "     "     <path d="M394 16h11v6h-11zm12 0h10v6h-10z" stroke="#184a18" fill="#309530"/>"     "     <path d="M417 16h7v6h-7zm8 0h3v6h-3zm4 0h29v6h-29z" fill="#309630" stroke="#184b18"/>"     "     "     <path d="M459 16h24v6h-24zm25 0h5v7h-5zm6 1h25v6h-25z" stroke="#184b18" fill="#309730"/>"     "     "     <path d="M516 17h26v6h-26zm27 0h13v6h-13z" fill="#309830" stroke="#184c18"/>"     "     <path d="M557 17h20v6h-20zm21 0h15v6h-15zm16 0h30v6h-30z" stroke="#184c18" fill="#309930"/>"     "     "     <path d="M625 17h16v6h-16zm17 0h4v7h-4zm5 0h1v7h-1z" fill="#309a30" stroke="#184d18"/>"     "     "     <path d="M649 18h30v6h-30zm31 0h26v7h-26z" stroke="#184d18" fill="#309b30"/>"     "     <path d="M707 18h24v7h-24zm25 0h12v7h-12zm13 0h2v7h-2z" fill="#309c30" stroke="#184e18"/>"     "     "     <path d="M748 18h2v7h-2zm3 1h19v7h-19zm20 0h26v7h-26z" stroke="#184e18" fill="#309d30"/>"     "     "     <path d="M798 19h21v7h-21zm22 0h10v7h-10z" fill="#309e30" stroke="#184f18"/>"     "     <path d="M831 19h29v7h-29zm30 0h16v7h-16zm17 0h6v7h-6z" stroke="#184f18" fill="#309f30"/>"     "     "     <path d="M885 20h26v7h-26zm27 0h18v7h-18zm19 0h15v7h-15z" fill="#30a030" stroke="#185018"/>"     "     "     <path d="M947 20h16v7h-16zm17 0h9v7h-9z" stroke="#185018" fill="#30a130"/>"     "     <path d="M974 20h19v7h-19zm20 0h26v7h-26zm27 0h3v7h-3z" fill="#30a230" stroke="#185118"/>"     "     "     <path d="M1 22h22v7H1zm23 0h24v7H24zm25 0h23v7H49z" stroke="#185118" fill="#30a330"/>"     "     "     <path d="M73 22h27v7H73zm28 0h7v7h-7z" fill="#30a430" stroke="#185218"/>"     "     <path d="M109 22h16v7h-16zm17 0h5v7h-5zm6 0h8v7h-8z" stroke="#185218" fill="#30a530"/>"     "     "     <path d="M141 23h23v7h-23zm24 0h22v7h-22zm23 0h14v7h-14z" fill="#30a630" stroke="#185318"/>"     "     "     <path d="M203 23h5v7h-5zm6 0h25v7h-25z" stroke="#185318" fill="#30a730"/>"     "     <path d="M235 23h20v7h-20zm21 0h28v7h-28zm29 0h28v7h-28z" fill="#30a830" stroke="#185418"/>"     "     "     <path d="M314 23h25v7h-25zm26 0h25v7h-25zm26 0h6v7h-6z" stroke="#185418" fill="#30a930"/>"     "     "     <path d="M373 23h20v7h-20zm21 0h12v7h-12z" fill="#30aa30" stroke="#185518"/>"     "     <path d="M407 23h25v7h-25zm26 0h30v7h-30zm31 0h4v7h-4z" stroke="#185518" fill="#30ab30"/>"     "     "     <path d="M469 23h8v7h-8zm9 0h1v7h-1zm2 0h3v8h-3z" fill="#30ac30" stroke="#185618"/>"     "     "     <path d="M484 24h22v7h-22zm23 0h29v7h-29z" stroke="#185618" fill="#30ad30"/>"     "     <path d="M537 24h19v7h-19zm20 0h6v7h-6zm7 0h26v7h-26z" fill="#30ae30" stroke="#185718"/>"     "     "     <path d="M591 24h24v7h-24zm25 0h17v7h-17zm18 0h3v8h-3z" stroke="#185718" fill="#30af30"/>"     "     "     <path d="M638 24h2v8h-2zm3 1h23v7h-23z" fill="#30b030" stroke="#185818"/>"     "     <path d="M665 25h11v8h-11zm12 1h25v7h-25zm26 0h23v8h-23z" stroke="#185818" fill="#30b130"/>"     "     "     <path d="M727 26h22v8h-22zm23 1h28v8h-28zm29 0h16v8h-16z" fill="#30b230" stroke="#185918"/>"     "     "     <path d="M796 27h16v8h-16zm17 0h12v8h-12z" stroke="#185918" fill="#30b330"/>"     "     <path d="M826 27h24v8h-24zm25 0h27v8h-27zm28 0h5v8h-5z" fill="#30b430" stroke="#185a18"/>"     "     "     <path d="M885 28h28v8h-28zm29 0h12v8h-12zm13 0h27v8h-27z" stroke="#185a18" fill="#30b530"/>"     "     "     <path d="M955 28h16v8h-16zm17 0h10v8h-10z" fill="#30b630" stroke="#185b18"/>"     "     <path d="M983 28h17v8h-17zm18 0h17v8h-17zm18 0h1v8h-1z" stroke="#185b18" fill="#30b730"/>"     "     "     <path d="M1021 28h3v8h-3zM1 30h8v8H1zm9 0h15v8H10z" fill="#30b830" stroke="#185c18"/>"     "     "     <path d="M26 30h29v8H26zm30 0h24v8H56z" stroke="#185c18" fill="#30b930"/>"     "     <path d="M81 30h11v8H81zm12 0h13v8H93zm14 0h16v8h-16z" fill="#30ba30" stroke="#185d18"/>"     "     "     <path d="M124 30h16v8h-16zm17 1h14v8h-14zm15 0h29v8h-29z" stroke="#185d18" fill="#30bb30"/>"     "     "     <path d="M186 31h16v8h-16zm17 0h6v8h-6z" fill="#30bc30" stroke="#185e18"/>"     "     <path d="M210 31h14v8h-14zm15 0h7v8h-7zm8 0h8v8h-8z" stroke="#185e18" fill="#30bd30"/>"     "     "     <path d="M242 31h17v8h-17zm18 0h24v8h-24zm25 0h24v8h-24z" fill="#30be30" stroke="#185f18"/>"     "     "     <path d="M310 31h28v8h-28zm29 0h23v8h-23z" stroke="#185f18" fill="#30bf30"/>"     "     <path d="M363 31h4v8h-4zm5 0h7v8h-7zm8 0h20v8h-20z" fill="#30c030" stroke="#186018"/>"     "     "     <path d="M397 31h27v8h-27zm28 0h23v8h-23zm24 0h23v8h-23z" stroke="#186018" fill="#30c130"/>"     "     "     <path d="M473 31h6v8h-6zm7 1h16v8h-16z" fill="#30c230" stroke="#186118"/>"     "     <path d="M497 32h24v8h-24zm25 0h28v8h-28zm29 0h17v8h-17z" stroke="#186118" fill="#30c330"/>"     "     "     <path d="M569 32h13v8h-13zm14 0h22v8h-22zm23 0h20v8h-20z" fill="#30c430" stroke="#186218"/>"     "     "     <path d="M627 32h6v9h-6zm7 1h28v8h-28z" stroke="#186218" fill="#30c530"/>"     "     <path d="M663 34h25v8h-25zm26 0h11v8h-11zm12 1h9v9h-9z" fill="#30c630" stroke="#186318"/>"     "     "     <path d="M711 35h17v9h-17zm18 0h10v9h-10zm11 0h8v9h-8z" stroke="#186318" fill="#30c730"/>"     "     "     <path d="M749 36h29v9h-29zm30 0h21v9h-21z" fill="#30c830" stroke="#186418"/>"     "     <path d="M801 36h13v9h-13zm14 0h4v9h-4zm5 0h24v9h-24z" stroke="#186418" fill="#30c930"/>"     "     "     <path d="M845 36h12v9h-12zm13 0h8v9h-8zm9 0h10v9h-10z" fill="#30ca30" stroke="#186518"/>"     "     "     <path d="M878 36h4v9h-4zm5 1h28v9h-28z" stroke="#186518" fill="#30cb30"/>"     "     <path d="M912 37h20v9h-20zm21 0h27v9h-27zm28 0h8v9h-8z" fill="#30cc30" stroke="#186618"/>"     "     "     <path d="M970 37h7v9h-7zm8 0h13v9h-13zm14 0h22v9h-22z" stroke="#186618" fill="#30cd30"/>"     "     "     <path d="M1015 37h4v9h-4zm5 0h3v9h-3z" fill="#30ce30" stroke="#186718"/>"     "     <path d="M1 39h20v9H1zm21 0h26v9H22zm27 0h30v9H49z" stroke="#186718" fill="#30cf30"/>"     "     "     <path d="M80 39h11v9H80zm12 0h13v9H92zm14 0h16v9h-16z" fill="#30d030" stroke="#186818"/>"     "     "     <path d="M123 39h11v9h-11zm12 0h2v9h-2z" stroke="#186818" fill="#30d130"/>"     "     <path d="M138 40h12v9h-12zm13 0h25v9h-25zm26 0h21v9h-21z" fill="#30d230" stroke="#186918"/>"     "     "     <path d="M199 40h20v9h-20zm21 0h11v9h-11zm12 0h10v9h-10z" stroke="#186918" fill="#30d330"/>"     "     "     <path d="M243 40h8v9h-8zm9 0h20v9h-20z" fill="#30d430" stroke="#186a18"/>"     "     <path d="M273 40h16v9h-16zm17 0h16v9h-16zm17 0h12v9h-12z" stroke="#186a18" fill="#30d530"/>"     "     "     <path d="M320 40h8v10h-8zm9 0h14v10h-14zm15 0h13v10h-13z" fill="#30d630" stroke="#186b18"/>"     "     "     <path d="M358 40h23v10h-23zm24 0h3v10h-3z" stroke="#186b18" fill="#30d730"/>"     "     <path d="M386 40h21v10h-21zm22 0h15v10h-15zm16 0h28v10h-28z" fill="#30d830" stroke="#186c18"/>"     "     "     <path d="M453 40h7v10h-7zm8 0h17v10h-17zm18 1h6v10h-6z" stroke="#186c18" fill="#30d930"/>"     "     "     <path d="M486 41h25v10h-25zm26 0h3v10h-3z" fill="#30da30" stroke="#186d18"/>"     "     <path d="M516 41h22v10h-22zm23 0h19v10h-19zm20 0h29v10h-29z" stroke="#186d18" fill="#30db30"/>"     "     "     <path d="M589 41h10v10h-10zm11 0h6v10h-6zm7 0h16v10h-16z" fill="#30dc30" stroke="#186e18"/>"     "     "     <path d="M624 41h2v10h-2zm3 1h10v10h-10z" stroke="#186e18" fill="#30dd30"/>"     "     <path d="M638 42h24v10h-24zm25 1h24v10h-24zm25 0h12v10h-12z" fill="#30de30" stroke="#186f18"/>"     "     "     <path d="M701 45h19v10h-19zm20 0h27v10h-27zm28 1h24v10h-24z" stroke="#186f18" fill="#30df30"/>"     "     "     <path d="M774 46h29v10h-29zm30 0h18v10h-18z" fill="#30e030" stroke="#187018"/>"     "     <path d="M823 46h11v10h-11zm12 0h15v10h-15zm16 0h16v10h-16z" stroke="#187018" fill="#30e130"/>"     "     "     <path d="M868 46h14v10h-14zm15 1h24v10h-24zm25 0h24v10h-24z" fill="#30e230" stroke="#187118"/>"     "     "     <path d="M933 47h27v10h-27zm28 0h14v10h-14z" stroke="#187118" fill="#30e330"/>"     "     <path d="M976 47h26v10h-26zm27 0h11v10h-11zm12 0h9v10h-9z" fill="#30e430" stroke="#187218"/>"     "     "     <path d="M1 49h25v10H1zm26 0h15v10H27zm16 0h6v10h-6z" stroke="#187218" fill="#30e530"/>"     "     "     <path d="M50 49h26v10H50zm27 0h3v10h-3z" fill="#30e630" stroke="#187318"/>"     "     <path d="M81 49h14v10H81zm15 0h13v10H96zm14 0h3v10h-3z" stroke="#187318" fill="#30e730"/>"     "     "     <path d="M114 49h21v10h-21zm22 0h1v11h-1zm2 1h30v10h-30z" fill="#30e830" stroke="#187418"/>"     "     "     <path d="M169 50h3v10h-3zm4 0h23v11h-23z" stroke="#187418" fill="#30e930"/>"     "     <path d="M197 50h27v11h-27zm28 0h13v11h-13zm14 0h18v11h-18z" fill="#30ea30" stroke="#187518"/>"     "     "     <path d="M258 50h15v11h-15zm16 0h16v11h-16zm17 0h27v11h-27z" stroke="#187518" fill="#30eb30"/>"     "     "     <path d="M319 51h29v11h-29zm30 0h29v11h-29z" fill="#30ec30" stroke="#187618"/>"     "     <path d="M379 51h3v11h-3zm4 0h18v11h-18zm19 0h28v11h-28z" stroke="#187618" fill="#30ed30"/>"     "     "     <path d="M431 51h13v11h-13zm14 0h29v11h-29zm30 0h3v11h-3z" fill="#30ee30" stroke="#187718"/>"     "     "     <path d="M479 52h10v11h-10zm11 0h27v11h-27z" stroke="#187718" fill="#30ef30"/>"     "     <path d="M518 52h12v11h-12zm13 0h5v11h-5zm6 0h9v11h-9z" fill="#30f030" stroke="#187818"/>"     "     "     <path d="M547 52h26v11h-26zm27 0h14v11h-14zm15 0h19v11h-19z" stroke="#187818" fill="#31f030"/>"     "     "     <path d="M609 52h15v11h-15zm16 0h1v12h-1z" fill="#32f030" stroke="#197818"/>"     "     <path d="M627 53h19v11h-19zm20 0h11v11h-11zm12 0h2v11h-2z" stroke="#197818" fill="#33f030"/>"     "     "     <path d="M662 54h30v11h-30zm31 0h4v11h-4zm5 0h2v12h-2z" fill="#34f030" stroke="#1a7818"/>"     "     "     <path d="M701 56h21v11h-21zm22 0h10v11h-10z" stroke="#1a7818" fill="#35f030"/>"     "     <path d="M734 56h13v11h-13zm14 1h22v11h-22zm23 0h29v11h-29z" fill="#36f030" stroke="#1b7818"/>"     "     "     <path d="M801 57h19v11h-19zm20 0h30v11h-30zm31 0h7v11h-7z" stroke="#1b7818" fill="#37f030"/>"     "     "     <path d="M860 57h19v11h-19zm20 0h1v12h-1z" fill="#38f030" stroke="#1c7818"/>"     "     <path d="M882 58h23v11h-23zm24 0h26v11h-26zm27 0h20v11h-20z" stroke="#1c7818" fill="#39f030"/>"     "     "     <path d="M954 58h17v11h-17zm18 0h21v11h-21zm22 0h22v11h-22z" fill="#3af030" stroke="#1d7818"/>"     "     "     <path d="M1017 58h7v12h-7zM1 60h28v11H1z" stroke="#1d7818" fill="#3bf030"/>"     "     <path d="M30 60h11v11H30zm12 0h13v11H42zm14 0h14v11H56z" fill="#3cf030" stroke="#1e7818"/>"     "     "     <path d="M71 60h20v11H71zm21 0h17v11H92zm18 0h10v11h-10z" stroke="#1e7818" fill="#3df030"/>"     "     "     <path d="M121 60h10v12h-10zm11 0h3v12h-3z" fill="#3ef030" stroke="#1f7818"/>"     "     <path d="M136 61h22v11h-22zm23 0h7v12h-7zm8 0h5v12h-5z" stroke="#1f7818" fill="#3ff030"/>"     "     "     <path d="M173 62h22v12h-22zm23 0h22v12h-22zm23 0h17v12h-17z" fill="#40f030" stroke="#207818"/>"     "     "     <path d="M237 62h25v12h-25zm26 0h18v12h-18z" stroke="#207818" fill="#41f030"/>"     "     <path d="M282 62h28v12h-28zm29 0h7v12h-7zm8 1h27v12h-27z" fill="#42f030" stroke="#217818"/>"     "     "     <path d="M347 63h23v12h-23zm24 0h20v12h-20zm21 0h15v12h-15z" stroke="#217818" fill="#43f030"/>"     "     "     <path d="M408 63h12v12h-12zm13 0h16v12h-16z" fill="#44f030" stroke="#227818"/>"     "     <path d="M438 63h16v12h-16zm17 0h12v12h-12zm13 0h10v12h-10z" stroke="#227818" fill="#45f030"/>"     "     "     <path d="M479 64h12v12h-12zm13 0h26v12h-26zm27 0h24v12h-24z" fill="#46f030" stroke="#237818"/>"     "     "     <path d="M544 64h18v12h-18zm19 0h16v12h-16z" stroke="#237818" fill="#47f030"/>"     "     <path d="M580 64h19v12h-19zm20 0h11v12h-11zm12 0h4v12h-4z" fill="#48f030" stroke="#247818"/>"     "     "     <path d="M617 64h4v12h-4zm5 0h1v12h-1zm2 1h22v12h-22z" stroke="#247818" fill="#49f030"/>"     "     "     <path d="M647 65h8v12h-8zm9 0h3v12h-3z" fill="#4af030" stroke="#257818"/>"     "     <path d="M660 65h1v13h-1zm2 1h21v12h-21zm22 0h6v12h-6z" stroke="#257818" fill="#4bf030"/>"     "     "     <path d="M691 66h3v13h-3zm4 0h1v13h-1zm2 2h26v12h-26z" fill="#4cf030" stroke="#267818"/>"     "     "     <path d="M724 68h21v12h-21zm22 1h25v12h-25z" stroke="#267818" fill="#4df030"/>"     "     <path d="M772 69h30v12h-30zm31 0h14v12h-14zm15 0h21v12h-21z" fill="#4ef030" stroke="#277818"/>"     "     "     <path d="M840 69h23v12h-23zm24 0h8v12h-8zm9 0h5v13h-5z" stroke="#277818" fill="#4ff030"/>"     "     "     <path d="M879 70h24v12h-24zm25 0h27v12h-27z" fill="#50f030" stroke="#287818"/>"     "     <path d="M932 70h29v12h-29zm30 0h20v12h-20zm21 0h14v12h-14z" stroke="#287818" fill="#51f030"/>"     "     "     <path d="M998 70h16v12h-16zM1 72h18v12H1zm1014-1h9v13h-9z" fill="#52f030" stroke="#297818"/>"     "     "     <path d="M20 72h16v13H20zm17 0h21v13H37z" stroke="#297818" fill="#53f030"/>"     "     <path d="M59 72h27v13H59zm28 0h20v13H87zm21 0h11v13h-11z" fill="#54f030" stroke="#2a7818"/>"     "     "     <path d="M120 73h30v13h-30zm31 0h6v13h-6zm7 1h6v13h-6z" stroke="#2a7818" fill="#55f030"/>"     "     "     <path d="M165 74h5v13h-5zm6 0h1v14h-1z" fill="#56f030" stroke="#2b7818"/>"     "     <path d="M173 75h26v13h-26zm27 0h27v13h-27zm28 0h22v13h-22z" stroke="#2b7818" fill="#57f030"/>"     "     "     <path d="M251 75h29v13h-29zm30 0h11v13h-11zm12 0h16v13h-16z" fill="#58f030" stroke="#2c7818"/>"     "     "     <path d="M310 75h3v13h-3zm4 0h2v13h-2z" stroke="#2c7818" fill="#59f030"/>"     "     <path d="M317 75h1v14h-1zm2 1h30v13h-30zm31 0h16v13h-16z" fill="#5af030" stroke="#2d7818"/>"     "     "     <path d="M367 76h14v13h-14zm15 0h26v13h-26zm27 0h12v13h-12z" stroke="#2d7818" fill="#5bf030"/>"     "     "     <path d="M422 76h28v13h-28zm29 0h7v13h-7z" fill="#5cf030" stroke="#2e7818"/>"     "     <path d="M459 76h14v13h-14zm15 0h4v13h-4zm5 1h30v13h-30z" stroke="#2e7818" fill="#5df030"/>"     "     "     <path d="M510 77h29v13h-29zm30 0h9v13h-9zm10 0h13v13h-13z" fill="#5ef030" stroke="#2f7818"/>"     "     "     <path d="M564 77h11v13h-11zm12 0h8v13h-8z" stroke="#2f7818" fill="#5ff030"/>"     "     <path d="M585 77h11v13h-11zm12 0h17v13h-17zm18 0h3v13h-3z" fill="#60f030" stroke="#307818"/>"     "     "     <path d="M619 77h2v13h-2zm3 0h1v14h-1zm2 1h26v13h-26z" stroke="#307818" fill="#61f030"/>"     "     "     <path d="M651 78h3v13h-3zm4 0h2v14h-2z" fill="#62f030" stroke="#317818"/>"     "     <path d="M658 79h19v13h-19zm20 0h9v13h-9zm10 0h1v14h-1z" stroke="#317818" fill="#63f030"/>"     "     "     <path d="M690 80h5v14h-5zm6 1h28v13h-28zm29 0h11v14h-11z" fill="#64f030" stroke="#327818"/>"     "     "     <path d="M737 81h6v14h-6zm7 0h1v15h-1z" stroke="#327818" fill="#65f030"/>"     "     <path d="M746 82h24v14h-24zm25 0h23v14h-23zm24 0h30v14h-30z" fill="#66f030" stroke="#337818"/>"     "     "     <path d="M826 82h16v14h-16zm17 0h16v14h-16zm17 0h5v14h-5z" stroke="#337818" fill="#67f030"/>"     "     "     <path d="M866 82h6v14h-6zm7 1h30v14h-30z" fill="#68f030" stroke="#347818"/>"     "     <path d="M904 83h14v14h-14zm15 0h22v14h-22zm23 0h22v14h-22z" stroke="#347818" fill="#69f030"/>"     "     "     <path d="M965 83h24v14h-24zm25 0h14v14h-14zm15 0h9v14h-9z" fill="#6af030" stroke="#357818"/>"     "     "     <path d="M1 85h13v14H1zm14 0h4v14h-4z" stroke="#357818" fill="#6bf030"/>"     "     <path d="M1015 85h3v14h-3zm4 0h3v14h-3zM20 86h27v14H20z" fill="#6cf030" stroke="#367818"/>"     "     "     <path d="M48 86h20v14H48zm21 0h23v14H69zm24 0h22v14H93z" stroke="#367818" fill="#6df030"/>"     "     "     <path d="M116 86h2v14h-2zm907-1h1v15h-1z" fill="#6ef030" stroke="#377818"/>"     "     <path d="M119 87h29v14h-29zm30 0h7v14h-7zm8 1h13v14h-13z" stroke="#377818" fill="#6ff030"/>"     "     "     <path d="M171 89h10v14h-10zm11 0h26v14h-26zm27 0h30v14h-30z" fill="#70f030" stroke="#387818"/>"     "     "     <path d="M240 89h14v14h-14zm15 0h24v14h-24z" stroke="#387818" fill="#71f030"/>"     "     <path d="M280 89h15v14h-15zm16 0h19v14h-19zm20 1h24v14h-24z" fill="#72f030" stroke="#397818"/>"     "     "     <path d="M341 90h26v14h-26zm27 0h27v14h-27zm28 0h26v14h-26z" stroke="#397818" fill="#73f030"/>"     "     "     <path d="M423 90h11v14h-11zm12 0h12v14h-12z" fill="#74f030" stroke="#3a7818"/>"     "     <path d="M448 90h10v14h-10zm11 0h15v14h-15zm16 0h1v15h-1z" stroke="#3a7818" fill="#75f030"/>"     "     "     <path d="M477 90h1v15h-1zm2 1h23v14h-23zm24 0h6v14h-6z" fill="#76f030" stroke="#3b7818"/>"     "     "     <path d="M510 91h29v14h-29zm30 0h7v14h-7z" stroke="#3b7818" fill="#77f030"/>"     "     <path d="M548 91h26v15h-26zm27 0h8v15h-8zm9 0h19v15h-19z" fill="#78f030" stroke="#3c7818"/>"     "     "     <path d="M604 91h10v15h-10zm11 0h3v15h-3zm4 0h1v15h-1z" stroke="#3c7818" fill="#79f030"/>"     "     "     <path d="M621 92h27v15h-27zm28 0h5v15h-5z" fill="#7af030" stroke="#3d7818"/>"     "     <path d="M655 93h25v15h-25zm26 0h5v15h-5zm6 1h2v15h-2z" stroke="#3d7818" fill="#7bf030"/>"     "     "     <path d="M690 95h10v15h-10zm11 0h20v15h-20zm21 0h2v15h-2z" fill="#7cf030" stroke="#3e7818"/>"     "     "     <path d="M725 96h14v15h-14zm15 0h3v15h-3z" stroke="#3e7818" fill="#7df030"/>"     "     <path d="M744 97h21v15h-21zm22 0h24v15h-24zm25 0h9v15h-9z" fill="#7ef030" stroke="#3f7818"/>"     "     "     <path d="M801 97h13v15h-13zm14 0h15v15h-15zm16 0h9v15h-9z" stroke="#3f7818" fill="#7ff030"/>"     "     "     <path d="M841 97h12v15h-12zm13 0h11v15h-11z" fill="#80f030" stroke="#407818"/>"     "     <path d="M866 97h5v15h-5zm6 1h22v15h-22zm23 0h21v15h-21z" stroke="#407818" fill="#81f030"/>"     "     "     <path d="M917 98h23v15h-23zm24 0h23v15h-23zm24 0h18v15h-18z" fill="#82f030" stroke="#417818"/>"     "     "     <path d="M984 98h11v15h-11zm12 0h18v15h-18z" stroke="#417818" fill="#83f030"/>"     "     <path d="M1 100h14v15H1zm1014 0h5v15h-5zm-999 0h3v16h-3z" fill="#84f030" stroke="#427818"/>"     "     "     <path d="M20 101h27v15H20zm28 0h10v15H48zm11 0h9v15h-9z" stroke="#427818" fill="#85f030"/>"     "     "     <path d="M69 101h17v15H69zm18 0h9v15h-9z" fill="#86f030" stroke="#437818"/>"     "     <path d="M97 101h11v15H97zm12 0h6v15h-6zm912-1h1v16h-1z" stroke="#437818" fill="#87f030"/>"     "     "     <path d="M116 102h14v15h-14zm15 0h18v15h-18zm19 0h5v16h-5z" fill="#88f030" stroke="#447818"/>"     "     "     <path d="M156 103h9v15h-9zm867-2h1v17h-1z" stroke="#447818" fill="#89f030"/>"     "     <path d="M166 104h30v15h-30zm31 0h29v15h-29zm30 0h15v15h-15z" fill="#8af030" stroke="#457818"/>"     "     "     <path d="M243 104h29v15h-29zm30 0h20v15h-20zm21 0h7v15h-7z" stroke="#457818" fill="#8bf030"/>"     "     "     <path d="M302 104h13v16h-13zm14 1h29v15h-29z" fill="#8cf030" stroke="#467818"/>"     "     <path d="M346 105h25v15h-25zm26 0h26v15h-26zm27 0h14v15h-14z" stroke="#467818" fill="#8df030"/>"     "     "     <path d="M414 105h22v15h-22zm23 0h26v15h-26zm27 0h10v16h-10z" fill="#8ef030" stroke="#477818"/>"     "     "     <path d="M475 106h27v15h-27zm28 0h20v15h-20z" stroke="#477818" fill="#8ff030"/>"     "     <path d="M524 106h16v16h-16zm17 0h5v16h-5zm6 1h29v16h-29z" fill="#90f030" stroke="#487818"/>"     "     "     <path d="M577 107h28v16h-28zm29 0h13v16h-13zm14 1h29v16h-29z" stroke="#487818" fill="#91f030"/>"     "     "     <path d="M650 108h3v17h-3zm4 1h29v16h-29z" fill="#92f030" stroke="#497818"/>"     "     <path d="M684 109h1v17h-1zm2 2h12v16h-12zm13 0h22v16h-22z" stroke="#497818" fill="#93f030"/>"     "     "     <path d="M722 112h7v16h-7zm8 0h13v16h-13zm14 1h29v16h-29z" fill="#94f030" stroke="#4a7818"/>"     "     "     <path d="M774 113h15v16h-15zm16 0h28v16h-28z" stroke="#4a7818" fill="#95f030"/>"     "     <path d="M819 113h9v16h-9zm10 0h14v16h-14zm15 0h11v16h-11z" fill="#96f030" stroke="#4b7818"/>"     "     "     <path d="M856 113h7v16h-7zm8 0h7v17h-7zm8 1h22v16h-22z" stroke="#4b7818" fill="#97f030"/>"     "     "     <path d="M895 114h10v16h-10zm11 0h15v16h-15z" fill="#98f030" stroke="#4c7818"/>"     "     <path d="M922 114h20v16h-20zm21 0h9v16h-9zm10 0h17v16h-17z" stroke="#4c7818" fill="#99f030"/>"     "     "     <path d="M971 114h27v16h-27zm28 0h14v16h-14zM1 116h10v16H1z" fill="#9af030" stroke="#4d7818"/>"     "     "     <path d="M12 116h3v17h-3zm4 1h18v16H16z" stroke="#4d7818" fill="#9bf030"/>"     "     <path d="M35 117h18v16H35zm19 0h21v16H54zm22 0h11v16H76z" fill="#9cf030" stroke="#4e7818"/>"     "     "     <path d="M88 117h11v16H88zm12 0h12v16h-12zm914-1h4v17h-4z" stroke="#4e7818" fill="#9df030"/>"     "     "     <path d="M113 118h19v16h-19zm20 0h11v16h-11z" fill="#9ef030" stroke="#4f7818"/>"     "     <path d="M145 118h4v17h-4zm5 1h15v16h-15zm869-2h3v18h-3z" stroke="#4f7818" fill="#9ff030"/>"     "     "     <path d="M166 120h27v16h-27zm28 0h22v16h-22zm23 0h26v16h-26z" fill="#a0f030" stroke="#507818"/>"     "     "     <path d="M244 120h19v17h-19zm20 0h30v17h-30z" stroke="#507818" fill="#a1f030"/>"     "     <path d="M295 120h4v17h-4zm5 1h16v17h-16zm17 0h14v17h-14z" fill="#a2f030" stroke="#517818"/>"     "     "     <path d="M332 121h15v17h-15zm16 0h22v17h-22zm23 0h24v17h-24z" stroke="#517818" fill="#a3f030"/>"     "     "     <path d="M396 121h18v17h-18zm19 0h28v17h-28z" fill="#a4f030" stroke="#527818"/>"     "     <path d="M444 121h12v17h-12zm579-2h1v19h-1zm-566 2h3v18h-3z" stroke="#527818" fill="#a5f030"/>"     "     "     <path d="M461 121h2v18h-2zm3 1h22v17h-22zm23 0h9v17h-9z" fill="#a6f030" stroke="#537818"/>"     "     "     <path d="M497 122h13v17h-13zm14 0h9v17h-9z" stroke="#537818" fill="#a7f030"/>"     "     <path d="M521 123h16v17h-16zm17 0h8v17h-8zm9 1h19v17h-19z" fill="#a8f030" stroke="#547818"/>"     "     "     <path d="M567 124h24v17h-24zm25 0h14v17h-14zm15 0h12v17h-12z" stroke="#547818" fill="#a9f030"/>"     "     "     <path d="M620 125h13v17h-13zm14 0h14v17h-14z" fill="#aaf030" stroke="#557818"/>"     "     <path d="M649 126h17v17h-17zm18 0h16v17h-16zm17 2h8v17h-8z" stroke="#557818" fill="#abf030"/>"     "     "     <path d="M693 128h21v17h-21zm22 0h6v18h-6zm7 1h17v17h-17z" fill="#acf030" stroke="#567818"/>"     "     "     <path d="M740 130h25v17h-25zm26 0h12v17h-12z" stroke="#567818" fill="#adf030"/>"     "     <path d="M779 130h28v17h-28zm29 0h30v17h-30zm31 0h14v17h-14z" fill="#aef030" stroke="#577818"/>"     "     "     <path d="M854 130h8v17h-8zm9 1h21v17h-21zm22 0h16v17h-16z" stroke="#577818" fill="#aff030"/>"     "     "     <path d="M902 131h17v17h-17zm18 0h28v17h-28z" fill="#b0f030" stroke="#587818"/>"     "     <path d="M949 131h12v17h-12zm13 0h14v17h-14zm15 0h12v17h-12z" stroke="#587818" fill="#b1f030"/>"     "     "     <path d="M990 131h11v17h-11zm12 0h9v17h-9zM1 133h8v17H1z" fill="#b2f030" stroke="#597818"/>"     "     "     <path d="M1012 131h1v19h-1zM10 134h21v17H10z" stroke="#597818" fill="#b3f030"/>"     "     <path d="M32 134h20v17H32zm21 0h14v17H53zm15 0h18v17H68z" fill="#b4f030" stroke="#5a7818"/>"     "     "     <path d="M87 134h19v17H87zm20 0h4v18h-4zm5 1h22v17h-22z" stroke="#5a7818" fill="#b5f030"/>"     "     "     <path d="M135 135h8v17h-8zm879-1h3v18h-3z" fill="#b6f030" stroke="#5b7818"/>"     "     <path d="M144 136h18v17h-18zm19 1h27v17h-27zm855-1h4v18h-4z" stroke="#5b7818" fill="#b7f030"/>"     "     "     <path d="M191 137h11v18h-11zm12 0h30v18h-30zm31 0h7v18h-7z" fill="#b8f030" stroke="#5c7818"/>"     "     "     <path d="M242 138h11v18h-11zm12 0h22v18h-22z" stroke="#5c7818" fill="#b9f030"/>"     "     <path d="M277 138h21v18h-21zm22 1h27v18h-27zm28 0h19v18h-19z" fill="#baf030" stroke="#5d7818"/>"     "     "     <path d="M347 139h13v18h-13zm14 0h30v18h-30zm31 0h7v18h-7z" stroke="#5d7818" fill="#bbf030"/>"     "     "     <path d="M400 139h7v18h-7zm8 0h7v18h-7z" fill="#bcf030" stroke="#5e7818"/>"     "     <path d="M416 139h11v18h-11zm12 0h10v18h-10zm11 0h13v18h-13z" stroke="#5e7818" fill="#bdf030"/>"     "     "     <path d="M453 140h11v18h-11zm12 0h30v18h-30zm31 0h16v18h-16z" fill="#bef030" stroke="#5f7818"/>"     "     "     <path d="M513 140h6v18h-6zm510-1h1v19h-1z" stroke="#5f7818" fill="#bff030"/>"     "     <path d="M520 141h14v18h-14zm15 0h10v18h-10zm11 1h17v18h-17z" fill="#c0f030" stroke="#607818"/>"     "     "     <path d="M564 142h19v18h-19zm20 0h23v18h-23zm24 0h10v18h-10z" stroke="#607818" fill="#c1f030"/>"     "     "     <path d="M619 143h21v18h-21zm22 0h6v18h-6z" fill="#c2f030" stroke="#617818"/>"     "     <path d="M648 144h13v18h-13zm14 0h14v18h-14zm15 0h5v18h-5z" stroke="#617818" fill="#c3f030"/>"     "     "     <path d="M683 146h23v18h-23zm24 0h5v19h-5zm6 1h17v18h-17z" fill="#c4f030" stroke="#627818"/>"     "     "     <path d="M731 147h8v18h-8zm9 1h18v18h-18z" stroke="#627818" fill="#c5f030"/>"     "     <path d="M759 148h29v18h-29zm30 0h26v18h-26zm27 0h28v18h-28z" fill="#c6f030" stroke="#637818"/>"     "     "     <path d="M845 148h14v18h-14zm15 1h27v18h-27zm28 0h8v18h-8z" stroke="#637818" fill="#c7f030"/>"     "     "     <path d="M897 149h27v18h-27zm28 0h21v18h-21z" fill="#c8f030" stroke="#647818"/>"     "     <path d="M947 149h28v18h-28zm29 0h12v18h-12zm13 0h17v18h-17z" stroke="#647818" fill="#c9f030"/>"     "     "     <path d="M1007 149h3v19h-3zM1 151h5v19H1zm6 1h9v18H7z" fill="#caf030" stroke="#657818"/>"     "     "     <path d="M17 152h18v18H17zm19 0h23v18H36z" stroke="#657818" fill="#cbf030"/>"     "     <path d="M1011 151h2v19h-2zm-951 1h20v19H60zm21 0h8v19h-8z" fill="#ccf030" stroke="#667818"/>"     "     "     <path d="M90 152h11v19H90zm12 0h3v19h-3zm4 1h30v19h-30z" stroke="#667818" fill="#cdf030"/>"     "     "     <path d="M137 153h6v19h-6zm7 1h18v19h-18z" fill="#cef030" stroke="#677818"/>"     "     <path d="M1014 153h2v20h-2zm-851 2h25v19h-25zm26 1h29v19h-29z" stroke="#677818" fill="#cff030"/>"     "     "     <path d="M219 156h13v19h-13zm14 0h7v19h-7zm784-1h3v20h-3z" fill="#d0f030" stroke="#687818"/>"     "     "     <path d="M1021 155h1v20h-1zm-780 2h29v19h-29z" stroke="#687818" fill="#d1f030"/>"     "     <path d="M271 157h20v19h-20zm21 0h6v19h-6zm7 1h29v19h-29z" fill="#d2f030" stroke="#697818"/>"     "     "     <path d="M329 158h15v19h-15zm16 0h22v19h-22zm23 0h30v19h-30z" stroke="#697818" fill="#d3f030"/>"     "     "     <path d="M399 158h19v19h-19zm20 0h16v19h-16z" fill="#d4f030" stroke="#6a7818"/>"     "     <path d="M436 158h10v19h-10zm11 1h13v19h-13zm14 0h23v19h-23z" stroke="#6a7818" fill="#d5f030"/>"     "     "     <path d="M485 159h13v19h-13zm14 0h15v19h-15zm16 1h24v19h-24z" fill="#d6f030" stroke="#6b7818"/>"     "     "     <path d="M540 160h5v20h-5zm6 1h24v19h-24z" stroke="#6b7818" fill="#d7f030"/>"     "     <path d="M571 161h23v19h-23zm24 0h20v19h-20zm428-2h1v21h-1z" fill="#d8f030" stroke="#6c7818"/>"     "     "     <path d="M616 162h19v19h-19zm20 0h11v19h-11zm12 1h28v19h-28z" stroke="#6c7818" fill="#d9f030"/>"     "     "     <path d="M677 163h5v20h-5zm6 2h23v19h-23z" fill="#daf030" stroke="#6d7818"/>"     "     <path d="M707 166h26v19h-26zm27 1h13v19h-13zm14 0h30v19h-30z" stroke="#6d7818" fill="#dbf030"/>"     "     "     <path d="M779 167h25v19h-25zm26 0h30v19h-30zm31 0h12v20h-12z" fill="#dcf030" stroke="#6e7818"/>"     "     "     <path d="M849 167h8v20h-8zm9 1h20v20h-20z" stroke="#6e7818" fill="#ddf030"/>"     "     <path d="M879 168h15v20h-15zm16 0h23v20h-23zm24 0h12v20h-12z" fill="#def030" stroke="#6f7818"/>"     "     "     <path d="M932 168h16v20h-16zm17 0h25v20h-25zm26 0h27v20h-27z" stroke="#6f7818" fill="#dff030"/>"     "     "     <path d="M1003 168h2v20h-2zm3 1h3v20h-3z" fill="#e0f030" stroke="#707818"/>"     "     <path d="M1 171h28v20H1zm29 0h16v20H30zm17 0h6v20h-6z" stroke="#707818" fill="#e1f030"/>"     "     "     <path d="M54 171h5v21h-5zm6 1h30v20H60zm31 0h14v20H91z" fill="#e2f030" stroke="#717818"/>"     "     "     <path d="M1010 171h2v21h-2zm-904 2h29v20h-29z" stroke="#717818" fill="#e3f030"/>"     "     <path d="M136 173h6v21h-6zm7 1h18v20h-18zm19 1h21v20h-21z" fill="#e4f030" stroke="#727818"/>"     "     "     <path d="M1013 174h1v21h-1zm2 0h1v21h-1zm-831 1h2v21h-2z" stroke="#727818" fill="#e5f030"/>"     "     "     <path d="M187 176h29v20h-29zm30 0h19v20h-19z" fill="#e6f030" stroke="#737818"/>"     "     <path d="M237 176h3v21h-3zm4 1h10v20h-10zm11 0h27v20h-27z" stroke="#737818" fill="#e7f030"/>"     "     "     <path d="M280 177h8v20h-8zm9 0h9v20h-9zm728-1h2v21h-2z" fill="#e8f030" stroke="#747818"/>"     "     "     <path d="M299 178h16v20h-16zm17 0h11v20h-11z" stroke="#747818" fill="#e9f030"/>"     "     <path d="M328 178h17v20h-17zm18 0h9v20h-9zm10 0h13v20h-13z" fill="#eaf030" stroke="#757818"/>"     "     "     <path d="M370 178h11v20h-11zm12 0h9v20h-9zm10 0h22v20h-22z" stroke="#757818" fill="#ebf030"/>"     "     "     <path d="M415 178h20v20h-20zm21 0h10v20h-10z" fill="#ecf030" stroke="#767818"/>"     "     <path d="M1020 176h2v22h-2zm-573 3h25v20h-25zm26 0h21v20h-21z" stroke="#767818" fill="#edf030"/>"     "     "     <path d="M495 179h16v21h-16zm17 1h19v21h-19zm20 0h7v21h-7z" fill="#eef030" stroke="#777818"/>"     "     "     <path d="M540 181h19v21h-19zm20 0h8v21h-8z" stroke="#777818" fill="#eff030"/>"     "     <path d="M569 181h23v21h-23zm24 0h20v21h-20zm21 1h25v21h-25z" fill="#f0f030" stroke="#787818"/>"     "     "     <path d="M640 182h6v21h-6zm383-1h1v22h-1zm-376 2h18v21h-18z" stroke="#787818" fill="#f0f031"/>"     "     "     <path d="M666 183h8v21h-8zm9 1h7v21h-7z" fill="#f0f032" stroke="#787819"/>"     "     <path d="M683 185h16v21h-16zm17 1h29v21h-29zm30 1h16v21h-16z" stroke="#787819" fill="#f0f033"/>"     "     "     <path d="M747 187h21v21h-21zm22 0h28v21h-28zm29 0h25v21h-25z" fill="#f0f034" stroke="#78781a"/>"     "     "     <path d="M824 187h11v21h-11zm12 1h14v21h-14z" stroke="#78781a" fill="#f0f035"/>"     "     <path d="M851 188h5v22h-5zm6 1h22v21h-22zm23 0h9v21h-9z" fill="#f0f036" stroke="#78781b"/>"     "     "     <path d="M890 189h30v21h-30zm31 0h21v21h-21zm22 0h28v21h-28z" stroke="#78781b" fill="#f0f037"/>"     "     "     <path d="M972 189h18v21h-18zm19 0h11v21h-11z" fill="#f0f038" stroke="#78781c"/>"     "     <path d="M1003 189h2v22h-2zm3 1h3v22h-3zM1 192h27v21H1z" stroke="#78781c" fill="#f0f039"/>"     "     "     <path d="M29 192h22v21H29zm23 1h10v21H52zm11 0h14v21H63z" fill="#f0f03a" stroke="#78781d"/>"     "     "     <path d="M78 193h11v21H78zm12 0h8v21h-8z" stroke="#78781d" fill="#f0f03b"/>"     "     <path d="M99 193h6v22h-6zm7 1h23v21h-23zm904-1h1v22h-1z" fill="#f0f03c" stroke="#78781e"/>"     "     "     <path d="M130 194h5v22h-5zm6 1h8v21h-8zm9 0h15v21h-15z" stroke="#78781e" fill="#f0f03d"/>"     "     "     <path d="M161 196h17v21h-17zm18 1h13v21h-13z" fill="#f0f03e" stroke="#78781f"/>"     "     <path d="M193 197h15v21h-15zm16 0h18v21h-18zm19 0h8v21h-8z" stroke="#78781f" fill="#f0f03f"/>"     "     "     <path d="M1012 196h4v22h-4zm-775 2h12v21h-12zm13 0h11v21h-11z" fill="#f0f040" stroke="#787820"/>"     "     "     <path d="M262 198h20v21h-20zm21 0h15v21h-15z" stroke="#787820" fill="#f0f041"/>"     "     <path d="M299 199h28v21h-28zm29 0h11v21h-11zm12 0h19v21h-19z" fill="#f0f042" stroke="#787821"/>"     "     "     <path d="M360 199h14v21h-14zm15 0h26v21h-26zm27 0h10v21h-10z" stroke="#787821" fill="#f0f043"/>"     "     "     <path d="M413 199h27v21h-27zm28 0h5v22h-5z" fill="#f0f044" stroke="#787822"/>"     "     <path d="M1017 198h2v23h-2zm-570 2h15v22h-15zm16 0h21v22h-21z" stroke="#787822" fill="#f0f045"/>"     "     "     <path d="M485 200h7v22h-7zm535-1h1v23h-1zm-527 2h13v22h-13z" fill="#f0f046" stroke="#787823"/>"     "     "     <path d="M507 201h3v22h-3zm4 1h22v22h-22z" stroke="#787823" fill="#f0f047"/>"     "     <path d="M534 202h5v23h-5zm6 1h29v22h-29zm30 0h7v22h-7z" fill="#f0f048" stroke="#787824"/>"     "     "     <path d="M578 203h30v22h-30zm31 1h29v22h-29zm30 0h6v23h-6z" stroke="#787824" fill="#f0f049"/>"     "     "     <path d="M646 205h20v22h-20zm376-1h2v23h-2z" fill="#f0f04a" stroke="#787825"/>"     "     <path d="M667 205h5v23h-5zm6 0h1v23h-1zm2 1h3v23h-3z" stroke="#787825" fill="#f0f04b"/>"     "     "     <path d="M679 207h12v22h-12zm13 0h5v23h-5zm6 1h29v22h-29z" fill="#f0f04c" stroke="#787826"/>"     "     "     <path d="M728 209h29v22h-29zm30 0h28v22h-28z" stroke="#787826" fill="#f0f04d"/>"     "     <path d="M787 209h20v22h-20zm21 0h22v22h-22zm23 0h2v23h-2z" fill="#f0f04e" stroke="#787827"/>"     "     "     <path d="M834 209h1v23h-1zm2 1h14v22h-14zm15 1h20v22h-20z" stroke="#787827" fill="#f0f04f"/>"     "     "     <path d="M872 211h26v22h-26zm27 0h17v22h-17z" fill="#f0f050" stroke="#787828"/>"     "     <path d="M917 211h24v22h-24zm25 0h28v22h-28zm29 0h18v22h-18z" stroke="#787828" fill="#f0f051"/>"     "     "     <path d="M990 211h10v22h-10zm11 0h1v24h-1zM1 214h18v22H1z" fill="#f0f052" stroke="#787829"/>"     "     "     <path d="M20 214h26v22H20zm983-2h2v24h-2z" stroke="#787829" fill="#f0f053"/>"     "     <path d="M47 215h20v22H47zm21 0h14v22H68zm15 0h14v22H83z" fill="#f0f054" stroke="#78782a"/>"     "     "     <path d="M1006 213h3v24h-3zm-908 3h26v22H98zm27 1h19v22h-19z" stroke="#78782a" fill="#f0f055"/>"     "     "     <path d="M145 217h10v23h-10zm11 1h22v22h-22z" fill="#f0f056" stroke="#78782b"/>"     "     <path d="M179 219h25v22h-25zm26 0h23v22h-23zm24 0h5v23h-5z" stroke="#78782b" fill="#f0f057"/>"     "     "     <path d="M235 220h22v22h-22zm23 0h20v22h-20zm21 0h19v22h-19z" fill="#f0f058" stroke="#78782c"/>"     "     "     <path d="M1010 216h1v26h-1zm2 3h4v23h-4z" stroke="#78782c" fill="#f0f059"/>"     "     <path d="M299 221h27v22h-27zm28 0h22v22h-22zm23 0h25v22h-25z" fill="#f0f05a" stroke="#78782d"/>"     "     "     <path d="M376 221h25v22h-25zm26 0h23v22h-23zm24 0h14v23h-14z" stroke="#78782d" fill="#f0f05b"/>"     "     "     <path d="M441 222h5v23h-5zm6 1h24v23h-24z" fill="#f0f05c" stroke="#78782e"/>"     "     <path d="M472 223h20v23h-20zm545-1h2v24h-2zm-524 2h10v23h-10z" stroke="#78782e" fill="#f0f05d"/>"     "     "     <path d="M504 224h6v23h-6zm7 1h21v23h-21zm22 1h26v23h-26z" fill="#f0f05e" stroke="#78782f"/>"     "     "     <path d="M560 226h29v23h-29zm30 0h5v23h-5z" stroke="#78782f" fill="#f0f05f"/>"     "     <path d="M596 226h11v23h-11zm424-3h1v26h-1zm-412 4h20v23h-20z" fill="#f0f060" stroke="#787830"/>"     "     "     <path d="M629 227h9v23h-9zm10 1h24v23h-24zm25 0h2v24h-2z" stroke="#787830" fill="#f0f061"/>"     "     "     <path d="M667 229h7v23h-7zm8 1h14v23h-14z" fill="#f0f062" stroke="#787831"/>"     "     <path d="M1022 228h2v25h-2zm-332 3h28v23h-28zm29 0h8v23h-8z" stroke="#787831" fill="#f0f063"/>"     "     "     <path d="M728 232h14v23h-14zm15 0h16v23h-16zm17 0h16v23h-16z" fill="#f0f064" stroke="#787832"/>"     "     "     <path d="M777 232h15v23h-15zm16 0h22v23h-22z" stroke="#787832" fill="#f0f065"/>"     "     <path d="M816 232h11v23h-11zm12 1h22v23h-22zm23 1h11v23h-11z" fill="#f0f066" stroke="#787833"/>"     "     "     <path d="M863 234h21v23h-21zm22 0h11v23h-11zm12 0h16v23h-16z" stroke="#787833" fill="#f0f067"/>"     "     "     <path d="M914 234h29v23h-29zm30 0h9v23h-9z" fill="#f0f068" stroke="#787834"/>"     "     <path d="M954 234h8v23h-8zm9 0h14v23h-14zm15 0h13v23h-13z" stroke="#787834" fill="#f0f069"/>"     "     "     <path d="M992 234h7v24h-7zM1 237h20v23H1zm21 0h13v24H22z" fill="#f0f06a" stroke="#787835"/>"     "     "     <path d="M36 237h9v24h-9zm964 0h5v24h-5z" stroke="#787835" fill="#f0f06b"/>"     "     <path d="M46 238h29v24H46zm30 0h12v24H76zm13 0h7v24h-7z" fill="#f0f06c" stroke="#787836"/>"     "     "     <path d="M1006 238h3v24h-3zm-909 1h11v24H97zm12 0h9v24h-9z" stroke="#787836" fill="#f0f06d"/>"     "     "     <path d="M119 239h5v24h-5zm6 1h18v24h-18z" fill="#f0f06e" stroke="#787837"/>"     "     <path d="M144 241h25v24h-25zm26 0h8v24h-8zm9 1h20v24h-20z" stroke="#787837" fill="#f0f06f"/>"     "     "     <path d="M200 242h13v24h-13zm14 0h10v24h-10zm11 1h19v24h-19z" fill="#f0f070" stroke="#787838"/>"     "     "     <path d="M245 243h24v24h-24zm25 0h24v24h-24z" stroke="#787838" fill="#f0f071"/>"     "     <path d="M1010 243h4v24h-4zm-715 1h22v24h-22zm23 0h29v24h-29z" fill="#f0f072" stroke="#787839"/>"     "     "     <path d="M348 244h13v24h-13zm14 0h20v24h-20zm21 0h15v24h-15z" stroke="#787839" fill="#f0f073"/>"     "     "     <path d="M399 244h12v24h-12zm13 0h10v24h-10z" fill="#f0f074" stroke="#78783a"/>"     "     <path d="M423 245h12v24h-12zm592-2h1v26h-1zm-579 2h4v25h-4z" stroke="#78783a" fill="#f0f075"/>"     "     "     <path d="M441 246h4v25h-4zm5 1h24v24h-24zm25 0h19v24h-19z" fill="#f0f076" stroke="#78783b"/>"     "     "     <path d="M491 248h19v24h-19zm20 1h15v24h-15z" stroke="#78783b" fill="#f0f077"/>"     "     <path d="M527 250h27v24h-27zm28 0h30v24h-30zm31 0h20v24h-20z" fill="#f0f078" stroke="#78783c"/>"     "     "     <path d="M1017 247h2v27h-2zm-410 4h22v24h-22zm23 0h7v25h-7z" stroke="#78783c" fill="#f0f079"/>"     "     "     <path d="M638 252h25v24h-25zm26 1h10v24h-10z" fill="#f0f07a" stroke="#78783d"/>"     "     <path d="M1020 250h1v27h-1zm-345 4h13v24h-13zm14 1h27v24h-27z" stroke="#78783d" fill="#f0f07b"/>"     "     "     <path d="M717 255h9v24h-9zm10 1h11v24h-11zm12 0h18v24h-18z" fill="#f0f07c" stroke="#78783e"/>"     "     "     <path d="M758 256h15v24h-15zm16 0h14v24h-14z" stroke="#78783e" fill="#f0f07d"/>"     "     <path d="M789 256h15v24h-15zm16 0h20v24h-20zm21 1h13v25h-13z" fill="#f0f07e" stroke="#78783f"/>"     "     "     <path d="M840 257h8v25h-8zm9 1h29v24h-29zm173-4h2v28h-2z" stroke="#78783f" fill="#f0f07f"/>"     "     "     <path d="M879 258h15v25h-15zm16 0h14v25h-14z" fill="#f0f080" stroke="#787840"/>"     "     <path d="M910 258h25v25h-25zm26 0h21v25h-21zm22 0h15v25h-15z" stroke="#787840" fill="#f0f081"/>"     "     "     <path d="M974 258h13v25h-13zm14 0h3v25h-3zm4 1h5v25h-5z" fill="#f0f082" stroke="#787841"/>"     "     "     <path d="M1 261h16v25H1zm17 0h3v25h-3z" stroke="#787841" fill="#f0f083"/>"     "     <path d="M22 262h14v25H22zm15 0h8v25h-8zm961 0h7v25h-7z" fill="#f0f084" stroke="#787842"/>"     "     "     <path d="M46 263h27v25H46zm28 0h21v25H74zm22 1h21v25H96z" stroke="#787842" fill="#f0f085"/>"     "     "     <path d="M1006 263h3v26h-3zm-888 1h4v26h-4z" fill="#f0f086" stroke="#787843"/>"     "     <path d="M123 265h20v25h-20zm21 1h19v25h-19zm20 0h13v25h-13z" stroke="#787843" fill="#f0f087"/>"     "     "     <path d="M178 267h30v25h-30zm31 0h12v25h-12zm13 1h14v25h-14z" fill="#f0f088" stroke="#787844"/>"     "     "     <path d="M237 268h24v25h-24zm25 0h12v25h-12z" stroke="#787844" fill="#f0f089"/>"     "     <path d="M275 268h12v25h-12zm13 0h4v26h-4zm5 1h25v25h-25z" fill="#f0f08a" stroke="#787845"/>"     "     "     <path d="M319 269h20v25h-20zm21 0h17v25h-17zm18 0h29v25h-29z" stroke="#787845" fill="#f0f08b"/>"     "     "     <path d="M388 269h24v25h-24zm25 0h9v25h-9z" fill="#f0f08c" stroke="#787846"/>"     "     <path d="M1010 268h3v26h-3zm-587 2h11v25h-11zm12 1h3v26h-3z" stroke="#787846" fill="#f0f08d"/>"     "     "     <path d="M439 272h20v25h-20zm21 0h18v25h-18zm19 0h8v26h-8z" fill="#f0f08e" stroke="#787847"/>"     "     "     <path d="M488 273h18v25h-18zm526-3h2v28h-2z" stroke="#787847" fill="#f0f08f"/>"     "     <path d="M507 274h14v25h-14zm15 0h3v26h-3zm4 1h17v25h-17z" fill="#f0f090" stroke="#787848"/>"     "     "     <path d="M544 275h15v25h-15zm16 0h13v25h-13zm14 0h28v25h-28z" stroke="#787848" fill="#f0f091"/>"     "     "     <path d="M603 275h3v26h-3zm4 1h21v25h-21z" fill="#f0f092" stroke="#787849"/>"     "     <path d="M629 277h29v25h-29zm30 0h3v27h-3zm4 1h10v26h-10z" stroke="#787849" fill="#f0f093"/>"     "     "     <path d="M674 279h14v26h-14zm15 1h26v25h-26zm328-2h3v27h-3z" fill="#f0f094" stroke="#78784a"/>"     "     "     <path d="M716 280h7v26h-7zm8 1h29v25h-29z" stroke="#78784a" fill="#f0f095"/>"     "     <path d="M754 281h26v25h-26zm27 0h30v25h-30zm31 0h13v26h-13z" fill="#f0f096" stroke="#78784b"/>"     "     "     <path d="M826 283h22v25h-22zm23 0h19v26h-19zm20 0h7v26h-7z" stroke="#78784b" fill="#f0f097"/>"     "     "     <path d="M877 284h22v26h-22zm23 0h18v26h-18z" fill="#f0f098" stroke="#78784c"/>"     "     <path d="M919 284h24v26h-24zm25 0h25v26h-25zm26 0h15v26h-15z" stroke="#78784c" fill="#f0f099"/>"     "     "     <path d="M1021 283h3v27h-3zm-35 1h4v27h-4zm5 1h6v26h-6z" fill="#f0f09a" stroke="#78784d"/>"     "     "     <path d="M1 287h15v26H1zm16 1h28v26H17z" stroke="#78784d" fill="#f0f09b"/>"     "     <path d="M998 288h7v26h-7zm-952 1h30v26H46zm31 0h12v26H77z" fill="#f0f09c" stroke="#78784e"/>"     "     "     <path d="M90 290h19v26H90zm20 0h7v26h-7zm8 1h18v26h-18z" stroke="#78784e" fill="#f0f09d"/>"     "     "     <path d="M1006 290h3v27h-3zm-869 1h6v27h-6z" fill="#f0f09e" stroke="#78784f"/>"     "     <path d="M144 292h16v26h-16zm17 0h9v26h-9zm10 1h18v26h-18z" stroke="#78784f" fill="#f0f09f"/>"     "     "     <path d="M190 293h9v26h-9zm10 0h21v26h-21zm22 1h27v26h-27z" fill="#f0f0a0" stroke="#787850"/>"     "     "     <path d="M250 294h28v26h-28zm29 0h8v26h-8z" stroke="#787850" fill="#f0f0a1"/>"     "     <path d="M288 295h14v26h-14zm15 0h9v26h-9zm10 0h24v26h-24z" fill="#f0f0a2" stroke="#787851"/>"     "     "     <path d="M338 295h19v26h-19zm20 0h25v26h-25zm26 0h30v26h-30z" stroke="#787851" fill="#f0f0a3"/>"     "     "     <path d="M415 295h7v27h-7zm8 1h9v26h-9z" fill="#f0f0a4" stroke="#787852"/>"     "     <path d="M1010 295h3v28h-3zm-577 3h19v26h-19zm20 0h25v26h-25z" stroke="#787852" fill="#f0f0a5"/>"     "     "     <path d="M479 299h26v26h-26zm27 1h13v26h-13zm14 1h27v26h-27z" fill="#f0f0a6" stroke="#787853"/>"     "     "     <path d="M548 301h26v26h-26zm27 0h16v26h-16z" stroke="#787853" fill="#f0f0a7"/>"     "     <path d="M592 301h9v27h-9zm10 1h16v26h-16zm17 0h8v27h-8z" fill="#f0f0a8" stroke="#787854"/>"     "     "     <path d="M628 303h23v26h-23zm386-4h2v30h-2zm-362 4h5v27h-5z" stroke="#787854" fill="#f0f0a9"/>"     "     "     <path d="M658 305h15v27h-15zm16 1h22v26h-22z" fill="#f0f0aa" stroke="#787855"/>"     "     <path d="M697 306h17v26h-17zm18 1h18v27h-18zm19 0h19v27h-19z" stroke="#787855" fill="#f0f0ab"/>"     "     "     <path d="M754 307h7v27h-7zm8 0h22v27h-22zm23 0h19v27h-19z" fill="#f0f0ac" stroke="#787856"/>"     "     "     <path d="M805 307h6v27h-6zm212-1h3v28h-3z" stroke="#787856" fill="#f0f0ad"/>"     "     <path d="M812 308h13v27h-13zm14 1h18v27h-18zm19 1h30v27h-30z" fill="#f0f0ae" stroke="#787857"/>"     "     "     <path d="M876 311h27v27h-27zm28 0h25v27h-25zm26 0h24v27h-24z" stroke="#787857" fill="#f0f0af"/>"     "     "     <path d="M955 311h23v27h-23zm24 0h5v27h-5z" fill="#f0f0b0" stroke="#787858"/>"     "     <path d="M985 312h9v27h-9zm36-1h3v28h-3zM1 314h14v27H1z" stroke="#787858" fill="#f0f0b1"/>"     "     "     <path d="M16 315h14v27H16zm15 0h5v27h-5zm6 0h7v27h-7z" fill="#f0f0b2" stroke="#787859"/>"     "     "     <path d="M995 312h1v30h-1zm2 3h8v27h-8z" stroke="#787859" fill="#f0f0b3"/>"     "     <path d="M45 316h30v27H45zm31 0h7v28h-7zm8 1h17v27H84z" fill="#f0f0b4" stroke="#78785a"/>"     "     "     <path d="M102 317h15v27h-15zm16 1h17v27h-17zm18 1h30v27h-30z" stroke="#78785a" fill="#f0f0b5"/>"     "     "     <path d="M167 320h27v27h-27zm28 0h19v27h-19z" fill="#f0f0b6" stroke="#78785b"/>"     "     <path d="M1006 318h3v29h-3zm-791 2h4v28h-4zm5 1h20v27h-20z" stroke="#78785b" fill="#f0f0b7"/>"     "     "     <path d="M241 321h29v27h-29zm30 0h15v27h-15zm16 1h20v27h-20z" fill="#f0f0b8" stroke="#78785c"/>"     "     "     <path d="M308 322h28v27h-28zm29 0h25v27h-25z" stroke="#78785c" fill="#f0f0b9"/>"     "     <path d="M363 322h30v27h-30zm31 0h19v27h-19zm20 1h17v27h-17z" fill="#f0f0ba" stroke="#78785d"/>"     "     "     <path d="M432 325h25v27h-25zm26 0h19v27h-19zm20 1h22v27h-22z" stroke="#78785d" fill="#f0f0bb"/>"     "     "     <path d="M1010 324h3v29h-3zm-509 2h4v28h-4z" fill="#f0f0bc" stroke="#78785e"/>"     "     <path d="M506 327h10v28h-10zm11 1h23v27h-23zm24 0h19v27h-19z" stroke="#78785e" fill="#f0f0bd"/>"     "     "     <path d="M561 328h29v27h-29zm30 1h27v27h-27zm28 1h28v27h-28z" fill="#f0f0be" stroke="#78785f"/>"     "     "     <path d="M648 331h8v28h-8zm9 2h21v27h-21z" stroke="#78785f" fill="#f0f0bf"/>"     "     <path d="M679 333h26v27h-26zm27 0h7v28h-7zm8 2h26v28h-26z" fill="#f0f0c0" stroke="#787860"/>"     "     "     <path d="M741 335h18v28h-18zm19 0h18v28h-18zm19 0h28v28h-28z" stroke="#787860" fill="#f0f0c1"/>"     "     "     <path d="M1014 335h5v28h-5zm-206 1h13v28h-13z" fill="#f0f0c2" stroke="#787861"/>"     "     <path d="M822 337h21v28h-21zm22 1h23v28h-23zm24 0h7v28h-7z" stroke="#787861" fill="#f0f0c3"/>"     "     "     <path d="M876 339h18v28h-18zm19 0h21v28h-21zm22 0h10v28h-10z" fill="#f0f0c4" stroke="#787862"/>"     "     "     <path d="M928 339h16v28h-16zm17 0h28v28h-28z" stroke="#787862" fill="#f0f0c5"/>"     "     <path d="M974 339h10v28h-10zm11 1h7v28h-7zm35 0h4v29h-4z" fill="#f0f0c6" stroke="#787863"/>"     "     "     <path d="M1 342h14v28H1zm15 1h28v28H16zm977 0h10v28h-10z" stroke="#787863" fill="#f0f0c7"/>"     "     "     <path d="M45 344h10v28H45zm11 0h16v28H56z" fill="#f0f0c8" stroke="#787864"/>"     "     <path d="M73 345h25v28H73zm26 0h12v28H99zm13 0h5v29h-5z" stroke="#787864" fill="#f0f0c9"/>"     "     "     <path d="M118 346h13v28h-13zm14 1h12v28h-12zm13 0h19v28h-19z" fill="#f0f0ca" stroke="#787865"/>"     "     "     <path d="M165 348h23v28h-23zm24 0h16v28h-16z" stroke="#787865" fill="#f0f0cb"/>"     "     <path d="M206 348h6v29h-6zm7 1h26v28h-26zm27 0h16v28h-16z" fill="#f0f0cc" stroke="#787866"/>"     "     "     <path d="M257 349h10v28h-10zm11 0h16v28h-16zm17 1h22v28h-22z" stroke="#787866" fill="#f0f0cd"/>"     "     "     <path d="M1004 348h3v30h-3zm-696 2h30v29h-30z" fill="#f0f0ce" stroke="#787867"/>"     "     <path d="M339 350h22v29h-22zm23 0h12v29h-12zm13 0h10v29h-10z" stroke="#787867" fill="#f0f0cf"/>"     "     "     <path d="M386 350h26v29h-26zm27 1h11v29h-11zm12 0h6v29h-6z" fill="#f0f0d0" stroke="#787868"/>"     "     "     <path d="M432 353h29v29h-29zm30 0h11v29h-11z" stroke="#787868" fill="#f0f0d1"/>"     "     <path d="M474 354h18v29h-18zm19 0h7v29h-7zm515 0h4v30h-4z" fill="#f0f0d2" stroke="#787869"/>"     "     "     <path d="M501 356h8v29h-8zm9 0h7v29h-7zm8 0h17v29h-17z" stroke="#787869" fill="#f0f0d3"/>"     "     "     <path d="M536 356h8v29h-8zm9 0h20v29h-20z" fill="#f0f0d4" stroke="#78786a"/>"     "     <path d="M566 356h21v29h-21zm22 1h11v29h-11zm12 0h15v29h-15z" stroke="#78786a" fill="#f0f0d5"/>"     "     "     <path d="M616 358h19v29h-19zm20 0h7v29h-7zm8 0h3v30h-3z" fill="#f0f0d6" stroke="#78786b"/>"     "     "     <path d="M648 360h7v30h-7zm8 1h29v29h-29z" stroke="#78786b" fill="#f0f0d7"/>"     "     <path d="M686 361h13v29h-13zm14 0h3v30h-3zm4 1h8v30h-8z" fill="#f0f0d8" stroke="#78786c"/>"     "     "     <path d="M713 364h13v29h-13zm14 0h24v29h-24zm25 0h29v29h-29z" stroke="#78786c" fill="#f0f0d9"/>"     "     "     <path d="M782 364h18v29h-18zm19 0h5v30h-5z" fill="#f0f0da" stroke="#78786d"/>"     "     <path d="M807 365h10v29h-10zm206-1h5v30h-5zm-195 2h22v29h-22z" stroke="#78786d" fill="#f0f0db"/>"     "     "     <path d="M841 367h28v29h-28zm29 1h17v29h-17zm18 0h26v29h-26z" fill="#f0f0dc" stroke="#78786e"/>"     "     "     <path d="M915 368h29v29h-29zm30 0h17v29h-17z" stroke="#78786e" fill="#f0f0dd"/>"     "     <path d="M963 368h17v29h-17zm18 1h11v29h-11zm38 1h5v30h-5z" fill="#f0f0de" stroke="#78786f"/>"     "     "     <path d="M1 371h10v30H1zm11 1h20v29H12zm21 0h10v30H33z" stroke="#78786f" fill="#f0f0df"/>"     "     "     <path d="M44 373h19v29H44zm949-1h7v30h-7z" fill="#f0f0e0" stroke="#787870"/>"     "     <path d="M64 374h19v29H64zm20 0h20v29H84zm21 0h5v30h-5z" stroke="#787870" fill="#f0f0e1"/>"     "     "     <path d="M111 375h20v29h-20zm21 1h27v29h-27zm28 1h28v30h-28z" fill="#f0f0e2" stroke="#787871"/>"     "     "     <path d="M189 377h15v30h-15zm16 1h23v30h-23z" stroke="#787871" fill="#f0f0e3"/>"     "     <path d="M229 378h12v30h-12zm13 0h16v30h-16zm17 0h18v30h-18z" fill="#f0f0e4" stroke="#787872"/>"     "     "     <path d="M278 379h7v30h-7zm8 0h21v30h-21zm22 1h28v30h-28z" stroke="#787872" fill="#f0f0e5"/>"     "     "     <path d="M337 380h22v30h-22zm23 0h13v30h-13z" fill="#f0f0e6" stroke="#787873"/>"     "     <path d="M374 380h15v30h-15zm16 0h7v30h-7zm8 0h13v30h-13z" stroke="#787873" fill="#f0f0e7"/>"     "     "     <path d="M412 381h17v30h-17zm18 2h23v30h-23zm24 0h12v30h-12z" fill="#f0f0e8" stroke="#787874"/>"     "     "     <path d="M467 384h23v30h-23zm24 2h15v30h-15z" stroke="#787874" fill="#f0f0e9"/>"     "     <path d="M507 386h28v30h-28zm29 0h27v30h-27zm28 0h22v30h-22z" fill="#f0f0ea" stroke="#787875"/>"     "     "     <path d="M587 387h17v30h-17zm18 1h29v30h-29zm30 3h20v30h-20z" stroke="#787875" fill="#f0f0eb"/>"     "     "     <path d="M656 391h28v30h-28zm29 1h18v30h-18z" fill="#f0f0ec" stroke="#787876"/>"     "     <path d="M704 394h29v30h-29zm30 0h17v30h-17zm18 0h27v30h-27z" stroke="#787876" fill="#f0f0ed"/>"     "     "     <path d="M780 394h20v30h-20zm21 2h22v30h-22zm23 1h20v30h-20z" fill="#f0f0ee" stroke="#787877"/>"     "     "     <path d="M845 397h21v30h-21zm22 1h21v30h-21z" stroke="#787877" fill="#f0f0ef"/>"     "     <text y="526" font-size="12" fill="#000" x="0"> MaxRectsBin(size: 1024x512, rule: BottomLeftRule): inserted 1536 of 1536 rectangles with w/h lengths between [2, 31], occupancy: 80.22% </text></svg>