<svg xmlns="http://www.w3.org/2000/svg" viewBox="0 0 1024 536" xmlns:v="https://vecta.io/nano"><path d="M0 0h1024v512H0z" fill="#fff" stroke="#000"/>"     <path d="M1 1h30v29H1zm31 0h30v27H32zm31 0h30v27H63z" fill="#303030" stroke="#181818"/>"     "     "     <path d="M94 1h30v27H94zm31 0h30v27h-30zm31 0h30v26h-30z" stroke="#181818" fill="#303130"/>"     "     "     <path d="M187 1h30v26h-30zm31 0h30v25h-30z" fill="#303230" stroke="#181918"/>"     "     <path d="M249 1h30v25h-30zm31 0h30v24h-30zm31 0h30v22h-30z" stroke="#181918" fill="#303330"/>"     "     "     <path d="M342 1h30v21h-30zm31 0h30v20h-30zm31 0h30v19h-30z" fill="#303430" stroke="#181a18"/>"     "     "     <path d="M435 1h30v19h-30zm31 0h30v19h-30z" stroke="#181a18" fill="#303530"/>"     "     <path d="M497 1h30v19h-30zm31 0h29v30h-29zM156 28h29v30h-29z" fill="#303630" stroke="#181b18"/>"     "     "     <path d="M1 31h28v30H1zm29 0h28v30H30zm2-2h30v1H32z" stroke="#181b18" fill="#303730"/>"     "     "     <path d="M59 31h28v30H59zm4-2h28v1H63z" fill="#303830" stroke="#181c18"/>"     "     <path d="M88 31h28v30H88zm4-2h28v1H92zm25 2h27v30h-27z" stroke="#181c18" fill="#303930"/>"     "     "     <path d="M121 29h27v1h-27zm24 2h10v30h-10zm4-2h6v1h-6z" fill="#303a30" stroke="#181d18"/>"     "     "     <path d="M186 28h27v30h-27zm28 0h23v30h-23z" stroke="#181d18" fill="#303b30"/>"     "     <path d="M238 27h23v30h-23zm24 0h23v30h-23zm24-1h22v30h-22z" fill="#303c30" stroke="#181e18"/>"     "     "     <path d="M309 26h22v30h-22zm2-2h27v1h-27zm21 2h22v30h-22z" stroke="#181e18" fill="#303d30"/>"     "     "     <path d="M342 23h30v2h-30zm-3 1h2v1h-2z" fill="#303e30" stroke="#181f18"/>"     "     <path d="M355 26h21v30h-21zm18-4h30v3h-30zm4 4h21v30h-21z" stroke="#181f18" fill="#303f30"/>"     "     "     <path d="M399 26h21v30h-21zm5-5h30v4h-30zm17 5h20v30h-20z" fill="#304030" stroke="#182018"/>"     "     "     <path d="M435 21h30v4h-30zm7 5h20v30h-20z" stroke="#182018" fill="#304130"/>"     "     <path d="M463 26h20v30h-20zm3-5h30v3h-30zm18 4h18v30h-18z" fill="#304230" stroke="#182118"/>"     "     "     <path d="M497 21h30v3h-30zm6 4h18v30h-18zm19 0h5v30h-5z" stroke="#182118" fill="#304330"/>"     "     "     <path d="M528 32h30v18h-30zm30-31h30v18h-30z" fill="#304430" stroke="#182218"/>"     "     <path d="M558 20h30v11h-30zm1 12h17v30h-17zM156 59h17v30h-17z" stroke="#182218" fill="#304530"/>"     "     "     <path d="M1 62h17v30H1zm18 0h16v30H19zm17 0h15v30H36z" fill="#304630" stroke="#182318"/>"     "     "     <path d="M52 62h15v30H52zm16 0h15v30H68z" stroke="#182318" fill="#304730"/>"     "     <path d="M84 62h13v30H84zm14 0h13v30H98zm14 0h12v30h-12z" fill="#304830" stroke="#182418"/>"     "     "     <path d="M125 62h12v30h-12zm13 0h10v30h-10zm11 0h5v30h-5z" stroke="#182418" fill="#304930"/>"     "     "     <path d="M174 59h8v30h-8zm9 0h7v30h-7z" fill="#304a30" stroke="#182518"/>"     "     <path d="M191 59h7v30h-7zm8 0h7v30h-7zm8 0h7v30h-7z" stroke="#182518" fill="#304b30"/>"     "     "     <path d="M215 59h5v30h-5zm6 0h5v30h-5zm6 0h4v30h-4z" fill="#304c30" stroke="#182618"/>"     "     "     <path d="M232 59h3v30h-3zm4 0h3v30h-3z" stroke="#182618" fill="#304d30"/>"     "     <path d="M240 58h3v30h-3zm4 0h2v30h-2zm3 0h1v30h-1z" fill="#304e30" stroke="#182718"/>"     "     "     <path d="M249 58h29v29h-29zm30 0h29v29h-29zm30-1h29v29h-29z" stroke="#182718" fill="#304f30"/>"     "     "     <path d="M339 57h29v29h-29zm30 0h28v29h-28z" fill="#305030" stroke="#182818"/>"     "     <path d="M398 57h27v29h-27zm28 0h26v29h-26zm27 0h26v29h-26z" stroke="#182818" fill="#305130"/>"     "     "     <path d="M480 57h24v29h-24zm25-1h22v29h-22zm23-5h22v29h-22z" fill="#305230" stroke="#182918"/>"     "     "     <path d="M551 51h7v29h-7zm8 12h30v18h-30z" stroke="#182918" fill="#305330"/>"     "     <path d="M528 81h21v29h-21zm-373 9h20v29h-20zM1 93h20v29H1z" fill="#305430" stroke="#182a18"/>"     "     "     <path d="M22 93h20v29H22zm21 0h20v29H43zm21 0h19v29H64z" stroke="#182a18" fill="#305530"/>"     "     "     <path d="M84 93h19v29H84zm20 0h19v29h-19z" fill="#305630" stroke="#182b18"/>"     "     <path d="M124 93h18v29h-18zm19 0h11v29h-11zm33-3h18v29h-18z" stroke="#182b18" fill="#305730"/>"     "     "     <path d="M195 90h17v29h-17zm18 0h17v29h-17zm18 0h17v29h-17z" fill="#305830" stroke="#182c18"/>"     "     "     <path d="M249 88h17v29h-17zm18 0h15v29h-15z" stroke="#182c18" fill="#305930"/>"     "     <path d="M283 88h13v29h-13zm14 0h13v29h-13zm14-1h12v29h-12z" fill="#305a30" stroke="#182d18"/>"     "     "     <path d="M324 87h11v29h-11zm12 0h11v29h-11zm12 0h11v29h-11z" stroke="#182d18" fill="#305b30"/>"     "     "     <path d="M360 87h10v29h-10zm11 0h10v29h-10z" fill="#305c30" stroke="#182e18"/>"     "     <path d="M382 87h8v29h-8zm9 0h8v29h-8zm9 0h7v29h-7z" stroke="#182e18" fill="#305d30"/>"     "     "     <path d="M408 87h7v29h-7zm8 0h6v29h-6zm7 0h6v29h-6z" fill="#305e30" stroke="#182f18"/>"     "     "     <path d="M430 87h5v29h-5zm6 0h4v29h-4z" stroke="#182f18" fill="#305f30"/>"     "     <path d="M441 87h3v29h-3zm4 0h3v29h-3zm4 0h28v28h-28z" fill="#306030" stroke="#183018"/>"     "     "     <path d="M478 87h28v28h-28zm29-1h19v28h-19zm43-5h8v28h-8z" stroke="#183018" fill="#306130"/>"     "     "     <path d="M589 1h30v17h-30zm0 18h30v17h-30z" fill="#306230" stroke="#183118"/>"     "     <path d="M577 32h10v28h-10zm11 5h30v15h-30zm0 16h30v9h-30z" stroke="#183118" fill="#306330"/>"     "     "     <path d="M577 61h10v1h-10zm13 2h28v28h-28zm-31 19h26v28h-26z" fill="#306430" stroke="#183218"/>"     "     "     <path d="M550 110h7v28h-7zm-395 10h29v27h-29z" stroke="#183218" fill="#306530"/>"     "     <path d="M1 123h26v28H1zm27 0h25v28H28zm26 0h23v28H54z" fill="#306630" stroke="#183318"/>"     "     "     <path d="M78 123h23v28H78zm24 0h22v28h-22zm23 0h21v28h-21z" stroke="#183318" fill="#306730"/>"     "     "     <path d="M147 123h7v28h-7zm38-3h21v28h-21z" fill="#306830" stroke="#183418"/>"     "     <path d="M155 148h18v28h-18zM1 152h18v28H1zm19 0h18v28H20z" stroke="#183418" fill="#306930"/>"     "     "     <path d="M39 152h16v28H39zm17 0h16v28H56zm17 0h16v28H73z" fill="#306a30" stroke="#183518"/>"     "     "     <path d="M90 152h16v28H90zm17 0h16v28h-16z" stroke="#183518" fill="#306b30"/>"     "     <path d="M124 152h14v28h-14zm15 0h13v28h-13zm14 0h1v27h-1z" fill="#306c30" stroke="#183618"/>"     "     "     <path d="M174 148h10v28h-10zm33-28h13v28h-13zm14 0h12v28h-12z" stroke="#183618" fill="#306d30"/>"     "     "     <path d="M234 120h12v28h-12zm13 0h10v28h-10z" fill="#306e30" stroke="#183718"/>"     "     <path d="M249 118h27v1h-27zm9 2h10v28h-10zm11 0h10v28h-10z" stroke="#183718" fill="#306f30"/>"     "     "     <path d="M277 118h27v1h-27zm3 2h10v28h-10zm11 0h7v28h-7z" fill="#307030" stroke="#183818"/>"     "     "     <path d="M299 120h7v28h-7zm6-2h23v1h-23z" stroke="#183818" fill="#307130"/>"     "     <path d="M307 120h5v28h-5zm6 0h4v28h-4zm5 0h4v28h-4z" fill="#307230" stroke="#183918"/>"     "     "     <path d="M323 120h3v28h-3zm4 0h3v28h-3zm2-3h30v2h-30z" stroke="#183918" fill="#307330"/>"     "     "     <path d="M331 120h3v28h-3zm4 0h2v28h-2z" fill="#307430" stroke="#183a18"/>"     "     <path d="M338 120h2v28h-2zm3 0h29v27h-29zm19-3h30v2h-30z" stroke="#183a18" fill="#307530"/>"     "     "     <path d="M371 120h28v27h-28zm20-3h29v2h-29zm9 3h28v27h-28z" fill="#307630" stroke="#183b18"/>"     "     "     <path d="M421 117h28v2h-28zm8 3h27v27h-27z" stroke="#183b18" fill="#307730"/>"     "     <path d="M450 116h30v3h-30zm7 4h27v27h-27zm24-4h29v3h-29z" fill="#307830" stroke="#183c18"/>"     "     "     <path d="M485 120h27v27h-27zm26-5h29v4h-29zm16-4h22v3h-22z" stroke="#183c18" fill="#307930"/>"     "     "     <path d="M513 120h26v27h-26zm27 0h9v27h-9z" fill="#307a30" stroke="#183d18"/>"     "     <path d="M541 115h8v4h-8zm45-33h3v27h-3zm4 10h29v25h-29z" stroke="#183d18" fill="#307b30"/>"     "     "     <path d="M558 111h25v27h-25zm26 0h5v27h-5zm35-74h30v14h-30z" fill="#307c30" stroke="#183e18"/>"     "     "     <path d="M620 1h30v14h-30zm0 15h30v14h-30z" stroke="#183e18" fill="#307d30"/>"     "     <path d="M620 31h30v5h-30zm-1 21h30v13h-30zm0 14h30v13h-30z" fill="#307e30" stroke="#183f18"/>"     "     "     <path d="M619 80h30v11h-30zm1 12h25v27h-25zm-30 26h25v27h-25z" stroke="#183f18" fill="#307f30"/>"     "     "     <path d="M550 139h24v27h-24zm-209 9h23v27h-23z" fill="#308030" stroke="#184018"/>"     "     <path d="M185 149h23v27h-23zm24 0h22v27h-22zm23 0h22v27h-22z" stroke="#184018" fill="#308130"/>"     "     "     <path d="M255 149h21v27h-21zm22 0h20v27h-20zm21 0h20v27h-20z" fill="#308230" stroke="#184118"/>"     "     "     <path d="M319 149h19v27h-19zm20 0h1v26h-1z" stroke="#184118" fill="#308330"/>"     "     <path d="M365 148h19v27h-19zm20 0h19v27h-19zm20 0h19v27h-19z" fill="#308430" stroke="#184218"/>"     "     "     <path d="M425 148h19v27h-19zm20 0h19v27h-19zm20 0h18v27h-18z" stroke="#184218" fill="#308530"/>"     "     "     <path d="M484 148h18v27h-18zm19 0h17v27h-17z" fill="#308630" stroke="#184318"/>"     "     <path d="M521 148h17v27h-17zm18 0h9v27h-9zm36-9h14v27h-14z" stroke="#184318" fill="#308730"/>"     "     "     <path d="M616 118h3v27h-3zm4 2h29v25h-29zm26-28h30v13h-30z" fill="#308830" stroke="#184418"/>"     "     "     <path d="M651 1h30v12h-30zm0 13h30v10h-30z" stroke="#184418" fill="#308930"/>"     "     <path d="M651 25h30v7h-30zm0 8h30v6h-30zm-1 7h30v6h-30z" fill="#308a30" stroke="#184518"/>"     "     "     <path d="M650 47h30v6h-30zm0 7h29v25h-29zm0 26h29v11h-29z" stroke="#184518" fill="#308b30"/>"     "     "     <path d="M646 106h29v13h-29zm4 14h17v27h-17z" fill="#308c30" stroke="#184618"/>"     "     <path d="M590 146h15v27h-15zm-41 21h15v27h-15zm-210 9h15v27h-15z" stroke="#184618" fill="#308d30"/>"     "     "     <path d="M153 180h14v27h-14zm2-3h28v2h-28zM1 181h13v27H1z" fill="#308e30" stroke="#184718"/>"     "     "     <path d="M15 181h8v27h-8zm9 0h8v27h-8z" stroke="#184718" fill="#308f30"/>"     "     <path d="M33 181h7v27h-7zm8 0h7v27h-7zm8 0h7v27h-7z" fill="#309030" stroke="#184818"/>"     "     "     <path d="M57 181h6v27h-6zm7 0h6v27h-6zm7 0h5v27h-5z" stroke="#184818" fill="#309130"/>"     "     "     <path d="M77 181h5v27h-5zm6 0h4v27h-4z" fill="#309230" stroke="#184918"/>"     "     <path d="M88 181h3v27h-3zm4 0h3v27h-3zm4 0h2v27h-2z" stroke="#184918" fill="#309330"/>"     "     "     <path d="M99 181h28v26H99zm29 0h24v26h-24zm40-1h28v26h-28z" fill="#309430" stroke="#184a18"/>"     "     "     <path d="M184 177h27v2h-27zm13 3h27v26h-27z" stroke="#184a18" fill="#309530"/>"     "     <path d="M212 177h26v2h-26zm13 3h27v26h-27zm14-3h26v2h-26z" fill="#309630" stroke="#184b18"/>"     "     "     <path d="M253 180h26v26h-26zm13-3h25v2h-25zm14 3h26v26h-26z" stroke="#184b18" fill="#309730"/>"     "     "     <path d="M292 177h24v2h-24zm15 3h25v26h-25z" fill="#309830" stroke="#184c18"/>"     "     <path d="M317 177h21v2h-21zm16 3h4v26h-4zm22-4h25v26h-25z" stroke="#184c18" fill="#309930"/>"     "     "     <path d="M381 176h25v26h-25zm26 0h24v26h-24zm25 0h23v26h-23z" fill="#309a30" stroke="#184d18"/>"     "     "     <path d="M456 176h22v26h-22zm23 0h22v26h-22z" stroke="#184d18" fill="#309b30"/>"     "     <path d="M502 176h21v26h-21zm22 0h19v26h-19zm20 0h4v26h-4z" fill="#309c30" stroke="#184e18"/>"     "     "     <path d="M565 167h19v26h-19zm20 0h3v26h-3zm21-21h19v26h-19z" stroke="#184e18" fill="#309d30"/>"     "     "     <path d="M626 146h19v26h-19zm20 0h3v26h-3z" fill="#309e30" stroke="#184f18"/>"     "     <path d="M650 148h29v24h-29zm27-56h29v24h-29zm5-91h29v24h-29z" stroke="#184f18" fill="#309f30"/>"     "     "     <path d="M682 26h29v23h-29zm-1 24h29v23h-29zm-1 24h29v16h-29z" fill="#30a030" stroke="#185018"/>"     "     "     <path d="M676 117h29v22h-29zm-8 3h7v26h-7z" stroke="#185018" fill="#30a130"/>"     "     <path d="M676 140h29v7h-29zm4 8h18v26h-18zm-91 26h18v26h-18z" fill="#30a230" stroke="#185118"/>"     "     "     <path d="M549 195h18v26h-18zm-211 9h17v26h-17zm-239 4h16v26H99z" stroke="#185118" fill="#30a330"/>"     "     "     <path d="M1 209h16v26H1zm17 0h16v26H18z" fill="#30a430" stroke="#185218"/>"     "     <path d="M35 209h15v26H35zm16 0h15v26H51zm16 0h14v26H67z" stroke="#185218" fill="#30a530"/>"     "     "     <path d="M82 209h14v26H82zm15 0h1v26h-1zm19-1h13v26h-13z" fill="#30a630" stroke="#185318"/>"     "     "     <path d="M130 208h13v26h-13zm14 0h12v26h-12z" stroke="#185318" fill="#30a730"/>"     "     <path d="M157 208h10v26h-10zm11-1h9v26h-9zm10 0h9v26h-9z" fill="#30a830" stroke="#185418"/>"     "     "     <path d="M188 207h9v26h-9zm10 0h9v26h-9zm10 0h8v26h-8z" stroke="#185418" fill="#30a930"/>"     "     "     <path d="M217 207h8v26h-8zm9 0h7v26h-7z" fill="#30aa30" stroke="#185518"/>"     "     <path d="M234 207h7v26h-7zm8 0h7v26h-7zm8 0h6v26h-6z" stroke="#185518" fill="#30ab30"/>"     "     "     <path d="M257 207h3v26h-3zm4 0h3v26h-3zm4 0h3v26h-3z" fill="#30ac30" stroke="#185618"/>"     "     "     <path d="M269 207h1v26h-1zm2 0h28v25h-28z" stroke="#185618" fill="#30ad30"/>"     "     <path d="M300 207h27v25h-27zm28 0h9v25h-9zm28-4h26v25h-26z" fill="#30ae30" stroke="#185718"/>"     "     "     <path d="M383 203h26v25h-26zm27 0h25v25h-25zm26 0h25v25h-25z" stroke="#185718" fill="#30af30"/>"     "     "     <path d="M462 203h24v25h-24zm25 0h24v25h-24z" fill="#30b030" stroke="#185818"/>"     "     <path d="M512 203h22v25h-22zm23 0h13v25h-13zm33-9h20v25h-20z" stroke="#185818" fill="#30b130"/>"     "     "     <path d="M608 173h21v25h-21zm22 0h21v25h-21zm22 0h21v25h-21z" fill="#30b230" stroke="#185918"/>"     "     "     <path d="M674 173h5v25h-5zm6 2h29v22h-29z" stroke="#185918" fill="#30b330"/>"     "     <path d="M707 91h29v22h-29zm5-90h29v22h-29zm0 23h29v21h-29z" fill="#30b430" stroke="#185a18"/>"     "     "     <path d="M712 46h29v20h-29zm-1 21h29v20h-29zm-4 47h29v19h-29z" stroke="#185a18" fill="#30b530"/>"     "     "     <path d="M706 134h29v19h-29zm-7 14h4v25h-4z" fill="#30b630" stroke="#185b18"/>"     "     <path d="M704 148h1v24h-1zm2 6h29v19h-29zm-2 19h1v1h-1z" stroke="#185b18" fill="#30b730"/>"     "     "     <path d="M710 88h24v2h-24zm25 0h23v2h-23zm7-87h29v18h-29z" fill="#30b830" stroke="#185c18"/>"     "     "     <path d="M742 20h29v16h-29zm0 17h29v16h-29z" stroke="#185c18" fill="#30b930"/>"     "     <path d="M742 54h29v16h-29zm-1 17h29v15h-29zm-31 103h21v25h-21z" fill="#30ba30" stroke="#185d18"/>"     "     "     <path d="M608 199h20v25h-20zm-59 23h20v25h-20zm19-2h23v1h-23z" stroke="#185d18" fill="#30bb30"/>"     "     "     <path d="M589 201h18v18h-18zm-318 32h27v24h-27z" fill="#30bc30" stroke="#185e18"/>"     "     <path d="M1 236h19v25H1zm20 0h18v25H21zm19 0h18v25H40z" stroke="#185e18" fill="#30bd30"/>"     "     "     <path d="M59 236h17v25H59zm18 0h17v25H77zm18 0h16v25H95z" fill="#30be30" stroke="#185f18"/>"     "     "     <path d="M112 235h15v25h-15zm16 0h15v25h-15z" stroke="#185f18" fill="#30bf30"/>"     "     <path d="M144 235h15v25h-15zm16 0h14v25h-14zm15-1h14v25h-14z" fill="#30c030" stroke="#186018"/>"     "     "     <path d="M190 234h14v25h-14zm15 0h14v25h-14zm15 0h13v25h-13z" stroke="#186018" fill="#30c130"/>"     "     "     <path d="M234 234h13v25h-13zm14 0h13v25h-13z" fill="#30c230" stroke="#186118"/>"     "     <path d="M262 234h8v25h-8zm37-1h12v25h-12zm-28 25h12v25h-12z" stroke="#186118" fill="#30c330"/>"     "     "     <path d="M112 261h12v25h-12zM1 262h11v25H1zm12 0h8v25h-8z" fill="#30c430" stroke="#186218"/>"     "     "     <path d="M22 262h7v25h-7zm8 0h7v25h-7z" stroke="#186218" fill="#30c530"/>"     "     <path d="M38 262h4v25h-4zm5 0h3v25h-3zm4 0h3v25h-3z" fill="#30c630" stroke="#186318"/>"     "     "     <path d="M51 262h2v25h-2zm3 0h27v24H54zm28 0h25v24H82z" stroke="#186318" fill="#30c730"/>"     "     "     <path d="M108 262h3v24h-3zm17-1h25v24h-25z" fill="#30c830" stroke="#186418"/>"     "     <path d="M151 261h24v24h-24zm25-1h24v24h-24zm25 0h24v24h-24z" stroke="#186418" fill="#30c930"/>"     "     "     <path d="M226 260h22v24h-22zm23 0h20v24h-20zm35-2h14v24h-14z" fill="#30ca30" stroke="#186518"/>"     "     "     <path d="M312 233h22v24h-22zm23 0h20v24h-20z" stroke="#186518" fill="#30cb30"/>"     "     <path d="M338 231h23v1h-23zm18-2h22v1h-22zm0 4h20v24h-20z" fill="#30cc30" stroke="#186618"/>"     "     "     <path d="M362 231h22v1h-22zm17-2h21v1h-21zm-2 4h20v24h-20z" stroke="#186618" fill="#30cd30"/>"     "     "     <path d="M385 231h20v1h-20zm16-2h19v1h-19z" fill="#30ce30" stroke="#186718"/>"     "     <path d="M398 233h19v24h-19zm8-2h19v1h-19zm15-2h19v1h-19z" stroke="#186718" fill="#30cf30"/>"     "     "     <path d="M418 233h19v24h-19zm8-2h19v1h-19zm15-2h18v1h-18z" fill="#30d030" stroke="#186818"/>"     "     "     <path d="M438 233h19v24h-19zm8-2h17v1h-17z" stroke="#186818" fill="#30d130"/>"     "     <path d="M460 229h16v1h-16zm-2 4h18v24h-18zm6-2h15v1h-15z" fill="#30d230" stroke="#186918"/>"     "     "     <path d="M477 229h15v1h-15zm0 4h18v24h-18zm16-4h29v3h-29z" stroke="#186918" fill="#30d330"/>"     "     "     <path d="M480 231h12v1h-12zm16 2h15v24h-15z" fill="#30d430" stroke="#186a18"/>"     "     <path d="M512 233h15v24h-15zm11-4h25v3h-25zm5 4h15v24h-15z" stroke="#186a18" fill="#30d530"/>"     "     "     <path d="M544 233h4v24h-4zm26-11h15v24h-15zm16 0h13v24h-13z" fill="#30d630" stroke="#186b18"/>"     "     "     <path d="M592 220h14v1h-14zm8 2h7v24h-7z" stroke="#186b18" fill="#30d730"/>"     "     <path d="M629 199h13v24h-13zm14 0h13v24h-13zm14 0h13v24h-13z" fill="#30d830" stroke="#186c18"/>"     "     "     <path d="M671 199h12v24h-12zm13-1h12v24h-12zm13 0h12v24h-12z" stroke="#186c18" fill="#30d930"/>"     "     "     <path d="M710 200h28v23h-28zm27-109h29v15h-29z" fill="#30da30" stroke="#186d18"/>"     "     <path d="M759 87h28v3h-28zm13-86h29v15h-29zm0 16h29v14h-29z" stroke="#186d18" fill="#30db30"/>"     "     "     <path d="M772 32h29v14h-29zm0 15h29v13h-29zm0 14h29v12h-29z" fill="#30dc30" stroke="#186e18"/>"     "     "     <path d="M771 74h29v11h-29zm-34 33h29v11h-29z" stroke="#186e18" fill="#30dd30"/>"     "     <path d="M737 119h29v11h-29zm0 12h29v10h-29zm-1 11h29v10h-29z" fill="#30de30" stroke="#186f18"/>"     "     "     <path d="M736 153h29v9h-29zm0 10h29v8h-29zm0 9h29v8h-29z" stroke="#186f18" fill="#30df30"/>"     "     "     <path d="M732 174h3v24h-3zm4 7h29v7h-29z" fill="#30e030" stroke="#187018"/>"     "     <path d="M736 189h29v6h-29zm0 7h28v3h-28zm-52 27h11v24h-11z" stroke="#187018" fill="#30e130"/>"     "     "     <path d="M570 247h11v24h-11zm-258 11h26v23h-26zm-13 1h10v24h-10z" fill="#30e230" stroke="#187118"/>"     "     "     <path d="M284 283h10v24h-10zm-159 3h10v24h-10z" stroke="#187118" fill="#30e330"/>"     "     <path d="M1 288h9v24H1zm10 0h9v24h-9zm10 0h9v24h-9z" fill="#30e430" stroke="#187218"/>"     "     "     <path d="M31 288h8v24h-8zm9 0h7v24h-7zm8 0h5v24h-5z" stroke="#187218" fill="#30e530"/>"     "     "     <path d="M54 287h5v24h-5zm6 0h2v24h-2z" fill="#30e630" stroke="#187318"/>"     "     <path d="M63 287h2v24h-2zm3 0h2v24h-2zm3 0h24v23H69z" stroke="#187318" fill="#30e730"/>"     "     "     <path d="M94 287h24v23H94zm25 0h5v23h-5zm17-1h22v23h-22z" fill="#30e830" stroke="#187418"/>"     "     "     <path d="M159 286h22v23h-22zm23-1h21v23h-21z" stroke="#187418" fill="#30e930"/>"     "     <path d="M204 285h21v23h-21zm22 0h20v23h-20zm21 0h20v23h-20z" fill="#30ea30" stroke="#187518"/>"     "     "     <path d="M268 285h15v23h-15zm27-2h3v23h-3zm15-24h1v23h-1z" stroke="#187518" fill="#30eb30"/>"     "     "     <path d="M339 258h20v23h-20zm21 0h16v23h-16z" fill="#30ec30" stroke="#187618"/>"     "     <path d="M377 258h16v23h-16zm17 0h16v23h-16zm17 0h14v23h-14z" stroke="#187618" fill="#30ed30"/>"     "     "     <path d="M426 258h14v23h-14zm15 0h14v23h-14zm15 0h14v23h-14z" fill="#30ee30" stroke="#187718"/>"     "     "     <path d="M471 258h13v23h-13zm14 0h11v23h-11z" stroke="#187718" fill="#30ef30"/>"     "     <path d="M497 258h11v23h-11zm12 0h11v23h-11zm12 0h11v23h-11z" fill="#30f030" stroke="#187818"/>"     "     "     <path d="M533 258h10v23h-10zm11 0h10v23h-10zm5-10h20v9h-20z" stroke="#187818" fill="#31f030"/>"     "     "     <path d="M555 258h9v23h-9zm10 0h4v23h-4z" fill="#32f030" stroke="#197818"/>"     "     <path d="M582 247h9v23h-9zm10 0h8v23h-8zm9 0h8v23h-8z" stroke="#197818" fill="#33f030"/>"     "     "     <path d="M608 225h29v5h-29zm0 6h29v5h-29zm0 6h29v5h-29z" fill="#34f030" stroke="#1a7818"/>"     "     "     <path d="M608 243h27v3h-27zm2 4h7v23h-7z" stroke="#1a7818" fill="#35f030"/>"     "     <path d="M618 247h6v23h-6zm7 0h6v23h-6zm7 0h5v23h-5z" fill="#36f030" stroke="#1b7818"/>"     "     "     <path d="M636 243h27v3h-27zm2-19h29v4h-29zm0 5h28v13h-28z" stroke="#1b7818" fill="#37f030"/>"     "     "     <path d="M638 247h5v23h-5zm6 0h5v23h-5z" fill="#38f030" stroke="#1c7818"/>"     "     <path d="M650 247h5v23h-5zm6 0h5v23h-5zm6 0h2v23h-2z" stroke="#1c7818" fill="#39f030"/>"     "     "     <path d="M664 243h18v3h-18zm3-14h16v13h-16zm1-5h15v4h-15z" fill="#3af030" stroke="#1d7818"/>"     "     "     <path d="M665 247h2v23h-2zm3 0h2v23h-2z" stroke="#1d7818" fill="#3bf030"/>"     "     <path d="M671 247h1v23h-1zm2 0h1v23h-1zm2 0h7v22h-7z" fill="#3cf030" stroke="#1e7818"/>"     "     "     <path d="M696 223h13v22h-13zm14 1h28v22h-28zm-14 22h12v22h-12z" stroke="#1e7818" fill="#3df030"/>"     "     "     <path d="M683 248h10v22h-10zm-8 22h7v22h-7z" fill="#3ef030" stroke="#1f7818"/>"     "     <path d="M570 272h28v22h-28zm29-1h27v22h-27zm28 0h26v22h-26z" stroke="#1f7818" fill="#3ff030"/>"     "     "     <path d="M654 271h20v22h-20zm-342 11h28v21h-28zm-13 2h6v22h-6z" fill="#40f030" stroke="#207818"/>"     "     "     <path d="M306 284h5v22h-5zm35-2h26v22h-26z" stroke="#207818" fill="#41f030"/>"     "     <path d="M312 304h26v22h-26zm-176 6h25v22h-25zM1 313h25v22H1z" fill="#42f030" stroke="#217818"/>"     "     "     <path d="M27 313h25v22H27zm26 0h24v22H53zm16-2h13v1H69z" stroke="#217818" fill="#43f030"/>"     "     "     <path d="M78 313h23v22H78zm5-2h12v1H83z" fill="#44f030" stroke="#227818"/>"     "     <path d="M96 311h12v1H96zm6 2h23v22h-23zm7-2h12v1h-12z" stroke="#227818" fill="#45f030"/>"     "     "     <path d="M122 311h12v1h-12zm4 2h5v22h-5zm6 0h3v22h-3z" fill="#46f030" stroke="#237818"/>"     "     "     <path d="M162 310h22v22h-22zm23-1h22v22h-22z" stroke="#237818" fill="#47f030"/>"     "     <path d="M208 309h22v22h-22zm23 0h22v22h-22zm23 0h22v22h-22z" fill="#48f030" stroke="#247818"/>"     "     "     <path d="M277 309h21v22h-21zm18-2h12v1h-12zm4 2h5v22h-5z" stroke="#247818" fill="#49f030"/>"     "     "     <path d="M305 309h4v22h-4zm3-2h3v1h-3z" fill="#4af030" stroke="#257818"/>"     "     <path d="M310 309h1v22h-1zm29-5h1v22h-1zm29-22h20v22h-20z" stroke="#257818" fill="#4bf030"/>"     "     "     <path d="M389 282h20v22h-20zm21 0h20v22h-20zm21 0h20v22h-20z" fill="#4cf030" stroke="#267818"/>"     "     "     <path d="M452 282h19v22h-19zm20 0h19v22h-19z" stroke="#267818" fill="#4df030"/>"     "     <path d="M492 282h18v22h-18zm19 0h18v22h-18zm19 0h17v22h-17z" fill="#4ef030" stroke="#277818"/>"     "     "     <path d="M548 282h15v22h-15zm16 0h3v22h-3zm4 0h1v21h-1z" stroke="#277818" fill="#4ff030"/>"     "     "     <path d="M694 248h1v21h-1zm15-1h28v21h-28z" fill="#50f030" stroke="#287818"/>"     "     <path d="M738 247h28v21h-28zm28-105h28v20h-28zm22-56h28v19h-28z" stroke="#287818" fill="#51f030"/>"     "     "     <path d="M767 91h14v22h-14zm15 0h2v22h-2zm3 0h2v22h-2z" fill="#52f030" stroke="#297818"/>"     "     "     <path d="M802 1h28v18h-28zm0 19h28v18h-28z" stroke="#297818" fill="#53f030"/>"     "     <path d="M802 39h28v17h-28zm0 18h28v17h-28zm-1 18h28v10h-28z" fill="#54f030" stroke="#2a7818"/>"     "     "     <path d="M788 106h28v17h-28zm-21 8h20v21h-20zm21 10h28v16h-28z" stroke="#2a7818" fill="#55f030"/>"     "     "     <path d="M767 136h20v5h-20zm-1 27h28v16h-28z" fill="#56f030" stroke="#2b7818"/>"     "     <path d="M766 180h28v13h-28zm0 14h28v12h-28zm-27 6h14v22h-14z" stroke="#2b7818" fill="#57f030"/>"     "     "     <path d="M754 200h11v21h-11zm12 7h28v11h-28zm0 12h28v11h-28z" fill="#58f030" stroke="#2c7818"/>"     "     "     <path d="M739 223h26v21h-26zm27 8h28v9h-28z" stroke="#2c7818" fill="#59f030"/>"     "     <path d="M766 241h28v5h-28zm-27 4h11v1h-11zm12 0h11v1h-11z" fill="#5af030" stroke="#2d7818"/>"     "     "     <path d="M763 245h2v1h-2zm4 2h14v22h-14zm-71 22h27v21h-27z" stroke="#2d7818" fill="#5bf030"/>"     "     "     <path d="M683 271h12v21h-12zm41-2h27v21h-27z" fill="#5cf030" stroke="#2e7818"/>"     "     <path d="M752 269h14v21h-14zm15 1h27v20h-27zm15-23h28v8h-28z" stroke="#2e7818" fill="#5df030"/>"     "     "     <path d="M795 141h28v8h-28zm22-55h28v8h-28zm14-85h28v8h-28z" fill="#5ef030" stroke="#2f7818"/>"     "     "     <path d="M831 10h28v8h-28zm0 9h28v7h-28z" stroke="#2f7818" fill="#5ff030"/>"     "     <path d="M831 27h28v7h-28zm0 8h28v5h-28zm0 6h28v5h-28z" fill="#60f030" stroke="#307818"/>"     "     "     <path d="M831 47h28v5h-28zm0 6h27v20h-27zm0 21h27v11h-27z" stroke="#307818" fill="#61f030"/>"     "     "     <path d="M817 95h27v18h-27zm0 19h27v18h-27z" fill="#62f030" stroke="#317818"/>"     "     <path d="M817 133h27v7h-27zm-22 17h27v18h-27zm0 19h27v17h-27z" stroke="#317818" fill="#63f030"/>"     "     "     <path d="M795 187h27v16h-27zm0 17h27v16h-27zm0 17h27v15h-27z" fill="#64f030" stroke="#327818"/>"     "     "     <path d="M795 237h27v9h-27zm-13 19h27v13h-27z" stroke="#327818" fill="#65f030"/>"     "     <path d="M795 270h25v21h-25zm16-23h27v15h-27zm13-106h27v15h-27z" fill="#66f030" stroke="#337818"/>"     "     "     <path d="M846 86h27v14h-27zm14-85h27v14h-27zm0 15h27v13h-27z" stroke="#337818" fill="#67f030"/>"     "     "     <path d="M860 30h27v12h-27zm0 13h27v12h-27z" fill="#68f030" stroke="#347818"/>"     "     <path d="M859 56h27v11h-27zm0 12h27v11h-27zm0 12h26v5h-26z" stroke="#347818" fill="#69f030"/>"     "     "     <path d="M845 101h27v10h-27zm0 11h27v10h-27zm0 11h27v8h-27z" fill="#6af030" stroke="#357818"/>"     "     "     <path d="M845 132h27v8h-27zm-22 25h27v8h-27z" stroke="#357818" fill="#6bf030"/>"     "     <path d="M823 166h27v6h-27zm0 7h27v6h-27zm0 7h27v6h-27z" fill="#6cf030" stroke="#367818"/>"     "     "     <path d="M823 187h26v19h-26zm0 20h26v18h-26zm0 19h26v16h-26z" stroke="#367818" fill="#6df030"/>"     "     "     <path d="M823 243h25v3h-25zm-13 20h26v6h-26z" fill="#6ef030" stroke="#377818"/>"     "     <path d="M696 291h25v21h-25zm-128 13h23v21h-23zm2-9h26v7h-26z" stroke="#377818" fill="#6ff030"/>"     "     "     <path d="M592 303h23v21h-23zm7-9h26v7h-26zm-2 1h1v7h-1z" fill="#70f030" stroke="#387818"/>"     "     "     <path d="M616 302h22v21h-22zm10-8h26v7h-26z" stroke="#387818" fill="#71f030"/>"     "     <path d="M639 302h22v21h-22zm14-8h26v7h-26zm9 8h21v21h-21z" fill="#72f030" stroke="#397818"/>"     "     "     <path d="M680 293h15v8h-15zm4 9h11v21h-11zm38-11h21v21h-21z" stroke="#397818" fill="#73f030"/>"     "     "     <path d="M744 291h20v21h-20zm21 0h19v21h-19z" fill="#74f030" stroke="#3a7818"/>"     "     <path d="M785 291h9v21h-9zm-444 14h26v15h-26zm27 0h19v21h-19z" stroke="#3a7818" fill="#75f030"/>"     "     "     <path d="M341 321h19v21h-19zm-156 11h18v21h-18zm-49 1h18v21h-18z" fill="#76f030" stroke="#3b7818"/>"     "     "     <path d="M1 336h18v21H1zm19 0h17v21H20z" stroke="#3b7818" fill="#77f030"/>"     "     <path d="M38 336h16v21H38zm17 0h16v21H55zm17 0h16v21H72z" fill="#78f030" stroke="#3c7818"/>"     "     "     <path d="M89 336h15v21H89zm16 0h15v21h-15zm16 0h14v21h-14z" stroke="#3c7818" fill="#79f030"/>"     "     "     <path d="M155 333h15v21h-15zm16 0h13v21h-13z" fill="#7af030" stroke="#3d7818"/>"     "     <path d="M204 332h14v21h-14zm15 0h11v21h-11zm12 0h11v21h-11z" stroke="#3d7818" fill="#7bf030"/>"     "     "     <path d="M243 332h11v21h-11zm12 0h10v21h-10zm11 0h10v21h-10z" fill="#7cf030" stroke="#3e7818"/>"     "     "     <path d="M277 332h8v21h-8zm9 0h8v21h-8z" stroke="#3e7818" fill="#7df030"/>"     "     <path d="M295 332h8v21h-8zm9 0h8v21h-8zm8-5h26v4h-26z" fill="#7ef030" stroke="#3f7818"/>"     "     "     <path d="M313 332h8v21h-8zm9 0h7v21h-7zm8 0h7v21h-7z" stroke="#3f7818" fill="#7ff030"/>"     "     "     <path d="M338 332h2v21h-2zm1-5h1v4h-1z" fill="#80f030" stroke="#407818"/>"     "     <path d="M361 321h6v21h-6zm27-16h6v21h-6zm7 0h5v21h-5z" stroke="#407818" fill="#81f030"/>"     "     "     <path d="M401 305h3v21h-3zm4 0h2v21h-2zm3 0h2v21h-2z" fill="#82f030" stroke="#417818"/>"     "     "     <path d="M411 305h1v21h-1zm2 0h25v20h-25z" stroke="#417818" fill="#83f030"/>"     "     <path d="M439 305h25v20h-25zm26 0h23v20h-23zm24 0h22v20h-22z" fill="#84f030" stroke="#427818"/>"     "     "     <path d="M512 305h21v20h-21zm22 0h21v20h-21zm22 0h11v20h-11z" stroke="#427818" fill="#85f030"/>"     "     "     <path d="M795 292h25v19h-25zm0 20h26v15h-26z" fill="#86f030" stroke="#437818"/>"     "     <path d="M616 324h20v20h-20zm-24 1h20v20h-20zm-179 1h19v20h-19z" stroke="#437818" fill="#87f030"/>"     "     "     <path d="M341 343h18v20h-18zm-156 11h17v20h-17zm-49 1h16v20h-16z" fill="#88f030" stroke="#447818"/>"     "     "     <path d="M1 358h16v20H1zm17 0h16v20H18z" stroke="#447818" fill="#89f030"/>"     "     <path d="M35 358h15v20H35zm16 0h14v20H51zm15 0h13v20H66z" fill="#8af030" stroke="#457818"/>"     "     "     <path d="M80 358h12v20H80zm13 0h12v20H93zm13 0h11v20h-11z" stroke="#457818" fill="#8bf030"/>"     "     "     <path d="M118 358h10v20h-10zm11 0h6v20h-6z" fill="#8cf030" stroke="#467818"/>"     "     <path d="M153 355h10v20h-10zm11 0h9v20h-9zm10 0h9v20h-9z" stroke="#467818" fill="#8df030"/>"     "     "     <path d="M203 354h9v20h-9zm10 0h8v20h-8zm9 0h8v20h-8z" fill="#8ef030" stroke="#477818"/>"     "     "     <path d="M231 354h5v20h-5zm6 0h5v20h-5z" stroke="#477818" fill="#8ff030"/>"     "     <path d="M243 354h3v20h-3zm4 0h3v20h-3zm4 0h2v20h-2z" fill="#90f030" stroke="#487818"/>"     "     "     <path d="M254 354h2v20h-2zm3 0h1v20h-1zm2 0h25v19h-25z" stroke="#487818" fill="#91f030"/>"     "     "     <path d="M285 354h24v19h-24zm25 0h24v19h-24z" fill="#92f030" stroke="#497818"/>"     "     <path d="M335 354h5v19h-5zm25-11h23v19h-23zm8-16h26v15h-26z" stroke="#497818" fill="#93f030"/>"     "     "     <path d="M384 343h23v19h-23zm11-16h17v15h-17zm13 16h3v19h-3z" fill="#94f030" stroke="#4a7818"/>"     "     "     <path d="M433 326h23v19h-23zm24 0h22v19h-22z" stroke="#4a7818" fill="#95f030"/>"     "     <path d="M480 326h20v19h-20zm21 0h20v19h-20zm21 0h20v19h-20z" fill="#96f030" stroke="#4b7818"/>"     "     "     <path d="M543 326h19v19h-19zm20 0h19v19h-19zm20 0h8v19h-8z" stroke="#4b7818" fill="#97f030"/>"     "     "     <path d="M613 325h2v19h-2zm24-1h18v19h-18z" fill="#98f030" stroke="#4c7818"/>"     "     <path d="M656 324h16v19h-16zm17 0h15v19h-15zm16 0h15v19h-15z" stroke="#4c7818" fill="#99f030"/>"     "     "     <path d="M696 313h26v10h-26zm9 11h13v19h-13zm14 0h13v19h-13z" fill="#9af030" stroke="#4d7818"/>"     "     "     <path d="M723 313h26v10h-26zm10 11h13v19h-13z" stroke="#4d7818" fill="#9bf030"/>"     "     <path d="M747 324h13v19h-13zm3-11h26v9h-26zm11 10h11v19h-11z" fill="#9cf030" stroke="#4e7818"/>"     "     "     <path d="M773 323h11v19h-11zm4-10h17v9h-17zm8 10h7v19h-7z" stroke="#4e7818" fill="#9df030"/>"     "     "     <path d="M793 323h1v19h-1zm28-53h26v14h-26z" fill="#9ef030" stroke="#4f7818"/>"     "     <path d="M839 247h26v14h-26zm13-106h26v14h-26zm22-55h26v13h-26z" stroke="#4f7818" fill="#9ff030"/>"     "     "     <path d="M888 1h26v13h-26zm0 14h26v13h-26zm0 14h26v12h-26z" fill="#a0f030" stroke="#507818"/>"     "     "     <path d="M888 42h26v12h-26zm0 13h26v11h-26z" stroke="#507818" fill="#a1f030"/>"     "     <path d="M887 67h26v11h-26zm0 12h26v6h-26zm-13 21h26v7h-26z" fill="#a2f030" stroke="#517818"/>"     "     "     <path d="M873 108h26v6h-26zm0 7h26v4h-26zm0 5h25v17h-25z" stroke="#517818" fill="#a3f030"/>"     "     "     <path d="M873 138h21v2h-21zm-21 18h25v15h-25z" fill="#a4f030" stroke="#527818"/>"     "     <path d="M851 172h25v15h-25zm-1 16h25v12h-25zm0 13h25v12h-25z" stroke="#527818" fill="#a5f030"/>"     "     "     <path d="M850 214h25v10h-25zm0 11h25v10h-25zm0 11h25v9h-25z" fill="#a6f030" stroke="#537818"/>"     "     "     <path d="M839 262h25v7h-25zm-2 1h1v6h-1z" stroke="#537818" fill="#a7f030"/>"     "     <path d="M821 285h25v8h-25zm0 9h25v7h-25zm0 8h25v7h-25z" fill="#a8f030" stroke="#547818"/>"     "     "     <path d="M822 310h23v18h-23zm-27 18h10v19h-10zm-34 15h6v19h-6z" stroke="#547818" fill="#a9f030"/>"     "     "     <path d="M613 345h6v19h-6zm7 0h5v19h-5z" fill="#aaf030" stroke="#557818"/>"     "     <path d="M626 345h3v19h-3zm4 0h1v19h-1zm2 0h1v19h-1z" stroke="#557818" fill="#abf030"/>"     "     "     <path d="M634 345h23v18h-23zm24-1h23v18h-23zm24 0h22v18h-22z" fill="#acf030" stroke="#567818"/>"     "     "     <path d="M705 344h21v18h-21zm22 0h21v18h-21z" stroke="#567818" fill="#adf030"/>"     "     <path d="M749 344h11v18h-11zm19-1h21v18h-21zm22 0h4v18h-4z" fill="#aef030" stroke="#577818"/>"     "     "     <path d="M433 346h24v17h-24zm-73 17h19v18h-19zm-101 11h19v18h-19z" stroke="#577818" fill="#aff030"/>"     "     "     <path d="M136 376h18v18h-18zM1 379h24v17H1z" fill="#b0f030" stroke="#587818"/>"     "     <path d="M26 379h17v18H26zM1 397h17v18H1zm18 0h6v18h-6z" stroke="#587818" fill="#b1f030"/>"     "     "     <path d="M44 379h17v18H44zm18 0h16v18H62zm17 0h14v18H79z" fill="#b2f030" stroke="#597818"/>"     "     "     <path d="M94 379h14v18H94zm15 0h14v18h-14z" stroke="#597818" fill="#b3f030"/>"     "     <path d="M124 379h11v18h-11zm31-3h13v18h-13zm14 0h13v18h-13z" fill="#b4f030" stroke="#5a7818"/>"     "     "     <path d="M183 376h13v18h-13zm14-1h12v18h-12zm13 0h11v18h-11z" stroke="#5a7818" fill="#b5f030"/>"     "     "     <path d="M222 375h11v18h-11zm12 0h10v18h-10z" fill="#b6f030" stroke="#5b7818"/>"     "     <path d="M245 375h10v18h-10zm11 0h2v18h-2zm23-1h10v18h-10z" stroke="#5b7818" fill="#b7f030"/>"     "     "     <path d="M290 374h9v18h-9zm10 0h8v18h-8zm9 0h8v18h-8z" fill="#b8f030" stroke="#5c7818"/>"     "     "     <path d="M318 374h7v18h-7zm8 0h7v18h-7z" stroke="#5c7818" fill="#b9f030"/>"     "     <path d="M334 374h7v18h-7zm7-10h17v8h-17zm1 9h7v18h-7z" fill="#baf030" stroke="#5d7818"/>"     "     "     <path d="M350 373h6v18h-6zm7 0h1v17h-1zm23-10h6v18h-6z" stroke="#5d7818" fill="#bbf030"/>"     "     "     <path d="M387 363h5v18h-5zm6 0h4v18h-4z" fill="#bcf030" stroke="#5e7818"/>"     "     <path d="M398 363h3v18h-3zm4 0h3v18h-3zm4 0h3v18h-3z" stroke="#5e7818" fill="#bdf030"/>"     "     "     <path d="M410 363h22v17h-22zm2-16h20v15h-20zm46-1h22v17h-22z" fill="#bef030" stroke="#5f7818"/>"     "     "     <path d="M481 346h22v17h-22zm23 0h21v17h-21z" stroke="#5f7818" fill="#bff030"/>"     "     <path d="M526 346h21v17h-21zm22 0h21v17h-21zm22 0h20v17h-20z" fill="#c0f030" stroke="#607818"/>"     "     "     <path d="M591 346h19v17h-19zm20 0h1v17h-1zm-178 18h25v7h-25z" stroke="#607818" fill="#c1f030"/>"     "     "     <path d="M459 364h22v16h-22zm-26 8h19v17h-19z" fill="#c2f030" stroke="#617818"/>"     "     <path d="M359 382h19v17h-19zm-100 11h18v17h-18zm-62 1h18v17h-18z" stroke="#617818" fill="#c3f030"/>"     "     "     <path d="M136 395h18v17h-18zm-110 3h17v17H26zm18 0h17v17H44z" fill="#c4f030" stroke="#627818"/>"     "     "     <path d="M62 398h17v17H62zm18 0h16v17H80z" stroke="#627818" fill="#c5f030"/>"     "     <path d="M97 398h16v17H97zm17 0h16v17h-16zm17 0h4v17h-4z" fill="#c6f030" stroke="#637818"/>"     "     "     <path d="M155 395h16v17h-16zm17 0h15v17h-15zm16 0h8v17h-8z" stroke="#637818" fill="#c7f030"/>"     "     "     <path d="M216 394h14v17h-14zm15 0h14v17h-14z" fill="#c8f030" stroke="#647818"/>"     "     <path d="M246 394h12v17h-12zm32-1h14v17h-14zm15 0h14v17h-14z" stroke="#647818" fill="#c9f030"/>"     "     "     <path d="M308 393h14v17h-14zm15 0h14v17h-14zm15 0h13v17h-13z" fill="#caf030" stroke="#657818"/>"     "     "     <path d="M352 392h4v17h-4zm5-1h1v16h-1z" stroke="#657818" fill="#cbf030"/>"     "     <path d="M379 382h13v17h-13zm14 0h12v17h-12zm13 0h12v17h-12z" fill="#ccf030" stroke="#667818"/>"     "     "     <path d="M419 381h12v17h-12zm34-9h4v17h-4zm29-8h12v17h-12z" stroke="#667818" fill="#cdf030"/>"     "     "     <path d="M458 381h11v17h-11zm-26 9h9v17h-9z" fill="#cef030" stroke="#677818"/>"     "     <path d="M359 400h9v17h-9zm-7 10h3v17h-3zm-93 1h9v17h-9z" stroke="#677818" fill="#cff030"/>"     "     "     <path d="M197 412h8v17h-8zm-61 1h8v17h-8zm9 0h8v17h-8z" fill="#d0f030" stroke="#687818"/>"     "     "     <path d="M154 413h8v17h-8zm9 0h7v17h-7z" stroke="#687818" fill="#d1f030"/>"     "     <path d="M171 413h3v17h-3zm4 0h21v16h-21zm31-1h22v16h-22z" fill="#d2f030" stroke="#697818"/>"     "     "     <path d="M229 412h22v16h-22zm23 0h5v16h-5zm17-1h20v16h-20z" stroke="#697818" fill="#d3f030"/>"     "     "     <path d="M290 411h19v16h-19zm20 0h18v16h-18z" fill="#d4f030" stroke="#6a7818"/>"     "     <path d="M329 411h18v16h-18zm19 0h3v16h-3zm8-1h2v15h-2z" stroke="#6a7818" fill="#d5f030"/>"     "     "     <path d="M369 400h17v16h-17zm18 0h16v16h-16zm17 0h15v16h-15z" fill="#d6f030" stroke="#6b7818"/>"     "     "     <path d="M420 399h11v16h-11zm22-9h15v16h-15z" stroke="#6b7818" fill="#d7f030"/>"     "     <path d="M1 416h25v7H1zm26 0h24v15H27zm-26 8h15v16H1z" fill="#d8f030" stroke="#6c7818"/>"     "     "     <path d="M17 424h9v16h-9zm35-8h14v16H52zm-25 16h14v16H27z" stroke="#6c7818" fill="#d9f030"/>"     "     "     <path d="M1 441h13v16H1zm14 0h11v16H15z" fill="#daf030" stroke="#6d7818"/>"     "     <path d="M42 432h9v16h-9zm25-16h13v16H67zm14 0h13v16H81z" stroke="#6d7818" fill="#dbf030"/>"     "     "     <path d="M95 416h12v16H95zm13 0h12v16h-12zm13 0h11v16h-11z" fill="#dcf030" stroke="#6e7818"/>"     "     "     <path d="M133 416h2v15h-2zm337-35h11v16h-11z" stroke="#6e7818" fill="#ddf030"/>"     "     <path d="M495 364h10v16h-10zm11 0h10v16h-10zm11 0h10v16h-10z" fill="#def030" stroke="#6f7818"/>"     "     "     <path d="M528 364h7v16h-7zm8 0h7v16h-7zm8 0h5v16h-5z" stroke="#6f7818" fill="#dff030"/>"     "     "     <path d="M550 364h23v15h-23zm24 0h23v15h-23z" fill="#e0f030" stroke="#707818"/>"     "     <path d="M598 364h14v15h-14zm208-36h15v15h-15zm16 1h25v6h-25z" stroke="#707818" fill="#e1f030"/>"     "     "     <path d="M847 285h25v6h-25zm19-39h25v6h-25zm13-105h25v5h-25z" fill="#e2f030" stroke="#717818"/>"     "     "     <path d="M901 86h25v3h-25zm14-85h24v14h-24z" stroke="#717818" fill="#e3f030"/>"     "     <path d="M915 16h24v14h-24zm0 15h24v14h-24zm0 15h24v14h-24z" fill="#e4f030" stroke="#727818"/>"     "     "     <path d="M915 61h24v12h-24zm-1 13h24v10h-24zm-13 16h24v12h-24z" stroke="#727818" fill="#e5f030"/>"     "     "     <path d="M901 103h24v10h-24zm-1 11h24v10h-24z" fill="#e6f030" stroke="#737818"/>"     "     <path d="M899 125h24v10h-24zm0 11h24v4h-24zm-4 2h3v2h-3z" stroke="#737818" fill="#e7f030"/>"     "     "     <path d="M879 147h24v10h-24zm-1 11h24v9h-24zm0 10h24v8h-24z" fill="#e8f030" stroke="#747818"/>"     "     "     <path d="M877 177h24v8h-24zm0 9h24v8h-24z" stroke="#747818" fill="#e9f030"/>"     "     <path d="M876 195h24v8h-24zm0 9h24v8h-24zm0 9h24v7h-24z" fill="#eaf030" stroke="#757818"/>"     "     "     <path d="M876 221h24v7h-24zm0 8h24v7h-24zm0 8h24v6h-24z" stroke="#757818" fill="#ebf030"/>"     "     "     <path d="M866 253h24v6h-24zm0 7h24v6h-24z" fill="#ecf030" stroke="#767818"/>"     "     <path d="M865 267h24v5h-24zm-17 3h16v14h-16zm17 3h24v3h-24z" stroke="#767818" fill="#edf030"/>"     "     "     <path d="M865 277h23v7h-23zm11-33h10v1h-10zm11 0h7v1h-7z" fill="#eef030" stroke="#777818"/>"     "     "     <path d="M847 292h23v14h-23zm0 15h23v14h-23z" stroke="#777818" fill="#eff030"/>"     "     <path d="M846 322h23v5h-23zm2 6h22v15h-22zm22-6h23v5h-23z" fill="#f0f030" stroke="#787818"/>"     "     "     <path d="M892 246h23v14h-23zm13-105h23v12h-23zm22-56h23v12h-23z" stroke="#787818" fill="#f0f031"/>"     "     "     <path d="M939 74h23v10h-23zm1-73h23v11h-23z" fill="#f0f032" stroke="#787819"/>"     "     <path d="M940 13h23v11h-23zm0 12h23v8h-23zm0 9h23v8h-23z" stroke="#787819" fill="#f0f033"/>"     "     "     <path d="M940 43h23v8h-23zm0 9h23v8h-23zm0 9h23v7h-23z" fill="#f0f034" stroke="#78781a"/>"     "     "     <path d="M940 69h23v4h-23zm-14 29h23v7h-23z" stroke="#78781a" fill="#f0f035"/>"     "     <path d="M926 106h23v3h-23zm0 4h23v3h-23zm-1 4h22v15h-22z" fill="#f0f036" stroke="#78781b"/>"     "     "     <path d="M924 130h22v10h-22zm-20 24h22v14h-22zm-1 15h22v14h-22z" stroke="#78781b" fill="#f0f037"/>"     "     "     <path d="M902 184h22v14h-22zm-1 15h22v13h-22z" fill="#f0f038" stroke="#78781c"/>"     "     <path d="M901 213h22v12h-22zm0 13h22v12h-22zm0 13h22v6h-22z" stroke="#78781c" fill="#f0f039"/>"     "     "     <path d="M895 244h5v1h-5zm-4 17h22v12h-22zm-1 13h22v11h-22z" fill="#f0f03a" stroke="#78781d"/>"     "     "     <path d="M873 285h15v15h-15zm-2 7h1v15h-1z" stroke="#78781d" fill="#f0f03b"/>"     "     <path d="M889 286h22v11h-22zm0 12h22v11h-22zm-18 10h17v13h-17z" fill="#f0f03c" stroke="#78781e"/>"     "     "     <path d="M873 301h15v6h-15zm16 9h22v9h-22zm0 10h6v1h-6z" stroke="#78781e" fill="#f0f03d"/>"     "     "     <path d="M822 336h21v15h-21zm-27 12h21v15h-21z" fill="#f0f03e" stroke="#78781f"/>"     "     <path d="M806 344h15v3h-15zm-148 19h20v15h-20zm-45 2h20v15h-20z" stroke="#78781f" fill="#f0f03f"/>"     "     "     <path d="M550 380h19v15h-19zm-68 2h18v15h-18zm19-1h18v15h-18z" fill="#f0f040" stroke="#787820"/>"     "     "     <path d="M520 381h18v15h-18zm19 0h10v15h-10z" stroke="#787820" fill="#f0f041"/>"     "     <path d="M570 380h14v15h-14zm15 0h14v15h-14zm15 0h12v15h-12z" fill="#f0f042" stroke="#787821"/>"     "     "     <path d="M634 364h14v15h-14zm15 0h8v15h-8zm30-1h13v15h-13z" stroke="#787821" fill="#f0f043"/>"     "     "     <path d="M693 363h11v15h-11zm12 0h11v15h-11z" fill="#f0f044" stroke="#787822"/>"     "     <path d="M717 363h11v15h-11zm12 0h10v15h-10zm11 0h10v15h-10z" stroke="#787822" fill="#f0f045"/>"     "     "     <path d="M751 363h9v15h-9zm10 0h9v15h-9zm10-1h9v15h-9z" fill="#f0f046" stroke="#787823"/>"     "     "     <path d="M781 362h9v15h-9zm10 0h3v15h-3z" stroke="#787823" fill="#f0f047"/>"     "     <path d="M817 348h3v15h-3zm27-4h21v13h-21zm0-8h3v7h-3z" fill="#f0f048" stroke="#787824"/>"     "     "     <path d="M821 352h9v15h-9zm-26 12h7v15h-7zm-24 14h6v15h-6z" stroke="#787824" fill="#f0f049"/>"     "     "     <path d="M658 379h5v15h-5zm-45 2h5v15h-5z" fill="#f0f04a" stroke="#787825"/>"     "     <path d="M550 396h5v15h-5zm-108 11h20v14h-20zm16-8h22v7h-22z" stroke="#787825" fill="#f0f04b"/>"     "     "     <path d="M359 418h5v15h-5zm-90 10h19v14h-19zm-63 1h1v15h-1z" fill="#f0f04c" stroke="#787826"/>"     "     "     <path d="M133 432h16v14h-16zm-81 1h15v14H52z" stroke="#787826" fill="#f0f04d"/>"     "     <path d="M68 433h1v15h-1zm-16 15h1v15h-1zM1 458h15v14H1z" fill="#f0f04e" stroke="#787827"/>"     "     "     <path d="M17 458h1v15h-1zM1 473h14v14H1zm18-15h14v14H19z" stroke="#787827" fill="#f0f04f"/>"     "     "     <path d="M27 449h22v8H27zm7 9h14v14H34z" fill="#f0f050" stroke="#787828"/>"     "     <path d="M49 458h2v14h-2zm1-9h1v8h-1zm4-1h13v14H54z" stroke="#787828" fill="#f0f051"/>"     "     "     <path d="M70 433h13v14H70zm14 0h12v14H84zm13 0h11v14H97z" fill="#f0f052" stroke="#787829"/>"     "     "     <path d="M109 433h11v14h-11zm12 0h10v14h-10z" stroke="#787829" fill="#f0f053"/>"     "     <path d="M150 431h10v14h-10zm11 0h9v14h-9zm10 0h7v14h-7z" fill="#f0f054" stroke="#78782a"/>"     "     "     <path d="M179 430h7v14h-7zm8 0h6v14h-6zm7 0h6v14h-6z" stroke="#78782a" fill="#f0f055"/>"     "     "     <path d="M201 430h4v14h-4zm7-1h6v14h-6z" fill="#f0f056" stroke="#78782b"/>"     "     <path d="M215 429h5v14h-5zm6 0h5v14h-5zm6 0h3v14h-3z" stroke="#78782b" fill="#f0f057"/>"     "     "     <path d="M231 429h3v14h-3zm4 0h2v14h-2zm3 0h1v14h-1z" fill="#f0f058" stroke="#78782c"/>"     "     "     <path d="M240 429h1v14h-1zm2 0h1v14h-1z" stroke="#78782c" fill="#f0f059"/>"     "     <path d="M244 429h1v14h-1zm2 0h20v13h-20zm21 0h1v13h-1z" fill="#f0f05a" stroke="#78782d"/>"     "     "     <path d="M289 428h19v13h-19zm20 0h16v13h-16zm17 0h16v13h-16z" stroke="#78782d" fill="#f0f05b"/>"     "     "     <path d="M343 428h14v13h-14zm13-2h2v1h-2z" fill="#f0f05c" stroke="#78782e"/>"     "     <path d="M365 418h14v13h-14zm15-1h13v13h-13zm14 0h12v13h-12z" stroke="#78782e" fill="#f0f05d"/>"     "     "     <path d="M407 417h11v13h-11zm12 0h11v13h-11zm12-1h9v13h-9z" fill="#f0f05e" stroke="#78782f"/>"     "     "     <path d="M432 408h9v7h-9zm31-1h11v13h-11z" stroke="#78782f" fill="#f0f05f"/>"     "     <path d="M475 407h11v13h-11zm6-9h22v8h-22zm6 9h9v13h-9z" fill="#f0f060" stroke="#787830"/>"     "     "     <path d="M497 407h9v13h-9zm7-10h22v7h-22zm0 8h5v1h-5z" stroke="#787830" fill="#f0f061"/>"     "     "     <path d="M507 407h8v13h-8zm3-2h5v1h-5z" fill="#f0f062" stroke="#787831"/>"     "     <path d="M516 405h7v13h-7zm8 0h6v13h-6zm3-8h22v7h-22z" stroke="#787831" fill="#f0f063"/>"     "     "     <path d="M531 405h6v13h-6zm7 0h5v13h-5zm6 0h5v13h-5z" fill="#f0f064" stroke="#787832"/>"     "     "     <path d="M556 396h4v13h-4zm5 0h3v13h-3z" stroke="#787832" fill="#f0f065"/>"     "     <path d="M565 396h3v13h-3zm4 0h3v13h-3zm4 0h3v13h-3z" fill="#f0f066" stroke="#787833"/>"     "     "     <path d="M577 396h2v13h-2zm3 0h2v13h-2zm3 0h1v13h-1z" stroke="#787833" fill="#f0f067"/>"     "     "     <path d="M585 396h21v12h-21zm22 0h5v12h-5z" fill="#f0f068" stroke="#787834"/>"     "     <path d="M619 381h21v12h-21zm0 13h21v12h-21zm-6 3h4v12h-4z" stroke="#787834" fill="#f0f069"/>"     "     "     <path d="M585 409h20v12h-20zm-69 10h20v12h-20zm-85 11h19v12h-19z" fill="#f0f06a" stroke="#787835"/>"     "     "     <path d="M441 422h22v6h-22zm-83 12h18v12h-18z" stroke="#787835" fill="#f0f06b"/>"     "     <path d="M289 442h18v12h-18zm-43 1h18v12h-18zm-67 2h17v12h-17z" fill="#f0f06c" stroke="#787836"/>"     "     "     <path d="M132 447h16v12h-16zm-64 2h16v12H68zm17-1h16v12H85z" stroke="#787836" fill="#f0f06d"/>"     "     "     <path d="M102 448h16v12h-16zm17 0h12v12h-12z" fill="#f0f06e" stroke="#787837"/>"     "     <path d="M149 447h15v12h-15zm16-1h12v12h-12zm32-1h14v12h-14z" stroke="#787837" fill="#f0f06f"/>"     "     "     <path d="M212 444h14v12h-14zm15 0h12v12h-12zm13 0h4v12h-4z" fill="#f0f070" stroke="#787838"/>"     "     "     <path d="M265 443h11v12h-11zm12 0h10v12h-10z" stroke="#787838" fill="#f0f071"/>"     "     <path d="M308 442h10v12h-10zm11 0h8v12h-8zm9 0h8v12h-8z" fill="#f0f072" stroke="#787839"/>"     "     "     <path d="M337 442h7v12h-7zm8 0h7v12h-7zm8 0h3v12h-3z" stroke="#787839" fill="#f0f073"/>"     "     "     <path d="M365 432h5v1h-5zm6 0h4v1h-4z" fill="#f0f074" stroke="#78783a"/>"     "     <path d="M376 432h3v1h-3zm1 2h7v12h-7zm3-3h21v2h-21z" stroke="#78783a" fill="#f0f075"/>"     "     "     <path d="M385 434h6v12h-6zm7 0h3v12h-3zm4 0h2v12h-2z" fill="#f0f076" stroke="#78783b"/>"     "     "     <path d="M399 434h1v12h-1zm2 0h1v12h-1z" stroke="#78783b" fill="#f0f077"/>"     "     <path d="M402 431h21v2h-21zm1 3h1v12h-1zm2 0h21v11h-21z" fill="#f0f078" stroke="#78783c"/>"     "     "     <path d="M424 431h6v2h-6zm3 3h3v11h-3zm24-5h21v11h-21z" stroke="#78783c" fill="#f0f079"/>"     "     "     <path d="M464 421h22v5h-22zm9 6h20v11h-20z" fill="#f0f07a" stroke="#78783d"/>"     "     <path d="M487 421h22v5h-22zm7 6h20v11h-20zm16-6h5v5h-5z" stroke="#78783d" fill="#f0f07b"/>"     "     "     <path d="M537 419h19v11h-19zm19-9h22v5h-22zm-6 2h5v6h-5z" fill="#f0f07c" stroke="#78783e"/>"     "     "     <path d="M556 416h20v2h-20zm1 3h19v11h-19z" stroke="#78783e" fill="#f0f07d"/>"     "     <path d="M577 416h7v11h-7zm2-6h5v5h-5zm27-1h5v11h-5z" fill="#f0f07e" stroke="#78783f"/>"     "     "     <path d="M641 380h16v11h-16zm0 12h15v11h-15zm23-13h19v11h-19z" stroke="#78783f" fill="#f0f07f"/>"     "     "     <path d="M664 391h19v11h-19zm-7 4h4v11h-4z" fill="#f0f080" stroke="#787840"/>"     "     <path d="M641 404h15v11h-15zm-29 6h18v11h-18zm6-3h19v2h-19z" stroke="#787840" fill="#f0f081"/>"     "     "     <path d="M606 421h3v11h-3zm-69 10h18v11h-18zm-64 8h17v11h-17z" fill="#f0f082" stroke="#787841"/>"     "     "     <path d="M405 446h17v11h-17zm-48 1h14v11h-14z" stroke="#787841" fill="#f0f083"/>"     "     <path d="M288 455h21v10h-21zm-43 1h14v11h-14zm-33 1h13v11h-13z" fill="#f0f084" stroke="#787842"/>"     "     "     <path d="M165 459h13v11h-13zm-33 1h13v11h-13zm-47 1h13v11H85z" stroke="#787842" fill="#f0f085"/>"     "     "     <path d="M52 464h12v11H52zm-36 10h11v11H16z" fill="#f0f086" stroke="#787843"/>"     "     <path d="M28 473h11v11H28zm12 0h10v11H40zm25-10h10v11H65z" stroke="#787843" fill="#f0f087"/>"     "     "     <path d="M76 462h2v11h-2zm3 0h1v11h-1zm2 0h3v10h-3z" fill="#f0f088" stroke="#787844"/>"     "     "     <path d="M99 461h10v11H99zm11 0h9v11h-9z" stroke="#787844" fill="#f0f089"/>"     "     <path d="M120 461h11v10h-11zm26-1h18v10h-18zm33-2h21v10h-21z" fill="#f0f08a" stroke="#787845"/>"     "     "     <path d="M201 458h10v10h-10zm25-1h17v10h-17zm34-1h19v10h-19z" stroke="#787845" fill="#f0f08b"/>"     "     "     <path d="M280 456h7v10h-7zm30-1h19v10h-19z" fill="#f0f08c" stroke="#787846"/>"     "     <path d="M330 455h16v10h-16zm17 0h9v10h-9zm25-8h16v10h-16z" stroke="#787846" fill="#f0f08d"/>"     "     "     <path d="M389 447h15v10h-15zm34-1h15v10h-15zm8-3h19v2h-19z" fill="#f0f08e" stroke="#787847"/>"     "     "     <path d="M439 446h15v10h-15zm12-5h21v4h-21z" stroke="#787847" fill="#f0f08f"/>"     "     <path d="M455 446h14v10h-14zm15 0h2v10h-2zm21-7h14v10h-14z" fill="#f0f090" stroke="#787848"/>"     "     "     <path d="M506 439h14v10h-14zm9-7h20v6h-20zm6 7h14v10h-14z" stroke="#787848" fill="#f0f091"/>"     "     "     <path d="M556 431h13v10h-13zm14 0h13v10h-13z" fill="#f0f092" stroke="#787849"/>"     "     <path d="M577 428h19v2h-19zm8-6h19v5h-19zm-1 9h12v10h-12z" stroke="#787849" fill="#f0f093"/>"     "     "     <path d="M597 428h8v10h-8zm13-7h1v7h-1zm21-11h6v10h-6z" fill="#f0f094" stroke="#78784a"/>"     "     "     <path d="M638 407h2v9h-2zm24-12h1v7h-1z" stroke="#78784a" fill="#f0f095"/>"     "     <path d="M684 379h11v10h-11zm0 11h10v10h-10zm11 0h6v10h-6z" fill="#f0f096" stroke="#78784b"/>"     "     "     <path d="M696 379h22v4h-22zm0 5h22v4h-22zm6 5h6v10h-6z" stroke="#78784b" fill="#f0f097"/>"     "     "     <path d="M709 389h3v10h-3zm4 0h3v10h-3z" fill="#f0f098" stroke="#78784c"/>"     "     <path d="M717 389h3v10h-3zm2-10h22v4h-22zm0 5h22v4h-22z" stroke="#78784c" fill="#f0f099"/>"     "     "     <path d="M721 389h3v10h-3zm4 0h21v9h-21zm17-10h22v4h-22z" fill="#f0f09a" stroke="#78784d"/>"     "     "     <path d="M742 384h22v4h-22zm5 5h21v9h-21z" stroke="#78784d" fill="#f0f09b"/>"     "     <path d="M765 379h4v9h-4zm4 10h1v4h-1zm9-11h16v9h-16z" fill="#f0f09c" stroke="#78784e"/>"     "     "     <path d="M803 364h16v9h-16zm28-12h12v9h-12zm35-8h20v9h-20z" stroke="#78784e" fill="#f0f09d"/>"     "     "     <path d="M871 328h21v7h-21zm0 8h21v5h-21z" fill="#f0f09e" stroke="#78784f"/>"     "     <path d="M866 354h20v9h-20zm-35 8h20v9h-20zm13-4h21v3h-21z" stroke="#78784f" fill="#f0f09f"/>"     "     "     <path d="M820 368h10v9h-10zm-17 6h16v9h-16zm-8 6h7v9h-7z" fill="#f0f0a0" stroke="#787850"/>"     "     "     <path d="M778 388h13v9h-13zm-9 6h8v9h-8z" stroke="#787850" fill="#f0f0a1"/>"     "     <path d="M662 403h13v9h-13zm-5 4h4v9h-4zm-16 9h13v9h-13z" fill="#f0f0a2" stroke="#787851"/>"     "     "     <path d="M612 422h12v9h-12zm-2 7h1v4h-1zm-4 4h3v9h-3z" stroke="#787851" fill="#f0f0a3"/>"     "     "     <path d="M556 442h12v9h-12zm-65 8h11v9h-11z" fill="#f0f0a4" stroke="#787852"/>"     "     <path d="M423 457h20v8h-20zm-51 1h11v9h-11zm-15 1h11v9h-11z" stroke="#787852" fill="#f0f0a5"/>"     "     "     <path d="M369 459h2v8h-2zm15-1h10v9h-10zm11 0h10v9h-10z" fill="#f0f0a6" stroke="#787853"/>"     "     "     <path d="M406 458h9v9h-9zm10 0h6v9h-6z" stroke="#787853" fill="#f0f0a7"/>"     "     <path d="M444 457h8v9h-8zm-21 9h8v9h-8zm-54 2h20v8h-20z" fill="#f0f0a8" stroke="#787854"/>"     "     "     <path d="M390 468h8v9h-8zm9 0h4v9h-4zm5 0h17v8h-17z" stroke="#787854" fill="#f0f0a9"/>"     "     "     <path d="M432 466h11v8h-11zm21-9h17v8h-17z" fill="#f0f0aa" stroke="#787855"/>"     "     <path d="M471 457h17v8h-17zm2-6h16v5h-16zm-185 15h21v5h-21z" stroke="#787855" fill="#f0f0ab"/>"     "     "     <path d="M260 467h16v8h-16zm-34 1h16v8h-16zm-47 1h16v8h-16z" fill="#f0f0ac" stroke="#787856"/>"     "     "     <path d="M146 471h16v8h-16zm-26 1h16v8h-16z" stroke="#787856" fill="#f0f0ad"/>"     "     <path d="M76 474h16v8H76zm-25 2h16v8H51zm17-1h7v8h-7z" fill="#f0f0ae" stroke="#787857"/>"     "     "     <path d="M93 473h14v8H93zm15 0h11v8h-11zm29-1h8v8h-8z" stroke="#787857" fill="#f0f0af"/>"     "     "     <path d="M163 471h14v8h-14zm33-2h13v8h-13z" fill="#f0f0b0" stroke="#787858"/>"     "     <path d="M210 469h13v8h-13zm33-1h12v8h-12zm13 0h3v8h-3z" stroke="#787858" fill="#f0f0b1"/>"     "     "     <path d="M277 467h10v8h-10zm33-1h12v8h-12zm-22 6h11v8h-11z" fill="#f0f0b2" stroke="#787859"/>"     "     "     <path d="M260 476h8v8h-8zm9 0h7v8h-7z" stroke="#787859" fill="#f0f0b3"/>"     "     <path d="M277 476h6v8h-6zm7 0h3v8h-3zm-60 1h20v7h-20z" fill="#f0f0b4" stroke="#78785a"/>"     "     "     <path d="M224 469h1v3h-1zm0 4h1v3h-1zm21 4h6v8h-6z" stroke="#78785a" fill="#f0f0b5"/>"     "     "     <path d="M252 477h5v8h-5zm-74 1h20v7h-20z" fill="#f0f0b6" stroke="#78785b"/>"     "     <path d="M146 480h19v7h-19zm-26 1h4v8h-4zm-27 1h19v7H93z" stroke="#78785b" fill="#f0f0b7"/>"     "     "     <path d="M68 484h19v7H68zm20-1h3v8h-3zm-60 2h20v6H28z" fill="#f0f0b8" stroke="#78785c"/>"     "     "     <path d="M1 488h18v7H1zm19-2h7v7h-7z" stroke="#78785c" fill="#f0f0b9"/>"     "     <path d="M49 485h17v7H49zm-21 7h16v7H28zm-27 4h20v6H1z" fill="#f0f0ba" stroke="#78785d"/>"     "     "     <path d="M22 494h5v7h-5zm23-2h2v7h-2zm68-10h6v7h-6z" stroke="#78785d" fill="#f0f0bb"/>"     "     "     <path d="M125 481h16v7h-16zm17 0h2v7h-2z" fill="#f0f0bc" stroke="#78785e"/>"     "     <path d="M166 480h10v7h-10zm33 5h20v3h-20zm0-7h20v3h-20z" stroke="#78785e" fill="#f0f0bd"/>"     "     "     <path d="M199 482h19v2h-19zm20 0h3v2h-3zm1-4h2v3h-2z" fill="#f0f0be" stroke="#78785f"/>"     "     "     <path d="M177 486h16v7h-16zm-32 2h15v7h-15z" stroke="#78785f" fill="#f0f0bf"/>"     "     <path d="M125 489h14v7h-14zm15 0h4v7h-4zm-48 1h19v6H92z" fill="#f0f0c0" stroke="#787860"/>"     "     "     <path d="M67 492h12v7H67zm-19 1h12v7H48zm-20 7h18v6H28z" stroke="#787860" fill="#f0f0c1"/>"     "     "     <path d="M22 502h5v7h-5zm-21 1h17v6H1z" fill="#f0f0c2" stroke="#787861"/>"     "     <path d="M19 503h2v6h-2zm42-10h5v7h-5zm19-1h8v7h-8z" stroke="#787861" fill="#f0f0c3"/>"     "     "     <path d="M89 492h2v6h-2zm23-2h8v7h-8zm-20 7h16v6H92z" fill="#f0f0c4" stroke="#787862"/>"     "     "     <path d="M89 499h2v5h-2zm-22 1h16v6H67z" stroke="#787862" fill="#f0f0c5"/>"     "     <path d="M84 500h4v7h-4zm-37 1h16v6H47zm17 6h19v4H64z" fill="#f0f0c6" stroke="#787863"/>"     "     "     <path d="M64 501h2v5h-2zm-36 6h18v3H28zm19 1h16v4H47z" stroke="#787863" fill="#f0f0c7"/>"     "     "     <path d="M1 510h19v2H1zm20 0h6v2h-6z" fill="#f0f0c8" stroke="#787864"/>"     "     <path d="M109 497h2v5h-2zm12-7h3v6h-3zm40-2h6v7h-6z" stroke="#787864" fill="#f0f0c9"/>"     "     "     <path d="M168 488h6v7h-6zm26-2h3v6h-3zm-19 2h1v3h-1z" fill="#f0f0ca" stroke="#787865"/>"     "     "     <path d="M175 492h1v2h-1zm45-7h13v6h-13z" stroke="#787865" fill="#f0f0cb"/>"     "     <path d="M198 489h13v6h-13zm-23 6h11v6h-11zm12-1h10v6h-10z" fill="#f0f0cc" stroke="#787866"/>"     "     "     <path d="M145 496h19v4h-19zm20 0h7v6h-7zm-44 1h15v5h-15z" stroke="#787866" fill="#f0f0cd"/>"     "     "     <path d="M112 498h6v6h-6zm-20 6h16v4H92z" fill="#f0f0ce" stroke="#787867"/>"     "     <path d="M84 508h7v4h-7zm5-3h2v2h-2zm20-2h2v2h-2z" stroke="#787867" fill="#f0f0cf"/>"     "     "     <path d="M137 501h20v3h-20zm0-4h7v3h-7zm-18 6h15v5h-15z" fill="#f0f0d0" stroke="#787868"/>"     "     "     <path d="M109 506h9v5h-9zm-17 3h16v2H92z" stroke="#787868" fill="#f0f0d1"/>"     "     <path d="M158 501h5v6h-5zm-23 4h18v3h-18zm19 0h3v5h-3z" fill="#f0f0d2" stroke="#787869"/>"     "     "     <path d="M119 509h18v2h-18zm19 0h15v2h-15zm74-20h7v5h-7z" stroke="#787869" fill="#f0f0d3"/>"     "     "     <path d="M234 485h10v5h-10zm66-13h8v5h-8z" fill="#f0f0d4" stroke="#78786a"/>"     "     <path d="M323 469h11v6h-11zm0-3h18v2h-18zm-14 9h11v6h-11z" stroke="#78786a" fill="#f0f0d5"/>"     "     "     <path d="M288 481h11v6h-11zm-30 4h15v5h-15zm-13 1h12v5h-12z" fill="#f0f0d6" stroke="#78786b"/>"     "     "     <path d="M234 491h8v5h-8zm-22 4h14v5h-14z" stroke="#78786b" fill="#f0f0d7"/>"     "     <path d="M220 492h13v2h-13zm-22 4h12v5h-12zm-11 5h7v5h-7z" fill="#f0f0d8" stroke="#78786c"/>"     "     "     <path d="M173 502h11v5h-11zm-9 1h4v5h-4zm-6 5h5v4h-5z" stroke="#78786c" fill="#f0f0d9"/>"     "     "     <path d="M169 503h3v4h-3zm58-8h4v5h-4z" fill="#f0f0da" stroke="#78786d"/>"     "     <path d="M274 485h11v5h-11zm26-7h4v5h-4zm21-2h16v4h-16z" stroke="#78786d" fill="#f0f0db"/>"     "     "     <path d="M335 469h18v2h-18zm7-3h14v2h-14zm-7 6h18v2h-18z" fill="#f0f0dc" stroke="#78786e"/>"     "     "     <path d="M338 475h15v4h-15zm16 2h14v4h-14z" stroke="#78786e" fill="#f0f0dd"/>"     "     <path d="M354 469h13v4h-13zm0 5h14v2h-14zm-33 7h13v4h-13z" fill="#f0f0de" stroke="#78786f"/>"     "     "     <path d="M300 484h13v4h-13zm-14 4h11v4h-11zm-28 3h11v4h-11z" stroke="#78786f" fill="#f0f0df"/>"     "     "     <path d="M243 492h10v4h-10zm27-1h9v4h-9z" fill="#f0f0e0" stroke="#787870"/>"     "     <path d="M280 491h5v4h-5zm34-9h6v4h-6zm21-1h9v4h-9z" stroke="#787870" fill="#f0f0e1"/>"     "     "     <path d="M345 480h7v4h-7zm24-3h17v3h-17zm134-27h17v3h-17z" fill="#f0f0e2" stroke="#787871"/>"     "     "     <path d="M521 450h14v3h-14zm15-7h13v3h-13z" stroke="#787871" fill="#f0f0e3"/>"     "     <path d="M536 447h13v3h-13zm0 4h13v3h-13zm-33 3h12v3h-12z" fill="#f0f0e4" stroke="#787872"/>"     "     "     <path d="M516 454h12v3h-12zm13 0h6v3h-6zm21-11h5v3h-5z" stroke="#787872" fill="#f0f0e5"/>"     "     "     <path d="M550 447h4v3h-4zm0 4h5v2h-5z" fill="#f0f0e6" stroke="#787873"/>"     "     <path d="M569 442h11v3h-11zm12 0h11v3h-11zm12 0h9v3h-9z" stroke="#787873" fill="#f0f0e7"/>"     "     "     <path d="M597 439h8v2h-8zm28-17h9v3h-9zm10-1h5v2h-5z" fill="#f0f0e8" stroke="#787874"/>"     "     "     <path d="M635 424h5v2h-5zm-10 2h8v3h-8z" stroke="#787874" fill="#f0f0e9"/>"     "     <path d="M676 403h7v3h-7zm8-2h6v3h-6zm7 0h6v3h-6z" fill="#f0f0ea" stroke="#787875"/>"     "     "     <path d="M698 401h6v3h-6zm7-1h17v2h-17zm0 3h13v2h-13z" stroke="#787875" fill="#f0f0eb"/>"     "     "     <path d="M684 405h13v2h-13zm-8 2h7v2h-7z" fill="#f0f0ec" stroke="#787876"/>"     "     <path d="M698 405h6v2h-6zm21-2h12v2h-12zm6-4h12v2h-12z" stroke="#787876" fill="#f0f0ed"/>"     "     "     <path d="M732 402h11v2h-11zm6-3h10v2h-10zm6 3h9v2h-9z" fill="#f0f0ee" stroke="#787877"/>"     "     "     <path d="M749 399h9v2h-9zm5 3h9v2h-9z" stroke="#787877" fill="#f0f0ef"/>"     "     <text y="526" font-size="12" fill="#000" x="0"> MaxRectsBin(size: 1024x512, rule: BestLongSideFit): inserted 1536 of 1536 rectangles with w/h lengths between [2, 31], occupancy: 80.22% </text></svg>