<svg xmlns="http://www.w3.org/2000/svg" viewBox="0 0 1024 536" xmlns:v="https://vecta.io/nano"><path d="M0 0h1024v512H0z" fill="#fff" stroke="#000"/>"     <path d="M1 1h29v30H1zm0 31h29v30H1zM31 1h30v29H31z" fill="#303030" stroke="#181818"/>"     "     "     <path d="M1 63h29v29H1zM62 1h29v29H62zM1 93h28v30H1z" stroke="#181818" fill="#303130"/>"     "     "     <path d="M31 31h28v30H31zM92 1h29v29H92z" fill="#303230" stroke="#181918"/>"     "     <path d="M60 31h28v30H60zM1 124h28v30H1zM122 1h29v29h-29z" stroke="#181918" fill="#303330"/>"     "     "     <path d="M89 31h30v27H89zM1 155h27v30H1zM152 1h28v29h-28z" fill="#303430" stroke="#181a18"/>"     "     "     <path d="M120 31h30v27h-30zm61-30h30v27h-30z" stroke="#181a18" fill="#303530"/>"     "     <path d="M31 62h27v30H31zM212 1h30v27h-30zM30 93h27v29H30z" fill="#303630" stroke="#181b18"/>"     "     "     <path d="M243 1h30v26h-30zm-92 30h29v27h-29zM59 62h29v27H59z" stroke="#181b18" fill="#303730"/>"     "     "     <path d="M89 59h28v28H89zM274 1h30v26h-30z" fill="#303830" stroke="#181c18"/>"     "     <path d="M118 59h28v28h-28zm63-30h28v28h-28zm-34 30h28v27h-28z" stroke="#181c18" fill="#303930"/>"     "     "     <path d="M210 29h28v27h-28zm95-28h30v25h-30zM1 186h26v29H1z" fill="#303a30" stroke="#181d18"/>"     "     "     <path d="M30 123h26v29H30zM336 1h30v25h-30z" stroke="#181d18" fill="#303b30"/>"     "     <path d="M367 1h29v25h-29zM1 216h26v28H1zM397 1h29v25h-29z" fill="#303c30" stroke="#181e18"/>"     "     "     <path d="M1 245h26v28H1zM427 1h30v24h-30zm31 0h29v24h-29z" stroke="#181e18" fill="#303d30"/>"     "     "     <path d="M1 274h27v27H1zm0 28h27v27H1z" fill="#303e30" stroke="#181f18"/>"     "     <path d="M1 330h27v27H1zm0 28h27v26H1zm0 27h24v29H1z" stroke="#181f18" fill="#303f30"/>"     "     "     <path d="M1 415h23v30H1zM488 1h29v24h-29zM1 446h23v30H1z" fill="#304030" stroke="#182018"/>"     "     "     <path d="M1 477h23v30H1zm0 31h30v4H1z" stroke="#182018" fill="#304130"/>"     "     <path d="M518 1h29v24h-29zm30 0h29v25h-29zm30 0h28v25h-28z" fill="#304230" stroke="#182118"/>"     "     "     <path d="M607 1h28v26h-28zm29 0h28v26h-28zm29 0h27v26h-27z" stroke="#182118" fill="#304330"/>"     "     "     <path d="M693 1h26v26h-26zm27 0h27v25h-27z" fill="#304430" stroke="#182218"/>"     "     <path d="M748 1h29v23h-29zm30 0h29v23h-29zm30 0h30v22h-30z" stroke="#182218" fill="#304530"/>"     "     "     <path d="M839 1h29v22h-29zm30 0h29v22h-29zm30 0h30v21h-30z" fill="#304630" stroke="#182318"/>"     "     "     <path d="M930 1h30v20h-30zm31 0h30v19h-30z" stroke="#182318" fill="#304730"/>"     "     <path d="M992 1h30v19h-30zm31 0h1v30h-1zM176 59h7v28h-7z" fill="#304830" stroke="#182418"/>"     "     "     <path d="M184 58h25v28h-25zm26-1h26v27h-26zM59 90h29v16H59z" stroke="#182418" fill="#304930"/>"     "     "     <path d="M89 88h30v19H89zm31 0h28v21h-28z" fill="#304a30" stroke="#182518"/>"     "     <path d="M149 87h26v22h-26zm-91 20h30v15H58zm-1 16h25v27H57z" stroke="#182518" fill="#304b30"/>"     "     "     <path d="M89 108h30v14H89zm-6 15h25v27H83zm37-13h30v14h-30z" fill="#304c30" stroke="#182618"/>"     "     "     <path d="M109 125h26v25h-26zm27 0h19v26h-19z" stroke="#182618" fill="#304d30"/>"     "     <path d="M151 110h27v14h-27zm5 15h24v26h-24zm20-37h16v21h-16z" fill="#304e30" stroke="#182718"/>"     "     "     <path d="M193 87h19v27h-19zm20-2h23v28h-23zm-34 25h13v14h-13z" stroke="#182718" fill="#304f30"/>"     "     "     <path d="M181 125h18v26h-18zm12-10h29v9h-29z" fill="#305030" stroke="#182818"/>"     "     <path d="M200 125h24v27h-24zm37-68h7v30h-7zm2-28h22v27h-22z" stroke="#182818" fill="#305130"/>"     "     "     <path d="M262 28h26v26h-26zm-17 29h18v30h-18zm-8 31h26v25h-26z" fill="#305230" stroke="#182918"/>"     "     "     <path d="M264 55h22v30h-22zm0 31h22v27h-22z" stroke="#182918" fill="#305330"/>"     "     <path d="M289 28h19v26h-19zm-2 27h21v30h-21zm22-28h25v27h-25z" fill="#305430" stroke="#182a18"/>"     "     "     <path d="M309 55h22v30h-22zm-22 31h25v26h-25zm48-59h28v23h-28z" stroke="#182a18" fill="#305530"/>"     "     "     <path d="M364 27h29v22h-29zm30 0h29v22h-29z" fill="#305630" stroke="#182b18"/>"     "     <path d="M313 86h19v28h-19zm-90 28h30v10h-30zm2 11h27v24h-27z" stroke="#182b18" fill="#305730"/>"     "     "     <path d="M254 114h30v17h-30zm-1 18h30v18h-30zm79-77h16v30h-16z" fill="#305830" stroke="#182c18"/>"     "     "     <path d="M335 51h28v3h-28zm14 4h20v30h-20z" stroke="#182c18" fill="#305930"/>"     "     <path d="M333 86h25v26h-25zm37-36h22v30h-22zm23 0h21v30h-21z" fill="#305a30" stroke="#182d18"/>"     "     "     <path d="M415 50h15v30h-15zm-56 36h17v27h-17zm18-5h22v29h-22z" stroke="#182d18" fill="#305b30"/>"     "     "     <path d="M400 81h22v29h-22zm23 0h7v29h-7z" fill="#305c30" stroke="#182e18"/>"     "     <path d="M377 111h30v2h-30zm47-84h21v22h-21zm22-1h28v22h-28z" stroke="#182e18" fill="#305d30"/>"     "     "     <path d="M475 26h29v21h-29zm30 0h29v20h-29zm-74 24h17v30h-17z" fill="#305e30" stroke="#182f18"/>"     "     "     <path d="M449 49h25v26h-25zm26-1h27v24h-27z" stroke="#182f18" fill="#305f30"/>"     "     <path d="M431 81h19v29h-19zm20-5h23v28h-23zm24-3h21v30h-21z" fill="#306030" stroke="#183018"/>"     "     "     <path d="M535 27h30v19h-30zm31 0h29v20h-29zm30 1h29v19h-29z" stroke="#183018" fill="#306130"/>"     "     "     <path d="M626 28h29v19h-29zm30 0h29v19h-29z" fill="#306230" stroke="#183118"/>"     "     <path d="M686 28h30v18h-30zM497 73h7v30h-7zm-89 38h30v12h-30z" stroke="#183118" fill="#306330"/>"     "     "     <path d="M26 385h8v29h-8zm-1 30h13v30H25zm0 31h13v30H25z" fill="#306430" stroke="#183218"/>"     "     "     <path d="M25 477h15v30H25zm7 31h30v4H32z" stroke="#183218" fill="#306530"/>"     "     <path d="M748 25h30v13h-30zm31 0h28v16h-28zm29-1h30v18h-30z" fill="#306630" stroke="#183318"/>"     "     "     <path d="M839 24h29v18h-29zm30 0h28v21h-28zm-149 3h27v15h-27z" stroke="#183318" fill="#306730"/>"     "     "     <path d="M748 39h30v11h-30zm-31 4h30v9h-30z" fill="#306830" stroke="#183418"/>"     "     <path d="M779 42h28v8h-28zm29 1h30v13h-30zm31 0h29v16h-29z" stroke="#183418" fill="#306930"/>"     "     "     <path d="M869 46h28v17h-28zm-183 1h30v6h-30zm31-19h2v14h-2z" fill="#306a30" stroke="#183518"/>"     "     "     <path d="M57 151h30v3H57zm31 0h30v6H88z" stroke="#183518" fill="#306b30"/>"     "     <path d="M748 51h30v2h-30zm31 0h28v12h-28zm29 6h30v14h-30z" fill="#306c30" stroke="#183618"/>"     "     "     <path d="M839 60h29v11h-29zm30 4h29v8h-29zM717 53h30v2h-30z" stroke="#183618" fill="#306d30"/>"     "     "     <path d="M748 54h30v11h-30zm31 10h28v10h-28z" fill="#306e30" stroke="#183718"/>"     "     <path d="M808 72h30v5h-30zm31 0h29v16h-29zm30 1h29v15h-29z" stroke="#183718" fill="#306f30"/>"     "     "     <path d="M225 150h27v6h-27zm28 1h30v7h-30zM28 186h12v30H28z" fill="#307030" stroke="#183818"/>"     "     "     <path d="M28 217h17v30H28zm0 31h21v25H28z" stroke="#183818" fill="#307130"/>"     "     <path d="M29 274h20v30H29zm0 31h20v30H29zm0 31h20v29H29z" fill="#307230" stroke="#183918"/>"     "     "     <path d="M29 366h23v18H29zm6 19h17v29H35zm4 30h15v30H39z" stroke="#183918" fill="#307330"/>"     "     "     <path d="M39 446h18v30H39zm2 31h17v30H41z" fill="#307430" stroke="#183a18"/>"     "     <path d="M29 155h12v30H29zm13-2h14v28H42zm15 2h24v26H57z" stroke="#183a18" fill="#307530"/>"     "     "     <path d="M82 158h28v22H82zm-41 28h7v30h-7zm8-4h23v27H49z" fill="#307630" stroke="#183b18"/>"     "     "     <path d="M46 217h3v30h-3zm4-7h21v29H50z" stroke="#183b18" fill="#307730"/>"     "     <path d="M50 240h21v28H50zm0 29h20v29H50zm0 30h20v29H50z" fill="#307830" stroke="#183c18"/>"     "     "     <path d="M50 329h20v29H50zm3 30h19v29H53zm0 30h21v25H53z" stroke="#183c18" fill="#307930"/>"     "     "     <path d="M55 415h19v29H55zm3 30h17v29H58z" fill="#307a30" stroke="#183d18"/>"     "     <path d="M59 475h17v29H59zm4 30h29v7H63zm10-323h9v27h-9z" stroke="#183d18" fill="#307b30"/>"     "     "     <path d="M83 181h25v25H83zm-11 29h10v30H72zm11-3h25v25H83z" fill="#307c30" stroke="#183e18"/>"     "     "     <path d="M72 241h15v27H72zm-1 28h18v29H71z" stroke="#183e18" fill="#307d30"/>"     "     <path d="M71 299h18v29H71zm0 30h17v29H71zm2 30h15v29H73z" fill="#307e30" stroke="#183f18"/>"     "     "     <path d="M75 389h13v29H75zm13-156h21v28H88zm2 29h22v28H90z" stroke="#183f18" fill="#307f30"/>"     "     "     <path d="M90 291h23v27H90zM75 419h14v25H75z" fill="#308030" stroke="#184018"/>"     "     <path d="M76 445h13v29H76zm1 30h12v29H77zm13-156h27v16H90z" stroke="#184018" fill="#308130"/>"     "     "     <path d="M89 336h24v25H89zm0 26h23v26H89zm0 27h22v26H89z" fill="#308230" stroke="#184118"/>"     "     "     <path d="M90 416h21v27H90zm0 28h20v27H90z" stroke="#184118" fill="#308330"/>"     "     <path d="M90 472h20v27H90zm3 28h29v12H93zm16-319h5v30h-5z" fill="#308430" stroke="#184218"/>"     "     "     <path d="M111 158h22v22h-22zm4 23h18v28h-18zm19-29h25v24h-25z" stroke="#184218" fill="#308530"/>"     "     "     <path d="M160 152h27v22h-27zm-26 25h24v25h-24z" fill="#308630" stroke="#184318"/>"     "     <path d="M188 153h28v21h-28zm29 4h30v17h-30zm31 2h29v15h-29z" stroke="#184318" fill="#308730"/>"     "     "     <path d="M119 151h13v6h-13zm41 24h30v3h-30zm-1 4h26v23h-26z" fill="#308830" stroke="#184418"/>"     "     "     <path d="M134 203h30v13h-30zm31 0h23v14h-23z" stroke="#184418" fill="#308930"/>"     "     <path d="M191 175h30v3h-30zm-5 4h24v23h-24zm3 24h21v23h-21z" fill="#308a30" stroke="#184518"/>"     "     "     <path d="M211 179h10v30h-10zm11-4h25v24h-25zm26 0h24v24h-24z" stroke="#184518" fill="#308b30"/>"     "     "     <path d="M222 200h29v14h-29zm30 0h20v25h-20z" fill="#308c30" stroke="#184618"/>"     "     <path d="M273 175h5v30h-5zm-62 35h10v24h-10zm11 5h29v16h-29z" stroke="#184618" fill="#308d30"/>"     "     "     <path d="M222 232h29v5h-29zm30-6h22v12h-22zM898 24h3v30h-3z" fill="#308e30" stroke="#184718"/>"     "     "     <path d="M902 23h27v21h-27zm28-1h28v20h-28z" stroke="#184718" fill="#308f30"/>"     "     <path d="M902 45h27v11h-27zm28-2h29v13h-29zm-31 14h24v24h-24z" fill="#309030" stroke="#184818"/>"     "     "     <path d="M924 57h27v21h-27zm-25 25h25v10h-25zm26-3h26v15h-26z" stroke="#184818" fill="#309130"/>"     "     "     <path d="M952 57h8v30h-8zM112 389h2v30h-2z" fill="#309230" stroke="#184918"/>"     "     <path d="M961 21h30v1h-30zm-2 2h28v19h-28zm1 20h28v13h-28z" stroke="#184918" fill="#309330"/>"     "     "     <path d="M961 57h24v24h-24zm31-36h30v6h-30zm-4 7h29v14h-29z" fill="#309430" stroke="#184a18"/>"     "     "     <path d="M989 43h28v17h-28zm29-11h6v29h-6z" stroke="#184a18" fill="#309530"/>"     "     <path d="M986 61h27v20h-27zm28 1h10v29h-10zm-53 20h29v10h-29z" fill="#309630" stroke="#184b18"/>"     "     "     <path d="M991 82h22v12h-22zm23 10h10v29h-10zM111 444h3v30h-3z" stroke="#184b18" fill="#309730"/>"     "     "     <path d="M111 475h12v24h-12zm12 25h27v12h-27z" fill="#309830" stroke="#184c18"/>"     "     <path d="M505 47h30v3h-30zm-2 4h26v21h-26zm2 22h22v26h-22z" stroke="#184c18" fill="#309930"/>"     "     "     <path d="M536 47h29v3h-29zm-6 4h26v22h-26zm-2 23h26v22h-26z" fill="#309a30" stroke="#184d18"/>"     "     "     <path d="M566 48h29v5h-29zm-9 6h28v18h-28z" stroke="#184d18" fill="#309b30"/>"     "     <path d="M596 48h29v11h-29zm30 0h29v13h-29zm30 0h29v15h-29z" fill="#309c30" stroke="#184e18"/>"     "     "     <path d="M686 54h29v10h-29zm30 2h29v8h-29zm-130-2h9v24h-9z" stroke="#184e18" fill="#309d30"/>"     "     "     <path d="M596 60h28v18h-28zm29 2h28v17h-28z" fill="#309e30" stroke="#184f18"/>"     "     <path d="M654 64h28v16h-28zm29 1h27v16h-27zm28 0h27v18h-27z" stroke="#184f18" fill="#309f30"/>"     "     "     <path d="M739 66h27v18h-27zm28 0h11v18h-11zm12 9h28v9h-28z" fill="#30a030" stroke="#185018"/>"     "     "     <path d="M808 78h29v7h-29zm-251-5h28v8h-28z" stroke="#185018" fill="#30a130"/>"     "     <path d="M555 82h27v14h-27zm31-3h29v4h-29zm-3 5h28v13h-28z" fill="#30a230" stroke="#185118"/>"     "     "     <path d="M528 97h29v4h-29zm30 0h24v6h-24zm25 1h28v5h-28z" stroke="#185118" fill="#30a330"/>"     "     "     <path d="M475 104h29v3h-29zm30-4h22v15h-22z" fill="#30a430" stroke="#185218"/>"     "     <path d="M528 102h29v11h-29zm30 2h29v11h-29zm30 0h24v14h-24z" stroke="#185218" fill="#30a530"/>"     "     "     <path d="M528 114h29v5h-29zm30 2h29v6h-29zm-107-11h23v8h-23z" fill="#30a630" stroke="#185318"/>"     "     "     <path d="M475 108h29v2h-29zm0 3h28v8h-28z" stroke="#185318" fill="#30a730"/>"     "     <path d="M504 116h23v10h-23zm24 4h28v8h-28zm29 3h28v7h-28z" fill="#30a830" stroke="#185418"/>"     "     "     <path d="M109 212h24v19h-24zm1 20h21v26h-21zm3 27h18v28h-18z" stroke="#185418" fill="#30a930"/>"     "     "     <path d="M114 288h18v28h-18zm20-71h27v15h-27z" fill="#30aa30" stroke="#185518"/>"     "     <path d="M162 218h26v16h-26zm-30 15h22v25h-22zm0 26h22v24h-22z" stroke="#185518" fill="#30ab30"/>"     "     "     <path d="M133 284h19v27h-19zm-18-74h18v1h-18zm40 25h25v22h-25z" fill="#30ac30" stroke="#185618"/>"     "     "     <path d="M155 258h25v22h-25zm26-23h7v30h-7z" stroke="#185618" fill="#30ad30"/>"     "     <path d="M189 227h21v25h-21zm0 26h25v12h-25zm-8 13h27v17h-27z" fill="#30ae30" stroke="#185718"/>"     "     "     <path d="M211 238h26v14h-26zm4 15h22v17h-22zm23-15h13v28h-13z" stroke="#185718" fill="#30af30"/>"     "     "     <path d="M252 239h22v24h-22zm-43 32h27v13h-27z" fill="#30b030" stroke="#185818"/>"     "     <path d="M118 317h19v21h-19zm-4 22h24v22h-24zm-1 23h19v26h-19z" stroke="#185818" fill="#30b130"/>"     "     "     <path d="M115 389h17v27h-17zm23-77h16v26h-16zm1 27h16v28h-16z" fill="#30b230" stroke="#185918"/>"     "     "     <path d="M133 362h5v30h-5zm6 6h18v27h-18z" stroke="#185918" fill="#30b330"/>"     "     <path d="M133 396h25v20h-25zm22-115h25v7h-25zm-2 8h25v22h-25z" fill="#30b430" stroke="#185a18"/>"     "     "     <path d="M155 312h19v26h-19zm1 27h16v28h-16zm2 29h14v27h-14z" stroke="#185a18" fill="#30b530"/>"     "     "     <path d="M159 396h14v23h-14zm22-112h27v11h-27z" fill="#30b630" stroke="#185b18"/>"     "     <path d="M179 296h27v20h-27zm-4 21h25v21h-25zm-2 22h24v23h-24z" stroke="#185b18" fill="#30b730"/>"     "     "     <path d="M173 363h19v27h-19zm1 28h18v27h-18zm35-106h27v11h-27z" fill="#30b830" stroke="#185c18"/>"     "     "     <path d="M207 297h26v19h-26zm-6 20h25v21h-25z" stroke="#185c18" fill="#30b930"/>"     "     <path d="M198 339h22v23h-22zm-5 24h19v27h-19zm0 28h19v27h-19z" fill="#30ba30" stroke="#185d18"/>"     "     "     <path d="M213 363h8v29h-8zm0 30h8v28h-8zm-98 24h28v2h-28z" stroke="#185d18" fill="#30bb30"/>"     "     "     <path d="M112 420h22v23h-22zm3 24h19v27h-19z" fill="#30bc30" stroke="#185e18"/>"     "     <path d="M124 472h17v27h-17zm11-52h11v29h-11zm12-3h11v29h-11z" stroke="#185e18" fill="#30bd30"/>"     "     "     <path d="M159 420h18v26h-18zm19-1h21v25h-21zm22 0h12v25h-12z" fill="#30be30" stroke="#185f18"/>"     "     "     <path d="M135 450h18v21h-18zm7 22h13v27h-13z" stroke="#185f18" fill="#30bf30"/>"     "     <path d="M151 500h27v12h-27zm3-53h20v24h-20zm2 25h15v27h-15z" fill="#30c030" stroke="#186018"/>"     "     "     <path d="M172 472h7v27h-7zm7 28h26v12h-26zm-4-53h12v24h-12z" stroke="#186018" fill="#30c130"/>"     "     "     <path d="M180 472h15v27h-15zm8-27h18v26h-18z" fill="#30c230" stroke="#186118"/>"     "     <path d="M196 472h14v27h-14zm10 28h26v12h-26zm1-55h10v26h-10z" stroke="#186118" fill="#30c330"/>"     "     "     <path d="M211 472h9v27h-9zm2-50h20v22h-20zm5 23h15v26h-15z" fill="#30c430" stroke="#186218"/>"     "     "     <path d="M221 472h8v27h-8zm9 0h5v27h-5z" stroke="#186218" fill="#30c530"/>"     "     <path d="M233 500h25v12h-25zm-12-161h5v23h-5zm6-22h7v29h-7z" fill="#30c630" stroke="#186318"/>"     "     "     <path d="M222 363h5v30h-5zm0 31h8v27h-8zm366-275h26v5h-26z" stroke="#186318" fill="#30c730"/>"     "     "     <path d="M586 125h28v7h-28zm-299-12h25v5h-25z" fill="#30c830" stroke="#186418"/>"     "     <path d="M285 119h27v13h-27zm-1 14h20v25h-20zm-6 26h26v15h-26z" stroke="#186418" fill="#30c930"/>"     "     "     <path d="M279 175h20v25h-20zm34-60h23v19h-23zm24-2h21v21h-21z" fill="#30ca30" stroke="#186518"/>"     "     "     <path d="M359 114h25v20h-25zm26 0h22v22h-22z" stroke="#186518" fill="#30cb30"/>"     "     <path d="M408 124h28v11h-28zm-103 9h7v29h-7zm8 2h23v22h-23z" fill="#30cc30" stroke="#186618"/>"     "     "     <path d="M337 135h27v18h-27zm28 0h19v24h-19zm20 2h22v22h-22z" stroke="#186618" fill="#30cd30"/>"     "     "     <path d="M408 136h23v22h-23zm-71 18h27v8h-27z" fill="#30ce30" stroke="#186718"/>"     "     <path d="M313 158h23v12h-23zm24 5h27v8h-27zm28-3h28v11h-28z" stroke="#186718" fill="#30cf30"/>"     "     "     <path d="M300 175h10v28h-10zm11-4h25v19h-25zm26 1h26v18h-26z" fill="#30d030" stroke="#186818"/>"     "     "     <path d="M364 172h25v19h-25zm-53 19h27v15h-27z" stroke="#186818" fill="#30d130"/>"     "     <path d="M339 191h24v15h-24zm25 1h25v15h-25zm26-20h4v30h-4z" fill="#30d230" stroke="#186918"/>"     "     "     <path d="M395 160h16v28h-16zm17-1h19v25h-19zm20-23h6v29h-6z" stroke="#186918" fill="#30d330"/>"     "     "     <path d="M439 111h11v29h-11zm12 3h23v21h-23z" fill="#30d430" stroke="#186a18"/>"     "     <path d="M475 120h28v8h-28zm-36 21h11v24h-11zm12-5h16v28h-16z" stroke="#186a18" fill="#30d530"/>"     "     "     <path d="M432 166h19v21h-19zm20-1h15v23h-15zm16-29h11v29h-11z" fill="#30d630" stroke="#186b18"/>"     "     "     <path d="M475 129h27v6h-27zm5 7h22v22h-22z" stroke="#186b18" fill="#30d730"/>"     "     <path d="M468 166h14v23h-14zm15-7h16v28h-16zm17 0h2v28h-2z" fill="#30d830" stroke="#186c18"/>"     "     "     <path d="M395 189h16v13h-16zm17-4h19v17h-19zm20 3h19v15h-19z" stroke="#186c18" fill="#30d930"/>"     "     "     <path d="M390 203h28v5h-28zm62-14h15v20h-15z" fill="#30da30" stroke="#186d18"/>"     "     <path d="M468 190h16v20h-16zm17-2h17v22h-17zm18-59h4v29h-4z" stroke="#186d18" fill="#30db30"/>"     "     "     <path d="M508 127h19v24h-19zm20 2h22v22h-22zm23 2h23v21h-23z" fill="#30dc30" stroke="#186e18"/>"     "     "     <path d="M575 131h10v28h-10zm11 2h21v23h-21z" stroke="#186e18" fill="#30dd30"/>"     "     <path d="M508 152h27v7h-27zm-5 8h20v24h-20zm0 25h20v24h-20z" fill="#30de30" stroke="#186f18"/>"     "     "     <path d="M524 160h12v28h-12zm13-8h13v28h-13zm14 1h23v20h-23z" stroke="#186f18" fill="#30df30"/>"     "     "     <path d="M524 189h16v21h-16zm27-15h26v9h-26z" fill="#30e030" stroke="#187018"/>"     "     <path d="M541 181h9v26h-9zm10 3h20v23h-20zm-10 24h28v5h-28z" stroke="#187018" fill="#30e130"/>"     "     "     <path d="M608 133h7v24h-7zm-36 51h5v23h-5zm-293 17h20v9h-20z" fill="#30e230" stroke="#187118"/>"     "     "     <path d="M273 211h26v14h-26zm2 15h20v24h-20z" stroke="#187118" fill="#30e330"/>"     "     <path d="M300 204h10v21h-10zm11 3h24v19h-24zm25 0h23v19h-23z" fill="#30e430" stroke="#187218"/>"     "     "     <path d="M296 226h14v25h-14zm15 1h20v23h-20zm21 0h22v21h-22z" stroke="#187218" fill="#30e530"/>"     "     "     <path d="M360 208h25v17h-25zm26 1h26v15h-26z" fill="#30e630" stroke="#187318"/>"     "     <path d="M275 251h20v19h-20zm21 1h15v25h-15zm16-1h18v25h-18z" stroke="#187318" fill="#30e730"/>"     "     "     <path d="M252 264h22v8h-22zm23 7h20v6h-20zm-38 2h20v23h-20z" fill="#30e830" stroke="#187418"/>"     "     "     <path d="M258 273h16v25h-16zm-24 24h23v19h-23z" stroke="#187418" fill="#30e930"/>"     "     <path d="M235 317h17v26h-17zm40-39h22v20h-22zm-17 21h24v17h-24z" fill="#30ea30" stroke="#187518"/>"     "     "     <path d="M253 317h18v25h-18zm19 0h14v25h-14zm11-18h17v17h-17z" stroke="#187518" fill="#30eb30"/>"     "     "     <path d="M287 317h17v25h-17zm11-39h21v20h-21z" fill="#30ec30" stroke="#187618"/>"     "     <path d="M301 299h18v17h-18zm4 18h14v26h-14zm15-40h10v28h-10z" stroke="#187618" fill="#30ed30"/>"     "     "     <path d="M320 306h10v28h-10zm11-55h5v29h-5zm6-2h17v25h-17z" fill="#30ee30" stroke="#187718"/>"     "     "     <path d="M331 281h5v28h-5zm6-6h16v26h-16z" stroke="#187718" fill="#30ef30"/>"     "     <path d="M355 227h4v28h-4zm5-1h22v21h-22zm-29 84h7v24h-7z" fill="#30f030" stroke="#187818"/>"     "     "     <path d="M339 302h15v26h-15zm21-54h26v11h-26zm-5 12h26v14h-26z" stroke="#187818" fill="#31f030"/>"     "     "     <path d="M354 275h16v26h-16zm1 27h14v26h-14z" fill="#32f030" stroke="#197818"/>"     "     <path d="M371 275h10v28h-10zm-1 29h13v24h-13zm-31 25h28v5h-28z" stroke="#197818" fill="#33f030"/>"     "     "     <path d="M320 335h27v10h-27zm62-75h7v28h-7zm-34 75h21v15h-21z" fill="#34f030" stroke="#1a7818"/>"     "     "     <path d="M238 267h12v5h-12zm132 62h18v22h-18z" stroke="#1a7818" fill="#35f030"/>"     "     <path d="M253 343h28v1h-28zm130-117h8v21h-8zm9-1h20v22h-20z" fill="#36f030" stroke="#1b7818"/>"     "     "     <path d="M387 248h26v11h-26zm3 12h19v24h-19zm23-51h10v28h-10z" stroke="#1b7818" fill="#37f030"/>"     "     "     <path d="M424 203h7v28h-7zm8 1h19v22h-19z" fill="#38f030" stroke="#1c7818"/>"     "     <path d="M452 210h15v21h-15zm16 1h21v20h-21zm22 0h13v23h-13z" stroke="#1c7818" fill="#39f030"/>"     "     "     <path d="M504 210h19v22h-19zm20 1h16v23h-16zm17 3h23v18h-23z" fill="#3af030" stroke="#1d7818"/>"     "     "     <path d="M432 227h19v7h-19zm20 5h28v2h-28z" stroke="#1d7818" fill="#3bf030"/>"     "     <path d="M410 260h4v26h-4zm165-100h16v13h-16zm3 14h12v28h-12z" fill="#3cf030" stroke="#1e7818"/>"     "     "     <path d="M586 157h21v2h-21zm6 3h18v16h-18zm-1 17h18v24h-18z" stroke="#1e7818" fill="#3df030"/>"     "     "     <path d="M211 235h10v2h-10zM30 153h11v1H30z" fill="#3ef030" stroke="#1f7818"/>"     "     <path d="M305 163h5v11h-5zm132-39h1v11h-1zM83 233h4v7h-4z" stroke="#1f7818" fill="#3ff030"/>"     "     "     <path d="M610 177h7v27h-7zm1-19h11v18h-11zm7 19h4v27h-4z" fill="#40f030" stroke="#207818"/>"     "     "     <path d="M623 80h28v1h-28zm0 2h28v3h-28z" stroke="#207818" fill="#41f030"/>"     "     <path d="M612 86h24v17h-24zm1 18h24v14h-24zm2 15h26v13h-26z" fill="#42f030" stroke="#217818"/>"     "     "     <path d="M616 133h18v24h-18zm7 25h12v26h-12zm14-72h15v17h-15z" stroke="#217818" fill="#43f030"/>"     "     "     <path d="M653 81h20v22h-20zm-15 23h24v14h-24z" fill="#44f030" stroke="#227818"/>"     "     <path d="M642 119h22v18h-22zm-7 19h22v19h-22zm1 20h20v22h-20z" stroke="#227818" fill="#45f030"/>"     "     "     <path d="M674 82h21v21h-21zm-11 22h24v14h-24zm2 15h23v18h-23z" fill="#46f030" stroke="#237818"/>"     "     "     <path d="M658 138h25v15h-25zm38-56h14v23h-14z" stroke="#237818" fill="#47f030"/>"     "     <path d="M711 84h20v21h-20zm21 1h20v21h-20zm21 0h20v22h-20z" fill="#48f030" stroke="#247818"/>"     "     "     <path d="M774 85h19v21h-19zm20 0h13v24h-13zm14 1h18v22h-18z" stroke="#247818" fill="#49f030"/>"     "     "     <path d="M827 86h11v25h-11zm12 3h20v20h-20z" fill="#4af030" stroke="#257818"/>"     "     <path d="M860 89h20v20h-20zm21 0h17v20h-17zm18 4h22v17h-22z" stroke="#257818" fill="#4bf030"/>"     "     "     <path d="M922 95h26v13h-26zm-299 90h12v20h-12zm13-4h19v20h-19z" fill="#4cf030" stroke="#267818"/>"     "     "     <path d="M688 106h24v12h-24zm1 13h21v18h-21z" stroke="#267818" fill="#4df030"/>"     "     <path d="M684 138h26v13h-26zm29-32h18v15h-18zm-2 16h15v25h-15z" fill="#4ef030" stroke="#277818"/>"     "     "     <path d="M732 107h20v15h-20zm21 1h21v15h-21zm22-1h18v19h-18z" stroke="#277818" fill="#4ff030"/>"     "     "     <path d="M727 123h18v21h-18zm19 1h21v18h-21z" fill="#50f030" stroke="#287818"/>"     "     <path d="M768 127h23v15h-23zm26-17h13v16h-13zm14-1h18v20h-18z" stroke="#287818" fill="#51f030"/>"     "     "     <path d="M792 127h15v21h-15zm16 3h19v19h-19zm19-18h12v17h-12z" fill="#52f030" stroke="#297818"/>"     "     "     <path d="M840 110h20v19h-20zm-12 20h20v19h-20z" stroke="#297818" fill="#53f030"/>"     "     <path d="M861 110h22v17h-22zm23 0h14v17h-14zm15 1h22v16h-22z" fill="#54f030" stroke="#2a7818"/>"     "     "     <path d="M922 109h21v18h-21zm-73 21h11v20h-11zm12-2h18v21h-18z" stroke="#2a7818" fill="#55f030"/>"     "     "     <path d="M880 128h21v17h-21zm22 0h23v15h-23z" fill="#56f030" stroke="#2b7818"/>"     "     <path d="M926 128h20v15h-20zm-24 16h27v1h-27zm-22 2h27v3h-27z" stroke="#2b7818" fill="#57f030"/>"     "     "     <path d="M658 154h26v7h-26zm-1 8h22v16h-22zm28-10h25v9h-25z" fill="#58f030" stroke="#2c7818"/>"     "     "     <path d="M680 162h22v16h-22zm31-14h19v14h-19z" stroke="#2c7818" fill="#59f030"/>"     "     <path d="M703 163h22v15h-22zm28-18h16v23h-16zm17-2h15v25h-15z" fill="#5af030" stroke="#2d7818"/>"     "     "     <path d="M764 143h27v10h-27zm0 11h23v14h-23zm-38 15h27v9h-27z" stroke="#2d7818" fill="#5bf030"/>"     "     "     <path d="M754 169h26v10h-26zm-97 10h27v1h-27z" fill="#5cf030" stroke="#2e7818"/>"     "     <path d="M656 181h21v17h-21zm29-2h27v3h-27zm28 0h27v6h-27z" stroke="#2e7818" fill="#5df030"/>"     "     "     <path d="M678 183h23v14h-23zm24 0h10v18h-10zm11 3h22v14h-22z" fill="#5ef030" stroke="#2f7818"/>"     "     "     <path d="M678 198h23v8h-23zm-22 1h21v10h-21z" stroke="#2f7818" fill="#5ff030"/>"     "     <path d="M636 202h19v7h-19zm225-52h27v2h-27zm-183 57h24v8h-24z" fill="#60f030" stroke="#307818"/>"     "     "     <path d="M944 109h4v18h-4zm5-14h3v29h-3zm4-7h7v28h-7z" stroke="#307818" fill="#61f030"/>"     "     "     <path d="M961 93h16v23h-16zm17 0h12v25h-12z" fill="#62f030" stroke="#317818"/>"     "     <path d="M991 95h22v14h-22zm0 15h22v11h-22zm-38 7h24v7h-24z" stroke="#317818" fill="#63f030"/>"     "     "     <path d="M949 125h27v8h-27zm-2 9h26v10h-26zm-39 12h21v5h-21z" fill="#64f030" stroke="#327818"/>"     "     "     <path d="M930 144h16v8h-16zm17 1h26v7h-26z" stroke="#327818" fill="#65f030"/>"     "     <path d="M282 343h22v5h-22zm-23 2h22v4h-22zm282-112h24v2h-24z" fill="#66f030" stroke="#337818"/>"     "     "     <path d="M390 285h19v4h-19zm-8 5h22v13h-22zm2 14h15v24h-15z" stroke="#337818" fill="#67f030"/>"     "     "     <path d="M389 329h15v22h-15zm11-25h5v24h-5z" fill="#68f030" stroke="#347818"/>"     "     <path d="M109 123h10v1h-10zm118 224h8v15h-8zm1 16h7v27h-7z" stroke="#347818" fill="#69f030"/>"     "     "     <path d="M236 344h15v24h-15zm0 25h15v24h-15zm16-24h6v27h-6z" fill="#6af030" stroke="#357818"/>"     "     "     <path d="M259 350h19v19h-19zm-28 44h15v24h-15z" stroke="#357818" fill="#6bf030"/>"     "     <path d="M234 419h13v26h-13zm0 27h13v25h-13zm2 26h6v27h-6z" fill="#6cf030" stroke="#367818"/>"     "     "     <path d="M243 472h5v27h-5zm4-78h13v24h-13zm1 25h13v26h-13z" stroke="#367818" fill="#6df030"/>"     "     "     <path d="M248 446h13v25h-13zm1 26h5v27h-5z" fill="#6ef030" stroke="#377818"/>"     "     <path d="M252 373h16v20h-16zm3 99h3v27h-3zm6-78h14v24h-14z" stroke="#377818" fill="#6ff030"/>"     "     "     <path d="M262 419h14v25h-14zm0 26h13v25h-13zm7-75h9v23h-9z" fill="#70f030" stroke="#387818"/>"     "     "     <path d="M279 350h3v29h-3zm4-1h17v21h-17z" stroke="#387818" fill="#71f030"/>"     "     <path d="M259 472h2v28h-2zm3-1h13v25h-13zm-3 30h23v11h-23z" fill="#72f030" stroke="#397818"/>"     "     "     <path d="M262 497h20v3h-20zm14-52h3v28h-3zm0 29h6v22h-6z" stroke="#397818" fill="#73f030"/>"     "     "     <path d="M276 394h2v24h-2zm3-14h3v28h-3z" fill="#74f030" stroke="#3a7818"/>"     "     <path d="M283 371h13v24h-13zm-6 48h8v25h-8zm3 26h4v28h-4z" stroke="#3a7818" fill="#75f030"/>"     "     "     <path d="M283 474h3v28h-3zm0 29h24v9h-24zm0-107h14v22h-14z" fill="#76f030" stroke="#3b7818"/>"     "     "     <path d="M286 419h12v25h-12zm-1 26h12v24h-12z" stroke="#3b7818" fill="#77f030"/>"     "     <path d="M287 470h9v26h-9zm0 27h20v5h-20zm10-27h9v26h-9z" fill="#78f030" stroke="#3c7818"/>"     "     "     <path d="M298 445h9v24h-9zm-1-74h3v24h-3zm4-22h3v27h-3z" stroke="#3c7818" fill="#79f030"/>"     "     "     <path d="M305 344h14v23h-14zm15 2h21v17h-21z" fill="#7af030" stroke="#3d7818"/>"     "     <path d="M342 351h24v12h-24zm25 1h25v10h-25zm-47 12h26v7h-26z" stroke="#3d7818" fill="#7bf030"/>"     "     "     <path d="M307 470h1v26h-1zm1 27h20v15h-20zm-3-129h14v11h-14z" fill="#7cf030" stroke="#3e7818"/>"     "     "     <path d="M320 372h26v7h-26zm27-8h19v18h-19z" stroke="#3e7818" fill="#7df030"/>"     "     <path d="M367 363h21v16h-21zm-66 17h22v14h-22zm23 0h22v12h-22z" fill="#7ef030" stroke="#3f7818"/>"     "     "     <path d="M347 383h21v9h-21zm22-3h20v12h-20zm-45 13h27v1h-27z" stroke="#3f7818" fill="#7ff030"/>"     "     "     <path d="M352 393h27v1h-27zm-51 2h26v2h-26z" fill="#80f030" stroke="#407818"/>"     "     <path d="M298 398h16v20h-16zm1 21h9v25h-9zm16-21h12v20h-12z" stroke="#407818" fill="#81f030"/>"     "     "     <path d="M328 395h19v18h-19zm-19 24h16v21h-16zm39-24h20v17h-20z" fill="#82f030" stroke="#417818"/>"     "     "     <path d="M369 395h18v18h-18zm-90 14h3v9h-3z" stroke="#417818" fill="#83f030"/>"     "     <path d="M308 445h1v24h-1zm1 25h9v26h-9zm1-29h14v22h-14z" fill="#84f030" stroke="#427818"/>"     "     "     <path d="M310 464h19v5h-19zm9 6h8v26h-8zm9 0h3v26h-3z" stroke="#427818" fill="#85f030"/>"     "     "     <path d="M329 497h18v15h-18zm-4-56h5v22h-5z" fill="#86f030" stroke="#437818"/>"     "     <path d="M326 419h7v21h-7zm8-5h13v22h-13zm14-1h20v16h-20z" stroke="#437818" fill="#87f030"/>"     "     "     <path d="M369 414h19v17h-19zm-21 16h20v11h-20zm21 2h20v9h-20z" fill="#88f030" stroke="#447818"/>"     "     "     <path d="M348 442h26v4h-26zm-17-1h16v19h-16z" stroke="#447818" fill="#89f030"/>"     "     <path d="M348 447h23v12h-23zm-14-10h13v3h-13zm-2 24h15v21h-15z" fill="#8af030" stroke="#457818"/>"     "     "     <path d="M332 483h17v13h-17zm16-23h14v22h-14zm0 37h18v15h-18z" stroke="#457818" fill="#8bf030"/>"     "     "     <path d="M350 483h20v13h-20zm13-23h10v22h-10z" fill="#8cf030" stroke="#467818"/>"     "     <path d="M367 497h17v15h-17zm4-14h16v13h-16zm14 14h15v15h-15z" stroke="#467818" fill="#8df030"/>"     "     "     <path d="M259 370h9v2h-9zm306-156h7v18h-7zm51-135h6v6h-6z" fill="#8ef030" stroke="#477818"/>"     "     "     <path d="M889 150h18v2h-18zm-385 83h19v2h-19z" stroke="#477818" fill="#8ff030"/>"     "     <path d="M908 152h21v5h-21zm22 1h26v7h-26zm27 0h16v8h-16z" fill="#90f030" stroke="#487818"/>"     "     "     <path d="M974 134h2v27h-2zm3-9h1v27h-1zm2-6h11v24h-11z" stroke="#487818" fill="#91f030"/>"     "     "     <path d="M991 122h18v18h-18zm19 0h14v21h-14z" fill="#92f030" stroke="#497818"/>"     "     <path d="M991 141h18v3h-18zm19 3h14v21h-14zM370 81h6v4h-6z" stroke="#497818" fill="#93f030"/>"     "     "     <path d="M405 329h12v22h-12zm-12 23h24v10h-24zm-4 11h19v16h-19z" fill="#94f030" stroke="#4a7818"/>"     "     "     <path d="M390 380h18v12h-18zm-2 13h19v17h-19z" stroke="#4a7818" fill="#95f030"/>"     "     <path d="M409 363h8v26h-8zm-20 48h17v18h-17zm1 19h17v11h-17z" fill="#96f030" stroke="#4b7818"/>"     "     "     <path d="M375 442h26v4h-26zm-3 5h21v12h-21zm2 13h7v22h-7z" stroke="#4b7818" fill="#97f030"/>"     "     "     <path d="M382 460h7v22h-7zm6 23h21v13h-21z" fill="#98f030" stroke="#4c7818"/>"     "     <path d="M401 497h15v15h-15zm-11-37h5v22h-5zm323-259h22v1h-22z" stroke="#4c7818" fill="#99f030"/>"     "     "     <path d="M217 153h7v3h-7zm356 55h7v26h-7zm8-5h7v26h-7z" fill="#9af030" stroke="#4d7818"/>"     "     "     <path d="M589 203h3v26h-3zm4-1h16v18h-16z" stroke="#4d7818" fill="#9bf030"/>"     "     <path d="M610 205h12v17h-12zm13 1h12v17h-12zm13 4h23v11h-23z" fill="#9cf030" stroke="#4e7818"/>"     "     "     <path d="M660 210h17v16h-17zm18 6h24v10h-24zm-42 6h23v8h-23z" stroke="#4e7818" fill="#9df030"/>"     "     "     <path d="M703 202h9v24h-9zm10 1h17v18h-17z" fill="#9ef030" stroke="#4f7818"/>"     "     <path d="M660 227h26v6h-26zm27 0h25v6h-25zm26-5h17v11h-17z" stroke="#4f7818" fill="#9ff030"/>"     "     "     <path d="M731 203h6v26h-6zm-138 18h16v11h-16zm17 3h25v8h-25z" fill="#a0f030" stroke="#507818"/>"     "     "     <path d="M636 231h23v8h-23zm24 3h26v6h-26z" stroke="#507818" fill="#a1f030"/>"     "     <path d="M687 234h26v6h-26zm49-48h13v16h-13zm2 17h11v23h-11z" fill="#a2f030" stroke="#517818"/>"     "     "     <path d="M741 179h11v6h-11zm12 1h25v7h-25zm-3 8h14v21h-14z" stroke="#517818" fill="#a3f030"/>"     "     "     <path d="M765 188h13v21h-13zm-15 22h20v14h-20z" fill="#a4f030" stroke="#527818"/>"     "     <path d="M779 180h3v27h-3zm-65 54h17v9h-17zM557 51h8v2h-8z" stroke="#527818" fill="#a5f030"/>"     "     "     <path d="M537 181h3v7h-3zm234 29h15v16h-15zm-21 15h20v3h-20z" fill="#a6f030" stroke="#537818"/>"     "     "     <path d="M394 447h7v12h-7zm2 13h5v22h-5z" stroke="#537818" fill="#a7f030"/>"     "     <path d="M402 442h7v26h-7zm0 27h9v13h-9zm8 14h8v13h-8z" fill="#a8f030" stroke="#547818"/>"     "     "     <path d="M417 497h14v15h-14zm15-262h26v2h-26zm0 3h25v3h-25z" stroke="#547818" fill="#a9f030"/>"     "     "     <path d="M432 242h25v6h-25zm-8-10h7v19h-7z" fill="#aaf030" stroke="#557818"/>"     "     <path d="M414 238h9v21h-9zm1 22h7v26h-7zm17-11h25v2h-25z" stroke="#557818" fill="#abf030"/>"     "     "     <path d="M424 252h25v7h-25zm-1 8h17v18h-17zm18 0h11v18h-11z" fill="#acf030" stroke="#567818"/>"     "     "     <path d="M423 279h25v7h-25zm-13 8h25v6h-25z" stroke="#567818" fill="#adf030"/>"     "     <path d="M405 294h24v8h-24zm1 9h8v25h-8zm9 0h7v25h-7z" fill="#aef030" stroke="#577818"/>"     "     "     <path d="M423 303h7v25h-7zm-5 26h11v23h-11zm0 24h11v23h-11z" stroke="#577818" fill="#aff030"/>"     "     "     <path d="M430 329h3v27h-3zm29-94h21v2h-21z" fill="#b0f030" stroke="#587818"/>"     "     <path d="M458 238h22v11h-22zm23-6h8v17h-8zm9 3h13v15h-13z" stroke="#587818" fill="#b1f030"/>"     "     "     <path d="M504 236h19v13h-19zm20-1h16v14h-16zm17 1h24v10h-24z" fill="#b2f030" stroke="#597818"/>"     "     "     <path d="M458 250h25v3h-25zm83-3h24v4h-24z" stroke="#597818" fill="#b3f030"/>"     "     <path d="M566 233h6v21h-6zm7 2h8v21h-8zm9-5h10v24h-10z" fill="#b4f030" stroke="#5a7818"/>"     "     "     <path d="M593 233h18v17h-18zm19 0h23v7h-23zm0 8h24v10h-24z" stroke="#5a7818" fill="#b5f030"/>"     "     "     <path d="M637 240h22v11h-22zm23 1h24v10h-24z" fill="#b6f030" stroke="#5b7818"/>"     "     <path d="M685 241h22v10h-22zm-181 9h25v7h-25zm-54 4h24v5h-24z" stroke="#5b7818" fill="#b7f030"/>"     "     "     <path d="M453 260h18v17h-18zm255-16h24v7h-24zM418 377h13v13h-13z" fill="#b8f030" stroke="#5c7818"/>"     "     "     <path d="M430 357h5v19h-5zm163-106h18v3h-18z" stroke="#5c7818" fill="#b9f030"/>"     "     <path d="M612 252h25v3h-25zm26 0h24v6h-24zm25 0h24v6h-24z" fill="#baf030" stroke="#5d7818"/>"     "     "     <path d="M688 252h24v7h-24zm25 0h20v7h-20zm-131 3h24v2h-24z" stroke="#5d7818" fill="#bbf030"/>"     "     "     <path d="M484 251h19v6h-19zm-53 43h4v26h-4z" fill="#bcf030" stroke="#5e7818"/>"     "     <path d="M436 287h10v24h-10zm11 0h1v26h-1zm2-8h3v26h-3z" stroke="#5e7818" fill="#bdf030"/>"     "     "     <path d="M453 278h17v17h-17zm0 18h17v12h-17zm18-18h1v26h-1z" fill="#bef030" stroke="#5f7818"/>"     "     "     <path d="M449 309h22v4h-22zM42 182h6v3h-6z" stroke="#5f7818" fill="#bff030"/>"     "     <path d="M979 144h11v9h-11zm12 1h18v16h-18zm-14 9h13v10h-13z" fill="#c0f030" stroke="#607818"/>"     "     "     <path d="M991 162h18v11h-18zm19 4h14v20h-14zm-227 21h3v22h-3z" stroke="#607818" fill="#c1f030"/>"     "     "     <path d="M787 187h3v26h-3zm4 0h3v26h-3z" fill="#c2f030" stroke="#617818"/>"     "     <path d="M795 187h4v25h-4zm-12-18h16v17h-16zm5-15h14v14h-14z" stroke="#617818" fill="#c3f030"/>"     "     "     <path d="M792 149h15v4h-15zm16 1h24v8h-24zm-8 19h5v25h-5z" fill="#c4f030" stroke="#627818"/>"     "     "     <path d="M803 159h22v9h-22zm3 10h11v23h-11z" stroke="#627818" fill="#c5f030"/>"     "     <path d="M818 169h9v23h-9zm15-19h15v10h-15zm-7 11h22v7h-22z" fill="#c6f030" stroke="#637818"/>"     "     "     <path d="M828 169h15v19h-15zm21-18h11v21h-11zm12 2h15v19h-15z" stroke="#637818" fill="#c7f030"/>"     "     "     <path d="M877 153h17v17h-17zm18 0h12v21h-12z" fill="#c8f030" stroke="#647818"/>"     "     <path d="M908 158h21v12h-21zm22 3h24v8h-24zm25 1h21v9h-21z" stroke="#647818" fill="#c9f030"/>"     "     "     <path d="M977 165h13v10h-13zm14 9h18v12h-18zm-147-1h21v12h-21z" fill="#caf030" stroke="#657818"/>"     "     "     <path d="M930 170h24v8h-24zm-22 1h21v7h-21z" stroke="#657818" fill="#cbf030"/>"     "     <path d="M955 172h21v10h-21zm22 4h13v18h-13zm14 11h23v7h-23z" fill="#ccf030" stroke="#667818"/>"     "     "     <path d="M1015 187h9v20h-9zm-171-1h21v2h-21zm-16 3h24v3h-24z" stroke="#667818" fill="#cdf030"/>"     "     "     <path d="M866 173h12v16h-12zm13-2h15v16h-15z" fill="#cef030" stroke="#677818"/>"     "     <path d="M895 175h12v13h-12zm13 4h22v8h-22zm23 0h23v7h-23z" stroke="#677818" fill="#cff030"/>"     "     "     <path d="M955 183h21v11h-21zm-24 4h23v5h-23zm-23 1h22v4h-22z" fill="#d0f030" stroke="#687818"/>"     "     "     <path d="M806 193h23v1h-23zm-6 2h16v17h-16z" stroke="#687818" fill="#d1f030"/>"     "     <path d="M817 195h14v18h-14zm15-2h16v17h-16zm-37 20h21v3h-21z" fill="#d2f030" stroke="#697818"/>"     "     "     <path d="M787 214h7v15h-7zm8 3h20v12h-20zm-359 95h10v11h-10z" stroke="#697818" fill="#d3f030"/>"     "     "     <path d="M447 314h21v11h-21zm-13 10h10v23h-10z" fill="#d4f030" stroke="#6a7818"/>"     "     <path d="M445 326h13v20h-13zm14 0h9v20h-9zm10-12h3v25h-3z" stroke="#6a7818" fill="#d5f030"/>"     "     "     <path d="M445 347h23v4h-23zm-9 1h8v24h-8zm9 4h16v17h-16z" fill="#d6f030" stroke="#6b7818"/>"     "     "     <path d="M462 352h9v17h-9zm-17 18h23v5h-23z" stroke="#6b7818" fill="#d7f030"/>"     "     <path d="M472 260h3v17h-3zm4-6h7v23h-7zm-3 24h10v23h-10z" fill="#d8f030" stroke="#6c7818"/>"     "     "     <path d="M484 258h11v21h-11zm12 0h13v19h-13zm14 0h16v16h-16z" stroke="#6c7818" fill="#d9f030"/>"     "     "     <path d="M484 280h11v21h-11zm12-2h13v19h-13z" fill="#daf030" stroke="#6d7818"/>"     "     <path d="M510 275h14v18h-14zm-37 27h22v3h-22zm-1 4h22v7h-22z" stroke="#6d7818" fill="#dbf030"/>"     "     "     <path d="M473 314h13v19h-13zm14 0h11v19h-11zm-14 20h22v6h-22z" fill="#dcf030" stroke="#6e7818"/>"     "     "     <path d="M469 341h19v10h-19zm3 11h14v17h-14z" stroke="#6e7818" fill="#ddf030"/>"     "     <path d="M496 298h14v15h-14zm3 16h13v19h-13zm12-20h11v19h-11z" fill="#def030" stroke="#6f7818"/>"     "     "     <path d="M513 314h10v20h-10zm-17 20h16v10h-16zm-27 36h20v11h-20z" stroke="#6f7818" fill="#dff030"/>"     "     "     <path d="M523 294h1v19h-1zm2-19h4v25h-4z" fill="#e0f030" stroke="#707818"/>"     "     <path d="M487 352h9v17h-9zm2-7h22v6h-22zm8 7h14v17h-14z" stroke="#707818" fill="#e1f030"/>"     "     "     <path d="M490 370h19v11h-19zm22-25h3v24h-3zm1-10h11v9h-11z" fill="#e2f030" stroke="#717818"/>"     "     "     <path d="M516 345h8v23h-8zm8-31h2v20h-2z" stroke="#717818" fill="#e3f030"/>"     "     <path d="M525 335h3v25h-3zm2-77h11v16h-11zm3 17h8v23h-8z" fill="#e4f030" stroke="#727818"/>"     "     "     <path d="M530 250h10v7h-10zm11 2h22v5h-22zm-2 6h14v18h-14z" stroke="#727818" fill="#e5f030"/>"     "     "     <path d="M539 277h11v21h-11zm15-19h10v21h-10z" fill="#e6f030" stroke="#737818"/>"     "     <path d="M551 280h13v18h-13zm14-25h7v21h-7zm8 2h8v19h-8z" stroke="#737818" fill="#e7f030"/>"     "     "     <path d="M565 277h11v21h-11zm17-19h13v18h-13zm-5 19h15v16h-15z" fill="#e8f030" stroke="#747818"/>"     "     "     <path d="M596 258h11v18h-11zm-3 19h14v16h-14z" stroke="#747818" fill="#e9f030"/>"     "     <path d="M577 294h23v3h-23zm31-38h14v17h-14zm15 0h14v17h-14z" fill="#eaf030" stroke="#757818"/>"     "     "     <path d="M608 274h19v12h-19zm30-15h16v14h-16zm-10 15h19v11h-19z" stroke="#757818" fill="#ebf030"/>"     "     "     <path d="M655 259h18v12h-18zm19 0h13v17h-13z" fill="#ecf030" stroke="#767818"/>"     "     <path d="M688 260h14v16h-14zm15 0h14v17h-14zm15 0h13v17h-13z" stroke="#767818" fill="#edf030"/>"     "     "     <path d="M608 287h20v9h-20zm21-1h18v10h-18zm19-12h6v23h-6z" fill="#eef030" stroke="#777818"/>"     "     "     <path d="M655 272h18v11h-18zm0 12h19v11h-19z" stroke="#777818" fill="#eff030"/>"     "     <path d="M674 277h20v6h-20zm1 7h19v11h-19zm20-7h7v18h-7z" fill="#f0f030" stroke="#787818"/>"     "     "     <path d="M703 278h13v16h-13zm14 0h14v15h-14zm15-18h2v25h-2z" stroke="#787818" fill="#f0f031"/>"     "     "     <path d="M530 299h23v1h-23zm-5 2h16v12h-16z" fill="#f0f032" stroke="#787819"/>"     "     <path d="M527 314h11v20h-11zm2 21h8v21h-8zm126-39h23v1h-23z" stroke="#787819" fill="#f0f033"/>"     "     "     <path d="M679 296h23v3h-23zm-137 5h11v13h-11zm12-2h20v9h-20z" fill="#f0f034" stroke="#78781a"/>"     "     "     <path d="M539 315h12v18h-12zm15-6h20v7h-20z" stroke="#78781a" fill="#f0f035"/>"     "     <path d="M552 317h15v14h-15zm25-19h23v2h-23zm-2 3h14v15h-14z" fill="#f0f036" stroke="#78781b"/>"     "     "     <path d="M568 317h15v14h-15zm22-16h11v15h-11zm-6 16h16v12h-16z" stroke="#78781b" fill="#f0f037"/>"     "     "     <path d="M602 294h5v23h-5zm6 3h10v20h-10z" fill="#f0f038" stroke="#78781c"/>"     "     <path d="M619 297h12v17h-12zm13 0h12v17h-12zm-31 21h17v10h-17z" stroke="#78781c" fill="#f0f039"/>"     "     "     <path d="M619 315h19v10h-19zm26-17h22v7h-22zm0 8h20v8h-20z" fill="#f0f03a" stroke="#78781d"/>"     "     "     <path d="M639 315h20v8h-20zm-87 17h22v4h-22z" stroke="#78781d" fill="#f0f03b"/>"     "     <path d="M538 335h1v21h-1zm2-1h11v17h-11zm12 3h16v12h-16z" fill="#f0f03c" stroke="#78781e"/>"     "     "     <path d="M619 326h19v2h-19zm20-2h22v5h-22zm-38 5h22v1h-22z" stroke="#78781e" fill="#f0f03d"/>"     "     "     <path d="M849 193h3v18h-3zm4-4h8v21h-8z" fill="#f0f03e" stroke="#78781f"/>"     "     <path d="M862 189h3v21h-3zm4 1h10v19h-10zm11 0h2v23h-2z" stroke="#78781f" fill="#f0f03f"/>"     "     "     <path d="M880 188h5v24h-5zm6 0h8v21h-8zm9 1h12v16h-12z" fill="#f0f040" stroke="#787820"/>"     "     "     <path d="M908 193h16v12h-16zm17 0h15v12h-15z" stroke="#787820" fill="#f0f041"/>"     "     <path d="M941 193h13v14h-13zm14 2h14v13h-14zm15 0h14v13h-14z" fill="#f0f042" stroke="#787821"/>"     "     "     <path d="M985 195h14v14h-14zm15 0h14v14h-14zm15 13h9v20h-9z" stroke="#787821" fill="#f0f043"/>"     "     "     <path d="M895 206h22v4h-22zm23 0h22v4h-22z" fill="#f0f044" stroke="#787822"/>"     "     <path d="M489 341h6v3h-6zM364 50h5v4h-5zm55 153h4v5h-4z" stroke="#787822" fill="#f0f045"/>"     "     "     <path d="M726 163h4v5h-4zM434 348h1v8h-1zm-225-82h5v4h-5z" fill="#f0f046" stroke="#787823"/>"     "     "     <path d="M228 391h7v2h-7zm604-180h16v4h-16z" stroke="#787823" fill="#f0f047"/>"     "     <path d="M771 227h15v5h-15zm16 3h21v4h-21zM407 411h3v18h-3z" fill="#f0f048" stroke="#787824"/>"     "     "     <path d="M408 393h8v17h-8zm9-2h10v18h-10zm-6 20h6v19h-6z" stroke="#787824" fill="#f0f049"/>"     "     "     <path d="M418 410h8v20h-8zm-10 21h16v10h-16z" fill="#f0f04a" stroke="#787825"/>"     "     <path d="M410 442h6v23h-6zm7 0h5v23h-5zm-5 24h11v16h-11z" stroke="#787825" fill="#f0f04b"/>"     "     "     <path d="M419 483h11v13h-11zm4-41h1v23h-1zm2-11h4v24h-4z" fill="#f0f04c" stroke="#787826"/>"     "     "     <path d="M427 410h2v20h-2zm1-19h3v18h-3z" stroke="#787826" fill="#f0f04d"/>"     "     <path d="M432 377h4v23h-4zm-2 33h2v24h-2zm7-37h7v18h-7z" fill="#f0f04e" stroke="#787827"/>"     "     "     <path d="M445 376h12v15h-12zm13 0h10v15h-10zm-21 16h20v6h-20z" stroke="#787827" fill="#f0f04f"/>"     "     "     <path d="M469 382h19v7h-19zm20 0h18v7h-18z" fill="#f0f050" stroke="#787828"/>"     "     <path d="M424 466h10v16h-10zm1-10h9v9h-9zm5-21h6v20h-6z" stroke="#787828" fill="#f0f051"/>"     "     "     <path d="M435 456h2v24h-2zm34-66h21v1h-21zm-11 2h18v6h-18z" fill="#f0f052" stroke="#787829"/>"     "     "     <path d="M437 399h21v2h-21zm-5 3h17v7h-17z" stroke="#787829" fill="#f0f053"/>"     "     <path d="M433 410h8v20h-8zm9 0h6v21h-6zm-5 21h4v22h-4z" fill="#f0f054" stroke="#78782a"/>"     "     "     <path d="M442 432h5v23h-5zm-4 22h3v23h-3zm4 2h5v21h-5z" stroke="#78782a" fill="#f0f055"/>"     "     "     <path d="M448 432h2v23h-2zm1-22h1v21h-1z" fill="#f0f056" stroke="#78782b"/>"     "     <path d="M448 456h2v21h-2zm3-54h5v23h-5zm0 24h5v20h-5z" stroke="#78782b" fill="#f0f057"/>"     "     "     <path d="M451 447h2v23h-2zm3 0h2v22h-2zm3-45h1v23h-1z" fill="#f0f058" stroke="#78782c"/>"     "     "     <path d="M459 399h10v18h-10zm11 0h6v18h-6z" stroke="#78782c" fill="#f0f059"/>"     "     <path d="M477 392h11v16h-11zm-18 26h17v8h-17zm18-9h11v16h-11z" fill="#f0f05a" stroke="#78782d"/>"     "     "     <path d="M457 426h1v23h-1zm2 1h9v18h-9zm10 0h8v18h-8z" stroke="#78782d" fill="#f0f05b"/>"     "     "     <path d="M478 426h10v16h-10zm11-34h1v22h-1z" fill="#f0f05c" stroke="#78782e"/>"     "     <path d="M491 390h15v11h-15zm0 12h14v12h-14zm-2 13h14v12h-14z" stroke="#78782e" fill="#f0f05d"/>"     "     "     <path d="M489 428h12v14h-12zm-11 15h20v3h-20zm-19 3h18v3h-18z" fill="#f0f05e" stroke="#78782f"/>"     "     "     <path d="M457 450h15v11h-15zm0 12h16v7h-16z" stroke="#78782f" fill="#f0f05f"/>"     "     <path d="M478 447h20v2h-20zm-5 3h14v11h-14zm15 0h10v12h-10z" fill="#f0f060" stroke="#787830"/>"     "     "     <path d="M474 462h13v8h-13zm25-19h2v21h-2zm3-15h2v22h-2z" stroke="#787830" fill="#f0f061"/>"     "     "     <path d="M454 470h19v1h-19zm-3 2h19v4h-19z" fill="#f0f062" stroke="#787831"/>"     "     <path d="M488 463h10v10h-10zm-37 14h20v1h-20zm217-179h10v9h-10z" stroke="#787831" fill="#f0f063"/>"     "     "     <path d="M679 300h17v8h-17zm138-86h14v10h-14zm15 2h16v8h-16z" fill="#f0f064" stroke="#787832"/>"     "     "     <path d="M816 225h17v6h-17zm18 0h14v10h-14z" stroke="#787832" fill="#f0f065"/>"     "     <path d="M849 212h3v22h-3zm4-1h10v16h-10zm-516 91h1v7h-1z" fill="#f0f066" stroke="#787833"/>"     "     "     <path d="M584 330h16v4h-16zm17 1h19v2h-19zm0 3h19v1h-19z" stroke="#787833" fill="#f0f067"/>"     "     "     <path d="M50 359h2v6h-2zM555 74h1v7h-1z" fill="#f0f068" stroke="#787834"/>"     "     <path d="M147 447h6v2h-6zm164-284h1v7h-1zm457-39h6v2h-6z" stroke="#787834" fill="#f0f069"/>"     "     "     <path d="M380 393h7v1h-7zm100-234h2v6h-2zm384 52h1v22h-1z" fill="#f0f06a" stroke="#787835"/>"     "     "     <path d="M866 210h10v15h-10zm-13 18h10v9h-10z" stroke="#787835" fill="#f0f06b"/>"     "     <path d="M866 226h11v11h-11zM552 350h19v2h-19zm17-13h12v12h-12z" fill="#f0f06c" stroke="#787836"/>"     "     "     <path d="M575 332h8v4h-8zm9 3h16v6h-16zm17 1h17v8h-17z" stroke="#787836" fill="#f0f06d"/>"     "     "     <path d="M582 342h17v8h-17zm18 3h16v5h-16z" fill="#f0f06e" stroke="#787837"/>"     "     <path d="M431 321h2v7h-2zm272-26h14v8h-14zm15-1h14v10h-14z" stroke="#787837" fill="#f0f06f"/>"     "     "     <path d="M697 300h5v20h-5zm6 4h11v15h-11zm12 1h16v9h-16z" fill="#f0f070" stroke="#787838"/>"     "     "     <path d="M715 315h16v4h-16zm-12 5h19v1h-19z" stroke="#787838" fill="#f0f071"/>"     "     <path d="M666 308h12v12h-12zm13 1h15v10h-15zm16 0h1v13h-1z" fill="#f0f072" stroke="#787839"/>"     "     "     <path d="M660 315h5v8h-5zm19 5h15v6h-15zm-13 1h12v9h-12z" stroke="#787839" fill="#f0f073"/>"     "     "     <path d="M679 327h15v4h-15zM431 483h3v13h-3z" fill="#f0f074" stroke="#78783a"/>"     "     <path d="M432 497h11v15h-11zm3-16h9v15h-9zm9 16h10v15h-10z" stroke="#78783a" fill="#f0f075"/>"     "     "     <path d="M445 479h9v17h-9zm10 0h8v18h-8zm0 19h11v14h-11z" fill="#f0f076" stroke="#78783b"/>"     "     "     <path d="M464 479h7v18h-7zm3 19h11v14h-11z" stroke="#78783b" fill="#f0f077"/>"     "     <path d="M438 478h6v2h-6zm34-4h2v21h-2zm3-3h12v12h-12z" fill="#f0f078" stroke="#78783c"/>"     "     "     <path d="M475 484h11v13h-11zm4 14h10v14h-10zm9-24h11v10h-11z" stroke="#78783c" fill="#f0f079"/>"     "     "     <path d="M487 485h11v12h-11zm3 13h10v14h-10z" fill="#f0f07a" stroke="#78783d"/>"     "     <path d="M540 352h11v6h-11zm12 1h16v8h-16zM82 155h5v2h-5z" stroke="#78783d" fill="#f0f07b"/>"     "     "     <path d="M624 329h14v2h-14zm15 1h19v1h-19zm-18 2h19v2h-19z" fill="#f0f07c" stroke="#78783e"/>"     "     "     <path d="M641 332h17v2h-17zm-20 3h18v2h-18z" stroke="#78783e" fill="#f0f07d"/>"     "     <path d="M619 338h16v9h-16zm21-3h18v2h-18zm-4 3h16v9h-16z" fill="#f0f07e" stroke="#78783f"/>"     "     "     <path d="M617 348h18v2h-18zm19 0h16v2h-16zm17-10h8v17h-8z" stroke="#78783f" fill="#f0f07f"/>"     "     "     <path d="M662 324h3v20h-3zm4 7h12v11h-12z" fill="#f0f080" stroke="#787840"/>"     "     <path d="M679 332h15v10h-15zm16-9h1v20h-1zm2-2h5v19h-5z" stroke="#787840" fill="#f0f081"/>"     "     "     <path d="M703 322h8v17h-8zm9 0h9v16h-9zm-53 8h2v7h-2z" fill="#f0f082" stroke="#787841"/>"     "     "     <path d="M666 343h17v1h-17zm-4 2h14v10h-14z" stroke="#787841" fill="#f0f083"/>"     "     <path d="M510 370h10v11h-10zm-2 12h14v8h-14zm-1 9h13v11h-13z" fill="#f0f084" stroke="#787842"/>"     "     "     <path d="M506 403h13v11h-13zm-2 12h13v11h-13zm1 12h6v19h-6z" stroke="#787842" fill="#f0f085"/>"     "     "     <path d="M512 427h6v18h-6zm165-82h6v13h-6z" fill="#f0f086" stroke="#787843"/>"     "     <path d="M684 343h9v16h-9zM155 233h6v1h-6zm786-25h13v2h-13z" stroke="#787843" fill="#f0f087"/>"     "     "     <path d="M955 209h17v3h-17zM694 344h8v17h-8zm9-4h6v18h-6z" fill="#f0f088" stroke="#787844"/>"     "     "     <path d="M710 340h4v18h-4zm5-1h5v18h-5z" stroke="#787844" fill="#f0f089"/>"     "     <path d="M721 339h2v18h-2zm1-17h1v16h-1zm2-2h7v17h-7z" fill="#f0f08a" stroke="#787845"/>"     "     "     <path d="M724 338h7v16h-7zm8-33h1v21h-1zm0 22h3v20h-3z" stroke="#787845" fill="#f0f08b"/>"     "     "     <path d="M521 369h3v12h-3zm4-8h3v19h-3z" fill="#f0f08c" stroke="#787846"/>"     "     <path d="M529 357h9v15h-9zm10 2h12v10h-12zm13 3h16v8h-16z" stroke="#787846" fill="#f0f08d"/>"     "     "     <path d="M569 353h2v19h-2zm3-3h9v15h-9zm10 1h11v13h-11z" fill="#f0f08e" stroke="#787847"/>"     "     "     <path d="M594 351h16v8h-16zm17 0h16v8h-16z" stroke="#787847" fill="#f0f08f"/>"     "     <path d="M628 351h15v8h-15zm16 0h8v10h-8zm9 5h16v7h-16z" fill="#f0f090" stroke="#787848"/>"     "     "     <path d="M594 360h16v6h-16zm17 0h16v6h-16zm17 0h15v7h-15z" stroke="#787848" fill="#f0f091"/>"     "     "     <path d="M529 373h11v10h-11zm12-3h10v12h-10z" fill="#f0f092" stroke="#787849"/>"     "     <path d="M552 371h16v7h-16zm0 8h17v3h-17zm118-23h6v8h-6z" stroke="#787849" fill="#f0f093"/>"     "     "     <path d="M570 208h2v5h-2zM88 262h1v6h-1zm453 121h16v1h-16z" fill="#f0f094" stroke="#78784a"/>"     "     "     <path d="M405 290h4v3h-4zM988 23h3v4h-3z" stroke="#78784a" fill="#f0f095"/>"     "     <path d="M708 241h5v2h-5zm-30-60h6v1h-6zM133 393h5v2h-5z" fill="#f0f096" stroke="#78784b"/>"     "     "     <path d="M502 451h9v14h-9zm10-5h3v19h-3zm4 0h1v19h-1z" stroke="#78784b" fill="#f0f097"/>"     "     "     <path d="M505 447h6v3h-6zm13-1h1v19h-1z" fill="#f0f098" stroke="#78784c"/>"     "     <path d="M499 466h14v7h-14zm1 8h13v11h-13zm-1 12h11v11h-11z" stroke="#78784c" fill="#f0f099"/>"     "     "     <path d="M501 498h7v14h-7zm8 0h7v14h-7zm5-32h4v17h-4z" fill="#f0f09a" stroke="#78784d"/>"     "     "     <path d="M511 486h9v11h-9zm6 12h6v14h-6z" stroke="#78784d" fill="#f0f09b"/>"     "     <path d="M519 466h1v17h-1zm53-100h9v10h-9zm10-1h11v9h-11z" fill="#f0f09c" stroke="#78784e"/>"     "     "     <path d="M594 367h15v5h-15zm16 0h15v5h-15zm16 1h14v5h-14z" stroke="#78784e" fill="#f0f09d"/>"     "     "     <path d="M594 373h15v1h-15zm16 0h15v2h-15z" fill="#f0f09e" stroke="#78784f"/>"     "     <path d="M582 375h15v1h-15zm44-1h14v3h-14zm347-165h11v6h-11z" stroke="#78784f" fill="#f0f09f"/>"     "     "     <path d="M985 210h13v6h-13zm14 0h15v3h-15zm0 4h14v4h-14z" fill="#f0f0a0" stroke="#787850"/>"     "     "     <path d="M738 227h11v5h-11zm-6 3h5v13h-5z" stroke="#787850" fill="#f0f0a1"/>"     "     <path d="M738 233h10v11h-10zm12-4h13v4h-13zm-1 5h13v9h-13z" fill="#f0f0a2" stroke="#787851"/>"     "     "     <path d="M644 362h8v5h-8zm-3 6h12v9h-12zm13-4h9v13h-9z" stroke="#787851" fill="#f0f0a3"/>"     "     "     <path d="M664 364h5v15h-5zm6 1h7v16h-7z" fill="#f0f0a4" stroke="#787852"/>"     "     <path d="M678 359h5v16h-5zm6 1h9v15h-9zm10 2h9v13h-9z" stroke="#787852" fill="#f0f0a5"/>"     "     "     <path d="M704 359h9v15h-9zm-26 17h13v9h-13zm14 0h12v9h-12z" fill="#f0f0a6" stroke="#787853"/>"     "     "     <path d="M705 375h8v12h-8zm9-16h4v17h-4z" stroke="#787853" fill="#f0f0a7"/>"     "     <path d="M719 358h4v17h-4zm5-3h5v16h-5zm6 0h3v16h-3z" fill="#f0f0a8" stroke="#787854"/>"     "     "     <path d="M514 484h11v1h-11zm7 2h7v11h-7zm3 12h6v14h-6z" stroke="#787854" fill="#f0f0a9"/>"     "     "     <path d="M877 214h3v11h-3zm4-1h7v12h-7z" fill="#f0f0aa" stroke="#787855"/>"     "     <path d="M878 226h10v10h-10zm11-16h5v15h-5zm6 1h13v9h-13z" stroke="#787855" fill="#f0f0ab"/>"     "     "     <path d="M909 211h13v8h-13zm14 0h12v8h-12zm13 0h12v8h-12z" fill="#f0f0ac" stroke="#787856"/>"     "     "     <path d="M895 221h13v4h-13zm-6 5h12v7h-12z" stroke="#787856" fill="#f0f0ad"/>"     "     <path d="M909 220h12v5h-12zm-7 6h12v7h-12zm20-6h13v4h-13z" fill="#f0f0ae" stroke="#787857"/>"     "     "     <path d="M889 234h14v2h-14zm47-14h11v4h-11zm13-9h5v14h-5z" stroke="#787857" fill="#f0f0af"/>"     "     "     <path d="M955 213h8v12h-8zm9 0h8v9h-8z" fill="#f0f0b0" stroke="#787858"/>"     "     <path d="M973 216h11v8h-11zm12 1h13v3h-13zm0 4h13v3h-13z" stroke="#787858" fill="#f0f0b1"/>"     "     "     <path d="M999 219h11v6h-11zm12 0h3v10h-3zm4 10h9v7h-9z" fill="#f0f0b2" stroke="#787859"/>"     "     "     <path d="M551 129h5v1h-5zm163 248h7v13h-7z" stroke="#787859" fill="#f0f0b3"/>"     "     <path d="M722 376h2v14h-2zm3-4h6v15h-6zm7 0h3v17h-3z" fill="#f0f0b4" stroke="#78785a"/>"     "     "     <path d="M922 225h14v1h-14zm-158 4h6v8h-6zm7 4h13v2h-13z" stroke="#78785a" fill="#f0f0b5"/>"     "     "     <path d="M915 226h6v7h-6zm7 1h11v8h-11z" fill="#f0f0b6" stroke="#78785b"/>"     "     <path d="M904 234h13v2h-13zm-133 2h13v1h-13zm-8 2h11v5h-11z" stroke="#78785b" fill="#f0f0b7"/>"     "     "     <path d="M775 238h10v6h-10zm11-3h10v9h-10zm11 0h11v8h-11z" fill="#f0f0b8" stroke="#78785c"/>"     "     "     <path d="M809 230h6v13h-6zm7 2h10v8h-10z" stroke="#78785c" fill="#f0f0b9"/>"     "     <path d="M827 232h6v10h-6zm7 4h11v4h-11zm-18 5h10v4h-10z" fill="#f0f0ba" stroke="#78785d"/>"     "     "     <path d="M635 133h6v3h-6zM518 415h2v11h-2zm1 12h1v17h-1z" stroke="#78785d" fill="#f0f0bb"/>"     "     "     <path d="M520 445h1v15h-1zm78-70h11v3h-11z" fill="#f0f0bc" stroke="#78785e"/>"     "     <path d="M610 376h12v2h-12zm123-132h4v7h-4zm5 1h10v5h-10z" stroke="#78785e" fill="#f0f0bd"/>"     "     "     <path d="M749 244h12v3h-12zm13 0h12v3h-12zm-13 4h12v2h-12z" fill="#f0f0be" stroke="#78785f"/>"     "     "     <path d="M775 245h12v1h-12zm-13 3h12v1h-12z" stroke="#78785f" fill="#f0f0bf"/>"     "     <path d="M775 247h12v1h-12zM285 114h1v4h-1zm-12 92h5v3h-5z" fill="#f0f0c0" stroke="#787860"/>"     "     "     <path d="M569 373h2v5h-2zm3 4h12v1h-12zm13 0h12v1h-12z" stroke="#787860" fill="#f0f0c1"/>"     "     "     <path d="M570 379h11v3h-11zm-12 4h12v1h-12z" fill="#f0f0c2" stroke="#787861"/>"     "     <path d="M582 379h11v2h-11zm-61 12h7v12h-7zm-1 13h7v10h-7z" stroke="#787861" fill="#f0f0c3"/>"     "     "     <path d="M521 415h5v15h-5zm0 16h5v13h-5zm1 14h5v15h-5z" fill="#f0f0c4" stroke="#787862"/>"     "     "     <path d="M527 415h1v15h-1zm0 16h4v13h-4z" stroke="#787862" fill="#f0f0c5"/>"     "     <path d="M528 445h3v15h-3zm-7 16h6v14h-6zm0 15h8v7h-8z" fill="#f0f0c6" stroke="#787863"/>"     "     "     <path d="M528 461h3v14h-3zm-5-79h4v8h-4zm5 2h9v5h-9z" stroke="#787863" fill="#f0f0c7"/>"     "     "     <path d="M529 390h5v14h-5zm6 0h2v15h-2z" fill="#f0f0c8" stroke="#787864"/>"     "     <path d="M538 384h2v15h-2zm3 1h6v12h-6zm7 0h8v9h-8z" stroke="#787864" fill="#f0f0c9"/>"     "     "     <path d="M557 385h8v9h-8zm-29 20h6v9h-6zm1 10h3v15h-3z" fill="#f0f0ca" stroke="#787865"/>"     "     "     <path d="M533 415h1v15h-1zm2-9h3v14h-3z" stroke="#787865" fill="#f0f0cb"/>"     "     <path d="M532 431h1v15h-1zm0 16h1v15h-1zm2-16h1v14h-1z" fill="#f0f0cc" stroke="#787866"/>"     "     "     <path d="M534 446h1v14h-1zm-5 38h3v13h-3zm2 14h4v14h-4z" stroke="#787866" fill="#f0f0cd"/>"     "     "     <path d="M532 463h3v13h-3zm3-42h8v9h-8z" fill="#f0f0ce" stroke="#787867"/>"     "     <path d="M536 431h5v12h-5zm0 13h3v13h-3zm4 0h2v13h-2z" stroke="#787867" fill="#f0f0cf"/>"     "     "     <path d="M542 431h1v12h-1zm-6 27h6v10h-6zm7-14h1v14h-1z" fill="#f0f0d0" stroke="#787868"/>"     "     "     <path d="M536 469h7v8h-7zm30-84h4v9h-4z" stroke="#787868" fill="#f0f0d1"/>"     "     <path d="M571 383h8v8h-8zm-41 94h5v6h-5zm3 7h2v13h-2z" fill="#f0f0d2" stroke="#787869"/>"     "     "     <path d="M536 478h6v10h-6zm0 11h4v12h-4zm0 13h3v10h-3z" stroke="#787869" fill="#f0f0d3"/>"     "     "     <path d="M540 502h3v10h-3zm1-13h3v12h-3z" fill="#f0f0d4" stroke="#78786a"/>"     "     <path d="M544 502h3v10h-3zm420-279h8v3h-8zM449 76h1v4h-1z" stroke="#78786a" fill="#f0f0d5"/>"     "     "     <path d="M449 306h3v2h-3zM248 157h4v1h-4zm-70 288h5v1h-5z" fill="#f0f0d6" stroke="#78786b"/>"     "     "     <path d="M986 57h2v3h-2zM59 505h3v2h-3z" stroke="#78786b" fill="#f0f0d7"/>"     "     <path d="M543 478h2v10h-2zm2 11h4v12h-4zm3 13h3v10h-3z" fill="#f0f0d8" stroke="#78786c"/>"     "     "     <path d="M153 284h1v4h-1zm535-180h5v1h-5zM450 252h5v1h-5z" stroke="#78786c" fill="#f0f0d9"/>"     "     "     <path d="M594 379h9v3h-9zm10 0h9v3h-9z" fill="#f0f0da" stroke="#78786d"/>"     "     <path d="M734 252h8v7h-8zm1 8h7v9h-7zm0 10h4v11h-4z" stroke="#78786d" fill="#f0f0db"/>"     "     "     <path d="M743 251h8v8h-8zm0 9h7v8h-7zm9-9h7v7h-7z" fill="#f0f0dc" stroke="#78786e"/>"     "     "     <path d="M740 270h2v12h-2zm3-1h1v13h-1z" stroke="#78786e" fill="#f0f0dd"/>"     "     <path d="M745 269h3v11h-3zm4 0h1v12h-1zm2-9h1v14h-1z" fill="#f0f0de" stroke="#78786f"/>"     "     "     <path d="M753 259h4v9h-4zm220-34h10v1h-10zM732 348h7v6h-7z" stroke="#78786f" fill="#f0f0df"/>"     "     "     <path d="M734 355h1v12h-1zm2 0h4v9h-4z" fill="#f0f0e0" stroke="#787870"/>"     "     <path d="M788 245h8v5h-8zm9-1h9v4h-9zm10 0h7v4h-7z" stroke="#787870" fill="#f0f0e1"/>"     "     "     <path d="M548 395h9v2h-9zm-5 64h2v9h-2zm1 10h3v8h-3z" fill="#f0f0e2" stroke="#787871"/>"     "     "     <path d="M614 379h9v4h-9zm-56 16h9v2h-9z" stroke="#787871" fill="#f0f0e3"/>"     "     <path d="M285 470h1v3h-1zm447-184h5v7h-5zm1 8h3v8h-3z" fill="#f0f0e4" stroke="#787872"/>"     "     "     <path d="M144 417h2v2h-2zm-34-158h2v2h-2zm615 129h6v7h-6z" stroke="#787872" fill="#f0f0e5"/>"     "     "     <path d="M934 227h2v8h-2zm3-2h6v7h-6z" fill="#f0f0e6" stroke="#787873"/>"     "     <path d="M944 225h3v8h-3zm4 1h5v7h-5zm6 0h5v7h-5z" stroke="#787873" fill="#f0f0e7"/>"     "     "     <path d="M612 84h3v1h-3zm348 142h3v6h-3zm4 1h7v5h-7z" fill="#f0f0e8" stroke="#787874"/>"     "     "     <path d="M972 227h7v5h-7zm-193-19h3v1h-3z" stroke="#787874" fill="#f0f0e9"/>"     "     <path d="M753 269h5v6h-5zM571 392h7v3h-7zm180-116h7v4h-7z" fill="#f0f0ea" stroke="#787875"/>"     "     "     <path d="M538 400h2v5h-2zm3-2h5v5h-5zm6 0h5v5h-5z" stroke="#787875" fill="#f0f0eb"/>"     "     "     <path d="M553 398h4v5h-4zm427-171h3v6h-3z" fill="#f0f0ec" stroke="#787876"/>"     "     <path d="M558 398h3v5h-3zm-32 86h2v1h-2zM210 85h2v1h-2z" stroke="#787876" fill="#f0f0ed"/>"     "     "     <path d="M947 128h1v3h-1zM746 56h1v3h-1zM608 158h2v1h-2z" fill="#f0f0ee" stroke="#787877"/>"     "     "     <path d="M617 345h1v2h-1zm-31-222h1v1h-1z" stroke="#787877" fill="#f0f0ef"/>"     "     <text y="526" font-size="12" fill="#000" x="0"> MaxRectsBin(size: 1024x512, rule: ContactPointRule): inserted 1536 of 1536 rectangles with w/h lengths between [2, 31], occupancy: 80.22% </text></svg>