<svg xmlns="http://www.w3.org/2000/svg" viewBox="0 0 1024 536" xmlns:v="https://vecta.io/nano"><path d="M0 0h1024v512H0z" fill="#fff" stroke="#000"/>"     <path d="M1 1h29v30H1zm0 31h29v30H1zm0 31h28v30H1z" fill="#303030" stroke="#181818"/>"     "     "     <path d="M1 94h28v30H1zm0 31h28v30H1zm0 31h28v30H1z" stroke="#181818" fill="#303130"/>"     "     "     <path d="M1 187h27v30H1zm0 31h27v30H1z" fill="#303230" stroke="#181918"/>"     "     <path d="M1 249h23v30H1zm0 31h23v30H1zm0 31h23v30H1z" stroke="#181918" fill="#303330"/>"     "     "     <path d="M1 342h22v30H1zm0 31h22v30H1zm0 31h22v30H1z" fill="#303430" stroke="#181a18"/>"     "     "     <path d="M1 435h21v30H1zm0 31h21v30H1z" stroke="#181a18" fill="#303530"/>"     "     <path d="M1 497h30v15H1zm22-62h21v30H23zm0 31h20v30H23z" fill="#303630" stroke="#181b18"/>"     "     "     <path d="M32 497h29v15H32zm12-31h20v30H44zm18 31h29v15H62z" stroke="#181b18" fill="#303730"/>"     "     "     <path d="M24 342h20v30H24zm0 31h18v30H24z" fill="#303830" stroke="#181c18"/>"     "     <path d="M24 404h18v30H24zm19-31h17v30H43zm0 31h17v30H43z" stroke="#181c18" fill="#303930"/>"     "     "     <path d="M45 435h17v30H45zM25 249h16v30H25zm4-62h15v30H29z" fill="#303a30" stroke="#181d18"/>"     "     "     <path d="M29 218h15v30H29zm-4 62h15v30H25z" stroke="#181d18" fill="#303b30"/>"     "     <path d="M25 311h13v30H25zm14 0h13v30H39zm6 31h12v30H45z" fill="#303c30" stroke="#181e18"/>"     "     "     <path d="M41 280h12v30H41zm12 31h10v30H53zm5 31h10v30H58z" stroke="#181e18" fill="#303d30"/>"     "     "     <path d="M42 249h8v30h-8zm19 124h7v30h-7z" fill="#303e30" stroke="#181f18"/>"     "     <path d="M61 404h7v30h-7zm2 31h7v30h-7zm2 31h7v30h-7z" stroke="#181f18" fill="#303f30"/>"     "     "     <path d="M30 63h5v30h-5zm1-62h5v30h-5zm0 31h5v30h-5z" fill="#304030" stroke="#182018"/>"     "     "     <path d="M30 94h5v30h-5zm0 31h4v30h-4z" stroke="#182018" fill="#304130"/>"     "     <path d="M30 156h3v30h-3zm4 0h3v30h-3zm1-31h3v30h-3z" fill="#304230" stroke="#182118"/>"     "     "     <path d="M38 156h2v30h-2zm-2-93h1v30h-1zm0 31h30v29H36z" stroke="#182118" fill="#304330"/>"     "     "     <path d="M39 124h29v29H39zm0 30h30v1H39z" fill="#304430" stroke="#182218"/>"     "     <path d="M41 156h29v29H41zM37 1h29v29H37zm0 30h29v29H37z" stroke="#182218" fill="#304530"/>"     "     "     <path d="M37 61h28v1H37zm1 2h28v29H38zm28-2h28v1H66z" fill="#304630" stroke="#182318"/>"     "     "     <path d="M67 1h27v29H67zm0 30h26v29H67z" stroke="#182318" fill="#304730"/>"     "     <path d="M94 31h26v29H94zm1-30h24v29H95zm25 0h22v29h-22z" fill="#304830" stroke="#182418"/>"     "     "     <path d="M67 63h22v29H67zm0 30h21v29H67zm2 30h20v29H69z" stroke="#182418" fill="#304930"/>"     "     "     <path d="M89 93h20v29H89zm1-30h20v29H90z" fill="#304a30" stroke="#182518"/>"     "     <path d="M95 61h27v1H95zm26-30h20v29h-20zM70 153h30v2H70z" stroke="#182518" fill="#304b30"/>"     "     "     <path d="M90 123h19v29H90zm-45 63h19v29H45zm0 30h19v29H45z" fill="#304c30" stroke="#182618"/>"     "     "     <path d="M45 246h30v2H45zm6 3h18v29H51z" stroke="#182618" fill="#304d30"/>"     "     <path d="M54 279h18v29H54zm16-30h17v29H70zm-16 60h27v1H54z" fill="#304e30" stroke="#182718"/>"     "     "     <path d="M73 279h17v29H73zm-9 32h17v29H64zm1-125h17v29H65z" stroke="#182718" fill="#304f30"/>"     "     "     <path d="M71 156h15v29H71zm-6 60h13v29H65z" fill="#305030" stroke="#182818"/>"     "     <path d="M76 246h30v2H76zm12 3h13v29H88zm-9-33h12v29H79z" stroke="#182818" fill="#305130"/>"     "     "     <path d="M83 186h11v29H83zm9 30h11v29H92zm-5-60h11v29H87z" fill="#305230" stroke="#182918"/>"     "     "     <path d="M95 186h11v29H95zm9 30h10v29h-10z" stroke="#182918" fill="#305330"/>"     "     <path d="M99 156h10v29H99zm2-3h29v2h-29zm6 33h8v29h-8z" fill="#305430" stroke="#182a18"/>"     "     "     <path d="M110 156h8v29h-8zm0-63h7v29h-7zm1-30h7v29h-7z" stroke="#182a18" fill="#305530"/>"     "     "     <path d="M110 123h7v29h-7zm8-30h6v29h-6z" fill="#305630" stroke="#182b18"/>"     "     <path d="M119 63h6v29h-6zm4-2h27v1h-27zm19-30h5v29h-5z" stroke="#182b18" fill="#305730"/>"     "     "     <path d="M143 1h4v29h-4zm-25 122h3v29h-3zm4 0h3v29h-3z" fill="#305830" stroke="#182c18"/>"     "     "     <path d="M125 93h28v28h-28zm1-30h28v28h-28z" stroke="#182c18" fill="#305930"/>"     "     <path d="M126 122h28v28h-28zm0 29h27v1h-27zm28-59h26v28h-26z" fill="#305a30" stroke="#182d18"/>"     "     "     <path d="M148 1h26v28h-26zm0 29h25v28h-25zm3 29h30v3h-30z" stroke="#182d18" fill="#305b30"/>"     "     "     <path d="M148 59h2v1h-2zm26-29h23v28h-23z" fill="#305c30" stroke="#182e18"/>"     "     <path d="M175 1h23v28h-23zm-20 62h22v28h-22zm23 0h21v28h-21z" stroke="#182e18" fill="#305d30"/>"     "     "     <path d="M182 59h30v3h-30zm16-29h21v28h-21zm1-29h19v28h-19z" fill="#305e30" stroke="#182f18"/>"     "     "     <path d="M219 1h18v28h-18zM69 341h18v28H69z" stroke="#182f18" fill="#305f30"/>"     "     <path d="M82 309h18v28H82zm0 29h28v2H82zm9-59h16v28H91z" fill="#306030" stroke="#183018"/>"     "     "     <path d="M102 249h16v28h-16zm5-3h28v2h-28zm8-30h16v28h-16z" stroke="#183018" fill="#306130"/>"     "     "     <path d="M116 186h16v28h-16zm3-30h16v28h-16z" fill="#306230" stroke="#183118"/>"     "     <path d="M131 153h27v2h-27zm23-2h23v1h-23zm1-30h14v28h-14z" stroke="#183118" fill="#306330"/>"     "     "     <path d="M170 121h13v28h-13zm11-29h13v28h-13zm-80 216h12v28h-12z" fill="#306430" stroke="#183218"/>"     "     "     <path d="M108 278h12v28h-12zm11-29h10v28h-10z" stroke="#183218" fill="#306530"/>"     "     <path d="M132 215h10v28h-10zm0 29h23v1h-23zm1-59h10v28h-10z" fill="#306630" stroke="#183318"/>"     "     "     <path d="M136 156h10v28h-10zm7 58h10v28h-10zm1-29h10v28h-10z" stroke="#183318" fill="#306730"/>"     "     "     <path d="M147 156h8v28h-8zm7 58h7v28h-7z" fill="#306830" stroke="#183418"/>"     "     <path d="M155 185h7v28h-7zm1-29h7v28h-7zm3-3h26v2h-26z" stroke="#183418" fill="#306930"/>"     "     "     <path d="M178 150h26v2h-26zm6-29h7v28h-7zm8 0h5v28h-5z" fill="#306a30" stroke="#183518"/>"     "     "     <path d="M195 92h4v28h-4zm3 29h4v28h-4z" stroke="#183518" fill="#306b30"/>"     "     <path d="M200 63h3v28h-3zm0 29h3v28h-3zm3 29h3v28h-3z" fill="#306c30" stroke="#183618"/>"     "     "     <path d="M204 63h2v28h-2zm0 29h2v28h-2zM69 370h30v27H69z" stroke="#183618" fill="#306d30"/>"     "     "     <path d="M88 341h30v27H88zm23-4h30v3h-30z" fill="#306e30" stroke="#183718"/>"     "     <path d="M114 307h30v27h-30zm0 28h23v1h-23zm24 0h22v1h-22z" stroke="#183718" fill="#306f30"/>"     "     "     <path d="M121 278h30v27h-30zm24 28h29v27h-29zm-15-57h29v27h-29z" fill="#307030" stroke="#183818"/>"     "     "     <path d="M156 243h30v5h-30zm-20 3h19v2h-19z" stroke="#183818" fill="#307130"/>"     "     <path d="M162 214h28v27h-28zm1-29h28v27h-28zm1-29h27v27h-27z" fill="#307230" stroke="#183918"/>"     "     "     <path d="M186 153h25v2h-25zm19-3h24v2h-24zm-53 127h27v27h-27z" stroke="#183918" fill="#307330"/>"     "     "     <path d="M160 249h27v27h-27zm27-7h30v6h-30z" fill="#307430" stroke="#183a18"/>"     "     <path d="M191 213h26v27h-26zM69 398h25v27H69zm0 28h29v8H69z" stroke="#183a18" fill="#307530"/>"     "     "     <path d="M95 398h25v27H95zm5-29h25v27h-25zm19-28h24v27h-24z" fill="#307630" stroke="#183b18"/>"     "     "     <path d="M142 337h30v3h-30zm19-3h24v2h-24z" stroke="#183b18" fill="#307730"/>"     "     <path d="M175 305h23v27h-23zm5-28h23v27h-23zm8-28h22v27h-22z" fill="#307830" stroke="#183c18"/>"     "     "     <path d="M71 435h22v27H71zm0 28h23v2H71zm23-28h21v27H94z" stroke="#183c18" fill="#307930"/>"     "     "     <path d="M99 426h29v8H99zm22-29h20v27h-20z" fill="#307a30" stroke="#183d18"/>"     "     <path d="M126 369h20v27h-20zm18-28h19v27h-19zM73 466h19v27H73z" stroke="#183d18" fill="#307b30"/>"     "     "     <path d="M92 494h30v18H92zm-19 0h18v2H73zm20-28h19v27H93z" fill="#307c30" stroke="#183e18"/>"     "     "     <path d="M95 463h21v2H95zm21-28h19v27h-19z" stroke="#183e18" fill="#307d30"/>"     "     <path d="M129 425h30v9h-30zm13-28h19v27h-19zm5-28h19v27h-19z" fill="#307e30" stroke="#183f18"/>"     "     "     <path d="M164 341h18v27h-18zm9-4h29v3h-29zm13-4h29v3h-29z" stroke="#183f18" fill="#307f30"/>"     "     "     <path d="M199 305h18v27h-18zm5-28h17v27h-17z" fill="#308030" stroke="#184018"/>"     "     <path d="M211 249h17v27h-17zm-98 217h17v27h-17zm10 28h30v18h-30z" stroke="#184018" fill="#308130"/>"     "     "     <path d="M117 463h21v2h-21zm19-28h15v27h-15zm-5 31h15v27h-15z" fill="#308230" stroke="#184118"/>"     "     "     <path d="M139 463h21v2h-21zm13-28h15v27h-15z" stroke="#184118" fill="#308330"/>"     "     <path d="M160 425h29v9h-29zm2-28h14v27h-14zm5-28h14v27h-14z" fill="#308430" stroke="#184218"/>"     "     "     <path d="M177 397h13v27h-13zm5-28h9v27h-9zm1-28h9v27h-9z" stroke="#184218" fill="#308530"/>"     "     "     <path d="M147 466h8v27h-8zm7 28h30v18h-30z" fill="#308630" stroke="#184318"/>"     "     <path d="M156 466h8v27h-8zm5-3h21v2h-21zm7-28h7v27h-7z" stroke="#184318" fill="#308730"/>"     "     "     <path d="M176 435h7v27h-7zm-11 31h7v27h-7zm8 0h6v27h-6z" fill="#308830" stroke="#184418"/>"     "     "     <path d="M180 466h6v27h-6zm5 28h29v18h-29z" stroke="#184418" fill="#308930"/>"     "     <path d="M183 463h20v2h-20zm4 3h5v27h-5zm6 0h5v27h-5z" fill="#308a30" stroke="#184518"/>"     "     "     <path d="M199 466h5v27h-5zm-15-31h4v27h-4zm5 0h3v27h-3z" stroke="#184518" fill="#308b30"/>"     "     "     <path d="M190 425h28v9h-28zm3 10h3v27h-3z" fill="#308c30" stroke="#184618"/>"     "     <path d="M197 435h3v27h-3zm4 0h3v27h-3zm3 28h19v2h-19z" stroke="#184618" fill="#308d30"/>"     "     "     <path d="M205 435h2v27h-2zm3 0h1v27h-1zm2 0h30v26h-30z" fill="#308e30" stroke="#184718"/>"     "     "     <path d="M205 466h30v26h-30zm19-4h28v3h-28z" stroke="#184718" fill="#308f30"/>"     "     <path d="M215 493h30v19h-30zm21-27h28v26h-28zm10 27h30v19h-30z" fill="#309030" stroke="#184818"/>"     "     "     <path d="M191 397h28v26h-28zm28 27h30v10h-30zm22 11h27v26h-27z" stroke="#184818" fill="#309130"/>"     "     "     <path d="M253 462h28v3h-28zm12 4h27v26h-27z" fill="#309230" stroke="#184918"/>"     "     <path d="M277 493h30v19h-30zm-85-124h26v26h-26zm1-28h26v26h-26z" stroke="#184918" fill="#309330"/>"     "     "     <path d="M216 333h30v7h-30zm-13 4h12v3h-12zm15-32h25v26h-25z" fill="#309430" stroke="#184a18"/>"     "     "     <path d="M222 277h25v26h-25zm22 27h25v26h-25z" stroke="#184a18" fill="#309530"/>"     "     <path d="M244 331h22v1h-22zm-25 37h24v26h-24zm1-27h24v26h-24z" fill="#309630" stroke="#184b18"/>"     "     "     <path d="M219 395h21v1h-21zm1 2h23v26h-23zm21-2h20v1h-20z" stroke="#184b18" fill="#309730"/>"     "     "     <path d="M244 368h22v26h-22zm1-27h22v26h-22z" fill="#309830" stroke="#184c18"/>"     "     <path d="M267 331h27v9h-27zm-20 2h19v7h-19zm-3 64h21v26h-21z" stroke="#184c18" fill="#309930"/>"     "     "     <path d="M262 395h19v1h-19zm5-27h19v26h-19zm1-27h19v26h-19z" fill="#309a30" stroke="#184d18"/>"     "     "     <path d="M250 424h29v10h-29zm19 11h19v26h-19z" stroke="#184d18" fill="#309b30"/>"     "     <path d="M282 462h27v3h-27zm11 4h19v26h-19zm15 27h30v19h-30z" fill="#309c30" stroke="#184e18"/>"     "     "     <path d="M266 397h18v26h-18zm14 27h29v10h-29zm9 11h18v26h-18z" stroke="#184e18" fill="#309d30"/>"     "     "     <path d="M308 435h18v26h-18zm2 27h27v3h-27z" fill="#309e30" stroke="#184f18"/>"     "     <path d="M313 466h17v26h-17zm18 0h16v26h-16zm8 27h29v19h-29z" stroke="#184f18" fill="#309f30"/>"     "     "     <path d="M282 395h19v1h-19zm5-27h16v26h-16zm1-27h16v26h-16z" fill="#30a030" stroke="#185018"/>"     "     "     <path d="M285 397h15v26h-15zm16 0h15v26h-15z" stroke="#185018" fill="#30a130"/>"     "     <path d="M310 424h28v10h-28zm17 11h14v26h-14zm11 27h25v3h-25z" fill="#30a230" stroke="#185118"/>"     "     "     <path d="M348 466h14v26h-14zm15 0h13v26h-13zm6 27h29v19h-29z" stroke="#185118" fill="#30a330"/>"     "     "     <path d="M302 395h19v1h-19zm15 2h13v26h-13z" fill="#30a430" stroke="#185218"/>"     "     <path d="M304 368h12v26h-12zM192 156h10v26h-10zm0 27h9v26h-9z" stroke="#185218" fill="#30a530"/>"     "     "     <path d="M192 210h19v2h-19zm10-27h9v26h-9zm1-27h9v26h-9z" fill="#30a630" stroke="#185318"/>"     "     "     <path d="M212 153h19v2h-19zm0 30h9v26h-9z" stroke="#185318" fill="#30a730"/>"     "     <path d="M212 210h19v2h-19zm1-54h8v26h-8zm5 57h8v26h-8z" fill="#30a830" stroke="#185418"/>"     "     "     <path d="M218 240h28v8h-28zm9-27h7v26h-7zm2 36h7v26h-7z" stroke="#185418" fill="#30a930"/>"     "     "     <path d="M237 249h7v26h-7zm8 0h7v26h-7z" fill="#30aa30" stroke="#185518"/>"     "     <path d="M248 276h6v26h-6zm-26-120h4v26h-4zm0 27h4v26h-4z" stroke="#185518" fill="#30ab30"/>"     "     "     <path d="M227 156h3v26h-3zm0 27h3v26h-3zm4-27h3v26h-3z" fill="#30ac30" stroke="#185618"/>"     "     "     <path d="M231 183h3v26h-3zm1 27h18v2h-18z" stroke="#185618" fill="#30ad30"/>"     "     <path d="M235 213h3v26h-3zm4 0h1v26h-1zm2 0h1v26h-1z" fill="#30ae30" stroke="#185718"/>"     "     "     <path d="M243 213h1v26h-1zm2 0h30v25h-30zm2 26h26v9h-26z" stroke="#185718" fill="#30af30"/>"     "     "     <path d="M253 249h30v25h-30zm21-10h25v9h-25z" fill="#30b030" stroke="#185818"/>"     "     <path d="M255 275h29v25h-29zm29-26h29v25h-29zm-29 52h18v2h-18z" stroke="#185818" fill="#30b130"/>"     "     "     <path d="M270 304h29v25h-29zm25 26h27v10h-27zm-21-29h18v2h-18z" fill="#30b230" stroke="#185918"/>"     "     "     <path d="M285 275h28v25h-28zm8 26h17v2h-17z" stroke="#185918" fill="#30b330"/>"     "     <path d="M300 304h27v25h-27zm11-3h16v2h-16zm-6 40h26v25h-26z" fill="#30b430" stroke="#185a18"/>"     "     "     <path d="M323 330h27v10h-27zm-6 37h26v25h-26zm15-26h25v25h-25z" stroke="#185a18" fill="#30b530"/>"     "     "     <path d="M322 393h25v3h-25zm-5 0h4v1h-4z" fill="#30b630" stroke="#185b18"/>"     "     <path d="M344 367h25v25h-25zm-13 30h24v25h-24zm17-4h25v3h-25z" stroke="#185b18" fill="#30b730"/>"     "     "     <path d="M339 423h30v11h-30zm17-26h24v25h-24zm-14 38h22v25h-22z" fill="#30b830" stroke="#185c18"/>"     "     "     <path d="M364 461h30v4h-30zm1-26h21v25h-21z" stroke="#185c18" fill="#30b930"/>"     "     <path d="M370 423h30v11h-30zm17 12h21v25h-21zm-10 31h21v25h-21z" fill="#30ba30" stroke="#185d18"/>"     "     "     <path d="M395 461h30v4h-30zm4 5h21v25h-21zm0 26h30v20h-30z" stroke="#185d18" fill="#30bb30"/>"     "     "     <path d="M421 466h20v25h-20zm9 26h29v20h-29z" fill="#30bc30" stroke="#185e18"/>"     "     <path d="M207 63h20v25h-20zm6-4h24v3h-24zm7-29h20v25h-20z" stroke="#185e18" fill="#30bd30"/>"     "     "     <path d="M220 56h15v2h-15zm16 0h14v2h-14zm2-55h19v25h-19z" fill="#30be30" stroke="#185f18"/>"     "     "     <path d="M238 27h14v2h-14zm3 3h18v25h-18z" stroke="#185f18" fill="#30bf30"/>"     "     <path d="M253 27h13v2h-13zm5-26h18v25h-18zm-51 88h17v25h-17z" fill="#30c030" stroke="#186018"/>"     "     "     <path d="M207 115h17v25h-17zm0 26h28v8h-28zm25 9h29v5h-29z" stroke="#186018" fill="#30c130"/>"     "     "     <path d="M230 150h1v2h-1zm-5-61h16v25h-16z" fill="#30c230" stroke="#186118"/>"     "     <path d="M228 63h15v25h-15zm10-4h23v3h-23zm13-3h13v2h-13z" stroke="#186118" fill="#30c330"/>"     "     "     <path d="M260 30h15v25h-15zm7-3h13v2h-13zm10-26h15v25h-15z" fill="#30c430" stroke="#186218"/>"     "     "     <path d="M225 115h14v25h-14zm11 26h28v8h-28z" stroke="#186218" fill="#30c530"/>"     "     <path d="M240 115h14v25h-14zm2-26h14v25h-14zm13 26h14v25h-14z" fill="#30c630" stroke="#186318"/>"     "     "     <path d="M244 63h13v25h-13zm13 26h13v25h-13zm1-26h13v25h-13z" stroke="#186318" fill="#30c730"/>"     "     "     <path d="M265 56h30v6h-30zm-3 3h2v3h-2z" fill="#30c830" stroke="#186418"/>"     "     <path d="M276 30h13v25h-13zm5-3h12v2h-12zm12-26h12v25h-12z" stroke="#186418" fill="#30c930"/>"     "     "     <path d="M290 30h12v25h-12zm4-3h12v2h-12zm12-26h12v25h-12z" fill="#30ca30" stroke="#186518"/>"     "     "     <path d="M235 156h11v25h-11zm0 26h9v25h-9z" stroke="#186518" fill="#30cb30"/>"     "     <path d="M235 208h19v1h-19zm16 2h11v2h-11zm-6-28h8v25h-8z" fill="#30cc30" stroke="#186618"/>"     "     "     <path d="M247 156h8v25h-8zm7 26h7v25h-7zm1 26h18v1h-18z" stroke="#186618" fill="#30cd30"/>"     "     "     <path d="M263 210h10v2h-10zm-7-54h7v25h-7z" fill="#30ce30" stroke="#186718"/>"     "     <path d="M262 150h29v5h-29zm3-9h28v8h-28zm5-26h5v25h-5z" stroke="#186718" fill="#30cf30"/>"     "     "     <path d="M271 89h4v25h-4zm1-26h4v25h-4zm-10 119h3v25h-3z" fill="#30d030" stroke="#186818"/>"     "     "     <path d="M264 156h3v25h-3zm2 26h2v25h-2z" stroke="#186818" fill="#30d130"/>"     "     <path d="M268 156h30v24h-30zm24-6h29v5h-29zm-23 31h29v24h-29z" fill="#30d230" stroke="#186918"/>"     "     "     <path d="M274 206h30v6h-30zm-5 0h3v1h-3zm7 7h29v24h-29z" stroke="#186918" fill="#30d330"/>"     "     "     <path d="M300 238h26v10h-26zm-1-82h29v24h-29z" fill="#30d430" stroke="#186a18"/>"     "     <path d="M299 181h27v24h-27zm6 25h29v6h-29zm22-25h27v24h-27z" stroke="#186a18" fill="#30d530"/>"     "     "     <path d="M306 213h25v24h-25zm8 36h25v24h-25zm13-11h26v10h-26z" fill="#30d630" stroke="#186b18"/>"     "     "     <path d="M332 213h24v24h-24zm3-7h27v6h-27z" stroke="#186b18" fill="#30d730"/>"     "     <path d="M314 274h24v24h-24zm0 25h17v1h-17zm14 2h24v24h-24z" fill="#30d830" stroke="#186c18"/>"     "     "     <path d="M351 326h30v14h-30zm-23 0h22v3h-22zm4-27h16v1h-16z" stroke="#186c18" fill="#30d930"/>"     "     "     <path d="M339 274h22v24h-22zm10 25h15v1h-15z" fill="#30da30" stroke="#186d18"/>"     "     <path d="M353 301h22v24h-22zm-13-52h20v24h-20zm14-11h25v10h-25z" stroke="#186d18" fill="#30db30"/>"     "     "     <path d="M361 249h20v24h-20zm1 25h20v24h-20zm3 25h15v1h-15z" fill="#30dc30" stroke="#186e18"/>"     "     "     <path d="M376 301h20v24h-20zm5-2h14v1h-14z" stroke="#186e18" fill="#30dd30"/>"     "     <path d="M357 213h19v24h-19zm1 128h19v24h-19zm12 25h19v24h-19z" fill="#30de30" stroke="#186f18"/>"     "     "     <path d="M374 391h28v5h-28zm-4 0h3v1h-3zm8-50h18v24h-18z" stroke="#186f18" fill="#30df30"/>"     "     "     <path d="M382 326h30v14h-30zm8 40h18v24h-18z" fill="#30e030" stroke="#187018"/>"     "     <path d="M397 341h15v24h-15zm-16 56h15v24h-15zm16 0h15v24h-15z" stroke="#187018" fill="#30e130"/>"     "     "     <path d="M401 422h30v12h-30zm2-31h28v5h-28zm10 6h15v24h-15z" fill="#30e230" stroke="#187118"/>"     "     "     <path d="M429 397h14v24h-14zm-20-31h13v24h-13z" stroke="#187118" fill="#30e330"/>"     "     <path d="M409 435h13v24h-13zm14 0h13v24h-13zm9-13h29v12h-29z" fill="#30e430" stroke="#187218"/>"     "     "     <path d="M426 460h28v5h-28zm11-25h13v24h-13zm14 0h12v24h-12z" stroke="#187218" fill="#30e530"/>"     "     "     <path d="M442 466h12v24h-12zm13-6h12v24h-12z" fill="#30e630" stroke="#187318"/>"     "     <path d="M455 485h27v6h-27zm5 7h29v20h-29zM276 89h11v24h-11z" stroke="#187318" fill="#30e730"/>"     "     "     <path d="M277 63h11v24h-11zm-1 51h10v24h-10zm0 25h13v1h-13z" fill="#30e830" stroke="#187418"/>"     "     "     <path d="M287 114h10v24h-10zm7 25h25v10h-25z" stroke="#187418" fill="#30e930"/>"     "     <path d="M290 139h2v1h-2zm-2-51h10v24h-10zm1-25h9v24h-9z" fill="#30ea30" stroke="#187518"/>"     "     "     <path d="M296 56h27v6h-27zm7-26h9v24h-9zm4-3h9v2h-9z" stroke="#187518" fill="#30eb30"/>"     "     "     <path d="M313 30h9v24h-9zm4-3h9v2h-9z" fill="#30ec30" stroke="#187618"/>"     "     <path d="M323 30h8v24h-8zm-4-29h7v24h-7zm-21 112h7v24h-7z" stroke="#187618" fill="#30ed30"/>"     "     "     <path d="M327 1h5v24h-5zm0 25h23v3h-23zm6-25h5v24h-5z" fill="#30ee30" stroke="#187718"/>"     "     "     <path d="M339 1h4v24h-4zm5 0h3v24h-3z" stroke="#187718" fill="#30ef30"/>"     "     <path d="M348 1h3v24h-3zm-49 62h2v24h-2zm0 25h2v24h-2z" fill="#30f030" stroke="#187818"/>"     "     "     <path d="M302 63h2v24h-2zm0 25h1v24h-1zm2 0h29v23h-29z" stroke="#187818" fill="#31f030"/>"     "     "     <path d="M305 63h29v23h-29zm19-8h29v7h-29z" fill="#32f030" stroke="#197818"/>"     "     <path d="M332 30h28v23h-28zm19-4h21v3h-21zm1-25h26v23h-26z" stroke="#197818" fill="#33f030"/>"     "     "     <path d="M306 112h24v23h-24zm16 24h29v19h-29zm-2 0h1v13h-1z" fill="#34f030" stroke="#1a7818"/>"     "     "     <path d="M306 136h9v2h-9zm10 0h3v2h-3z" stroke="#1a7818" fill="#35f030"/>"     "     <path d="M331 112h24v23h-24zm3-25h22v23h-22zm1-24h22v23h-22z" fill="#36f030" stroke="#1b7818"/>"     "     "     <path d="M354 54h28v8h-28zm7-24h21v23h-21zm12-5h29v4h-29z" stroke="#1b7818" fill="#37f030"/>"     "     "     <path d="M379 1h21v23h-21zm22 0h20v23h-20z" fill="#38f030" stroke="#1c7818"/>"     "     <path d="M329 156h20v23h-20zm21 0h20v23h-20zm2-20h28v19h-28z" stroke="#1c7818" fill="#39f030"/>"     "     "     <path d="M356 111h16v23h-16zm1-24h16v23h-16zm1-24h16v23h-16z" fill="#3af030" stroke="#1d7818"/>"     "     "     <path d="M373 111h15v23h-15zm1-24h14v23h-14z" stroke="#1d7818" fill="#3bf030"/>"     "     <path d="M375 63h14v23h-14zm-20 117h14v23h-14zm8 24h27v8h-27z" fill="#3cf030" stroke="#1e7818"/>"     "     "     <path d="M355 204h7v1h-7zm15-24h14v23h-14zm1-24h13v23h-13z" stroke="#1e7818" fill="#3df030"/>"     "     "     <path d="M381 135h28v20h-28zm-4 78h11v23h-11z" fill="#3ef030" stroke="#1f7818"/>"     "     <path d="M380 237h29v11h-29zm9-24h11v23h-11zm-7 36h11v23h-11z" stroke="#1f7818" fill="#3ff030"/>"     "     "     <path d="M383 273h11v23h-11zm11-24h10v23h-10zm-11 48h12v1h-12z" fill="#40f030" stroke="#207818"/>"     "     "     <path d="M395 273h10v23h-10zm1 24h20v3h-20z" stroke="#207818" fill="#41f030"/>"     "     <path d="M405 249h9v23h-9zm1 24h9v23h-9zm-9 28h8v23h-8z" fill="#42f030" stroke="#217818"/>"     "     "     <path d="M406 301h8v23h-8zM383 30h7v23h-7zm0 24h27v8h-27z" stroke="#217818" fill="#43f030"/>"     "     "     <path d="M391 30h6v23h-6zm7 0h6v23h-6z" fill="#44f030" stroke="#227818"/>"     "     <path d="M403 25h29v4h-29zm19-24h5v23h-5zm6 0h5v23h-5z" stroke="#227818" fill="#45f030"/>"     "     "     <path d="M405 30h5v23h-5zm8 295h5v23h-5zm0 24h29v16h-29z" fill="#46f030" stroke="#237818"/>"     "     "     <path d="M415 301h5v23h-5zm4 24h5v23h-5z" stroke="#237818" fill="#47f030"/>"     "     <path d="M423 366h4v23h-4zm5 0h3v23h-3zm4 0h2v23h-2z" fill="#48f030" stroke="#247818"/>"     "     "     <path d="M432 390h26v6h-26zm3-24h2v23h-2zm3 0h2v23h-2z" stroke="#247818" fill="#49f030"/>"     "     "     <path d="M441 366h1v23h-1zm3 31h1v23h-1z" fill="#4af030" stroke="#257818"/>"     "     <path d="M446 397h1v23h-1zm2 0h30v22h-30zm14 23h30v14h-30z" stroke="#257818" fill="#4bf030"/>"     "     "     <path d="M448 420h12v1h-12zm16 15h29v22h-29zm0 23h12v1h-12z" fill="#4cf030" stroke="#267818"/>"     "     "     <path d="M468 460h29v22h-29zm15 23h27v8h-27z" stroke="#267818" fill="#4df030"/>"     "     <path d="M468 483h12v1h-12zm13 0h1v1h-1zm9 9h27v20h-27z" fill="#4ef030" stroke="#277818"/>"     "     "     <path d="M477 458h12v1h-12zm13 0h12v1h-12zm8 2h29v22h-29z" stroke="#277818" fill="#4ff030"/>"     "     "     <path d="M511 483h25v8h-25zm7 9h27v20h-27z" fill="#50f030" stroke="#287818"/>"     "     <path d="M389 87h29v22h-29zm1-24h28v22h-28zm-1 47h28v22h-28z" stroke="#287818" fill="#51f030"/>"     "     "     <path d="M389 133h11v1h-11zm12 0h11v1h-11zm10-103h27v22h-27z" fill="#52f030" stroke="#297818"/>"     "     "     <path d="M433 25h26v4h-26zm-22 28h24v9h-24z" stroke="#297818" fill="#53f030"/>"     "     <path d="M434 1h26v22h-26zm-49 155h26v22h-26zm25-21h25v20h-25z" fill="#54f030" stroke="#2a7818"/>"     "     "     <path d="M413 133h10v1h-10zm5-23h26v22h-26zm6 23h10v1h-10z" stroke="#2a7818" fill="#55f030"/>"     "     "     <path d="M435 133h6v1h-6zm-50 46h25v22h-25z" fill="#56f030" stroke="#2b7818"/>"     "     <path d="M391 202h24v10h-24zm-6 0h5v1h-5zm26-23h25v22h-25z" stroke="#2b7818" fill="#57f030"/>"     "     "     <path d="M412 156h25v22h-25zm24-21h25v20h-25zm6-2h6v1h-6z" fill="#58f030" stroke="#2c7818"/>"     "     "     <path d="M401 213h24v22h-24zm15-11h24v10h-24z" stroke="#2c7818" fill="#59f030"/>"     "     <path d="M437 179h23v22h-23zm1-23h23v22h-23zm-28 80h28v12h-28z" fill="#5af030" stroke="#2d7818"/>"     "     "     <path d="M426 213h22v22h-22zm15-11h24v10h-24zm20-23h22v22h-22z" stroke="#2d7818" fill="#5bf030"/>"     "     "     <path d="M415 249h22v22h-22zm1 23h22v22h-22z" fill="#5cf030" stroke="#2e7818"/>"     "     <path d="M438 249h22v22h-22zm1-13h27v12h-27zm10-23h21v22h-21z" stroke="#2e7818" fill="#5df030"/>"     "     "     <path d="M466 202h24v10h-24zm-49 93h28v5h-28zm22-23h20v22h-20z" fill="#5ef030" stroke="#2f7818"/>"     "     "     <path d="M421 301h20v22h-20zm4 23h20v22h-20z" stroke="#2f7818" fill="#5ff030"/>"     "     <path d="M442 301h20v22h-20zm4-6h26v5h-26zm14-23h20v22h-20z" fill="#60f030" stroke="#307818"/>"     "     "     <path d="M461 249h19v22h-19zm6-13h27v12h-27zm4-23h19v22h-19z" stroke="#307818" fill="#61f030"/>"     "     "     <path d="M425 347h5v1h-5zm6 0h5v1h-5z" fill="#62f030" stroke="#317818"/>"     "     <path d="M437 347h5v1h-5zm6 0h18v22h-18zm0 23h26v19h-26z" stroke="#317818" fill="#63f030"/>"     "     "     <path d="M459 390h26v6h-26zm20 7h18v22h-18zm14 23h29v14h-29z" fill="#64f030" stroke="#327818"/>"     "     "     <path d="M494 435h17v22h-17zm9 23h2v1h-2z" stroke="#327818" fill="#65f030"/>"     "     <path d="M446 324h15v22h-15zm66 111h14v22h-14zm-50-111h14v22h-14z" fill="#66f030" stroke="#337818"/>"     "     "     <path d="M463 301h14v22h-14zm10-6h25v5h-25zm-11 52h13v22h-13z" stroke="#337818" fill="#67f030"/>"     "     "     <path d="M470 370h25v19h-25zm16 20h26v6h-26z" fill="#68f030" stroke="#347818"/>"     "     <path d="M498 397h12v22h-12zm13 0h10v22h-10zm-35-50h7v22h-7z" stroke="#347818" fill="#69f030"/>"     "     "     <path d="M477 324h7v22h-7zm7 23h6v22h-6zm-6-46h5v22h-5z" fill="#6af030" stroke="#357818"/>"     "     "     <path d="M484 301h5v22h-5zm1 23h5v22h-5z" stroke="#357818" fill="#6bf030"/>"     "     <path d="M490 301h4v22h-4zm1 23h3v22h-3zm0 23h3v22h-3z" fill="#6cf030" stroke="#367818"/>"     "     "     <path d="M481 249h2v22h-2zm0 23h2v22h-2zm3-23h1v22h-1z" stroke="#367818" fill="#6df030"/>"     "     "     <path d="M484 272h1v22h-1zm2-23h30v21h-30z" fill="#6ef030" stroke="#377818"/>"     "     <path d="M486 271h29v21h-29zM419 63h28v21h-28zm17-10h22v9h-22z" stroke="#377818" fill="#6ff030"/>"     "     "     <path d="M439 30h28v21h-28zm21-6h24v5h-24zm1-23h28v21h-28z" fill="#70f030" stroke="#387818"/>"     "     "     <path d="M419 85h27v21h-27zm0 22h8v2h-8z" stroke="#387818" fill="#71f030"/>"     "     <path d="M428 107h7v2h-7zm8 0h6v2h-6zm7 0h6v2h-6z" fill="#72f030" stroke="#397818"/>"     "     "     <path d="M447 85h27v21h-27zm1-22h26v21h-26zm11-11h24v10h-24z" stroke="#397818" fill="#73f030"/>"     "     "     <path d="M468 30h25v21h-25zm17-7h25v6h-25z" fill="#74f030" stroke="#3a7818"/>"     "     <path d="M490 1h25v21h-25zm-45 109h23v21h-23zm5-3h6v2h-6z" stroke="#3a7818" fill="#75f030"/>"     "     "     <path d="M457 107h5v2h-5zm6 0h5v2h-5zm-14 25h5v2h-5z" fill="#76f030" stroke="#3b7818"/>"     "     "     <path d="M455 132h3v2h-3zm4 0h2v2h-2z" stroke="#3b7818" fill="#77f030"/>"     "     <path d="M462 132h23v21h-23zm7-25h22v21h-22zm0 22h2v2h-2z" fill="#78f030" stroke="#3c7818"/>"     "     "     <path d="M462 154h22v21h-22zm22 22h21v21h-21zm1-22h21v21h-21z" stroke="#3c7818" fill="#79f030"/>"     "     "     <path d="M484 198h20v3h-20zm2-69h20v21h-20z" fill="#7af030" stroke="#3d7818"/>"     "     <path d="M491 202h20v21h-20zm14-4h20v3h-20zm1-22h19v21h-19z" stroke="#3d7818" fill="#7bf030"/>"     "     "     <path d="M491 224h29v11h-29zm21-22h19v21h-19zm-17 34h26v12h-26z" fill="#7cf030" stroke="#3e7818"/>"     "     "     <path d="M521 224h29v11h-29zM475 63h19v21h-19z" stroke="#3e7818" fill="#7df030"/>"     "     <path d="M484 52h23v10h-23zm10-22h18v21h-18zm17-7h25v6h-25z" fill="#7ef030" stroke="#3f7818"/>"     "     "     <path d="M516 1h18v21h-18zm19 0h18v21h-18zm-60 84h17v21h-17z" stroke="#3f7818" fill="#7ff030"/>"     "     "     <path d="M492 107h16v21h-16zm1-22h16v21h-16z" fill="#80f030" stroke="#407818"/>"     "     <path d="M495 63h16v21h-16zm13-11h22v10h-22zm5-22h15v21h-15z" stroke="#407818" fill="#81f030"/>"     "     "     <path d="M529 30h15v21h-15zm8-7h25v6h-25zm17-22h15v21h-15z" fill="#82f030" stroke="#417818"/>"     "     "     <path d="M507 129h14v21h-14zm2-22h14v21h-14z" stroke="#417818" fill="#83f030"/>"     "     <path d="M510 85h14v21h-14zm2-22h13v21h-13zm-5 88h12v21h-12z" fill="#84f030" stroke="#427818"/>"     "     "     <path d="M520 151h11v21h-11zm2-22h11v21h-11zm2-22h11v21h-11z" stroke="#427818" fill="#85f030"/>"     "     "     <path d="M525 85h11v21h-11zm1-22h11v21h-11z" fill="#86f030" stroke="#437818"/>"     "     <path d="M531 52h21v10h-21zm14-22h10v21h-10zm-19 143h10v21h-10z" stroke="#437818" fill="#87f030"/>"     "     "     <path d="M526 195h24v6h-24zm6-44h9v21h-9zm5 22h8v21h-8z" fill="#88f030" stroke="#447818"/>"     "     "     <path d="M534 129h8v21h-8zm8 22h8v21h-8z" stroke="#447818" fill="#89f030"/>"     "     <path d="M546 173h8v21h-8zm-10-66h8v21h-8zm7 22h7v21h-7z" fill="#8af030" stroke="#457818"/>"     "     "     <path d="M537 85h7v21h-7zm1-22h6v21h-6zm-6 139h6v21h-6z" stroke="#457818" fill="#8bf030"/>"     "     "     <path d="M539 202h5v21h-5zm6 0h3v21h-3z" fill="#8cf030" stroke="#467818"/>"     "     <path d="M549 202h2v21h-2zm2-7h24v6h-24zm-6-132h2v21h-2z" stroke="#467818" fill="#8df030"/>"     "     "     <path d="M545 85h2v21h-2zm0 22h1v21h-1zm2 0h1v21h-1z" fill="#8ef030" stroke="#477818"/>"     "     "     <path d="M548 63h1v21h-1zm0 22h23v20h-23z" stroke="#477818" fill="#8ff030"/>"     "     <path d="M550 63h22v20h-22zm3-11h21v10h-21zm3-22h21v20h-21z" fill="#90f030" stroke="#487818"/>"     "     "     <path d="M563 23h24v6h-24zm7-22h21v20h-21zm-21 105h20v20h-20z" stroke="#487818" fill="#91f030"/>"     "     "     <path d="M551 127h20v20h-20zm19-21h19v20h-19z" fill="#92f030" stroke="#497818"/>"     "     <path d="M572 84h18v20h-18zm1-21h17v20h-17zm2-12h29v11h-29z" stroke="#497818" fill="#93f030"/>"     "     "     <path d="M578 30h16v20h-16zm10-8h29v7h-29zm7 8h16v20h-16z" fill="#94f030" stroke="#4a7818"/>"     "     "     <path d="M592 1h16v20h-16zm17 0h15v20h-15z" stroke="#4a7818" fill="#95f030"/>"     "     <path d="M551 148h14v20h-14zm0 21h18v3h-18zm15-21h13v20h-13z" fill="#96f030" stroke="#4b7818"/>"     "     "     <path d="M572 127h12v20h-12zm-17 46h12v20h-12zm13 0h11v20h-11z" stroke="#4b7818" fill="#97f030"/>"     "     "     <path d="M570 169h18v3h-18zm10-21h11v20h-11z" fill="#98f030" stroke="#4c7818"/>"     "     <path d="M585 127h10v20h-10zm5-22h10v20h-10zm1-42h9v20h-9z" stroke="#4c7818" fill="#99f030"/>"     "     "     <path d="M591 84h9v20h-9zm-96 217h9v20h-9zm4-8h28v7h-28z" fill="#9af030" stroke="#4d7818"/>"     "     "     <path d="M516 271h8v20h-8zm1-22h8v20h-8z" stroke="#4d7818" fill="#9bf030"/>"     "     <path d="M522 236h26v12h-26zm3 34h6v20h-6zm1-21h5v20h-5z" fill="#9cf030" stroke="#4e7818"/>"     "     "     <path d="M495 322h5v20h-5zm0 21h3v20h-3zm0 21h23v5h-23z" stroke="#4e7818" fill="#9df030"/>"     "     "     <path d="M496 370h25v19h-25zm17 20h22v6h-22z" fill="#9ef030" stroke="#4f7818"/>"     "     <path d="M499 343h3v20h-3zm2-21h2v20h-2zm2 21h2v20h-2z" stroke="#4f7818" fill="#9ff030"/>"     "     "     <path d="M504 322h1v20h-1zm1-21h24v19h-24zm23-10h21v9h-21z" fill="#a0f030" stroke="#507818"/>"     "     "     <path d="M522 397h24v19h-24zm1 20h30v17h-30z" stroke="#507818" fill="#a1f030"/>"     "     <path d="M527 435h23v19h-23zm0 20h26v4h-26zm24-20h23v19h-23z" fill="#a2f030" stroke="#517818"/>"     "     "     <path d="M528 460h23v19h-23zm9 20h28v11h-28zm15-20h22v19h-22z" stroke="#517818" fill="#a3f030"/>"     "     "     <path d="M554 455h24v4h-24zm-8 37h20v19h-20z" fill="#a4f030" stroke="#527818"/>"     "     <path d="M566 480h28v11h-28zm9-20h20v19h-20zm-8 32h20v19h-20z" stroke="#527818" fill="#a5f030"/>"     "     "     <path d="M588 492h19v19h-19zm7-12h27v11h-27zm13 12h19v19h-19z" fill="#a6f030" stroke="#537818"/>"     "     "     <path d="M532 249h18v19h-18zm17-13h25v12h-25z" stroke="#537818" fill="#a7f030"/>"     "     <path d="M551 224h27v11h-27zm1-22h16v19h-16zm17 0h15v19h-15z" fill="#a8f030" stroke="#547818"/>"     "     "     <path d="M576 194h28v7h-28zm4-21h15v19h-15zm9-4h18v3h-18z" stroke="#547818" fill="#a9f030"/>"     "     "     <path d="M596 173h13v19h-13zm-4-25h13v19h-13z" fill="#aaf030" stroke="#557818"/>"     "     <path d="M596 126h13v19h-13zm-64 143h13v19h-13zm14 0h11v19h-11z" stroke="#557818" fill="#abf030"/>"     "     "     <path d="M551 249h11v19h-11zm55-103h10v19h-10zm2 20h22v6h-22z" fill="#acf030" stroke="#567818"/>"     "     "     <path d="M506 321h8v19h-8zm0 20h7v19h-7z" stroke="#567818" fill="#adf030"/>"     "     <path d="M514 341h6v19h-6zm5 20h24v8h-24zm3 9h6v19h-6z" fill="#aef030" stroke="#577818"/>"     "     "     <path d="M529 370h5v19h-5zm6 0h5v19h-5zm1 20h20v6h-20z" stroke="#577818" fill="#aff030"/>"     "     "     <path d="M547 397h3v19h-3zm4 0h3v19h-3z" fill="#b0f030" stroke="#587818"/>"     "     <path d="M554 417h30v17h-30zm21 18h2v19h-2zm3 0h1v19h-1z" stroke="#587818" fill="#b1f030"/>"     "     "     <path d="M579 455h23v4h-23zm17 5h1v19h-1zm2 0h1v19h-1z" fill="#b2f030" stroke="#597818"/>"     "     "     <path d="M600 460h28v18h-28zm23 19h25v12h-25z" stroke="#597818" fill="#b3f030"/>"     "     <path d="M580 435h28v18h-28zm23 19h23v5h-23zm-48-57h27v18h-27z" fill="#b4f030" stroke="#5a7818"/>"     "     "     <path d="M541 370h27v18h-27zm16 19h27v7h-27zm26 8h27v18h-27z" stroke="#5a7818" fill="#b5f030"/>"     "     "     <path d="M585 416h26v18h-26zm24 19h23v18h-23z" fill="#b6f030" stroke="#5b7818"/>"     "     <path d="M627 454h22v5h-22zm2 6h23v18h-23zM515 321h23v18h-23z" stroke="#5b7818" fill="#b7f030"/>"     "     "     <path d="M530 301h22v18h-22zm20-12h27v11h-27zm8-20h21v18h-21z" fill="#b8f030" stroke="#5c7818"/>"     "     "     <path d="M563 249h21v18h-21zm12-13h24v12h-24z" stroke="#5c7818" fill="#b9f030"/>"     "     <path d="M579 222h30v13h-30zm6-20h21v18h-21zm20-9h24v8h-24z" fill="#baf030" stroke="#5d7818"/>"     "     "     <path d="M610 173h19v18h-19zm-3 29h19v18h-19zm21 290h18v18h-18z" stroke="#5d7818" fill="#bbf030"/>"     "     "     <path d="M647 492h18v18h-18zm2-13h24v12h-24z" fill="#bcf030" stroke="#5e7818"/>"     "     <path d="M666 492h17v18h-17zM521 340h17v18h-17zm18-20h17v18h-17z" stroke="#5e7818" fill="#bdf030"/>"     "     "     <path d="M553 301h16v18h-16zm-14 38h14v18h-14zm5 19h26v11h-26z" fill="#bef030" stroke="#5f7818"/>"     "     "     <path d="M569 370h14v18h-14zm-15-31h14v18h-14z" stroke="#5f7818" fill="#bff030"/>"     "     <path d="M557 320h13v18h-13zm13-19h13v18h-13zm8-13h23v12h-23z" fill="#c0f030" stroke="#607818"/>"     "     "     <path d="M569 339h13v18h-13zm2 19h26v11h-26zm13 12h12v18h-12z" stroke="#607818" fill="#c1f030"/>"     "     "     <path d="M585 389h26v7h-26zm26 8h11v18h-11z" fill="#c2f030" stroke="#617818"/>"     "     <path d="M612 416h11v18h-11zm-15-46h11v18h-11zm-26-50h11v18h-11z" stroke="#617818" fill="#c3f030"/>"     "     "     <path d="M580 268h10v18h-10zm5-19h10v18h-10zm6 19h10v18h-10z" fill="#c4f030" stroke="#627818"/>"     "     "     <path d="M596 249h9v18h-9zm4-13h23v12h-23z" stroke="#627818" fill="#c5f030"/>"     "     <path d="M610 221h29v14h-29zm17-19h8v18h-8zm3-29h8v18h-8z" fill="#c6f030" stroke="#637818"/>"     "     "     <path d="M630 192h21v9h-21zm6 10h7v18h-7zm-53 118h7v18h-7z" stroke="#637818" fill="#c7f030"/>"     "     "     <path d="M584 301h7v18h-7zm-1 38h7v18h-7z" fill="#c8f030" stroke="#647818"/>"     "     <path d="M591 320h6v18h-6zm1-19h6v18h-6zm-1 38h6v18h-6z" stroke="#647818" fill="#c9f030"/>"     "     "     <path d="M598 320h5v18h-5zm1-19h4v18h-4zm-1 38h4v18h-4z" fill="#caf030" stroke="#657818"/>"     "     "     <path d="M598 358h23v11h-23zm11 12h3v18h-3z" stroke="#657818" fill="#cbf030"/>"     "     <path d="M612 389h26v7h-26zm11 8h3v18h-3zm1 19h3v18h-3z" fill="#ccf030" stroke="#667818"/>"     "     "     <path d="M627 397h2v18h-2zm1 19h28v17h-28zm2-19h28v17h-28z" stroke="#667818" fill="#cdf030"/>"     "     "     <path d="M613 370h28v17h-28zm26 18h24v8h-24z" fill="#cef030" stroke="#677818"/>"     "     <path d="M603 339h27v17h-27zm19 18h22v12h-22zm20 13h25v17h-25z" stroke="#677818" fill="#cff030"/>"     "     "     <path d="M633 434h24v17h-24zm17 18h26v7h-26zm7-37h24v17h-24z" fill="#d0f030" stroke="#687818"/>"     "     "     <path d="M659 397h22v17h-22zm5-9h24v8h-24z" stroke="#687818" fill="#d1f030"/>"     "     <path d="M658 433h22v17h-22zm-5 27h22v17h-22zm21 18h30v13h-30z" fill="#d2f030" stroke="#697818"/>"     "     "     <path d="M676 460h21v17h-21zm1-9h24v8h-24zm21 9h21v17h-21z" stroke="#697818" fill="#d3f030"/>"     "     "     <path d="M681 433h21v17h-21zm21 18h23v8h-23z" fill="#d4f030" stroke="#6a7818"/>"     "     <path d="M684 492h20v17h-20zm-82-224h19v17h-19zm0 18h27v14h-27z" stroke="#6a7818" fill="#d5f030"/>"     "     "     <path d="M606 249h19v17h-19zm18-13h22v12h-22zm16-15h27v14h-27z" fill="#d6f030" stroke="#6b7818"/>"     "     "     <path d="M644 202h19v17h-19zm-22 65h18v17h-18z" stroke="#6b7818" fill="#d7f030"/>"     "     <path d="M626 249h18v17h-18zm79 229h18v17h-18zm15-18h17v17h-17z" fill="#d8f030" stroke="#6c7818"/>"     "     "     <path d="M705 496h29v16h-29zm19-18h17v17h-17zm11 18h29v16h-29z" stroke="#6c7818" fill="#d9f030"/>"     "     "     <path d="M682 397h17v17h-17zm0 18h16v17h-16z" fill="#daf030" stroke="#6d7818"/>"     "     <path d="M699 415h16v17h-16zm4 18h16v17h-16zm-99-132h16v17h-16z" stroke="#6d7818" fill="#dbf030"/>"     "     "     <path d="M604 319h15v17h-15zm16 0h14v17h-14zm1-18h14v17h-14z" fill="#dcf030" stroke="#6e7818"/>"     "     "     <path d="M630 285h29v15h-29zm11-18h14v17h-14z" stroke="#6e7818" fill="#ddf030"/>"     "     <path d="M645 249h14v17h-14zm11 18h14v17h-14zm-9-31h22v12h-22z" fill="#def030" stroke="#6f7818"/>"     "     "     <path d="M660 249h14v17h-14zm-29 88h13v17h-13zm4-18h13v17h-13z" stroke="#6f7818" fill="#dff030"/>"     "     "     <path d="M636 301h12v17h-12zm9 36h12v17h-12z" fill="#e0f030" stroke="#707818"/>"     "     <path d="M645 355h26v14h-26zm23 15h12v17h-12zm-19-69h12v17h-12z" stroke="#707818" fill="#e1f030"/>"     "     "     <path d="M660 285h27v15h-27zm11-18h12v17h-12zm-22 52h11v17h-11z" fill="#e2f030" stroke="#717818"/>"     "     "     <path d="M658 337h9v17h-9zm3-18h9v17h-9z" stroke="#717818" fill="#e3f030"/>"     "     <path d="M668 337h9v17h-9zm4 18h26v14h-26zm9 15h8v17h-8z" fill="#e4f030" stroke="#727818"/>"     "     "     <path d="M689 388h23v8h-23zm11 9h8v17h-8zm9 0h8v17h-8z" stroke="#727818" fill="#e5f030"/>"     "     "     <path d="M716 415h8v17h-8zm4 18h8v17h-8z" fill="#e6f030" stroke="#737818"/>"     "     <path d="M726 451h23v8h-23zm12 9h7v17h-7zm4 18h4v17h-4z" stroke="#737818" fill="#e7f030"/>"     "     "     <path d="M746 460h4v17h-4zm1 18h4v17h-4zm-57-108h3v17h-3z" fill="#e8f030" stroke="#747818"/>"     "     "     <path d="M694 370h3v17h-3zm4 0h1v17h-1z" stroke="#747818" fill="#e9f030"/>"     "     <path d="M662 301h1v17h-1zm2 0h29v16h-29zm7 17h28v16h-28z" fill="#eaf030" stroke="#757818"/>"     "     "     <path d="M678 335h28v16h-28zm21 17h27v16h-27zm1 17h27v16h-27z" stroke="#757818" fill="#ebf030"/>"     "     "     <path d="M713 386h19v10h-19zm5 11h26v16h-26z" fill="#ecf030" stroke="#767818"/>"     "     <path d="M725 414h22v16h-22zm4 17h22v16h-22zm21 17h23v11h-23z" stroke="#767818" fill="#edf030"/>"     "     "     <path d="M751 460h22v16h-22zm1 17h21v16h-21zm13 17h20v16h-20z" fill="#eef030" stroke="#777818"/>"     "     "     <path d="M601 63h19v16h-19zm4-12h22v11h-22z" stroke="#777818" fill="#eff030"/>"     "     <path d="M612 30h18v16h-18zm6-8h26v7h-26zm-6 25h17v3h-17z" fill="#f0f030" stroke="#787818"/>"     "     "     <path d="M625 1h18v16h-18zm0 17h17v3h-17zm18 0h15v3h-15z" stroke="#787818" fill="#f0f031"/>"     "     "     <path d="M644 1h17v16h-17zm-43 79h16v16h-16z" fill="#f0f032" stroke="#787819"/>"     "     <path d="M601 97h15v16h-15zm0 17h22v11h-22zm16-17h15v16h-15z" stroke="#787819" fill="#f0f033"/>"     "     "     <path d="M618 80h15v16h-15zm3-17h14v16h-14zm9-16h27v15h-27z" fill="#f0f034" stroke="#78781a"/>"     "     "     <path d="M628 51h1v11h-1zm3-21h14v16h-14z" stroke="#78781a" fill="#f0f035"/>"     "     <path d="M645 22h26v7h-26zm14-4h14v3h-14zm3-17h13v16h-13z" fill="#f0f036" stroke="#78781b"/>"     "     "     <path d="M646 30h13v16h-13zm-36 96h13v16h-13zm7 17h12v16h-12z" stroke="#78781b" fill="#f0f037"/>"     "     "     <path d="M617 160h22v5h-22zm14 6h20v6h-20z" fill="#f0f038" stroke="#78781c"/>"     "     <path d="M639 173h12v16h-12zm-15-59h11v16h-11zm0 17h22v11h-22z" stroke="#78781c" fill="#f0f039"/>"     "     "     <path d="M633 97h11v16h-11zm3 17h11v16h-11zm-2-34h11v16h-11z" fill="#f0f03a" stroke="#78781d"/>"     "     "     <path d="M645 97h10v16h-10zm-9-34h10v16h-10z" stroke="#78781d" fill="#f0f03b"/>"     "     <path d="M646 80h10v16h-10zm1-17h9v16h-9zm-17 80h9v16h-9z" fill="#f0f03c" stroke="#78781e"/>"     "     "     <path d="M640 143h7v16h-7zm7-12h21v11h-21zm-7 29h22v5h-22z" stroke="#78781e" fill="#f0f03d"/>"     "     "     <path d="M648 114h7v16h-7zm0 29h5v16h-5z" fill="#f0f03e" stroke="#78781f"/>"     "     <path d="M654 143h5v16h-5zm6 0h3v16h-3zm-4-46h1v16h-1z" stroke="#78781f" fill="#f0f03f"/>"     "     "     <path d="M656 114h27v15h-27zm1-51h26v15h-26zm1-16h26v15h-26z" fill="#f0f040" stroke="#787820"/>"     "     "     <path d="M660 30h26v15h-26zm12-8h25v7h-25z" stroke="#787820" fill="#f0f041"/>"     "     <path d="M674 18h13v3h-13zm2-17h25v15h-25zm12 16h22v4h-22z" fill="#f0f042" stroke="#787821"/>"     "     "     <path d="M702 1h25v15h-25zm-45 78h24v15h-24zm1 16h23v15h-23z" stroke="#787821" fill="#f0f043"/>"     "     "     <path d="M682 79h23v15h-23zm2-16h22v15h-22z" fill="#f0f044" stroke="#787822"/>"     "     <path d="M685 46h22v15h-22zm2-16h21v15h-21zm11-8h25v7h-25z" stroke="#787822" fill="#f0f045"/>"     "     "     <path d="M711 17h22v4h-22zm17-16h21v15h-21zm-46 94h20v15h-20z" fill="#f0f046" stroke="#787823"/>"     "     "     <path d="M652 166h20v15h-20zm11-6h21v5h-21z" stroke="#787823" fill="#f0f047"/>"     "     <path d="M664 143h20v15h-20zm5-13h21v12h-21zm15-19h19v15h-19z" fill="#f0f048" stroke="#787824"/>"     "     "     <path d="M703 95h18v15h-18zm3-16h18v15h-18zm1-17h18v15h-18z" stroke="#787824" fill="#f0f049"/>"     "     "     <path d="M708 46h17v15h-17zm1-16h15v15h-15z" fill="#f0f04a" stroke="#787825"/>"     "     <path d="M724 22h25v7h-25zm10-5h22v4h-22zm16-16h15v15h-15z" stroke="#787825" fill="#f0f04b"/>"     "     "     <path d="M725 30h14v15h-14zm-73 152h14v15h-14zm0 16h13v3h-13z" fill="#f0f04c" stroke="#787826"/>"     "     "     <path d="M664 202h14v15h-14zm2-4h13v3h-13z" stroke="#787826" fill="#f0f04d"/>"     "     <path d="M667 182h14v15h-14zm6-16h13v15h-13zm-5 52h12v15h-12z" fill="#f0f04e" stroke="#787827"/>"     "     "     <path d="M670 234h26v14h-26zm9-32h11v15h-11zm2 16h11v15h-11z" stroke="#787827" fill="#f0f04f"/>"     "     "     <path d="M680 198h12v3h-12zm11 4h11v15h-11z" fill="#f0f050" stroke="#787828"/>"     "     <path d="M693 218h10v15h-10zm-11-36h10v15h-10zm-7 67h10v15h-10z" stroke="#787828" fill="#f0f051"/>"     "     "     <path d="M684 265h9v15h-9zm0 16h11v3h-11zm4 4h9v15h-9z" fill="#f0f052" stroke="#787829"/>"     "     "     <path d="M686 249h9v15h-9zm8 16h9v15h-9z" stroke="#787829" fill="#f0f053"/>"     "     <path d="M696 281h11v3h-11zm0-32h9v15h-9zm1-15h24v14h-24z" fill="#f0f054" stroke="#78782a"/>"     "     "     <path d="M704 265h8v15h-8zm2-16h7v15h-7zm-12 52h6v15h-6z" stroke="#78782a" fill="#f0f055"/>"     "     "     <path d="M698 285h5v15h-5zm2 32h5v15h-5z" fill="#f0f056" stroke="#78782b"/>"     "     <path d="M701 301h5v15h-5zm3-16h5v15h-5zm4-4h9v3h-9z" stroke="#78782b" fill="#f0f057"/>"     "     "     <path d="M713 265h3v15h-3zm1-16h3v15h-3zm3 16h2v15h-2z" fill="#f0f058" stroke="#78782c"/>"     "     "     <path d="M718 249h2v15h-2zm-12 68h1v15h-1z" stroke="#78782c" fill="#f0f059"/>"     "     <path d="M707 301h1v15h-1zm0 32h1v15h-1zm1-16h1v15h-1z" fill="#f0f05a" stroke="#78782d"/>"     "     "     <path d="M709 301h1v15h-1zm1-16h24v14h-24zm8-4h9v3h-9z" stroke="#78782d" fill="#f0f05b"/>"     "     "     <path d="M720 265h24v14h-24zm8 15h22v4h-22z" fill="#f0f05c" stroke="#78782e"/>"     "     <path d="M721 249h24v14h-24zm24 15h23v14h-23zm-36 69h23v14h-23z" stroke="#78782e" fill="#f0f05d"/>"     "     "     <path d="M709 348h8v3h-8zm9 0h7v3h-7zm8 0h7v3h-7z" fill="#f0f05e" stroke="#78782f"/>"     "     "     <path d="M710 317h23v14h-23zm23 15h22v14h-22z" stroke="#78782f" fill="#f0f05f"/>"     "     <path d="M727 352h22v14h-22zm7-5h22v4h-22zm-23-47h22v14h-22z" fill="#f0f060" stroke="#787830"/>"     "     "     <path d="M728 367h20v14h-20zm5 15h19v14h-19zm-5 0h4v3h-4z" stroke="#787830" fill="#f0f061"/>"     "     "     <path d="M749 367h16v14h-16zm1-15h16v14h-16z" fill="#f0f062" stroke="#787831"/>"     "     <path d="M745 397h15v14h-15zm8-15h15v14h-15zm13-15h14v14h-14z" stroke="#787831" fill="#f0f063"/>"     "     "     <path d="M748 412h14v14h-14zm13-15h14v14h-14zm8-15h13v14h-13z" fill="#f0f064" stroke="#787832"/>"     "     "     <path d="M748 427h6v3h-6zm4 4h13v14h-13z" stroke="#787832" fill="#f0f065"/>"     "     <path d="M755 427h6v3h-6zm7 0h6v3h-6zm1-15h12v14h-12z" fill="#f0f066" stroke="#787833"/>"     "     "     <path d="M766 431h11v14h-11zm3-4h6v3h-6zm-84-284h11v14h-11z" stroke="#787833" fill="#f0f067"/>"     "     "     <path d="M685 158h25v7h-25zm6-31h10v14h-10z" fill="#f0f068" stroke="#787834"/>"     "     <path d="M697 142h10v14h-10zm5-15h9v14h-9zm6 15h7v14h-7z" stroke="#787834" fill="#f0f069"/>"     "     "     <path d="M704 111h7v14h-7zm-17 55h6v14h-6zm6 15h6v14h-6z" fill="#f0f06a" stroke="#787835"/>"     "     "     <path d="M693 196h21v5h-21zm1-30h6v14h-6z" stroke="#787835" fill="#f0f06b"/>"     "     <path d="M700 181h5v14h-5zm1-15h5v14h-5zm5 15h4v14h-4z" fill="#f0f06c" stroke="#787836"/>"     "     "     <path d="M707 166h3v14h-3zm-4 36h3v14h-3zm1 15h2v14h-2z" stroke="#787836" fill="#f0f06d"/>"     "     "     <path d="M712 111h2v14h-2zm0 15h1v14h-1z" fill="#f0f06e" stroke="#787837"/>"     "     <path d="M714 126h1v14h-1zm1-15h1v14h-1zm19 189h1v14h-1z" stroke="#787837" fill="#f0f06f"/>"     "     "     <path d="M735 285h30v13h-30zm16-6h20v5h-20zm-17 36h29v13h-29z" fill="#f0f070" stroke="#787838"/>"     "     "     <path d="M736 299h29v13h-29zm20 30h28v13h-28z" stroke="#787838" fill="#f0f071"/>"     "     <path d="M757 343h23v8h-23zm10 9h28v13h-28zm14-9h22v8h-22z" fill="#f0f072" stroke="#787839"/>"     "     "     <path d="M781 366h27v13h-27zm15-14h27v13h-27zm-32-39h26v13h-26z" stroke="#787839" fill="#f0f073"/>"     "     "     <path d="M785 327h26v13h-26zm19 14h19v10h-19z" fill="#f0f074" stroke="#78783a"/>"     "     <path d="M766 285h26v13h-26zm0 14h22v13h-22zm23 0h21v13h-21z" stroke="#78783a" fill="#f0f075"/>"     "     "     <path d="M791 313h20v13h-20zm-84-111h19v13h-19zm0 14h17v13h-17z" fill="#f0f076" stroke="#78783b"/>"     "     "     <path d="M707 230h5v3h-5zm6 0h1v3h-1z" stroke="#78783b" fill="#f0f077"/>"     "     <path d="M715 230h1v3h-1zm2 0h1v3h-1zm5 0h16v13h-16z" fill="#f0f078" stroke="#78783c"/>"     "     "     <path d="M722 244h22v4h-22zm3-28h16v13h-16zm14 14h16v13h-16z" stroke="#78783c" fill="#f0f079"/>"     "     "     <path d="M745 244h21v4h-21zm1 5h14v13h-14z" fill="#f0f07a" stroke="#78783d"/>"     "     <path d="M761 249h14v13h-14zm8 14h13v13h-13zm3 14h25v7h-25z" stroke="#78783d" fill="#f0f07b"/>"     "     "     <path d="M793 285h12v13h-12zm-17 112h11v13h-11zm7-17h11v13h-11z" fill="#f0f07c" stroke="#78783e"/>"     "     "     <path d="M776 411h11v13h-11zm0 14h19v5h-19z" stroke="#78783e" fill="#f0f07d"/>"     "     <path d="M788 394h11v13h-11zm7-14h9v13h-9zm-7 28h9v13h-9z" fill="#f0f07e" stroke="#78783f"/>"     "     "     <path d="M711 157h9v13h-9zm0 14h8v13h-8zm0 14h18v10h-18z" stroke="#78783f" fill="#f0f07f"/>"     "     "     <path d="M715 196h16v5h-16zm12 6h7v13h-7z" fill="#f0f080" stroke="#787840"/>"     "     <path d="M720 171h6v13h-6zm-4-45h6v13h-6zm1-15h5v13h-5z" stroke="#787840" fill="#f0f081"/>"     "     "     <path d="M722 95h5v13h-5zm3-17h4v13h-4zm-9 62h3v13h-3z" fill="#f0f082" stroke="#787841"/>"     "     "     <path d="M720 140h3v13h-3zm1 14h3v13h-3z" stroke="#787841" fill="#f0f083"/>"     "     <path d="M723 109h3v13h-3zm0 14h2v13h-2zm1 14h2v13h-2z" fill="#f0f084" stroke="#787842"/>"     "     "     <path d="M726 123h1v13h-1zm1-14h21v12h-21zm1-17h21v12h-21z" stroke="#787842" fill="#f0f085"/>"     "     "     <path d="M725 151h20v12h-20zm0 13h20v6h-20z" fill="#f0f086" stroke="#787843"/>"     "     <path d="M727 137h20v12h-20zm0 34h19v12h-19zm3 13h21v11h-21z" stroke="#787843" fill="#f0f087"/>"     "     "     <path d="M732 196h15v5h-15zm3 6h18v12h-18zm13-6h15v5h-15z" fill="#f0f088" stroke="#787844"/>"     "     "     <path d="M742 215h18v12h-18zm12-13h18v12h-18z" stroke="#787844" fill="#f0f089"/>"     "     <path d="M728 122h17v12h-17zm18 0h16v12h-16zm10 106h16v12h-16z" fill="#f0f08a" stroke="#787845"/>"     "     "     <path d="M767 241h24v7h-24zm-6-26h16v12h-16zm12 13h16v12h-16z" stroke="#787845" fill="#f0f08b"/>"     "     "     <path d="M776 249h15v12h-15zm7 13h14v12h-14z" fill="#f0f08c" stroke="#787846"/>"     "     <path d="M749 105h14v12h-14zm-3 45h12v12h-12zm0 13h24v7h-24z" stroke="#787846" fill="#f0f08d"/>"     "     "     <path d="M747 171h12v12h-12zm5 13h20v11h-20zm12 12h15v5h-15z" fill="#f0f08e" stroke="#787847"/>"     "     "     <path d="M773 202h12v12h-12zm5 13h11v12h-11z" stroke="#787847" fill="#f0f08f"/>"     "     <path d="M760 171h10v12h-10zm-12-36h10v12h-10zm11 0h8v12h-8z" fill="#f0f090" stroke="#787848"/>"     "     "     <path d="M759 148h8v12h-8zm4-30h7v12h-7zm5 13h7v12h-7z" stroke="#787848" fill="#f0f091"/>"     "     "     <path d="M768 144h7v12h-7zm0 13h14v5h-14z" fill="#f0f092" stroke="#787849"/>"     "     <path d="M771 163h6v12h-6zm0 13h24v7h-24zm2 8h20v11h-20z" stroke="#787849" fill="#f0f093"/>"     "     "     <path d="M780 196h12v5h-12zm6 6h5v12h-5zm-8-39h4v12h-4z" fill="#f0f094" stroke="#78784a"/>"     "     "     <path d="M790 215h4v12h-4zm2-13h3v12h-3z" stroke="#78784a" fill="#f0f095"/>"     "     <path d="M793 196h12v5h-12zm1-12h19v11h-19zm-4 44h3v12h-3z" fill="#f0f096" stroke="#78784b"/>"     "     "     <path d="M792 241h2v12h-2zm0 13h23v7h-23zm2-26h1v12h-1z" stroke="#78784b" fill="#f0f097"/>"     "     "     <path d="M795 241h1v12h-1zm0-26h1v12h-1z" fill="#f0f098" stroke="#78784c"/>"     "     <path d="M796 228h19v11h-19zm0-26h19v11h-19zm10-6h11v5h-11z" stroke="#78784c" fill="#f0f099"/>"     "     "     <path d="M797 214h19v11h-19zm19-12h18v11h-18zm-19 38h18v11h-18z" fill="#f0f09a" stroke="#78784d"/>"     "     "     <path d="M798 262h17v11h-17zm0 12h17v10h-17z" stroke="#78784d" fill="#f0f09b"/>"     "     <path d="M806 285h17v11h-17zm5 12h16v11h-16zm1 12h15v11h-15z" fill="#f0f09c" stroke="#78784e"/>"     "     "     <path d="M812 321h15v11h-15zm0 12h23v7h-23zM726 46h14v11h-14z" stroke="#78784e" fill="#f0f09d"/>"     "     "     <path d="M740 30h14v11h-14zm10-8h23v7h-23z" fill="#f0f09e" stroke="#78784f"/>"     "     <path d="M757 17h19v4h-19zm9-16h13v11h-13zm-40 57h13v11h-13z" stroke="#78784f" fill="#f0f09f"/>"     "     "     <path d="M726 70h22v7h-22zm14-12h13v11h-13zm-10 20h13v11h-13z" fill="#f0f0a0" stroke="#787850"/>"     "     "     <path d="M744 78h12v11h-12zm5-8h22v7h-22z" stroke="#787850" fill="#f0f0a1"/>"     "     <path d="M750 90h11v11h-11zm7-12h11v11h-11zm5 12h10v11h-10z" fill="#f0f0a2" stroke="#787851"/>"     "     "     <path d="M769 78h10v11h-10zm-5 24h10v11h-10zm9-12h9v11h-9z" stroke="#787851" fill="#f0f0a3"/>"     "     "     <path d="M741 42h7v11h-7zm8 0h5v11h-5z" fill="#f0f0a4" stroke="#787852"/>"     "     <path d="M754 54h4v11h-4zm17 60h3v11h-3zm0 12h19v4h-19z" stroke="#787852" fill="#f0f0a5"/>"     "     "     <path d="M775 102h3v11h-3zm0 12h2v11h-2zm3 0h16v10h-16z" fill="#f0f0a6" stroke="#787853"/>"     "     "     <path d="M779 102h16v10h-16zm-24-72h15v10h-15z" stroke="#787853" fill="#f0f0a7"/>"     "     <path d="M755 41h15v10h-15zm4 11h15v10h-15zm0 11h19v6h-19z" fill="#f0f0a8" stroke="#787854"/>"     "     "     <path d="M772 70h22v7h-22zm8 8h14v10h-14zm3 11h14v10h-14z" stroke="#787854" fill="#f0f0a9"/>"     "     "     <path d="M771 30h14v10h-14zm3-8h21v7h-21z" fill="#f0f0aa" stroke="#787855"/>"     "     <path d="M777 13h22v8h-22zm-6 28h14v10h-14zm4 11h13v10h-13z" stroke="#787855" fill="#f0f0ab"/>"     "     "     <path d="M779 63h18v6h-18zm1-62h13v10h-13zm14 0h12v10h-12z" fill="#f0f0ac" stroke="#787856"/>"     "     "     <path d="M795 70h11v10h-11zm0 11h20v7h-20z" stroke="#787856" fill="#f0f0ad"/>"     "     <path d="M786 30h11v10h-11zm10-8h20v7h-20zm4-10h20v9h-20z" fill="#f0f0ae" stroke="#787857"/>"     "     "     <path d="M807 1h10v10h-10zm11 0h10v10h-10zm-32 40h9v10h-9z" stroke="#787857" fill="#f0f0af"/>"     "     "     <path d="M789 52h8v10h-8zm7-11h7v10h-7z" fill="#f0f0b0" stroke="#787858"/>"     "     <path d="M798 30h6v10h-6zm0 22h6v10h-6zm0 11h17v6h-17z" stroke="#787858" fill="#f0f0b1"/>"     "     "     <path d="M807 70h6v10h-6zm7 0h3v10h-3zm-10-29h3v10h-3z" fill="#f0f0b2" stroke="#787859"/>"     "     "     <path d="M805 30h3v10h-3zm0 22h3v10h-3z" stroke="#787859" fill="#f0f0b3"/>"     "     <path d="M808 41h3v10h-3zm1-11h2v10h-2zm0 22h20v9h-20z" fill="#f0f0b4" stroke="#78785a"/>"     "     "     <path d="M816 62h19v7h-19zm-4-32h20v9h-20zm5-8h19v7h-19z" stroke="#78785a" fill="#f0f0b5"/>"     "     "     <path d="M821 12h20v9h-20zm8-11h17v9h-17z" fill="#f0f0b6" stroke="#78785b"/>"     "     <path d="M812 40h16v9h-16zm17 0h16v9h-16zm4-10h16v9h-16z" stroke="#78785b" fill="#f0f0b7"/>"     "     "     <path d="M837 22h18v7h-18zm5-11h13v9h-13zm5-10h13v9h-13z" fill="#f0f0b8" stroke="#78785c"/>"     "     "     <path d="M830 50h13v9h-13zm-54 81h12v9h-12z" stroke="#78785c" fill="#f0f0b9"/>"     "     <path d="M776 141h12v9h-12zm0 10h11v5h-11zm7 6h12v9h-12z" fill="#f0f0ba" stroke="#78785d"/>"     "     "     <path d="M783 167h20v8h-20zm13 9h17v7h-17zm-8-25h10v5h-10z" stroke="#78785d" fill="#f0f0bb"/>"     "     "     <path d="M796 157h11v9h-11zm8 10h20v8h-20z" fill="#f0f0bc" stroke="#78785e"/>"     "     <path d="M814 176h11v9h-11zm0 10h11v9h-11zm4 10h9v5h-9z" stroke="#78785e" fill="#f0f0bd"/>"     "     "     <path d="M789 131h10v9h-10zm2-6h8v5h-8zm-2 16h10v9h-10z" fill="#f0f0be" stroke="#78785f"/>"     "     "     <path d="M799 151h8v5h-8zm-4-38h10v9h-10z" stroke="#78785f" fill="#f0f0bf"/>"     "     <path d="M796 100h9v9h-9zm2-11h8v9h-8zm2 34h8v9h-8z" fill="#f0f0c0" stroke="#787860"/>"     "     "     <path d="M800 133h8v9h-8zm0 10h16v7h-16zm8 8h8v9h-8z" stroke="#787860" fill="#f0f0c1"/>"     "     "     <path d="M808 161h7v5h-7zm8 0h7v5h-7z" fill="#f0f0c2" stroke="#787861"/>"     "     <path d="M806 99h7v9h-7zm1-10h6v9h-6zm-1 20h4v9h-4z" stroke="#787861" fill="#f0f0c3"/>"     "     "     <path d="M809 119h4v9h-4zm2-10h4v9h-4zm-2 20h3v9h-3z" fill="#f0f0c4" stroke="#787862"/>"     "     "     <path d="M813 129h2v9h-2zm1-10h17v8h-17z" stroke="#787862" fill="#f0f0c5"/>"     "     <path d="M816 128h17v8h-17zm0 9h5v5h-5zm1 6h17v8h-17z" fill="#f0f0c6" stroke="#787863"/>"     "     "     <path d="M817 152h17v8h-17zm7 9h5v5h-5zm1 6h16v8h-16z" stroke="#787863" fill="#f0f0c7"/>"     "     "     <path d="M830 161h4v5h-4zm-8-24h4v5h-4z" fill="#f0f0c8" stroke="#787864"/>"     "     <path d="M827 137h4v5h-4zm5 0h3v5h-3zm-6 39h16v8h-16z" stroke="#787864" fill="#f0f0c9"/>"     "     "     <path d="M826 185h16v8h-16zm2 9h16v7h-16zM814 89h16v8h-16z" fill="#f0f0ca" stroke="#787865"/>"     "     "     <path d="M816 81h16v7h-16zm2-11h16v8h-16z" stroke="#787865" fill="#f0f0cb"/>"     "     <path d="M814 98h16v8h-16zm2 9h16v8h-16zm16 9h15v8h-15z" fill="#f0f0cc" stroke="#787866"/>"     "     "     <path d="M834 125h14v8h-14zm-3-36h14v8h-14zm0 9h13v8h-13z" stroke="#787866" fill="#f0f0cd"/>"     "     "     <path d="M833 107h13v8h-13zm12-9h12v8h-12z" fill="#f0f0ce" stroke="#787867"/>"     "     <path d="M847 107h12v8h-12zm1 9h11v8h-11zm-15-37h11v8h-11z" stroke="#787867" fill="#f0f0cf"/>"     "     "     <path d="M835 70h11v8h-11zm10 9h10v8h-10zm1 9h8v8h-8z" fill="#f0f0d0" stroke="#787868"/>"     "     "     <path d="M855 88h8v8h-8zm3 9h7v8h-7z" stroke="#787868" fill="#f0f0d1"/>"     "     <path d="M836 60h7v8h-7zm8-10h6v8h-6zm2-10h6v8h-6z" fill="#f0f0d2" stroke="#787869"/>"     "     "     <path d="M850 30h5v8h-5zm-6 29h4v8h-4zm3 9h3v8h-3z" stroke="#787869" fill="#f0f0d3"/>"     "     "     <path d="M849 59h3v8h-3zm2-10h3v8h-3z" fill="#f0f0d4" stroke="#78786a"/>"     "     <path d="M853 39h2v8h-2zm-2 29h1v8h-1zm2-10h15v7h-15z" stroke="#78786a" fill="#f0f0d5"/>"     "     "     <path d="M855 48h14v7h-14zm-2 18h12v7h-12zm0 8h16v4h-16z" fill="#f0f0d6" stroke="#78786b"/>"     "     "     <path d="M866 66h12v7h-12zm-10 13h10v7h-10z" stroke="#78786b" fill="#f0f0d7"/>"     "     <path d="M869 56h9v7h-9zm-5 31h8v7h-8zm3-8h8v7h-8z" fill="#f0f0d8" stroke="#78786c"/>"     "     "     <path d="M870 74h16v4h-16zm-35 69h7v7h-7zm1-9h6v7h-6z" stroke="#78786c" fill="#f0f0d9"/>"     "     "     <path d="M835 151h6v7h-6zm0 8h6v7h-6z" fill="#f0f0da" stroke="#78786d"/>"     "     <path d="M842 151h5v7h-5zm1-17h5v7h-5zm0 8h5v7h-5z" stroke="#78786d" fill="#f0f0db"/>"     "     "     <path d="M842 159h4v7h-4zm0 8h4v7h-4zm1 8h3v7h-3z" fill="#f0f0dc" stroke="#78786e"/>"     "     "     <path d="M843 183h2v7h-2zm13-172h2v7h-2z" stroke="#78786e" fill="#f0f0dd"/>"     "     <path d="M856 19h1v7h-1zm0 8h1v7h-1zm0 8h1v7h-1z" fill="#f0f0de" stroke="#78786f"/>"     "     "     <path d="M856 43h16v4h-16zm14 5h16v6h-16zm9 7h16v6h-16z" stroke="#78786f" fill="#f0f0df"/>"     "     "     <path d="M879 62h16v6h-16zm0 7h15v4h-15z" fill="#f0f0e0" stroke="#787870"/>"     "     <path d="M858 19h15v6h-15zm1-8h13v6h-13zm2-10h13v6h-13z" stroke="#787870" fill="#f0f0e1"/>"     "     "     <path d="M873 8h11v6h-11zm2-7h11v6h-11zm-17 25h11v6h-11z" fill="#f0f0e2" stroke="#787871"/>"     "     "     <path d="M858 33h11v6h-11zm12-7h10v6h-10z" stroke="#787871" fill="#f0f0e3"/>"     "     <path d="M870 33h7v6h-7zm3 7h6v6h-6zm5-7h5v6h-5z" fill="#f0f0e4" stroke="#787872"/>"     "     "     <path d="M880 40h5v6h-5zm-6-25h3v6h-3zm4 0h3v6h-3z" stroke="#787872" fill="#f0f0e5"/>"     "     "     <path d="M881 22h2v6h-2zm1-7h2v6h-2z" fill="#f0f0e6" stroke="#787873"/>"     "     <path d="M884 22h1v6h-1zm0 7h2v5h-2zm0 6h15v4h-15z" stroke="#787873" fill="#f0f0e7"/>"     "     "     <path d="M886 40h2v5h-2zm1 6h2v5h-2zm2-6h14v4h-14z" fill="#f0f0e8" stroke="#787874"/>"     "     "     <path d="M890 45h13v4h-13zm0 5h13v4h-13z" stroke="#787874" fill="#f0f0e9"/>"     "     <path d="M885 8h13v4h-13zm2-7h11v4h-11zm-2 12h11v4h-11z" fill="#f0f0ea" stroke="#787875"/>"     "     "     <path d="M886 18h10v4h-10zm0 5h9v4h-9zm1 5h9v4h-9z" stroke="#787875" fill="#f0f0eb"/>"     "     "     <path d="M896 23h8v4h-8zm1 5h7v4h-7z" fill="#f0f0ec" stroke="#787876"/>"     "     <path d="M900 33h7v4h-7zm-3-20h6v4h-6zm0 5h5v4h-5z" stroke="#787876" fill="#f0f0ed"/>"     "     "     <path d="M903 18h5v4h-5zm2 5h3v4h-3zm0 5h1v4h-1z" fill="#f0f0ee" stroke="#787877"/>"     "     "     <path d="M907 28h1v4h-1zm-8-27h1v4h-1z" stroke="#787877" fill="#f0f0ef"/>"     "     <text y="526" font-size="12" fill="#000" x="0"> MaxRectsBin(size: 1024x512, rule: BestShortSideFit): inserted 1536 of 1536 rectangles with w/h lengths between [2, 31], occupancy: 80.22% </text></svg>