<svg xmlns="http://www.w3.org/2000/svg" viewBox="0 0 1024 536" xmlns:v="https://vecta.io/nano"><path d="M0 0h1024v512H0z" fill="#fff" stroke="#000"/>"     <path d="M1 1h29v30H1zm0 31h29v30H1zm0 31h30v29H1z" fill="#303030" stroke="#181818"/>"     "     "     <path d="M31 1h29v29H31zm0 30h29v29H31zm0 30h30v1H31z" stroke="#181818" fill="#303130"/>"     "     "     <path d="M61 1h29v29H61zm0 30h29v29H61z" fill="#303230" stroke="#181918"/>"     "     <path d="M1 93h28v30H1zm0 31h28v30H1zm0 31h28v30H1z" stroke="#181918" fill="#303330"/>"     "     "     <path d="M1 186h28v30H1zm0 31h28v29H1zm0 30h27v30H1z" fill="#303430" stroke="#181a18"/>"     "     "     <path d="M1 278h27v30H1zm0 31h30v27H1z" stroke="#181a18" fill="#303530"/>"     "     <path d="M29 247h30v27H29zm0 28h30v27H29zm0 28h30v5H29z" fill="#303630" stroke="#181b18"/>"     "     "     <path d="M30 93h30v27H30zm2-30h28v28H32zm-2 58h28v28H30z" stroke="#181b18" fill="#303730"/>"     "     "     <path d="M30 150h28v28H30zm0 29h27v29H30z" fill="#303830" stroke="#181c18"/>"     "     <path d="M30 209h29v27H30zm0 28h30v9H30zm28-58h29v27H58z" stroke="#181c18" fill="#303930"/>"     "     "     <path d="M58 207h28v1H58zm2 2h30v26H60zm27-2h28v1H87z" fill="#303a30" stroke="#181d18"/>"     "     "     <path d="M59 121h30v26H59zm0 27h28v27H59z" stroke="#181d18" fill="#303b30"/>"     "     <path d="M59 176h30v2H59zm29-28h28v27H88zm0 31h30v25H88z" fill="#303c30" stroke="#181e18"/>"     "     "     <path d="M88 205h27v1H88zm2-29h30v2H90zM61 63h26v29H61z" stroke="#181e18" fill="#303d30"/>"     "     "     <path d="M62 61h27v1H62zm-1 32h30v25H61z" fill="#303e30" stroke="#181f18"/>"     "     <path d="M61 119h27v1H61zm28 0h27v1H89zm1 2h28v26H90z" stroke="#181f18" fill="#303f30"/>"     "     "     <path d="M117 148h27v27h-27zM88 63h26v29H88zm2-2h23v1H90z" fill="#304030" stroke="#182018"/>"     "     "     <path d="M92 93h29v25H92zm25 26h23v1h-23z" stroke="#182018" fill="#304130"/>"     "     <path d="M119 121h28v26h-28zM91 1h27v27H91zm0 28h27v27H91z" fill="#304230" stroke="#182118"/>"     "     "     <path d="M91 57h30v3H91zm23 4h23v1h-23zm1 2h26v28h-26z" stroke="#182118" fill="#304330"/>"     "     "     <path d="M122 92h29v25h-29zm19 26h30v2h-30z" fill="#304430" stroke="#182218"/>"     "     <path d="M119 1h26v28h-26zm0 29h29v25h-29zm3 26h30v4h-30z" stroke="#182218" fill="#304530"/>"     "     "     <path d="M138 61h22v1h-22zm8-60h30v24h-30zm0 25h30v3h-30z" fill="#304630" stroke="#182318"/>"     "     "     <path d="M149 30h28v25h-28zm4 26h30v4h-30z" stroke="#182318" fill="#304730"/>"     "     <path d="M177 1h26v27h-26zm1 28h27v26h-27zm26-28h27v26h-27z" fill="#304830" stroke="#182418"/>"     "     "     <path d="M142 63h25v28h-25zm19-2h22v1h-22zm-9 31h29v24h-29z" stroke="#182418" fill="#304930"/>"     "     "     <path d="M168 63h29v24h-29zm0 25h30v3h-30z" fill="#304a30" stroke="#182518"/>"     "     <path d="M184 56h30v6h-30zm14 7h29v24h-29zm8-35h26v26h-26z" stroke="#182518" fill="#304b30"/>"     "     "     <path d="M215 55h30v7h-30zm17-54h26v26h-26zm1 27h27v25h-27z" fill="#304c30" stroke="#182618"/>"     "     "     <path d="M259 1h29v23h-29zm0 24h29v2h-29z" stroke="#182618" fill="#304d30"/>"     "     <path d="M1 337h24v29H1zm0 30h23v30H1zm0 31h23v30H1z" fill="#304e30" stroke="#182718"/>"     "     "     <path d="M1 429h23v30H1zm0 31h25v27H1zm0 28h29v23H1z" stroke="#182718" fill="#304f30"/>"     "     "     <path d="M25 367h25v27H25zm1-30h25v27H26z" fill="#305030" stroke="#182818"/>"     "     <path d="M26 365h21v1H26zm22 0h20v1H48zm-16-56h30v22H32z" stroke="#182818" fill="#305130"/>"     "     "     <path d="M32 332h29v4H32zm20 5h25v26H52zm10-5h29v4H62z" fill="#305230" stroke="#182918"/>"     "     "     <path d="M60 247h22v30H60zm1-11h30v10H61z" stroke="#182918" fill="#305330"/>"     "     <path d="M91 209h25v26H91zm25-4h30v3h-30zm3-26h26v25h-26z" fill="#305430" stroke="#182a18"/>"     "     "     <path d="M121 176h28v2h-28zm25 3h26v25h-26zm-1-31h25v26h-25z" stroke="#182a18" fill="#305530"/>"     "     "     <path d="M150 175h29v3h-29zm-2-54h27v24h-27z" fill="#305630" stroke="#182b18"/>"     "     <path d="M148 146h19v1h-19zm20 0h19v1h-19zm4-29h29v3h-29z" stroke="#182b18" fill="#305730"/>"     "     "     <path d="M182 92h27v24h-27zm17-4h28v3h-28zm-23 33h28v23h-28z" fill="#305830" stroke="#182c18"/>"     "     "     <path d="M202 117h28v3h-28zm8-25h29v22h-29z" stroke="#182c18" fill="#305930"/>"     "     <path d="M210 115h19v1h-19zm20 0h19v1h-19zm-59 33h29v22h-29z" fill="#305a30" stroke="#182d18"/>"     "     "     <path d="M188 145h28v2h-28zm-17 26h27v3h-27zm34-50h29v22h-29z" stroke="#182d18" fill="#305b30"/>"     "     "     <path d="M231 117h27v3h-27zm-3-54h24v27h-24z" fill="#305c30" stroke="#182e18"/>"     "     <path d="M246 54h29v8h-29zm-6 37h29v22h-29zm10 23h27v2h-27z" stroke="#182e18" fill="#305d30"/>"     "     "     <path d="M261 28h30v21h-30zm0 22h25v3h-25zm28-49h25v25h-25z" fill="#305e30" stroke="#182f18"/>"     "     "     <path d="M253 63h25v25h-25zm0 26h18v1h-18z" stroke="#182f18" fill="#305f30"/>"     "     <path d="M276 54h29v8h-29zm11-4h25v3h-25zm5-23h28v22h-28z" fill="#306030" stroke="#183018"/>"     "     "     <path d="M270 91h28v22h-28zm2-2h17v1h-17zm43-88h29v21h-29z" stroke="#183018" fill="#306130"/>"     "     "     <path d="M315 23h25v3h-25zm-36 40h30v20h-30z" fill="#306230" stroke="#183118"/>"     "     <path d="M279 84h26v4h-26zm11 5h16v1h-16zm16-5h26v4h-26z" stroke="#183118" fill="#306330"/>"     "     "     <path d="M306 54h28v8h-28zm7-4h24v3h-24zm-3 13h29v20h-29z" fill="#306430" stroke="#183218"/>"     "     "     <path d="M335 54h28v8h-28zm-14-27h27v22h-27z" stroke="#183218" fill="#306530"/>"     "     <path d="M341 23h23v3h-23zm-3 27h23v3h-23zm7-49h28v21h-28z" fill="#306630" stroke="#183318"/>"     "     "     <path d="M349 27h28v21h-28zm16-4h22v3h-22zm-3 26h24v4h-24z" stroke="#183318" fill="#306730"/>"     "     "     <path d="M378 27h28v21h-28zm-4-26h29v20h-29z" fill="#306830" stroke="#183418"/>"     "     <path d="M388 22h23v4h-23zm16-21h30v19h-30zM60 278h22v30H60z" stroke="#183418" fill="#306930"/>"     "     "     <path d="M63 309h26v22H63zm20-62h22v30H83zm9-11h29v10H92z" fill="#306a30" stroke="#183518"/>"     "     "     <path d="M117 209h24v26h-24zm-34 69h23v28H83z" stroke="#183518" fill="#306b30"/>"     "     <path d="M83 307h15v1H83zm7 2h26v22H90zm9-2h15v1H99z" fill="#306c30" stroke="#183618"/>"     "     "     <path d="M106 247h23v28h-23zm0 29h14v1h-14zm16-40h29v10h-29z" stroke="#183618" fill="#306d30"/>"     "     "     <path d="M142 209h24v26h-24zm5-4h21v3h-21z" fill="#306e30" stroke="#183718"/>"     "     <path d="M107 278h23v27h-23zm14-2h13v1h-13zm-6 30h26v2h-26z" stroke="#183718" fill="#306f30"/>"     "     "     <path d="M131 278h23v27h-23zm-1-31h22v28h-22zm5 29h12v1h-12z" fill="#307030" stroke="#183818"/>"     "     "     <path d="M148 276h12v1h-12zm4-40h28v10h-28z" stroke="#183818" fill="#307130"/>"     "     <path d="M167 209h24v25h-24zm2-4h20v3h-20zm4-26h24v25h-24z" fill="#307230" stroke="#183918"/>"     "     "     <path d="M190 205h20v3h-20zm-10-30h20v3h-20zm19-4h26v2h-26z" stroke="#183918" fill="#307330"/>"     "     "     <path d="M201 148h26v22h-26zm16-4h25v2h-25z" fill="#307430" stroke="#183a18"/>"     "     <path d="M235 121h30v19h-30zm0 20h24v2h-24zm24-24h18v3h-18z" stroke="#183a18" fill="#307530"/>"     "     "     <path d="M198 179h25v24h-25zm3-5h22v4h-22zm-48 73h25v24h-25z" fill="#307630" stroke="#183b18"/>"     "     "     <path d="M153 272h18v3h-18zM25 395h22v29H25z" stroke="#183b18" fill="#307730"/>"     "     <path d="M25 425h22v29H25zm0 30h22v4H25zm2 5h23v26H27z" fill="#307830" stroke="#183c18"/>"     "     "     <path d="M31 487h26v23H31zm0 24h12v1H31zm13 0h12v1H44z" stroke="#183c18" fill="#307930"/>"     "     "     <path d="M57 511h12v1H57zm-9-116h21v30H48z" fill="#307a30" stroke="#183d18"/>"     "     <path d="M51 367h22v27H51zm18-3h24v2H69zm9-27h24v24H78z" stroke="#183d18" fill="#307b30"/>"     "     "     <path d="M78 362h12v1H78zm13 0h11v1H91zm1-30h22v4H92z" fill="#307c30" stroke="#183e18"/>"     "     "     <path d="M48 426h21v30H48zm0 31h23v2H48z" stroke="#183e18" fill="#307d30"/>"     "     <path d="M51 460h24v24H51zm0 25h11v1H51zm7 2h30v19H58z" fill="#307e30" stroke="#183f18"/>"     "     "     <path d="M63 485h10v1H63zm11 0h10v1H74zm-16 22h18v3H58z" stroke="#183f18" fill="#307f30"/>"     "     "     <path d="M70 511h7v1h-7zm7-4h17v3H77z" fill="#308030" stroke="#184018"/>"     "     <path d="M78 511h6v1h-6zm7 0h6v1h-6zm7 0h5v1h-5z" stroke="#184018" fill="#308130"/>"     "     "     <path d="M70 395h21v30H70zm4-28h22v27H74zm20-3h21v2H94z" fill="#308230" stroke="#184118"/>"     "     "     <path d="M103 337h24v24h-24zm0 25h5v1h-5z" stroke="#184118" fill="#308330"/>"     "     <path d="M109 362h5v1h-5zm6 0h5v1h-5zm0-30h22v4h-22z" fill="#308430" stroke="#184218"/>"     "     "     <path d="M117 309h30v19h-30zm25-3h21v2h-21zm-25 23h21v2h-21z" stroke="#184218" fill="#308530"/>"     "     "     <path d="M155 278h22v26h-22zm6-2h4v1h-4z" fill="#308630" stroke="#184318"/>"     "     <path d="M166 276h3v1h-3zm4 0h3v1h-3zm2-4h17v3h-17z" stroke="#184318" fill="#308730"/>"     "     "     <path d="M174 276h2v1h-2zm3 0h2v1h-2zm2-29h27v21h-27z" fill="#308830" stroke="#184418"/>"     "     "     <path d="M179 269h21v2h-21zm2-34h30v11h-30z" stroke="#184418" fill="#308930"/>"     "     <path d="M192 209h27v21h-27zm0 22h15v3h-15zm16 0h20v2h-20z" fill="#308a30" stroke="#184518"/>"     "     "     <path d="M211 204h22v4h-22zm9 5h28v20h-28zm4-35h21v29h-21z" stroke="#184518" fill="#308b30"/>"     "     "     <path d="M226 171h19v2h-19zm8 33h22v4h-22z" fill="#308c30" stroke="#184618"/>"     "     <path d="M228 147h24v23h-24zm15-3h19v2h-19zm17-3h19v2h-19z" stroke="#184618" fill="#308d30"/>"     "     "     <path d="M266 121h29v19h-29zm12-7h30v6h-30zm21-23h29v19h-29z" fill="#308e30" stroke="#184718"/>"     "     "     <path d="M307 89h2v1h-2zm3 0h1v1h-1z" stroke="#184718" fill="#308f30"/>"     "     <path d="M299 111h19v2h-19zm-53 60h20v30h-20zm7-24h24v23h-24z" fill="#309030" stroke="#184818"/>"     "     "     <path d="M263 144h19v2h-19zm17-3h18v2h-18zm16-20h29v19h-29z" stroke="#184818" fill="#309130"/>"     "     "     <path d="M309 114h30v6h-30zm10-3h18v2h-18z" fill="#309230" stroke="#184918"/>"     "     <path d="M329 89h26v21h-26zm9 22h18v2h-18zm-5-27h21v4h-21z" stroke="#184918" fill="#309330"/>"     "     "     <path d="M340 63h30v18h-30zm15 19h29v6h-29zm9-28h28v8h-28z" fill="#309430" stroke="#184a18"/>"     "     "     <path d="M387 49h19v4h-19zm-16 14h30v18h-30z" stroke="#184a18" fill="#309530"/>"     "     <path d="M393 54h28v8h-28zm-37 35h30v18h-30zm0 19h18v2h-18z" fill="#309630" stroke="#184b18"/>"     "     "     <path d="M385 82h27v6h-27zm17-19h29v18h-29zm5-36h22v26h-22z" stroke="#184b18" fill="#309730"/>"     "     "     <path d="M412 21h29v5h-29zm10 33h28v8h-28z" fill="#309830" stroke="#184c18"/>"     "     <path d="M435 1h28v19h-28zm-5 26h22v25h-22zm12-6h29v5h-29z" stroke="#184c18" fill="#309930"/>"     "     "     <path d="M464 1h30v17h-30zM70 426h20v30H70zm2 31h17v2H72z" fill="#309a30" stroke="#184d18"/>"     "     "     <path d="M76 460h25v22H76zm14-3h16v2H90z" stroke="#184d18" fill="#309b30"/>"     "     <path d="M85 483h14v3H85zm4 4h30v17H89zm11-4h13v3h-13z" fill="#309c30" stroke="#184e18"/>"     "     "     <path d="M95 505h29v5H95zm7-45h25v22h-25zm12 23h13v3h-13z" stroke="#184e18" fill="#309d30"/>"     "     "     <path d="M120 487h28v17h-28zm5 18h29v7h-29z" fill="#309e30" stroke="#184f18"/>"     "     <path d="M91 426h20v30H91zm16 31h15v2h-15zm-15-62h21v28H92z" stroke="#184f18" fill="#309f30"/>"     "     "     <path d="M97 367h21v27H97zm19-3h14v2h-14zm12-27h25v22h-25z" fill="#30a030" stroke="#185018"/>"     "     "     <path d="M128 360h13v3h-13zm10-28h19v4h-19z" stroke="#185018" fill="#30a130"/>"     "     <path d="M139 329h14v2h-14zm9-20h28v18h-28zm16-4h12v3h-12z" fill="#30a230" stroke="#185118"/>"     "     "     <path d="M154 328h12v3h-12zm-42 96h21v28h-21zm0 29h11v3h-11z" stroke="#185118" fill="#30a330"/>"     "     "     <path d="M123 457h13v2h-13zm1-4h11v3h-11z" fill="#30a430" stroke="#185218"/>"     "     <path d="M128 460h21v26h-21zm21 27h28v17h-28zm6 18h29v7h-29z" stroke="#185218" fill="#30a530"/>"     "     "     <path d="M114 395h20v27h-20zm5-28h20v27h-20zm12-3h13v2h-13z" fill="#30a630" stroke="#185318"/>"     "     "     <path d="M142 360h13v2h-13zm12-23h27v20h-27z" stroke="#185318" fill="#30a730"/>"     "     <path d="M158 332h16v4h-16zm9-4h9v3h-9zm8 4h16v4h-16z" fill="#30a830" stroke="#185418"/>"     "     "     <path d="M177 305h27v20h-27zm0 21h28v5h-28zm1-48h22v24h-22z" stroke="#185418" fill="#30a930"/>"     "     "     <path d="M190 272h28v5h-28zm11-3h12v2h-12z" fill="#30aa30" stroke="#185518"/>"     "     <path d="M207 247h25v21h-25zm7 22h12v2h-12zm-2-35h30v12h-30z" stroke="#185518" fill="#30ab30"/>"     "     "     <path d="M229 230h9v3h-9zm10 0h8v3h-8zm-38 48h22v24h-22z" fill="#30ac30" stroke="#185618"/>"     "     "     <path d="M219 272h28v5h-28zm8-3h11v2h-11z" stroke="#185618" fill="#30ad30"/>"     "     <path d="M233 247h25v21h-25zm6 22h10v2h-10zm4-35h29v12h-29z" fill="#30ae30" stroke="#185718"/>"     "     "     <path d="M248 230h7v3h-7zm1-21h28v18h-28zm7 19h28v5h-28z" stroke="#185718" fill="#30af30"/>"     "     "     <path d="M257 202h27v6h-27zm21 7h27v18h-27z" fill="#30b030" stroke="#185818"/>"     "     <path d="M205 303h24v22h-24zm19-25h22v23h-22zm43-107h20v29h-20z" stroke="#185818" fill="#30b130"/>"     "     "     <path d="M285 201h28v7h-28zm-7-54h22v23h-22zm5-3h9v2h-9z" fill="#30b230" stroke="#185918"/>"     "     "     <path d="M293 144h9v2h-9zm6-3h9v2h-9z" stroke="#185918" fill="#30b330"/>"     "     <path d="M288 171h20v29h-20zm13-24h23v22h-23zm2-3h8v2h-8z" fill="#30b430" stroke="#185a18"/>"     "     "     <path d="M309 141h7v2h-7zm3 3h6v2h-6zm5-3h6v2h-6z" stroke="#185a18" fill="#30b530"/>"     "     "     <path d="M319 144h6v2h-6zm5-3h5v2h-5z" fill="#30b630" stroke="#185b18"/>"     "     <path d="M326 121h26v19h-26zm14-7h27v6h-27zm17-3h5v2h-5z" stroke="#185b18" fill="#30b730"/>"     "     "     <path d="M363 111h5v2h-5zm-54 59h20v29h-20zm16-23h23v22h-23z" fill="#30b830" stroke="#185c18"/>"     "     "     <path d="M326 144h3v2h-3zm4-3h26v5h-26z" stroke="#185c18" fill="#30b930"/>"     "     <path d="M353 121h27v18h-27zm15-7h26v6h-26zm1-3h3v2h-3z" fill="#30ba30" stroke="#185d18"/>"     "     "     <path d="M373 111h2v2h-2zm2-3h2v2h-2zm1 3h1v2h-1z" stroke="#185d18" fill="#30bb30"/>"     "     "     <path d="M378 108h25v5h-25zm9-19h27v18h-27z" fill="#30bc30" stroke="#185e18"/>"     "     <path d="M413 82h26v6h-26zm19-19h28v17h-28zm19-10h29v9h-29z" stroke="#185e18" fill="#30bd30"/>"     "     "     <path d="M453 27h21v25h-21zm19-8h28v7h-28zm23-18h29v16h-29z" fill="#30be30" stroke="#185f18"/>"     "     "     <path d="M475 27h21v25h-21zM134 423h20v29h-20z" stroke="#185f18" fill="#30bf30"/>"     "     <path d="M136 453h7v3h-7zm8 0h26v6h-26zm6 7h21v25h-21z" fill="#30c030" stroke="#186018"/>"     "     "     <path d="M135 395h21v25h-21zm5-28h19v27h-19zm5-4h6v3h-6z" stroke="#186018" fill="#30c130"/>"     "     "     <path d="M152 363h6v3h-6zm4-5h16v4h-16z" fill="#30c230" stroke="#186118"/>"     "     <path d="M159 363h6v3h-6zm-4 58h19v29h-19zm16 30h27v8h-27z" stroke="#186118" fill="#30c330"/>"     "     "     <path d="M157 395h20v25h-20zm15 65h20v25h-20zm6 26h26v18h-26z" fill="#30c430" stroke="#186218"/>"     "     "     <path d="M185 505h27v7h-27zm8-45h20v25h-20z" stroke="#186218" fill="#30c530"/>"     "     <path d="M205 486h29v16h-29zm8 17h28v9h-28zm-53-136h19v27h-19z" fill="#30c630" stroke="#186318"/>"     "     "     <path d="M166 363h6v3h-6zm7-5h27v8h-27zm9-21h25v20h-25z" stroke="#186318" fill="#30c730"/>"     "     "     <path d="M192 332h15v4h-15zm14-6h24v5h-24z" fill="#30c830" stroke="#186418"/>"     "     <path d="M230 302h25v20h-25zm17-24h22v22h-22zm1-6h23v5h-23z" stroke="#186418" fill="#30c930"/>"     "     "     <path d="M259 247h22v22h-22zm14-13h28v12h-28zm12-6h23v5h-23z" fill="#30ca30" stroke="#186518"/>"     "     "     <path d="M306 209h29v16h-29zm8-9h27v8h-27z" stroke="#186518" fill="#30cb30"/>"     "     <path d="M330 170h19v29h-19zm19-23h22v22h-22zm8-7h25v6h-25z" fill="#30cc30" stroke="#186618"/>"     "     "     <path d="M381 121h29v16h-29zm14-7h25v6h-25zm9-6h22v5h-22z" stroke="#186618" fill="#30cd30"/>"     "     "     <path d="M415 89h27v17h-27zm25-8h26v7h-26z" fill="#30ce30" stroke="#186718"/>"     "     <path d="M461 63h30v15h-30zm20-10h27v9h-27zm16-26h22v22h-22z" stroke="#186718" fill="#30cf30"/>"     "     "     <path d="M501 18h25v8h-25zm24-17h28v16h-28zM175 421h19v29h-19z" fill="#30d030" stroke="#186818"/>"     "     "     <path d="M178 395h22v22h-22zm2-28h19v27h-19z" stroke="#186818" fill="#30d130"/>"     "     <path d="M200 367h19v27h-19zm1-9h24v8h-24zm7-26h21v23h-21z" fill="#30d230" stroke="#186918"/>"     "     "     <path d="M195 418h18v30h-18zm4 31h27v10h-27zm2-54h23v21h-23z" stroke="#186918" fill="#30d330"/>"     "     "     <path d="M214 460h21v23h-21zm21 24h28v16h-28z" fill="#30d430" stroke="#186a18"/>"     "     <path d="M242 501h30v11h-30zm-22-134h19v27h-19zm6-11h27v10h-27z" stroke="#186a18" fill="#30d530"/>"     "     "     <path d="M230 332h23v21h-23zm1-9h24v8h-24zm-17 94h18v30h-18z" fill="#30d630" stroke="#186b18"/>"     "     "     <path d="M227 448h29v11h-29zm-2-53h25v19h-25z" stroke="#186b18" fill="#30d730"/>"     "     <path d="M236 460h25v19h-25zm0 20h5v3h-5zm6 0h4v3h-4z" fill="#30d830" stroke="#186c18"/>"     "     "     <path d="M247 480h2v3h-2zm3 0h1v3h-1zm2 0h1v3h-1z" stroke="#186c18" fill="#30d930"/>"     "     "     <path d="M254 480h1v3h-1zm-14-113h19v27h-19z" fill="#30da30" stroke="#186d18"/>"     "     <path d="M233 415h19v28h-19zm18-20h24v19h-24zm2 20h18v29h-18z" stroke="#186d18" fill="#30db30"/>"     "     "     <path d="M257 445h30v14h-30zm5 15h21v22h-21zm2 23h29v15h-29z" fill="#30dc30" stroke="#186e18"/>"     "     "     <path d="M273 499h30v13h-30zm11-39h22v21h-22z" stroke="#186e18" fill="#30dd30"/>"     "     <path d="M294 482h29v15h-29zm10 16h30v14h-30zm-32-83h18v29h-18z" fill="#30de30" stroke="#186f18"/>"     "     "     <path d="M288 445h30v14h-30zm19 15h22v21h-22zm17 22h29v15h-29z" stroke="#186f18" fill="#30df30"/>"     "     "     <path d="M335 498h29v14h-29zm-81-166h17v30h-17z" fill="#30e030" stroke="#187018"/>"     "     <path d="M256 301h17v30h-17zm14-23h23v20h-23zm2-8h26v7h-26z" stroke="#187018" fill="#30e130"/>"     "     "     <path d="M282 247h24v19h-24zm20-13h27v12h-27zm7-8h26v7h-26z" fill="#30e230" stroke="#187118"/>"     "     "     <path d="M260 363h17v30h-17zm16 31h22v20h-22z" stroke="#187118" fill="#30e330"/>"     "     <path d="M291 415h18v28h-18zm-19-83h18v28h-18zm6 29h18v28h-18z" fill="#30e430" stroke="#187218"/>"     "     "     <path d="M274 299h17v29h-17zm17 30h17v29h-17zm1-30h17v29h-17z" stroke="#187218" fill="#30e530"/>"     "     "     <path d="M294 278h23v19h-23zm5-11h26v10h-26z" fill="#30e630" stroke="#187318"/>"     "     <path d="M307 247h23v19h-23zm23-13h27v12h-27zm6-25h20v24h-20z" stroke="#187318" fill="#30e730"/>"     "     "     <path d="M342 200h24v8h-24zm15 9h20v24h-20zm-7-39h17v29h-17z" fill="#30e830" stroke="#187418"/>"     "     "     <path d="M367 200h24v8h-24zm1-30h19v26h-19z" stroke="#187418" fill="#30e930"/>"     "     <path d="M372 147h21v21h-21zm11-9h24v8h-24zm5 31h19v26h-19z" fill="#30ea30" stroke="#187518"/>"     "     "     <path d="M394 147h21v21h-21zm14-9h23v8h-23zm3-17h27v16h-27z" stroke="#187518" fill="#30eb30"/>"     "     "     <path d="M421 114h25v6h-25zm6-7h24v6h-24z" fill="#30ec30" stroke="#187618"/>"     "     <path d="M443 89h27v16h-27zm24-10h26v9h-26zm25-16h29v14h-29z" stroke="#187618" fill="#30ed30"/>"     "     "     <path d="M509 50h29v11h-29zm11-23h20v22h-20zm7-9h23v8h-23z" fill="#30ee30" stroke="#187718"/>"     "     "     <path d="M297 359h19v26h-19zm0 27h26v7h-26z" stroke="#187718" fill="#30ef30"/>"     "     <path d="M299 394h23v19h-23zm10-65h19v26h-19zm8 27h18v27h-18z" fill="#30f030" stroke="#187818"/>"     "     "     <path d="M310 298h18v27h-18zm8-20h25v17h-25zm8-11h26v10h-26z" stroke="#187818" fill="#31f030"/>"     "     "     <path d="M331 247h22v19h-22zm-21 167h16v30h-16z" fill="#32f030" stroke="#197818"/>"     "     <path d="M319 445h30v13h-30zm4-51h26v16h-26zm1-10h25v9h-25z" stroke="#197818" fill="#33f030"/>"     "     "     <path d="M330 459h20v22h-20zm-3-48h20v24h-20zm0 25h23v8h-23z" fill="#34f030" stroke="#1a7818"/>"     "     "     <path d="M350 445h30v13h-30zm1 14h20v22h-20z" stroke="#1a7818" fill="#35f030"/>"     "     <path d="M354 482h27v15h-27zm11 16h27v14h-27zm7-39h20v22h-20z" fill="#36f030" stroke="#1b7818"/>"     "     "     <path d="M382 482h27v15h-27zm11 16h27v14h-27zm-45-87h20v24h-20z" stroke="#1b7818" fill="#37f030"/>"     "     "     <path d="M351 436h23v8h-23zm-22-140h19v25h-19z" fill="#38f030" stroke="#1c7818"/>"     "     <path d="M344 278h24v17h-24zm9-11h25v10h-25zm1-20h23v18h-23z" stroke="#1c7818" fill="#39f030"/>"     "     "     <path d="M358 234h29v11h-29zm20 12h21v20h-21zm0-37h20v23h-20z" fill="#3af030" stroke="#1d7818"/>"     "     "     <path d="M392 196h29v11h-29zm-4 37h26v12h-26z" stroke="#1d7818" fill="#3bf030"/>"     "     <path d="M399 208h20v23h-20zm9-39h18v26h-18zm8-22h20v21h-20z" fill="#3cf030" stroke="#1e7818"/>"     "     "     <path d="M432 138h26v7h-26zm7-17h27v15h-27zm8-7h24v6h-24z" stroke="#1e7818" fill="#3df030"/>"     "     "     <path d="M452 106h25v7h-25zm19-17h26v15h-26z" fill="#3ef030" stroke="#1f7818"/>"     "     <path d="M494 78h25v10h-25zM329 322h18v26h-18zm0 27h24v6h-24z" stroke="#1f7818" fill="#3ff030"/>"     "     "     <path d="M348 322h18v26h-18zm1-26h20v23h-20zm20-18h24v17h-24z" fill="#40f030" stroke="#207818"/>"     "     "     <path d="M379 267h24v10h-24zm21-21h21v20h-21z" stroke="#207818" fill="#41f030"/>"     "     <path d="M415 232h29v13h-29zm5-24h20v22h-20zm2-12h28v11h-28z" fill="#42f030" stroke="#217818"/>"     "     "     <path d="M441 208h20v21h-20zm-14-39h19v24h-19zm10-23h19v22h-19z" stroke="#217818" fill="#43f030"/>"     "     "     <path d="M447 169h19v24h-19zm4 25h29v13h-29z" fill="#44f030" stroke="#227818"/>"     "     <path d="M457 146h19v22h-19zm2-9h25v7h-25zm8-16h26v15h-26z" stroke="#227818" fill="#45f030"/>"     "     "     <path d="M472 114h22v6h-22zm6-9h25v7h-25zm20-16h26v15h-26z" fill="#46f030" stroke="#237818"/>"     "     "     <path d="M520 78h24v10h-24zm2-16h25v15h-25z" stroke="#237818" fill="#47f030"/>"     "     <path d="M539 50h28v11h-28zm2-23h23v18h-23zm10-9h25v7h-25z" fill="#48f030" stroke="#247818"/>"     "     "     <path d="M554 1h25v15h-25zm11 25h23v18h-23zm0 19h15v4h-15z" stroke="#247818" fill="#49f030"/>"     "     "     <path d="M577 17h25v7h-25zm3-16h28v13h-28z" fill="#4af030" stroke="#257818"/>"     "     <path d="M467 169h19v24h-19zm10-24h20v20h-20zm8-8h24v7h-24z" stroke="#257818" fill="#4bf030"/>"     "     "     <path d="M494 121h28v13h-28zm1-8h24v7h-24zm9-8h24v7h-24z" fill="#4cf030" stroke="#267818"/>"     "     "     <path d="M520 113h23v7h-23zm5-24h26v14h-26z" stroke="#267818" fill="#4df030"/>"     "     <path d="M529 104h22v8h-22zm16-26h24v10h-24zm3-16h26v14h-26z" fill="#4ef030" stroke="#277818"/>"     "     "     <path d="M568 50h27v11h-27zm13-5h14v4h-14zm8-20h22v18h-22z" stroke="#277818" fill="#4ff030"/>"     "     "     <path d="M603 15h24v9h-24zm6-14h27v13h-27z" fill="#50f030" stroke="#287818"/>"     "     <path d="M336 356h17v27h-17zm14 28h18v25h-18zm4-35h17v27h-17z" stroke="#287818" fill="#51f030"/>"     "     "     <path d="M354 377h22v6h-22zm13-57h17v27h-17zm3-24h20v20h-20z" fill="#52f030" stroke="#297818"/>"     "     "     <path d="M372 348h18v25h-18zm13-31h15v30h-15z" stroke="#297818" fill="#53f030"/>"     "     <path d="M391 296h19v20h-19zm3-18h22v17h-22zm10-11h24v10h-24z" fill="#54f030" stroke="#2a7818"/>"     "     "     <path d="M422 246h20v19h-20zm-53 138h15v30h-15zm8-10h22v9h-22z" stroke="#2a7818" fill="#55f030"/>"     "     "     <path d="M369 415h20v19h-20zm6 20h21v9h-21z" fill="#56f030" stroke="#2b7818"/>"     "     <path d="M381 445h27v13h-27zm12 14h19v21h-19zm17 22h26v14h-26z" stroke="#2b7818" fill="#57f030"/>"     "     "     <path d="M421 496h24v15h-24zm-30-148h18v24h-18zm10-31h15v30h-15z" fill="#58f030" stroke="#2c7818"/>"     "     "     <path d="M411 296h20v19h-20zm6-18h22v17h-22z" stroke="#2c7818" fill="#59f030"/>"     "     <path d="M429 266h27v11h-27zm14-20h21v18h-21zm2-16h23v15h-23z" fill="#5af030" stroke="#2d7818"/>"     "     "     <path d="M462 208h19v21h-19zm19-14h26v13h-26zm6-28h17v26h-17z" stroke="#2d7818" fill="#5bf030"/>"     "     "     <path d="M498 145h21v18h-21zm12-10h21v9h-21z" fill="#5cf030" stroke="#2e7818"/>"     "     <path d="M523 121h26v13h-26zm21-8h23v7h-23zm8-24h19v21h-19z" stroke="#2e7818" fill="#5df030"/>"     "     "     <path d="M570 77h27v11h-27zm5-15h26v13h-26zm21-18h22v17h-22z" fill="#5ef030" stroke="#2f7818"/>"     "     "     <path d="M612 25h21v18h-21zm16-10h20v9h-20z" stroke="#2f7818" fill="#5ff030"/>"     "     <path d="M637 1h26v12h-26zM505 164h16v28h-16zm15-19h21v17h-21z" fill="#60f030" stroke="#307818"/>"     "     "     <path d="M532 135h20v9h-20zm18-14h25v12h-25zm18-10h20v9h-20z" stroke="#307818" fill="#61f030"/>"     "     "     <path d="M572 89h18v21h-18zM385 384h16v28h-16z" fill="#62f030" stroke="#317818"/>"     "     <path d="M400 373h24v10h-24zm-10 40h18v21h-18zm7 22h20v9h-20z" stroke="#317818" fill="#63f030"/>"     "     "     <path d="M409 445h25v12h-25zm4 13h18v22h-18zm19 0h18v22h-18z" fill="#64f030" stroke="#327818"/>"     "     "     <path d="M437 481h24v14h-24zm9 15h22v16h-22z" stroke="#327818" fill="#65f030"/>"     "     <path d="M410 348h18v24h-18zm-8 36h16v28h-16zm7 29h18v21h-18z" fill="#66f030" stroke="#337818"/>"     "     "     <path d="M418 435h22v8h-22zm17 9h24v12h-24zm16 13h17v22h-17z" stroke="#337818" fill="#67f030"/>"     "     "     <path d="M462 480h23v15h-23zm7 16h22v16h-22z" fill="#68f030" stroke="#347818"/>"     "     <path d="M419 384h16v28h-16zm6-11h23v10h-23zm3 40h19v19h-19z" stroke="#347818" fill="#69f030"/>"     "     "     <path d="M441 433h22v10h-22zm19 11h24v12h-24zm9 13h19v19h-19z" fill="#6af030" stroke="#357818"/>"     "     "     <path d="M486 477h21v17h-21zm6 18h21v17h-21z" stroke="#357818" fill="#6bf030"/>"     "     <path d="M436 384h16v28h-16zm12 29h22v16h-22zm16 17h26v11h-26z" fill="#6cf030" stroke="#367818"/>"     "     "     <path d="M485 442h24v14h-24zm4 15h18v19h-18zm-72-141h15v29h-15z" stroke="#367818" fill="#6df030"/>"     "     "     <path d="M432 296h19v18h-19zm8-18h20v17h-20z" fill="#6ef030" stroke="#377818"/>"     "     <path d="M457 265h26v11h-26zm8-19h19v18h-19zm4-16h24v14h-24z" stroke="#377818" fill="#6ff030"/>"     "     "     <path d="M482 208h18v20h-18zm-53 138h17v25h-17zm4-31h17v25h-17z" fill="#70f030" stroke="#387818"/>"     "     "     <path d="M433 341h13v4h-13zm14 0h16v26h-16z" stroke="#387818" fill="#71f030"/>"     "     <path d="M447 368h13v4h-13zm2 5h21v10h-21zm12-5h13v4h-13z" fill="#72f030" stroke="#397818"/>"     "     "     <path d="M451 315h16v25h-16zm1-19h24v14h-24zm9-19h21v16h-21z" stroke="#397818" fill="#73f030"/>"     "     "     <path d="M464 341h16v26h-16zm-11 43h16v26h-16z" fill="#74f030" stroke="#3a7818"/>"     "     <path d="M470 384h15v27h-15zm1-11h21v10h-21zm4-5h11v4h-11z" stroke="#3a7818" fill="#75f030"/>"     "     "     <path d="M471 412h22v15h-22zm20 16h22v13h-22zm-5-44h15v27h-15z" fill="#76f030" stroke="#3b7818"/>"     "     "     <path d="M494 412h22v15h-22zm-26-101h15v27h-15z" stroke="#3b7818" fill="#77f030"/>"     "     <path d="M477 294h23v14h-23zm6-17h23v14h-23zm1-12h23v11h-23z" fill="#78f030" stroke="#3c7818"/>"     "     "     <path d="M485 245h18v18h-18zm9-16h23v14h-23zm10 15h17v20h-17z" stroke="#3c7818" fill="#79f030"/>"     "     "     <path d="M501 208h18v18h-18zm7-15h22v14h-22z" fill="#7af030" stroke="#3d7818"/>"     "     <path d="M518 227h20v16h-20zm2-19h19v17h-19zm2-45h14v28h-14z" stroke="#3d7818" fill="#7bf030"/>"     "     "     <path d="M531 192h21v15h-21zm6-29h15v26h-15zm5-18h19v17h-19z" fill="#7cf030" stroke="#3e7818"/>"     "     "     <path d="M553 134h19v10h-19zm-72 205h15v26h-15z" stroke="#3e7818" fill="#7df030"/>"     "     <path d="M487 366h20v6h-20zm6 7h19v10h-19zm9 11h14v27h-14z" fill="#7ef030" stroke="#3f7818"/>"     "     "     <path d="M484 309h13v29h-13zm13 30h15v25h-15zm11 26h23v7h-23z" stroke="#3f7818" fill="#7ff030"/>"     "     "     <path d="M513 373h18v10h-18zm-15-64h13v29h-13z" fill="#80f030" stroke="#407818"/>"     "     <path d="M501 292h21v15h-21zm6-15h22v14h-22zm1-12h23v11h-23z" stroke="#407818" fill="#81f030"/>"     "     "     <path d="M522 244h19v17h-19zm17-18h22v14h-22zm1-18h18v17h-18z" fill="#82f030" stroke="#417818"/>"     "     "     <path d="M512 308h13v30h-13zm11-16h20v15h-20z" stroke="#417818" fill="#83f030"/>"     "     <path d="M530 277h20v14h-20zm2-15h23v12h-23zm10-21h16v20h-16z" fill="#84f030" stroke="#427818"/>"     "     "     <path d="M513 339h15v25h-15zm13-31h13v30h-13zm3 31h15v25h-15z" stroke="#427818" fill="#85f030"/>"     "     "     <path d="M540 308h14v27h-14zm4-16h20v15h-20z" fill="#86f030" stroke="#437818"/>"     "     <path d="M551 275h19v16h-19zm5-13h23v12h-23zm3-21h16v20h-16z" stroke="#437818" fill="#87f030"/>"     "     "     <path d="M508 457h16v23h-16zm0 24h21v13h-21zm2-39h19v14h-19z" fill="#88f030" stroke="#447818"/>"     "     "     <path d="M514 428h22v12h-22zm0 67h18v17h-18z" stroke="#447818" fill="#89f030"/>"     "     <path d="M525 457h16v23h-16zm5 24h22v12h-22zm0-40h20v15h-20z" fill="#8af030" stroke="#457818"/>"     "     "     <path d="M533 494h17v18h-17zm18 0h17v18h-17zm-9-37h16v23h-16z" stroke="#457818" fill="#8bf030"/>"     "     "     <path d="M553 481h22v12h-22zm16 13h17v18h-17z" fill="#8cf030" stroke="#467818"/>"     "     <path d="M553 163h13v28h-13zm0 29h19v15h-19zm9-47h18v17h-18z" stroke="#467818" fill="#8df030"/>"     "     "     <path d="M573 134h17v10h-17zm3-13h21v12h-21zm13-10h20v8h-20z" fill="#8ef030" stroke="#477818"/>"     "     "     <path d="M559 208h17v17h-17zm3 18h20v13h-20z" stroke="#477818" fill="#8ff030"/>"     "     <path d="M591 89h17v21h-17zm7-13h21v12h-21zm4-14h21v12h-21z" fill="#90f030" stroke="#487818"/>"     "     "     <path d="M619 44h17v17h-17zm15-19h17v17h-17zm15-11h20v8h-20z" stroke="#487818" fill="#91f030"/>"     "     "     <path d="M664 1h22v11h-22zm-55 88h16v21h-16z" fill="#92f030" stroke="#497818"/>"     "     <path d="M620 75h19v13h-19zm4-13h22v11h-22zm13-19h16v18h-16z" stroke="#497818" fill="#93f030"/>"     "     "     <path d="M652 23h16v19h-16zm-76 217h16v21h-16zm-9-77h13v28h-13z" fill="#94f030" stroke="#4a7818"/>"     "     "     <path d="M573 192h18v15h-18zm4 16h18v16h-18z" stroke="#4a7818" fill="#95f030"/>"     "     <path d="M583 225h22v11h-22zm-2-80h14v26h-14zm10-11h16v10h-16z" fill="#96f030" stroke="#4b7818"/>"     "     "     <path d="M598 120h20v12h-20zm12-9h22v7h-22zm16-22h16v21h-16z" stroke="#4b7818" fill="#97f030"/>"     "     "     <path d="M640 74h20v12h-20zm7-12h21v11h-21z" fill="#98f030" stroke="#4c7818"/>"     "     <path d="M654 43h18v16h-18zm15-20h15v19h-15zm1-10h22v7h-22z" stroke="#4c7818" fill="#99f030"/>"     "     "     <path d="M687 1h21v11h-21zM581 172h15v19h-15zm11 20h18v15h-18z" fill="#9af030" stroke="#4d7818"/>"     "     "     <path d="M596 208h17v16h-17zm0-63h14v26h-14z" stroke="#4d7818" fill="#9bf030"/>"     "     <path d="M608 133h20v11h-20zm11-14h19v12h-19zm14-8h22v7h-22z" fill="#9cf030" stroke="#4e7818"/>"     "     "     <path d="M597 172h16v17h-16zm14 18h16v17h-16zm32-103h15v23h-15z" stroke="#4e7818" fill="#9df030"/>"     "     "     <path d="M611 145h15v24h-15zm3 25h16v17h-16z" fill="#9ef030" stroke="#4f7818"/>"     "     <path d="M627 145h15v24h-15zm2-13h20v11h-20zm10-13h18v12h-18z" stroke="#4f7818" fill="#9ff030"/>"     "     "     <path d="M656 111h21v7h-21zm3-24h15v22h-15zm2-13h18v12h-18z" fill="#a0f030" stroke="#507818"/>"     "     "     <path d="M669 60h17v13h-17zm4-17h18v15h-18z" stroke="#507818" fill="#a1f030"/>"     "     <path d="M685 21h16v20h-16zm8-8h20v7h-20zm16-12h19v11h-19z" fill="#a2f030" stroke="#517818"/>"     "     "     <path d="M675 87h14v23h-14zm5-13h18v12h-18zm7-15h16v14h-16z" stroke="#517818" fill="#a3f030"/>"     "     "     <path d="M692 42h16v16h-16zm10-21h15v20h-15z" fill="#a4f030" stroke="#527818"/>"     "     <path d="M714 13h20v7h-20zm15-12h19v11h-19zM517 384h12v30h-12z" stroke="#527818" fill="#a5f030"/>"     "     "     <path d="M517 415h19v11h-19zm13-31h12v30h-12zm2-19h16v17h-16z" fill="#a6f030" stroke="#537818"/>"     "     "     <path d="M537 415h15v24h-15zm14 25h17v15h-17z" stroke="#537818" fill="#a7f030"/>"     "     <path d="M559 456h15v24h-15zm-14-120h13v27h-13zm10-28h14v25h-14z" fill="#a8f030" stroke="#547818"/>"     "     "     <path d="M565 292h15v15h-15zm6-17h15v16h-15zm9-13h19v11h-19z" stroke="#547818" fill="#a9f030"/>"     "     "     <path d="M593 237h14v24h-14zm13-12h18v11h-18z" fill="#aaf030" stroke="#557818"/>"     "     <path d="M614 208h15v16h-15zm14-20h15v17h-15zm3-18h15v16h-15z" stroke="#557818" fill="#abf030"/>"     "     "     <path d="M643 144h14v25h-14zm7-12h18v11h-18zm8-13h17v12h-17z" fill="#acf030" stroke="#567818"/>"     "     "     <path d="M543 383h12v29h-12zm6-19h14v18h-14z" stroke="#567818" fill="#adf030"/>"     "     <path d="M553 413h14v25h-14zm6-79h14v25h-14zm11-26h13v25h-13z" fill="#aef030" stroke="#577818"/>"     "     "     <path d="M581 292h15v15h-15zm6-18h14v17h-14zm13-12h17v11h-17z" stroke="#577818" fill="#aff030"/>"     "     "     <path d="M608 237h14v23h-14zm-52 146h13v26h-13z" fill="#b0f030" stroke="#587818"/>"     "     <path d="M564 360h15v21h-15zm10-26h13v25h-13zm10-26h13v25h-13z" stroke="#587818" fill="#b1f030"/>"     "     "     <path d="M597 292h16v14h-16zm5-18h14v17h-14zm-34 136h13v26h-13z" fill="#b2f030" stroke="#597818"/>"     "     "     <path d="M569 437h14v18h-14zm6 19h14v23h-14z" stroke="#597818" fill="#b3f030"/>"     "     <path d="M576 480h16v13h-16zm11 14h14v18h-14zm-17-112h13v25h-13z" fill="#b4f030" stroke="#5a7818"/>"     "     "     <path d="M580 360h15v21h-15zm8-26h14v23h-14zm10-27h15v21h-15z" stroke="#5a7818" fill="#b5f030"/>"     "     "     <path d="M598 329h11v4h-11zm-16 79h12v28h-12z" fill="#b6f030" stroke="#5b7818"/>"     "     <path d="M584 437h14v17h-14zm6 18h13v24h-13zm3 25h16v13h-16z" stroke="#5b7818" fill="#b7f030"/>"     "     "     <path d="M602 494h14v17h-14zm-18-112h13v24h-13zm12-24h14v22h-14z" fill="#b8f030" stroke="#5c7818"/>"     "     "     <path d="M603 334h14v22h-14zm7-5h10v4h-10z" stroke="#5c7818" fill="#b9f030"/>"     "     <path d="M595 407h12v28h-12zm4 29h14v17h-14zm5 18h13v24h-13z" fill="#baf030" stroke="#5d7818"/>"     "     "     <path d="M610 479h15v14h-15zm7 15h14v17h-14zm-19-113h13v24h-13z" stroke="#5d7818" fill="#bbf030"/>"     "     "     <path d="M611 357h14v22h-14zm7-23h14v21h-14z" fill="#bcf030" stroke="#5e7818"/>"     "     <path d="M608 406h11v29h-11zm6 30h14v16h-14zm4 17h12v25h-12z" stroke="#5e7818" fill="#bdf030"/>"     "     "     <path d="M626 479h15v14h-15zm6 15h13v18h-13zm-20-114h12v25h-12z" fill="#bef030" stroke="#5f7818"/>"     "     "     <path d="M620 406h11v29h-11zm9 30h14v16h-14z" stroke="#5f7818" fill="#bff030"/>"     "     <path d="M631 453h12v25h-12zm11 26h16v13h-16zm4 14h13v19h-13z" fill="#c0f030" stroke="#607818"/>"     "     "     <path d="M625 380h13v23h-13zm1-24h14v21h-14zm6 48h11v29h-11z" stroke="#607818" fill="#c1f030"/>"     "     "     <path d="M639 378h14v21h-14zm-25-86h11v29h-11z" fill="#c2f030" stroke="#617818"/>"     "     <path d="M614 322h20v6h-20zm7 7h9v4h-9zm10 0h9v4h-9z" stroke="#617818" fill="#c3f030"/>"     "     "     <path d="M617 274h13v17h-13zm1-13h16v12h-16zm15 73h14v20h-14z" fill="#c4f030" stroke="#627818"/>"     "     "     <path d="M641 355h13v22h-13zm-18-118h13v21h-13z" stroke="#627818" fill="#c5f030"/>"     "     <path d="M625 225h17v11h-17zm5-19h13v18h-13zm-4 86h12v26h-12z" fill="#c6f030" stroke="#637818"/>"     "     "     <path d="M635 319h17v9h-17zm6 10h8v4h-8zm-10-55h13v17h-13z" stroke="#637818" fill="#c7f030"/>"     "     "     <path d="M635 259h14v14h-14zm13 75h13v20h-13z" fill="#c8f030" stroke="#647818"/>"     "     <path d="M650 329h7v4h-7zm-13-92h12v21h-12zm6-12h16v11h-16z" stroke="#647818" fill="#c9f030"/>"     "     "     <path d="M639 292h12v24h-12zm6-18h14v15h-14zm7 16h12v24h-12z" fill="#caf030" stroke="#657818"/>"     "     "     <path d="M653 315h16v12h-16zm5 13h22v5h-22z" stroke="#657818" fill="#cbf030"/>"     "     <path d="M650 237h10v30h-10zm0 31h22v5h-22zm10 6h14v15h-14z" fill="#ccf030" stroke="#667818"/>"     "     "     <path d="M665 290h12v24h-12zm5 25h16v12h-16zm-26-128h10v30h-10z" stroke="#667818" fill="#cdf030"/>"     "     "     <path d="M644 218h20v6h-20zm16 7h15v11h-15z" fill="#cef030" stroke="#677818"/>"     "     <path d="M647 170h14v15h-14zm11-26h11v25h-11zm11-12h15v11h-15z" stroke="#677818" fill="#cff030"/>"     "     "     <path d="M676 119h16v12h-16zm2-8h19v7h-19zm12-24h12v22h-12z" fill="#d0f030" stroke="#687818"/>"     "     "     <path d="M699 74h15v12h-15zm5-15h14v14h-14z" stroke="#687818" fill="#d1f030"/>"     "     <path d="M709 42h14v15h-14zm9-21h13v19h-13zm-57 216h10v29h-10z" fill="#d2f030" stroke="#697818"/>"     "     "     <path d="M672 237h10v29h-10zm1 30h19v6h-19zm2 7h14v14h-14z" stroke="#697818" fill="#d3f030"/>"     "     "     <path d="M678 289h11v24h-11zm-23-103h10v28h-10z" fill="#d4f030" stroke="#6a7818"/>"     "     <path d="M665 215h16v9h-16zm11 10h16v10h-16zm-14-55h13v15h-13z" stroke="#6a7818" fill="#d5f030"/>"     "     "     <path d="M670 144h11v24h-11zm-4 42h10v28h-10zm10-17h13v16h-13z" fill="#d6f030" stroke="#6b7818"/>"     "     "     <path d="M682 144h11v23h-11zm3-12h14v11h-14z" stroke="#6b7818" fill="#d7f030"/>"     "     <path d="M693 119h14v12h-14zm5-9h17v8h-17zm5-23h13v19h-13z" fill="#d8f030" stroke="#6c7818"/>"     "     "     <path d="M715 74h14v12h-14zm4-16h13v14h-13zm5-17h13v16h-13z" stroke="#6c7818" fill="#d9f030"/>"     "     "     <path d="M732 21h13v19h-13zm3-8h19v7h-19z" fill="#daf030" stroke="#6d7818"/>"     "     <path d="M749 1h14v11h-14zm-72 185h10v28h-10zm5 29h16v9h-16z" stroke="#6d7818" fill="#dbf030"/>"     "     "     <path d="M688 186h10v28h-10zm2-18h13v16h-13zm4-24h11v23h-11z" fill="#dcf030" stroke="#6e7818"/>"     "     "     <path d="M700 132h15v10h-15zm8-13h15v10h-15z" stroke="#6e7818" fill="#ddf030"/>"     "     <path d="M716 107h15v10h-15zm1-20h13v18h-13zm13-14h14v13h-14z" fill="#def030" stroke="#6f7818"/>"     "     "     <path d="M733 58h13v14h-13zm5-17h12v16h-12zm8-20h12v18h-12z" stroke="#6f7818" fill="#dff030"/>"     "     "     <path d="M755 13h19v7h-19zm9-12h16v9h-16z" fill="#e0f030" stroke="#707818"/>"     "     <path d="M731 87h11v19h-11zm-48 149h10v28h-10zm10-11h14v10h-14z" stroke="#707818" fill="#e1f030"/>"     "     "     <path d="M699 185h10v28h-10zm0 29h14v10h-14zm5-46h12v16h-12z" fill="#e2f030" stroke="#717818"/>"     "     "     <path d="M706 143h11v23h-11zm10-13h12v12h-12z" stroke="#717818" fill="#e3f030"/>"     "     <path d="M724 118h13v11h-13zm8-11h14v10h-14zm11-20h11v19h-11z" fill="#e4f030" stroke="#727818"/>"     "     "     <path d="M745 73h14v13h-14zm2-15h13v13h-13zm4-18h12v17h-12z" stroke="#727818" fill="#e5f030"/>"     "     "     <path d="M759 21h12v17h-12zm-49 164h10v26h-10z" fill="#e6f030" stroke="#737818"/>"     "     <path d="M717 167h12v17h-12zm1-24h11v23h-11zm11-13h12v12h-12z" stroke="#737818" fill="#e7f030"/>"     "     "     <path d="M738 118h13v11h-13zm9-11h14v10h-14zm8-20h12v17h-12z" fill="#e8f030" stroke="#747818"/>"     "     "     <path d="M760 72h12v14h-12zm1-14h12v13h-12z" stroke="#747818" fill="#e9f030"/>"     "     <path d="M764 39h12v17h-12zm8-18h11v17h-11zm3-10h17v8h-17z" fill="#eaf030" stroke="#757818"/>"     "     "     <path d="M781 1h17v8h-17zM644 400h9v27h-9zm0 28h9v27h-9z" stroke="#757818" fill="#ebf030"/>"     "     "     <path d="M644 456h12v20h-12zm10-78h8v30h-8z" fill="#ecf030" stroke="#767818"/>"     "     <path d="M655 355h12v20h-12zm7-21h11v20h-11zm-8 75h10v24h-10z" stroke="#767818" fill="#edf030"/>"     "     "     <path d="M654 434h11v21h-11zm3 22h11v21h-11zm2 22h11v14h-11z" fill="#eef030" stroke="#777818"/>"     "     "     <path d="M660 493h11v18h-11zm3-117h10v24h-10z" stroke="#777818" fill="#eff030"/>"     "     <path d="M663 401h18v7h-18zm5-46h11v20h-11zm6-21h10v20h-10z" fill="#f0f030" stroke="#787818"/>"     "     "     <path d="M681 328h21v5h-21zm6-14h12v12h-12zm-13 62h10v24h-10z" stroke="#787818" fill="#f0f031"/>"     "     "     <path d="M680 355h10v20h-10zm5-21h11v18h-11z" fill="#f0f032" stroke="#787819"/>"     "     <path d="M665 409h10v23h-10zm1 24h11v21h-11zm3 22h11v21h-11z" stroke="#787819" fill="#f0f033"/>"     "     "     <path d="M671 477h12v15h-12zm1 16h11v18h-11zm4-84h10v23h-10z" fill="#f0f034" stroke="#78781a"/>"     "     "     <path d="M682 401h17v7h-17zm-4 32h11v21h-11z" stroke="#78781a" fill="#f0f035"/>"     "     <path d="M681 455h10v21h-10zm6-46h10v22h-10zm3 23h10v21h-10z" fill="#f0f036" stroke="#78781b"/>"     "     "     <path d="M698 409h11v18h-11zm-13-33h9v24h-9zm6-23h9v21h-9z" stroke="#78781b" fill="#f0f037"/>"     "     "     <path d="M697 334h10v18h-10zm-2 41h9v25h-9z" fill="#f0f038" stroke="#78781c"/>"     "     <path d="M700 401h16v7h-16zm1-48h10v19h-10zm4 20h9v26h-9z" stroke="#78781c" fill="#f0f039"/>"     "     "     <path d="M684 477h8v29h-8zm0 30h21v5h-21zm8-53h9v20h-9z" fill="#f0f03a" stroke="#78781d"/>"     "     "     <path d="M701 428h9v24h-9zm9-19h10v18h-10z" stroke="#78781d" fill="#f0f03b"/>"     "     <path d="M693 475h8v29h-8zm-3-201h9v26h-9zm3-9h17v8h-17z" fill="#f0f03c" stroke="#78781e"/>"     "     "     <path d="M690 301h13v11h-13zm10 12h11v14h-11zm3 15h20v5h-20z" stroke="#78781e" fill="#f0f03d"/>"     "     "     <path d="M708 334h10v18h-10zm4 19h11v16h-11z" fill="#f0f03e" stroke="#78781f"/>"     "     <path d="M719 334h11v16h-11zm-19-60h9v26h-9zm4 27h13v11h-13z" stroke="#78781f" fill="#f0f03f"/>"     "     "     <path d="M712 313h11v13h-11zm-2-39h9v26h-9zm8 27h12v11h-12z" fill="#f0f040" stroke="#787820"/>"     "     "     <path d="M724 313h9v20h-9zm-30-77h8v28h-8z" stroke="#787820" fill="#f0f041"/>"     "     <path d="M703 236h8v27h-8zm8 28h16v8h-16zm-3-39h13v10h-13z" fill="#f0f042" stroke="#787821"/>"     "     "     <path d="M714 212h11v12h-11zm7-27h9v24h-9zm-1 88h8v27h-8z" stroke="#787821" fill="#f0f043"/>"     "     "     <path d="M712 236h8v26h-8zm9 0h8v26h-8z" fill="#f0f044" stroke="#787822"/>"     "     <path d="M728 263h16v8h-16zm-6-38h13v10h-13zm4-15h11v13h-11z" stroke="#787822" fill="#f0f045"/>"     "     "     <path d="M730 236h9v23h-9zm6-12h16v8h-16zm4 9h7v29h-7z" fill="#f0f046" stroke="#787823"/>"     "     "     <path d="M729 272h9v23h-9zm0 24h7v4h-7z" stroke="#787823" fill="#f0f047"/>"     "     <path d="M731 301h16v8h-16zm6-5h6v4h-6zm2-24h8v23h-8z" fill="#f0f048" stroke="#787824"/>"     "     "     <path d="M744 296h5v4h-5zm1-33h16v8h-16zm3 9h8v23h-8z" stroke="#787824" fill="#f0f049"/>"     "     "     <path d="M748 233h7v29h-7zm-33 137h7v30h-7z" fill="#f0f04a" stroke="#787825"/>"     "     <path d="M717 401h16v7h-16zm6-31h7v30h-7zm1-19h11v16h-11z" stroke="#787825" fill="#f0f04b"/>"     "     "     <path d="M731 334h11v16h-11zm3-24h9v20h-9zm-3 58h7v30h-7z" fill="#f0f04c" stroke="#787826"/>"     "     "     <path d="M736 351h11v15h-11zm7-20h11v15h-11z" stroke="#787826" fill="#f0f04d"/>"     "     <path d="M744 310h11v15h-11zm0 16h5v4h-5zm6 0h3v4h-3z" fill="#f0f04e" stroke="#787827"/>"     "     "     <path d="M754 326h1v4h-1zm-6-25h16v8h-16zm2-5h1v4h-1z" stroke="#787827" fill="#f0f04f"/>"     "     "     <path d="M752 296h1v4h-1zm5-24h8v25h-8z" fill="#f0f050" stroke="#787828"/>"     "     <path d="M730 143h7v30h-7zm0 31h16v8h-16zm1 9h8v25h-8z" stroke="#787828" fill="#f0f051"/>"     "     "     <path d="M738 209h11v13h-11zm2-26h8v24h-8zm-2-40h7v29h-7z" fill="#f0f052" stroke="#787829"/>"     "     "     <path d="M742 130h11v11h-11zm10-12h11v11h-11z" stroke="#787829" fill="#f0f053"/>"     "     <path d="M762 105h15v8h-15zm6-18h10v16h-10zm5-15h11v13h-11z" fill="#f0f054" stroke="#78782a"/>"     "     "     <path d="M774 57h10v14h-10zm3-18h10v16h-10zm7-19h9v18h-9z" stroke="#78782a" fill="#f0f055"/>"     "     "     <path d="M793 10h13v9h-13zm6-9h16v7h-16z" fill="#f0f056" stroke="#78782b"/>"     "     <path d="M746 142h7v28h-7zm1 29h12v10h-12zm2 11h7v26h-7z" stroke="#78782b" fill="#f0f057"/>"     "     "     <path d="M750 209h10v14h-10zm3 15h14v8h-14zm4-42h7v26h-7z" fill="#f0f058" stroke="#78782c"/>"     "     "     <path d="M761 209h9v14h-9zm-5 24h7v28h-7z" stroke="#78782c" fill="#f0f059"/>"     "     <path d="M762 262h13v9h-13zm2-29h7v28h-7zm4-9h14v8h-14z" fill="#f0f05a" stroke="#78782d"/>"     "     "     <path d="M772 233h7v28h-7zm-18-103h7v27h-7zm0 28h10v12h-10z" stroke="#78782d" fill="#f0f05b"/>"     "     "     <path d="M760 171h13v9h-13zm5 10h7v27h-7z" fill="#f0f05c" stroke="#78782e"/>"     "     <path d="M771 209h10v12h-10zm2-28h7v27h-7zm-11-51h7v26h-7z" stroke="#78782e" fill="#f0f05d"/>"     "     "     <path d="M765 157h9v13h-9zm9 14h18v6h-18zm-10-57h10v15h-10z" fill="#f0f05e" stroke="#78782f"/>"     "     "     <path d="M770 130h7v26h-7zm5 27h9v13h-9z" stroke="#78782f" fill="#f0f05f"/>"     "     <path d="M775 114h10v15h-10zm3-10h12v9h-12zm1-18h10v16h-10z" fill="#f0f060" stroke="#787830"/>"     "     "     <path d="M778 130h7v25h-7zm7 26h9v13h-9zm0-100h6v29h-6z" stroke="#787830" fill="#f0f061"/>"     "     "     <path d="M788 39h10v15h-10zm2 47h9v17h-9z" fill="#f0f062" stroke="#787831"/>"     "     <path d="M794 20h9v17h-9zm-2 35h6v29h-6zm-11 123h7v25h-7z" stroke="#787831" fill="#f0f063"/>"     "     "     <path d="M782 204h8v19h-8zm7-26h7v24h-7zm4-8h15v7h-15z" fill="#f0f064" stroke="#787832"/>"     "     "     <path d="M786 114h7v24h-7zm5-10h12v9h-12z" stroke="#787832" fill="#f0f065"/>"     "     <path d="M786 139h9v16h-9zm9 17h10v11h-10zm-1-42h8v21h-8z" fill="#f0f066" stroke="#787833"/>"     "     "     <path d="M796 136h9v17h-9zm7-22h8v21h-8zm3 22h8v21h-8z" stroke="#787833" fill="#f0f067"/>"     "     "     <path d="M806 158h10v11h-10zm-7-120h8v21h-8z" fill="#f0f068" stroke="#787834"/>"     "     <path d="M804 20h9v16h-9zm3-11h11v10h-11zm9-8h17v6h-17z" stroke="#787834" fill="#f0f069"/>"     "     "     <path d="M799 60h8v21h-8zm1 22h8v20h-8zm4 21h11v10h-11z" fill="#f0f06a" stroke="#787835"/>"     "     "     <path d="M812 114h8v20h-8zm3 21h7v22h-7z" stroke="#787835" fill="#f0f06b"/>"     "     <path d="M808 37h6v27h-6zm6-17h9v15h-9zm5-12h10v11h-10z" fill="#f0f06c" stroke="#787836"/>"     "     "     <path d="M808 65h9v15h-9zm1 16h7v21h-7zm7 22h12v9h-12z" stroke="#787836" fill="#f0f06d"/>"     "     "     <path d="M821 113h7v21h-7zm-4-32h8v18h-8z" fill="#f0f06e" stroke="#787837"/>"     "     <path d="M815 36h6v27h-6zm3 28h9v15h-9zm8 16h7v22h-7z" stroke="#787837" fill="#f0f06f"/>"     "     "     <path d="M822 36h7v23h-7zm2-16h9v15h-9zm6-12h13v8h-13z" fill="#f0f070" stroke="#787838"/>"     "     "     <path d="M834 1h19v5h-19zm-6 59h8v18h-8z" stroke="#787838" fill="#f0f071"/>"     "     <path d="M830 36h6v23h-6zm4-19h8v17h-8zM702 453h6v26h-6z" fill="#f0f072" stroke="#787839"/>"     "     "     <path d="M702 480h6v23h-6zm4 24h13v8h-13zm3-51h5v30h-5z" stroke="#787839" fill="#f0f073"/>"     "     "     <path d="M709 484h8v17h-8zm2-56h8v17h-8z" fill="#f0f074" stroke="#78783a"/>"     "     <path d="M711 446h16v6h-16zm9-18h8v17h-8zm1-19h8v17h-8z" stroke="#78783a" fill="#f0f075"/>"     "     "     <path d="M715 453h5v30h-5zm3 31h7v19h-7zm2 20h14v7h-14z" fill="#f0f076" stroke="#78783b"/>"     "     "     <path d="M721 453h5v30h-5zm5 31h9v15h-9z" stroke="#78783b" fill="#f0f077"/>"     "     <path d="M735 500h10v10h-10zm-8-47h5v30h-5zm1-7h16v6h-16z" fill="#f0f078" stroke="#78783c"/>"     "     "     <path d="M729 427h7v18h-7zm1-18h7v17h-7zm4-10h11v9h-11z" stroke="#78783c" fill="#f0f079"/>"     "     "     <path d="M737 427h7v18h-7zm1-18h8v15h-8z" fill="#f0f07a" stroke="#78783d"/>"     "     <path d="M733 453h5v29h-5zm3 30h7v16h-7zm3-30h5v28h-5z" stroke="#78783d" fill="#f0f07b"/>"     "     "     <path d="M744 482h7v16h-7zm2 17h8v13h-8zm-7-132h5v27h-5z" fill="#f0f07c" stroke="#78783e"/>"     "     "     <path d="M745 367h5v27h-5zm1 28h10v10h-10z" stroke="#78783e" fill="#f0f07d"/>"     "     <path d="M748 347h7v18h-7zm7-16h7v15h-7zm1-21h7v18h-7z" fill="#f0f07e" stroke="#78783f"/>"     "     "     <path d="M751 366h5v27h-5zm5-19h6v18h-6zm-11 78h6v22h-6z" stroke="#78783f" fill="#f0f07f"/>"     "     "     <path d="M747 406h6v18h-6zm-2 42h5v25h-5z" fill="#f0f080" stroke="#787840"/>"     "     <path d="M745 474h16v6h-16zm7 7h7v14h-7zm3 15h7v14h-7z" stroke="#787840" fill="#f0f081"/>"     "     "     <path d="M760 481h9v11h-9zm3 12h6v19h-6zm-12-45h6v21h-6z" fill="#f0f082" stroke="#787841"/>"     "     "     <path d="M752 425h6v21h-6zm2-19h6v18h-6z" stroke="#787841" fill="#f0f083"/>"     "     <path d="M758 447h5v24h-5zm4 25h12v8h-12zm-3-47h6v20h-6z" fill="#f0f084" stroke="#787842"/>"     "     "     <path d="M764 446h5v24h-5zm6 35h4v30h-4zm-13-115h4v29h-4z" stroke="#787842" fill="#f0f085"/>"     "     "     <path d="M757 396h11v9h-11zm4 10h11v9h-11z" fill="#f0f086" stroke="#787843"/>"     "     <path d="M761 416h12v8h-12zm5 9h6v19h-6zm4 20h5v23h-5z" stroke="#787843" fill="#f0f087"/>"     "     "     <path d="M773 425h5v19h-5zm-11-59h4v28h-4zm1-37h4v28h-4z" fill="#f0f088" stroke="#787844"/>"     "     "     <path d="M763 358h15v6h-15zm1-48h8v12h-8z" stroke="#787844" fill="#f0f089"/>"     "     <path d="M764 323h16v5h-16zm1-25h9v10h-9zm8 11h8v12h-8z" fill="#f0f08a" stroke="#787845"/>"     "     "     <path d="M766 272h5v23h-5zm6 0h5v23h-5zm4-10h10v9h-10z" stroke="#787845" fill="#f0f08b"/>"     "     "     <path d="M775 296h10v9h-10zm3-24h5v23h-5z" fill="#f0f08c" stroke="#787846"/>"     "     <path d="M784 272h5v23h-5zm-4-39h5v23h-5zm3-9h11v8h-11z" stroke="#787846" fill="#f0f08d"/>"     "     "     <path d="M791 203h5v20h-5zm-5 30h4v27h-4zm1 28h10v9h-10z" fill="#f0f08e" stroke="#787847"/>"     "     "     <path d="M791 233h5v22h-5zm4-9h11v8h-11z" stroke="#787847" fill="#f0f08f"/>"     "     <path d="M797 233h5v22h-5zm-29 96h5v22h-5zm0 23h15v5h-15z" fill="#f0f090" stroke="#787848"/>"     "     "     <path d="M774 329h5v21h-5zm6 0h5v20h-5zm1-7h13v6h-13z" stroke="#787848" fill="#f0f091"/>"     "     "     <path d="M782 306h6v15h-6zm4-10h11v8h-11z" fill="#f0f092" stroke="#787849"/>"     "     <path d="M789 305h7v13h-7zm1-34h4v24h-4zm5 0h4v23h-4z" stroke="#787849" fill="#f0f093"/>"     "     "     <path d="M798 256h6v14h-6zm5-23h5v19h-5zm-36 132h4v26h-4z" fill="#f0f094" stroke="#78784a"/>"     "     "     <path d="M769 392h7v12h-7zm4 13h12v7h-12z" stroke="#78784a" fill="#f0f095"/>"     "     <path d="M774 413h12v7h-12zm-2-48h4v26h-4zm5 0h4v25h-4z" fill="#f0f096" stroke="#78784b"/>"     "     "     <path d="M779 358h13v6h-13zm5-8h15v5h-15zm-7 41h7v12h-7z" stroke="#78784b" fill="#f0f097"/>"     "     "     <path d="M786 329h5v18h-5zm6 0h6v14h-6z" fill="#f0f098" stroke="#78784c"/>"     "     <path d="M792 344h15v5h-15zm3-25h9v9h-9zm2-14h7v12h-7z" stroke="#78784c" fill="#f0f099"/>"     "     "     <path d="M798 295h10v8h-10zm1 34h6v14h-6zm1-58h4v22h-4z" fill="#f0f09a" stroke="#78784d"/>"     "     "     <path d="M805 304h5v16h-5zm0 17h14v5h-14z" stroke="#78784d" fill="#f0f09b"/>"     "     <path d="M806 327h5v16h-5zm-24 38h4v25h-4zm3 26h8v10h-8z" fill="#f0f09c" stroke="#78784e"/>"     "     "     <path d="M786 402h8v9h-8zm1-37h3v25h-3zm4 0h3v25h-3z" stroke="#78784e" fill="#f0f09d"/>"     "     "     <path d="M793 356h10v7h-10zm7-6h12v5h-12z" fill="#f0f09e" stroke="#78784f"/>"     "     <path d="M808 344h12v5h-12zm-14 47h8v9h-8zm18-64h6v13h-6z" stroke="#78784f" fill="#f0f09f"/>"     "     "     <path d="M819 327h6v13h-6zm-24 37h3v26h-3zm4 0h3v26h-3z" fill="#f0f0a0" stroke="#787850"/>"     "     "     <path d="M805 253h3v30h-3zm0 31h8v9h-8z" stroke="#787850" fill="#f0f0a1"/>"     "     <path d="M809 294h8v9h-8zm2 10h5v15h-5zm6 0h5v15h-5z" fill="#f0f0a2" stroke="#787851"/>"     "     "     <path d="M820 320h11v6h-11zm-23-142h3v30h-3zm0 31h7v11h-7z" stroke="#787851" fill="#f0f0a3"/>"     "     "     <path d="M801 178h3v30h-3zm4 0h3v29h-3z" fill="#f0f0a4" stroke="#787852"/>"     "     <path d="M805 208h5v15h-5zm2 16h11v6h-11zm2-54h3v29h-3z" stroke="#787852" fill="#f0f0a5"/>"     "     "     <path d="M809 200h11v6h-11zm2 7h5v15h-5zm6 0h6v12h-6z" fill="#f0f0a6" stroke="#787853"/>"     "     "     <path d="M813 170h3v28h-3zm4-12h3v28h-3z" stroke="#787853" fill="#f0f0a7"/>"     "     <path d="M817 187h7v10h-7zm4 11h11v6h-11zm0-40h3v28h-3z" fill="#f0f0a8" stroke="#787854"/>"     "     "     <path d="M823 135h4v18h-4zm2 19h3v27h-3zm0 28h5v14h-5z" stroke="#787854" fill="#f0f0a9"/>"     "     "     <path d="M828 135h4v18h-4zm1 19h3v27h-3z" fill="#f0f0aa" stroke="#787855"/>"     "     <path d="M831 182h5v14h-5zm-2-79h3v27h-3zm-54 366h3v27h-3z" stroke="#787855" fill="#f0f0ab"/>"     "     "     <path d="M775 497h5v13h-5zm1-52h3v23h-3zm3-24h3v22h-3z" fill="#f0f0ac" stroke="#787856"/>"     "     "     <path d="M779 469h3v26h-3zm2 27h5v13h-5z" stroke="#787856" fill="#f0f0ad"/>"     "     <path d="M780 444h3v24h-3zm3-23h3v22h-3zm0 48h3v26h-3z" fill="#f0f0ae" stroke="#787857"/>"     "     "     <path d="M784 444h3v24h-3zm3-32h3v26h-3zm0 57h2v30h-2z" stroke="#787857" fill="#f0f0af"/>"     "     "     <path d="M787 500h8v8h-8zm1-61h4v17h-4z" fill="#f0f0b0" stroke="#787858"/>"     "     <path d="M788 457h8v8h-8zm3-45h4v17h-4zm0 18h9v7h-9z" stroke="#787858" fill="#f0f0b1"/>"     "     "     <path d="M795 401h7v9h-7zm1 10h4v17h-4zm-3 27h5v12h-5z" fill="#f0f0b2" stroke="#787859"/>"     "     "     <path d="M793 451h11v5h-11zm6-13h6v10h-6z" stroke="#787859" fill="#f0f0b3"/>"     "     <path d="M801 411h3v21h-3zm-11 55h2v28h-2zm3 0h2v28h-2z" fill="#f0f0b4" stroke="#78785a"/>"     "     "     <path d="M803 364h2v27h-2zm1-8h10v6h-10zm9-6h11v5h-11z" stroke="#78785a" fill="#f0f0b5"/>"     "     "     <path d="M821 341h7v8h-7zm5-14h6v10h-6z" fill="#f0f0b6" stroke="#78785b"/>"     "     <path d="M803 392h6v10h-6zm0 11h8v7h-8zm2 8h3v20h-3z" stroke="#78785b" fill="#f0f0b7"/>"     "     "     <path d="M805 432h10v5h-10zm4-21h3v20h-3zm-3-48h3v19h-3z" fill="#f0f0b8" stroke="#78785c"/>"     "     "     <path d="M806 383h7v8h-7zm4 9h8v7h-8z" stroke="#78785c" fill="#f0f0b9"/>"     "     <path d="M812 400h6v9h-6zm-2-37h3v19h-3zm3 47h3v18h-3z" fill="#f0f0ba" stroke="#78785d"/>"     "     "     <path d="M814 363h2v25h-2zm1-7h9v5h-9zm2 6h3v18h-3z" stroke="#78785d" fill="#f0f0bb"/>"     "     "     <path d="M817 381h7v7h-7zm4-19h3v18h-3z" fill="#f0f0bc" stroke="#78785e"/>"     "     <path d="M796 466h2v24h-2zm1-9h6v8h-6zm-1 34h4v14h-4z" stroke="#78785e" fill="#f0f0bd"/>"     "     "     <path d="M796 506h7v6h-7zm3-40h2v24h-2zm2 25h5v11h-5z" fill="#f0f0be" stroke="#78785f"/>"     "     "     <path d="M804 503h6v8h-6zm-2-37h2v24h-2z" stroke="#78785f" fill="#f0f0bf"/>"     "     <path d="M804 457h6v7h-6zm1-8h6v7h-6zm1-11h6v7h-6z" fill="#f0f0c0" stroke="#787860"/>"     "     "     <path d="M805 465h2v23h-2zm2 24h4v13h-4zm4 14h5v8h-5z" stroke="#787860" fill="#f0f0c1"/>"     "     "     <path d="M808 465h2v23h-2zm3-8h2v23h-2z" fill="#f0f0c2" stroke="#787861"/>"     "     <path d="M811 481h8v5h-8zm1-35h8v5h-8zm1-8h6v6h-6z" stroke="#787861" fill="#f0f0c3"/>"     "     "     <path d="M816 429h5v7h-5zm4 8h5v7h-5zm-8 50h4v12h-4z" fill="#f0f0c4" stroke="#787862"/>"     "     "     <path d="M817 410h3v17h-3zm2-21h3v17h-3z" stroke="#787862" fill="#f0f0c5"/>"     "     <path d="M821 407h3v16h-3zm1 17h4v12h-4zm1-35h3v15h-3z" fill="#f0f0c6" stroke="#787863"/>"     "     "     <path d="M825 405h3v15h-3zm-8 82h2v22h-2zm-3-35h2v22h-2z" stroke="#787863" fill="#f0f0c7"/>"     "     "     <path d="M814 475h7v5h-7zm3-23h2v21h-2z" fill="#f0f0c8" stroke="#787864"/>"     "     <path d="M820 452h2v21h-2zm1-7h7v5h-7zm5-8h5v7h-5z" stroke="#787864" fill="#f0f0c9"/>"     "     "     <path d="M827 421h3v14h-3zm-7 60h2v21h-2zm2-7h5v6h-5z" fill="#f0f0ca" stroke="#787865"/>"     "     "     <path d="M820 503h4v9h-4zm3-22h2v20h-2z" stroke="#787865" fill="#f0f0cb"/>"     "     <path d="M825 502h4v9h-4zm1-21h2v20h-2zm-3-30h2v19h-2z" fill="#f0f0cc" stroke="#787866"/>"     "     "     <path d="M826 451h3v14h-3zm3-6h5v5h-5zm-3 21h5v6h-5z" stroke="#787866" fill="#f0f0cd"/>"     "     "     <path d="M828 473h4v7h-4zm2-22h4v11h-4z" fill="#f0f0ce" stroke="#787867"/>"     "     <path d="M832 463h4v9h-4zm-3 18h2v18h-2zm1 19h3v12h-3z" stroke="#787867" fill="#f0f0cf"/>"     "     "     <path d="M832 481h3v13h-3zm1-8h4v7h-4zm1 22h3v13h-3z" fill="#f0f0d0" stroke="#787868"/>"     "     "     <path d="M836 481h3v13h-3zm2 14h3v13h-3z" stroke="#787868" fill="#f0f0d1"/>"     "     <path d="M825 350h1v30h-1zm0 31h5v5h-5zm2 6h3v12h-3z" fill="#f0f0d2" stroke="#787869"/>"     "     "     <path d="M829 400h2v15h-2zm2 16h2v15h-2zm1 16h3v11h-3z" stroke="#787869" fill="#f0f0d3"/>"     "     "     <path d="M835 444h3v11h-3zm0 12h4v5h-4z" fill="#f0f0d4" stroke="#78786a"/>"     "     <path d="M837 462h4v8h-4zm1 9h3v9h-3zm2 10h3v10h-3z" stroke="#78786a" fill="#f0f0d5"/>"     "     "     <path d="M842 492h2v14h-2zm0 15h4v5h-4zm-15-157h1v27h-1z" fill="#f0f0d6" stroke="#78786b"/>"     "     "     <path d="M829 338h1v26h-1zm0 27h2v14h-2z" stroke="#78786b" fill="#f0f0d7"/>"     "     <path d="M831 380h3v10h-3zm0 11h3v8h-3zm1 9h3v10h-3z" fill="#f0f0d8" stroke="#78786c"/>"     "     "     <path d="M834 411h3v10h-3zm0 11h3v8h-3zm2 9h3v10h-3z" stroke="#78786c" fill="#f0f0d9"/>"     "     "     <path d="M839 442h2v13h-2zm1 14h4v5h-4z" fill="#f0f0da" stroke="#78786d"/>"     "     <path d="M842 462h2v13h-2zm2 14h2v12h-2zm1 13h1v17h-1z" stroke="#78786d" fill="#f0f0db"/>"     "     "     <path d="M831 338h1v26h-1zm1 27h2v11h-2zm-23-134h1v26h-1z" fill="#f0f0dc" stroke="#78786e"/>"     "     "     <path d="M809 258h1v24h-1zm2-27h1v23h-1z" stroke="#78786e" fill="#f0f0dd"/>"     "     <path d="M811 255h1v23h-1zm2-24h1v23h-1zm0 24h1v22h-1z" fill="#f0f0de" stroke="#78786f"/>"     "     "     <path d="M813 278h3v5h-3zm1 6h3v8h-3zm1-53h1v22h-1z" stroke="#78786f" fill="#f0f0df"/>"     "     "     <path d="M815 254h1v21h-1zm2-23h1v21h-1z" fill="#f0f0e0" stroke="#787870"/>"     "     <path d="M817 253h1v21h-1zm0 22h3v7h-3zm1 8h1v20h-1z" stroke="#787870" fill="#f0f0e1"/>"     "     "     <path d="M820 283h1v19h-1zm-1-63h1v19h-1zm0 20h1v19h-1z" fill="#f0f0e2" stroke="#787871"/>"     "     "     <path d="M819 260h2v10h-2zm2 11h2v9h-2z" stroke="#787871" fill="#f0f0e3"/>"     "     <path d="M822 281h1v17h-1zm1 18h1v16h-1zm-2-79h1v15h-1z" fill="#f0f0e4" stroke="#787872"/>"     "     "     <path d="M821 236h1v15h-1zm0 16h3v6h-3zm1 7h3v6h-3z" stroke="#787872" fill="#f0f0e5"/>"     "     "     <path d="M823 220h1v15h-1zm1-15h1v14h-1z" fill="#f0f0e6" stroke="#787873"/>"     "     <path d="M823 236h1v15h-1zm1 30h1v15h-1zm0 16h1v14h-1z" stroke="#787873" fill="#f0f0e7"/>"     "     "     <path d="M825 297h1v14h-1zm0 15h2v7h-2zm0-92h1v14h-1z" fill="#f0f0e8" stroke="#787874"/>"     "     "     <path d="M826 205h1v13h-1zm-1 30h1v13h-1z" stroke="#787874" fill="#f0f0e9"/>"     "     <path d="M825 249h2v8h-2zm2-30h1v12h-1zm1-14h1v12h-1z" fill="#f0f0ea" stroke="#787875"/>"     "     "     <path d="M827 232h1v12h-1zm-1 26h1v11h-1zm0 12h2v7h-2z" stroke="#787875" fill="#f0f0eb"/>"     "     "     <path d="M826 278h2v6h-2zm0 7h2v6h-2z" fill="#f0f0ec" stroke="#787876"/>"     "     <path d="M827 292h1v8h-1zm0 9h2v5h-2zm1 6h2v5h-2z" stroke="#787876" fill="#f0f0ed"/>"     "     "     <path d="M828 313h2v5h-2zm0-68h1v7h-1zm0 8h1v7h-1z" fill="#f0f0ee" stroke="#787877"/>"     "     "     <path d="M828 261h1v7h-1zm1-43h1v6h-1z" stroke="#787877" fill="#f0f0ef"/>"     "     <text y="526" font-size="12" fill="#000" x="0"> MaxRectsBin(size: 1024x512, rule: BestAreaFit): inserted 1536 of 1536 rectangles with w/h lengths between [2, 31], occupancy: 80.22% </text></svg>